<?xml version="1.0" standalone="no"?>
<!DOCTYPE svg PUBLIC "-//W3C//DTD SVG 1.1//EN" "http://www.w3.org/Graphics/SVG/1.1/DTD/svg11.dtd" >
<svg xmlns="http://www.w3.org/2000/svg" xmlns:xlink="http://www.w3.org/1999/xlink" version="1.1">
<metadata>
Created by FontForge 20170731 at Fri Oct  6 14:18:39 2023
 By Aleksey,,,
Copyright (c) 2023 by Stefan Degen
</metadata>
<defs>
<font id="ordlicon-Regular" horiz-adv-x="1433" >
  <font-face 
    font-family="ordlicon"
    font-weight="400"
    font-stretch="normal"
    units-per-em="2048"
    panose-1="0 0 5 0 0 0 0 0 0 0"
    ascent="1638"
    descent="-410"
    bbox="-22 -82 2370 1545"
    underline-thickness="102"
    underline-position="-307"
    unicode-range="U+0020-E2C8"
  />
<missing-glyph horiz-adv-x="204" 
 />
    <glyph glyph-name=".notdef" horiz-adv-x="204" 
 />
    <glyph glyph-name=".null" horiz-adv-x="0" 
 />
    <glyph glyph-name="nonmarkingreturn" horiz-adv-x="682" 
 />
    <glyph glyph-name="space" unicode=" " horiz-adv-x="1228" 
 />
    <glyph glyph-name="uniE001" unicode="&#xe001;" 
d="M1059 440q-14 14 -33.5 14t-33.5 -14t-14 -34t14 -34l144 -135l-144 -135q-14 -14 -14 -33.5t14 -33.5t33.5 -14t33.5 14l135 145l136 -145q14 -14 33.5 -14t33.5 14t14 33.5t-14 33.5l-145 135l145 135q14 14 14 34t-14 34t-33.5 14t-33.5 -14l-136 -145zM847 574
q-130 48 -261 0l-269 -98q-57 -20 -91.5 -70t-34.5 -110v-105h96v105v12q3 26 20.5 47.5t42.5 30.5l269 98l21 7q87 24 175 -7l107 -39q7 14 18 28l10 11q21 21 53 33zM717 1243q-99 0 -169 -70t-70 -169v-144q0 -99 70 -169t169 -70t169 70t70 169v144q0 99 -70 169
t-169 70zM717 1147q59 0 101 -42t42 -101v-144l-1 -14q-5 -55 -45.5 -92t-96.5 -37q-59 0 -101.5 42t-42.5 101v144l1 13q5 55 46 92.5t97 37.5z" />
    <glyph glyph-name="uniE002" unicode="&#xe002;" 
d="M1386 287h-382q-20 0 -34 -14.5t-14 -33.5t14 -33.5t34 -14.5h382q20 0 34 14.5t14 33.5t-14 33.5t-34 14.5zM847 574q-130 48 -261 0l-269 -98q-57 -20 -91.5 -70t-34.5 -110v-105h96v105v12q3 26 20.5 47.5t42.5 30.5l269 98l21 7q87 24 175 -7l269 -98l8 -4h130
q-34 68 -105 94zM717 1243q-99 0 -169 -70t-70 -169v-144q0 -99 70 -169t169 -70t169 70t70 169v144q0 99 -70 169t-169 70zM717 1147q59 0 101 -42t42 -101v-144l-1 -14q-5 -55 -45.5 -92t-96.5 -37q-59 0 -101.5 42t-42.5 101v144l1 13q5 55 46 92.5t97 37.5z" />
    <glyph glyph-name="uniE003" unicode="&#xe003;" 
d="M1195 478q-19 0 -33.5 -14t-14.5 -34v-143h-143q-20 0 -34 -14.5t-14 -33.5t14 -33.5t34 -14.5h143v-143q0 -20 14.5 -34t33.5 -14t33 14t14 34v143h144q20 0 34 14.5t14 33.5t-14 33.5t-34 14.5h-144v143q0 20 -14 34t-33 14zM847 574q-130 48 -261 0l-269 -98
q-57 -20 -91.5 -70t-34.5 -110v-105h96v105v12q3 26 20.5 47.5t42.5 30.5l269 98l21 7q87 24 175 -7l236 -86v32q0 36 15 64zM717 1243q-99 0 -169 -70t-70 -169v-144q0 -99 70 -169t169 -70t169 70t70 169v144q0 99 -70 169t-169 70zM717 1147q59 0 101 -42t42 -101v-144
l-1 -14q-5 -55 -45.5 -92t-96.5 -37q-59 0 -101.5 42t-42.5 101v144l1 13q5 55 46 92.5t97 37.5z" />
    <glyph glyph-name="uniE004" unicode="&#xe004;" 
d="M717 191q-19 0 -33.5 -14.5t-14.5 -33.5t14 -33t34 -14t34 14t14 33t-14.5 33.5t-33.5 14.5zM526 191q-20 0 -34 -14.5t-14 -33.5t14 -33t34 -14t33.5 14t13.5 33q0 20 -14 34t-33 14zM908 191q-20 0 -34 -14.5t-14 -33.5t14 -33t34 -14t34 14t14 33t-14 33.5t-34 14.5z
M847 574q-130 48 -261 0l-269 -98q-57 -20 -91.5 -70t-34.5 -110v-105h96v105v12q3 26 20.5 47.5t42.5 30.5l269 98l21 7q87 24 175 -7l269 -98l11 -5q52 -26 52 -85v-105h95v105q0 60 -34 110t-91 70zM717 1242q-99 0 -169 -69.5t-70 -168.5v-144q0 -99 70 -169t169 -70
t169 70t70 169v144q0 99 -70 168.5t-169 69.5zM717 1147q59 0 101 -42t42 -101v-144v-14q-5 -55 -46 -92t-97 -37q-59 0 -101.5 42t-42.5 101v144l1 13q5 55 46 92.5t97 37.5z" />
    <glyph glyph-name="uniE005" unicode="&#xe005;" 
d="M847 553q-130 48 -261 0l-269 -98q-57 -20 -91.5 -69.5t-34.5 -109.5v-105h96v105v12q3 26 20.5 47.5t42.5 30.5l269 97l21 7q87 24 175 -7l269 -98l11 -4q52 -26 52 -85v-105h95v105q0 60 -34 109.5t-91 69.5zM717 1222q-99 0 -169 -70t-70 -169v-143q0 -99 70 -169
t169 -70t169 70t70 169v143q0 99 -70 169t-169 70zM717 1126q59 0 101 -42t42 -101v-143l-1 -14q-5 -55 -45.5 -92.5t-96.5 -37.5q-59 0 -101.5 42.5t-42.5 101.5v143l1 14q5 55 46 92t97 37z" />
    <glyph glyph-name="uniE006" unicode="&#xe006;" 
d="M717 1232q-109 0 -208 -42.5t-170.5 -114t-114 -171t-42.5 -208.5q0 -146 71.5 -269t194.5 -194.5t269 -71.5t269 71.5t194.5 194.5t71.5 269q0 109 -42.5 208.5t-114 171t-170.5 114t-208 42.5zM717 1136q182 0 310.5 -129t128.5 -311t-128.5 -310.5t-310.5 -128.5
t-311 128.5t-129 310.5t129 311t311 129zM927 916l-304 -304l-135 135l-67 -67l202 -203l372 372zM1162 1275q-14 14 -34 14t-34 -14t-14 -34t14 -34l135 -135q14 -14 34 -14t34 14t14 34t-14 34zM341 1275q-14 14 -34 14t-34 -14l-135 -135v-1q-14 -14 -14 -33.5t14 -33.5
t34 -14t34 14l135 135l1 1q13 14 13 33.5t-14 33.5z" />
    <glyph glyph-name="uniE007" unicode="&#xe007;" 
d="M717 1232q-109 0 -208 -42.5t-170.5 -114t-114 -171t-42.5 -208.5q0 -146 71.5 -269t194.5 -194.5t269 -71.5t269 71.5t194.5 194.5t71.5 269q0 109 -42.5 208.5t-114 171t-170.5 114t-208 42.5zM717 1136q182 0 310.5 -129t128.5 -311t-128.5 -310.5t-310.5 -128.5
t-311 128.5t-129 310.5t129 311t311 129zM717 935q-19 0 -33.5 -14.5t-14.5 -33.5v-143h-143q-20 0 -34 -14t-14 -34t14 -34t34 -14h143v-143q0 -19 14.5 -33.5t33.5 -14.5t33.5 14.5t14.5 33.5v143h143q20 0 34 14t14 34t-14 34t-34 14h-143v143q0 19 -14.5 33.5
t-33.5 14.5zM1162 1275q-14 14 -34 14t-34 -14t-14 -34t14 -34l135 -135q14 -14 34 -14t34 14t14 34t-14 34zM341 1275q-14 14 -34 14t-34 -14l-135 -135l-5 -7q-10 -14 -9 -31t14 -30q14 -14 34 -14t34 14l135 135l6 7q22 33 -6 61z" />
    <glyph glyph-name="uniE008" unicode="&#xe008;" 
d="M717 1232q-109 0 -208 -42.5t-170.5 -114t-114 -171t-42.5 -208.5q0 -146 71.5 -269t194.5 -194.5t269 -71.5t269 71.5t194.5 194.5t71.5 269q0 109 -42.5 208.5t-114 171t-170.5 114t-208 42.5zM717 1136q182 0 310.5 -129t128.5 -311t-128.5 -310.5t-310.5 -128.5
t-311 128.5t-129 310.5t129 311t311 129zM717 1031q-19 0 -33.5 -14.5t-14.5 -33.5v-334h1l-1 -2l290 -167q17 -10 36 -5t29 22t5 36.5t-22 29.5l-242 139v281q0 19 -14.5 33.5t-33.5 14.5zM1162 1275q-14 14 -34 14t-34 -14t-14 -34t14 -34l135 -135q14 -14 34 -14t34 14
t14 34t-14 34zM273 1275l-135 -135q-14 -14 -14 -34t14 -34t34 -14t34 14l135 135q14 14 14 34t-14 34t-34 14t-34 -14z" />
    <glyph glyph-name="uniE009" unicode="&#xe009;" 
d="M717 1232q-109 0 -208 -42.5t-170.5 -114t-114 -171t-42.5 -208.5q0 -146 71.5 -269t194.5 -194.5t269 -71.5t269 71.5t194.5 194.5t71.5 269q0 109 -42.5 208.5t-114 171t-170.5 114t-208 42.5zM717 1136q182 0 310.5 -129t128.5 -311t-128.5 -310.5t-310.5 -128.5
t-311 128.5t-129 310.5t129 311t311 129zM1162 1275q-14 14 -34 14t-34 -14t-14 -34t14 -34l135 -135q14 -14 34 -14t34 14t14 34t-14 34zM273 1275l-135 -135q-14 -14 -14 -34t14 -34t34 -14t34 14l135 135q14 14 14 34t-14 34t-34 14t-34 -14zM908 821v86h-382v-96h236
l-236 -237v-88h382v96h-240z" />
    <glyph glyph-name="uniE00A" unicode="&#xe00a;" 
d="M741 1359q-17 10 -36.5 4.5t-29.5 -22.5l-634 -1099q-6 -10 -6 -24q0 -19 14 -33t34 -14h1268q13 0 24 6q17 10 22 29t-5 36l-634 1099q-7 12 -17 18zM717 1222l551 -956h-1103zM717 467q-24 0 -41 -16.5t-17 -40.5t17 -41t41 -17t40.5 17t16.5 41t-16.5 40.5t-40.5 16.5
zM784 935h-134l19 -334q0 -19 14.5 -33.5t33.5 -14.5t33 14t14 34z" />
    <glyph glyph-name="uniE00B" unicode="&#xe00b;" 
d="M1195 266h-956q-19 0 -33.5 -14t-14.5 -34q0 -19 14 -33t34 -14h956q19 0 33 13.5t14 33.5t-14 34t-33 14zM908 1222h-382q-20 0 -34 -14t-14 -34v-764q0 -20 14 -34t34 -14h382q20 0 34 14t14 34v764q0 20 -14 34t-34 14zM860 1126v-669h-287v669h287z" />
    <glyph glyph-name="uniE00C" unicode="&#xe00c;" 
d="M717 1222q-19 0 -33.5 -14t-14.5 -34v-239h-335q-19 0 -33 -14t-14 -34v-382q0 -20 14 -34t33 -14h335v-239q0 -19 14 -33t34 -14t34 14t14 33v239h334q19 0 33.5 14.5t14.5 33.5v382q0 19 -14.5 33.5t-33.5 14.5h-334v239q0 20 -14.5 34t-33.5 14zM1051 840v-287h-669
v287h669z" />
    <glyph glyph-name="uniE00D" unicode="&#xe00d;" 
d="M239 1222q-19 0 -33.5 -14t-14.5 -34v-956q0 -19 14 -33t34 -14t34 14t14 33v956q0 20 -14.5 34t-33.5 14zM1195 935h-765q-20 0 -34 -14.5t-14 -33.5v-382q0 -19 14 -33.5t34 -14.5h765q19 0 33 14t14 34v382q0 20 -14 34t-33 14zM1147 840v-287h-669v287h669z" />
    <glyph glyph-name="uniE00E" unicode="&#xe00e;" 
d="M908 1126h-382q-20 0 -34 -14t-14 -33v-335h-239q-19 0 -33.5 -14t-14.5 -34t14.5 -34t33.5 -14h239v-334q0 -20 14 -34t34 -14h382q20 0 34 14t14 34v334h239q19 0 33 14t14 34t-14 34t-33 14h-239v335q0 19 -14 33t-34 14zM860 1031v-669h-287v669h287z" />
    <glyph glyph-name="uniE00F" unicode="&#xe00f;" 
d="M1195 1222q-19 0 -33.5 -14t-14.5 -34v-956q0 -19 14 -33t34 -14q19 0 33 13.5t14 33.5v956q0 20 -14 34t-33 14zM1004 935h-765q-19 0 -33.5 -14.5t-14.5 -33.5v-382q0 -19 14.5 -33.5t33.5 -14.5h765q19 0 33 14t14 34v382q0 20 -14 34t-33 14zM956 840v-287h-669v287
h669z" />
    <glyph glyph-name="uniE010" unicode="&#xe010;" 
d="M908 1051h-382q-20 0 -34 -14t-14 -33v-765q0 -19 14 -33.5t34 -14.5h382q20 0 34 14.5t14 33.5v765q0 19 -14 33t-34 14zM860 956v-669h-287v669h287zM1195 1242h-956q-20 0 -34 -14t-14 -33t14.5 -33.5t33.5 -14.5h956q19 0 33 14t14 34q0 19 -14 33t-33 14z" />
    <glyph glyph-name="uniE011" unicode="&#xe011;" 
d="M964 536q-14 14 -34 14t-34 -14t-14 -34t14 -34l145 -135l-145 -135q-14 -14 -14 -34t14 -34t34 -14t34 14l135 145l135 -145q14 -14 34 -14t34 14t14 34t-14 34l-146 135l146 135q14 14 14 34t-14 34t-34 14t-34 -14l-135 -145zM1195 1147h-956q-19 0 -33.5 -14.5
t-14.5 -33.5v-191q0 -20 14.5 -34t33.5 -14h48v-526q0 -19 14 -33t34 -14h430v95h-383v478h669v-191h96v191h48q19 0 33 14t14 34v191q0 20 -14 34t-33 14zM812 765h-191q-19 0 -33.5 -14.5t-14.5 -33.5t14.5 -33.5t33.5 -14.5h191q20 0 34 14.5t14 33.5t-14 33.5t-34 14.5z
M287 1051h860v-95h-860v95z" />
    <glyph glyph-name="uniE012" unicode="&#xe012;" 
d="M1386 287h-382q-20 0 -34 -14.5t-14 -33.5t14 -33.5t34 -14.5h382q20 0 34 14.5t14 33.5t-14 33.5t-34 14.5zM1242 1099q0 20 -14 34t-33 14h-956q-19 0 -33.5 -14.5t-14.5 -33.5v-191q0 -20 14.5 -34t33.5 -14h48v-525q0 -20 14 -34t33 -14h526v95h-478v478h669v-382h96
v382h48q19 0 33 14t14 34v191zM860 717q0 19 -14 33.5t-34 14.5h-191q-19 0 -33.5 -14.5t-14.5 -33.5t14.5 -33.5t33.5 -14.5h191q20 0 34 14.5t14 33.5zM287 1051h860v-95h-860v95z" />
    <glyph glyph-name="uniE013" unicode="&#xe013;" 
d="M1195 478q-19 0 -33.5 -14t-14.5 -34v-143h-143q-20 0 -34 -14.5t-14 -33.5t14 -33.5t34 -14.5h143v-143q0 -20 14.5 -34t33.5 -14t33 14t14 34v143h144q20 0 34 14.5t14 33.5t-14 33.5t-34 14.5h-144v143q0 20 -14 34t-33 14zM1242 1099q0 20 -14 34t-33 14h-956
q-19 0 -33.5 -14.5t-14.5 -33.5v-191q0 -20 14.5 -34t33.5 -14h48v-526q0 -20 13.5 -33.5t33.5 -13.5h526v95h-478v478h669v-287h96v287h48q19 0 33 14t14 34v191zM860 717q0 19 -14 33.5t-34 14.5h-191q-19 0 -33.5 -14.5t-14.5 -33.5t14.5 -33.5t33.5 -14.5h191
q20 0 34 14.5t14 33.5zM287 1051h860v-95h-860v95z" />
    <glyph glyph-name="uniE014" unicode="&#xe014;" 
d="M717 191q-19 0 -33.5 -14.5t-14.5 -33.5t14 -33t34 -14t34 14t14 33t-14.5 33.5t-33.5 14.5zM526 191q-20 0 -34 -14.5t-14 -33.5t14 -33t34 -14t33.5 14t13.5 33q0 20 -14 34t-33 14zM908 191q-20 0 -34 -14.5t-14 -33.5t14 -33t34 -14t34 14t14 33t-14 33.5t-34 14.5z
M1195 1147h-956q-19 0 -33.5 -14.5t-14.5 -33.5v-191q0 -20 14.5 -34t33.5 -14h48v-526q0 -19 14 -33t34 -14h764q20 0 34 14t14 33v526h48q19 0 33 14t14 34v191q0 20 -14 34t-33 14zM382 860h669v-478h-669v478zM812 765h-191q-19 0 -33.5 -14.5t-14.5 -33.5t14.5 -33.5
t33.5 -14.5h191q20 0 34 14.5t14 33.5t-14 33.5t-34 14.5zM287 1051h860v-95h-860v95z" />
    <glyph glyph-name="uniE015" unicode="&#xe015;" 
d="M1242 1099q0 20 -14 34t-33 14h-956q-19 0 -33.5 -14.5t-14.5 -33.5v-191q0 -20 14.5 -34t33.5 -14h48v-526q0 -20 13.5 -33.5t33.5 -13.5h765q20 0 34 14t14 33v526h48q19 0 33 14t14 34v191zM382 860h669v-478h-669v478zM860 717q0 19 -14 33.5t-34 14.5h-191
q-19 0 -33.5 -14.5t-14.5 -33.5t14.5 -33.5t33.5 -14.5h191q20 0 34 14.5t14 33.5zM287 1051h860v-95h-860v95z" />
    <glyph glyph-name="uniE016" unicode="&#xe016;" 
d="M908 314q0 -18 -13 -33t-31 -15h-530q-18 0 -32.5 15t-14.5 33v530q0 18 14.5 30.5t32.5 12.5t33 -14.5t15 -32.5l-8 -419l699 699q14 14 33.5 14t33.5 -14t14 -34t-14 -34l-698 -698l418 8q18 0 33 -15t15 -33z" />
    <glyph glyph-name="uniE017" unicode="&#xe017;" 
d="M526 314q0 -18 13 -33t31 -15h529q18 0 33 15t15 33v530q0 18 -15 30.5t-33 12.5t-33 -14.5t-15 -32.5l8 -419l-698 699q-14 14 -34 14t-34 -14t-14 -34t14 -34l699 -698l-419 8q-18 0 -32.5 -15t-14.5 -33z" />
    <glyph glyph-name="uniE018" unicode="&#xe018;" 
d="M1348 717q0 128 -50 245t-134.5 201.5t-201.5 134.5t-245 50t-245 -50t-201.5 -134.5t-134.5 -201.5t-50 -245t50 -245t134.5 -201.5t201.5 -134.5t245 -50t245 50t201.5 134.5t134.5 201.5t50 245zM1252 717q0 -146 -71.5 -269t-194.5 -194.5t-269 -71.5t-269 71.5
t-194.5 194.5t-71.5 269t71.5 269t194.5 194.5t269 71.5t269 -71.5t194.5 -194.5t71.5 -269zM979 691q13 -13 14 -32.5t-11 -32.5l-231 -231q-13 -13 -34 -13t-34 13l-231 231q-12 13 -11 32.5t14 32.5t34 13t34 -13l146 -158v471q0 19 14 33t34 14t34 -14t14 -33v-471
l147 158q13 13 33.5 13t33.5 -13z" />
    <glyph glyph-name="uniE019" unicode="&#xe019;" 
d="M717 1348q-128 0 -245 -50t-201.5 -134.5t-134.5 -201.5t-50 -245t50 -245t134.5 -201.5t201.5 -134.5t245 -50t245 50t201.5 134.5t134.5 201.5t50 245t-50 245t-134.5 201.5t-201.5 134.5t-245 50zM717 1252q146 0 269 -71.5t194.5 -194.5t71.5 -269t-71.5 -269
t-194.5 -194.5t-269 -71.5t-269 71.5t-194.5 194.5t-71.5 269t71.5 269t194.5 194.5t269 71.5zM691 979q-13 13 -32.5 14t-32.5 -11l-231 -231q-13 -13 -13 -34t13 -34l231 -231q13 -12 32.5 -11t32.5 14t13 34t-13 34l-158 146h471q19 0 33 14t14 34t-14 34t-33 14h-471
l158 147q13 13 13 33.5t-13 33.5z" />
    <glyph glyph-name="uniE01A" unicode="&#xe01a;" 
d="M717 1348q-128 0 -245 -50t-201.5 -134.5t-134.5 -201.5t-50 -245t50 -245t134.5 -201.5t201.5 -134.5t245 -50t245 50t201.5 134.5t134.5 201.5t50 245t-50 245t-134.5 201.5t-201.5 134.5t-245 50zM717 1252q146 0 269 -71.5t194.5 -194.5t71.5 -269t-71.5 -269
t-194.5 -194.5t-269 -71.5t-269 71.5t-194.5 194.5t-71.5 269t71.5 269t194.5 194.5t269 71.5zM743 979q13 13 32.5 14t32.5 -11l230 -231q13 -13 13 -34t-13 -34l-230 -231q-13 -12 -32.5 -11t-32.5 14t-13 34t13 34l158 146h-471q-20 0 -34 14.5t-14 33.5t14 33.5t34 14.5
h471l-158 147q-13 13 -13 33.5t13 33.5z" />
    <glyph glyph-name="uniE01B" unicode="&#xe01b;" 
d="M717 1348q-128 0 -245 -50t-201.5 -134.5t-134.5 -201.5t-50 -245t50 -245t134.5 -201.5t201.5 -134.5t245 -50t245 50t201.5 134.5t134.5 201.5t50 245t-50 245t-134.5 201.5t-201.5 134.5t-245 50zM717 1252q146 0 269 -71.5t194.5 -194.5t71.5 -269t-71.5 -269
t-194.5 -194.5t-269 -71.5t-269 71.5t-194.5 194.5t-71.5 269t71.5 269t194.5 194.5t269 71.5zM979 743q13 13 14 32.5t-11 32.5l-231 230q-13 13 -34 13t-34 -13l-231 -230q-12 -13 -11 -32.5t14 -32.5t34 -13t34 13l146 158v-471q0 -20 14.5 -34t33.5 -14t33.5 14t14.5 34
v471l147 -158q13 -13 33.5 -13t33.5 13z" />
    <glyph glyph-name="uniE01C" unicode="&#xe01c;" 
d="M851 759l381 381l6 7q22 33 -6 61l-7 6q-32 22 -60 -6l-381 -381zM860 163h338q18 0 33 15t15 33v338q0 18 -15 31t-33 13t-33 -15t-15 -33l9 -227l-890 890q-14 14 -34 14t-34 -14t-14 -34t14 -34l890 -890l-227 9q-18 0 -33 -15t-15 -33t13 -33t31 -15zM235 163h339
l7 1q16 3 26 16.5t10 30.5q0 18 -14.5 33t-32.5 15l-228 -9l307 308l-67 67l-307 -307l8 227l-1 8q-3 16 -17 28t-30 12q-18 0 -33 -13t-15 -31v-338l1 -8q3 -16 17 -28t30 -12z" />
    <glyph glyph-name="uniE01D" unicode="&#xe01d;" 
d="M788 827l381 381l6 5q14 10 31 9t30 -14l6 -7q22 -33 -6 -61l-381 -381zM191 836v338q0 18 15 33t33 15h338q18 0 31 -15t13 -33t-15 -33t-33 -15l-227 8l890 -889q14 -14 14 -34t-14 -34t-33.5 -14t-33.5 14l-890 890l8 -227q0 -18 -15 -33t-33 -15t-33 13t-15 31z
M191 211v338l1 8q3 16 16.5 26t30.5 10q18 0 33 -15t15 -33l-8 -227l307 307l67 -68l-307 -307l227 9l9 -1q16 -3 27.5 -17t11.5 -30q0 -18 -13 -33t-31 -15h-338l-8 1q-16 3 -28 17t-12 30z" />
    <glyph glyph-name="uniE01E" unicode="&#xe01e;" 
d="M654 827l-381 381l-7 5q-14 10 -31 9t-30 -14l-5 -7q-10 -14 -9 -31t14 -30l381 -381zM1250 836v338q0 18 -15 33t-33 15h-338q-18 0 -31 -15t-13 -33t15 -33t33 -15l227 8l-890 -889q-14 -14 -14 -34t14 -34t34 -14t34 14l890 890l-9 -227q0 -18 15 -33t33 -15t33 13
t15 31zM1250 211v338l-1 8q-3 16 -16.5 26t-30.5 10q-18 0 -33 -15t-15 -33l9 -227l-307 307l-68 -68l307 -307l-227 9l-8 -1q-16 -3 -28 -17t-12 -30q0 -18 13 -33t31 -15h338l8 1q16 3 28 17t12 30z" />
    <glyph glyph-name="uniE01F" unicode="&#xe01f;" 
d="M586 646l-381 -381l-5 -7q-22 -33 5 -60l7 -6q33 -22 61 6l381 380zM577 1242h-338q-18 0 -33 -14.5t-15 -32.5v-339q0 -18 15 -31t33 -13t33 15t15 33l-8 227l889 -890q14 -14 34 -14t34 14t14 34t-14 34l-890 890l227 -8q18 0 33 15t15 33t-13 32.5t-31 14.5z
M1202 1242h-338h-8q-16 -3 -26 -16.5t-10 -30.5q0 -18 15 -33t33 -15l227 8l-307 -307l68 -68l307 307l-9 -227l1 -8q3 -16 17 -28t30 -12q18 0 33 13t15 31v339l-1 8q-3 16 -17 27.5t-30 11.5z" />
    <glyph glyph-name="uniE020" unicode="&#xe020;" horiz-adv-x="1437" 
d="M289 421v774q0 19 14 33t34 14q19 0 33 -14t14 -33v-774l1 -14q5 -55 46 -92.5t97 -37.5q59 0 101 42.5t42 101.5v592q0 99 70 169t169 70t169 -70t70 -169v-681l99 111q13 13 34 13t34 -13t14 -32.5t-11 -32.5l-184 -183q-13 -13 -33.5 -13t-33.5 13l-183 183
q-13 13 -12 32.5t14 32.5t34 13t34 -13l99 -111l-1 614v7v60v14q-5 55 -46 92t-97 37q-59 0 -101 -42t-42 -101v-592q0 -99 -70 -169t-169 -70t-169 70t-70 169z" />
    <glyph glyph-name="uniE021" unicode="&#xe021;" horiz-adv-x="1437" 
d="M423 1147h774q19 0 33.5 -14.5t14.5 -33.5t-14.5 -33.5t-33.5 -14.5h-774h-14q-55 -5 -92.5 -46t-37.5 -97q0 -59 42.5 -101.5t101.5 -42.5h592q99 0 169 -69.5t70 -168.5t-70 -169t-169 -70l-681 -1l111 -99q13 -13 13 -33.5t-13 -33.5t-32.5 -14t-32.5 11l-183 183
q-13 13 -13 34t13 34l183 183q13 12 32.5 11t32.5 -14t13 -33.5t-13 -33.5l-111 -99h614h7h60l14 1q55 5 92 46t37 97q0 59 -42 101t-101 42h-592q-99 0 -169 70t-70 169t70 169t169 70z" />
    <glyph glyph-name="uniE022" unicode="&#xe022;" horiz-adv-x="1437" 
d="M1015 1147h-774q-19 0 -33.5 -14.5t-14.5 -33.5t14.5 -33.5t33.5 -14.5h774h14q55 -5 92 -46t37 -97q0 -59 -42 -101.5t-101 -42.5h-592q-99 0 -169 -69.5t-70 -168.5t70 -169t169 -70l681 -1l-111 -99q-13 -13 -13 -33.5t13 -33.5t32.5 -14t32.5 11l183 183q13 13 13 34
t-13 34l-183 183q-13 12 -32.5 11t-32.5 -14t-13 -33.5t13 -33.5l110 -99h-613h-7h-60l-14 1q-55 5 -92.5 46t-37.5 97q0 59 42.5 101t101.5 42h592q99 0 169 70t70 169t-70 169t-169 70z" />
    <glyph glyph-name="uniE023" unicode="&#xe023;" horiz-adv-x="1437" 
d="M289 993v-775q0 -19 14 -33t34 -14q19 0 33 13.5t14 33.5v775l1 13q5 55 46 92.5t97 37.5q59 0 101 -42t42 -101v-593q0 -99 70 -169t169 -70t169 70t70 169v681l99 -111q13 -13 34 -13t34 13t14 32.5t-11 32.5l-184 184q-13 13 -33.5 13t-33.5 -13l-183 -184
q-13 -13 -12 -32.5t14 -32.5t34 -13t34 13l99 111l-1 -614v-6v-61v-14q-5 -55 -46 -92t-97 -37q-59 0 -101 42t-42 101v593q0 99 -70 169t-169 70t-169 -70t-70 -169z" />
    <glyph glyph-name="uniE024" unicode="&#xe024;" 
d="M1211 730q14 -14 14.5 -33.5t-12.5 -33.5l-463 -486l-7 -6q-14 -9 -31.5 -7.5t-29.5 14.5l-462 485q-13 15 -13 33q0 20 14.5 34t33.5 14h223v430q0 20 14 34t33 14h383q19 0 33 -14t14 -34v-430h223q17 0 33 -14zM1067 648h-207v478h-287v-478h-207l351 -368z" />
    <glyph glyph-name="uniE025" unicode="&#xe025;" horiz-adv-x="1437" 
d="M1124 432h1q13 -13 14 -32.5t-12 -32.5l-183 -183q-13 -13 -33.5 -13t-33.5 13l-184 183q-12 13 -11 32.5t14 32.5t34 13t34 -13l98 -111v614v10q0 79 -56 135t-135 56t-135 -56t-56 -135v-440q0 -19 -14 -33.5t-34 -14.5t-34 14.5t-14 33.5v430l1 1l-1 9q0 119 84 203
t203 84t203 -84t84 -203v-624l99 111q13 13 33.5 13t33.5 -13z" />
    <glyph glyph-name="uniE026" unicode="&#xe026;" horiz-adv-x="1437" 
d="M1124 623q13 -13 14 -32.5t-11 -32.5l-374 -374q-13 -13 -34 -13t-34 13l-374 374q-13 13 -12 32.5t14 32.5t34 13t34 -13l290 -301v852q0 20 14.5 34t33.5 14t33.5 -14t14.5 -34v-853l290 302q13 13 33.5 13t33.5 -13z" />
    <glyph glyph-name="uniE027" unicode="&#xe027;" horiz-adv-x="1437" 
d="M983 1102q13 13 32.5 14t32.5 -11l184 -183q13 -13 13 -34t-13 -34l-184 -183q-13 -13 -32.5 -12t-32.5 14t-13 34t13 34l111 99h-853q-19 0 -33.5 14t-14.5 34q0 19 14 33t34 14h853l-111 99q-13 13 -13 34t13 34zM454 720q-13 13 -32.5 14t-32.5 -11l-183 -184
q-13 -13 -13 -33.5t13 -33.5l183 -184q13 -12 32.5 -11t32.5 14t13 34t-13 34l-110 99h853q20 0 34 14t14 33t-14.5 33.5t-33.5 14.5h-853l110 99q13 13 13 34t-13 34z" />
    <glyph glyph-name="uniE028" unicode="&#xe028;" horiz-adv-x="1437" 
d="M742 961q13 13 14 32.5t-11 32.5l-183 183q-13 13 -34 13t-34 -13l-183 -183q-13 -13 -12 -32.5t14 -32.5t34 -13t34 13l99 110v-852q0 -19 14 -33.5t34 -14.5q19 0 33 14t14 34v853l99 -111q13 -13 34 -13t34 13zM1124 432q-13 13 -33.5 13t-33.5 -13l-99 -111v853l-1 9
q-3 17 -16.5 28t-30.5 11q-20 0 -34 -14t-14 -34v-852l-99 110l-7 6q-13 8 -31 6.5t-29 -12.5q-13 -13 -14 -32.5t11 -32.5l183 -183l7 -6q13 -8 31.5 -6.5t29.5 12.5l183 183l6 7q8 14 5 30.5t-14 27.5z" />
    <glyph glyph-name="uniE029" unicode="&#xe029;" horiz-adv-x="1437" 
d="M334 1222q-19 0 -33 -14t-14 -34t14 -34t33 -14h335v-805l-290 302l-7 6q-13 8 -31.5 6.5t-29.5 -12.5q-13 -13 -14 -32.5t11 -32.5l375 -374l7 -6q13 -8 31 -6.5t29 12.5l375 374l5 7q8 14 5.5 30.5t-13.5 27.5q-13 13 -33.5 13t-33.5 -13l-291 -302v805h335
q19 0 33.5 14t14.5 34t-14.5 34t-33.5 14h-765z" />
    <glyph glyph-name="uniE02A" unicode="&#xe02a;" horiz-adv-x="1437" 
d="M1195 1126q-20 0 -34 -14t-14 -33v-335h-805l301 290q13 13 13 34t-13 34t-32.5 14t-32.5 -11l-374 -375q-13 -13 -13 -33.5t13 -33.5l374 -375q13 -12 32.5 -11t32.5 14t13 34t-13 34l-301 290h805v-335q0 -20 14.5 -34t33.5 -14t33 14t14 34v765q0 19 -14 33t-33 14z
" />
    <glyph glyph-name="uniE02B" unicode="&#xe02b;" horiz-adv-x="1437" 
d="M239 1126q-20 0 -34 -14t-14 -33v-765q0 -20 14.5 -34t33.5 -14t33.5 14t14.5 34v335h805l-302 -290l-5 -8q-8 -13 -7 -31t12 -29q13 -13 32.5 -14t32.5 11l374 375l6 7q8 13 6.5 31t-12.5 29l-374 375l-7 5q-14 8 -30.5 5.5t-27.5 -13.5q-13 -13 -13 -34t13 -34
l302 -290h-805v335q0 19 -14 33t-34 14z" />
    <glyph glyph-name="uniE02C" unicode="&#xe02c;" horiz-adv-x="1437" 
d="M753 1209q-13 13 -34 13t-34 -13l-374 -374q-13 -13 -12 -32.5t14 -32.5t34 -13t34 13l290 301v-805h-334q-20 0 -34 -14t-14 -33t14.5 -33.5t33.5 -14.5h764q19 0 33.5 14.5t14.5 33.5t-14 33t-34 14h-334v806l290 -302q13 -13 33.5 -13t33.5 13t14 32.5t-11 32.5z" />
    <glyph glyph-name="uniE02D" unicode="&#xe02d;" 
d="M751 1191q-14 14 -33.5 14.5t-33.5 -12.5l-486 -463l-6 -8q-21 -33 7 -60l485 -462q15 -13 33 -13q20 0 34 14t14 33v223h430q19 0 33 14t14 34v382q0 20 -14 34t-33 14h-430v223q0 17 -14 33zM669 1047v-207h478v-287h-478v-207l-368 350z" />
    <glyph glyph-name="uniE02E" unicode="&#xe02e;" horiz-adv-x="1437" 
d="M645 1122q-13 13 -32 14t-32 -11l-375 -374q-13 -13 -13 -34t13 -34l375 -374q13 -12 32 -11t32 14t13 33.5t-13 33.5l-301 290h853q19 0 33.5 14.5t14.5 33.5t-14.5 33.5t-33.5 14.5h-853l301 290q13 13 13 33.5t-13 33.5z" />
    <glyph glyph-name="uniE02F" unicode="&#xe02f;" horiz-adv-x="1437" 
d="M1119 1232h-1q-14 14 -33.5 14t-33.5 -14l-332 -332l-332 332q-14 14 -34 14t-34 -14q-28 -40 0 -68l352 -351v-471l-99 110l-7 6q-13 8 -31.5 6.5t-29.5 -12.5q-13 -13 -14 -32t12 -32l183 -184l7 -5q13 -8 31 -7t29 12l184 184l5 7q8 14 5.5 30t-13.5 27q-13 13 -34 13
t-34 -13l-99 -110v470l353 352l5 7q10 14 9 31t-14 30z" />
    <glyph glyph-name="uniE030" unicode="&#xe030;" horiz-adv-x="1437" 
d="M1234 1115q14 -14 14 -34t-14 -34l-332 -332l332 -332q14 -14 14 -34t-14 -34q-40 -28 -68 0l-352 352h-470l110 -99l6 -7q8 -13 6.5 -31t-12.5 -29q-13 -13 -32.5 -14t-32.5 11l-183 183l-6 7q-8 13 -6.5 31.5t12.5 29.5l183 183l7 6q14 8 30.5 5t27.5 -14
q13 -13 13 -33.5t-13 -33.5l-110 -99h470l352 352l7 5q14 10 31 9t30 -14z" />
    <glyph glyph-name="uniE031" unicode="&#xe031;" horiz-adv-x="1437" 
d="M204 1115q-14 -14 -14 -34t14 -34l332 -332l-332 -332q-14 -14 -14 -34t14 -34l7 -5q14 -10 31 -9t30 14l352 352h470l-110 -99l-6 -7q-8 -13 -6.5 -31t12.5 -29q13 -13 32.5 -14t32.5 11l183 183l6 7q8 13 6.5 31.5t-12.5 29.5l-183 183l-7 6q-14 8 -30.5 5t-27.5 -14
q-13 -13 -13 -33.5t13 -33.5l110 -99h-470l-352 352l-7 5q-14 10 -31 9t-30 -14z" />
    <glyph glyph-name="uniE032" unicode="&#xe032;" horiz-adv-x="1437" 
d="M1119 181h-1q-14 -14 -33.5 -14t-33.5 14l-332 332l-332 -332q-14 -14 -34 -14t-34 14l-6 7q-22 33 6 61l352 352v470l-99 -110l-7 -6q-13 -8 -31.5 -6.5t-29.5 12.5q-13 13 -14 32.5t12 32.5l183 183l7 6q13 8 31 6.5t29 -12.5l184 -183l5 -7q8 -14 5.5 -30.5
t-13.5 -27.5q-13 -13 -34 -13t-34 13l-99 111v-471l353 -352l5 -7q10 -14 9 -31t-14 -30z" />
    <glyph glyph-name="uniE033" unicode="&#xe033;" horiz-adv-x="1437" 
d="M1149 983h1q0 59 -42.5 101t-101.5 42h-662l111 99q13 13 13 34t-13 34t-32.5 14t-32.5 -11l-184 -184q-13 -13 -13 -33.5t13 -33.5l184 -184q13 -12 32.5 -11t32.5 14t13 34t-13 34l-111 99h662q20 0 34 -14.5t14 -33.5v-662l-99 111q-13 13 -34 13t-34 -13t-14 -32.5
t11 -32.5l184 -183q13 -13 33.5 -13t33.5 13l183 183q13 13 12 32.5t-14 32.5t-34 13t-34 -13l-99 -110v661z" />
    <glyph glyph-name="uniE034" unicode="&#xe034;" horiz-adv-x="1437" 
d="M1149 410h1q0 -59 -42.5 -101t-101.5 -42h-662l111 -100q13 -13 13 -33.5t-13 -33.5t-32.5 -14t-32.5 11l-184 183q-13 13 -13 34t13 34l184 183q13 13 32.5 12t32.5 -14t13 -34t-13 -34l-111 -99h662q20 0 34 14t14 34v662l-99 -111q-13 -13 -34 -13t-34 13t-14 32.5
t11 32.5l184 183q13 13 33.5 13t33.5 -13l183 -183q13 -13 12 -32.5t-14 -32.5t-34 -13t-34 13l-99 110v-661z" />
    <glyph glyph-name="uniE035" unicode="&#xe035;" horiz-adv-x="1437" 
d="M289 983h-1q0 59 42.5 101t101.5 42h662l-111 99q-13 13 -13 34t13 34t32.5 14t32.5 -11l184 -184q13 -13 13 -33.5t-13 -33.5l-184 -184q-13 -12 -32.5 -11t-32.5 14t-13 34t13 34l111 99h-662q-20 0 -34 -14.5t-14 -33.5v-662l99 111q13 13 34 13t34 -13t14 -32.5
t-11 -32.5l-184 -183q-13 -13 -33.5 -13t-33.5 13l-183 183q-13 13 -12 32.5t14 32.5t34 13t34 -13l99 -110v661z" />
    <glyph glyph-name="uniE036" unicode="&#xe036;" horiz-adv-x="1437" 
d="M374 410q0 -59 42 -101t101 -42h662l-110 -100q-13 -13 -13 -33.5t13 -33.5t32 -14t32 11l184 183q13 13 13 34t-13 34l-184 183q-13 13 -32 12t-32 -14t-13 -34t13 -34l110 -99h-662q-19 0 -33.5 14t-14.5 34v662l100 -111q13 -13 33.5 -13t33.5 13t14 32.5t-11 32.5
l-183 183q-13 13 -34 13t-34 -13l-183 -183q-13 -13 -12 -32.5t14 -32.5t34 -13t34 13l99 110v-661z" />
    <glyph glyph-name="uniE037" unicode="&#xe037;" horiz-adv-x="1437" 
d="M495 1031h-350q-19 0 -33 -14t-14 -34v-9q3 -17 16.5 -28t30.5 -11h293l305 -573h446l-110 -99l-6 -7q-8 -13 -6.5 -31.5t12.5 -29.5q13 -13 32.5 -14t32.5 12l183 183l6 7q8 13 6.5 31.5t-12.5 29.5l-183 183l-7 5q-14 8 -30.5 5.5t-27.5 -13.5q-13 -13 -13 -33.5
t13 -33.5l111 -99h-390zM528 457h-383q-19 0 -33 -13.5t-14 -33.5t14 -34t33 -14h430zM1079 1198v-1q-13 -13 -13 -33.5t13 -33.5l111 -99h-519l48 -96h470l-110 -99l-6 -7q-8 -13 -6.5 -31t12.5 -29q13 -13 32.5 -14t32.5 11l183 183l6 8q8 13 6.5 31t-12.5 29l-183 183
l-7 6q-14 8 -30.5 5.5t-27.5 -13.5z" />
    <glyph glyph-name="uniE038" unicode="&#xe038;" 
d="M682 1191q-13 -15 -13 -33v-223h-430l-9 -1q-17 -3 -28 -16.5t-11 -30.5v-382l1 -8q3 -17 16.5 -28.5t30.5 -11.5h430v-223l1 -8q3 -17 16.5 -28t30.5 -11q18 0 33 13l484 462l6 6q20 26 1 55l-6 7l-485 463l-7 5q-14 9 -31.5 7.5t-29.5 -14.5zM764 1047l368 -351
l-368 -350v207h-477v287h477v207z" />
    <glyph glyph-name="uniE039" unicode="&#xe039;" horiz-adv-x="1439" 
d="M1197 649h-1002l-2 -2v-66l1 -2l291 -291q13 -12 32.5 -11t32.5 14t13 34t-13 34l-206 194h853q19 0 33.5 14.5t14.5 33.5t-14.5 33.5t-33.5 14.5zM241 744h3h3h3h3h3h3h3h3h3h3h3h3h3h3h3h3h3h3h3h3h3h3h3h3h3h3h3h3h3h3h3h3h3h3h3h3h3h3h3h3h3h3h3h3h3h3h3h3h3h3h3h3h3
h3h3h3h3h3h3h3h3h3h3h3h3h3h3h3h3h3h3h3h3h3h3h3h3h3h3h2h3h3h3h3h3h3h3h3h3h3h3h3h3h3h3h3h3h3h3h3h3h3h3h3h3h3h3h3h3h3h3h3h3h3h3h3h3h3h3h3h3h3h3h3h3h3h3h3h3h3h3h3h3h3h3h3h3h3h3h3h3h3h3h3h3h3h3h3h3h3h3h3h3h3h3h3h3h3h3h3h3h3h3h3h3h3h3h3h3h3h3h3h3h3h3h3h3h3h3h3
h3h3h3h3h3h3h3h3h3h3h3h3h3h3h3h3h3h3h3h3h3h3h3h3h3h3h3h3h3h3h3h3h2h3h3h3h3h3h3h3h3h3h3h3h3h3h3h3h3h3h3h3h3h3h3h3h3h3h3h3h3h3h3h3h3h3h3h3h3h3h3h3h3h3h3h3h3h3h3h3h3h3h3h3h3h3h3h3h3h3h3h3h3h3h3h3h3h3h3h3h3h3h3h3h3h3h3h3h3h3h3h3h3h3h3h2h3h3h3h3h3h3h3h3h3h3h3
h3h3h3h3h3h3h3h3h3h3h3h3h3h3h3h3h3h3h3h2h3h3h3h3h3h9q3 0 3 2v66l-1 1l-291 291q-13 12 -32.5 11t-32.5 -14t-13 -33.5t13 -33.5l206 -194h-853q-19 0 -33.5 -14t-14.5 -34t14.5 -34t33.5 -14z" />
    <glyph glyph-name="uniE03A" unicode="&#xe03a;" horiz-adv-x="1437" 
d="M792 1102q13 13 32.5 14t32.5 -11l375 -375q13 -13 13 -33.5t-13 -33.5l-375 -375q-13 -12 -32.5 -11t-32.5 14t-13 34t13 34l302 290h-853q-20 0 -34 14t-14 33q0 20 14.5 34t33.5 14h853l-302 290q-13 13 -13 34t13 34z" />
    <glyph glyph-name="uniE03B" unicode="&#xe03b;" horiz-adv-x="1437" 
d="M193 820q0 20 14 34t34 14t34 -14l89 -90q132 98 296.5 118.5t333 -44t300.5 -206.5l27 -31q16 -18 -2 -34q-17 -16 -35 0q-60 52 -109 78q-92 48 -203 53.5t-215 -36t-169 -122.5l97 -97q14 -14 14 -33q0 -20 -14.5 -34t-33.5 -14h-410q-19 0 -33.5 14t-14.5 34v410z
" />
    <glyph glyph-name="uniE03C" unicode="&#xe03c;" horiz-adv-x="1437" 
d="M1245 820q0 19 -15 34q-14 14 -33.5 14t-33.5 -14l-90 -90q-132 98 -296.5 118.5t-332.5 -44t-300 -206.5l-27 -31q-16 -18 2 -34q17 -16 35 0q61 53 108 78q92 48 203 53.5t215.5 -36t169.5 -122.5l-97 -97q-14 -14 -14 -33q0 -20 14 -34t33 -14h411q19 0 33.5 14
t14.5 34v410z" />
    <glyph glyph-name="uniE03D" unicode="&#xe03d;" horiz-adv-x="1437" 
d="M194 478v-259l1 -8q7 -32 37 -39l10 -1h259l8 1q16 3 26 16.5t10 30.5q0 16 -11.5 29.5t-27.5 17.5l-9 1l-148 -8l370 370l173 -173h-1l198 -197l-148 8l-9 -1q-16 -4 -27.5 -17.5t-11.5 -29.5l1 -8q3 -16 15 -28t28 -12h259l9 1q16 4 27.5 17.5t11.5 29.5v259l-1 9
q-4 15 -17.5 25t-29.5 10q-18 0 -32.5 -15t-14.5 -33l8 -148l-34 34l-4 4l-352 352v459q0 19 -14 33t-34 14h-8q-17 -3 -28 -16.5t-11 -30.5v-459l-391 -390l8 148l-1 8q-3 16 -17 28t-30 12t-29 -10t-17 -25z" />
    <glyph glyph-name="uniE03E" unicode="&#xe03e;" horiz-adv-x="1437" 
d="M623 1222q-19 0 -33.5 -14t-14.5 -34v-430h-327l111 99q13 13 13 34t-13 34t-32.5 14t-32.5 -12l-183 -183q-13 -13 -13 -33.5t13 -33.5l183 -184q13 -12 32.5 -11t32.5 14t13 34t-13 34l-111 98h327v-430q0 -19 14 -33t34 -14t34 14t14 33v956q0 20 -14.5 34t-33.5 14z
M814 1222q-19 0 -33 -14t-14 -34v-956q0 -20 13.5 -33.5t33.5 -13.5t34 14t14 33v430h328l-110 -98l-6 -8q-8 -13 -6.5 -31t12.5 -29q13 -13 32.5 -14t32.5 11l183 184l6 7q8 13 6.5 31t-12.5 29l-183 183l-7 6q-14 8 -30.5 5.5t-27.5 -13.5q-13 -13 -13 -34t13 -34l111 -99
h-329v430q0 20 -14 34t-34 14z" />
    <glyph glyph-name="uniE03F" unicode="&#xe03f;" horiz-adv-x="1437" 
d="M500 1222h-259l-8 -1q-14 -3 -25 -14t-14 -24l-1 -9v-259l1 -8q3 -16 16.5 -26t30.5 -10q16 0 29.5 11.5t17.5 27.5l1 9l-8 148l197 -198l173 -173l-172 -172h-1l-197 -197l8 148l-1 9q-4 16 -17.5 27t-29.5 11h-8q-16 -3 -28 -15.5t-12 -28.5v-259l1 -9
q4 -16 17.5 -27.5t29.5 -11.5h259l9 1q15 4 25 17.5t10 29.5q0 18 -15 33t-33 15l-148 -8l34 34l5 4l351 351h459q19 0 33.5 14t14.5 34l-1 9q-3 17 -16.5 28t-30.5 11h-458l-391 391l148 -9l8 1q16 3 28 17t12 30t-10 29.5t-25 17.5z" />
    <glyph glyph-name="uniE040" unicode="&#xe040;" horiz-adv-x="1437" 
d="M938 1242h259l8 -1q31 -7 38 -37l1 -9v-260v-8q-3 -16 -16.5 -26t-30.5 -10q-16 0 -29.5 11.5t-17.5 27.5l-1 9l8 148l-370 -370l172 -173l1 1l197 -198l-8 148l1 9q4 16 17.5 27.5t29.5 11.5l8 -1q16 -3 27.5 -15t11.5 -28v-259l-1 -9q-4 -16 -17 -27.5t-29 -11.5h-259
l-9 1q-15 4 -25 17.5t-10 29.5q0 18 14.5 32.5t32.5 14.5l149 -8l-34 34l-5 4l-352 352h-458q-19 0 -33.5 14.5t-14.5 33.5l1 8q3 17 16.5 28.5t30.5 11.5h458l391 390l-149 -8l-8 1q-16 3 -27.5 17t-11.5 30t10 29t25 17z" />
    <glyph glyph-name="uniE041" unicode="&#xe041;" horiz-adv-x="1437" 
d="M194 936v259l1 8q7 32 37 39l10 1h259l8 -1q16 -3 26 -16.5t10 -30.5q0 -16 -11.5 -29.5t-27.5 -17.5l-9 -1l-148 8l370 -370l173 172l-1 1l198 197l-148 -8l-9 1q-16 4 -27.5 17.5t-11.5 29.5l1 8q3 16 15 28t28 12h259l9 -1q16 -4 27.5 -17.5t11.5 -29.5v-259l-1 -9
q-4 -15 -17.5 -25t-29.5 -10q-18 0 -32.5 15t-14.5 33l8 148l-34 -34l-4 -5l-352 -351v-459q0 -19 -14 -33t-34 -14h-8q-17 3 -28 16.5t-11 30.5v459l-391 390l8 -148l-1 -8q-3 -16 -17 -28t-30 -12t-29 10t-17 25z" />
    <glyph glyph-name="uniE042" unicode="&#xe042;" horiz-adv-x="1437" 
d="M1245 813q0 19 -14.5 33.5t-33.5 14.5h-430v327l99 -111q13 -13 34 -13t34 13t14 32.5t-12 32.5l-183 184q-13 13 -33.5 13t-33.5 -13l-184 -184q-12 -13 -11 -32.5t14 -32.5t34 -13t34 13l98 111v-327h-430q-19 0 -33 -14t-14 -34t14 -34t33 -14h956q19 0 33.5 14.5
t14.5 33.5zM1245 622q0 20 -14.5 34t-33.5 14h-956q-19 0 -33 -14t-14 -34t14 -34t33 -14h430v-328l-98 110l-8 6q-13 8 -31 6.5t-29 -12.5q-13 -13 -14 -32.5t11 -32.5l184 -183l7 -6q13 -8 31 -6.5t29 12.5l183 183l6 7q8 14 5.5 30.5t-13.5 27.5q-13 13 -34 13t-34 -13
l-99 -110v328h430q19 0 33.5 14t14.5 34z" />
    <glyph glyph-name="uniE043" unicode="&#xe043;" horiz-adv-x="1437" 
d="M1099 287h-764q-19 0 -33.5 -14.5t-14.5 -33.5t14.5 -33.5t33.5 -14.5h764q19 0 33.5 14.5t14.5 33.5t-14.5 33.5t-33.5 14.5zM717 1243q-19 0 -33.5 -14.5t-14.5 -33.5v-662l-290 302l-7 5q-13 8 -31.5 7t-29.5 -12q-13 -13 -14 -32.5t12 -32.5l374 -375l7 -5
q13 -8 31.5 -7t29.5 12l374 375l5 7q8 14 5.5 30.5t-13.5 27.5q-13 13 -33.5 13t-33.5 -13l-291 -302v662v8q-3 17 -16.5 28.5t-30.5 11.5z" />
    <glyph glyph-name="uniE044" unicode="&#xe044;" horiz-adv-x="1437" 
d="M1197 1126q-20 0 -34 -14t-14 -33v-765q0 -20 14.5 -34t33.5 -14t33.5 14t14.5 34v765q0 19 -14 33t-34 14zM601 1102q-13 -13 -13 -34t13 -34l302 -290h-662l-9 -1q-17 -3 -28 -16.5t-11 -30.5q0 -19 14 -33t34 -14h662l-302 -290l-6 -8q-8 -13 -6.5 -31t12.5 -29
q13 -13 32.5 -14t32.5 11l374 375l6 7q8 13 6.5 31t-12.5 29l-374 375l-7 5q-14 8 -30.5 5.5t-27.5 -13.5z" />
    <glyph glyph-name="uniE045" unicode="&#xe045;" horiz-adv-x="1437" 
d="M241 1126q-20 0 -34 -14t-14 -33v-765q0 -20 14.5 -34t33.5 -14t33.5 14t14.5 34v765q0 19 -14 33t-34 14zM837 1102q-13 13 -32.5 14t-32.5 -11l-375 -375q-13 -13 -13 -33.5t13 -33.5l375 -375q13 -12 32.5 -11t32.5 14t13 34t-13 34l-302 290h662q20 0 34 14t14 33
q0 20 -14.5 34t-33.5 14h-662l302 290q13 13 13 34t-13 34z" />
    <glyph glyph-name="uniE046" unicode="&#xe046;" horiz-adv-x="1437" 
d="M753 1018q-13 13 -34 13t-34 -13l-374 -374q-13 -13 -12 -32.5t14 -32.5t34 -13t34 13l290 301v-661q0 -19 14.5 -33.5t33.5 -14.5t33.5 14.5t14.5 33.5v662l290 -302q13 -13 33.5 -13t33.5 13t14 32.5t-11 32.5zM1101 1222h-764q-19 0 -33.5 -14t-14.5 -34t14.5 -34
t33.5 -14h764q19 0 33.5 14t14.5 34t-14.5 34t-33.5 14z" />
    <glyph glyph-name="uniE047" unicode="&#xe047;" horiz-adv-x="1437" 
d="M910 1079q0 18 -13 32.5t-31 14.5h-529q-18 0 -33 -14.5t-15 -32.5v-530q0 -18 15 -31t33 -13t32.5 15t14.5 33l-8 418l699 -698q14 -14 33.5 -14t33.5 14t14 33.5t-14 33.5l-698 699l418 -8q18 0 33 15t15 33z" />
    <glyph glyph-name="uniE048" unicode="&#xe048;" horiz-adv-x="1437" 
d="M527 1079q0 18 13 32.5t31 14.5h530q18 0 33 -14.5t15 -32.5v-530q0 -18 -15 -31t-33 -13t-33 15t-15 33l8 418l-698 -698q-14 -14 -34 -14t-34 14t-14 33.5t14 33.5l699 699l-419 -8q-18 0 -33 15t-15 33z" />
    <glyph glyph-name="uniE049" unicode="&#xe049;" horiz-adv-x="1437" 
d="M454 1102q-13 13 -32.5 14t-32.5 -11l-183 -183q-13 -13 -13 -34t13 -34l183 -183q13 -13 32.5 -12t32.5 14t13 34t-13 34l-110 99h614h9q80 0 136 -56t56 -135t-56 -135t-136 -56h-9h-430q-20 0 -34 -14t-14 -34t14 -34t34 -14h430h9q119 0 203 84t84 203q0 118 -84 202
t-203 84h-623l110 99q13 13 13 34t-13 34z" />
    <glyph glyph-name="uniE04A" unicode="&#xe04a;" horiz-adv-x="1437" 
d="M983 1102q13 13 32.5 14t32.5 -11l184 -183q13 -13 13 -34t-13 -34l-184 -183q-13 -13 -32.5 -12t-32.5 14t-13 34t13 34l111 99h-614h-10q-80 0 -135.5 -56t-55.5 -135t55.5 -135t135.5 -56h440q20 0 34 -14t14 -34t-14 -34t-34 -14h-430h-1h-9q-118 0 -202 84t-84 203
t84 202.5t202 83.5h624l-111 99q-13 13 -13 34t13 34z" />
    <glyph glyph-name="uniE04B" unicode="&#xe04b;" horiz-adv-x="1437" 
d="M1124 961h1q13 13 14 32.5t-12 32.5l-183 183q-13 13 -33.5 13t-33.5 -13l-184 -183q-12 -13 -11 -32.5t14 -32.5t34 -13t34 13l98 110v-614v-9q0 -80 -56 -135.5t-135 -55.5t-135 55.5t-56 135.5v439q0 19 -14 33.5t-34 14.5t-34 -14.5t-14 -33.5v-430h1l-1 -9
q0 -118 84 -202.5t203 -84.5t203 84.5t84 202.5v624l99 -111q13 -13 33.5 -13t33.5 13z" />
    <glyph glyph-name="uniE04C" unicode="&#xe04c;" horiz-adv-x="1437" 
d="M1124 432h1q13 -13 14 -32.5t-12 -32.5l-183 -183q-13 -13 -33.5 -13t-33.5 13l-184 183q-12 13 -11 32.5t14 32.5t34 13t34 -13l98 -111v614v10q0 79 -56 135t-135 56t-135 -56t-56 -135v-440q0 -19 -14 -33.5t-34 -14.5t-34 14.5t-14 33.5v430l1 1l-1 9q0 119 84 203
t203 84t203 -84t84 -203v-624l99 111q13 13 33.5 13t33.5 -13z" />
    <glyph glyph-name="uniE04D" unicode="&#xe04d;" 
d="M1211 683q14 14 14.5 33.5t-12.5 33.5l-463 486l-7 6q-14 9 -31.5 7.5t-29.5 -14.5l-462 -485q-13 -15 -13 -33q0 -19 14.5 -33.5t33.5 -14.5h223v-430q0 -20 14 -34t33 -14h383q19 0 33 14t14 34v430h223q17 0 33 14zM1067 765h-207v-478h-287v478h-207l351 368z" />
    <glyph glyph-name="uniE04E" unicode="&#xe04e;" horiz-adv-x="1437" 
d="M671 1188v6q-2 12 -11.5 20t-22.5 8q-35 0 -59 -24l-267 -268q-12 -13 -11 -32.5t14 -32.5t33.5 -13t33.5 13l195 206v-853q0 -20 14 -33.5t33 -13.5q20 0 34 14t14 33v970zM1127 462q12 13 11 32.5t-14 32.5t-33.5 13t-33.5 -13l-195 -206v853q0 20 -14 34t-34 14
q-19 0 -33 -14t-14 -34v-969v-7q5 -27 34 -27q34 0 58 24z" />
    <glyph glyph-name="uniE04F" unicode="&#xe04f;" horiz-adv-x="1437" 
d="M964 536q-11 11 -30 13h-8q-18 -2 -29 -13q-14 -14 -14 -34t14 -34l144 -135l-144 -135q-14 -14 -14 -34t14 -34t33.5 -14t33.5 14l135 145l135 -145q14 -14 34 -14t34 14t14 34t-14 34l-145 135l145 135q14 14 14 34t-14 34t-34 14t-34 -14l-135 -145zM959 956
q-42 42 -101.5 42t-101.5 -42l-439 -439l-11 -12q-48 -56 -45 -131t56 -128l67 -67l13 -11q56 -48 130.5 -45t127.5 56l198 199l-24 22q-23 23 -34 55l-208 -209l-9 -8q-28 -22 -64.5 -19.5t-61.5 27.5l-68 68l-8 9q-22 28 -19.5 64.5t27.5 61.5l440 439l6 6q33 22 61 -6
q14 -14 14 -33.5t-14 -33.5l-338 -338l-5 -7q-10 -14 -9 -31t14 -30q14 -14 34 -14t34 14l338 338l10 11q35 42 32 97.5t-42 94.5zM1162 1159q-98 98 -236.5 98t-236.5 -98l-541 -541l-6 -7q-22 -32 6 -60q14 -14 33.5 -14t33.5 14l541 540l13 12q70 61 164 58t161 -70
q70 -70 70 -169t-70 -169l-116 -116q31 -11 54 -34l23 -24l107 107l13 14q88 98 84.5 231.5t-97.5 227.5z" />
    <glyph glyph-name="uniE050" unicode="&#xe050;" horiz-adv-x="1437" 
d="M690 1159l-540 -541l-6 -7q-22 -32 6 -60q14 -14 34 -14t34 14l540 540l13 12q70 61 164 58t161 -70q70 -70 70 -169t-70 -169l-507 -507l-9 -8q-28 -22 -64.5 -19.5t-61.5 27.5l-68 68l-7 9q-22 28 -20 64.5t27 61.5l440 439l6 6q33 22 61 -6q14 -14 14 -33.5t-14 -33.5
l-338 -338l-5 -7q-10 -14 -9 -31t14 -30q14 -14 34 -14t34 14l338 338l10 11q35 42 32 97.5t-42 94.5q-42 42 -101.5 42t-101.5 -42l-439 -439l-11 -12q-48 -56 -45 -131t56 -128l67 -67l13 -11q56 -48 130.5 -45t127.5 56l507 507l13 14q88 98 84.5 231.5t-97.5 227.5
q-98 98 -237 98t-237 -98zM1388 382h-382q-20 0 -34 -14t-14 -34q0 -19 14 -33t34 -14h382q20 0 34 14t14 33q0 20 -14 34t-34 14z" />
    <glyph glyph-name="uniE051" unicode="&#xe051;" horiz-adv-x="1437" 
d="M380 1123q-14 14 -34 14t-34 -14t-14 -33.5t14 -33.5l138 -138l-300 -300l-6 -6q-22 -33 6 -61l6 -6q33 -22 61 6l300 300l68 -68l-266 -266l-11 -12q-48 -56 -45 -131t56 -128l67 -67l13 -11q56 -48 130.5 -45t127.5 56l266 266l133 -133q14 -14 33.5 -14t33.5 14t14 34
t-14 34zM653 715l67 -67l-165 -165l-5 -7q-10 -14 -9 -31t14 -30l7 -5q14 -10 31 -9t30 14l165 165l67 -67l-266 -267l-9 -7q-28 -22 -64.5 -20t-61.5 27l-68 68l-8 9q-22 28 -19.5 64.5t27.5 61.5zM1164 1159q-98 98 -236.5 98t-236.5 -98l-107 -106l68 -68l106 106l13 12
q70 61 164 58t161 -70l12 -12q61 -70 58 -164.5t-70 -161.5l-106 -106l67 -67l107 106l13 14q88 98 84.5 231.5t-97.5 227.5zM961 956q-42 42 -101.5 42t-101.5 -42l-38 -39l67 -67l39 38l6 6q33 22 61 -6l6 -6q22 -33 -6 -61l-38 -39l67 -67l39 38l10 11q35 42 32 97.5
t-42 94.5z" />
    <glyph glyph-name="uniE052" unicode="&#xe052;" horiz-adv-x="1437" 
d="M1197 573q-20 0 -34 -14t-14 -33v-144h-143q-20 0 -34 -14t-14 -34q0 -19 14 -33t34 -14h143v-144q0 -19 14 -33t34 -14t34 14t14 33v144h143q20 0 34 14t14 33q0 20 -14 34t-34 14h-143v144q0 19 -14 33t-34 14zM690 1159l-540 -541l-6 -7q-22 -32 6 -60q14 -14 34 -14
t34 14l540 540l13 12q70 61 164 58t161 -70q70 -70 70 -169t-70 -169l-507 -507l-9 -8q-28 -22 -64.5 -19.5t-61.5 27.5l-68 68l-7 9q-22 28 -20 64.5t27 61.5l440 439l6 6q33 22 61 -6q14 -14 14 -33.5t-14 -33.5l-338 -338l-5 -7q-10 -14 -9 -31t14 -30q14 -14 34 -14
t34 14l338 338l10 11q35 42 32 97.5t-42 94.5q-42 42 -101.5 42t-101.5 -42l-439 -439l-11 -12q-48 -56 -45 -131t56 -128l67 -67l13 -11q56 -48 130.5 -45t127.5 56l507 507l13 14q88 98 84.5 231.5t-97.5 227.5q-98 98 -237 98t-237 -98z" />
    <glyph glyph-name="uniE053" unicode="&#xe053;" horiz-adv-x="1437" 
d="M386 429q-28 -28 -28 -67.5t28 -67.5l68 -68q28 -28 67.5 -28t67.5 28l507 507q70 70 70 169t-70 169t-169 70t-169 -70l-541 -541q-14 -14 -33.5 -14t-33.5 14t-14 34t14 34l540 540q98 98 237 98t237 -98t98 -236.5t-98 -236.5l-507 -507q-56 -56 -135.5 -56t-135.5 56
l-67 68q-56 56 -56 135t56 135l439 440q42 42 101.5 42t101.5 -42t42 -101.5t-42 -101.5l-338 -338q-14 -14 -34 -14t-34 14t-14 34t14 34l338 337q14 14 14 34t-14 34t-33.5 14t-33.5 -14z" />
    <glyph glyph-name="uniE054" unicode="&#xe054;" horiz-adv-x="1437" 
d="M814 1318h-191q-19 0 -33.5 -14t-14.5 -34v-144h-47q-99 0 -169 -70t-70 -169v-764q0 -19 14.5 -33.5t33.5 -14.5h764q19 0 33.5 14.5t14.5 33.5v764q0 99 -70 169t-169 70h-48v144q0 20 -14 34t-34 14zM1053 649v-478h-669v478h96v-48q0 -19 14 -33.5t34 -14.5
q19 0 33 14t14 34v48h478zM910 1031l14 -1q55 -5 92 -46t37 -97v-143h-669v143l1 14q5 55 46 92.5t97 37.5h382zM767 1222v-96h-96v96h96z" />
    <glyph glyph-name="uniE055" unicode="&#xe055;" horiz-adv-x="1437" 
d="M526 457q-20 0 -34 14.5t-14 33.5v239h-120q-20 0 -34 14t-14 34q0 19 10 30l360 449q12 16 31.5 17.5t35.5 -10.5q4 -3 7 -7l360 -449q12 -16 10 -35.5t-18 -31.5q-13 -11 -30 -11h-120v-239q0 -17 -11 -30.5t-28 -16.5l-9 -1h-382zM526 75q-20 0 -34 14.5t-14 33.5v191
q0 20 14 34t34 14h382q20 0 34 -14t14 -34v-191q0 -19 -14 -33.5t-34 -14.5h-382zM573 171h287v95h-287v-95zM573 553h287v287h126l-269 325l-270 -325h126v-287z" />
    <glyph glyph-name="uniE056" unicode="&#xe056;" 
d="M1242 1125q0 1 -1 1h-827h-1l-317 -434v-1l317 -424l1 -1h827q1 0 1 1v858zM1147 1031v-669h-686l-247 330l248 339h685zM677 897q-14 14 -34 14t-34 -14t-14 -33.5t14 -33.5l145 -135l-145 -136q-14 -14 -14 -33.5t14 -33.5t34 -14t34 14l135 145l135 -145
q14 -14 34 -14t34 14t14 33.5t-14 33.5l-145 136l145 135q14 14 14 33.5t-14 33.5t-34 14t-34 -14l-135 -144z" />
    <glyph glyph-name="uniE057" unicode="&#xe057;" horiz-adv-x="1437" 
d="M1034 935h-631q-87 0 -148.5 -61.5t-61.5 -148.5v-57q0 -87 61.5 -149t148.5 -62h631q87 0 149 62t62 149v57q0 87 -62 148.5t-149 61.5zM1034 840l12 -1q44 -5 73.5 -37.5t29.5 -76.5v-57l-1 -12q-5 -44 -37.5 -73.5t-76.5 -29.5h-631l-11 1q-44 5 -73.5 37.5
t-29.5 76.5v57v12q5 44 37.5 73.5t76.5 29.5h631zM1006 744h-574q-20 0 -34 -14t-14 -34t14 -34t34 -14h574q19 0 33 14t14 34t-14 34t-33 14z" />
    <glyph glyph-name="uniE058" unicode="&#xe058;" horiz-adv-x="1437" 
d="M910 1222h-382q-20 0 -34 -14t-14 -34v-143h-335q-19 0 -33 -14t-14 -34v-239q0 -52 26 -96.5t69 -69.5v-360q0 -19 14 -33t34 -14h956q20 0 34 14t14 33v361q44 25 69.5 69t25.5 96v239q0 19 -14 33.5t-34 14.5h-334v143q0 20 -14 34t-34 14zM1149 553v-287h-860v287
h382v-48q0 -19 14.5 -33.5t33.5 -14.5t33.5 14.5t14.5 33.5v48h382zM1245 935v-191l-1 -11q-5 -36 -31.5 -60t-63.5 -24h-382v47q0 20 -14.5 34t-33.5 14t-33.5 -14t-14.5 -34v-47h-382h-11q-36 5 -60.5 31.5t-24.5 63.5v191h1052zM862 1126v-95h-286v95h286z" />
    <glyph glyph-name="uniE059" unicode="&#xe059;" horiz-adv-x="1437" 
d="M882 840l-64 -65q-18 -18 -47 -30l-3 -1h404l-102 -478h-706l-102 478h402l-2 1q-20 7 -36 21l-11 10l-64 64h-408q-19 0 -33 -14t-14 -34t14 -34t33 -14h21l115 -536q4 -17 16.5 -27t29.5 -10h783q17 0 30 10t17 27l115 536h20q20 0 34 14t14 34t-14 34t-34 14h-408z
M717 649q-19 0 -33.5 -14.5t-14.5 -33.5v-191q0 -20 14.5 -34t33.5 -14t33.5 14t14.5 34v191q0 19 -14.5 33.5t-33.5 14.5zM526 649q-20 0 -34 -14.5t-14 -33.5v-191q0 -20 14 -34t34 -14t34 14t14 34v191q0 19 -14 33.5t-34 14.5zM908 649q-20 0 -34 -14.5t-14 -33.5v-191
q0 -20 14 -34t34 -14t34 14t14 34v191q0 19 -14 33.5t-34 14.5zM716 1318q-20 0 -34 -14t-14 -34v-280l-99 111q-13 13 -33.5 13t-33.5 -13t-14 -32.5t11 -32.5l183 -183q13 -13 34 -13t34 13l183 183q13 13 12 32.5t-14 32.5t-34 13t-34 -13l-99 -111v280q0 20 -14 34
t-34 14z" />
    <glyph glyph-name="uniE05A" unicode="&#xe05a;" horiz-adv-x="1437" 
d="M574 840h-429q-19 0 -33 -14t-14 -34t14 -34t33 -14h21l115 -536q4 -17 16.5 -27t29.5 -10h783q17 0 30 10t17 27l115 536h20q20 0 34 14t14 34t-14 34t-34 14h-428q-24 -71 -92 -96h402l-102 -478h-706l-102 478h402q-68 25 -92 96zM719 648q-20 0 -34 -14t-14 -33v-191
q0 -20 14.5 -34t33.5 -14t33.5 14t14.5 34v191q0 19 -14 33t-34 14zM528 648q-20 0 -34 -14t-14 -33v-191q0 -20 14 -34t34 -14t34 14t14 34v191q0 19 -14 33t-34 14zM910 648q-20 0 -34 -14t-14 -33v-191q0 -20 14 -34t34 -14t34 14t14 34v191q0 19 -14 33t-34 14z
M684 1305l-183 -184l-5 -7q-8 -14 -5.5 -30.5t13.5 -27.5q13 -13 34 -13t34 13l99 111v-280v-8q3 -17 16.5 -28t30.5 -11q20 0 34 14t14 33v280l99 -111l7 -5q13 -8 31.5 -7t29.5 12q13 13 14 32.5t-12 32.5l-183 184l-7 5q-13 8 -31.5 7t-29.5 -12z" />
    <glyph glyph-name="uniE05B" unicode="&#xe05b;" horiz-adv-x="1437" 
d="M1061 419q-14 14 -33.5 14t-33.5 -14t-14 -33.5t14 -33.5l144 -135l-144 -135q-14 -14 -14 -34t14 -34t33.5 -14t33.5 14l136 145l135 -145q14 -14 33.5 -14t33.5 14t14 34t-14 34l-145 135l145 135q14 14 14 33.5t-14 33.5t-33.5 14t-33.5 -14l-135 -144zM1292 840
h-1147q-19 0 -33 -14t-14 -34t14 -34t33 -14h21l115 -536q4 -17 16.5 -27t29.5 -10h535v95h-496l-102 478h910l-41 -191h98l41 191h20q20 0 34 14t14 34t-14 34t-34 14zM719 649q-19 0 -33.5 -14.5t-14.5 -33.5v-191q0 -20 14.5 -34t33.5 -14t33.5 14t14.5 34v191
q0 19 -14.5 33.5t-33.5 14.5zM528 649q-20 0 -34 -14.5t-14 -33.5v-191q0 -20 14 -34t34 -14q19 0 33 14t14 34v191q0 20 -14 34t-33 14zM910 649q-20 0 -34 -14.5t-14 -33.5v-48h96v48q0 19 -14 33.5t-34 14.5zM747 1255q-16 11 -36 8t-31 -19l-291 -404h135l195 277
l194 -277h135l-290 404q-5 6 -11 11z" />
    <glyph glyph-name="uniE05C" unicode="&#xe05c;" horiz-adv-x="1437" 
d="M1292 860h-1147q-19 0 -33 -14t-14 -34t14 -33.5t33 -13.5h21l115 -536q4 -17 16.5 -27.5t29.5 -10.5h535v96h-496l-102 478h910l-61 -287h97l62 287h20q20 0 34 14t14 33q0 20 -14 34t-34 14zM1388 287h-382q-20 0 -34 -14.5t-14 -33.5t14 -33.5t34 -14.5h382
q20 0 34 14.5t14 33.5t-14 33.5t-34 14.5zM719 669q-19 0 -33.5 -14.5t-14.5 -33.5v-191q0 -20 14.5 -34t33.5 -14t33.5 14t14.5 34v191q0 19 -14.5 33.5t-33.5 14.5zM528 669q-20 0 -34 -14.5t-14 -33.5v-191q0 -20 14 -34t34 -14q19 0 33 14t14 34v191q0 20 -14 34t-33 14
zM910 669q-20 0 -34 -14.5t-14 -33.5v-191q0 -20 14 -34t34 -14t34 14t14 34v191q0 19 -14 33.5t-34 14.5zM747 1276q-16 11 -36 8t-31 -19l-291 -405h135l195 277l194 -277h135l-290 405q-5 6 -11 11z" />
    <glyph glyph-name="uniE05D" unicode="&#xe05d;" horiz-adv-x="1437" 
d="M284 1103q-14 14 -33.5 14t-33.5 -14t-14 -34t14 -34l182 -182l-10 -13h-244q-19 0 -33 -14t-14 -34t14 -34t33 -14h21l115 -536q4 -17 16.5 -27t29.5 -10h754l70 -70q14 -14 34 -14t34 14t14 33.5t-14 33.5zM508 744l163 -163v-171q0 -20 14.5 -34t33.5 -14t33.5 14
t14.5 34v75l219 -219h-620l-102 478h244zM1292 840h-611l96 -96h397l-70 -327l80 -80l88 407h20q20 0 34 14t14 34t-14 34t-34 14zM528 648q-20 0 -34 -14t-14 -33v-192q0 -19 14 -33t34 -14t33.5 14t13.5 33v192q0 19 -13.5 33t-33.5 14zM910 648q-16 0 -28 -9l76 -76v38
q0 19 -14 33t-34 14zM747 1255q-16 11 -36 8t-31 -19l-169 -234l78 -78l130 185l194 -277h135l-290 404q-5 6 -11 11z" />
    <glyph glyph-name="uniE05E" unicode="&#xe05e;" horiz-adv-x="1437" 
d="M1197 478q-19 0 -33.5 -14t-14.5 -34v-143h-143q-20 0 -34 -14.5t-14 -33.5t14 -33.5t34 -14.5h143v-143q0 -20 14.5 -34t33.5 -14t33.5 14t14.5 34v143h143q20 0 34 14.5t14 33.5t-14 33.5t-34 14.5h-143v143q0 20 -14.5 34t-33.5 14zM1292 860h-1147q-19 0 -33 -14
t-14 -34t14 -33.5t33 -13.5h21l115 -536q4 -17 16.5 -27.5t29.5 -10.5h535v96h-496l-102 478h910l-41 -192h98l41 192h20q20 0 34 14t14 33q0 20 -14 34t-34 14zM719 669q-19 0 -33.5 -14.5t-14.5 -33.5v-191q0 -20 14.5 -34t33.5 -14t33.5 14t14.5 34v191q0 19 -14.5 33.5
t-33.5 14.5zM528 669q-20 0 -34 -14.5t-14 -33.5v-191q0 -20 14 -34t34 -14q19 0 33 14t14 34v191q0 20 -14 34t-33 14zM910 669q-20 0 -34 -14.5t-14 -33.5v-191q0 -20 14 -34t34 -14t34 14t14 34v191q0 19 -14 33.5t-34 14.5zM747 1276q-16 11 -36 8t-31 -19l-291 -405
h135l195 277l194 -277h135l-290 405q-5 6 -11 11z" />
    <glyph glyph-name="uniE05F" unicode="&#xe05f;" horiz-adv-x="1437" 
d="M1292 840h-1147q-19 0 -33 -14t-14 -34t14 -34t33 -14h21l115 -536q4 -17 16.5 -27t29.5 -10h783q17 0 30 10t17 27l115 536h20q20 0 34 14t14 34t-14 34t-34 14zM1174 744l-102 -478h-706l-102 478h910zM719 649q-19 0 -33.5 -14.5t-14.5 -33.5v-191q0 -20 14.5 -34
t33.5 -14t33.5 14t14.5 34v191q0 19 -14.5 33.5t-33.5 14.5zM528 649q-20 0 -34 -14.5t-14 -33.5v-191q0 -20 14 -34t34 -14t34 14t14 34v191q0 19 -14 33.5t-34 14.5zM910 649q-20 0 -34 -14.5t-14 -33.5v-191q0 -20 14 -34t34 -14t34 14t14 34v191q0 19 -14 33.5t-34 14.5
zM747 1255q-16 11 -36 8t-31 -19l-291 -404h135l195 277l194 -277h135l-290 404q-5 6 -11 11z" />
    <glyph glyph-name="uniE060" unicode="&#xe060;" 
d="M378 1028q-14 14 -34 14t-34 -14t-14 -34t14 -34l98 -98l-24 -309q-2 -26 -26 -39l-45 -23q-26 -13 -26 -43v-66h286v-47q0 -19 14.5 -33.5t33.5 -14.5t33.5 14.5t14.5 33.5v47h219l166 -165q14 -14 33.5 -14t33.5 14t14 33.5t-14 33.5zM717 1242q-20 0 -34 -14t-14 -33
v-48l-16 -1q-105 -6 -175 -84l67 -68q25 30 62 45q41 18 110 18q58 0 106 -17q43 -17 71.5 -54.5t32.5 -84.5l13 -177l10 -135l197 -196v55q0 30 -27 43l-44 23q-26 14 -27 39l-27 356q-8 101 -82 169.5t-175 68.5v48q0 19 -14 33t-34 14zM497 773l299 -298l-366 -7
q20 5 34 30.5t16 46.5z" />
    <glyph glyph-name="uniE061" unicode="&#xe061;" 
d="M287 382h286v-48q0 -19 14 -33t34 -14t34 14t14 33v48h478v66q0 30 -26 43l-45 23q-26 14 -27 39l-27 356q-8 101 -82 169.5t-175 68.5v48q0 19 -14 33t-34 14t-34 -14t-14 -33v-48l-16 -1q-96 -6 -165 -73t-76 -164l-28 -356q-2 -26 -26 -39l-45 -23q-26 -13 -26 -43
v-66zM717 1057q61 0 106 -16q43 -17 71.5 -55t32.5 -85q1 -14 11 -149.5t16 -206.5q2 -28 11 -41.5t31 -25.5l-566 -10q20 5 34 30.5t16 46.5l27 356l2 14q7 42 33.5 75t64.5 49q41 18 110 18z" />
    <glyph glyph-name="uniE062" unicode="&#xe062;" 
d="M719 1241q-20 0 -34.5 -14t-14.5 -34v-383l-228 178l-7 5q-15 8 -32 4.5t-28 -17.5l-5 -8q-8 -15 -4 -32t18 -27l267 -200l-267 -201l-7 -6q-11 -13 -11.5 -30t9.5 -31l6 -6q30 -26 61 -2l228 178v-368q0 -17 11 -30q12 -16 31.5 -18t35.5 10l297 231q6 6 8 9
q12 16 9.5 36t-18.5 32l-258 196l268 203l8 8q12 16 10 36t-18 32l-306 239q-11 10 -29 10zM767 612l170 -133l-170 -133v266zM1036 779q-30 23 -60 0l-32 -26q-4 -3 -7 -7q-13 -16 -11 -35.5t18 -32.5l32 -25q30 -23 60 0l32 25q5 3 8 8q13 16 10.5 35t-18.5 32zM458 779
q-30 23 -60 0l-32 -26q-6 -4 -8 -7q-13 -16 -10.5 -35.5t18.5 -32.5l32 -25q30 -23 60 0l31 25q5 3 8 8q13 16 10.5 35t-18.5 32zM767 1094l180 -140l-180 -141v281z" />
    <glyph glyph-name="uniE063" unicode="&#xe063;" horiz-adv-x="1437" 
d="M1052 913q6 4 8 7l6 9q0 1 3 11q2 8 2 11q0 7 -1 11q-2 6 -4 10l-6 9q-3 5 -8 8l-306 239q-1 0 -2.5 2t-2.5 2l-6 3q-1 1 -3.5 1t-3.5 1q-2 1 -6 1h-7q-1 0 -3.5 -0.5t-3.5 -0.5q-4 0 -6 -1l-6 -3l-6 -3q-1 0 -3 -2t-3 -2q-3 -3 -4 -5q-1 -1 -2.5 -3t-1.5 -3t-1 -2.5
t-2 -2.5t-2 -3.5t-1 -3.5q-1 -2 -1 -6v-7v-383l-229 178q-4 3 -8 5q-2 0 -4 1l-4 2q-6 2 -10 2h-9q-3 0 -9 -2t-9 -4q-6 -4 -8 -6l-6 -6v-1q-3 -4 -5 -8q0 -1 -1 -4t-2 -4q-2 -6 -2 -9v-10l3 -9q2 -7 3 -8q4 -6 6 -8q1 -1 3.5 -3t3.5 -3l267 -201l-267 -200q-3 -2 -7 -6
q-2 -2 -6 -8q-1 -1 -3 -8q0 -1 -1 -3q-2 -4 -2 -6v-10q0 -3 2 -9l3 -9q2 -5 5 -8q1 -1 3 -3.5t3 -3.5t4 -2.5t4 -2.5q3 -2 9 -4t9 -2h9q4 0 10 2q2 0 4 1l4 2q4 1 8 5l229 178v-368v-7q0 -5 1 -7l3 -6l3 -6q0 -1 2 -2.5t2 -2.5q2 -4 4 -5q1 0 3 -1.5t3 -2.5q1 0 3 -2t3 -2
t3 -1t3 -1q4 -2 6 -2q1 0 3.5 -0.5t3.5 -0.5t3.5 0.5t3.5 0.5q4 0 6 1q1 1 3.5 1t3.5 1l6 3q1 0 2.5 2t2.5 2l297 231q5 3 8 8l6 9q0 1 3 11q1 4 1 11q0 6 -1 10q-2 8 -4 11l-6 9q-3 5 -8 8l-258 195zM765 609l171 -133l-171 -134v267zM765 1091l180 -141l-180 -140v281z
" />
    <glyph glyph-name="uniE064" unicode="&#xe064;" horiz-adv-x="1437" 
d="M1101 1318h-764q-19 0 -33.5 -14t-14.5 -34v-1118q0 -9 5 -21q9 -18 27.5 -24.5t36.5 2.5l360 176l362 -176q12 -5 21 -5q19 0 33.5 14t14.5 34v1118q0 20 -14.5 34t-33.5 14zM1053 1222v-994l-314 153q-21 10 -42 0l-313 -153v994h669zM584 993q-14 14 -34 14t-34 -14
t-14 -34t14 -34l145 -135l-145 -135q-14 -14 -14 -34t14 -34t34 -14t34 14l135 146l135 -146q14 -14 33.5 -14t33.5 14t14 34t-14 34l-145 135l145 135q14 14 14 34t-14 34t-33.5 14t-33.5 -14l-135 -145z" />
    <glyph glyph-name="uniE065" unicode="&#xe065;" horiz-adv-x="1437" 
d="M1147 1290q0 20 -14.5 34t-33.5 14h-764q-19 0 -33.5 -14t-14.5 -34v-1118q0 -9 5 -21q9 -18 27 -24.5t36 2.5l361 177l362 -177q12 -5 21 -5q19 0 33.5 14t14.5 34v1118zM1051 1242v-993l-314 153q-21 10 -42 0l-313 -153v993h669zM908 860h-382q-20 0 -34 -14t-14 -34
q0 -19 14 -33t34 -14h382q20 0 34 14t14 33q0 20 -14 34t-34 14z" />
    <glyph glyph-name="uniE066" unicode="&#xe066;" horiz-adv-x="1437" 
d="M1147 1290q0 20 -14.5 34t-33.5 14h-764q-19 0 -33.5 -14t-14.5 -34v-1118q0 -9 5 -21q9 -18 27 -24.5t36 2.5l361 177l362 -177q12 -5 21 -5q19 0 33.5 14t14.5 34v1118zM1051 1242v-993l-314 153q-21 10 -42 0l-313 -153v993h669zM717 1051q-19 0 -33.5 -14.5
t-14.5 -33.5v-143h-143q-20 0 -34 -14t-14 -34q0 -19 14 -33t34 -14h143v-144q0 -19 14.5 -33.5t33.5 -14.5t33.5 14.5t14.5 33.5v144h143q20 0 34 14t14 33q0 20 -14 34t-34 14h-143v143q0 19 -14.5 33.5t-33.5 14.5z" />
    <glyph glyph-name="uniE067" unicode="&#xe067;" 
d="M1147 1290q0 20 -14.5 34t-33.5 14h-764q-19 0 -33.5 -14t-14.5 -34v-1118q0 -9 5 -21q9 -18 27 -24.5t36 2.5l361 177l362 -177q12 -5 21 -5q19 0 33.5 14t14.5 34v1118zM1051 1242v-993l-314 153q-21 10 -42 0l-313 -153v993h669z" />
    <glyph glyph-name="uniE068" unicode="&#xe068;" 
d="M621 1031h-191q-20 0 -34 -14.5t-14 -33.5v-143h-47q-19 0 -33.5 -14t-14.5 -34v-478q0 -20 14.5 -34t33.5 -14h430v96h-383v382h669v-96h96v144q0 20 -14.5 34t-33.5 14h-48v143q0 20 -14 34t-33 14h-192q-19 0 -33 -14t-14 -34v-143h-96v143q0 19 -14.5 33.5
t-33.5 14.5zM478 935h95v-95h-95v95zM860 935h96v-95h-96v95zM964 515q-14 14 -34 14t-34 -14t-14 -34t14 -34l145 -135l-145 -135q-14 -14 -14 -33.5t14 -33.5t34 -14t34 14l135 145l135 -145q14 -14 34 -14t34 14t14 33.5t-14 33.5l-146 135l146 135q14 14 14 34t-14 34
t-34 14t-34 -14l-135 -145z" />
    <glyph glyph-name="uniE069" unicode="&#xe069;" 
d="M621 1031h-191q-20 0 -34 -14.5t-14 -33.5v-143h-47q-19 0 -33.5 -14t-14.5 -34v-478q0 -20 14.5 -34t33.5 -14h430v96h-383v382h669v-191h96v239q0 20 -14.5 34t-33.5 14h-48v143q0 20 -14 34t-33 14h-192q-19 0 -33 -14t-14 -34v-143h-96v143q0 19 -14.5 33.5
t-33.5 14.5zM1290 362h-382q-20 0 -34 -14t-14 -34t14 -34t34 -14h382q20 0 34 14t14 34t-14 34t-34 14zM478 935h95v-95h-95v95zM860 935h96v-95h-96v95z" />
    <glyph glyph-name="uniE06A" unicode="&#xe06a;" 
d="M1099 553q-19 0 -33.5 -14.5t-14.5 -33.5v-143h-143q-20 0 -34 -14t-14 -34t14 -34t34 -14h143v-143q0 -19 14.5 -33.5t33.5 -14.5t33.5 14.5t14.5 33.5v143h143q20 0 34 14t14 34t-14 34t-34 14h-143v143q0 19 -14.5 33.5t-33.5 14.5zM668 1031h-285q-1 0 -1 -1v-190
h-47q-19 0 -33.5 -14t-14.5 -34v-478q0 -20 14.5 -34t33.5 -14h430v96h-383v382h669v-95h96v143q0 20 -14.5 34t-33.5 14h-48v190q0 1 -1 1h-284q-1 0 -1 -1v-190h-96v190q0 1 -1 1zM478 935h95v-95h-95v95zM860 935h96v-95h-96v95z" />
    <glyph glyph-name="uniE06B" unicode="&#xe06b;" 
d="M621 1031h-191q-20 0 -34 -14.5t-14 -33.5v-143h-47q-19 0 -33.5 -14t-14.5 -34v-478q0 -20 14.5 -34t33.5 -14h764q19 0 33.5 14t14.5 34v478q0 20 -14.5 34t-33.5 14h-48v143q0 20 -14 34t-33 14h-192q-19 0 -33 -14t-14 -34v-143h-96v143q0 19 -14.5 33.5t-33.5 14.5z
M382 744h669v-382h-669v382zM478 935h96v-95h-96v95zM860 935h96v-95h-96v95zM764 171h-94q-1 0 -1 -1v-94q0 -1 1 -1h94q1 0 1 1v94q0 1 -1 1zM572 171h-93q-1 0 -1 -1v-94q0 -1 1 -1h93q2 0 2 1v94q0 1 -2 1zM955 171h-94q-1 0 -1 -1v-94q0 -1 1 -1h94q1 0 1 1v94
q0 1 -1 1z" />
    <glyph glyph-name="uniE06C" unicode="&#xe06c;" 
d="M621 1031h-191q-20 0 -34 -14.5t-14 -33.5v-143h-47q-19 0 -33.5 -14t-14.5 -34v-478q0 -20 14.5 -34t33.5 -14h764q19 0 33.5 14t14.5 34v478q0 20 -14.5 34t-33.5 14h-48v143q0 20 -14 34t-33 14h-192q-19 0 -33 -14t-14 -34v-143h-96v143q0 19 -14.5 33.5t-33.5 14.5z
M382 744h669v-382h-669v382zM478 935h96v-95h-96v95zM860 935h96v-95h-96v95z" />
    <glyph glyph-name="uniE06D" unicode="&#xe06d;" horiz-adv-x="1437" 
d="M1225 1031h-1013q-87 0 -148.5 -61.5t-61.5 -148.5v-249q0 -87 61.5 -148.5t148.5 -61.5h1013q87 0 149 61.5t62 148.5v249q0 87 -62 148.5t-149 61.5zM1225 935h12q44 -5 73.5 -37.5t29.5 -76.5v-249l-1 -12q-5 -44 -37.5 -73.5t-76.5 -29.5h-1013l-11 1
q-44 5 -73.5 37.5t-29.5 76.5v249v11q5 44 37.5 73.5t76.5 29.5h1013zM432 754q-24 0 -40.5 -17t-16.5 -41t16.5 -40.5t40.5 -16.5t40.5 16.5t16.5 40.5t-16.5 41t-40.5 17zM719 754q-24 0 -40.5 -17t-16.5 -41t16.5 -40.5t40.5 -16.5t40.5 16.5t16.5 40.5t-16.5 41
t-40.5 17zM1006 754q-24 0 -41 -17t-17 -41t17 -40.5t41 -16.5t40.5 16.5t16.5 40.5t-16.5 41t-40.5 17z" />
    <glyph glyph-name="uniE06E" unicode="&#xe06e;" horiz-adv-x="1437" 
d="M1099 1242h-764q-20 0 -34 -14t-14 -33v-956q0 -19 14.5 -33.5t33.5 -14.5h764q19 0 33.5 14.5t14.5 33.5v956q0 19 -14 33t-34 14zM382 382h96v-95h-96v95zM573 382h96v-95h-96v95zM956 573h95v-286h-95v286zM765 382h95v-95h-95v95zM382 573h96v-95h-96v95zM574 573h95
v-95h-95v95zM765 573h95v-95h-95v95zM382 765h96v-96h-96v96zM574 765h95v-96h-95v96zM765 765h95v-96h-95v96zM956 765h95v-96h-95v96zM382 1147h669v-287h-669v287z" />
    <glyph glyph-name="uniE06F" unicode="&#xe06f;" 
d="M1099 1318q-19 0 -33.5 -14t-14.5 -34v-48h-669v48q0 20 -14 34t-33 14t-33.5 -14t-14.5 -34v-48h-144q-19 0 -33 -14t-14 -34v-956q0 -20 14 -33.5t33 -13.5h1147q20 0 34 14t14 33v956q0 20 -14 34t-34 14h-143v48q0 20 -14.5 34t-33.5 14zM191 935h1052v-669h-1052
v669zM717 467q-24 0 -40.5 -16.5t-16.5 -40.5t16.5 -41t40.5 -17t40.5 17t16.5 41t-16.5 40.5t-40.5 16.5zM717 840q-19 0 -33.5 -14t-14.5 -34v-191q0 -19 14.5 -33.5t33.5 -14.5t33.5 14.5t14.5 33.5v191q0 20 -14.5 34t-33.5 14zM191 1126h1051v-95h-1051v95z" />
    <glyph glyph-name="uniE070" unicode="&#xe070;" 
d="M453 433v1q-13 13 -32.5 14t-32.5 -12l-184 -184q-13 -13 -13 -33.5t13 -33.5l184 -184q13 -12 32.5 -11t32.5 14t13 33.5t-13 33.5l-111 99h280q20 0 34 14t14 34t-14 34t-34 14h-280l111 100q13 13 13 33.5t-13 33.5zM143 468q-19 0 -33 -14t-14 -34v-383q0 -19 14 -33
t33 -14q20 0 34 14t14 33v383q0 20 -14.5 34t-33.5 14zM1099 1318q-19 0 -33.5 -14t-14.5 -34v-48h-669v48q0 20 -14 34t-33 14t-33.5 -14t-14.5 -34v-48h-144q-19 0 -33 -14t-14 -34v-621h95v382h1051v-669h-477v-95h525q20 0 34 14.5t14 33.5v955q0 20 -14 34t-34 14h-143
v48q0 20 -14.5 34t-33.5 14zM335 649q-19 0 -33.5 -14.5t-14.5 -33.5t14.5 -33.5t33.5 -14.5t33 14t14 34t-14 34t-33 14zM526 649q-20 0 -34 -14.5t-14 -33.5t14 -33.5t34 -14.5t34 14.5t14 33.5t-14 33.5t-34 14.5zM717 649q-19 0 -33.5 -14.5t-14.5 -33.5t14.5 -33.5
t33.5 -14.5t33.5 14.5t14.5 33.5t-14.5 33.5t-33.5 14.5zM908 649q-20 0 -34 -14.5t-14 -33.5t14 -33.5t34 -14.5t34 14.5t14 33.5t-14 33.5t-34 14.5zM1099 649q-19 0 -33.5 -14.5t-14.5 -33.5t14.5 -33.5t33.5 -14.5t33.5 14.5t14.5 33.5t-14.5 33.5t-33.5 14.5zM526 840
q-20 0 -34 -14t-14 -34t14 -34t34 -14q19 0 33 14t14 34t-14 34t-33 14zM717 840q-19 0 -33.5 -14t-14.5 -34t14.5 -34t33.5 -14t33.5 14t14.5 34t-14.5 34t-33.5 14zM908 840q-20 0 -34 -14t-14 -34t14 -34t34 -14t34 14t14 34t-14 34t-34 14zM1099 840q-19 0 -33.5 -14
t-14.5 -34t14.5 -34t33.5 -14t33.5 14t14.5 34t-14.5 34t-33.5 14zM191 1127h1051v-96h-1051v96z" />
    <glyph glyph-name="uniE071" unicode="&#xe071;" 
d="M191 37v182l1 -10q3 -15 12 -24l184 -184q13 -12 32.5 -11t32.5 14t13 33.5t-13 33.5l-111 100h280q20 0 34 14t14 33q0 20 -14 34t-34 14h-280l111 100q13 13 13 33.5t-13 33.5t-32.5 14t-32.5 -11l-184 -184q-13 -13 -13 -34v202q0 19 -14 33t-34 14q-19 0 -33 -13.5
t-14 -33.5v-383q0 -19 14 -33t33 -14q20 0 34 14t14 33zM1099 1318q-19 0 -33.5 -14t-14.5 -34v-48h-669v48q0 20 -14 34t-33 14t-33.5 -14t-14.5 -34v-48h-144q-19 0 -33 -14t-14 -34v-621h95v382h1051v-669h-477v-95h525q20 0 34 14.5t14 33.5v955q0 20 -14 34t-34 14
h-143v48q0 20 -14.5 34t-33.5 14zM669 840h-48l-142 -97l27 -87l67 40v-334h96v478zM1076 840h-311v-96h182l-159 -382h113l175 429v49zM191 1127h1052v-96h-1052v96z" />
    <glyph glyph-name="uniE072" unicode="&#xe072;" 
d="M1041 441q-14 9 -30.5 6.5t-28.5 -14.5q-13 -13 -13 -34t13 -34l111 -99h-280l-9 -1q-17 -3 -28 -16t-11 -31q0 -20 14.5 -34t33.5 -14h280l-111 -99l-6 -7q-8 -13 -6.5 -31.5t12.5 -29.5q13 -13 32.5 -14t32.5 12l184 184l5 7q5 7 5 8l1 7v23l-1 7q-3 7 -10 15l-184 184
zM1290 467q-20 0 -34 -14.5t-14 -33.5v-190l1 -1q2 -10 0 -19l-1 -2v-170q0 -19 14 -33.5t34 -14.5t34 14.5t14 33.5v382q0 19 -14 33.5t-34 14.5zM1099 1317q-20 0 -34 -14t-14 -33v-48h-669v48q0 20 -14 33.5t-33 13.5q-20 0 -34 -14t-14 -33v-48h-144q-19 0 -33 -14
t-14 -34v-956q0 -20 14 -34t33 -14h526v96h-478v669h1052v-382h95v621q0 20 -14 34t-34 14h-143v48q0 19 -14 33t-34 14zM574 840h-48l-143 -97l27 -87l68 40v-334h96v478zM981 840h-312v-96h183l-159 -382h112l176 429v49zM191 1126h1052v-95h-1052v95z" />
    <glyph glyph-name="uniE073" unicode="&#xe073;" horiz-adv-x="1437" 
d="M1101 1338q-19 0 -33.5 -14t-14.5 -34v-48h-669v48q0 20 -14 34t-33 14t-33.5 -14t-14.5 -34v-48h-144q-19 0 -33 -14t-14 -33v-956q0 -20 14 -34t33 -14h1147q20 0 34 14.5t14 33.5v956q0 19 -14 33t-34 14h-143v48q0 20 -14.5 34t-33.5 14zM1245 956v-669h-1052v669
h1052zM576 860h-48l-143 -96l27 -87l68 39v-334h96v478zM983 860h-312v-95h183l-159 -383h112l176 429v49zM1245 1147v-96h-1052v96h1052z" />
    <glyph glyph-name="uniE074" unicode="&#xe074;" 
d="M982 433q-13 -13 -13 -34t13 -34l111 -99h-280l-9 -1q-17 -3 -28 -16t-11 -31q0 -20 14.5 -34t33.5 -14h280l-111 -99l-6 -7q-8 -13 -6.5 -31t12.5 -29q13 -13 32.5 -14t32.5 11l184 184l5 7q8 13 7 31t-12 29l-184 184l-6 5q-14 9 -30.5 6.5t-28.5 -14.5zM1290 467
q-20 0 -34 -14.5t-14 -33.5v-382q0 -19 14 -33.5t34 -14.5t34 14.5t14 33.5v382q0 19 -14 33.5t-34 14.5zM1099 1317q-20 0 -34 -14t-14 -33v-48h-669v48q0 20 -14 33.5t-33 13.5q-20 0 -34 -14t-14 -33v-48h-144q-19 0 -33 -14t-14 -34v-956q0 -20 14 -33.5t33 -13.5h526
v95h-478v669h1051v-382h96v621q0 20 -14 34t-34 14h-143v48q0 19 -14 33t-34 14zM335 457q-19 0 -33.5 -14.5t-14.5 -33.5t14 -33t34 -14q19 0 33 14t14 33q0 20 -14 34t-33 14zM526 457q-20 0 -34 -14.5t-14 -33.5t14 -33t34 -14t34 14t14 33t-14 33.5t-34 14.5zM717 457
q-19 0 -33.5 -14.5t-14.5 -33.5t14 -33t34 -14t34 14t14 33t-14.5 33.5t-33.5 14.5zM335 648q-20 0 -34 -14t-14 -33t14.5 -33.5t33.5 -14.5t33 14t14 34q0 19 -14 33t-33 14zM526 648q-20 0 -34 -14t-14 -33t14 -33.5t34 -14.5t34 14.5t14 33.5t-14 33t-34 14zM717 648
q-20 0 -34 -14t-14 -33t14.5 -33.5t33.5 -14.5t33.5 14.5t14.5 33.5t-14 33t-34 14zM908 648q-20 0 -34 -14t-14 -33t14 -33.5t34 -14.5t34 14.5t14 33.5t-14 33t-34 14zM1099 648q-20 0 -34 -14t-14 -33t14.5 -33.5t33.5 -14.5t33.5 14.5t14.5 33.5t-14 33t-34 14zM526 840
q-20 0 -34 -14t-14 -34t14 -34t34 -14t34 14t14 34t-14 34t-34 14zM717 840q-19 0 -33.5 -14t-14.5 -34t14.5 -34t33.5 -14t33.5 14t14.5 34t-14.5 34t-33.5 14zM908 840q-20 0 -34 -14t-14 -34t14 -34t34 -14t34 14t14 34t-14 34t-34 14zM1099 840q-19 0 -33.5 -14
t-14.5 -34t14.5 -34t33.5 -14t33.5 14t14.5 34t-14.5 34t-33.5 14zM191 1126h1051v-95h-1051v95z" />
    <glyph glyph-name="uniE075" unicode="&#xe075;" 
d="M1099 1318q-19 0 -33.5 -14t-14.5 -34v-48h-669v48q0 20 -14 34t-33 14t-33.5 -14t-14.5 -34v-48h-144q-19 0 -33 -14t-14 -34v-956q0 -20 14 -33.5t33 -13.5h1147q20 0 34 14t14 33v956q0 20 -14 34t-34 14h-143v48q0 20 -14.5 34t-33.5 14zM191 935h1052v-669h-1052
v669zM1099 744q-19 0 -33.5 -14t-14.5 -34v-47h-669v47q0 20 -14 34t-33 14t-33.5 -14t-14.5 -34v-191q0 -19 14.5 -33.5t33.5 -14.5t33 14t14 34v48h669v-48q0 -19 14.5 -33.5t33.5 -14.5t33.5 14.5t14.5 33.5v191q0 20 -14.5 34t-33.5 14zM191 1126h1052v-95h-1052v95z
" />
    <glyph glyph-name="uniE076" unicode="&#xe076;" horiz-adv-x="1443" 
d="M1013 849h-19q-178 0 -304 -125.5t-126 -304.5v-19q0 -178 126 -304t304 -126h19q179 0 304.5 126t125.5 304v19q0 117 -57.5 216t-156.5 156.5t-216 57.5zM1013 754l18 -1q133 -8 225 -104t92 -230v-19l-1 -18q-8 -133 -104 -224.5t-230 -91.5h-19h-18q-133 8 -225 104
t-92 230v19l1 19q8 133 104 224.5t230 91.5h19zM1099 1318q-19 0 -33.5 -14t-14.5 -34v-48h-669v48q0 20 -14 33.5t-33 13.5q-20 0 -34 -14t-14 -33v-48h-144q-19 0 -33 -14t-14 -34v-956q0 -20 14 -33.5t33 -13.5h392q-23 43 -37 95h-307v669h1051v-57q50 -25 96 -63v359
q0 20 -14 34t-34 14h-143v48q0 20 -14.5 34t-33.5 14zM1004 696q-20 0 -34 -14t-14 -34v-266l231 -133q17 -10 36 -5t29 22t4.5 36t-22.5 29l-183 106v211q0 20 -14 34t-33 14zM191 1126h1052v-95h-1052v95z" />
    <glyph glyph-name="uniE077" unicode="&#xe077;" 
d="M288 840q-1 0 -1 -1v-94q0 -1 1 -1h858q1 0 1 1v94q0 1 -1 1h-858zM453 433v1q-13 13 -32.5 14t-32.5 -12l-184 -184q-13 -13 -13 -33.5t13 -33.5l184 -184q13 -12 32.5 -11t32.5 14t13 33.5t-13 33.5l-111 99h280q20 0 34 14t14 34t-14 34t-34 14h-280l111 100
q13 13 13 33.5t-13 33.5zM143 468q-19 0 -33 -14t-14 -34v-383q0 -19 14 -33t33 -14q20 0 34 14t14 33v383q0 20 -14.5 34t-33.5 14zM1099 1318q-19 0 -33.5 -14t-14.5 -34v-48h-669v48q0 20 -14 34t-33 14t-33.5 -14t-14.5 -34v-48h-144q-19 0 -33 -14t-14 -34v-621h95v382
h1051v-669h-477v-95h525q20 0 34 14.5t14 33.5v955q0 20 -14 34t-34 14h-143v48q0 20 -14.5 34t-33.5 14zM191 1127h1052v-96h-1052v96z" />
    <glyph glyph-name="uniE078" unicode="&#xe078;" 
d="M288 840q-1 0 -1 -1v-94q0 -1 1 -1h858q1 0 1 1v94q0 1 -1 1h-858zM982 433q-13 -13 -13 -34t13 -34l111 -99h-280l-9 -1q-17 -3 -28 -16t-11 -31q0 -20 14.5 -34t33.5 -14h280l-111 -99l-6 -7q-8 -13 -6.5 -31.5t12.5 -29.5q13 -13 32.5 -14t32.5 12l184 184l5 7
q8 13 7 31t-12 29l-184 184l-6 5q-14 9 -30.5 6.5t-28.5 -14.5zM1290 467q-20 0 -34 -14.5t-14 -33.5v-382q0 -19 14 -33.5t34 -14.5t34 14.5t14 33.5v382q0 19 -14 33.5t-34 14.5zM1099 1317q-20 0 -34 -14t-14 -33v-48h-669v48q0 20 -14 33.5t-33 13.5q-20 0 -34 -14
t-14 -33v-48h-144q-19 0 -33 -14t-14 -34v-956q0 -20 14 -33.5t33 -13.5h526v95h-478v669h1051v-382h96v621q0 20 -14 34t-34 14h-143v48q0 19 -14 33t-34 14zM191 1126h1052v-95h-1052v95z" />
    <glyph glyph-name="uniE079" unicode="&#xe079;" horiz-adv-x="1437" 
d="M1101 1315q-20 0 -34 -14t-14 -33v-48h-669v48q0 20 -14 33.5t-33 13.5q-20 0 -34 -14t-14 -33v-48h-144q-19 0 -33 -14t-14 -34v-956q0 -20 14 -33.5t33 -13.5h1147q20 0 34 14t14 33v956q0 20 -14 34t-34 14h-143v48q0 19 -14 33t-34 14zM1245 933v-669h-1052v669h1052
zM1245 1124v-95h-1052v95h1052zM287 840v-100h864v100h-864z" />
    <glyph glyph-name="uniE07A" unicode="&#xe07a;" 
d="M1099 1338q-19 0 -33.5 -14t-14.5 -34v-48h-669v48q0 20 -14 34t-33 14t-33.5 -14t-14.5 -34v-48h-144q-19 0 -33 -14t-14 -33v-956q0 -20 14 -34t33 -14h1147q20 0 34 14.5t14 33.5v956q0 19 -14 33t-34 14h-143v48q0 20 -14.5 34t-33.5 14zM191 956h1052v-669h-1052
v669zM381 478h-93q-1 0 -1 -1v-94q0 -1 1 -1h93q1 0 1 1v94q0 1 -1 1zM572 478h-93q-1 0 -1 -1v-94q0 -1 1 -1h93q2 0 2 1v94q0 1 -2 1zM764 478h-94q-1 0 -1 -1v-94q0 -1 1 -1h94q1 0 1 1v94q0 1 -1 1zM381 669h-93q-1 0 -1 -1v-94q0 -1 1 -1h93q1 0 1 1v94q0 1 -1 1z
M572 669h-93q-1 0 -1 -1v-94q0 -1 1 -1h93q1 0 1 1v94q0 1 -1 1zM764 669h-94q-1 0 -1 -1v-94q0 -1 1 -1h94q1 0 1 1v94q0 1 -1 1zM955 669h-94q-1 0 -1 -1v-94q0 -1 1 -1h94q1 0 1 1v94q0 1 -1 1zM1146 669h-94q-1 0 -1 -1v-94q0 -1 1 -1h94q1 0 1 1v94q0 1 -1 1zM572 860
h-93q-1 0 -1 -1v-93q0 -1 1 -1h93q1 0 1 1v93q0 1 -1 1zM764 860h-94q-1 0 -1 -1v-93q0 -1 1 -1h94q1 0 1 1v93q0 1 -1 1zM955 860h-94q-1 0 -1 -1v-93q0 -1 1 -1h94q1 0 1 1v93q0 1 -1 1zM1146 860h-94q-1 0 -1 -1v-93q0 -1 1 -1h94q1 0 1 1v93q0 1 -1 1zM191 1147h1051
v-96h-1051v96z" />
    <glyph glyph-name="uniE07B" unicode="&#xe07b;" 
d="M1290 1126h-1147q-19 0 -33 -14t-14 -33v-765q0 -20 14 -34t33 -14h1147q20 0 34 14t14 34v765q0 19 -14 33t-34 14zM191 1031h1051v-669h-1051v669zM908 945q-103 0 -176 -73t-73 -176t73 -175.5t176 -72.5t175.5 72.5t72.5 175.5t-72.5 176t-175.5 73zM908 849
q63 0 108 -45t45 -108t-45 -108t-108 -45t-108 45t-45 108t45 108t108 45zM573 935h-286v-191h286v191z" />
    <glyph glyph-name="uniE07C" unicode="&#xe07c;" 
d="M812 1222h-191q-19 0 -33.5 -14t-14.5 -34v-48h-525q-20 0 -34 -14t-14 -33v-765q0 -20 14 -34t34 -14h1338q20 0 34 14t14 34v765q0 19 -14 33t-34 14h-526v48q0 20 -14 34t-34 14zM96 1031h1242v-669h-1242v669zM574 505q0 79 -56 135t-136 56t-135.5 -56t-55.5 -135
v-48h383v48zM1004 553h-287q-19 0 -33.5 -14.5t-14.5 -33.5t14.5 -33.5t33.5 -14.5h287q19 0 33 14t14 34t-14 34t-33 14zM1195 744h-478q-19 0 -33.5 -14t-14.5 -34t14.5 -34t33.5 -14h478q19 0 33.5 14t14.5 34t-14.5 34t-33.5 14zM382 945q-44 0 -74.5 -30.5t-30.5 -74.5
t30.5 -74.5t74.5 -30.5t75 31t31 74t-31 74t-75 31zM1099 935h-382q-19 0 -33.5 -14.5t-14.5 -33.5t14 -33t34 -14h382q20 0 34 14t14 33t-14.5 33.5t-33.5 14.5z" />
    <glyph glyph-name="uniE07D" unicode="&#xe07d;" 
d="M1290 1222h-1147q-19 0 -33 -14t-14 -34v-764q0 -20 14 -34t33 -14h48v-144q0 -19 14 -33t34 -14h956q19 0 33 13.5t14 33.5v144h48q20 0 34 14t14 34v764q0 20 -14 34t-34 14zM287 362h860v-96h-860v96zM191 1126h1051v-669h-1051v669zM908 840h-382q-20 0 -34 -14
t-14 -34t14 -34t34 -14h382q20 0 34 14t14 34t-14 34t-34 14z" />
    <glyph glyph-name="uniE07E" unicode="&#xe07e;" 
d="M1290 1222h-1147q-19 0 -33 -14t-14 -34v-764q0 -20 14 -34t33 -14h48v-144q0 -19 14 -33t34 -14h956q19 0 33 13.5t14 33.5v144h48q20 0 34 14t14 34v764q0 20 -14 34t-34 14zM287 362h860v-96h-860v96zM191 1126h1051v-669h-1051v669zM717 1031q-19 0 -33.5 -14.5
t-14.5 -33.5v-143h-143q-20 0 -34 -14t-14 -34t14 -34t34 -14h143v-143q0 -19 14.5 -33.5t33.5 -14.5t33.5 14.5t14.5 33.5v143h143q20 0 34 14t14 34t-14 34t-34 14h-143v143q0 19 -14.5 33.5t-33.5 14.5z" />
    <glyph glyph-name="uniE07F" unicode="&#xe07f;" 
d="M1290 1242h-1147q-19 0 -33 -14t-14 -33v-765q0 -20 14 -34t33 -14h48v-143q0 -19 14.5 -33.5t33.5 -14.5h956q19 0 33 14t14 34v143h48q20 0 34 14t14 34v765q0 19 -14 33t-34 14zM287 382h860v-95h-860v95zM191 1147h1051v-669h-1051v669z" />
    <glyph glyph-name="uniE080" unicode="&#xe080;" 
d="M672 1034q-14 14 -33.5 14t-33.5 -14l-304 -304q-14 -14 -14 -34t14 -34l304 -304q14 -14 33.5 -14t33.5 14t14 34t-14 34l-270 270l270 270q14 14 14 34t-14 34zM1055 1034q-14 14 -34 14t-34 -14l-304 -304q-14 -14 -14 -34t14 -34l304 -304q14 -14 34 -14t34 14t14 34
t-14 34l-271 270l271 270q14 14 14 34t-14 34z" />
    <glyph glyph-name="uniE081" unicode="&#xe081;" 
d="M761 1034q-14 -14 -14 -34t14 -34l271 -270l-271 -270q-14 -14 -14 -34t14 -34t34 -14t34 14l304 304q14 14 14 34t-14 34l-304 304q-14 14 -34 14t-34 -14zM379 1034q-14 -14 -14 -33.5t14 -33.5l270 -271l-270 -270q-14 -14 -14 -34t14 -34t34 -14t34 14l304 304
q14 14 14 34t-14 34l-304 304q-14 14 -34 14t-34 -14z" />
    <glyph glyph-name="uniE082" unicode="&#xe082;" 
d="M751 730q-14 14 -34 14t-34 -14l-304 -304q-14 -14 -14 -34t14 -34t34 -14t34 14l270 271l270 -271q14 -14 34 -14t34 14t14 34t-14 34zM751 1112q-14 14 -34 14t-34 -14l-304 -304q-14 -14 -14 -33.5t14 -33.5t34 -14t34 14l270 270l270 -270q14 -14 34 -14t34 14
t14 33.5t-14 33.5z" />
    <glyph glyph-name="uniE083" unicode="&#xe083;" 
d="M379 652q-14 -14 -14 -34t14 -34l304 -304q14 -14 34 -14t34 14l304 304q14 14 14 34t-14 34t-34 14t-34 -14l-270 -271l-270 271q-14 14 -34 14t-34 -14zM379 1034q-14 -14 -14 -34t14 -34l304 -304q14 -14 34 -14t34 14l304 304q14 14 14 34t-14 34t-34 14t-34 -14
l-270 -270l-270 270q-14 14 -34 14t-34 -14z" />
    <glyph glyph-name="uniE084" unicode="&#xe084;" 
d="M1055 843q14 -14 14 -34t-14 -34l-304 -304q-14 -14 -34 -14t-34 14l-304 304q-14 14 -14 34t14 34t34 14t34 -14l270 -270l270 270q14 14 34 14t34 -14z" />
    <glyph glyph-name="uniE085" unicode="&#xe085;" 
d="M191 983v-573q0 -20 14.5 -34t33.5 -14h956q19 0 33 14t14 34v573q0 20 -14 34t-33 14t-33.5 -14.5t-14.5 -33.5v-526h-860v526q0 19 -14.5 33.5t-33.5 14.5t-33.5 -14.5t-14.5 -33.5zM475 939q-14 -14 -14 -34t14 -34l208 -208q14 -14 34 -14t34 14l208 208q14 14 14 34
t-14 34t-33.5 14t-33.5 -14l-175 -175l-175 175q-14 14 -33.5 14t-33.5 -14z" />
    <glyph glyph-name="uniE086" unicode="&#xe086;" 
d="M1004 1242h-574q-20 0 -34 -14t-14 -33v-956q0 -19 14 -33.5t34 -14.5h574q19 0 33 14t14 34t-14 34t-33 14h-526v860h526q19 0 33 14t14 34q0 19 -13.5 33t-33.5 14zM959 959q-14 14 -33.5 14t-33.5 -14l-209 -209q-14 -14 -14 -33.5t14 -33.5l209 -209q14 -14 33.5 -14
t33.5 14t14 34t-14 34l-175 175l175 174q14 14 14 34t-14 34z" />
    <glyph glyph-name="uniE087" unicode="&#xe087;" 
d="M430 1222h574q19 0 33 -14t14 -34v-956q0 -20 -13.5 -33.5t-33.5 -13.5h-574q-20 0 -34 14t-14 33q0 20 14 34t34 14h526v860h-526q-20 0 -34 14t-14 34t14 34t34 14zM474 938q14 14 34 14t34 -14l209 -208q14 -14 14 -34t-14 -34l-209 -208q-14 -14 -34 -14t-34 14
t-14 33.5t14 33.5l175 175l-175 175q-14 14 -14 33.5t14 33.5z" />
    <glyph glyph-name="uniE088" unicode="&#xe088;" 
d="M191 410v573q0 19 14.5 33.5t33.5 14.5h956q19 0 33 -14t14 -34v-573q0 -20 -14 -34t-33 -14t-33.5 14t-14.5 34v525h-860v-525q0 -20 -14.5 -34t-33.5 -14t-33.5 14t-14.5 34zM475 454q-14 14 -14 34t14 34l208 208q14 14 34 14t34 -14l208 -208q14 -14 14 -34t-14 -34
t-33.5 -14t-33.5 14l-175 175l-175 -175q-14 -14 -33.5 -14t-33.5 14z" />
    <glyph glyph-name="uniE089" unicode="&#xe089;" 
d="M864 1034q-14 14 -34 14t-34 -14l-304 -304q-14 -14 -14 -34t14 -34l304 -304q14 -14 34 -14t34 14t14 34t-14 34l-271 270l271 270q14 14 14 34t-14 34z" />
    <glyph glyph-name="uniE08A" unicode="&#xe08a;" 
d="M717 1222q19 0 33.5 -14t14.5 -34v-956q0 -19 -14 -33t-34 -14t-34 14t-14 33v956q0 20 14.5 34t33.5 14zM284 938q14 14 33.5 14t33.5 -14l209 -208q14 -14 14 -34t-14 -34l-209 -208q-14 -14 -33.5 -14t-33.5 14t-14 33.5t14 33.5l174 175l-174 175q-14 14 -14 33.5
t14 33.5zM1150 938q-14 14 -33.5 14.5t-33.5 -13.5l-209 -209q-14 -14 -14 -34t14 -34l209 -208q14 -14 33.5 -14t33.5 14t14 33.5t-14 33.5l-174 175l174 175q14 14 14 33.5t-14 33.5z" />
    <glyph glyph-name="uniE08B" unicode="&#xe08b;" 
d="M1243 696q0 -20 -14.5 -34t-33.5 -14h-956q-19 0 -33.5 14t-14.5 34t14.5 34t33.5 14h956q19 0 33.5 -14t14.5 -34zM959 1130q14 -14 14 -34t-14 -34l-208 -208q-14 -14 -34 -14t-34 14l-209 208q-14 14 -14 34t14 34t34 14t34 -14l175 -175l174 175q14 14 34 14t34 -14z
M959 263q14 14 14 34t-14 34l-208 208q-14 14 -34 14t-34 -14l-209 -208q-14 -14 -14 -34t14 -34t34 -14t34 14l175 175l174 -175q14 -14 34 -14t34 14z" />
    <glyph glyph-name="uniE08C" unicode="&#xe08c;" 
d="M1242 505q0 -20 -14 -34t-33 -14h-956q-19 0 -33.5 14.5t-14.5 33.5t14.5 33.5t33.5 14.5h956q19 0 33 -14t14 -34zM959 938q14 -14 14 -33.5t-14 -33.5l-209 -209q-14 -14 -33.5 -14t-33.5 14l-209 209q-14 14 -14 33.5t14 33.5t34 14t34 -14l175 -174l174 174
q14 14 34 14t34 -14z" />
    <glyph glyph-name="uniE08D" unicode="&#xe08d;" 
d="M526 1222q-20 0 -34 -14t-14 -34v-956q0 -19 14 -33t34 -14t33.5 13.5t13.5 33.5v956q0 20 -14 34t-33 14zM959 938q-14 14 -33.5 14t-33.5 -14l-209 -208q-14 -14 -14 -34t14 -34l209 -208q14 -14 33.5 -14t33.5 14t14 33.5t-14 33.5l-175 175l175 175q14 14 14 33.5
t-14 33.5z" />
    <glyph glyph-name="uniE08E" unicode="&#xe08e;" 
d="M908 1222q20 0 34 -14t14 -34v-956q0 -19 -14 -33t-34 -14t-34 14t-14 33v956q0 20 14 34t34 14zM475 938q14 14 33.5 14t33.5 -14l209 -208q14 -14 14 -34t-14 -34l-209 -208q-14 -14 -33.5 -14t-33.5 14t-14 33.5t14 33.5l174 175l-174 175q-14 14 -14 33.5t14 33.5z
" />
    <glyph glyph-name="uniE08F" unicode="&#xe08f;" horiz-adv-x="1437" 
d="M1245 887q0 19 -14.5 33.5t-33.5 14.5h-956q-19 0 -33.5 -14.5t-14.5 -33.5t14 -33t34 -14h956q20 0 34 14t14 33zM961 454q14 14 14 34t-14 34l-209 208q-14 14 -33.5 14t-33.5 -14l-209 -208q-14 -14 -14 -34t14 -34t34 -14t34 14l175 175l174 -175q14 -14 34 -14
t34 14z" />
    <glyph glyph-name="uniE090" unicode="&#xe090;" 
d="M570 1055q14 14 34 13.5t34 -14.5l304 -304q14 -14 14 -33.5t-14 -33.5l-304 -304q-14 -14 -34 -14t-34 14t-14 33.5t14 33.5l271 271l-271 270q-14 14 -14 34t14 34z" />
    <glyph glyph-name="uniE091" unicode="&#xe091;" 
d="M474 578q-14 -14 -14 -34t14 -34l209 -209l7 -6q33 -22 61 6l209 209l6 7q22 33 -6 61q-14 14 -33.5 14t-33.5 -14l-176 -176l-176 176l-6 5q-14 10 -31 9t-30 -14zM751 1133q-14 14 -34 14t-34 -14l-209 -210q-14 -14 -14 -33.5t14 -33.5t33.5 -14t33.5 14l176 176
l176 -176q14 -14 33.5 -14t33.5 14t14 33.5t-14 33.5z" />
    <glyph glyph-name="uniE092" unicode="&#xe092;" 
d="M1055 570q14 14 14 34t-14 34l-304 304q-14 14 -34 14t-34 -14l-304 -304q-14 -14 -14 -34t14 -34t34 -14t34 14l270 270l270 -270q14 -14 34 -14t34 14z" />
    <glyph glyph-name="uniE093" unicode="&#xe093;" 
d="M177 1257q-14 14 -34 14t-34 -14t-14 -34t14 -34l176 -175l98 -269l-41 -112q-6 -16 -6 -40q0 -47 33.5 -80.5t80.5 -33.5l371 -1l94 -94q-29 -12 -46.5 -38t-17.5 -59q0 -43 30.5 -74t74.5 -31q33 0 59 17.5t38 46.5l87 -87q14 -14 33.5 -14t33.5 14t14 34t-14 34z
M478 392q-44 0 -74.5 -31t-30.5 -74q0 -44 31 -75t74 -31t74 31t31 75q0 43 -30.5 74t-74.5 31zM630 669l95 -96h-275q-3 0 -7 2q-18 7 -11 24l25 70h173zM421 1147l95 -96h552l-100 -274q-5 -12 -17 -12h-148l96 -96h52q36 0 65.5 20.5t41.5 54.5l123 339q3 7 3 16
q0 19 -14 33.5t-34 14.5h-715zM445 854l89 -89h-56z" />
    <glyph glyph-name="uniE094" unicode="&#xe094;" 
d="M478 392q-44 0 -74.5 -31t-30.5 -74t30.5 -74t74.5 -31t74.5 31t30.5 74t-30.5 74t-74.5 31zM956 392q-44 0 -74.5 -31t-30.5 -74t30.5 -74t74.5 -31t74.5 31t30.5 74t-30.5 74t-74.5 31zM1137 1147h-1q-34 0 -45 -31l-123 -339q-5 -12 -18 -12h-473l-173 477l-1 1h-160
q-19 0 -33.5 -14.5t-14.5 -33.5t14.5 -33.5t33.5 -14.5h94l146 -402l-41 -112q-6 -16 -6 -39q0 -47 33.5 -81t80.5 -34l553 -1l9 1q17 3 28 16.5t11 30.5q0 20 -14.5 34t-33.5 14h-553q-5 0 -7 1q-18 7 -11 24l25 70h494q36 0 65.5 21t41.5 55l123 338q3 7 3 16q0 20 -14 34
t-33 14zM501 1121q-13 -13 -14 -32.5t12 -32.5l183 -183q13 -13 34 -13t34 13l183 183q12 13 11 32.5t-14 32.5t-33.5 13t-33.5 -13l-99 -110v279q0 20 -14 34t-34 14t-34 -14t-14 -34v-279l-99 110q-13 13 -34 13t-34 -13z" />
    <glyph glyph-name="uniE095" unicode="&#xe095;" 
d="M478 392q-44 0 -74.5 -31t-30.5 -74t30.5 -74t74.5 -31t74.5 31t30.5 74t-30.5 74t-74.5 31zM956 392q-44 0 -74.5 -31t-30.5 -74t30.5 -74t74.5 -31t74.5 31t30.5 74t-30.5 74t-74.5 31zM1137 1147h-1q-34 0 -45 -31l-123 -339q-5 -12 -18 -12h-473l-173 477l-1 1h-160
q-19 0 -33.5 -14.5t-14.5 -33.5t14.5 -33.5t33.5 -14.5h94l146 -402l-41 -112q-6 -16 -6 -39q0 -47 33.5 -81t80.5 -34l553 -1l9 1q17 3 28 16.5t11 30.5q0 20 -14.5 34t-33.5 14h-553q-5 0 -7 1q-18 7 -11 24l25 70h494q36 0 65.5 21t41.5 55l123 338q3 7 3 16q0 20 -14 34
t-33 14zM501 1077q-13 13 -14 32.5t12 32.5l183 183q13 13 34 13t34 -13l183 -183q12 -13 11 -32.5t-14 -32.5t-33.5 -13t-33.5 13l-99 110v-279q0 -20 -14 -34t-34 -14t-34 14t-14 34v280l-99 -111q-13 -13 -34 -13t-34 13z" />
    <glyph glyph-name="uniE096" unicode="&#xe096;" 
d="M478 392q-44 0 -74.5 -31t-30.5 -74t30.5 -74t74.5 -31t74.5 31t30.5 74t-30.5 74t-74.5 31zM956 392q-44 0 -74.5 -31t-30.5 -74t30.5 -74t74.5 -31t74.5 31t30.5 74t-30.5 74t-74.5 31zM1137 1147h-1q-34 0 -45 -31l-123 -339q-5 -12 -18 -12h-473l-173 477l-1 1h-160
q-19 0 -33.5 -14.5t-14.5 -33.5t14.5 -33.5t33.5 -14.5h94l146 -402l-41 -112q-6 -16 -6 -39q0 -47 33.5 -81t80.5 -34l553 -1l9 1q17 3 28 16.5t11 30.5q0 20 -14.5 34t-33.5 14h-553q-5 0 -7 1q-18 7 -11 24l25 70h494q36 0 65.5 21t41.5 55l123 338q3 7 3 16q0 20 -14 34
t-33 14zM581 1299q-14 14 -33.5 14t-33.5 -14t-14 -33.5t14 -33.5l144 -136l-144 -135q-14 -14 -14 -33.5t14 -33.5t33.5 -14t33.5 14l135 145l135 -145q14 -14 34 -14t34 14t14 33.5t-14 33.5l-145 135l145 136q14 14 14 33.5t-14 33.5t-34 14t-34 -14l-135 -144z" />
    <glyph glyph-name="uniE097" unicode="&#xe097;" 
d="M478 392q-44 0 -74.5 -31t-30.5 -74t30.5 -74t74.5 -31t74.5 31t30.5 74t-30.5 74t-74.5 31zM956 392q-44 0 -74.5 -31t-30.5 -74t30.5 -74t74.5 -31t74.5 31t30.5 74t-30.5 74t-74.5 31zM1137 1147h-1q-34 0 -45 -31l-123 -339q-5 -12 -18 -12h-473l-173 477l-1 1h-160
q-19 0 -33.5 -14.5t-14.5 -33.5t14.5 -33.5t33.5 -14.5h94l146 -402l-41 -112q-6 -16 -6 -39q0 -47 33.5 -81t80.5 -34l553 -1l9 1q17 3 28 16.5t11 30.5q0 20 -14.5 34t-33.5 14h-553q-5 0 -7 1q-18 7 -11 24l25 70h494q36 0 65.5 21t41.5 55l123 338q3 7 3 16q0 20 -14 34
t-33 14zM908 1147h-383q-19 0 -33 -14t-14 -34t14 -34t33 -14h383q19 0 33 14t14 34t-14 34t-33 14z" />
    <glyph glyph-name="uniE098" unicode="&#xe098;" 
d="M478 392q-44 0 -74.5 -31t-30.5 -74t30.5 -74t74.5 -31t74.5 31t30.5 74t-30.5 74t-74.5 31zM956 392q-44 0 -74.5 -31t-30.5 -74t30.5 -74t74.5 -31t74.5 31t30.5 74t-30.5 74t-74.5 31zM1137 1147h-1q-34 0 -45 -31l-123 -339q-5 -12 -18 -12h-473l-173 477l-1 1h-160
q-19 0 -33.5 -14.5t-14.5 -33.5t14.5 -33.5t33.5 -14.5h94l146 -402l-41 -112q-6 -16 -6 -39q0 -47 33.5 -81t80.5 -34l553 -1l9 1q17 3 28 16.5t11 30.5q0 20 -14.5 34t-33.5 14h-553q-5 0 -7 1q-18 7 -11 24l25 70h494q36 0 65.5 21t41.5 55l123 338q3 7 3 16q0 20 -14 34
t-33 14zM716 1338q-19 0 -33 -14t-14 -34v-143h-144q-19 0 -33 -14t-14 -34t14 -34t33 -14h144v-143q0 -20 14 -34t33 -14q20 0 34 14t14 34v143h144q19 0 33 14t14 34t-14 34t-33 14h-144v143q0 20 -14 34t-34 14z" />
    <glyph glyph-name="uniE099" unicode="&#xe099;" 
d="M478 392q-44 0 -74.5 -31t-30.5 -74t30.5 -74t74.5 -31t74.5 31t30.5 74t-30.5 74t-74.5 31zM956 392q-44 0 -74.5 -31t-30.5 -74t30.5 -74t74.5 -31t74.5 31t30.5 74t-30.5 74t-74.5 31zM304 1243h-161q-19 0 -33.5 -14.5t-14.5 -33.5l1 -9q3 -17 16.5 -28t30.5 -11h94
l35 -96h796l-100 -274q-5 -12 -17 -12h-561l-48 -132q-6 -16 -6 -39q0 -47 33.5 -81t80.5 -34l553 -1l9 1q17 3 28 16.5t11 30.5q0 20 -14.5 34t-33.5 14h-553q-5 0 -7 1q-18 7 -11 24l25 70h494q36 0 65.5 21t41.5 55l123 338q3 7 3 16q0 20 -14 34t-33 14h-799zM296 765
h-248q-20 0 -34 -14.5t-14 -33.5l1 -9q3 -17 16.5 -28t30.5 -11h214zM366 956h-318q-20 0 -34 -14t-14 -34l1 -8q3 -17 16.5 -28.5t30.5 -11.5h283z" />
    <glyph glyph-name="uniE09A" unicode="&#xe09a;" 
d="M478 392q-44 0 -74.5 -31t-30.5 -74t30.5 -74t74.5 -31t74.5 31t30.5 74t-30.5 74t-74.5 31zM956 392q-44 0 -74.5 -31t-30.5 -74t30.5 -74t74.5 -31t74.5 31t30.5 74t-30.5 74t-74.5 31zM304 1242l-1 1h-160q-19 0 -33.5 -14.5t-14.5 -33.5t14.5 -33.5t33.5 -14.5h94
l146 -402l-41 -112q-6 -16 -6 -39q0 -47 33.5 -81t80.5 -34l553 -1l9 1q17 3 28 16.5t11 30.5q0 20 -14.5 34t-33.5 14h-553q-5 0 -7 1q-18 7 -11 24l25 70h494q36 0 65.5 21t41.5 55l123 338q3 7 3 16q0 20 -14 34t-33 14h-799zM1068 1051l-100 -274q-5 -12 -18 -12h-473
l-104 286h695z" />
    <glyph glyph-name="uniE09B" unicode="&#xe09b;" 
d="M1099 1242h-765q-99 0 -169 -69.5t-70 -168.5v-383q0 -99 70 -169t169 -70h247l375 -286v286h143q99 0 169 70t70 169v383q0 99 -70 168.5t-169 69.5zM1099 1147l14 -1q55 -5 92 -45.5t37 -96.5v-383v-14q-5 -55 -46 -92t-97 -37h-239v-189l-247 189h-279l-13 1
q-55 5 -92.5 45.5t-37.5 96.5v383l1 13q5 55 45.5 92.5t96.5 37.5h765zM961 998q14 -14 14 -33q0 -20 -14 -34l-317 -318q-8 -8 -21 -8q-12 0 -20 8l-149 149q-14 14 -14 34q0 19 14 33v1q13 13 34 13t34 -13l101 -102l271 270q14 14 33 14q20 0 34 -14z" />
    <glyph glyph-name="uniE09C" unicode="&#xe09c;" 
d="M1099 1242h-765q-99 0 -169 -69.5t-70 -168.5v-383q0 -99 70 -169t169 -70h247l375 -286v286h143q99 0 169 70t70 169v383q0 99 -70 168.5t-169 69.5zM1099 1147l14 -1q55 -5 92 -45.5t37 -96.5v-383v-14q-5 -55 -46 -92t-97 -37h-239v-189l-247 189h-279l-13 1
q-55 5 -92.5 45.5t-37.5 96.5v383l1 13q5 55 45.5 92.5t96.5 37.5h765zM581 1013q-14 14 -33.5 14t-33.5 -14t-14 -33.5t14 -33.5l144 -135l-144 -135q-14 -14 -14 -34t14 -34t33.5 -14t33.5 14l136 145l135 -145q14 -14 33.5 -14t33.5 14t14 34t-14 34l-145 135l145 135
q14 14 14 33.5t-14 33.5t-33.5 14t-33.5 -14l-135 -144z" />
    <glyph glyph-name="uniE09D" unicode="&#xe09d;" 
d="M1099 1242h-765q-99 0 -169 -69.5t-70 -168.5v-383q0 -99 70 -169t169 -70h247l375 -286v286h143q99 0 169 70t70 169v383q0 99 -70 168.5t-169 69.5zM1099 1147l14 -1q55 -5 92 -45.5t37 -96.5v-383v-14q-5 -55 -46 -92t-97 -37h-239v-189l-247 189h-279l-13 1
q-55 5 -92.5 45.5t-37.5 96.5v383l1 13q5 55 45.5 92.5t96.5 37.5h765zM908 860h-382q-20 0 -34 -14t-14 -34q0 -19 14 -33t34 -14h382q20 0 34 14t14 33q0 20 -14 34t-34 14z" />
    <glyph glyph-name="uniE09E" unicode="&#xe09e;" 
d="M1099 1242h-765q-99 0 -169 -69.5t-70 -168.5v-383q0 -99 70 -169t169 -70h247l375 -286v286h143q99 0 169 70t70 169v383q0 99 -70 168.5t-169 69.5zM1099 1147l14 -1q55 -5 92 -45.5t37 -96.5v-383v-14q-5 -55 -46 -92t-97 -37h-239v-189l-247 189h-279l-13 1
q-55 5 -92.5 45.5t-37.5 96.5v383l1 13q5 55 45.5 92.5t96.5 37.5h765zM717 1051q-20 0 -34 -14t-14 -33v-144h-143q-20 0 -34 -14t-14 -34q0 -19 14 -33t34 -14h143v-144q0 -19 14.5 -33.5t33.5 -14.5t33.5 14.5t14.5 33.5v144h143q20 0 34 14t14 33q0 20 -14 34t-34 14
h-143v144q0 19 -14 33t-34 14z" />
    <glyph glyph-name="uniE09F" unicode="&#xe09f;" 
d="M1099 1242h-765q-99 0 -169 -69.5t-70 -168.5v-383q0 -99 70 -169t169 -70h247l375 -286v286h143q99 0 169 70t70 169v383q0 99 -70 168.5t-169 69.5zM1099 1147l14 -1q55 -5 92 -45.5t37 -96.5v-383v-14q-5 -55 -46 -92t-97 -37h-239v-189l-247 189h-279l-13 1
q-55 5 -92.5 45.5t-37.5 96.5v383l1 13q5 55 45.5 92.5t96.5 37.5h765z" />
    <glyph glyph-name="uniE0A0" unicode="&#xe0a0;" 
d="M1195 1242h-956q-20 0 -34 -14t-14 -33v-956q0 -19 14.5 -33.5t33.5 -14.5h956q19 0 33 14t14 34v956q0 19 -14 33t-33 14zM287 1147h860v-860h-860v860z" />
    <glyph glyph-name="uniE0A1" unicode="&#xe0a1;" 
d="M1195 1242h-956q-20 0 -34 -14t-14 -33v-956q0 -19 14.5 -33.5t33.5 -14.5h956q19 0 33 14t14 34v956q0 19 -14 33t-33 14zM287 1147h860v-860h-860v860zM928 993l-277 -471l-136 206q-13 15 -33 17t-35 -11t-17 -32.5t11 -34.5l178 -241q16 -20 39 -18q25 2 38 21
l311 510q11 16 7.5 36t-19.5 31q-17 11 -36.5 7.5t-30.5 -20.5z" />
    <glyph glyph-name="uniE0A2" unicode="&#xe0a2;" 
d="M1150 768q14 -14 14 -34t-14 -34l-399 -399q-14 -14 -34 -14t-34 14l-399 399q-14 14 -14 34t14 34t33.5 14t33.5 -14l366 -366l366 366q14 14 33.5 14t33.5 -14zM1150 1150q14 -14 14.5 -33.5t-13.5 -33.5l-400 -400q-14 -14 -34 -14t-34 14l-399 400q-14 14 -14 33.5
t14 33.5t33.5 14t33.5 -14l366 -366l366 366q14 14 33.5 14t33.5 -14z" />
    <glyph glyph-name="uniE0A3" unicode="&#xe0a3;" 
d="M768 1150q-14 14 -34 14t-34 -14l-399 -400q-14 -14 -14 -33.5t14 -33.5l399 -400q14 -14 34 -14t34 14t14 34t-14 34l-366 366l366 366q14 14 14 33.5t-14 33.5zM1150 1150q-14 14 -33.5 14t-33.5 -14l-400 -400q-14 -14 -14 -33.5t14 -33.5l400 -400q14 -14 33.5 -14
t33.5 14t14 34t-14 34l-366 366l366 366q14 14 14 33.5t-14 33.5z" />
    <glyph glyph-name="uniE0A4" unicode="&#xe0a4;" 
d="M666 1150q14 14 33.5 14t33.5 -14l400 -400q14 -14 14 -33.5t-14 -33.5l-400 -400q-14 -14 -33.5 -14t-33.5 14t-14 34t14 34l366 366l-366 366q-14 14 -14 33.5t14 33.5zM284 1150q14 14 33.5 14t33.5 -14l400 -400q14 -14 14 -33.5t-14 -33.5l-400 -400
q-14 -14 -33.5 -14t-33.5 14t-14 34t14 34l365 366l-365 366q-14 14 -14 33.5t14 33.5z" />
    <glyph glyph-name="uniE0A5" unicode="&#xe0a5;" 
d="M1150 666q14 14 14 33.5t-14 33.5l-399 400q-14 14 -34 14t-34 -14l-399 -400q-14 -14 -14 -33.5t14 -33.5t33.5 -14t33.5 14l366 365l366 -365q14 -14 33.5 -14t33.5 14zM1150 283q14 14 14.5 34t-13.5 34l-400 400q-14 14 -34 14t-34 -14l-399 -400q-14 -14 -14 -34
t14 -34t33.5 -14t33.5 14l366 366l366 -366q14 -14 33.5 -14t33.5 14z" />
    <glyph glyph-name="uniE0A6" unicode="&#xe0a6;" 
d="M1150 768q14 -14 14 -34t-14 -34l-399 -399q-14 -14 -34 -14t-34 14l-399 399q-14 14 -14 34t14 34t33.5 14t33.5 -14l366 -366l366 366q14 14 33.5 14t33.5 -14zM1150 1150q14 -14 14.5 -33.5t-13.5 -33.5l-400 -400q-14 -14 -34 -14t-34 14l-399 400q-14 14 -14 33.5
t14 33.5t33.5 14t33.5 -14l366 -366l366 366q14 14 33.5 14t33.5 -14z" />
    <glyph glyph-name="uniE0A7" unicode="&#xe0a7;" 
d="M768 1150q-14 14 -34 14t-34 -14l-399 -400q-14 -14 -14 -33.5t14 -33.5l399 -400q14 -14 34 -14t34 14t14 34t-14 34l-366 366l366 366q14 14 14 33.5t-14 33.5zM1150 1150q-14 14 -33.5 14t-33.5 -14l-400 -400q-14 -14 -14 -33.5t14 -33.5l400 -400q14 -14 33.5 -14
t33.5 14t14 34t-14 34l-366 366l366 366q14 14 14 33.5t-14 33.5z" />
    <glyph glyph-name="uniE0A8" unicode="&#xe0a8;" 
d="M475 1150q14 14 33.5 14t33.5 -14l400 -400q14 -14 14 -33.5t-14 -33.5l-400 -400q-14 -14 -33.5 -14t-33.5 14t-14 34t14 34l366 366l-366 366q-14 14 -14 33.5t14 33.5z" />
    <glyph glyph-name="uniE0A9" unicode="&#xe0a9;" 
d="M1150 474q14 14 14 34t-14 34l-399 400q-14 14 -34 14t-34 -14l-399 -400q-14 -14 -14 -34t14 -34t33.5 -14t33.5 14l366 366l366 -366q14 -14 33.5 -14t33.5 14z" />
    <glyph glyph-name="uniE0AA" unicode="&#xe0aa;" 
d="M908 1242h-382q-20 0 -34 -14t-14 -33v-48h-143q-19 0 -33.5 -14.5t-14.5 -33.5v-860q0 -19 14.5 -33.5t33.5 -14.5h764q19 0 33.5 14.5t14.5 33.5v860q0 19 -14.5 33.5t-33.5 14.5h-143v48q0 19 -14 33t-34 14zM956 1004v47h95v-764h-669v764h96v-47q0 -20 14 -34
t34 -14h382q20 0 34 14t14 34zM573 1147h287v-96h-287v96z" />
    <glyph glyph-name="uniE0AB" unicode="&#xe0ab;" 
d="M716 765q-20 0 -34 -14.5t-14 -33.5v-471l-99 111l-7 5q-13 8 -31 7t-29 -12q-13 -13 -14 -32.5t11 -32.5l183 -183l7 -6q13 -8 31.5 -6.5t29.5 12.5l183 183l6 7q8 14 5 30.5t-14 27.5q-13 13 -33.5 13t-33.5 -13l-99 -111v471l-1 8q-3 17 -16.5 28.5t-30.5 11.5z
M765 1252q-133 0 -238 -81t-140 -206h-14q-119 0 -203 -84t-84 -202v-10q0 -119 84 -203t203 -84h9v96h-9h-15q-74 5 -125 60t-51 131v10v14q5 74 60 125.5t131 51.5h9l77 -2l20 72l5 16q30 89 107.5 144.5t173.5 55.5q122 0 208.5 -85.5t87.5 -206.5l1 -77l75 -16l13 -3
q45 -14 73.5 -51.5t28.5 -85.5v-10l-1 -14q-5 -55 -45.5 -92t-96.5 -37h-58v-96h58q99 0 169 70t70 169v10q0 86 -54.5 151.5t-137.5 82.5q-2 161 -116 274t-275 113z" />
    <glyph glyph-name="uniE0AC" unicode="&#xe0ac;" 
d="M750 752q-13 13 -34 13t-34 -13l-183 -184q-12 -13 -11 -32.5t14 -32.5t33.5 -13t33.5 13l99 111v-471q0 -19 14 -33t34 -14t34 14t14 33v471l99 -111q13 -13 34 -13t34 13t14 32.5t-12 32.5zM765 1252q-133 0 -238 -81t-140 -206h-14q-119 0 -203 -84t-84 -202v-10
q0 -119 84 -203t203 -84h9v96h-9h-14q-74 5 -125.5 60t-51.5 131v10v14q5 74 60 125.5t131 51.5h9l77 -2l20 72l5 16q30 89 107.5 144.5t173.5 55.5q122 0 208.5 -85.5t87.5 -206.5l1 -77l75 -16l13 -3q45 -14 73.5 -51.5t28.5 -85.5v-10l-1 -14q-5 -55 -45.5 -92t-96.5 -37
h-58v-96h58q99 0 169 70t70 169v10q0 86 -54.5 151.5t-137.5 82.5q-2 161 -116 274t-275 113z" />
    <glyph glyph-name="uniE0AD" unicode="&#xe0ad;" 
d="M765 1252q-133 0 -238 -81t-140 -206h-14q-119 0 -203 -84t-84 -202v-10q0 -119 84 -203t203 -84h392v96h-392h-15q-74 5 -125 60t-51 131v10v14q5 74 60 125.5t131 51.5h9l77 -2l20 72l5 16q30 89 107.5 144.5t173.5 55.5q122 0 208.5 -85.5t87.5 -206.5l1 -77l75 -16
l13 -3q35 -10 61 -37t36 -62h98q-12 73 -64 127t-125 69q-2 161 -116 274t-275 113zM964 536q-14 14 -33.5 14t-33.5 -14t-14 -34t14 -34l144 -135l-144 -135q-14 -14 -14 -34t14 -34t33.5 -14t33.5 14l135 145l135 -145q14 -14 34 -14t34 14t14 34t-14 34l-145 135l145 135
q14 14 14 34t-14 34t-34 14t-34 -14l-135 -145z" />
    <glyph glyph-name="uniE0AE" unicode="&#xe0ae;" 
d="M1386 382h-382q-20 0 -34 -14t-14 -34q0 -19 14 -33t34 -14h382q20 0 34 14t14 33q0 20 -14 34t-34 14zM765 1252q-133 0 -238 -81t-140 -206h-14q-119 0 -203 -84t-84 -202v-10q0 -119 84 -203t203 -84h487v96h-487h-15q-74 5 -125 60t-51 131v10v14q5 74 60 125.5
t131 51.5h9l77 -2l20 72l5 16q30 89 107.5 144.5t173.5 55.5q122 0 208.5 -85.5t87.5 -206.5l1 -77l75 -16l13 -3q45 -14 73.5 -51.5t28.5 -85.5v-10l-1 -14q-2 -19 -7 -34h99q5 25 5 48v10q0 86 -54.5 151.5t-137.5 82.5q-2 161 -116 274t-275 113z" />
    <glyph glyph-name="uniE0AF" unicode="&#xe0af;" 
d="M177 1257q-14 14 -33.5 14t-33.5 -14t-14 -33.5t14 -33.5l226 -227q-106 -14 -178 -94.5t-72 -189.5v-10q0 -119 84 -203t203 -84h544l223 -223q14 -14 33.5 -14t33.5 14t14 34t-14 34zM765 1252q-90 0 -169.5 -38.5t-134.5 -106.5l68 -68q42 55 104 86t132 31
q122 0 208.5 -85.5t87.5 -206.5l1 -77l75 -16l13 -3q45 -14 73.5 -51.5t28.5 -85.5v-10l-1 -14q-5 -55 -45.5 -92t-96.5 -37h-19l86 -86q75 22 123.5 85t48.5 144v10q0 86 -54.5 151.5t-137.5 82.5q-2 161 -116 274t-275 113zM430 869l391 -391h-448h-15q-74 5 -125 60
t-51 131v10v14q5 74 60 125.5t131 51.5h9z" />
    <glyph glyph-name="uniE0B0" unicode="&#xe0b0;" 
d="M1195 573q-20 0 -34 -14t-14 -33v-144h-143q-20 0 -34 -14t-14 -34q0 -19 14 -33t34 -14h143v-144q0 -19 14 -33t34 -14q19 0 33 14t14 33v144h144q20 0 34 14t14 33q0 20 -14 34t-34 14h-144v144q0 20 -14 33.5t-33 13.5zM765 1252q-133 0 -238 -81t-140 -206h-14
q-119 0 -203 -84t-84 -202v-10q0 -119 84 -203t203 -84h487v96h-487h-15q-74 5 -125 60t-51 131v10v14q5 74 60 125.5t131 51.5h9l77 -2l20 72l5 16q30 89 107.5 144.5t173.5 55.5q122 0 208.5 -85.5t87.5 -206.5l1 -77l75 -16l13 -3q35 -10 61 -37t36 -62h98
q-12 73 -64 127t-125 69q-2 161 -116 274t-275 113z" />
    <glyph glyph-name="uniE0B1" unicode="&#xe0b1;" 
d="M717 287q-19 0 -33.5 -14.5t-14.5 -33.5t14.5 -33.5t33.5 -14.5t33.5 14.5t14.5 33.5t-14.5 33.5t-33.5 14.5zM526 287q-20 0 -34 -14.5t-14 -33.5t14 -33.5t34 -14.5q19 0 33 14t14 34t-14 34t-33 14zM908 287q-20 0 -34 -14.5t-14 -33.5t14 -33.5t34 -14.5t34 14.5
t14 33.5t-14 33.5t-34 14.5zM765 1252q-133 0 -238 -81t-140 -206h-14q-119 0 -203 -84t-84 -202v-10q0 -119 84 -203t203 -84h736q99 0 169 70t70 169v10q0 86 -54.5 151.5t-137.5 82.5q-2 161 -116 274t-275 113zM765 1157q121 0 207.5 -85.5t88.5 -207.5l1 -77l75 -15
l13 -4q45 -14 73.5 -51.5t28.5 -85.5v-10l-1 -13q-5 -55 -45.5 -92.5t-96.5 -37.5h-736h-14q-74 5 -125.5 60t-51.5 131v10v14q5 74 60 125.5t131 51.5h9l77 -2l20 72l5 16q30 89 108 145t173 56z" />
    <glyph glyph-name="uniE0B2" unicode="&#xe0b2;" 
d="M908 430q-20 0 -34 -14t-14 -34q0 -114 78 -196.5t192 -89.5h17v-115l225 162l-225 163v-115q-79 0 -135 55.5t-56 135.5q0 20 -14 34t-34 14zM1147 784l-225 -163l225 -162v115q79 0 135 -56t56 -136q0 -19 14 -33t34 -14t34 14t14 33q0 118 -84 202.5t-203 84.5v115z
M765 1252h-1q-133 0 -237.5 -81t-139.5 -206h-14q-119 0 -203 -84t-84 -202v-10q0 -119 84 -203t203 -84h391v96h-391h-15q-74 5 -125.5 60t-51.5 131v10l1 14q5 74 60 125.5t131 51.5h9l77 -2l20 72l5 16q30 89 107.5 145t172.5 56q122 0 209 -86t88 -207v-4h95v5
q-2 161 -116 274t-275 113z" />
    <glyph glyph-name="uniE0B3" unicode="&#xe0b3;" 
d="M765 1252q-133 0 -238 -81t-140 -206h-14q-119 0 -203 -84t-84 -202v-10q0 -119 84 -203t203 -84h736q99 0 169 70t70 169v10q0 86 -54.5 151.5t-137.5 82.5q-2 161 -116 274t-275 113zM765 1157q121 0 207.5 -85.5t88.5 -207.5l1 -77l75 -15l13 -4q45 -14 73.5 -51.5
t28.5 -85.5v-10l-1 -13q-5 -55 -45.5 -92.5t-96.5 -37.5h-736h-15q-74 5 -125 60t-51 131v10v14q5 74 60 125.5t131 51.5h9l77 -2l20 72l5 16q30 89 108 145t173 56z" />
    <glyph glyph-name="uniE0B4" unicode="&#xe0b4;" 
d="M0 1147h191v-860h-191v860zM287 1147h95v-860h-95v860zM478 1147h95v-860h-95v860zM669 1147h287v-860h-287v860zM1051 1147h96v-860h-96v860zM1242 1147h192v-860h-192v860z" />
    <glyph glyph-name="uniE0B5" unicode="&#xe0b5;" 
d="M765 765v573h573v-573h-573zM96 96v573h573v-573h-573zM191 191h382v382h-382v-382zM325 325v115h115v-115h-115zM765 96v191h95v-96h96v-95h-191zM956 191v191h191v-95h-96v-96h-95zM765 382v287h191v-96h-96v-95h96v-96h-191zM96 765v573h573v-573h-573zM1147 96v95h95
v96h96v-191h-191zM191 860h382v382h-382v-382zM325 994v115h115v-115h-115zM1147 382v191h-96v-95h-95v95h95v96h287v-96h-96v-95h96v-96h-191zM860 860h382v382h-382v-382zM994 994v115h115v-115h-115z" />
    <glyph glyph-name="uniE0B6" unicode="&#xe0b6;" 
d="M1051 1242v96h287v-765h-287v96h191v573h-191zM478 1338h478v-765h-478v765zM478 239q0 19 14 33.5t34 14.5h143v143q0 20 14.5 34t33.5 14t33.5 -14t14.5 -34v-143h143q20 0 34 -14.5t14 -33.5t-14 -33.5t-34 -14.5h-143v-143q0 -20 -14.5 -34t-33.5 -14t-33.5 14
t-14.5 34v143h-143q-20 0 -34 14.5t-14 33.5zM573 669h287v573h-287v-573zM96 573v765h286v-96h-191v-573h191v-96h-286z" />
    <glyph glyph-name="uniE0B7" unicode="&#xe0b7;" 
d="M573 573v765h-477v-765h477zM191 1242h287v-573h-287v573zM920 374q14 14 14 34t-14 34t-34 14t-34 -14l-135 -145l-135 145q-14 14 -34 14t-34 -14t-14 -34t14 -34l145 -135l-145 -135q-14 -14 -14 -34t14 -34t34 -14t34 14l135 146l135 -146q14 -14 34 -14t34 14t14 34
t-14 34l-145 135zM765 573v96h-96v-96h96zM765 1242v96h-96v-96h96zM1338 573v765h-478v-765h478zM956 1242h286v-573h-286v573z" />
    <glyph glyph-name="uniE0B8" unicode="&#xe0b8;" 
d="M908 287h-382q-20 0 -34 -14.5t-14 -33.5t14 -33.5t34 -14.5h382q20 0 34 14.5t14 33.5t-14 33.5t-34 14.5zM573 1338h-477v-765h477v765zM765 669h-96v-96h96v96zM1338 1338h-478v-765h478v765zM191 1242h287v-573h-287v573zM956 1242h286v-573h-286v573zM765 1338h-96
v-96h96v96z" />
    <glyph glyph-name="uniE0B9" unicode="&#xe0b9;" 
d="M1099 1338q-99 0 -169 -70t-70 -169v-143h-287v143q0 99 -69.5 169t-168.5 70t-169 -70t-70 -169t70 -169t169 -70h143v-287h-143q-99 0 -169 -69.5t-70 -168.5t70 -169t169 -70t168.5 70t69.5 169v143h287v-143q0 -99 70 -169t169 -70t169 70t70 169t-70 168.5
t-169 69.5h-143v287h143q99 0 169 70t70 169t-70 169t-169 70zM478 478v-144l-1 -13q-5 -55 -45.5 -92.5t-96.5 -37.5q-59 0 -101.5 42t-42.5 101t42.5 101.5t101.5 42.5h143zM1099 478l14 -1q55 -5 92 -46t37 -97q0 -59 -42 -101t-101 -42t-101 42t-42 101v144h143z
M860 860v-287h-287v287h287zM334 1242h14q55 -5 92.5 -46t37.5 -97v-143h-144h-13q-55 5 -92.5 46t-37.5 97q0 59 42 101t101 42zM1099 1242q59 0 101 -42t42 -101v-14q-5 -55 -46 -92t-97 -37h-143v143v14q5 55 46 92t97 37z" />
    <glyph glyph-name="uniE0BA" unicode="&#xe0ba;" 
d="M1195 956h-669q-20 0 -34 -14t-14 -34v-669q0 -19 14 -33.5t34 -14.5h669q19 0 33 14t14 34v669q0 20 -14 34t-33 14zM573 860h574v-573h-574v573zM191 430q0 -20 14.5 -34t33.5 -14h143v96h-95v669h669v-96h95v144q0 19 -13.5 33t-33.5 14h-765q-20 0 -34 -14t-14 -33
v-765z" />
    <glyph glyph-name="uniE0BB" unicode="&#xe0bb;" 
d="M1059 440q-14 14 -33.5 14t-33.5 -14t-14 -34t14 -34l144 -135l-144 -135q-14 -14 -14 -33.5t14 -33.5t33.5 -14t33.5 14l135 145l136 -145q14 -14 33.5 -14t33.5 14t14 33.5t-14 33.5l-145 135l145 135q14 14 14 34t-14 34t-33.5 14t-33.5 -14l-136 -145zM1290 1147
h-1147q-19 0 -33 -14t-14 -34v-765q0 -20 14 -33.5t33 -13.5h717v95h-669v383h1051v-192h96v526q0 19 -14 33.5t-34 14.5zM287 573h382v-95h-382v95zM956 669h191v-96h-191v96zM191 1051h1051v-95h-1051v95z" />
    <glyph glyph-name="uniE0BC" unicode="&#xe0bc;" 
d="M1386 287h-382q-20 0 -34 -14.5t-14 -33.5t14 -33.5t34 -14.5h382q20 0 34 14.5t14 33.5t-14 33.5t-34 14.5zM1290 1147h-1147q-19 0 -33 -14t-14 -34v-765q0 -20 14 -33.5t33 -13.5h717v95h-669v383h1051v-287h96v621q0 19 -14 33.5t-34 14.5zM287 573h382v-95h-382v95z
M956 669h191v-191h-191v191zM191 1051h1051v-95h-1051v95z" />
    <glyph glyph-name="uniE0BD" unicode="&#xe0bd;" 
d="M177 1324q-14 14 -33.5 14t-33.5 -14t-14 -33.5t14 -33.5l109 -110h-76q-19 0 -33 -14t-14 -34v-764q0 -20 14 -34t33 -14h936l175 -175q14 -14 34 -14t34 14t14 34t-14 34zM488 1147l95 -95h659v-96h-563l191 -191h372v-372l87 -87q9 12 9 29v764q0 19 -14 33.5
t-34 14.5h-802zM601 765l382 -383h-792v383h410zM287 574h382v-96h-382v96zM966 669l181 -181v181h-181zM315 1051l95 -95h-219v95h124z" />
    <glyph glyph-name="uniE0BE" unicode="&#xe0be;" 
d="M1195 478q-19 0 -33.5 -14t-14.5 -34v-143h-143q-20 0 -34 -14.5t-14 -33.5t14 -33.5t34 -14.5h143v-143q0 -20 14.5 -34t33.5 -14t33 14t14 34v143h144q20 0 34 14.5t14 33.5t-14 33.5t-34 14.5h-144v143q0 20 -14 34t-33 14zM1290 1147h-1147q-19 0 -33 -14t-14 -34
v-765q0 -20 14 -33.5t33 -13.5h717v95h-669v383h1051v-192h96v526q0 19 -14 33.5t-34 14.5zM287 573h382v-95h-382v95zM956 669h191v-96h-191v96zM191 1051h1051v-95h-1051v95z" />
    <glyph glyph-name="uniE0BF" unicode="&#xe0bf;" 
d="M1290 1147h-1147q-19 0 -33 -14t-14 -34v-765q0 -20 14 -33.5t33 -13.5h1147q20 0 34 14t14 33v765q0 19 -14 33.5t-34 14.5zM191 765h1051v-383h-1051v383zM287 573h382v-95h-382v95zM956 669h191v-191h-191v191zM191 1051h1051v-95h-1051v95z" />
    <glyph glyph-name="uniE0C0" unicode="&#xe0c0;" 
d="M717 1348q-128 0 -245 -50t-201.5 -134.5t-134.5 -201.5t-50 -245t50 -245t134.5 -201.5t201.5 -134.5t245 -50t245 50t201.5 134.5t134.5 201.5t50 245t-50 245t-134.5 201.5t-201.5 134.5t-245 50zM717 1252q146 0 269 -71.5t194.5 -194.5t71.5 -269t-71.5 -269
t-194.5 -194.5t-269 -71.5t-269 71.5t-194.5 194.5t-71.5 269t71.5 269t194.5 194.5t269 71.5zM946 961q-10 11 -26 11t-27 -11l-176 -177l-169 169q-14 14 -34 14t-34 -14t-14 -33.5t14 -33.5l169 -169l-179 -180q-10 -10 -10 -23t10 -23l21 -21q10 -10 23 -10t23 10
l180 179l179 -179q10 -10 23.5 -10t23.5 10l21 21q10 10 10 23t-10 23l-180 180l169 169q14 14 14 33.5t-14 33.5z" />
    <glyph glyph-name="uniE0C1" unicode="&#xe0c1;" 
d="M1055 1055q-14 14 -38 9.5t-44 -24.5l-256 -256l-256 256q-20 20 -44 24.5t-38 -9.5t-10 -38t24 -44l256 -256l-256 -256q-20 -20 -24 -44t10 -38t38 -10t44 24l256 256l256 -256q20 -20 44 -24t38 10t9.5 38t-24.5 44l-256 256l256 256q20 20 24.5 44t-9.5 38z" />
    <glyph glyph-name="uniE0C2" unicode="&#xe0c2;" 
d="M717 1434q-19 0 -33.5 -14t-14.5 -34v-136q-193 -17 -330.5 -155t-154.5 -331h-136h-9q-17 -3 -28 -16.5t-11 -30.5q0 -19 14 -33.5t34 -14.5h136q17 -193 154.5 -330.5t330.5 -154.5v-136l1 -9q3 -17 16.5 -28t30.5 -11q19 0 33.5 14t14.5 34v136q193 17 330.5 154.5
t154.5 330.5h136q20 0 34 14.5t14 33.5t-14 33.5t-34 14.5h-136q-17 193 -154.5 330.5t-330.5 154.5v136q0 20 -14.5 34t-33.5 14zM717 1156q182 0 310.5 -128.5t128.5 -310.5t-128.5 -311t-310.5 -129t-311 129t-129 311t129 310.5t311 128.5zM717 870q-63 0 -108 -45
t-45 -108t45 -108t108 -45t108 45t45 108t-45 108t-108 45z" />
    <glyph glyph-name="uniE0C3" unicode="&#xe0c3;" 
d="M717 1434q-19 0 -33.5 -14t-14.5 -34v-136q-193 -17 -330.5 -155t-154.5 -331h-136h-9q-17 -3 -28 -16.5t-11 -30.5q0 -19 14 -33.5t34 -14.5h136q17 -193 154.5 -330.5t330.5 -154.5v-136l1 -9q3 -17 16.5 -28t30.5 -11q19 0 33.5 14t14.5 34v136q193 17 330.5 154.5
t154.5 330.5h136q20 0 34 14.5t14 33.5t-14 33.5t-34 14.5h-136q-17 193 -154.5 330.5t-330.5 154.5v136q0 20 -14.5 34t-33.5 14zM717 1156q182 0 310.5 -128.5t128.5 -310.5t-128.5 -311t-310.5 -129t-311 129t-129 311t129 310.5t311 128.5z" />
    <glyph glyph-name="uniE0C4" unicode="&#xe0c4;" 
d="M1290 573h-478q-20 0 -33.5 -13.5t-13.5 -33.5v-287q0 -20 14 -34t33 -14h478q20 0 34 14.5t14 33.5v287q0 19 -14 33t-34 14zM621 765h-478q-19 0 -33 -14t-14 -34v-478q0 -20 14 -34t33 -14h478q19 0 33.5 14.5t14.5 33.5v478q0 19 -14.5 33.5t-33.5 14.5zM860 478h382
v-191h-382v191zM191 669h382v-382h-382v382zM1290 1242h-478q-20 0 -33.5 -14t-13.5 -33v-478q0 -20 14 -34t33 -14h478q20 0 34 14.5t14 33.5v478q0 19 -14 33t-34 14zM860 1147h382v-382h-382v382zM621 1242h-478q-19 0 -33 -14t-14 -33v-287q0 -20 14 -34t33 -14h478
q19 0 33.5 14t14.5 34v287q0 19 -14 33t-34 14zM191 1147h383v-191h-383v191z" />
    </font>
</defs>
</svg>
