<?xml version="1.0" encoding="utf-8"?>
<svg width="15px" height="15px" viewBox="0 0 15 15" version="1.1" xmlns:xlink="http://www.w3.org/1999/xlink" xmlns="http://www.w3.org/2000/svg">
  <defs>
    <rect width="15" height="15" id="artboard_1" />
    <clipPath id="clip_1">
      <use xlink:href="#artboard_1" clip-rule="evenodd" />
    </clipPath>
  </defs>
  <g id="icon--account-check" clip-path="url(#clip_1)">
    <use xlink:href="#artboard_1" stroke="none" fill="#FFFFFF" />
    <path d="M7.5 2C8.88071 2 10 3.11929 10 4.5L10 6C10 7.38071 8.88071 8.5 7.5 8.5C6.11929 8.5 5 7.38071 5 6L5 4.5C5 3.11929 6.11929 2 7.5 2L7.5 2ZM7.5 3C6.7203 3 6.07955 3.59489 6.00687 4.35554L6 4.5L6 6C6 6.82843 6.67157 7.5 7.5 7.5C8.2797 7.5 8.92045 6.90511 8.99313 6.14446L9 6L9 4.5C9 3.67157 8.32843 3 7.5 3L7.5 3ZM8.86697 8.99708L10.4943 9.58746C10.2917 9.65983 10.1016 9.77713 9.93934 9.93934L9.83637 10.0533C9.76194 10.1445 9.69987 10.2425 9.65014 10.3449L8.52523 9.93688C7.93654 9.72281 7.29757 9.69902 6.69771 9.86552L6.47477 9.93688L3.65826 10.9611C3.30259 11.0904 3.05393 11.4076 3.00776 11.7762L3 11.9009L3 12.9993L2 13L2 11.9009C2 11.0598 2.52614 10.3087 3.31651 10.0213L6.13303 8.99708C7.01606 8.67598 7.98394 8.67598 8.86697 8.99708L8.86697 8.99708ZM13.6562 9.35285L13.6576 9.35426C13.755 9.4517 13.8037 9.56932 13.8037 9.70711C13.8037 9.84491 13.755 9.96252 13.6576 10.06L10.3327 13.3848C10.2744 13.4432 10.2039 13.4723 10.1213 13.4723C10.0388 13.4723 9.96828 13.4432 9.9099 13.3848L8.35285 11.8277C8.25541 11.7303 8.2067 11.6127 8.2067 11.4749C8.2067 11.3371 8.25541 11.2195 8.35285 11.122L8.35426 11.1206C8.4517 11.0232 8.56932 10.9745 8.70711 10.9745C8.84491 10.9745 8.96252 11.0232 9.05996 11.1206L10.1213 12.182L12.9505 9.35285C13.0479 9.25541 13.1655 9.2067 13.3033 9.2067C13.4411 9.2067 13.5587 9.25541 13.6562 9.35285L13.6562 9.35285Z" id="Vector" fill="#000000" fill-rule="evenodd" stroke="none" artboard="f1ec6783-d95b-4e9d-9b02-5a4fbc24799b" />
  </g>
</svg>