<?xml version="1.0" encoding="utf-8"?>
<svg width="15px" height="15px" viewBox="0 0 15 15" version="1.1" xmlns:xlink="http://www.w3.org/1999/xlink" xmlns="http://www.w3.org/2000/svg">
  <defs>
    <rect width="15" height="15" id="artboard_1" />
    <clipPath id="clip_1">
      <use xlink:href="#artboard_1" clip-rule="evenodd" />
    </clipPath>
  </defs>
  <g id="icon--account-cross" clip-path="url(#clip_1)">
    <path d="M11.0836 10.3964L12.4978 11.91L13.912 10.3964C14.1072 10.2012 14.4238 10.2012 14.6191 10.3964C14.8143 10.5917 14.8143 10.9083 14.6191 11.1036L13.1 12.5178L14.6191 13.932C14.8143 14.1272 14.8143 14.4438 14.6191 14.6391C14.4238 14.8343 14.1072 14.8343 13.912 14.6391L12.4978 13.12L11.0836 14.6391C10.8883 14.8343 10.5717 14.8343 10.3764 14.6391C10.1812 14.4438 10.1812 14.1272 10.3764 13.932L11.89 12.5178L10.3764 11.1036C10.1812 10.9083 10.1812 10.5917 10.3764 10.3964C10.5717 10.2012 10.8883 10.2012 11.0836 10.3964ZM8.86697 8.99708L10.4943 9.58746C10.2917 9.65983 10.1016 9.77713 9.93934 9.93934L9.83637 10.0533C9.76194 10.1445 9.69987 10.2425 9.65014 10.3449L8.52523 9.93688C7.93654 9.72281 7.29757 9.69902 6.69771 9.86552L6.47477 9.93688L3.65826 10.9611C3.30259 11.0904 3.05393 11.4076 3.00776 11.7762L3 11.9009L3 12.9993L2 13L2 11.9009C2 11.0598 2.52614 10.3087 3.31651 10.0213L6.13303 8.99708C7.01606 8.67598 7.98394 8.67598 8.86697 8.99708ZM7.5 2C8.88071 2 10 3.11929 10 4.5L10 6C10 7.38071 8.88071 8.5 7.5 8.5C6.11929 8.5 5 7.38071 5 6L5 4.5C5 3.11929 6.11929 2 7.5 2ZM7.5 3C6.7203 3 6.07955 3.59489 6.00687 4.35554L6 4.5L6 6C6 6.82843 6.67157 7.5 7.5 7.5C8.2797 7.5 8.92045 6.90511 8.99313 6.14446L9 6L9 4.5C9 3.67157 8.32843 3 7.5 3Z" id="Shape" fill="#000000" fill-rule="evenodd" stroke="none" artboard="2604e54d-1d86-4f25-af9e-1eeae35f0bd7" />
  </g>
</svg>