<?xml version="1.0" encoding="utf-8"?>
<svg width="15px" height="15px" viewBox="0 0 15 15" version="1.1" xmlns:xlink="http://www.w3.org/1999/xlink" xmlns="http://www.w3.org/2000/svg">
  <defs>
    <rect width="15" height="15" id="artboard_1" />
    <clipPath id="clip_1">
      <use xlink:href="#artboard_1" clip-rule="evenodd" />
    </clipPath>
  </defs>
  <g id="icon--alert" clip-path="url(#clip_1)">
    <path d="M7.74986 0.567464C7.82598 0.611378 7.88918 0.674578 7.93309 0.750695L14.5674 12.2501C14.7054 12.4893 14.6233 12.7951 14.3842 12.9331C14.3082 12.9769 14.222 13 14.1343 13L0.865705 13C0.589563 13 0.365705 12.7761 0.365705 12.5C0.365705 12.4123 0.38878 12.3261 0.432613 12.2501L7.06691 0.750695C7.2049 0.511505 7.51067 0.429469 7.74986 0.567464ZM7.5 2.00101L1.73 12L13.269 12L7.5 2.00101ZM7.5 9.89999C7.83137 9.89999 8.1 10.1686 8.1 10.5C8.1 10.8314 7.83137 11.1 7.5 11.1C7.16863 11.1 6.9 10.8314 6.9 10.5C6.9 10.1686 7.16863 9.89999 7.5 9.89999ZM8.18294 5.29851C8.13457 6.145 8 8.5 8 8.5C8 8.77614 7.77614 9 7.5 9C7.22386 9 7 8.77614 7 8.5L6.81706 5.29851C6.80764 5.13365 6.87167 4.88119 7.03191 4.8413L7.96809 4.8413C8.12833 4.88119 8.19236 5.13365 8.18294 5.29851Z" id="Shape" fill="#000000" fill-rule="evenodd" stroke="none" artboard="0d2078a7-7047-47d4-bae9-89aae8649b0a" />
  </g>
</svg>