<?xml version="1.0" encoding="utf-8"?>
<svg width="15px" height="15px" viewBox="0 0 15 15" version="1.1" xmlns:xlink="http://www.w3.org/1999/xlink" xmlns="http://www.w3.org/2000/svg">
  <defs>
    <rect width="15" height="15" id="artboard_1" />
    <clipPath id="clip_1">
      <use xlink:href="#artboard_1" clip-rule="evenodd" />
    </clipPath>
  </defs>
  <g id="icon--arrow-circled-up" clip-path="url(#clip_1)">
    <path d="M7.5 0.899994C11.1451 0.899994 14.1 3.85491 14.1 7.49999C14.1 11.1451 11.1451 14.1 7.5 14.1C3.85492 14.1 0.9 11.1451 0.9 7.49999C0.9 3.85491 3.85492 0.899994 7.5 0.899994ZM7.5 1.89999C4.40721 1.89999 1.9 4.4072 1.9 7.49999C1.9 10.5928 4.40721 13.1 7.5 13.1C10.5928 13.1 13.1 10.5928 13.1 7.49999C13.1 4.4072 10.5928 1.89999 7.5 1.89999Z" id="Combined-Shape" fill="#000000" fill-rule="evenodd" stroke="none" artboard="b6ba334e-c02e-42fd-8106-9173bc62b2c1" />
    <path d="M10.24 7.23C10.059 7.41102 9.72102 7.41102 9.54 7.23L8.001 5.574L8 10.5C8 10.7761 7.77614 11 7.5 11C7.22386 11 7 10.7761 7 10.5L7 5.577L5.47 7.23C5.28898 7.41102 4.94102 7.41102 4.76 7.23C4.57898 7.04897 4.54898 6.73102 4.73 6.55L7.14807 4.13577C7.32909 3.95474 7.67416 3.95474 7.85518 4.13577L10.27 6.55C10.451 6.73102 10.421 7.04898 10.24 7.23Z" id="Path" fill="#000000" fill-rule="evenodd" stroke="none" artboard="773fd108-76ef-44f8-9ac8-cec884cc71c9" />
  </g>
</svg>