<?xml version="1.0" encoding="utf-8"?>
<svg width="15px" height="15px" viewBox="0 0 15 15" version="1.1" xmlns:xlink="http://www.w3.org/1999/xlink" xmlns="http://www.w3.org/2000/svg">
  <defs>
    <rect width="15" height="15" id="artboard_1" />
    <clipPath id="clip_1">
      <use xlink:href="#artboard_1" clip-rule="evenodd" />
    </clipPath>
  </defs>
  <g id="icon--arrow-circled-left" clip-path="url(#clip_1)">
    <path d="M7.5 0.899994C11.1451 0.899994 14.1 3.85491 14.1 7.49999C14.1 11.1451 11.1451 14.1 7.5 14.1C3.85492 14.1 0.900002 11.1451 0.900002 7.49999C0.900002 3.85491 3.85492 0.899994 7.5 0.899994ZM7.5 1.89999C4.40721 1.89999 1.9 4.4072 1.9 7.49999C1.9 10.5928 4.40721 13.1 7.5 13.1C10.5928 13.1 13.1 10.5928 13.1 7.49999C13.1 4.4072 10.5928 1.89999 7.5 1.89999Z" id="Shape" fill="#000000" fill-rule="evenodd" stroke="none" artboard="97c8e896-c288-4dea-814e-d3865994f745" />
    <path d="M7.23 4.76C7.41102 4.94102 7.41102 5.27898 7.23 5.46L5.574 6.999L10.5 7C10.7761 7 11 7.22386 11 7.5C11 7.77614 10.7761 8 10.5 8L5.577 8L7.23 9.53C7.41102 9.71103 7.41102 10.059 7.23 10.24C7.04898 10.421 6.73102 10.451 6.55 10.27L4.13577 7.85193C3.95474 7.67091 3.95474 7.32585 4.13577 7.14482L6.55 4.73C6.73102 4.54898 7.04898 4.57898 7.23 4.76Z" id="Path" fill="#000000" fill-rule="evenodd" stroke="none" artboard="9b62f009-0cbf-47a9-a58c-b2fbfdb09cbd" />
  </g>
</svg>