<?xml version="1.0" encoding="utf-8"?>
<svg width="15px" height="15px" viewBox="0 0 15 15" version="1.1" xmlns:xlink="http://www.w3.org/1999/xlink" xmlns="http://www.w3.org/2000/svg">
  <defs>
    <rect width="15" height="15" id="artboard_1" />
    <clipPath id="clip_1">
      <use xlink:href="#artboard_1" clip-rule="evenodd" />
    </clipPath>
  </defs>
  <g id="icon--arrow-circled-right" clip-path="url(#clip_1)">
    <path d="M7.5 0.899994C11.1451 0.899994 14.1 3.85491 14.1 7.49999C14.1 11.1451 11.1451 14.1 7.5 14.1C3.85492 14.1 0.900002 11.1451 0.900002 7.49999C0.900002 3.85491 3.85492 0.899994 7.5 0.899994ZM7.5 1.89999C4.40721 1.89999 1.9 4.4072 1.9 7.49999C1.9 10.5928 4.40721 13.1 7.5 13.1C10.5928 13.1 13.1 10.5928 13.1 7.49999C13.1 4.4072 10.5928 1.89999 7.5 1.89999Z" id="Shape" fill="#000000" fill-rule="evenodd" stroke="none" artboard="6e7aeaa2-ce83-4f9b-9d22-4b9945993d76" />
    <path d="M7.77 4.76C7.58898 4.94102 7.58898 5.27898 7.77 5.46L9.426 6.999L4.5 7C4.22386 7 4 7.22386 4 7.5C4 7.77614 4.22386 8 4.5 8L9.423 8L7.77 9.53C7.58898 9.71103 7.58898 10.059 7.77 10.24C7.95102 10.421 8.26898 10.451 8.45 10.27L10.8642 7.85193C11.0453 7.67091 11.0453 7.32585 10.8642 7.14482L8.45 4.73C8.26898 4.54898 7.95102 4.57898 7.77 4.76Z" id="Path" fill="#000000" fill-rule="evenodd" stroke="none" artboard="9d754007-135a-4121-9866-9d4762249faf" />
  </g>
</svg>