<?xml version="1.0" encoding="utf-8"?>
<svg width="15px" height="15px" viewBox="0 0 15 15" version="1.1" xmlns:xlink="http://www.w3.org/1999/xlink" xmlns="http://www.w3.org/2000/svg">
  <defs>
    <rect width="15" height="15" id="artboard_1" />
    <clipPath id="clip_1">
      <use xlink:href="#artboard_1" clip-rule="evenodd" />
    </clipPath>
  </defs>
  <g id="icon--atom" clip-path="url(#clip_1)">
    <path d="M7.5 0C8.5219 0 9.42447 1.27736 9.96616 3.22825C11.9267 2.72204 13.4842 2.86501 13.9952 3.75C14.5062 4.63503 13.8511 6.05542 12.4324 7.50005C13.8511 8.94458 14.5062 10.365 13.9952 11.25C13.4842 12.135 11.9267 12.278 9.96636 11.7716C9.42447 13.7226 8.5219 15 7.5 15C6.4781 15 5.57553 13.7226 5.03384 11.7718C3.07327 12.278 1.51576 12.135 1.00481 11.25C0.493838 10.365 1.14885 8.94458 2.56763 7.49995C1.14885 6.05542 0.493838 4.63503 1.00481 3.75C1.51576 2.86501 3.07327 2.72204 5.03364 3.22837C5.57553 1.27736 6.4781 0 7.5 0ZM7.50045 10.8762L7.40783 10.9182C7.2767 10.9777 7.14614 11.035 7.0163 11.09L6.53305 11.2857C6.28555 11.3812 6.04139 11.4682 5.80162 11.5465C6.24088 13.1647 6.90024 14.2 7.5 14.2C8.09975 14.2 8.75912 13.1647 9.19809 11.5464C8.9586 11.4682 8.71445 11.3812 8.46695 11.2857L7.98369 11.09C7.82362 11.0221 7.66245 10.9509 7.50045 10.8762ZM11.8532 8.05249L11.6879 8.1988C11.5507 8.31818 11.4086 8.43715 11.262 8.55544L10.8509 8.87609C10.7121 8.98077 10.5699 9.08468 10.4243 9.18761C10.4073 9.36617 10.3884 9.54135 10.3672 9.71388L10.295 10.2302C10.254 10.4922 10.2073 10.7471 10.1553 10.9938C11.7763 11.4228 13.0025 11.3694 13.3024 10.85C13.6023 10.3306 13.0353 9.24187 11.8532 8.05249ZM3.14631 8.05237L3.00859 8.19399C1.92093 9.32763 1.40968 10.3513 1.69763 10.85C1.99749 11.3694 3.22366 11.4228 4.84457 10.9938C4.79266 10.7471 4.74595 10.4923 4.70498 10.2303L4.63284 9.71389C4.61155 9.54136 4.59268 9.36618 4.57634 9.18859C4.42998 9.08458 4.28781 8.98073 4.14914 8.8761L3.73802 8.55545C3.53149 8.38886 3.33404 8.22089 3.14631 8.05237ZM9.55114 9.76605L9.39473 9.86382C9.26508 9.94291 9.13347 10.021 9 10.0981C8.81199 10.2066 8.62401 10.3109 8.43644 10.4109C8.76039 10.5424 9.07658 10.6599 9.38295 10.7622C9.44821 10.4453 9.50459 10.1125 9.55114 9.76605ZM5.44782 9.7667L5.48145 9.9958C5.52096 10.2601 5.5662 10.5159 5.61643 10.762C5.92288 10.6601 6.23933 10.5425 6.56266 10.4096C6.37571 10.3108 6.18786 10.2066 6 10.0981C5.81215 9.98964 5.62801 9.87907 5.44782 9.7667ZM7.49932 5.01038L7.44358 5.03824C7.09879 5.20729 6.74984 5.39276 6.4 5.59474C6.03125 5.80764 5.67889 6.02884 5.34473 6.255C5.31542 6.65759 5.3 7.07376 5.3 7.5C5.3 7.92623 5.31542 8.3424 5.34425 8.74526C5.67889 8.97115 6.03125 9.19236 6.4 9.40525C6.7689 9.61824 7.1368 9.81286 7.49989 9.98924C7.86266 9.81314 8.23083 9.61839 8.6 9.40525C8.96874 9.19236 9.3211 8.97115 9.65526 8.745C9.68457 8.3424 9.7 7.92623 9.7 7.5C9.7 7.07376 9.68457 6.65759 9.65574 6.25473C9.3211 6.02884 8.96874 5.80764 8.6 5.59474C8.23083 5.3816 7.86266 5.18685 7.49932 5.01038ZM7.5 6.29999C8.16274 6.29999 8.7 6.83725 8.7 7.49999C8.7 8.16273 8.16274 8.69999 7.5 8.69999C6.83725 8.69999 6.3 8.16273 6.3 7.49999C6.3 6.83725 6.83725 6.29999 7.5 6.29999ZM4.51093 6.85522L4.49029 6.87345C4.22172 7.08141 3.96903 7.29092 3.73351 7.49957C3.97565 7.71496 4.23593 7.93038 4.51295 8.14408C4.50369 7.93227 4.5 7.71722 4.5 7.50001C4.5 7.2828 4.50369 7.06775 4.51093 6.85522ZM10.488 6.85669L10.4945 7.04101L10.5 7.5L10.5 7.5C10.5 7.71721 10.4963 7.93226 10.4891 8.14479C10.7646 7.92993 11.0245 7.71483 11.2663 7.50064C11.0245 7.28517 10.7646 7.07008 10.488 6.85669ZM1.69763 4.15C1.39774 4.66942 1.96468 5.75813 3.14679 6.94751C3.33404 6.77912 3.53149 6.61116 3.73802 6.44456L4.14914 6.12391C4.28781 6.01929 4.42998 5.91543 4.5755 5.81255C4.59268 5.63383 4.61155 5.45865 4.63284 5.28612L4.70498 4.76976C4.74595 4.50776 4.79266 4.25293 4.8447 4.00623C3.22366 3.57722 1.99749 3.63062 1.69763 4.15ZM10.3467 3.95734L10.1553 4.00625C10.2073 4.25294 10.254 4.50777 10.295 4.76977L10.3672 5.28614C10.3884 5.45866 10.4073 5.63384 10.4237 5.81143C10.5699 5.91533 10.7121 6.01924 10.8509 6.12392L11.262 6.44458C11.4685 6.61117 11.666 6.77913 11.8537 6.94765C13.0353 5.75815 13.6023 4.66943 13.3024 4.15001C13.0288 3.6762 11.9844 3.59019 10.5726 3.9044L10.3467 3.95734ZM9.38356 4.23802L9.19813 4.301C8.94994 4.38771 8.69584 4.48418 8.43733 4.59044C8.62401 4.68909 8.81199 4.79337 9 4.90191C9.18784 5.01036 9.37198 5.12093 9.55217 5.2333C9.50459 4.88752 9.44821 4.5547 9.38356 4.23802ZM5.61628 4.2376L5.61191 4.26028C5.54914 4.57029 5.49431 4.89563 5.44885 5.23396C5.62801 5.12092 5.81215 5.01036 6 4.90191C6.18787 4.79344 6.37571 4.68924 6.56315 4.58936C6.23933 4.45752 5.92288 4.33994 5.61628 4.2376ZM7.5 0.799988C6.90024 0.799988 6.24088 1.83527 5.8019 3.45362C6.04139 3.53174 6.28554 3.61875 6.53305 3.7143L7.0163 3.91002C7.17638 3.97785 7.33755 4.04912 7.49954 4.12377C7.66245 4.04912 7.82362 3.97785 7.98369 3.91002L8.46695 3.7143C8.71445 3.61875 8.9586 3.53174 9.19838 3.45344C8.75912 1.83527 8.09975 0.799988 7.5 0.799988Z" id="Shape" fill="#000000" fill-rule="evenodd" stroke="none" artboard="7b935a3c-b7e8-4226-b2f3-396604d6a027" />
  </g>
</svg>