<?xml version="1.0" encoding="utf-8"?>
<svg width="15px" height="15px" viewBox="0 0 15 15" version="1.1" xmlns:xlink="http://www.w3.org/1999/xlink" xmlns="http://www.w3.org/2000/svg">
  <defs>
    <rect width="15" height="15" id="artboard_1" />
    <clipPath id="clip_1">
      <use xlink:href="#artboard_1" clip-rule="evenodd" />
    </clipPath>
  </defs>
  <g id="icon--attachement-minus" clip-path="url(#clip_1)">
    <path d="M7.2033 2.8751C8.57014 1.50827 10.7862 1.50827 12.153 2.8751C13.4711 4.19312 13.5181 6.30081 12.2943 7.67523L12.153 7.82485L6.84975 13.1281C6.10981 13.8681 4.93432 13.907 4.14853 13.245L4.02132 13.1281L3.31421 12.421C2.57427 11.6811 2.53533 10.5056 3.19738 9.71983L3.31421 9.59262L7.91041 4.99642C8.49619 4.41064 9.44594 4.41064 10.0317 4.99642C10.5809 5.5456 10.6152 6.41466 10.1347 7.00382L10.0317 7.11774L6.49619 10.6533C6.30093 10.8485 5.98435 10.8485 5.78909 10.6533C5.61552 10.4797 5.59624 10.2103 5.73123 10.0154L5.78909 9.94617L9.32462 6.41064C9.51988 6.21537 9.51988 5.89879 9.32462 5.70353C9.15105 5.52996 8.88163 5.51068 8.68676 5.64567L8.61751 5.70353L4.02132 10.2997C3.66084 10.6602 3.63311 11.2274 3.93813 11.6197L4.02132 11.7139L4.72843 12.421C5.08891 12.7815 5.65614 12.8093 6.04843 12.5042L6.14264 12.421L11.4459 7.11774C12.4223 6.14143 12.4223 4.55852 11.4459 3.58221C10.5121 2.64835 9.02322 2.60774 8.04109 3.4604L7.91041 3.58221L2.25355 9.23906C2.05829 9.43433 1.74171 9.43433 1.54645 9.23906C1.37288 9.0655 1.35359 8.79607 1.48859 8.6012L1.54645 8.53196L7.2033 2.8751ZM14.5 11C14.7761 11 15 11.2239 15 11.5C15 11.7761 14.7761 12 14.5 12L10.5 12C10.2239 12 10 11.7761 10 11.5C10 11.2239 10.2239 11 10.5 11L14.5 11Z" id="Shape" fill="#000000" fill-rule="evenodd" stroke="none" artboard="be99eaba-fcd5-4280-91bc-6c41d8beeb8e" />
  </g>
</svg>