<?xml version="1.0" encoding="utf-8"?>
<svg width="15px" height="15px" viewBox="0 0 15 15" version="1.1" xmlns:xlink="http://www.w3.org/1999/xlink" xmlns="http://www.w3.org/2000/svg">
  <defs>
    <rect width="15" height="15" id="artboard_1" />
    <clipPath id="clip_1">
      <use xlink:href="#artboard_1" clip-rule="evenodd" />
    </clipPath>
  </defs>
  <g id="icon--attachement-off" clip-path="url(#clip_1)">
    <path d="M3.95355 3.24642L11.7317 11.0246C11.927 11.2199 11.927 11.5364 11.7317 11.7317C11.5365 11.927 11.2199 11.927 11.0246 11.7317L9.635 10.342L6.84975 13.1281C6.10981 13.8681 4.93432 13.907 4.14853 13.245L4.02132 13.1281L3.31421 12.421C2.57427 11.6811 2.53533 10.5056 3.19738 9.71983L3.31421 9.59262L6.1 6.80698L5.393 6.09998L2.25355 9.23906C2.07999 9.41263 1.81056 9.43191 1.61569 9.29692L1.54645 9.23906C1.37288 9.0655 1.35359 8.79607 1.48859 8.6012L1.54645 8.53196L4.685 5.39198L3.24645 3.95353C3.05118 3.75827 3.05118 3.44168 3.24645 3.24642C3.44171 3.05116 3.75829 3.05116 3.95355 3.24642ZM6.807 7.51398L4.02132 10.2997C3.66084 10.6602 3.63311 11.2274 3.93813 11.6197L4.02132 11.7139L4.72843 12.421C5.08891 12.7815 5.65614 12.8093 6.04843 12.5042L6.14264 12.421L8.928 9.63498L8.221 8.92798L6.49619 10.6533C6.32263 10.8268 6.0532 10.8461 5.85833 10.7111L5.78909 10.6533C5.61552 10.4797 5.59623 10.2103 5.73123 10.0154L5.78909 9.94617L7.514 8.22098L6.807 7.51398ZM12.153 2.8751C13.4711 4.19312 13.5181 6.30081 12.2943 7.67523L12.153 7.82485L11.042 8.93498L10.335 8.22798L11.4459 7.11774C12.3798 6.18388 12.4204 4.69502 11.5677 3.71289L11.4459 3.58221C10.5121 2.64835 9.02322 2.60774 8.04109 3.4604L7.91041 3.58221L6.8 4.69298L6.092 3.98498L7.2033 2.8751C8.57014 1.50827 10.7862 1.50827 12.153 2.8751ZM10.0317 4.99641C10.5809 5.54558 10.6152 6.41464 10.1347 7.00381L10.0317 7.11773L9.628 7.52096L8.921 6.81396L9.32462 6.41062C9.49819 6.23705 9.51747 5.96763 9.38248 5.77276L9.32462 5.70351C9.15105 5.52995 8.88163 5.51066 8.68676 5.64566L8.61751 5.70351L8.214 6.10696L7.507 5.39996L7.91041 4.99641C8.49619 4.41062 9.44594 4.41062 10.0317 4.99641Z" id="Shape" fill="#000000" fill-rule="evenodd" stroke="none" artboard="af1ebf77-19e3-4a56-b7dc-2f595ee404e8" />
  </g>
</svg>