<?xml version="1.0" encoding="utf-8"?>
<svg width="15px" height="15px" viewBox="0 0 15 15" version="1.1" xmlns:xlink="http://www.w3.org/1999/xlink" xmlns="http://www.w3.org/2000/svg">
  <defs>
    <rect width="15" height="15" id="artboard_1" />
    <clipPath id="clip_1">
      <use xlink:href="#artboard_1" clip-rule="evenodd" />
    </clipPath>
  </defs>
  <g id="icon--attachement" clip-path="url(#clip_1)">
    <path d="M4.02132 10.2997L8.61752 5.70353C8.81278 5.50827 9.12936 5.50827 9.32462 5.70353C9.51989 5.89879 9.51989 6.21537 9.32462 6.41064L5.78909 9.94617C5.59383 10.1414 5.59383 10.458 5.78909 10.6533C5.98435 10.8485 6.30093 10.8485 6.4962 10.6533L10.0317 7.11774C10.6175 6.53196 10.6175 5.58221 10.0317 4.99642C9.44594 4.41064 8.49619 4.41064 7.91041 4.99642L3.31422 9.59262C2.53317 10.3737 2.53317 11.64 3.31422 12.421L4.02132 13.1281C4.80237 13.9092 6.0687 13.9092 6.84975 13.1281L12.153 7.82485C13.5199 6.45801 13.5199 4.24194 12.153 2.8751C10.7862 1.50827 8.57014 1.50827 7.2033 2.8751L1.54645 8.53196C1.35119 8.72722 1.35119 9.0438 1.54645 9.23906C1.74171 9.43433 2.05829 9.43433 2.25355 9.23906L7.91041 3.58221C8.88672 2.6059 10.4696 2.6059 11.4459 3.58221C12.4223 4.55852 12.4223 6.14143 11.4459 7.11774L6.14264 12.421C5.75212 12.8116 5.11895 12.8116 4.72843 12.421L4.02132 11.7139C3.6308 11.3234 3.6308 10.6902 4.02132 10.2997Z" id="Path" fill="#000000" fill-rule="evenodd" stroke="none" artboard="1ab3e556-881c-4a25-b936-0215add160a0" />
  </g>
</svg>