<?xml version="1.0" encoding="utf-8"?>
<svg width="15px" height="15px" viewBox="0 0 15 15" version="1.1" xmlns:xlink="http://www.w3.org/1999/xlink" xmlns="http://www.w3.org/2000/svg">
  <defs>
    <rect width="15" height="15" id="artboard_1" />
    <clipPath id="clip_1">
      <use xlink:href="#artboard_1" clip-rule="evenodd" />
    </clipPath>
  </defs>
  <g id="icon--attachement-cross" clip-path="url(#clip_1)">
    <path d="M10.088 9.39645L11.5022 10.91L12.9164 9.39645C13.1117 9.20118 13.4283 9.20118 13.6236 9.39645C13.8188 9.59171 13.8188 9.90829 13.6236 10.1036L12.1045 11.5178L13.6236 12.932C13.8188 13.1272 13.8188 13.4438 13.6236 13.6391C13.4283 13.8343 13.1117 13.8343 12.9164 13.6391L11.5022 12.12L10.088 13.6391C9.89276 13.8343 9.57618 13.8343 9.38091 13.6391C9.18565 13.4438 9.18565 13.1272 9.38091 12.932L10.8945 11.5178L9.38091 10.1036C9.18565 9.90829 9.18565 9.59171 9.38091 9.39645C9.4677 9.30966 9.57844 9.26145 9.69185 9.25181L9.77708 9.25181C9.89049 9.26145 10.0012 9.30966 10.088 9.39645ZM10.0317 4.99641C10.5809 5.54558 10.6152 6.41465 10.1347 7.00381L10.0317 7.11773L6.49619 10.6533C6.30093 10.8485 5.98435 10.8485 5.78909 10.6533C5.61552 10.4797 5.59624 10.2103 5.73123 10.0154L5.78909 9.94616L9.32462 6.41062C9.51988 6.21536 9.51988 5.89878 9.32462 5.70351C9.15105 5.52995 8.88163 5.51066 8.68676 5.64566L8.61751 5.70351L4.02132 10.2997C3.66084 10.6602 3.63311 11.2274 3.93813 11.6197L4.02132 11.7139L4.72843 12.421C5.08891 12.7815 5.65614 12.8092 6.04843 12.5042L6.14264 12.421L8.31768 10.2437C8.38968 10.4508 8.50838 10.6452 8.67381 10.8106L8.929 11.048L6.84975 13.1281C6.10981 13.8681 4.93432 13.907 4.14854 13.245L4.02132 13.1281L3.31421 12.421C2.57427 11.6811 2.53533 10.5056 3.19738 9.71982L3.31421 9.5926L7.91041 4.99641C8.49619 4.41062 9.44594 4.41062 10.0317 4.99641ZM12.153 2.8751C13.4711 4.19312 13.5181 6.30081 12.2943 7.67523L12.153 7.82485L11.033 8.94398L10.7951 8.68932C10.63 8.52416 10.4359 8.40557 10.2292 8.33354L11.4459 7.11774C12.4223 6.14143 12.4223 4.55852 11.4459 3.58221C10.5121 2.64835 9.02322 2.60774 8.04109 3.4604L7.91041 3.58221L2.25355 9.23906C2.05829 9.43433 1.74171 9.43433 1.54645 9.23906C1.37288 9.0655 1.3536 8.79607 1.48859 8.6012L1.54645 8.53196L7.2033 2.8751C8.57014 1.50827 10.7862 1.50827 12.153 2.8751Z" id="Shape" fill="#000000" fill-rule="evenodd" stroke="none" artboard="9a092f96-6c42-477e-a602-94de5a3979a9" />
  </g>
</svg>