<?xml version="1.0" encoding="utf-8"?>
<svg width="15px" height="15px" viewBox="0 0 15 15" version="1.1" xmlns:xlink="http://www.w3.org/1999/xlink" xmlns="http://www.w3.org/2000/svg">
  <defs>
    <rect width="15" height="15" id="artboard_1" />
    <clipPath id="clip_1">
      <use xlink:href="#artboard_1" clip-rule="evenodd" />
    </clipPath>
  </defs>
  <g id="icon--backspace" clip-path="url(#clip_1)">
    <path d="M13 3.499L13 11.501Q13 11.5501 12.9904 11.5983Q12.9808 11.6466 12.962 11.692Q12.9432 11.7374 12.9159 11.7782Q12.8886 11.8191 12.8538 11.8538Q12.8191 11.8886 12.7782 11.9159Q12.7374 11.9432 12.692 11.962Q12.6466 11.9808 12.5983 11.9904Q12.5501 12 12.501 12L4.57684 12Q4.45887 12 4.35339 11.9472Q4.24791 11.8944 4.17725 11.7999L1.22099 7.84761Q1.17301 7.78347 1.14752 7.70753Q1.12203 7.63159 1.12158 7.55149Q1.12114 7.47139 1.14579 7.39518Q1.17044 7.31896 1.2177 7.25429L4.17743 3.20456Q4.2479 3.10814 4.35439 3.05407Q4.46088 3 4.58031 3L12.501 3Q12.5501 3 12.5983 3.00959Q12.6466 3.01918 12.692 3.03798Q12.7374 3.05679 12.7782 3.0841Q12.8191 3.1114 12.8538 3.14615Q12.8886 3.18091 12.9159 3.22177Q12.9432 3.26263 12.962 3.30804Q12.9808 3.35345 12.9904 3.40165Q13 3.44985 13 3.499ZM12 4L4.834 4L2.243 7.545L4.827 11L12 11L12 4ZM7.08355 5.39645L8.49777 6.91L9.91198 5.39645C10.1072 5.20118 10.4238 5.20118 10.6191 5.39645C10.8143 5.59171 10.8143 5.90829 10.6191 6.10355L9.1 7.51777L10.6191 8.93198C10.8143 9.12724 10.8143 9.44382 10.6191 9.63909C10.4238 9.83435 10.1072 9.83435 9.91198 9.63909L8.49777 8.12L7.08355 9.63909C6.88829 9.83435 6.57171 9.83435 6.37645 9.63909C6.18118 9.44382 6.18118 9.12724 6.37645 8.93198L7.89 7.51777L6.37645 6.10355C6.18118 5.90829 6.18118 5.59171 6.37645 5.39645C6.57171 5.20118 6.88829 5.20118 7.08355 5.39645Z" id="Shape" fill="#000000" stroke="none" artboard="c139d981-8908-465e-aa24-237c0bc61546" />
  </g>
</svg>