<?xml version="1.0" encoding="utf-8"?>
<svg width="15px" height="15px" viewBox="0 0 15 15" version="1.1" xmlns:xlink="http://www.w3.org/1999/xlink" xmlns="http://www.w3.org/2000/svg">
  <defs>
    <rect width="15" height="15" id="artboard_1" />
    <clipPath id="clip_1">
      <use xlink:href="#artboard_1" clip-rule="evenodd" />
    </clipPath>
  </defs>
  <g id="icon--batterie-bolt" clip-path="url(#clip_1)">
    <path d="M8.46587 1.85674C8.67211 1.96923 8.77222 2.21014 8.70645 2.43567L7.667 6L10.1577 6C10.4339 6 10.6577 6.22386 10.6577 6.5C10.6577 6.58366 10.6367 6.66599 10.5967 6.73943L7.2125 12.9437C7.08027 13.1862 6.77655 13.2755 6.53413 13.1433C6.32789 13.0308 6.22778 12.7899 6.29355 12.5643L7.333 9L4.84227 9C4.56613 9 4.34227 8.77615 4.34227 8.50001C4.34227 8.41635 4.36326 8.33402 4.40332 8.26058L7.7875 2.05626C7.91973 1.81384 8.22344 1.72451 8.46587 1.85674ZM5.588 3.99939L5.043 4.99939L3 4.99999L3 9.99999L5.999 9.99999L5.707 10.9994L2.5 11C2.22386 11 2 10.7761 2 10.5L2 4.49999C2 4.22385 2.22386 3.99999 2.5 3.99999L5.588 3.99939ZM9.292 3.99939L12.5 3.99999C12.7761 3.99999 13 4.22385 13 4.49999L13 4.99999L13.5 4.99999C13.7761 4.99999 14 5.22385 14 5.49999L14 9.49999C14 9.77613 13.7761 9.99999 13.5 9.99999L13 9.99999L13 10.5C13 10.7761 12.7761 11 12.5 11L9.411 10.9994L9.957 9.99939L12 9.99999L12 9.49999C12 9.22385 12.2239 8.99999 12.5 8.99999L13 8.99999L13 5.99999L12.5 5.99999C12.2239 5.99999 12 5.77613 12 5.49999L12 4.99999L9 4.99899L9.292 3.99939Z" id="Shape" fill="#000000" fill-rule="evenodd" stroke="none" artboard="f314128f-9b38-40d3-9d00-63dc0d0b621d" />
  </g>
</svg>