<?xml version="1.0" encoding="utf-8"?>
<svg width="15px" height="15px" viewBox="0 0 15 15" version="1.1" xmlns:xlink="http://www.w3.org/1999/xlink" xmlns="http://www.w3.org/2000/svg">
  <defs>
    <rect width="15" height="15" id="artboard_1" />
    <clipPath id="clip_1">
      <use xlink:href="#artboard_1" clip-rule="evenodd" />
    </clipPath>
  </defs>
  <g id="icon--batterie-none" clip-path="url(#clip_1)">
    <path d="M3.65355 2.64645L12.4317 11.4246C12.627 11.6199 12.627 11.9365 12.4317 12.1317C12.2365 12.327 11.9199 12.327 11.7246 12.1317L10.593 11L2.5 11C2.22386 11 2 10.7761 2 10.5L2 4.5C2 4.22386 2.22386 4 2.5 4L3.593 4L2.94645 3.35355C2.75118 3.15829 2.75118 2.84171 2.94645 2.64645C3.14171 2.45118 3.45829 2.45118 3.65355 2.64645ZM12.5 4C12.7761 4 13 4.22386 13 4.5L13 5L13.5 5C13.7761 5 14 5.22386 14 5.5L14 9.5C14 9.77614 13.7761 10 13.5 10L13 10L13 10.5L12.991 10.584L12 9.593L12 9.5C12 9.22386 12.2239 9 12.5 9L13 9L13 6L12.5 6C12.2239 6 12 5.77614 12 5.5L12 5L7.406 5L6.406 4L12.5 4ZM9.593 10L4.593 5L3 5L3 10L9.593 10Z" id="Shape" fill="#000000" fill-rule="evenodd" stroke="none" artboard="cc0c94c9-393e-445a-952a-65b1c1e70b3f" />
  </g>
</svg>