<?xml version="1.0" encoding="utf-8"?>
<svg width="15px" height="15px" viewBox="0 0 15 15" version="1.1" xmlns:xlink="http://www.w3.org/1999/xlink" xmlns="http://www.w3.org/2000/svg">
  <defs>
    <rect width="15" height="15" id="artboard_1" />
    <clipPath id="clip_1">
      <use xlink:href="#artboard_1" clip-rule="evenodd" />
    </clipPath>
  </defs>
  <g id="icon--batterie-half-bold" clip-path="url(#clip_1)">
    <path d="M12.5 4C12.7761 4 13 4.22386 13 4.5L13 5L13.5 5C13.7761 5 14 5.22386 14 5.5L14 9.5C14 9.77614 13.7761 10 13.5 10L13 10L13 10.5C13 10.7761 12.7761 11 12.5 11L2.5 11C2.22386 11 2 10.7761 2 10.5L2 4.5C2 4.22386 2.22386 4 2.5 4L12.5 4ZM12 5L3 5L3 10L12 10L12 9.5C12 9.22386 12.2239 9 12.5 9L13 9L13 6L12.5 6C12.2239 6 12 5.77614 12 5.5L12 5ZM7.5 6C7.77614 6 8 6.22386 8 6.5L8 8.5C8 8.77614 7.77614 9 7.5 9L4.5 9C4.22386 9 4 8.77614 4 8.5L4 6.5C4 6.22386 4.22386 6 4.5 6L7.5 6Z" id="Shape" fill="#000000" fill-rule="evenodd" stroke="none" artboard="44d15a6c-e31e-425b-a3e1-604d3b0c824e" />
  </g>
</svg>