<?xml version="1.0" encoding="utf-8"?>
<svg width="15px" height="15px" viewBox="0 0 15 15" version="1.1" xmlns:xlink="http://www.w3.org/1999/xlink" xmlns="http://www.w3.org/2000/svg">
  <defs>
    <rect width="15" height="15" id="artboard_1" />
    <clipPath id="clip_1">
      <use xlink:href="#artboard_1" clip-rule="evenodd" />
    </clipPath>
  </defs>
  <g id="icon--batterie-fuel" clip-path="url(#clip_1)">
    <path d="M12.5 4C12.7761 4 13 4.22386 13 4.5L13 5L13.5 5C13.7761 5 14 5.22386 14 5.5L14 9.5C14 9.77614 13.7761 10 13.5 10L13 10L13 10.5C13 10.7761 12.7761 11 12.5 11L2.5 11C2.22386 11 2 10.7761 2 10.5L2 4.5C2 4.22386 2.22386 4 2.5 4L12.5 4ZM12 5L3 5L3 10L12 10L12 9.5C12 9.22386 12.2239 9 12.5 9L13 9L13 6L12.5 6C12.2239 6 12 5.77614 12 5.5L12 5ZM4.5 6C4.77614 6 5 6.22386 5 6.5L5 8.5C5 8.77614 4.77614 9 4.5 9C4.22386 9 4 8.77614 4 8.5L4 6.5C4 6.22386 4.22386 6 4.5 6ZM6.5 6C6.77614 6 7 6.22386 7 6.5L7 8.5C7 8.77614 6.77614 9 6.5 9C6.22386 9 6 8.77614 6 8.5L6 6.5C6 6.22386 6.22386 6 6.5 6ZM8.5 6C8.77614 6 9 6.22386 9 6.5L9 8.5C9 8.77614 8.77614 9 8.5 9C8.22386 9 8 8.77614 8 8.5L8 6.5C8 6.22386 8.22386 6 8.5 6ZM10.5 6C10.7761 6 11 6.22386 11 6.5L11 8.5C11 8.77614 10.7761 9 10.5 9C10.2239 9 10 8.77614 10 8.5L10 6.5C10 6.22386 10.2239 6 10.5 6Z" id="Shape" fill="#000000" fill-rule="evenodd" stroke="none" artboard="2f48808c-e996-43da-b7a3-8669711485b6" />
  </g>
</svg>