<?xml version="1.0" encoding="utf-8"?>
<svg width="15px" height="15px" viewBox="0 0 15 15" version="1.1" xmlns:xlink="http://www.w3.org/1999/xlink" xmlns="http://www.w3.org/2000/svg">
  <defs>
    <rect width="15" height="15" id="artboard_1" />
    <clipPath id="clip_1">
      <use xlink:href="#artboard_1" clip-rule="evenodd" />
    </clipPath>
  </defs>
  <g id="icon--bombe" clip-path="url(#clip_1)">
    <path d="M11.7378 2.70904C11.7278 2.71588 11.7176 2.72263 11.7074 2.72928L10.5741 1.59602C10.5273 1.54923 10.4734 1.51318 10.4122 1.48785C10.3511 1.46253 10.2875 1.44987 10.2213 1.44987C10.1551 1.44987 10.0915 1.46253 10.0303 1.48785C9.9692 1.51318 9.91523 1.54923 9.86844 1.59602L8.49347 2.971C8.07818 2.85948 7.64157 2.80001 7.19107 2.80001L7.00893 2.80001C4.24257 2.80001 2 5.04258 2 7.80894L2 7.99108C2 10.7574 4.24257 13 7.00893 13L7.19107 13C9.95743 13 12.2 10.7574 12.2 7.99108L12.2 7.80894C12.2 7.35844 12.1405 6.92183 12.029 6.50654L13.404 5.13156C13.4508 5.08477 13.4868 5.0308 13.5121 4.96967C13.5375 4.90854 13.5501 4.84488 13.5501 4.77871C13.5501 4.71254 13.5375 4.64889 13.5121 4.58775C13.4868 4.52662 13.4508 4.47265 13.404 4.42586L12.4416 3.4635C13.1165 2.96555 13.4335 2.17704 13.3926 1.09796L12.3934 1.13584C12.4047 1.43469 12.3749 1.699 12.3039 1.92876C12.2013 2.26114 12.0126 2.52123 11.7378 2.70904L11.7378 2.70904ZM9.23135 3.36446L10.2213 2.37451L12.6255 4.77867L11.6355 5.76862L9.23135 3.36446L9.23135 3.36446ZM10.9706 6.47059L8.5294 4.02939C8.16673 3.90084 7.78007 3.82299 7.37794 3.80435L7.18913 3.79999L7.01087 3.79999C4.85902 3.79999 3.10296 5.49457 3.00437 7.62205L3 7.81086L3 7.98912C3 10.141 4.69458 11.897 6.82206 11.9956L7.01087 12L7.18913 12C9.34098 12 11.097 10.3054 11.1956 8.17793L11.2 7.98912L11.2 7.81086C11.2 7.34083 11.1192 6.88969 10.9706 6.47059L10.9706 6.47059Z" id="Vector" fill="#000000" fill-rule="evenodd" stroke="none" artboard="feae4ba7-b387-4694-a9ce-5b99ae879699" />
  </g>
</svg>