<?xml version="1.0" encoding="utf-8"?>
<svg width="15px" height="15px" viewBox="0 0 15 15" version="1.1" xmlns:xlink="http://www.w3.org/1999/xlink" xmlns="http://www.w3.org/2000/svg">
  <defs>
    <rect width="15" height="15" id="artboard_1" />
    <clipPath id="clip_1">
      <use xlink:href="#artboard_1" clip-rule="evenodd" />
    </clipPath>
  </defs>
  <g id="icon--bookmark-cross" clip-path="url(#clip_1)">
    <path d="M11.5 1C11.7761 1 12 1.22386 12 1.5L12 13.1994C12 13.4755 11.7761 13.6994 11.5 13.6994C11.424 13.6994 11.3489 13.682 11.2806 13.6487L7.49526 11.8L3.71979 13.6477C3.47176 13.7691 3.17229 13.6665 3.0509 13.4184C3.01741 13.35 3 13.2748 3 13.1986L3 1.5C3 1.22386 3.22386 1 3.5 1L11.5 1ZM11 2L4 2L4 12.396L7.27527 10.7942C7.41379 10.7265 7.57582 10.7265 7.71438 10.7941L11 12.399L11 2ZM6.08355 4.39645L7.49777 5.91L8.91198 4.39645C9.10724 4.20118 9.42383 4.20118 9.61909 4.39645C9.81435 4.59171 9.81435 4.90829 9.61909 5.10355L8.1 6.51777L9.61909 7.93198C9.81435 8.12724 9.81435 8.44382 9.61909 8.63909C9.42383 8.83435 9.10724 8.83435 8.91198 8.63909L7.49777 7.12L6.08355 8.63909C5.88829 8.83435 5.57171 8.83435 5.37645 8.63909C5.18118 8.44382 5.18118 8.12724 5.37645 7.93198L6.89 6.51777L5.37645 5.10355C5.18118 4.90829 5.18118 4.59171 5.37645 4.39645C5.57171 4.20118 5.88829 4.20118 6.08355 4.39645Z" id="Shape" fill="#000000" fill-rule="evenodd" stroke="none" artboard="9a2d4bcf-b83c-4e3e-9eeb-87eb3419b979" />
  </g>
</svg>