<?xml version="1.0" encoding="utf-8"?>
<svg width="15px" height="15px" viewBox="0 0 15 15" version="1.1" xmlns:xlink="http://www.w3.org/1999/xlink" xmlns="http://www.w3.org/2000/svg">
  <defs>
    <rect width="15" height="15" id="artboard_1" />
    <clipPath id="clip_1">
      <use xlink:href="#artboard_1" clip-rule="evenodd" />
    </clipPath>
  </defs>
  <g id="icon--bookmark-minus" clip-path="url(#clip_1)">
    <path d="M12 1.5L12 13.1994C12 13.4755 11.7761 13.6994 11.5 13.6994C11.424 13.6994 11.3489 13.682 11.2806 13.6487L7.49526 11.8L3.71979 13.6477C3.47176 13.7691 3.17229 13.6665 3.0509 13.4184C3.01741 13.35 3 13.2748 3 13.1986L3 1.5C3 1.22386 3.22386 1 3.5 1L11.5 1C11.7761 1 12 1.22386 12 1.5ZM11 2L4 2L4 12.396L7.27527 10.7942C7.41379 10.7265 7.57582 10.7265 7.71438 10.7941L11 12.399L11 2ZM9.5 6C9.77614 6 10 6.22386 10 6.5C10 6.77614 9.77614 7 9.5 7L5.5 7C5.22386 7 5 6.77614 5 6.5C5 6.22386 5.22386 6 5.5 6L9.5 6Z" id="Shape" fill="#000000" fill-rule="evenodd" stroke="none" artboard="ac1305e8-c7cb-4cc4-bd74-21fa12212f7a" />
  </g>
</svg>