<?xml version="1.0" encoding="utf-8"?>
<svg width="15px" height="15px" viewBox="0 0 15 15" version="1.1" xmlns:xlink="http://www.w3.org/1999/xlink" xmlns="http://www.w3.org/2000/svg">
  <defs>
    <rect width="15" height="15" id="artboard_1" />
    <clipPath id="clip_1">
      <use xlink:href="#artboard_1" clip-rule="evenodd" />
    </clipPath>
  </defs>
  <g id="icon--brick-plus" clip-path="url(#clip_1)">
    <path d="M6.501 4L4.499 4Q4.44985 4 4.40165 4.00959Q4.35345 4.01918 4.30804 4.03798Q4.26263 4.05679 4.22177 4.0841Q4.18091 4.1114 4.14615 4.14615Q4.1114 4.18091 4.0841 4.22177Q4.05679 4.26263 4.03798 4.30804Q4.01918 4.35345 4.00959 4.40165Q4 4.44985 4 4.499L4 6L3.5 6C3.22386 6 3 6.22386 3 6.5L3 11.5C3 11.7761 3.22386 12 3.5 12L8 12L8 11L4 11L4 7L11 7L11 8L12 8L12 6.5C12 6.22386 11.7761 6 11.5 6L11 6L11 4.499Q11 4.44985 10.9904 4.40165Q10.9808 4.35345 10.962 4.30804Q10.9432 4.26263 10.9159 4.22177Q10.8886 4.18091 10.8538 4.14615Q10.8191 4.1114 10.7782 4.0841Q10.7374 4.05679 10.692 4.03798Q10.6466 4.01918 10.5983 4.00959Q10.5501 4 10.501 4L8.499 4Q8.44985 4 8.40165 4.00959Q8.35345 4.01918 8.30804 4.03798Q8.26263 4.05679 8.22177 4.0841Q8.18091 4.1114 8.14615 4.14615Q8.1114 4.18091 8.0841 4.22177Q8.05679 4.26263 8.03798 4.30804Q8.01918 4.35345 8.00959 4.40165Q8 4.44985 8 4.499L8 6L7 6L7 4.499Q7 4.44985 6.99041 4.40165Q6.98082 4.35345 6.96202 4.30804Q6.94321 4.26263 6.9159 4.22177Q6.8886 4.18091 6.85385 4.14615Q6.81909 4.1114 6.77823 4.0841Q6.73736 4.05679 6.69196 4.03798Q6.64655 4.01918 6.59835 4.00959Q6.55015 4 6.501 4ZM6 5L5 5L5 6L6 6L6 5ZM9 5L10 5L10 6L9 6L9 5ZM12 9.5C12 9.22386 11.7761 9 11.5 9C11.2239 9 11 9.22386 11 9.5L11 11L9.5 11C9.22386 11 9 11.2239 9 11.5C9 11.7761 9.22386 12 9.5 12L11 12L11 13.5C11 13.7761 11.2239 14 11.5 14C11.7761 14 12 13.7761 12 13.5L12 12L13.5 12C13.7761 12 14 11.7761 14 11.5C14 11.2239 13.7761 11 13.5 11L12 11L12 9.5Z" id="Combined-Shape" fill="#000000" fill-rule="evenodd" stroke="none" artboard="4287808b-d969-41a6-8cd9-83330eadb5f7" />
  </g>
</svg>