<?xml version="1.0" encoding="utf-8"?>
<svg width="15px" height="15px" viewBox="0 0 15 15" version="1.1" xmlns:xlink="http://www.w3.org/1999/xlink" xmlns="http://www.w3.org/2000/svg">
  <defs>
    <rect width="15" height="15" id="artboard_1" />
    <clipPath id="clip_1">
      <use xlink:href="#artboard_1" clip-rule="evenodd" />
    </clipPath>
  </defs>
  <g id="icon--brick-cross" clip-path="url(#clip_1)">
    <path d="M10.0836 9.39645L11.4978 10.91L12.912 9.39645C13.1072 9.20118 13.4238 9.20118 13.6191 9.39645C13.8143 9.59171 13.8143 9.90829 13.6191 10.1036L12.1 11.5178L13.6191 12.932C13.8143 13.1272 13.8143 13.4438 13.6191 13.6391C13.4238 13.8343 13.1072 13.8343 12.912 13.6391L11.4978 12.12L10.0836 13.6391C9.88829 13.8343 9.57171 13.8343 9.37645 13.6391C9.18118 13.4438 9.18118 13.1272 9.37645 12.932L10.89 11.5178L9.37645 10.1036C9.18118 9.90829 9.18118 9.59171 9.37645 9.39645C9.57171 9.20118 9.88829 9.20118 10.0836 9.39645ZM6.5 4C6.77614 4 7 4.22386 7 4.5L7 6L8 6L8 4.5C8 4.22386 8.22386 4 8.5 4L10.5 4C10.7761 4 11 4.22386 11 4.5L11 6L11.5 6C11.7761 6 12 6.22386 12 6.5L12 8L11 8L11 7L4 7L4 11L8 11L8 12L3.5 12C3.22386 12 3 11.7761 3 11.5L3 6.5C3 6.22386 3.22386 6 3.5 6L4 6L4 4.5C4 4.22386 4.22386 4 4.5 4L6.5 4ZM6 5L5 5L5 6L6 6L6 5ZM10 5L9 5L9 6L10 6L10 5Z" id="Shape" fill="#000000" fill-rule="evenodd" stroke="none" artboard="143dfb4b-07c4-4648-8b32-269df55734ee" />
  </g>
</svg>