<?xml version="1.0" encoding="utf-8"?>
<svg width="15px" height="15px" viewBox="0 0 15 15" version="1.1" xmlns:xlink="http://www.w3.org/1999/xlink" xmlns="http://www.w3.org/2000/svg">
  <defs>
    <rect width="15" height="15" id="artboard_1" />
    <clipPath id="clip_1">
      <use xlink:href="#artboard_1" clip-rule="evenodd" />
    </clipPath>
  </defs>
  <g id="icon--brick-settings" clip-path="url(#clip_1)">
    <path d="M7.5 13C7.77614 13 8 13.2239 8 13.5C8 13.7761 7.77614 14 7.5 14C7.22386 14 7 13.7761 7 13.5C7 13.2239 7.22386 13 7.5 13ZM5.5 13C5.77614 13 6 13.2239 6 13.5C6 13.7761 5.77614 14 5.5 14C5.22386 14 5 13.7761 5 13.5C5 13.2239 5.22386 13 5.5 13ZM9.5 13C9.77614 13 10 13.2239 10 13.5C10 13.7761 9.77614 14 9.5 14C9.22386 14 9 13.7761 9 13.5C9 13.2239 9.22386 13 9.5 13ZM6.5 4C6.77614 4 7 4.22386 7 4.5L7 6L8 6L8 4.5C8 4.22386 8.22386 4 8.5 4L10.5 4C10.7761 4 11 4.22386 11 4.5L11 6L11.5 6C11.7761 6 12 6.22386 12 6.5L12 11.5C12 11.7761 11.7761 12 11.5 12L3.5 12C3.22386 12 3 11.7761 3 11.5L3 6.5C3 6.22386 3.22386 6 3.5 6L4 6L4 4.5C4 4.22386 4.22386 4 4.5 4L6.5 4ZM11 7L4 7L4 11L11 11L11 7ZM6 5L5 5L5 6L6 6L6 5ZM10 5L9 5L9 6L10 6L10 5Z" id="Shape" fill="#000000" fill-rule="evenodd" stroke="none" artboard="502afc0e-955a-4ba8-9593-1aa0d5ae01f5" />
  </g>
</svg>