<?xml version="1.0" encoding="utf-8"?>
<svg width="15px" height="15px" viewBox="0 0 15 15" version="1.1" xmlns:xlink="http://www.w3.org/1999/xlink" xmlns="http://www.w3.org/2000/svg">
  <defs>
    <rect width="15" height="15" id="artboard_1" />
    <clipPath id="clip_1">
      <use xlink:href="#artboard_1" clip-rule="evenodd" />
    </clipPath>
  </defs>
  <g id="icon--button" clip-path="url(#clip_1)">
    <path d="M12.8 4C14.015 4 15 4.98497 15 6.2L15 8.8C15 10.015 14.015 11 12.8 11L2.2 11C0.984974 11 0 10.015 0 8.8L0 6.2C0 4.98497 0.984974 4 2.2 4L12.8 4ZM12.8 5L2.2 5C1.57868 5 1.06765 5.4722 1.0062 6.07731L1 6.2L1 8.8C1 9.42132 1.4722 9.93235 2.07731 9.9938L2.2 10L12.8 10C13.4213 10 13.9324 9.5278 13.9938 8.92269L14 8.8L14 6.2C14 5.57868 13.5278 5.06765 12.9227 5.0062L12.8 5ZM4.5 6.89999C4.83137 6.89999 5.1 7.16862 5.1 7.49999C5.1 7.83136 4.83137 8.09999 4.5 8.09999C4.16863 8.09999 3.9 7.83136 3.9 7.49999C3.9 7.16862 4.16863 6.89999 4.5 6.89999ZM7.5 6.89999C7.83137 6.89999 8.1 7.16862 8.1 7.49999C8.1 7.83136 7.83137 8.09999 7.5 8.09999C7.16863 8.09999 6.9 7.83136 6.9 7.49999C6.9 7.16862 7.16863 6.89999 7.5 6.89999ZM10.5 6.89999C10.8314 6.89999 11.1 7.16862 11.1 7.49999C11.1 7.83136 10.8314 8.09999 10.5 8.09999C10.1686 8.09999 9.9 7.83136 9.9 7.49999C9.9 7.16862 10.1686 6.89999 10.5 6.89999Z" id="Shape" fill="#000000" fill-rule="evenodd" stroke="none" artboard="19569932-a6ab-488a-8001-3f9e94bb4d5f" />
  </g>
</svg>