<?xml version="1.0" encoding="utf-8"?>
<svg width="15px" height="15px" viewBox="0 0 15 15" version="1.1" xmlns:xlink="http://www.w3.org/1999/xlink" xmlns="http://www.w3.org/2000/svg">
  <defs>
    <rect width="15" height="15" id="artboard_1" />
    <clipPath id="clip_1">
      <use xlink:href="#artboard_1" clip-rule="evenodd" />
    </clipPath>
  </defs>
  <g id="icon--calculator" clip-path="url(#clip_1)">
    <path d="M11.5 2C11.7761 2 12 2.22386 12 2.5L12 12.5C12 12.7761 11.7761 13 11.5 13L3.5 13C3.22386 13 3 12.7761 3 12.5L3 2.5C3 2.22386 3.22386 2 3.5 2L11.5 2ZM5 11L4 11L4 12L5 12L5 11ZM7 11L6 11L6 12L7 12L7 11ZM11 9L10 9L10 12L11 12L11 9ZM9 11L8 11L8 12L9 12L9 11ZM5 9L4 9L4 10L5 10L5 9ZM7 9L6 9L6 10L7 10L7 9ZM9 9L8 9L8 10L9 10L9 9ZM5 7L4 7L4 8L5 8L5 7ZM7 7L6 7L6 8L7 8L7 7ZM9 7L8 7L8 8L9 8L9 7ZM11 7L10 7L10 8L11 8L11 7ZM11 3L4 3L4 6L11 6L11 3Z" id="Shape" fill="#000000" fill-rule="evenodd" stroke="none" artboard="f7bcfb92-6177-4460-a433-51cd1e6bff5f" />
  </g>
</svg>