<?xml version="1.0" encoding="utf-8"?>
<svg width="15px" height="15px" viewBox="0 0 15 15" version="1.1" xmlns:xlink="http://www.w3.org/1999/xlink" xmlns="http://www.w3.org/2000/svg">
  <defs>
    <rect width="15" height="15" id="artboard_1" />
    <clipPath id="clip_1">
      <use xlink:href="#artboard_1" clip-rule="evenodd" />
    </clipPath>
  </defs>
  <g id="icon--camera-outline" clip-path="url(#clip_1)">
    <path d="M13.5 3C13.7761 3 14 3.22386 14 3.5L14 11.5C14 11.7761 13.7761 12 13.5 12L1.5 12C1.22386 12 1 11.7761 1 11.5L1 3.5C1 3.22386 1.22386 3 1.5 3L13.5 3ZM13 4L2 4L2 11L13 11L13 4ZM9.5 4.9C10.9359 4.9 12.1 6.06406 12.1 7.5C12.1 8.93594 10.9359 10.1 9.5 10.1C8.06406 10.1 6.9 8.93594 6.9 7.5C6.9 6.06406 8.06406 4.9 9.5 4.9ZM9.5 5.9C8.61635 5.9 7.9 6.61635 7.9 7.5C7.9 8.38366 8.61635 9.1 9.5 9.1C10.3837 9.1 11.1 8.38366 11.1 7.5C11.1 6.61635 10.3837 5.9 9.5 5.9ZM6 5L6 7L3 7L3 5L6 5Z" id="Shape" fill="#000000" stroke="none" artboard="29b4cfd7-0b45-4a2b-8524-efb29f585d97" />
  </g>
</svg>