<?xml version="1.0" encoding="utf-8"?>
<svg width="15px" height="15px" viewBox="0 0 15 15" version="1.1" xmlns:xlink="http://www.w3.org/1999/xlink" xmlns="http://www.w3.org/2000/svg">
  <defs>
    <rect width="15" height="15" id="artboard_1" />
    <clipPath id="clip_1">
      <use xlink:href="#artboard_1" clip-rule="evenodd" />
    </clipPath>
  </defs>
  <g id="icon--capslock-outline" clip-path="url(#clip_1)">
    <path d="M10 11.5L10 13.5C10 13.7761 9.77614 14 9.5 14L5.5 14C5.22386 14 5 13.7761 5 13.5L5 11.5C5 11.2239 5.22386 11 5.5 11L9.5 11C9.77614 11 10 11.2239 10 11.5ZM9 12L9 13L6 13L6 12L9 12ZM7.89043 1.48804L11.6501 6.18765C11.8226 6.40328 11.7877 6.71793 11.572 6.89043C11.4834 6.96136 11.3732 7 11.2597 7L9.999 7L9.99983 9.5C10.0001 9.74546 9.82327 9.94966 9.59004 9.99208L9.5 10L9.5 10L5.5 10C5.22392 9.99983 5.00009 9.77607 4.99983 9.5L4.999 7L3.74031 7C3.46417 7 3.24031 6.77614 3.24031 6.5C3.24031 6.38646 3.27895 6.27631 3.34988 6.18765L7.10956 1.48804C7.28207 1.27241 7.59671 1.23745 7.81235 1.40995C7.84118 1.43302 7.86737 1.45921 7.89043 1.48804ZM7.5 2.6L4.68 6L5.99866 6L5.999 9L9 9L8.99866 6L10.32 6L7.5 2.6Z" id="Combined-Shape" fill="#000000" stroke="none" artboard="59a72fe6-f4a9-4628-9e44-b1f9de5bfcc9" />
  </g>
</svg>