<?xml version="1.0" encoding="utf-8"?>
<svg width="15px" height="15px" viewBox="0 0 15 15" version="1.1" xmlns:xlink="http://www.w3.org/1999/xlink" xmlns="http://www.w3.org/2000/svg">
  <defs>
    <rect width="15" height="15" id="artboard_1" />
    <clipPath id="clip_1">
      <use xlink:href="#artboard_1" clip-rule="evenodd" />
    </clipPath>
  </defs>
  <g id="icon--card-id" clip-path="url(#clip_1)">
    <path d="M8.5 2C8.77614 2 9 2.22386 9 2.5L9 3L14.5 3C14.7761 3 15 3.22386 15 3.5L15 11.5C15 11.7761 14.7761 12 14.5 12L0.5 12C0.223858 12 0 11.7761 0 11.5L0 3.5C0 3.22386 0.223858 3 0.5 3L6 3L6 2.5C6 2.22386 6.22386 2 6.5 2L8.5 2ZM14 4L1 4L1 11L14 11L14 4ZM6 9.5L6 10.0046L2 10.0046L2 9.5C2 8.39543 2.89543 7.5 4 7.5C5.10457 7.5 6 8.39543 6 9.5ZM10.5 9C10.7761 9 11 9.22386 11 9.5C11 9.77614 10.7761 10 10.5 10L7.5 10C7.22386 10 7 9.77614 7 9.5C7 9.22386 7.22386 9 7.5 9L10.5 9ZM12.5 7C12.7761 7 13 7.22386 13 7.5C13 7.77614 12.7761 8 12.5 8L7.5 8C7.22386 8 7 7.77614 7 7.5C7 7.22386 7.22386 7 7.5 7L12.5 7ZM4 4.9C4.60751 4.9 5.1 5.39249 5.1 6C5.1 6.60751 4.60751 7.1 4 7.1C3.39249 7.1 2.9 6.60751 2.9 6C2.9 5.39249 3.39249 4.9 4 4.9ZM11.5 5C11.7761 5 12 5.22386 12 5.5C12 5.77614 11.7761 6 11.5 6L7.5 6C7.22386 6 7 5.77614 7 5.5C7 5.22386 7.22386 5 7.5 5L11.5 5Z" id="Shape" fill="#000000" stroke="none" artboard="23d03f23-9a64-4ac7-8f84-4e478cfebf0d" />
  </g>
</svg>