<?xml version="1.0" encoding="utf-8"?>
<svg width="15px" height="15px" viewBox="0 0 15 15" version="1.1" xmlns:xlink="http://www.w3.org/1999/xlink" xmlns="http://www.w3.org/2000/svg">
  <defs>
    <rect width="15" height="15" id="artboard_1" />
    <clipPath id="clip_1">
      <use xlink:href="#artboard_1" clip-rule="evenodd" />
    </clipPath>
  </defs>
  <g id="icon--chat-cross" clip-path="url(#clip_1)">
    <path d="M11.5 2C12.8807 2 14 3.11929 14 4.5L14 8.5C14 9.88071 12.8807 11 11.5 11L9.999 11L10 14L6.079 11L3.5 11C2.11929 11 1 9.88071 1 8.5L1 4.5C1 3.11929 2.11929 2 3.5 2L11.5 2ZM11.5 3L3.5 3C2.7203 3 2.07955 3.59489 2.00687 4.35554L2 4.5L2 8.5C2 9.2797 2.59489 9.92045 3.35554 9.99313L3.5 10L6.41768 10L8.999 11.975L8.99867 10L11.5 10C12.2797 10 12.9204 9.40511 12.9931 8.64446L13 8.5L13 4.5C13 3.7203 12.4051 3.07955 11.6445 3.00687L11.5 3Z" id="Shape" fill="#000000" fill-rule="evenodd" stroke="none" artboard="e337cef9-20ff-490d-8a68-4062314ae7f7" />
    <path d="M6.08355 4.39645L7.49777 5.91L8.91198 4.39645C9.10724 4.20118 9.42383 4.20118 9.61909 4.39645C9.81435 4.59171 9.81435 4.90829 9.61909 5.10355L8.1 6.51777L9.61909 7.93198C9.81435 8.12724 9.81435 8.44382 9.61909 8.63909C9.42383 8.83435 9.10724 8.83435 8.91198 8.63909L7.49777 7.12L6.08355 8.63909C5.88829 8.83435 5.57171 8.83435 5.37645 8.63909C5.18118 8.44382 5.18118 8.12724 5.37645 7.93198L6.89 6.51777L5.37645 5.10355C5.18118 4.90829 5.18118 4.59171 5.37645 4.39645C5.57171 4.20118 5.88829 4.20118 6.08355 4.39645Z" id="Path" fill="#000000" fill-rule="evenodd" stroke="none" artboard="0afdf943-309c-4d9b-ba15-84c19942c21e" />
  </g>
</svg>