<?xml version="1.0" encoding="utf-8"?>
<svg width="15px" height="15px" viewBox="0 0 15 15" version="1.1" xmlns:xlink="http://www.w3.org/1999/xlink" xmlns="http://www.w3.org/2000/svg">
  <defs>
    <rect width="15" height="15" id="artboard_1" />
    <clipPath id="clip_1">
      <use xlink:href="#artboard_1" clip-rule="evenodd" />
    </clipPath>
  </defs>
  <g id="icon--chat-check" clip-path="url(#clip_1)">
    <path d="M11.5 2C12.8807 2 14 3.11929 14 4.5L14 8.5C14 9.88071 12.8807 11 11.5 11L9.999 11L10 14L6.079 11L3.5 11C2.11929 11 1 9.88071 1 8.5L1 4.5C1 3.11929 2.11929 2 3.5 2L11.5 2ZM11.5 3L3.5 3C2.7203 3 2.07955 3.59489 2.00687 4.35554L2 4.5L2 8.5C2 9.2797 2.59489 9.92045 3.35554 9.99313L3.5 10L6.41768 10L8.999 11.975L8.99867 10L11.5 10C12.2797 10 12.9204 9.40511 12.9931 8.64446L13 8.5L13 4.5C13 3.7203 12.4051 3.07955 11.6445 3.00687L11.5 3ZM10.0561 4.55286L10.0576 4.55427Q10.0923 4.58903 10.1196 4.62989Q10.1469 4.67075 10.1657 4.71616Q10.1845 4.76157 10.1941 4.80977Q10.2037 4.85797 10.2037 4.90712Q10.2037 4.95627 10.1941 5.00447Q10.1845 5.05267 10.1657 5.09808Q10.1469 5.14348 10.1196 5.18435Q10.0923 5.22521 10.0576 5.25997L6.73275 8.58478Q6.71192 8.60561 6.68744 8.62197Q6.66295 8.63833 6.63574 8.6496Q6.60854 8.66087 6.57965 8.66661Q6.55077 8.67236 6.52132 8.67236Q6.49187 8.67236 6.46299 8.66661Q6.43411 8.66087 6.4069 8.6496Q6.37969 8.63833 6.35521 8.62197Q6.33072 8.60561 6.3099 8.58478L4.75285 7.02773Q4.71809 6.99298 4.69079 6.95212Q4.66349 6.91125 4.64468 6.86584Q4.62587 6.82044 4.61628 6.77223Q4.60669 6.72403 4.60669 6.67489Q4.60669 6.62574 4.61628 6.57754Q4.62587 6.52933 4.64468 6.48393Q4.66349 6.43852 4.69079 6.39766Q4.71809 6.35679 4.75285 6.32204L4.75426 6.32063Q4.78901 6.28587 4.82988 6.25857Q4.87074 6.23126 4.91615 6.21245Q4.96156 6.19365 5.00976 6.18406Q5.05796 6.17447 5.10711 6.17447Q5.15626 6.17447 5.20446 6.18406Q5.25266 6.19365 5.29807 6.21245Q5.34347 6.23126 5.38434 6.25857Q5.4252 6.28587 5.45995 6.32063L6.52132 7.38199L9.35046 4.55286Q9.38521 4.51811 9.42607 4.4908Q9.46694 4.4635 9.51234 4.44469Q9.55775 4.42588 9.60595 4.41629Q9.65416 4.4067 9.7033 4.4067Q9.75245 4.4067 9.80065 4.41629Q9.84886 4.42588 9.89426 4.44469Q9.93967 4.4635 9.98053 4.4908Q10.0214 4.51811 10.0561 4.55286Z" id="Shape" fill="#000000" fill-rule="evenodd" stroke="none" artboard="dcc2a0ab-6e24-436e-8422-e43414a58820" />
  </g>
</svg>