<?xml version="1.0" encoding="utf-8"?>
<svg width="15px" height="15px" viewBox="0 0 15 15" version="1.1" xmlns:xlink="http://www.w3.org/1999/xlink" xmlns="http://www.w3.org/2000/svg">
  <defs>
    <rect width="15" height="15" id="artboard_1" />
    <clipPath id="clip_1">
      <use xlink:href="#artboard_1" clip-rule="evenodd" />
    </clipPath>
  </defs>
  <g id="icon--chat-plus" clip-path="url(#clip_1)">
    <path d="M11.5 2C12.8807 2 14 3.11929 14 4.5L14 8.5C14 9.88071 12.8807 11 11.5 11L9.999 11L10 14L6.079 11L3.5 11C2.11929 11 1 9.88071 1 8.5L1 4.5C1 3.11929 2.11929 2 3.5 2L11.5 2ZM11.5 3L3.5 3C2.7203 3 2.07955 3.59489 2.00687 4.35554L2 4.5L2 8.5C2 9.2797 2.59489 9.92045 3.35554 9.99313L3.5 10L6.41768 10L8.999 11.975L8.99867 10L11.5 10C12.2797 10 12.9204 9.40511 12.9931 8.64446L13 8.5L13 4.5C13 3.7203 12.4051 3.07955 11.6445 3.00687L11.5 3ZM7.5 4C7.77614 4 8 4.22386 8 4.5L8 6L9.5 6C9.77614 6 10 6.22386 10 6.5C10 6.77614 9.77614 7 9.5 7L8 7L8 8.5C8 8.77614 7.77614 9 7.5 9C7.22386 9 7 8.77614 7 8.5L7 7L5.5 7C5.22386 7 5 6.77614 5 6.5C5 6.22386 5.22386 6 5.5 6L7 6L7 4.5C7 4.22386 7.22386 4 7.5 4Z" id="Shape" fill="#000000" fill-rule="evenodd" stroke="none" artboard="215dddc3-5cb1-42b0-97d6-226206f996ce" />
  </g>
</svg>