<?xml version="1.0" encoding="utf-8"?>
<svg width="15px" height="15px" viewBox="0 0 15 15" version="1.1" xmlns:xlink="http://www.w3.org/1999/xlink" xmlns="http://www.w3.org/2000/svg">
  <defs>
    <rect width="15" height="15" id="artboard_1" />
    <clipPath id="clip_1">
      <use xlink:href="#artboard_1" clip-rule="evenodd" />
    </clipPath>
  </defs>
  <g id="icon--check-circled" clip-path="url(#clip_1)">
    <use xlink:href="#artboard_1" stroke="none" fill="#FFFFFF" />
    <path d="M14.1 7.49999C14.1 3.85491 11.1451 0.899994 7.5 0.899994C3.85492 0.899994 0.900002 3.85491 0.900002 7.49999C0.900002 11.1451 3.85492 14.1 7.5 14.1C11.1451 14.1 14.1 11.1451 14.1 7.49999L14.1 7.49999ZM1.9 7.49999C1.9 4.4072 4.40721 1.89999 7.5 1.89999C10.5928 1.89999 13.1 4.4072 13.1 7.49999C13.1 10.5928 10.5928 13.1 7.5 13.1C4.40721 13.1 1.9 10.5928 1.9 7.49999L1.9 7.49999ZM10.3576 5.65425L10.3562 5.65284C10.2587 5.5554 10.1411 5.50668 10.0033 5.50668C9.86551 5.50668 9.7479 5.5554 9.65046 5.65284L6.82133 8.48197L5.75996 7.4206C5.66253 7.32317 5.54491 7.27445 5.40711 7.27445C5.26932 7.27445 5.1517 7.32317 5.05427 7.4206L5.05285 7.42202C4.95542 7.51945 4.9067 7.63707 4.9067 7.77486C4.9067 7.91266 4.95542 8.03028 5.05285 8.12771L6.6099 9.68476C6.66829 9.74314 6.73876 9.77234 6.82133 9.77234C6.9039 9.77234 6.97437 9.74314 7.03275 9.68476L10.3576 6.35994C10.455 6.26251 10.5037 6.14489 10.5037 6.0071C10.5037 5.8693 10.455 5.75169 10.3576 5.65425L10.3576 5.65425Z" id="Vector" fill="#000000" fill-rule="evenodd" stroke="none" artboard="ed50009e-783d-43d9-b8c4-d2dbc72ecbce" />
  </g>
</svg>