<?xml version="1.0" encoding="utf-8"?>
<svg width="15px" height="15px" viewBox="0 0 15 15" version="1.1" xmlns:xlink="http://www.w3.org/1999/xlink" xmlns="http://www.w3.org/2000/svg">
  <defs>
    <rect width="15" height="15" id="artboard_1" />
    <clipPath id="clip_1">
      <use xlink:href="#artboard_1" clip-rule="evenodd" />
    </clipPath>
  </defs>
  <g id="icon--check-mark" clip-path="url(#clip_1)">
    <use xlink:href="#artboard_1" stroke="none" fill="#FFFFFF" />
    <path d="M12.3822 3.76924L12.3119 3.70182C12.2627 3.65467 12.2063 3.61909 12.1425 3.59506C12.0788 3.57104 12.0129 3.56051 11.9448 3.56348C11.8767 3.56644 11.812 3.58267 11.7506 3.61215C11.6892 3.64163 11.636 3.68199 11.5911 3.73324L6.09793 10.0056L3.90749 7.705C3.86051 7.65565 3.80571 7.61752 3.7431 7.59062C3.68049 7.56372 3.61512 7.55021 3.54698 7.55009C3.47884 7.54997 3.41342 7.56325 3.35071 7.58994C3.28801 7.61662 3.23308 7.65455 3.18592 7.70374L3.11816 7.77441C3.02585 7.87068 2.97958 7.98551 2.97934 8.11889C2.97911 8.25226 3.02497 8.36725 3.11694 8.46385L5.74785 11.2272C5.79615 11.2779 5.85264 11.3167 5.9173 11.3437C5.98196 11.3706 6.04931 11.3834 6.11935 11.382C6.18939 11.3806 6.25617 11.3651 6.31969 11.3355C6.38321 11.306 6.43807 11.2649 6.48428 11.2122L12.4119 4.45858C12.5 4.35823 12.5411 4.24135 12.5354 4.10795C12.5296 3.97455 12.4786 3.86165 12.3822 3.76924L12.3822 3.76924Z" id="Vector" fill="#000000" fill-rule="evenodd" stroke="none" artboard="1dfe7308-db71-4528-a512-57ee02f02b1d" />
  </g>
</svg>