<?xml version="1.0" encoding="utf-8"?>
<svg width="15px" height="15px" viewBox="0 0 15 15" version="1.1" xmlns:xlink="http://www.w3.org/1999/xlink" xmlns="http://www.w3.org/2000/svg">
  <defs>
    <rect width="15" height="15" id="artboard_1" />
    <clipPath id="clip_1">
      <use xlink:href="#artboard_1" clip-rule="evenodd" />
    </clipPath>
  </defs>
  <g id="icon--command" clip-path="url(#clip_1)">
    <path d="M6 3.5C6 2.11929 4.88071 1 3.5 1C2.11929 1 1 2.11929 1 3.5C1 4.88071 2.11929 6 3.5 6L5 6L5 9L3.5 9C2.11929 9 1 10.1193 1 11.5C1 12.8807 2.11929 14 3.5 14C4.88071 14 6 12.8807 6 11.5L6 10L9 10L9 11.5C9 12.8807 10.1193 14 11.5 14C12.8807 14 14 12.8807 14 11.5C14 10.1193 12.8807 9 11.5 9L10 9L10 6L11.5 6C12.8807 6 14 4.88071 14 3.5C14 2.11929 12.8807 1 11.5 1C10.1193 1 9 2.11929 9 3.5L9 5L6 5L6 3.5ZM9 9L9 6L6 6L6 9L9 9ZM10 10L10 11.5C10 12.3284 10.6716 13 11.5 13C12.3284 13 13 12.3284 13 11.5C13 10.7203 12.4051 10.0796 11.6445 10.0069L11.5 10L10 10ZM5 3.5L5 5L3.5 5L3.35554 4.99313C2.59489 4.92045 2 4.2797 2 3.5C2 2.67157 2.67157 2 3.5 2L3.64446 2.00687C4.40511 2.07955 5 2.7203 5 3.5ZM11.5 5L10 5L10 3.5L10.0069 3.35554C10.0796 2.59489 10.7203 2 11.5 2C12.3284 2 13 2.67157 13 3.5L12.9931 3.64446C12.9204 4.40511 12.2797 5 11.5 5ZM3.5 10L5 10L5 11.5L4.99313 11.6445C4.92045 12.4051 4.2797 13 3.5 13C2.67157 13 2 12.3284 2 11.5C2 10.6716 2.67157 10 3.5 10Z" id="Combined-Shape" fill="#000000" fill-rule="evenodd" stroke="none" artboard="27b8c0c0-74a6-49e0-b995-02b1b24310c8" />
  </g>
</svg>