<?xml version="1.0" encoding="utf-8"?>
<svg width="15px" height="15px" viewBox="0 0 15 15" version="1.1" xmlns:xlink="http://www.w3.org/1999/xlink" xmlns="http://www.w3.org/2000/svg">
  <defs>
    <rect width="15" height="15" id="artboard_1" />
    <clipPath id="clip_1">
      <use xlink:href="#artboard_1" clip-rule="evenodd" />
    </clipPath>
  </defs>
  <g id="icon--copy" clip-path="url(#clip_1)">
    <path d="M12.5 5C12.7761 5 13 5.22386 13 5.5L13 12.5C13 12.7761 12.7761 13 12.5 13L5.5 13C5.22386 13 5 12.7761 5 12.5L5 5.5C5 5.22386 5.22386 5 5.5 5L12.5 5ZM12 6L6 6L6 12L12 12L12 6ZM2 10.5L2 2.5C2 2.22386 2.22386 2 2.5 2L10.5 2C10.7761 2 11 2.22386 11 2.5L11 4L10 4L10 3L3 3L3 10L4 10L4 11L2.5 11C2.22386 11 2 10.7761 2 10.5Z" id="Shape" fill="#000000" fill-rule="evenodd" stroke="none" artboard="8a986ad3-1f00-44ae-a545-61664f5bb44c" />
  </g>
</svg>