<?xml version="1.0" encoding="utf-8"?>
<svg width="15px" height="15px" viewBox="0 0 15 15" version="1.1" xmlns:xlink="http://www.w3.org/1999/xlink" xmlns="http://www.w3.org/2000/svg">
  <defs>
    <rect width="15" height="15" id="artboard_1" />
    <clipPath id="clip_1">
      <use xlink:href="#artboard_1" clip-rule="evenodd" />
    </clipPath>
  </defs>
  <g id="icon--copyright" clip-path="url(#clip_1)">
    <path d="M7.6 1.90002C10.6376 1.90002 13.1 4.36246 13.1 7.40002L13.1 7.60002C13.1 10.6376 10.6376 13.1 7.6 13.1L7.4 13.1C4.36243 13.1 1.9 10.6376 1.9 7.60002L1.9 7.40002C1.9 4.36246 4.36243 1.90002 7.4 1.90002L7.6 1.90002ZM7.6 2.90002L7.4 2.90002C4.98573 2.90002 3.01551 4.80126 2.9049 7.18819L2.9 7.40002L2.9 7.60002C2.9 10.0143 4.80124 11.9845 7.18816 12.0951L7.4 12.1L7.6 12.1C10.0143 12.1 11.9845 10.1988 12.0951 7.81186L12.1 7.60002L12.1 7.40002C12.1 4.98575 10.1988 3.01554 7.81184 2.90492L7.6 2.90002ZM7.70014 4.55005C8.3019 4.55005 8.61529 4.6566 8.98263 4.81197L9.0885 4.86423L9.211 4.93993L8.8783 5.76395C8.7629 5.71251 8.64117 5.66893 8.51313 5.6332L8.3019 5.58255C8.11807 5.54531 7.93089 5.53538 7.74566 5.53538C6.40295 5.53538 5.90188 6.09071 5.90188 7.50053C5.90188 8.87871 6.43215 9.46569 7.74566 9.46569C8.11278 9.46569 8.43073 9.4009 8.80504 9.26621L9.03724 9.17697L9.38 10.0041C8.89592 10.2807 8.35539 10.451 7.70014 10.451C5.71183 10.451 4.78 9.39832 4.78 7.50053C4.78 5.55005 5.67812 4.55005 7.70014 4.55005Z" id="Shape" fill="#000000" fill-rule="evenodd" stroke="none" artboard="fc732d18-5508-46b7-8335-40d88af59c6a" />
  </g>
</svg>