<?xml version="1.0" encoding="utf-8"?>
<svg width="15px" height="15px" viewBox="0 0 15 15" version="1.1" xmlns:xlink="http://www.w3.org/1999/xlink" xmlns="http://www.w3.org/2000/svg">
  <defs>
    <rect width="15" height="15" id="artboard_1" />
    <clipPath id="clip_1">
      <use xlink:href="#artboard_1" clip-rule="evenodd" />
    </clipPath>
  </defs>
  <g id="icon--cross-circled" clip-path="url(#clip_1)">
    <path d="M14.1 7.49999C14.1 3.85491 11.1451 0.899994 7.5 0.899994C3.85492 0.899994 0.9 3.85491 0.9 7.49999C0.9 11.1451 3.85492 14.1 7.5 14.1C11.1451 14.1 14.1 11.1451 14.1 7.49999ZM1.9 7.49999C1.9 4.4072 4.40721 1.89999 7.5 1.89999C10.5928 1.89999 13.1 4.4072 13.1 7.49999C13.1 10.5928 10.5928 13.1 7.5 13.1C4.40721 13.1 1.9 10.5928 1.9 7.49999ZM8.20711 7.5L9.97558 5.73152Q10.0458 5.66134 10.0837 5.56964Q10.1217 5.47793 10.1217 5.37868Q10.1217 5.27942 10.0837 5.18772Q10.0458 5.09602 9.97558 5.02583L9.97416 5.02442Q9.93941 4.98966 9.89855 4.96236Q9.85768 4.93505 9.81228 4.91625Q9.76687 4.89744 9.71867 4.88785Q9.67046 4.87826 9.62132 4.87826Q9.57217 4.87826 9.52397 4.88785Q9.47576 4.89744 9.43036 4.91625Q9.38495 4.93505 9.34409 4.96236Q9.30322 4.98966 9.26847 5.02442L7.5 6.79289L5.73152 5.02442Q5.69677 4.98966 5.65591 4.96236Q5.61504 4.93505 5.56964 4.91625Q5.52423 4.89744 5.47603 4.88785Q5.42782 4.87826 5.37868 4.87826Q5.32953 4.87826 5.28133 4.88785Q5.23312 4.89744 5.18772 4.91625Q5.14231 4.93505 5.10145 4.96236Q5.06058 4.98966 5.02583 5.02442L5.02442 5.02583Q4.98967 5.06058 4.96236 5.10145Q4.93506 5.14231 4.91625 5.18772Q4.89744 5.23312 4.88785 5.28133Q4.87826 5.32953 4.87826 5.37868Q4.87826 5.42782 4.88785 5.47603Q4.89744 5.52423 4.91625 5.56963Q4.93506 5.61504 4.96236 5.65591Q4.98967 5.69677 5.02442 5.73152L6.79289 7.5L5.02442 9.26847Q4.98967 9.30322 4.96236 9.34409Q4.93506 9.38495 4.91625 9.43036Q4.89744 9.47576 4.88785 9.52397Q4.87826 9.57217 4.87826 9.62132Q4.87826 9.67046 4.88785 9.71867Q4.89744 9.76687 4.91625 9.81227Q4.93506 9.85768 4.96236 9.89854Q4.98967 9.93941 5.02442 9.97416L5.02583 9.97558Q5.06058 10.0103 5.10145 10.0376Q5.14231 10.0649 5.18772 10.0837Q5.23312 10.1026 5.28133 10.1121Q5.32953 10.1217 5.37868 10.1217Q5.42782 10.1217 5.47603 10.1121Q5.52423 10.1026 5.56964 10.0837Q5.61504 10.0649 5.65591 10.0376Q5.69677 10.0103 5.73152 9.97558L7.5 8.2071L9.26847 9.97558Q9.30322 10.0103 9.34409 10.0376Q9.38495 10.0649 9.43036 10.0837Q9.47576 10.1026 9.52397 10.1121Q9.57217 10.1217 9.62132 10.1217Q9.67046 10.1217 9.71867 10.1121Q9.76687 10.1026 9.81228 10.0837Q9.85768 10.0649 9.89855 10.0376Q9.93941 10.0103 9.97416 9.97558L9.97558 9.97416Q10.0103 9.93941 10.0376 9.89854Q10.0649 9.85768 10.0837 9.81227Q10.1026 9.76687 10.1121 9.71867Q10.1217 9.67046 10.1217 9.62132Q10.1217 9.57217 10.1121 9.52397Q10.1026 9.47576 10.0837 9.43036Q10.0649 9.38495 10.0376 9.34409Q10.0103 9.30322 9.97558 9.26847L8.20711 7.5Z" id="Combined-Shape" fill="#000000" fill-rule="evenodd" stroke="none" artboard="ccaee745-50f8-4e72-9571-162b25fd8d04" />
  </g>
</svg>