<?xml version="1.0" encoding="utf-8"?>
<svg width="15px" height="15px" viewBox="0 0 15 15" version="1.1" xmlns:xlink="http://www.w3.org/1999/xlink" xmlns="http://www.w3.org/2000/svg">
  <defs>
    <rect width="15" height="15" id="artboard_1" />
    <clipPath id="clip_1">
      <use xlink:href="#artboard_1" clip-rule="evenodd" />
    </clipPath>
  </defs>
  <g id="icon--crosshair" clip-path="url(#clip_1)">
    <path d="M7.5 0C7.77614 -5.07265e-17 8 0.223858 8 0.5L8.00072 1.92208C10.694 2.16073 12.8393 4.30602 13.0779 6.99928L14.5 7C14.7761 7 15 7.22386 15 7.5C15 7.77614 14.7761 8 14.5 8L13.078 7.99972C12.8398 10.6934 10.6943 12.8392 8.00072 13.0779L8 14.5C8 14.7761 7.77614 15 7.5 15C7.25454 15 7.05039 14.8231 7.00806 14.5899L7 14.5L7.00028 13.078C4.30655 12.8398 2.16076 10.6943 1.92208 8.00072L0.5 8C0.223858 8 0 7.77614 0 7.5C0 7.25454 0.176875 7.05039 0.410124 7.00806L0.5 7L1.92199 7.00028C2.16023 4.30622 4.30622 2.16023 7.00028 1.92199L7 0.5C7 0.223858 7.22386 5.07265e-17 7.5 0ZM7.5 2.89999C4.95949 2.89999 2.9 4.95948 2.9 7.49999C2.9 10.0405 4.95949 12.1 7.5 12.1C10.0405 12.1 12.1 10.0405 12.1 7.49999C12.1 4.95948 10.0405 2.89999 7.5 2.89999Z" id="Shape" fill="#000000" fill-rule="evenodd" stroke="none" artboard="dc214f1d-d9ae-42df-b783-510bb51f5943" />
  </g>
</svg>