<?xml version="1.0" encoding="utf-8"?>
<svg width="15px" height="15px" viewBox="0 0 15 15" version="1.1" xmlns:xlink="http://www.w3.org/1999/xlink" xmlns="http://www.w3.org/2000/svg">
  <defs>
    <rect width="15" height="15" id="artboard_1" />
    <clipPath id="clip_1">
      <use xlink:href="#artboard_1" clip-rule="evenodd" />
    </clipPath>
  </defs>
  <g id="icon--dashboard" clip-path="url(#clip_1)">
    <path d="M13.5 9C13.7761 9 14 9.22386 14 9.5L14 12.5C14 12.7761 13.7761 13 13.5 13L8.5 13C8.22386 13 8 12.7761 8 12.5L8 9.5C8 9.22386 8.22386 9 8.5 9L13.5 9ZM6.5 7C6.77614 7 7 7.22386 7 7.5L7 12.5C7 12.7761 6.77614 13 6.5 13L1.5 13C1.22386 13 1 12.7761 1 12.5L1 7.5C1 7.22386 1.22386 7 1.5 7L6.5 7ZM13 10L9 10L9 12L13 12L13 10ZM6 8L2 8L2 12L6 12L6 8ZM13.5 2C13.7761 2 14 2.22386 14 2.5L14 7.5C14 7.77614 13.7761 8 13.5 8L8.5 8C8.22386 8 8 7.77614 8 7.5L8 2.5C8 2.22386 8.22386 2 8.5 2L13.5 2ZM13 3L9 3L9 7L13 7L13 3ZM6.5 2C6.77614 2 7 2.22386 7 2.5L7 5.5C7 5.77614 6.77614 6 6.5 6L1.5 6C1.22386 6 1 5.77614 1 5.5L1 2.5C1 2.22386 1.22386 2 1.5 2L6.5 2ZM6 3L2 3L2 5L6 5L6 3Z" id="Shape" fill="#000000" fill-rule="evenodd" stroke="none" artboard="22087139-af52-4f9d-8ca4-128c58c8b441" />
  </g>
</svg>