<?xml version="1.0" encoding="utf-8"?>
<svg width="15px" height="15px" viewBox="0 0 15 15" version="1.1" xmlns:xlink="http://www.w3.org/1999/xlink" xmlns="http://www.w3.org/2000/svg">
  <defs>
    <rect width="15" height="15" id="artboard_1" />
    <clipPath id="clip_1">
      <use xlink:href="#artboard_1" clip-rule="evenodd" />
    </clipPath>
  </defs>
  <g id="icon--delta-sign" clip-path="url(#clip_1)">
    <path d="M11.5 4L11.4099 4C11.1716 4 10.9664 3.83177 10.9196 3.59806L10.8 3L4.4 3L8.158 6.85436C8.24904 6.94774 8.3 7.07299 8.3 7.20341L8.3 7.79903C8.3 7.9295 8.249 8.0548 8.15789 8.14819L4.4 12L10.8 12L10.9196 11.4019C10.9664 11.1682 11.1716 11 11.4099 11L11.5 11C11.7761 11 12 11.2239 12 11.5L12 12.5C12 12.7761 11.7761 13 11.5 13L3.50164 13C3.22603 13 3.00239 12.777 3.00164 12.5014L3.00055 12.1011C3.0002 11.9721 3.04976 11.8479 3.13887 11.7545L7.2 7.5L3.13832 3.24491C3.04954 3.1519 3 3.02826 3 2.89967L3 2.5C3 2.22386 3.22386 2 3.5 2L11.5 2C11.7761 2 12 2.22386 12 2.5L12 3.5C12 3.77614 11.7761 4 11.5 4Z" id="Path" fill="#000000" fill-rule="evenodd" stroke="none" artboard="eaffd2e2-ea40-4ea5-8602-e610be9ce5a3" />
  </g>
</svg>