<?xml version="1.0" encoding="utf-8"?>
<svg width="15px" height="15px" viewBox="0 0 15 15" version="1.1" xmlns:xlink="http://www.w3.org/1999/xlink" xmlns="http://www.w3.org/2000/svg">
  <defs>
    <rect width="15" height="15" id="artboard_1" />
    <clipPath id="clip_1">
      <use xlink:href="#artboard_1" clip-rule="evenodd" />
    </clipPath>
  </defs>
  <g id="icon--drag-and-drop-bar" clip-path="url(#clip_1)">
    <path d="M6.49899 4.90002C6.33358 4.90002 6.1924 4.95851 6.07544 5.07547C5.95847 5.19243 5.89999 5.33361 5.89999 5.49902L5.89999 5.50102C5.89999 5.66643 5.95847 5.80762 6.07544 5.92458C6.1924 6.04154 6.33358 6.10002 6.49899 6.10002L6.50099 6.10002C6.6664 6.10002 6.80759 6.04154 6.92455 5.92458C7.04151 5.80762 7.09999 5.66643 7.09999 5.50102L7.09999 5.49902C7.09999 5.33361 7.04151 5.19243 6.92455 5.07547C6.80759 4.95851 6.6664 4.90002 6.50099 4.90002L6.49899 4.90002L6.49899 4.90002ZM8.49899 4.90002C8.33358 4.90002 8.1924 4.95851 8.07544 5.07547C7.95847 5.19243 7.89999 5.33361 7.89999 5.49902L7.89999 5.50102C7.89999 5.66643 7.95847 5.80762 8.07544 5.92458C8.1924 6.04154 8.33358 6.10002 8.49899 6.10002L8.50099 6.10002C8.6664 6.10002 8.80759 6.04154 8.92455 5.92458C9.04151 5.80762 9.09999 5.66643 9.09999 5.50102L9.09999 5.49902C9.09999 5.33361 9.04151 5.19243 8.92455 5.07547C8.80759 4.95851 8.6664 4.90002 8.50099 4.90002L8.49899 4.90002L8.49899 4.90002ZM6.49899 6.90002C6.33358 6.90002 6.1924 6.95851 6.07544 7.07547C5.95847 7.19243 5.89999 7.33361 5.89999 7.49902L5.89999 7.50102C5.89999 7.66643 5.95847 7.80762 6.07544 7.92458C6.1924 8.04154 6.33358 8.10002 6.49899 8.10002L6.50099 8.10002C6.6664 8.10002 6.80759 8.04154 6.92455 7.92458C7.04151 7.80762 7.09999 7.66643 7.09999 7.50102L7.09999 7.49902C7.09999 7.33361 7.04151 7.19243 6.92455 7.07547C6.80759 6.95851 6.6664 6.90002 6.50099 6.90002L6.49899 6.90002L6.49899 6.90002ZM8.49899 6.90002C8.33358 6.90002 8.1924 6.95851 8.07544 7.07547C7.95847 7.19243 7.89999 7.33361 7.89999 7.49902L7.89999 7.50102C7.89999 7.66643 7.95847 7.80762 8.07544 7.92458C8.1924 8.04154 8.33358 8.10002 8.49899 8.10002L8.50099 8.10002C8.6664 8.10002 8.80759 8.04154 8.92455 7.92458C9.04151 7.80762 9.09999 7.66643 9.09999 7.50102L9.09999 7.49902C9.09999 7.33361 9.04151 7.19243 8.92455 7.07547C8.80759 6.95851 8.6664 6.90002 8.50099 6.90002L8.49899 6.90002L8.49899 6.90002ZM6.49899 8.90002C6.33358 8.90002 6.1924 8.9585 6.07544 9.07547C5.95847 9.19243 5.89999 9.33361 5.89999 9.49902L5.89999 9.50102C5.89999 9.66643 5.95847 9.80762 6.07544 9.92458C6.1924 10.0415 6.33358 10.1 6.49899 10.1L6.50099 10.1C6.6664 10.1 6.80759 10.0415 6.92455 9.92458C7.04151 9.80762 7.09999 9.66643 7.09999 9.50102L7.09999 9.49902C7.09999 9.33361 7.04151 9.19243 6.92455 9.07547C6.80759 8.95851 6.6664 8.90002 6.50099 8.90002L6.49899 8.90002L6.49899 8.90002ZM8.49899 8.90002C8.33358 8.90002 8.1924 8.9585 8.07544 9.07547C7.95847 9.19243 7.89999 9.33361 7.89999 9.49902L7.89999 9.50102C7.89999 9.66643 7.95847 9.80762 8.07544 9.92458C8.1924 10.0415 8.33358 10.1 8.49899 10.1L8.50099 10.1C8.6664 10.1 8.80759 10.0415 8.92455 9.92458C9.04151 9.80762 9.09999 9.66643 9.09999 9.50102L9.09999 9.49902C9.09999 9.33361 9.04151 9.19243 8.92455 9.07547C8.80759 8.95851 8.6664 8.90002 8.50099 8.90002L8.49899 8.90002L8.49899 8.90002Z" id="Vector" fill="#000000" fill-rule="evenodd" stroke="none" artboard="86a6299a-db79-4e50-9ea2-237d5448bed8" />
  </g>
</svg>