<?xml version="1.0" encoding="utf-8"?>
<svg width="15px" height="15px" viewBox="0 0 15 15" version="1.1" xmlns:xlink="http://www.w3.org/1999/xlink" xmlns="http://www.w3.org/2000/svg">
  <defs>
    <rect width="15" height="15" id="artboard_1" />
    <clipPath id="clip_1">
      <use xlink:href="#artboard_1" clip-rule="evenodd" />
    </clipPath>
  </defs>
  <g id="icon--drag-and-drop-bar-Copy" clip-path="url(#clip_1)">
    <path d="M6.07544 2.07547C6.1924 1.95851 6.33358 1.90002 6.49899 1.90002L6.50099 1.90002C6.6664 1.90002 6.80759 1.95851 6.92455 2.07547Q7.09999 2.25091 7.09999 2.49902L7.09999 2.50102C7.09999 2.66643 7.04151 2.80762 6.92455 2.92458Q6.74911 3.10002 6.50099 3.10002L6.49899 3.10002Q6.25088 3.10002 6.07544 2.92458C5.95847 2.80762 5.89999 2.66643 5.89999 2.50102L5.89999 2.49902Q5.89999 2.25091 6.07544 2.07547ZM8.07544 2.07547C8.1924 1.95851 8.33358 1.90002 8.49899 1.90002L8.50099 1.90002C8.6664 1.90002 8.80759 1.95851 8.92455 2.07547Q9.09999 2.25091 9.09999 2.49902L9.09999 2.50102C9.09999 2.66643 9.04151 2.80762 8.92455 2.92458C8.80759 3.04154 8.6664 3.10002 8.50099 3.10002L8.49899 3.10002Q8.25088 3.10002 8.07544 2.92458C7.95847 2.80762 7.89999 2.66643 7.89999 2.50102L7.89999 2.49902Q7.89999 2.25091 8.07544 2.07547ZM6.07544 4.07547Q6.25088 3.90002 6.49899 3.90002L6.50099 3.90002C6.6664 3.90002 6.80759 3.95851 6.92455 4.07547C7.04151 4.19243 7.09999 4.33361 7.09999 4.49902L7.09999 4.50102C7.09999 4.66643 7.04151 4.80762 6.92455 4.92458C6.80759 5.04154 6.6664 5.10002 6.50099 5.10002L6.49899 5.10002Q6.25088 5.10002 6.07544 4.92458C5.95847 4.80762 5.89999 4.66643 5.89999 4.50102L5.89999 4.49902C5.89999 4.33361 5.95847 4.19243 6.07544 4.07547ZM8.07544 4.07547Q8.25088 3.90002 8.49899 3.90002L8.50099 3.90002C8.6664 3.90002 8.80759 3.95851 8.92455 4.07547C9.04151 4.19243 9.09999 4.33361 9.09999 4.49902L9.09999 4.50102C9.09999 4.66643 9.04151 4.80762 8.92455 4.92458C8.80759 5.04154 8.6664 5.10002 8.50099 5.10002L8.49899 5.10002Q8.25088 5.10002 8.07544 4.92458C7.95847 4.80762 7.89999 4.66643 7.89999 4.50102L7.89999 4.49902C7.89999 4.33361 7.95847 4.19243 8.07544 4.07547ZM6.07544 6.07547C6.1924 5.9585 6.33358 5.90002 6.49899 5.90002L6.50099 5.90002C6.6664 5.90002 6.80759 5.95851 6.92455 6.07547Q7.09999 6.25091 7.09999 6.49902L7.09999 6.50102C7.09999 6.66643 7.04151 6.80762 6.92455 6.92458C6.80759 7.04154 6.6664 7.10002 6.50099 7.10002L6.49899 7.10002Q6.25088 7.10002 6.07544 6.92458C5.95847 6.80762 5.89999 6.66643 5.89999 6.50102L5.89999 6.49902C5.89999 6.33361 5.95847 6.19243 6.07544 6.07547ZM8.07544 6.07547C8.1924 5.9585 8.33358 5.90002 8.49899 5.90002L8.50099 5.90002C8.6664 5.90002 8.80759 5.95851 8.92455 6.07547Q9.09999 6.25091 9.09999 6.49902L9.09999 6.50102C9.09999 6.66643 9.04151 6.80762 8.92455 6.92458C8.80759 7.04154 8.6664 7.10002 8.50099 7.10002L8.49899 7.10002Q8.25088 7.10002 8.07544 6.92458C7.95847 6.80762 7.89999 6.66643 7.89999 6.50102L7.89999 6.49902C7.89999 6.33361 7.95847 6.19243 8.07544 6.07547ZM6.07544 8.07547C6.1924 7.95851 6.33358 7.90002 6.49899 7.90002L6.50099 7.90002C6.6664 7.90002 6.80759 7.95851 6.92455 8.07547Q7.09999 8.25091 7.09999 8.49902L7.09999 8.50102C7.09999 8.66643 7.04151 8.80762 6.92455 8.92458Q6.74911 9.10002 6.50099 9.10002L6.49899 9.10002Q6.25088 9.10002 6.07544 8.92458C5.95847 8.80762 5.89999 8.66643 5.89999 8.50102L5.89999 8.49902Q5.89999 8.25091 6.07544 8.07547ZM8.07544 8.07547C8.1924 7.95851 8.33358 7.90002 8.49899 7.90002L8.50099 7.90002C8.6664 7.90002 8.80759 7.95851 8.92455 8.07547Q9.09999 8.25091 9.09999 8.49902L9.09999 8.50102C9.09999 8.66643 9.04151 8.80762 8.92455 8.92458C8.80759 9.04154 8.6664 9.10002 8.50099 9.10002L8.49899 9.10002Q8.25088 9.10002 8.07544 8.92458C7.95847 8.80762 7.89999 8.66643 7.89999 8.50102L7.89999 8.49902Q7.89999 8.25091 8.07544 8.07547ZM6.07544 10.0755C6.1924 9.95851 6.33358 9.90002 6.49899 9.90002L6.50099 9.90002C6.6664 9.90002 6.80759 9.95851 6.92455 10.0755C7.04151 10.1924 7.09999 10.3336 7.09999 10.499L7.09999 10.501Q7.09999 10.7491 6.92455 10.9246C6.80759 11.0415 6.6664 11.1 6.50099 11.1L6.49899 11.1Q6.25088 11.1 6.07544 10.9246C5.95847 10.8076 5.89999 10.6664 5.89999 10.501L5.89999 10.499C5.89999 10.3336 5.95847 10.1924 6.07544 10.0755ZM8.07544 10.0755C8.1924 9.95851 8.33358 9.90002 8.49899 9.90002L8.50099 9.90002C8.6664 9.90002 8.80759 9.95851 8.92455 10.0755C9.04151 10.1924 9.09999 10.3336 9.09999 10.499L9.09999 10.501Q9.09999 10.7491 8.92455 10.9246C8.80759 11.0415 8.6664 11.1 8.50099 11.1L8.49899 11.1Q8.25088 11.1 8.07544 10.9246C7.95847 10.8076 7.89999 10.6664 7.89999 10.501L7.89999 10.499C7.89999 10.3336 7.95847 10.1924 8.07544 10.0755ZM6.07544 12.0755C6.1924 11.9585 6.33358 11.9 6.49899 11.9L6.50099 11.9C6.6664 11.9 6.80759 11.9585 6.92455 12.0755Q7.09999 12.2509 7.09999 12.499L7.09999 12.501C7.09999 12.6664 7.04151 12.8076 6.92455 12.9246C6.80759 13.0415 6.6664 13.1 6.50099 13.1L6.49899 13.1Q6.25088 13.1 6.07544 12.9246C5.95847 12.8076 5.89999 12.6664 5.89999 12.501L5.89999 12.499C5.89999 12.3336 5.95847 12.1924 6.07544 12.0755ZM8.07544 12.0755C8.1924 11.9585 8.33358 11.9 8.49899 11.9L8.50099 11.9C8.6664 11.9 8.80759 11.9585 8.92455 12.0755Q9.09999 12.2509 9.09999 12.499L9.09999 12.501C9.09999 12.6664 9.04151 12.8076 8.92455 12.9246C8.80759 13.0415 8.6664 13.1 8.50099 13.1L8.49899 13.1Q8.25088 13.1 8.07544 12.9246C7.95847 12.8076 7.89999 12.6664 7.89999 12.501L7.89999 12.499C7.89999 12.3336 7.95847 12.1924 8.07544 12.0755Z" id="Vector-Union" fill="#000000" fill-rule="evenodd" stroke="none" artboard="e500cba1-b0b2-447f-afb9-0ba0357e1fa7" />
  </g>
</svg>