<?xml version="1.0" encoding="utf-8"?>
<svg width="15px" height="15px" viewBox="0 0 15 15" version="1.1" xmlns:xlink="http://www.w3.org/1999/xlink" xmlns="http://www.w3.org/2000/svg">
  <defs>
    <rect width="15" height="15" id="artboard_1" />
    <clipPath id="clip_1">
      <use xlink:href="#artboard_1" clip-rule="evenodd" />
    </clipPath>
  </defs>
  <g id="icon--eightball" clip-path="url(#clip_1)">
    <path d="M7.5 0.900024C3.85492 0.900024 0.900002 3.85494 0.900002 7.50002C0.900002 11.1451 3.85492 14.1 7.5 14.1C11.1451 14.1 14.1 11.1451 14.1 7.50002C14.1 3.85494 11.1451 0.900024 7.5 0.900024L7.5 0.900024ZM3.5402 11.4598C2.44674 10.3664 1.9 9.04642 1.9 7.50002C1.9 5.95363 2.44674 4.63369 3.5402 3.54023C4.63367 2.44676 5.9536 1.90002 7.5 1.90002C9.0464 1.90002 10.3663 2.44676 11.4598 3.54023C12.5533 4.63369 13.1 5.95363 13.1 7.50002C13.1 9.04642 12.5533 10.3664 11.4598 11.4598C10.3663 12.5533 9.0464 13.1 7.5 13.1C5.9536 13.1 4.63367 12.5533 3.5402 11.4598L3.5402 11.4598ZM8.74674 7.25933C8.89325 7.33259 9.01884 7.41631 9.18628 7.55235C9.63628 7.93956 9.78279 8.57793 9.78279 9.08026C9.78279 9.57211 9.66767 10.1686 9.21767 10.5872C8.80953 10.9744 8.09791 11.1 7.50139 11.1C6.90488 11.1 6.19325 10.9744 5.78512 10.5872C5.33512 10.1686 5.22 9.57211 5.22 9.08026C5.22 8.57793 5.36651 7.93956 5.81651 7.55235C5.98395 7.41631 6.10954 7.33259 6.25605 7.25933C6.13046 7.18607 6.03628 7.11281 5.95256 7.03956C5.56535 6.66281 5.49209 6.11863 5.49209 5.70002C5.49209 5.29188 5.59674 4.72677 6.01535 4.33956C6.39209 4.00467 7.02 3.90002 7.50139 3.90002C7.98279 3.90002 8.6107 4.00467 8.98744 4.33956C9.40605 4.72677 9.5107 5.29188 9.5107 5.70002C9.5107 6.11863 9.43744 6.66281 9.05023 7.03956C8.96651 7.11281 8.87233 7.18607 8.74674 7.25933L8.74674 7.25933ZM7.5014 4.84186C7.2293 4.84186 6.95721 4.88372 6.77931 5.0407C6.6328 5.17674 6.55954 5.39651 6.55954 5.64767C6.55954 5.89884 6.59094 6.21279 6.74791 6.41162C6.90489 6.6 7.34442 6.79884 7.5014 6.86162C7.65838 6.79884 8.09791 6.6 8.25489 6.41162C8.41187 6.21279 8.44326 5.89884 8.44326 5.64767C8.44326 5.39651 8.37 5.17674 8.22349 5.0407C8.04559 4.88372 7.77349 4.84186 7.5014 4.84186L7.5014 4.84186ZM7.50139 10.1581C7.84673 10.1581 8.17116 10.1058 8.40139 9.90698C8.61069 9.75 8.70488 9.40466 8.70488 9.12209C8.70488 8.83954 8.65255 8.48373 8.41186 8.21163C8.20255 7.97093 7.67929 7.71977 7.50139 7.63605C7.32348 7.71977 6.80022 7.97093 6.59092 8.21163C6.35023 8.48373 6.2979 8.83954 6.2979 9.12209C6.2979 9.40466 6.39209 9.75 6.60139 9.90698C6.83162 10.1058 7.15604 10.1581 7.50139 10.1581L7.50139 10.1581Z" id="Vector" fill="#000000" fill-rule="evenodd" stroke="none" artboard="d7dbcb7c-842f-4963-9810-a0a7f2e6555c" />
  </g>
</svg>