<?xml version="1.0" encoding="utf-8"?>
<svg width="15px" height="15px" viewBox="0 0 15 15" version="1.1" xmlns:xlink="http://www.w3.org/1999/xlink" xmlns="http://www.w3.org/2000/svg">
  <defs>
    <rect width="15" height="15" id="artboard_1" />
    <clipPath id="clip_1">
      <use xlink:href="#artboard_1" clip-rule="evenodd" />
    </clipPath>
  </defs>
  <g id="icon--exit-full-screen" clip-path="url(#clip_1)">
    <path d="M9.499 2L9.501 2Q9.55015 2 9.59835 2.00959Q9.64655 2.01918 9.69196 2.03798Q9.73736 2.05679 9.77823 2.0841Q9.81909 2.1114 9.85385 2.14615Q9.8886 2.18091 9.9159 2.22177Q9.94321 2.26263 9.96202 2.30804Q9.98082 2.35345 9.99041 2.40165Q10 2.44985 10 2.499L10 5L12.501 5Q12.5501 5 12.5983 5.00959Q12.6466 5.01918 12.692 5.03798Q12.7374 5.05679 12.7782 5.0841Q12.8191 5.1114 12.8538 5.14615Q12.8886 5.18091 12.9159 5.22177Q12.9432 5.26263 12.962 5.30804Q12.9808 5.35345 12.9904 5.40165Q13 5.44985 13 5.499L13 5.501C13 5.77659 12.7766 6 12.501 6C11.5342 6 9.5 6 9.5 6C9.22386 6 9 5.77614 9 5.5L9 2.499C9 2.22341 9.22341 2 9.499 2ZM6 2.499C6 3.46579 6 5.5 6 5.5C6 5.77614 5.77614 6 5.5 6L2.499 6C2.22341 6 2 5.77659 2 5.501L2 5.499Q2 5.44985 2.00959 5.40165Q2.01918 5.35345 2.03798 5.30804Q2.05679 5.26263 2.0841 5.22177Q2.1114 5.18091 2.14615 5.14615Q2.18091 5.1114 2.22177 5.0841Q2.26263 5.05679 2.30804 5.03798Q2.35345 5.01918 2.40165 5.00959Q2.44985 5 2.499 5L5 5L5 2.499Q5 2.44985 5.00959 2.40165Q5.01918 2.35345 5.03798 2.30804Q5.05679 2.26263 5.0841 2.22177Q5.1114 2.18091 5.14615 2.14615Q5.18091 2.1114 5.22177 2.0841Q5.26263 2.05679 5.30804 2.03798Q5.35345 2.01918 5.40165 2.00959Q5.44985 2 5.499 2L5.501 2C5.77659 2 6 2.22341 6 2.499ZM6 9.5L6 12.501C6 12.7766 5.77659 13 5.501 13L5.499 13Q5.44985 13 5.40165 12.9904Q5.35345 12.9808 5.30804 12.962Q5.26263 12.9432 5.22177 12.9159Q5.18091 12.8886 5.14615 12.8538Q5.1114 12.8191 5.0841 12.7782Q5.05679 12.7374 5.03798 12.692Q5.01918 12.6466 5.00959 12.5983Q5 12.5501 5 12.501L5 10L2.499 10Q2.44985 10 2.40165 9.99041Q2.35345 9.98082 2.30804 9.96202Q2.26263 9.94321 2.22177 9.9159Q2.18091 9.8886 2.14615 9.85385Q2.1114 9.81909 2.0841 9.77823Q2.05679 9.73736 2.03798 9.69196Q2.01918 9.64655 2.00959 9.59835Q2 9.55015 2 9.501L2 9.499C2 9.22341 2.22341 9 2.499 9C3.46579 9 5.5 9 5.5 9C5.77614 9 6 9.22386 6 9.5ZM13 9.499L13 9.501Q13 9.55015 12.9904 9.59835Q12.9808 9.64655 12.962 9.69196Q12.9432 9.73736 12.9159 9.77823Q12.8886 9.81909 12.8538 9.85385Q12.8191 9.8886 12.7782 9.9159Q12.7374 9.94321 12.692 9.96202Q12.6466 9.98082 12.5983 9.99041Q12.5501 10 12.501 10L10 10L10 12.501Q10 12.5501 9.99041 12.5983Q9.98082 12.6466 9.96202 12.692Q9.94321 12.7374 9.9159 12.7782Q9.8886 12.8191 9.85385 12.8538Q9.81909 12.8886 9.77823 12.9159Q9.73736 12.9432 9.69196 12.962Q9.64655 12.9808 9.59835 12.9904Q9.55015 13 9.501 13L9.499 13C9.22341 13 9 12.7766 9 12.501C9 11.5342 9 9.5 9 9.5C9 9.22386 9.22386 9 9.5 9L12.501 9C12.7766 9 13 9.22341 13 9.499Z" id="Shape" fill="#000000" fill-rule="evenodd" stroke="none" artboard="9ad004b8-53ad-4a64-b273-6525b78ef592" />
  </g>
</svg>