<?xml version="1.0" encoding="utf-8"?>
<svg width="15px" height="15px" viewBox="0 0 15 15" version="1.1" xmlns:xlink="http://www.w3.org/1999/xlink" xmlns="http://www.w3.org/2000/svg">
  <defs>
    <rect width="15" height="15" id="artboard_1" />
    <clipPath id="clip_1">
      <use xlink:href="#artboard_1" clip-rule="evenodd" />
    </clipPath>
  </defs>
  <g id="icon--eye-off" clip-path="url(#clip_1)">
    <path d="M2.95355 2.24645L12.7317 12.0246C12.927 12.2199 12.927 12.5365 12.7317 12.7317C12.5365 12.927 12.2199 12.927 12.0246 12.7317L10.9198 11.6276C9.8741 12.1749 8.718 12.5 7.5023 12.5C4.35519 12.5 1.60755 10.2904 0.138178 7.74856L0 7.50001C0.738091 6.11645 1.84854 4.82771 3.19766 3.90521L2.24645 2.95356C2.05118 2.7583 2.05118 2.44171 2.24645 2.24645C2.44171 2.05119 2.75829 2.05119 2.95355 2.24645ZM1.3222 7.22996L1.15304 7.49733C2.62788 9.88062 5.0616 11.5 7.5023 11.5C8.41183 11.5 9.31794 11.2786 10.1721 10.8795L8.95017 9.65833C8.5359 9.93723 8.03696 10.1 7.5 10.1C6.06406 10.1 4.9 8.93594 4.9 7.5C4.9 6.96305 5.06277 6.4641 5.34167 6.04983L3.91978 4.62552C2.91644 5.27317 2.01984 6.16905 1.3222 7.22996ZM7.5 2.5C10.7482 2.5 13.5709 4.82199 15.0018 7.49974C14.414 8.60237 13.5898 9.64453 12.5968 10.4892L11.889 9.78174C12.5668 9.21853 13.1753 8.5375 13.6797 7.77009L13.85 7.499L13.833 7.47175C12.4287 5.19061 10.1176 3.61187 7.75346 3.5057L7.5 3.5C6.94379 3.5 6.38883 3.58284 5.84622 3.73852L5.05009 2.94346C5.82583 2.65964 6.64828 2.5 7.5 2.5ZM5.9 7.5C5.9 8.38366 6.61635 9.1 7.5 9.1C7.75976 9.1 8.00506 9.0381 8.22196 8.92825L6.07176 6.77805C5.9619 6.99494 5.9 7.24024 5.9 7.5ZM7.5 4.89999C8.93594 4.89999 10.1 6.06405 10.1 7.49999C10.1 7.65449 10.0865 7.80585 10.0607 7.95294L8.96541 6.85668C8.80431 6.49022 8.50977 6.19569 8.14332 6.03458L7.04605 4.93949C7.19346 4.91353 7.34515 4.89999 7.5 4.89999Z" id="Shape" fill="#000000" stroke="none" artboard="56b0ac88-d7c6-4a60-8149-250e556dcd58" />
  </g>
</svg>