<?xml version="1.0" encoding="utf-8"?>
<svg width="15px" height="15px" viewBox="0 0 15 15" version="1.1" xmlns:xlink="http://www.w3.org/1999/xlink" xmlns="http://www.w3.org/2000/svg">
  <defs>
    <rect width="15" height="15" id="artboard_1" />
    <clipPath id="clip_1">
      <use xlink:href="#artboard_1" clip-rule="evenodd" />
    </clipPath>
  </defs>
  <g id="icon--eye" clip-path="url(#clip_1)">
    <path d="M7.5 2.5C10.7482 2.5 13.5709 4.82199 15.0018 7.49974C13.5739 10.1783 10.7509 12.5 7.5023 12.5C4.35519 12.5 1.60755 10.2904 0.138178 7.74855L0 7.5C1.4284 4.82245 4.25137 2.5 7.5 2.5ZM7.5 3.5C5.13278 3.5 2.78819 5.0006 1.3222 7.22996L1.15305 7.49732C2.62788 9.88061 5.0616 11.5 7.5023 11.5C9.86995 11.5 12.2144 9.99952 13.6797 7.77009L13.85 7.499L13.833 7.47175C12.4287 5.19061 10.1176 3.61187 7.75346 3.5057L7.5 3.5ZM7.5 4.89999C8.93594 4.89999 10.1 6.06405 10.1 7.49999C10.1 8.93593 8.93594 10.1 7.5 10.1C6.06406 10.1 4.9 8.93593 4.9 7.49999C4.9 6.06405 6.06406 4.89999 7.5 4.89999ZM7.5 5.89999C6.61635 5.89999 5.9 6.61634 5.9 7.49999C5.9 8.38365 6.61635 9.09999 7.5 9.09999C8.38366 9.09999 9.1 8.38365 9.1 7.49999C9.1 6.66543 8.46104 5.9801 7.64563 5.90653L7.5 5.89999Z" id="Shape" fill="#000000" stroke="none" artboard="27c5f3a9-b5fb-4171-88fe-1817872eb5bb" />
  </g>
</svg>