<?xml version="1.0" encoding="utf-8"?>
<svg width="15px" height="15px" viewBox="0 0 15 15" version="1.1" xmlns:xlink="http://www.w3.org/1999/xlink" xmlns="http://www.w3.org/2000/svg">
  <defs>
    <rect width="15" height="15" id="artboard_1" />
    <clipPath id="clip_1">
      <use xlink:href="#artboard_1" clip-rule="evenodd" />
    </clipPath>
  </defs>
  <g id="icon--filter-cross" clip-path="url(#clip_1)">
    <path d="M10.088 9.37646L11.5022 10.89L12.9164 9.37646C13.1117 9.1812 13.4283 9.1812 13.6236 9.37646C13.8188 9.57172 13.8188 9.8883 13.6236 10.0836L12.1045 11.4978L13.6236 12.912C13.8188 13.1073 13.8188 13.4238 13.6236 13.6191C13.4283 13.8144 13.1117 13.8144 12.9164 13.6191L11.5022 12.1L10.088 13.6191C9.89276 13.8144 9.57618 13.8144 9.38091 13.6191C9.18565 13.4238 9.18565 13.1073 9.38091 12.912L10.8945 11.4978L9.38091 10.0836C9.18565 9.8883 9.18565 9.57172 9.38091 9.37646C9.57618 9.1812 9.89276 9.1812 10.088 9.37646ZM7.5 10C7.77614 10 8 10.2239 8 10.5C8 10.7761 7.77614 11 7.5 11L6.5 11C6.22386 11 6 10.7761 6 10.5C6 10.2239 6.22386 10 6.5 10L7.5 10ZM10.5 7C10.7761 7 11 7.22386 11 7.5C11 7.77614 10.7761 8 10.5 8L4.5 8C4.22386 8 4 7.77614 4 7.5C4 7.22386 4.22386 7 4.5 7L10.5 7ZM12.5 4C12.7761 4 13 4.22386 13 4.5C13 4.77614 12.7761 5 12.5 5L2.5 5C2.22386 5 2 4.77614 2 4.5C2 4.22386 2.22386 4 2.5 4L12.5 4Z" id="Shape" fill="#000000" fill-rule="evenodd" stroke="none" artboard="2b49625f-2fca-4014-815b-498a4ab777f4" />
  </g>
</svg>