<?xml version="1.0" encoding="utf-8"?>
<svg width="15px" height="15px" viewBox="0 0 15 15" version="1.1" xmlns:xlink="http://www.w3.org/1999/xlink" xmlns="http://www.w3.org/2000/svg">
  <defs>
    <rect width="15" height="15" id="artboard_1" />
    <clipPath id="clip_1">
      <use xlink:href="#artboard_1" clip-rule="evenodd" />
    </clipPath>
  </defs>
  <g id="icon--filter" clip-path="url(#clip_1)">
    <path d="M8.5 10C8.77614 10 9 10.2239 9 10.5C9 10.7761 8.77614 11 8.5 11L6.5 11C6.22386 11 6 10.7761 6 10.5C6 10.2239 6.22386 10 6.5 10L8.5 10ZM10.5 7C10.7761 7 11 7.22386 11 7.5C11 7.77614 10.7761 8 10.5 8L4.5 8C4.22386 8 4 7.77614 4 7.5C4 7.22386 4.22386 7 4.5 7L10.5 7ZM12.5 4C12.7761 4 13 4.22386 13 4.5C13 4.77614 12.7761 5 12.5 5L2.5 5C2.22386 5 2 4.77614 2 4.5C2 4.22386 2.22386 4 2.5 4L12.5 4Z" id="Shape" fill="#000000" fill-rule="evenodd" stroke="none" artboard="f6d5fb24-cf7a-4f44-95b6-10ecef0cc630" />
  </g>
</svg>