<?xml version="1.0" encoding="utf-8"?>
<svg width="15px" height="15px" viewBox="0 0 15 15" version="1.1" xmlns:xlink="http://www.w3.org/1999/xlink" xmlns="http://www.w3.org/2000/svg">
  <defs>
    <rect width="15" height="15" id="artboard_1" />
    <clipPath id="clip_1">
      <use xlink:href="#artboard_1" clip-rule="evenodd" />
    </clipPath>
  </defs>
  <g id="icon--flash" clip-path="url(#clip_1)">
    <path d="M8.51878 2.16601L7.667 6L11.9797 6Q12.0146 6 12.0491 6.00485Q12.0836 6.00969 12.1171 6.01929Q12.1507 6.02889 12.1825 6.04306Q12.2144 6.05722 12.2439 6.07568Q12.2735 6.09414 12.3002 6.11653Q12.3269 6.13891 12.3503 6.1648Q12.3736 6.19069 12.3931 6.21957Q12.4127 6.24845 12.428 6.27976Q12.4433 6.31108 12.4541 6.34422Q12.4649 6.37736 12.471 6.41168Q12.4771 6.446 12.4784 6.48084Q12.4797 6.51567 12.4761 6.55035Q12.4725 6.58502 12.4641 6.61886Q12.4557 6.6527 12.4427 6.68505Q12.4297 6.71739 12.4124 6.74762Q12.395 6.77784 12.3736 6.80536L7.36223 13.2486Q7.3493 13.2652 7.33502 13.2807Q7.32073 13.2961 7.3052 13.3104Q7.28966 13.3246 7.27298 13.3374Q7.25631 13.3503 7.23861 13.3617Q7.2209 13.3731 7.2023 13.383Q7.18371 13.3928 7.16434 13.4011Q7.14498 13.4094 7.12498 13.416Q7.10499 13.4226 7.08451 13.4275Q7.06403 13.4324 7.04321 13.4356Q7.02239 13.4387 7.00138 13.4401Q6.98037 13.4415 6.95932 13.4411Q6.93826 13.4408 6.91731 13.4386Q6.89637 13.4364 6.87568 13.4325Q6.85499 13.4286 6.8347 13.423Q6.81441 13.4173 6.79467 13.41Q6.77493 13.4027 6.75587 13.3937Q6.73682 13.3848 6.71859 13.3742Q6.70036 13.3637 6.68308 13.3516Q6.6658 13.3396 6.6496 13.3262Q6.6334 13.3127 6.61839 13.2979Q6.60338 13.2832 6.58966 13.2672Q6.57595 13.2512 6.56363 13.2341Q6.55131 13.217 6.54048 13.199Q6.52964 13.1809 6.52036 13.162Q6.51109 13.1431 6.50344 13.1235Q6.49579 13.1039 6.48982 13.0837Q6.48385 13.0635 6.4796 13.0429Q6.47535 13.0223 6.47286 13.0013Q6.47036 12.9804 6.46964 12.9594Q6.46891 12.9383 6.46996 12.9173Q6.47101 12.8963 6.47383 12.8754Q6.47665 12.8545 6.48122 12.834L7.333 9L3.02028 9Q2.98542 9 2.9509 8.99515Q2.91637 8.99031 2.88286 8.98071Q2.84935 8.97111 2.8175 8.95694Q2.78565 8.94278 2.75608 8.92432Q2.7265 8.90586 2.69979 8.88348Q2.67307 8.86109 2.64972 8.8352Q2.62637 8.80931 2.60685 8.78043Q2.58733 8.75155 2.57202 8.72024Q2.5567 8.68892 2.54589 8.65578Q2.53507 8.62264 2.52897 8.58832Q2.52287 8.554 2.52161 8.51917Q2.52034 8.48433 2.52392 8.44965Q2.52751 8.41498 2.53588 8.38114Q2.54426 8.3473 2.55725 8.31496Q2.57025 8.28261 2.58762 8.25239Q2.60499 8.22216 2.62639 8.19464L7.63777 1.75143Q7.6507 1.73481 7.66499 1.71934Q7.67927 1.70386 7.6948 1.68965Q7.71034 1.67543 7.72702 1.66258Q7.74369 1.64972 7.7614 1.63832Q7.7791 1.62691 7.7977 1.61704Q7.8163 1.60717 7.83566 1.59889Q7.85503 1.59062 7.87502 1.58401Q7.89501 1.5774 7.91549 1.5725Q7.93597 1.5676 7.95679 1.56444Q7.97761 1.56128 7.99862 1.55988Q8.01963 1.55849 8.04069 1.55887Q8.06174 1.55925 8.08269 1.5614Q8.10364 1.56356 8.12433 1.56747Q8.14502 1.57138 8.16531 1.57702Q8.18559 1.58266 8.20533 1.58999Q8.22508 1.59732 8.24413 1.60628Q8.26318 1.61525 8.28141 1.62579Q8.29964 1.63633 8.31692 1.64836Q8.3342 1.6604 8.3504 1.67385Q8.3666 1.6873 8.38161 1.70207Q8.39662 1.71684 8.41034 1.73282Q8.42405 1.7488 8.43637 1.76588Q8.44869 1.78296 8.45952 1.80101Q8.47036 1.81907 8.47964 1.83797Q8.48891 1.85688 8.49656 1.87649Q8.50421 1.89611 8.51018 1.91631Q8.51616 1.9365 8.5204 1.95712Q8.52465 1.97775 8.52715 1.99866Q8.52964 2.01957 8.53037 2.04061Q8.53109 2.06166 8.53004 2.08269Q8.52899 2.10372 8.52617 2.12459Q8.52335 2.14546 8.51878 2.16601L8.51878 2.16601ZM7.059 4.123L4.044 8L8.57955 8L7.94 10.876L10.955 7L6.42045 7L7.059 4.123Z" id="Combined-Shape" fill="#000000" stroke="none" artboard="5643c59a-81cf-4946-9fe6-c0c9e439426e" />
  </g>
</svg>