<?xml version="1.0" encoding="utf-8"?>
<svg width="15px" height="15px" viewBox="0 0 15 15" version="1.1" xmlns:xlink="http://www.w3.org/1999/xlink" xmlns="http://www.w3.org/2000/svg">
  <defs>
    <rect width="15" height="15" id="artboard_1" />
    <clipPath id="clip_1">
      <use xlink:href="#artboard_1" clip-rule="evenodd" />
    </clipPath>
  </defs>
  <g id="icon--forbidden" clip-path="url(#clip_1)">
    <path d="M7.5 0.899994C11.1451 0.899994 14.1 3.85491 14.1 7.49999C14.1 11.1451 11.1451 14.1 7.5 14.1C3.85492 14.1 0.9 11.1451 0.9 7.49999C0.9 3.85491 3.85492 0.899994 7.5 0.899994ZM11.7978 3.90964L3.90965 11.7978C4.8817 12.6107 6.13371 13.1 7.5 13.1C10.5928 13.1 13.1 10.5928 13.1 7.49999C13.1 6.1337 12.6107 4.88169 11.7978 3.90964ZM7.5 1.89999C4.4072 1.89999 1.9 4.4072 1.9 7.49999C1.9 8.86628 2.3893 10.1183 3.20222 11.0903L11.0904 3.20222C10.1183 2.38929 8.86629 1.89999 7.5 1.89999Z" id="Shape" fill="#000000" fill-rule="evenodd" stroke="none" artboard="38524a2d-3b11-4cc2-ad0a-069b529c668e" />
  </g>
</svg>