<?xml version="1.0" encoding="utf-8"?>
<svg width="15px" height="15px" viewBox="0 0 15 15" version="1.1" xmlns:xlink="http://www.w3.org/1999/xlink" xmlns="http://www.w3.org/2000/svg">
  <defs>
    <rect width="15" height="15" id="artboard_1" />
    <clipPath id="clip_1">
      <use xlink:href="#artboard_1" clip-rule="evenodd" />
    </clipPath>
  </defs>
  <g id="icon--funnel-plus" clip-path="url(#clip_1)">
    <path d="M1.6619 2.81367L6.0008 8.15385L6.0008 13L7 12.6669L7 10L7.00079 10L7.00079 7.79881L3.10176 3L11.8998 3L8.0008 7.79881L8.0008 10L9.0008 10L9.0008 8.15385L13.3397 2.81367C13.4004 2.73896 13.4365 2.65383 13.4479 2.55826C13.4593 2.46269 13.4443 2.37145 13.403 2.28454C13.3616 2.19764 13.3002 2.12848 13.2189 2.07709C13.1375 2.0257 13.0487 2 12.9524 2L2.04918 2C1.95293 2 1.86411 2.0257 1.78273 2.07709C1.70135 2.12848 1.63998 2.19764 1.59861 2.28454C1.55725 2.37145 1.54228 2.46269 1.55371 2.55826C1.56514 2.65383 1.6012 2.73896 1.6619 2.81367L1.6619 2.81367ZM10.5 9C10.7761 9 11 9.22386 11 9.5L11 11L12.5 11C12.7761 11 13 11.2239 13 11.5C13 11.7761 12.7761 12 12.5 12L11 12L11 13.5C11 13.7761 10.7761 14 10.5 14C10.2239 14 10 13.7761 10 13.5L10 12L8.5 12C8.22386 12 8 11.7761 8 11.5C8 11.2239 8.22386 11 8.5 11L10 11L10 9.5C10 9.22386 10.2239 9 10.5 9L10.5 9Z" id="Vector" fill="#000000" fill-rule="evenodd" stroke="none" artboard="be80a8dd-9a3d-43ac-b190-ca0852e40e6c" />
  </g>
</svg>