<?xml version="1.0" encoding="utf-8"?>
<svg width="15px" height="15px" viewBox="0 0 15 15" version="1.1" xmlns:xlink="http://www.w3.org/1999/xlink" xmlns="http://www.w3.org/2000/svg">
  <defs>
    <rect width="15" height="15" id="artboard_1" />
    <clipPath id="clip_1">
      <use xlink:href="#artboard_1" clip-rule="evenodd" />
    </clipPath>
  </defs>
  <g id="icon--funnel-cross" clip-path="url(#clip_1)">
    <path d="M1.6619 2.81367L6.0008 8.15385L6.0008 13L7 12.6669L7 8.39999L7.00079 8.39999L7.00079 7.79881L3.10176 3L11.8998 3L8.0008 7.79881L8.0008 8.39999L9.0008 8.39999L9.0008 8.15385L13.3397 2.81367C13.4004 2.73896 13.4365 2.65383 13.4479 2.55826C13.4593 2.46269 13.4443 2.37145 13.403 2.28454C13.3616 2.19764 13.3002 2.12848 13.2189 2.07709C13.1375 2.0257 13.0487 2 12.9524 2L2.04918 2C1.95293 2 1.86411 2.0257 1.78273 2.07709C1.70135 2.12848 1.63998 2.19764 1.59861 2.28454C1.55725 2.37145 1.54228 2.46269 1.55371 2.55826C1.56514 2.65383 1.6012 2.73896 1.6619 2.81367L1.6619 2.81367ZM9.08355 9.37643L10.4978 10.89L11.912 9.37643C12.1072 9.18116 12.4238 9.18116 12.6191 9.37643C12.8143 9.57169 12.8143 9.88827 12.6191 10.0835L11.1 11.4977L12.6191 12.912C12.8143 13.1072 12.8143 13.4238 12.6191 13.6191C12.4238 13.8143 12.1072 13.8143 11.912 13.6191L10.4978 12.1L9.08355 13.6191C8.88829 13.8143 8.57171 13.8143 8.37645 13.6191C8.18118 13.4238 8.18118 13.1072 8.37645 12.912L9.89 11.4977L8.37645 10.0835C8.18118 9.88827 8.18118 9.57169 8.37645 9.37643C8.57171 9.18116 8.88829 9.18116 9.08355 9.37643L9.08355 9.37643Z" id="Vector" fill="#000000" fill-rule="evenodd" stroke="none" artboard="0be9b8b2-8ac5-4df0-a8e0-336aac383c11" />
  </g>
</svg>