<?xml version="1.0" encoding="utf-8"?>
<svg width="15px" height="15px" viewBox="0 0 15 15" version="1.1" xmlns:xlink="http://www.w3.org/1999/xlink" xmlns="http://www.w3.org/2000/svg">
  <defs>
    <rect width="15" height="15" id="artboard_1" />
    <clipPath id="clip_1">
      <use xlink:href="#artboard_1" clip-rule="evenodd" />
    </clipPath>
  </defs>
  <g id="icon--gear" clip-path="url(#clip_1)">
    <path d="M7.6 1C8.02168 1 8.43418 1.03963 8.83397 1.11537L8.9845 2.61979C9.30432 2.71709 9.61087 2.84499 9.90072 3.00008L11.1097 2.01078C11.8654 2.48665 12.5181 3.11151 13.0263 3.84402L11.9999 5.09928C12.155 5.38913 12.2829 5.69568 12.3802 6.0155L14.047 6.18202C14.1472 6.63883 14.2 7.1133 14.2 7.6C14.2 8.01428 14.1617 8.4197 14.0886 8.81292L12.3802 8.9845C12.2829 9.30432 12.155 9.61087 11.9999 9.90072L13.101 11.246C12.6126 11.981 11.981 12.6126 11.246 13.101L9.90072 11.9999C9.61087 12.155 9.30432 12.2829 8.9845 12.3802L8.81292 14.0886C8.4197 14.1617 8.01428 14.2 7.6 14.2C7.1133 14.2 6.63883 14.1472 6.18202 14.047L6.0155 12.3802C5.69568 12.2829 5.38913 12.155 5.09928 11.9999L3.84402 13.0263C3.11151 12.5181 2.48665 11.8654 2.01078 11.1097L3.00008 9.90072C2.84499 9.61087 2.71709 9.30432 2.61979 8.9845L1.11537 8.83397C1.03963 8.43418 1 8.02168 1 7.6C1 7.10619 1.05435 6.62497 1.15739 6.16201L2.61979 6.0155C2.71709 5.69568 2.84499 5.38913 3.00008 5.09928L2.08296 3.97825C2.57883 3.22483 3.22483 2.57883 3.97825 2.08296L5.09928 3.00008C5.38913 2.84499 5.69568 2.71709 6.0155 2.61979L6.16201 1.15739C6.62497 1.05435 7.10619 1 7.6 1ZM7.6 1.84C7.4578 1.84 7.31631 1.84515 7.17573 1.85539L6.933 1.878L6.79551 3.26051L6.25998 3.42343C6.08339 3.47715 5.91081 3.54232 5.74318 3.61843L5.49557 3.74072L5.00128 4.0052L3.95 3.145L3.7413 3.32523C3.59568 3.45679 3.45679 3.59568 3.32523 3.7413L3.145 3.95L4.0052 5.00128L3.74072 5.49557C3.65381 5.65801 3.57757 5.82587 3.51253 5.99822L3.42343 6.25998L3.26051 6.79551L1.878 6.933L1.87455 6.96556C1.86307 7.07028 1.85443 7.17557 1.84866 7.28133L1.84 7.6C1.84 7.69123 1.84212 7.78216 1.84634 7.87275L1.859 8.064L3.26049 8.20441L3.42343 8.74002C3.47715 8.91661 3.54232 9.08919 3.61843 9.25682L3.74072 9.50443L4.00524 9.99879L3.064 11.148L3.24187 11.3644C3.36888 11.5113 3.5032 11.6517 3.64428 11.7851L3.83 11.952L5.00141 10.9949L5.49557 11.2593C5.65801 11.3462 5.82587 11.4224 5.99822 11.4875L6.25998 11.5766L6.79568 11.7395L6.953 13.323L6.9745 13.3264C7.07777 13.3376 7.18158 13.346 7.28585 13.3516L7.6 13.36C7.68964 13.36 7.779 13.358 7.86803 13.3539L8.043 13.341L8.20463 11.7394L8.74002 11.5766C8.91661 11.5228 9.08919 11.4577 9.25682 11.3816L9.50443 11.2593L9.99886 10.9947L11.271 12.036L11.4634 11.8705C11.6057 11.7416 11.7416 11.6057 11.8705 11.4634L12.036 11.271L10.9947 9.99886L11.2593 9.50443C11.3462 9.34199 11.4224 9.17413 11.4875 9.00178L11.5766 8.74002L11.7394 8.20463L13.341 8.043L13.3539 7.86803L13.36 7.6C13.36 7.45982 13.355 7.32034 13.345 7.18174L13.323 6.953L11.7395 6.79568L11.5766 6.25998C11.5228 6.08339 11.4577 5.91081 11.3816 5.74318L11.2593 5.49557L10.9949 5.00141L11.952 3.83L11.7851 3.64428C11.6517 3.5032 11.5113 3.36888 11.3644 3.24187L11.148 3.064L9.99879 4.00524L9.50443 3.74072C9.34199 3.65381 9.17413 3.57757 9.00178 3.51253L8.74002 3.42343L8.20441 3.26049L8.064 1.859L7.87275 1.84634L7.6 1.84ZM7.5 5C8.88011 5 10 6.11989 10 7.5C10 8.88011 8.88011 10 7.5 10C6.11989 10 5 8.88011 5 7.5C5 6.11989 6.11989 5 7.5 5ZM7.5 5.9C6.61695 5.9 5.9 6.61695 5.9 7.5C5.9 8.38305 6.61695 9.1 7.5 9.1C8.38305 9.1 9.1 8.38305 9.1 7.5C9.1 6.61695 8.38305 5.9 7.5 5.9Z" id="Shape" fill="#000000" fill-rule="evenodd" stroke="none" artboard="6f74a4ae-375a-46e7-b5f9-07f2b685f8d4" />
  </g>
</svg>