<?xml version="1.0" encoding="utf-8"?>
<svg width="15px" height="15px" viewBox="0 0 15 15" version="1.1" xmlns:xlink="http://www.w3.org/1999/xlink" xmlns="http://www.w3.org/2000/svg">
  <defs>
    <rect width="15" height="15" id="artboard_1" />
    <clipPath id="clip_1">
      <use xlink:href="#artboard_1" clip-rule="evenodd" />
    </clipPath>
  </defs>
  <g id="icon--gesture-swipe-left" clip-path="url(#clip_1)">
    <path d="M8.56097 1.3678C8.26822 1.0752 7.9149 0.928894 7.50101 0.928833L7.49901 0.928833C7.08512 0.928833 6.73182 1.07513 6.43911 1.3678C6.1464 1.66046 6.00003 2.01385 6 2.42786L6 7.99005L5.13622 7.49353C4.78021 7.28888 4.40035 7.22418 3.99663 7.29944C3.59477 7.37433 3.26493 7.56995 3.00711 7.88635L3.00351 7.89093C2.74321 8.21436 2.62706 8.58093 2.65508 8.99066C2.68322 9.40228 2.84771 9.74927 3.14858 10.0316L7.30211 13.929L12.501 13.929C13.1911 13.929 13.7801 13.685 14.2681 13.1971C14.756 12.709 15 12.12 15 11.43L15 8.22784C15 7.86908 14.8732 7.56287 14.6195 7.30927C14.3659 7.05566 14.0597 6.92889 13.701 6.92883L13.299 6.92883C13.1861 6.92883 13.0784 6.94141 12.9758 6.96655C12.928 6.71808 12.8093 6.49902 12.6196 6.30927C12.3659 6.05566 12.0597 5.92883 11.701 5.92883L11.299 5.92883C11.1861 5.92883 11.0784 5.94141 10.9758 5.96655C10.928 5.71796 10.8092 5.49884 10.6195 5.3092C10.3659 5.0556 10.0597 4.92883 9.70101 4.92883L9.299 4.92883C9.19493 4.92883 9.09527 4.93951 9 4.96088L9 2.42786C9 2.01385 8.85366 1.66046 8.56097 1.3678ZM3.33196 1.95788C3.51298 1.77686 3.51298 1.43179 3.33196 1.25077C3.15094 1.06975 2.83416 1.04146 2.65314 1.22249L0.735766 3.13986C0.554743 3.32088 0.554743 3.66594 0.735766 3.84697L2.65314 5.76434C2.83416 5.94536 3.15094 5.91708 3.33196 5.73605C3.51298 5.55503 3.51298 5.20997 3.33196 5.02895L2.177 3.99504L4.8 3.99503C5.07614 3.99503 5.29999 3.77118 5.29999 3.49503C5.29999 3.21889 5.07614 2.99503 4.8 2.99503L2.174 2.99404L3.33196 1.95788ZM10 7.22784L11 7.22784C11 7.14526 11.0292 7.07477 11.0875 7.01642C11.1459 6.95801 11.2164 6.92883 11.299 6.92883L11.701 6.92883C11.7836 6.92883 11.854 6.95801 11.9124 7.0163C11.9708 7.07471 12 7.14526 12 7.22784L12 8.22784L13 8.22784C13 8.14526 13.0292 8.07477 13.0876 8.01642C13.146 7.95801 13.2164 7.92877 13.299 7.92883L13.701 7.92883C13.7836 7.92883 13.854 7.95801 13.9124 8.01642C13.9708 8.07477 14 8.14526 14 8.22784L14 11.43C14 12.4293 13.5003 12.929 12.501 12.929L7.69782 12.929L3.83287 9.30237Q3.66814 9.14774 3.65274 8.92242C3.64246 8.77222 3.6831 8.6405 3.77465 8.5274L3.78058 8.52026C3.88447 8.39197 4.01755 8.31268 4.17982 8.28247C4.34204 8.25226 4.49472 8.27826 4.63787 8.36047L7 9.71826L7 2.42786C7 2.29004 7.04871 2.17242 7.14611 2.07495Q7.29227 1.92883 7.499 1.92883L7.501 1.92883C7.63883 1.92877 7.75644 1.97748 7.85384 2.07495C7.95128 2.17242 8 2.29004 8 2.42786L8 6.22784L9 6.22784C9 6.14526 9.02919 6.07477 9.08757 6.01642C9.14597 5.95801 9.21644 5.92883 9.29899 5.92883L9.701 5.92883C9.78356 5.92883 9.85406 5.95807 9.91251 6.01648C9.97084 6.07477 10 6.14526 10 6.22784L10 7.22784Z" id="Vector-Union" fill="#000000" fill-rule="evenodd" stroke="none" artboard="face9007-0ed6-4874-9ee3-fe5730b6142b" />
  </g>
</svg>