<?xml version="1.0" encoding="utf-8"?>
<svg width="15px" height="15.099976px" viewBox="0 0 15 15.099976" version="1.1" xmlns:xlink="http://www.w3.org/1999/xlink" xmlns="http://www.w3.org/2000/svg">
  <defs>
    <path d="M8 5.6C8.27614 5.6 8.5 5.82386 8.5 6.1C8.5 6.37614 8.27614 6.6 8 6.6L4 6.6C3.72386 6.6 3.5 6.37614 3.5 6.1C3.5 5.82386 3.72386 5.6 4 5.6L8 5.6Z" id="path_1" />
    <rect width="15" height="15.099998" id="artboard_1" />
    <clipPath id="clip_1">
      <use xlink:href="#artboard_1" clip-rule="evenodd" />
    </clipPath>
    <clipPath id="clip_2">
      <use xlink:href="#path_1" />
    </clipPath>
  </defs>
  <g id="icon--gesture_lens-minus" clip-path="url(#clip_1)">
    <use xlink:href="#artboard_1" stroke="none" fill="#FFFFFF" />
    <path d="M6 2C8.26437 2 10.1 3.83563 10.1 6.1C10.1 7.05212 9.77545 7.92844 9.23096 8.62436L13.0426 12.4355C13.2379 12.6308 13.2379 12.9474 13.0426 13.1426C12.8474 13.3379 12.5308 13.3379 12.3355 13.1426L8.52436 9.33096C7.82844 9.87545 6.95212 10.2 6 10.2C3.73563 10.2 1.9 8.36437 1.9 6.1C1.9 3.83563 3.73563 2 6 2L6 2ZM6 3C4.28792 3 2.9 4.38792 2.9 6.1C2.9 7.81208 4.28792 9.2 6 9.2C7.71208 9.2 9.1 7.81208 9.1 6.1C9.1 4.38792 7.71208 3 6 3L6 3Z" id="Vector" fill="#000000" fill-rule="evenodd" stroke="none" artboard="5ff3ef65-acd2-4632-976e-ce628cfc896d" />
    <g id="Path" artboard="f1bab629-8a6f-468a-8660-b24cfb2f6e4e">
      <g clip-path="url(#clip_2)">
        <use xlink:href="#path_1" fill="none" stroke="#000000" stroke-width="2" />
      </g>
    </g>
  </g>
</svg>