<?xml version="1.0" encoding="utf-8"?>
<svg width="15px" height="15px" viewBox="0 0 15 15" version="1.1" xmlns:xlink="http://www.w3.org/1999/xlink" xmlns="http://www.w3.org/2000/svg">
  <defs>
    <rect width="15" height="15" id="artboard_1" />
    <clipPath id="clip_1">
      <use xlink:href="#artboard_1" clip-rule="evenodd" />
    </clipPath>
  </defs>
  <g id="icon--gesture-swipe-right" clip-path="url(#clip_1)">
    <path d="M6.56097 1.3678C6.26823 1.0752 5.9149 0.928894 5.50101 0.928833L5.49902 0.928833C5.08513 0.928833 4.73183 1.07513 4.43911 1.3678C4.1464 1.66046 4.00003 2.01385 4.00001 2.42786L4.00001 7.99005L3.13622 7.49353C2.78021 7.28888 2.40035 7.22418 1.99664 7.29944C1.59477 7.37433 1.26493 7.56995 1.00711 7.88635L1.00352 7.89093C0.74321 8.21436 0.62706 8.58093 0.655083 8.99066C0.68322 9.40228 0.847717 9.74927 1.14858 10.0316L5.30212 13.929L10.501 13.929C11.1911 13.929 11.7801 13.685 12.2681 13.1971C12.756 12.709 13 12.12 13 11.43L13 8.22784C13 7.86908 12.8732 7.56287 12.6195 7.30927C12.3659 7.05566 12.0597 6.92889 11.701 6.92883L11.299 6.92883C11.1861 6.92883 11.0784 6.94141 10.9758 6.96655C10.928 6.71808 10.8093 6.49902 10.6196 6.30927C10.3659 6.05566 10.0597 5.92883 9.70102 5.92883L9.29902 5.92883C9.18612 5.92883 9.07839 5.94141 8.97584 5.96655C8.92802 5.71796 8.80923 5.49884 8.61948 5.3092C8.36587 5.0556 8.05972 4.92883 7.70101 4.92883L7.299 4.92883C7.19494 4.92883 7.09528 4.93951 7.00001 4.96088L7.00001 2.42786C7.00001 2.01385 6.85366 1.66046 6.56097 1.3678ZM11.668 1.95788C11.487 1.77686 11.487 1.43179 11.668 1.25077C11.8491 1.06975 12.1658 1.04146 12.3469 1.22249L14.2642 3.13986C14.4452 3.32088 14.4452 3.66594 14.2642 3.84697L12.3469 5.76434C12.1658 5.94536 11.8491 5.91708 11.668 5.73605C11.487 5.55503 11.487 5.20997 11.668 5.02895L12.823 3.99504L10.2 3.99503C9.92385 3.99503 9.7 3.77118 9.7 3.49503C9.7 3.21889 9.92385 2.99503 10.2 2.99503L12.826 2.99404L11.668 1.95788ZM8.00001 7.22784L9.00001 7.22784C9.00001 7.14526 9.02918 7.07477 9.08752 7.01642C9.14594 6.95801 9.21643 6.92883 9.29901 6.92883L9.70101 6.92883C9.78359 6.92883 9.85405 6.95801 9.91238 7.0163C9.9708 7.07471 10 7.14526 10 7.22784L10 8.22784L11 8.22784C11 8.14526 11.0292 8.07477 11.0876 8.01642C11.146 7.95801 11.2165 7.92877 11.299 7.92883L11.701 7.92883C11.7836 7.92883 11.8541 7.95801 11.9124 8.01642C11.9708 8.07477 12 8.14526 12 8.22784L12 11.43C12 12.4293 11.5003 12.929 10.501 12.929L5.69782 12.929L1.83287 9.30237Q1.66814 9.14774 1.65274 8.92242C1.64246 8.77222 1.68311 8.6405 1.77465 8.5274L1.78059 8.52026C1.88448 8.39197 2.01756 8.31268 2.17982 8.28247C2.34205 8.25226 2.49473 8.27826 2.63788 8.36047L5 9.71826L5 2.42786C5.00001 2.29004 5.04871 2.17242 5.14612 2.07495Q5.29227 1.92883 5.49901 1.92883L5.50101 1.92883C5.63883 1.92877 5.75645 1.97748 5.85384 2.07495C5.95128 2.17242 6 2.29004 6 2.42786L6 6.22784L7 6.22784C7 6.14526 7.02919 6.07477 7.08757 6.01642C7.14597 5.95801 7.21645 5.92883 7.299 5.92883L7.701 5.92883C7.78356 5.92883 7.85407 5.95807 7.91251 6.01648C7.97084 6.07477 8.00001 6.14526 8.00001 6.22784L8.00001 7.22784Z" id="Vector-Union" fill="#000000" fill-rule="evenodd" stroke="none" artboard="6813ce17-0945-4248-a221-f9f3cf1aa8c2" />
  </g>
</svg>