<?xml version="1.0" encoding="utf-8"?>
<svg width="15px" height="15px" viewBox="0 0 15 15" version="1.1" xmlns:xlink="http://www.w3.org/1999/xlink" xmlns="http://www.w3.org/2000/svg">
  <defs>
    <rect width="15" height="15" id="artboard_1" />
    <clipPath id="clip_1">
      <use xlink:href="#artboard_1" clip-rule="evenodd" />
    </clipPath>
  </defs>
  <g id="icon--globe" clip-path="url(#clip_1)">
    <path d="M12.9637 9.03334C13.1003 8.54562 13.1733 8.03134 13.1733 7.50001C13.1733 6.96867 13.1003 6.4544 12.9637 5.96667L10.1127 5.96667C10.1589 6.43447 10.1833 6.92214 10.1833 7.42334C10.1833 7.97956 10.1532 8.51911 10.0967 9.03334L12.9637 9.03334L12.9637 9.03334ZM12.6878 9.79999L9.98991 9.79999C9.75458 11.1852 9.31965 12.3289 8.76961 13.0307C10.526 12.6292 11.9718 11.4125 12.6878 9.79999ZM2.0363 9.03334L4.9033 9.03334C4.84676 8.51911 4.81667 7.97956 4.81667 7.42334C4.81667 6.92214 4.8411 6.43447 4.8873 5.96667L2.0363 5.96667C1.89971 6.4544 1.82667 6.96867 1.82667 7.50001C1.82667 8.03134 1.89971 8.54562 2.0363 9.03334ZM2.31224 9.79999C3.02824 11.4125 4.47403 12.6292 6.23039 13.0307C5.68035 12.3289 5.24542 11.1852 5.01008 9.79999L2.31224 9.79999ZM9.32327 9.03334C9.38324 8.52547 9.41667 7.98536 9.41667 7.42334C9.41667 6.91753 9.38959 6.42946 9.34046 5.96667L5.65954 5.96667C5.6104 6.42946 5.58333 6.91753 5.58333 7.42334C5.58333 7.98536 5.61675 8.52547 5.67673 9.03334L9.32327 9.03334ZM9.20877 9.79999L5.79123 9.79999C6.13731 11.7017 6.85717 12.9912 7.5 12.9912C8.14283 12.9912 8.86268 11.7017 9.20877 9.79999ZM12.6878 5.19999C11.9904 3.62933 10.6006 2.43426 8.90585 2.0022C9.41081 2.74019 9.80486 3.86384 10.015 5.19999L12.6878 5.19999ZM2.31224 5.19999L4.98501 5.19999C5.19514 3.86384 5.58919 2.74019 6.09415 2.0022C4.39941 2.43426 3.00964 3.62933 2.31224 5.19999ZM9.23563 5.19999C8.90111 3.21464 8.15996 1.85541 7.5 1.85541C6.84004 1.85541 6.09889 3.21464 5.76436 5.19999L9.23563 5.19999ZM7.5 14.1C3.85492 14.1 0.9 11.1451 0.9 7.49999C0.9 3.85491 3.85492 0.899994 7.5 0.899994C11.1451 0.899994 14.1 3.85491 14.1 7.49999C14.1 11.1451 11.1451 14.1 7.5 14.1Z" id="Shape" fill="#000000" fill-rule="evenodd" stroke="none" artboard="dc379432-4da1-4a2b-a114-d77e4160fcd4" />
  </g>
</svg>