<?xml version="1.0" encoding="utf-8"?>
<svg width="15px" height="15px" viewBox="0 0 15 15" version="1.1" xmlns:xlink="http://www.w3.org/1999/xlink" xmlns="http://www.w3.org/2000/svg">
  <defs>
    <rect width="15" height="15" id="artboard_1" />
    <clipPath id="clip_1">
      <use xlink:href="#artboard_1" clip-rule="evenodd" />
    </clipPath>
  </defs>
  <g id="icon--heart" clip-path="url(#clip_1)">
    <path d="M10.2887 1.39999C9.28232 1.39999 8.29385 1.7372 7.65205 2.35391L7.49721 2.50898L7.35521 2.36104C6.73053 1.73392 5.7373 1.39999 4.71127 1.39999C2.56716 1.39999 0.9 3.08439 0.9 5.23915C0.9 6.87829 1.75495 8.32675 3.68862 10.283C5.62229 12.2393 7.02946 13.3284 7.02946 13.3284C7.30326 13.5521 7.69673 13.5521 7.97054 13.3284C7.97054 13.3284 9.05203 12.4294 11.0811 10.5148C12.7385 8.95092 14.1 6.74541 14.1 5.23915C14.1 3.08439 12.4328 1.39999 10.2887 1.39999ZM10.2887 2.32957C11.9173 2.32957 13.1704 3.59566 13.1704 5.23915C13.1704 6.41623 11.8619 8.41626 10.4231 9.85822C8.98433 11.3002 7.5 12.5122 7.5 12.5122C7.5 12.5122 6.51881 11.7772 4.5795 9.8593C2.64019 7.9414 1.82958 6.62784 1.82958 5.23915C1.82958 3.59566 3.08271 2.32957 4.71127 2.32957C5.50868 2.32957 6.26513 2.58389 6.69662 3.01707C6.88835 3.20955 7.03174 3.38527 7.09224 3.49585L7.31584 3.9046C7.4216 4.09792 7.59072 4.09666 7.69358 3.90178C7.79943 3.70121 7.91105 3.48973 7.91105 3.48973C7.97365 3.37111 8.10889 3.20411 8.29612 3.0242C8.75026 2.58781 9.50724 2.32957 10.2887 2.32957Z" id="Path" fill="#000000" stroke="none" artboard="1511879d-8fb4-460b-8f60-30dab2364944" />
  </g>
</svg>