<?xml version="1.0" encoding="utf-8"?>
<svg width="15px" height="15px" viewBox="0 0 15 15" version="1.1" xmlns:xlink="http://www.w3.org/1999/xlink" xmlns="http://www.w3.org/2000/svg">
  <defs>
    <rect width="15" height="15" id="artboard_1" />
    <clipPath id="clip_1">
      <use xlink:href="#artboard_1" clip-rule="evenodd" />
    </clipPath>
  </defs>
  <g id="icon--info" clip-path="url(#clip_1)">
    <path d="M8.5 6C8.74546 6 8.94961 6.17688 8.99194 6.41012L9 6.5L9 11L10 11L10 12L6 12L6 11L7 11L7 7L6 7L6 6L8.5 6ZM8 2.89999C8.60752 2.89999 9.1 3.39248 9.1 3.99999C9.1 4.60751 8.60752 5.09999 8 5.09999C7.39249 5.09999 6.9 4.60751 6.9 3.99999C6.9 3.39248 7.39249 2.89999 8 2.89999Z" id="Shape" fill="#000000" fill-rule="evenodd" stroke="none" artboard="437fb23c-cb79-41cc-9f79-4e28a040776a" />
  </g>
</svg>