<?xml version="1.0" encoding="utf-8"?>
<svg width="15px" height="15px" viewBox="0 0 15 15" version="1.1" xmlns:xlink="http://www.w3.org/1999/xlink" xmlns="http://www.w3.org/2000/svg">
  <defs>
    <rect width="15" height="15" id="artboard_1" />
    <clipPath id="clip_1">
      <use xlink:href="#artboard_1" clip-rule="evenodd" />
    </clipPath>
  </defs>
  <g id="icon--info-circled" clip-path="url(#clip_1)">
    <path d="M7.5 0.899994C11.1451 0.899994 14.1 3.85491 14.1 7.49999C14.1 11.1451 11.1451 14.1 7.5 14.1C3.85492 14.1 0.9 11.1451 0.9 7.49999C0.9 3.85491 3.85492 0.899994 7.5 0.899994ZM7.5 1.89999C4.40721 1.89999 1.9 4.4072 1.9 7.49999C1.9 10.5928 4.40721 13.1 7.5 13.1C10.5928 13.1 13.1 10.5928 13.1 7.49999C13.1 4.4072 10.5928 1.89999 7.5 1.89999Z" id="Combined-Shape" fill="#000000" fill-rule="evenodd" stroke="none" artboard="e1571358-7358-4d98-943d-9204cb12ee44" />
    <path d="M9 11L9 10L8 10L8 6.499Q8 6.44985 7.99041 6.40165Q7.98082 6.35345 7.96201 6.30804Q7.94321 6.26263 7.9159 6.22177Q7.8886 6.18091 7.85385 6.14615Q7.81909 6.1114 7.77823 6.0841Q7.73736 6.05679 7.69196 6.03798Q7.64655 6.01918 7.59835 6.00959Q7.55015 6 7.501 6L6 6L6 7L7 7L7 10L6 10L6 11L9 11Z" id="Path" fill="#000000" fill-rule="evenodd" stroke="none" artboard="741a5f92-ae63-42c9-9a02-9aee9b3bc934" />
    <path d="M7.499 3.89999L7.501 3.89999Q7.56 3.89999 7.61786 3.9115Q7.67572 3.92301 7.73023 3.94559Q7.78473 3.96817 7.83379 4.00094Q7.88284 4.03372 7.92456 4.07544Q7.96627 4.11715 7.99905 4.16621Q8.03183 4.21526 8.0544 4.26977Q8.07698 4.32427 8.08849 4.38213Q8.1 4.44 8.1 4.49899L8.1 4.50099Q8.1 4.55999 8.08849 4.61785Q8.07698 4.67571 8.0544 4.73022Q8.03183 4.78473 7.99905 4.83378Q7.96627 4.88283 7.92456 4.92455Q7.88284 4.96627 7.83379 4.99904Q7.78473 5.03182 7.73023 5.0544Q7.67572 5.07697 7.61786 5.08848Q7.56 5.09999 7.501 5.09999L7.499 5.09999Q7.44 5.09999 7.38214 5.08848Q7.32428 5.07697 7.26977 5.0544Q7.21527 5.03182 7.16621 4.99904Q7.11716 4.96627 7.07544 4.92455Q7.03373 4.88283 7.00095 4.83378Q6.96817 4.78473 6.9456 4.73022Q6.92302 4.67571 6.91151 4.61785Q6.9 4.55999 6.9 4.50099L6.9 4.49899Q6.9 4.44 6.91151 4.38213Q6.92302 4.32427 6.9456 4.26977Q6.96817 4.21526 7.00095 4.16621Q7.03373 4.11715 7.07544 4.07544Q7.11716 4.03372 7.16621 4.00094Q7.21527 3.96817 7.26977 3.94559Q7.32428 3.92301 7.38214 3.9115Q7.44 3.89999 7.499 3.89999Z" id="Rectangle-Copy-3" fill="#000000" fill-rule="evenodd" stroke="none" artboard="dc0d544e-572c-493a-8ca4-d94806e94ffe" />
  </g>
</svg>