<?xml version="1.0" encoding="utf-8"?>
<svg width="15px" height="15px" viewBox="0 0 15 15" version="1.1" xmlns:xlink="http://www.w3.org/1999/xlink" xmlns="http://www.w3.org/2000/svg">
  <defs>
    <rect width="15" height="15" id="artboard_1" />
    <clipPath id="clip_1">
      <use xlink:href="#artboard_1" clip-rule="evenodd" />
    </clipPath>
  </defs>
  <g id="icon--keyboard-close" clip-path="url(#clip_1)">
    <path d="M9.4 13L7.5 15.3222L5.6 13L9.4 13ZM13.5 3C13.7761 3 14 3.22386 14 3.5L14 11.5C14 11.7761 13.7761 12 13.5 12L1.5 12C1.22386 12 1 11.7761 1 11.5L1 3.5C1 3.22386 1.22386 3 1.5 3L13.5 3ZM13 4L2 4L2 11L13 11L13 4ZM10.5 9C10.7761 9 11 9.22386 11 9.5C11 9.77614 10.7761 10 10.5 10L4.5 10C4.22386 10 4 9.77614 4 9.5C4 9.22386 4.22386 9 4.5 9L10.5 9ZM3.5 7C3.77614 7 4 7.22386 4 7.5C4 7.77614 3.77614 8 3.5 8C3.22386 8 3 7.77614 3 7.5C3 7.22386 3.22386 7 3.5 7ZM5.5 7C5.77614 7 6 7.22386 6 7.5C6 7.77614 5.77614 8 5.5 8C5.22386 8 5 7.77614 5 7.5C5 7.22386 5.22386 7 5.5 7ZM7.5 7C7.77614 7 8 7.22386 8 7.5C8 7.77614 7.77614 8 7.5 8C7.22386 8 7 7.77614 7 7.5C7 7.22386 7.22386 7 7.5 7ZM9.5 7C9.77614 7 10 7.22386 10 7.5C10 7.77614 9.77614 8 9.5 8C9.22386 8 9 7.77614 9 7.5C9 7.22386 9.22386 7 9.5 7ZM11.5 7C11.7761 7 12 7.22386 12 7.5C12 7.77614 11.7761 8 11.5 8C11.2239 8 11 7.77614 11 7.5C11 7.22386 11.2239 7 11.5 7ZM3.5 5C3.77614 5 4 5.22386 4 5.5C4 5.77614 3.77614 6 3.5 6C3.22386 6 3 5.77614 3 5.5C3 5.22386 3.22386 5 3.5 5ZM5.5 5C5.77614 5 6 5.22386 6 5.5C6 5.77614 5.77614 6 5.5 6C5.22386 6 5 5.77614 5 5.5C5 5.22386 5.22386 5 5.5 5ZM7.5 5C7.77614 5 8 5.22386 8 5.5C8 5.77614 7.77614 6 7.5 6C7.22386 6 7 5.77614 7 5.5C7 5.22386 7.22386 5 7.5 5ZM9.5 5C9.77614 5 10 5.22386 10 5.5C10 5.77614 9.77614 6 9.5 6C9.22386 6 9 5.77614 9 5.5C9 5.22386 9.22386 5 9.5 5ZM11.5 5C11.7761 5 12 5.22386 12 5.5C12 5.77614 11.7761 6 11.5 6C11.2239 6 11 5.77614 11 5.5C11 5.22386 11.2239 5 11.5 5Z" id="Shape" fill="#000000" stroke="none" artboard="403679de-c89b-4332-b072-72d521f7238b" />
  </g>
</svg>