<?xml version="1.0" encoding="utf-8"?>
<svg width="15px" height="15px" viewBox="0 0 15 15" version="1.1" xmlns:xlink="http://www.w3.org/1999/xlink" xmlns="http://www.w3.org/2000/svg">
  <defs>
    <rect width="15" height="15" id="artboard_1" />
    <clipPath id="clip_1">
      <use xlink:href="#artboard_1" clip-rule="evenodd" />
    </clipPath>
  </defs>
  <g id="icon--keypad" clip-path="url(#clip_1)">
    <path d="M7.5 11.4C8.10752 11.4 8.6 11.8925 8.6 12.5C8.6 13.1075 8.10752 13.6 7.5 13.6C6.89249 13.6 6.4 13.1075 6.4 12.5C6.4 11.8925 6.89249 11.4 7.5 11.4ZM7.5 8.39999C8.10752 8.39999 8.6 8.89248 8.6 9.49999C8.6 10.1075 8.10752 10.6 7.5 10.6C6.89249 10.6 6.4 10.1075 6.4 9.49999C6.4 8.89248 6.89249 8.39999 7.5 8.39999ZM4.5 8.39999C5.10751 8.39999 5.6 8.89248 5.6 9.49999C5.6 10.1075 5.10751 10.6 4.5 10.6C3.89249 10.6 3.4 10.1075 3.4 9.49999C3.4 8.89248 3.89249 8.39999 4.5 8.39999ZM10.5 8.39999C11.1075 8.39999 11.6 8.89248 11.6 9.49999C11.6 10.1075 11.1075 10.6 10.5 10.6C9.89249 10.6 9.4 10.1075 9.4 9.49999C9.4 8.89248 9.89249 8.39999 10.5 8.39999ZM7.5 5.39999C8.10752 5.39999 8.6 5.89248 8.6 6.49999C8.6 7.10751 8.10752 7.59999 7.5 7.59999C6.89249 7.59999 6.4 7.10751 6.4 6.49999C6.4 5.89248 6.89249 5.39999 7.5 5.39999ZM4.5 5.39999C5.10751 5.39999 5.6 5.89248 5.6 6.49999C5.6 7.10751 5.10751 7.59999 4.5 7.59999C3.89249 7.59999 3.4 7.10751 3.4 6.49999C3.4 5.89248 3.89249 5.39999 4.5 5.39999ZM10.5 5.39999C11.1075 5.39999 11.6 5.89248 11.6 6.49999C11.6 7.10751 11.1075 7.59999 10.5 7.59999C9.89249 7.59999 9.4 7.10751 9.4 6.49999C9.4 5.89248 9.89249 5.39999 10.5 5.39999ZM7.5 2.4C8.10752 2.4 8.6 2.89249 8.6 3.5C8.6 4.10751 8.10752 4.6 7.5 4.6C6.89249 4.6 6.4 4.10751 6.4 3.5C6.4 2.89249 6.89249 2.4 7.5 2.4ZM4.5 2.4C5.10751 2.4 5.6 2.89249 5.6 3.5C5.6 4.10751 5.10751 4.6 4.5 4.6C3.89249 4.6 3.4 4.10751 3.4 3.5C3.4 2.89249 3.89249 2.4 4.5 2.4ZM10.5 2.4C11.1075 2.4 11.6 2.89249 11.6 3.5C11.6 4.10751 11.1075 4.6 10.5 4.6C9.89249 4.6 9.4 4.10751 9.4 3.5C9.4 2.89249 9.89249 2.4 10.5 2.4Z" id="Shape" fill="#000000" fill-rule="evenodd" stroke="none" artboard="b31fa3cd-c6af-4dde-9a32-816d02ad5c7f" />
  </g>
</svg>