<?xml version="1.0" encoding="utf-8"?>
<svg width="15px" height="15.099976px" viewBox="0 0 15 15.099976" version="1.1" xmlns:xlink="http://www.w3.org/1999/xlink" xmlns="http://www.w3.org/2000/svg">
  <defs>
    <rect width="15" height="15.099998" id="artboard_1" />
    <clipPath id="clip_1">
      <use xlink:href="#artboard_1" clip-rule="evenodd" />
    </clipPath>
  </defs>
  <g id="icon--lens-plus" clip-path="url(#clip_1)">
    <use xlink:href="#artboard_1" stroke="none" fill="#FFFFFF" />
    <path d="M10.1 6.1C10.1 3.83563 8.26437 2 6 2C3.73563 2 1.9 3.83563 1.9 6.1C1.9 8.36437 3.73563 10.2 6 10.2C6.95212 10.2 7.82844 9.87545 8.52436 9.33096L12.3355 13.1426C12.5308 13.3379 12.8474 13.3379 13.0426 13.1426C13.2379 12.9474 13.2379 12.6308 13.0426 12.4355L9.23096 8.62436C9.77546 7.92844 10.1 7.05212 10.1 6.1ZM2.9 6.1C2.9 4.38792 4.28792 3 6 3C7.71208 3 9.1 4.38792 9.1 6.1C9.1 7.81208 7.71208 9.2 6 9.2C4.28792 9.2 2.9 7.81208 2.9 6.1ZM6.5 4.1C6.5 3.82386 6.27614 3.6 6 3.6C5.72386 3.6 5.5 3.82386 5.5 4.1L5.5 5.6L4 5.6C3.72386 5.6 3.5 5.82386 3.5 6.1C3.5 6.37614 3.72386 6.6 4 6.6L5.5 6.6L5.5 8.1C5.5 8.37614 5.72386 8.6 6 8.6C6.27614 8.6 6.5 8.37614 6.5 8.1L6.5 6.6L8 6.6C8.27614 6.6 8.5 6.37614 8.5 6.1C8.5 5.82386 8.27614 5.6 8 5.6L6.5 5.6L6.5 4.1Z" id="Vector-Union" fill="#000000" fill-rule="evenodd" stroke="none" artboard="0f6597e9-5087-421e-85ed-8050bbf0f5a9" />
  </g>
</svg>