<?xml version="1.0" encoding="utf-8"?>
<svg width="15px" height="15px" viewBox="0 0 15 15" version="1.1" xmlns:xlink="http://www.w3.org/1999/xlink" xmlns="http://www.w3.org/2000/svg">
  <defs>
    <rect width="15" height="15" id="artboard_1" />
    <clipPath id="clip_1">
      <use xlink:href="#artboard_1" clip-rule="evenodd" />
    </clipPath>
  </defs>
  <g id="icon--link-off" clip-path="url(#clip_1)">
    <path d="M2.95355 2.24642L12.7317 12.0246C12.927 12.2199 12.927 12.5364 12.7317 12.7317C12.5365 12.927 12.2199 12.927 12.0246 12.7317L10.293 11L8.4 11L8.31012 10.9919C8.07687 10.9496 7.9 10.7454 7.9 10.5C7.9 10.2545 8.07687 10.0504 8.31012 10.008L8.4 9.99998L9.293 9.99998L7.292 7.99898L4.4 7.99998C4.12386 7.99998 3.9 7.77612 3.9 7.49998C3.9 7.22383 4.12386 6.99998 4.4 6.99998L6.292 6.99898L4.296 5.00298L4.23562 5.00529C2.93154 5.08994 1.9 6.17449 1.9 7.49998C1.9 8.82546 2.93154 9.91002 4.23562 9.99466L4.4 9.99998L6.5 9.99998C6.77614 9.99998 7 10.2238 7 10.5C7 10.7454 6.82312 10.9496 6.58988 10.9919L6.5 11L4.4 11C2.467 11 0.9 9.43297 0.9 7.49998C0.9 5.90342 1.96899 4.55655 3.43026 4.13606L2.24645 2.95353C2.05118 2.75827 2.05118 2.44168 2.24645 2.24642C2.44171 2.05116 2.75829 2.05116 2.95355 2.24642ZM10.5 4L10.692 4.00518C12.5357 4.10487 14 5.63144 14 7.5C14 8.69463 13.4015 9.74946 12.488 10.381L11.7638 9.65749C12.5034 9.2233 13 8.41964 13 7.5C13 6.22974 12.0526 5.18076 10.8259 5.02105L10.6644 5.00532L10.5 5L8.4 5L8.31013 4.99194C8.07688 4.94961 7.9 4.74546 7.9 4.5C7.9 4.25454 8.07688 4.05039 8.31013 4.00806L8.4 4L10.5 4ZM9.106 6.99896L10.6 6.99996C10.8761 6.99996 11.1 7.22382 11.1 7.49996C11.1 7.7761 10.8761 7.99996 10.6 7.99996L10.106 7.99896L9.106 6.99896Z" id="Shape" fill="#000000" stroke="none" artboard="49f4330c-198f-4ed5-9b8b-8c952fe1a2f9" />
  </g>
</svg>