<?xml version="1.0" encoding="utf-8"?>
<svg width="15px" height="15px" viewBox="0 0 15 15" version="1.1" xmlns:xlink="http://www.w3.org/1999/xlink" xmlns="http://www.w3.org/2000/svg">
  <defs>
    <rect width="15" height="15" id="artboard_1" />
    <clipPath id="clip_1">
      <use xlink:href="#artboard_1" clip-rule="evenodd" />
    </clipPath>
  </defs>
  <g id="icon--link-cross" clip-path="url(#clip_1)">
    <path d="M9.08802 9.37643L10.5022 10.89L11.9164 9.37643C12.1117 9.18116 12.4283 9.18116 12.6236 9.37643C12.8188 9.57169 12.8188 9.88827 12.6236 10.0835L11.1045 11.4977L12.6236 12.912C12.8188 13.1072 12.8188 13.4238 12.6236 13.6191C12.4283 13.8143 12.1117 13.8143 11.9164 13.6191L10.5022 12.1L9.08802 13.6191C8.89276 13.8143 8.57617 13.8143 8.38091 13.6191C8.18565 13.4238 8.18565 13.1072 8.38091 12.912L9.89447 11.4977L8.38091 10.0835C8.18565 9.88827 8.18565 9.57169 8.38091 9.37643C8.57617 9.18116 8.89276 9.18116 9.08802 9.37643ZM6.5 4C6.77614 4 7 4.22386 7 4.5C7 4.74546 6.82312 4.94961 6.58988 4.99194L6.5 5L4.4 5L4.23562 5.00532C2.93154 5.08996 1.9 6.17452 1.9 7.5C1.9 8.82548 2.93154 9.91004 4.23562 9.99468L4.4 10L6.5 10C6.77614 10 7 10.2239 7 10.5C7 10.7455 6.82312 10.9496 6.58988 10.9919L6.5 11L4.4 11C2.467 11 0.9 9.433 0.9 7.5C0.9 5.63144 2.36428 4.10487 4.20796 4.00518L4.4 4L6.5 4ZM10.6 4C12.533 4 14.1 5.567 14.1 7.5C14.1 7.67009 14.0879 7.83735 14.0644 8.00095L13.0499 8.00043C13.0828 7.83874 13.1 7.67139 13.1 7.5C13.1 6.17452 12.0685 5.08996 10.7644 5.00532L10.6 5L8.5 5C8.22386 5 8 4.77614 8 4.5C8 4.22386 8.22386 4 8.5 4L10.6 4ZM10.6 7C10.8761 7 11.1 7.22386 11.1 7.5C11.1 7.77614 10.8761 8 10.6 8L4.4 8C4.12386 8 3.9 7.77614 3.9 7.5C3.9 7.22386 4.12386 7 4.4 7L10.6 7Z" id="Shape" fill="#000000" stroke="none" artboard="23eb72ea-6ec4-4ccd-a0b8-e732826e7032" />
  </g>
</svg>