<?xml version="1.0" encoding="utf-8"?>
<svg width="15px" height="15px" viewBox="0 0 15 15" version="1.1" xmlns:xlink="http://www.w3.org/1999/xlink" xmlns="http://www.w3.org/2000/svg">
  <defs>
    <rect width="15" height="15" id="artboard_1" />
    <clipPath id="clip_1">
      <use xlink:href="#artboard_1" clip-rule="evenodd" />
    </clipPath>
  </defs>
  <g id="icon--link" clip-path="url(#clip_1)">
    <path d="M6.5 4C6.77614 4 7 4.22386 7 4.5C7 4.74546 6.82313 4.94961 6.58988 4.99194L6.5 5L4.4 5L4.23563 5.00532C2.93154 5.08996 1.9 6.17452 1.9 7.5C1.9 8.82548 2.93154 9.91004 4.23563 9.99468L4.4 10L6.5 10C6.77614 10 7 10.2239 7 10.5C7 10.7455 6.82313 10.9496 6.58988 10.9919L6.5 11L4.4 11C2.467 11 0.900002 9.433 0.900002 7.5C0.900002 5.63144 2.36428 4.10487 4.20797 4.00518L4.4 4L6.5 4ZM8.4 4C8.12386 4 7.9 4.22386 7.9 4.5C7.9 4.74546 8.07688 4.94961 8.31013 4.99194L8.4 5L10.5 5L10.6644 5.00532C11.9685 5.08996 13 6.17452 13 7.5C13 8.82548 11.9685 9.91004 10.6644 9.99468L10.5 10L8.4 10C8.12386 10 7.9 10.2239 7.9 10.5C7.9 10.7455 8.07688 10.9496 8.31013 10.9919L8.4 11L10.5 11C12.433 11 14 9.433 14 7.5C14 5.63144 12.5357 4.10487 10.692 4.00518L10.5 4L8.4 4ZM10.6 7C10.8761 7 11.1 7.22386 11.1 7.5C11.1 7.77614 10.8761 8 10.6 8L4.4 8C4.12386 8 3.9 7.77614 3.9 7.5C3.9 7.22386 4.12386 7 4.4 7L10.6 7Z" id="Shape" fill="#000000" stroke="none" artboard="459a0451-589d-4a51-876b-0bd9727d9df5" />
  </g>
</svg>