<?xml version="1.0" encoding="utf-8"?>
<svg width="15px" height="15px" viewBox="0 0 15 15" version="1.1" xmlns:xlink="http://www.w3.org/1999/xlink" xmlns="http://www.w3.org/2000/svg">
  <defs>
    <rect width="15" height="15" id="artboard_1" />
    <clipPath id="clip_1">
      <use xlink:href="#artboard_1" clip-rule="evenodd" />
    </clipPath>
  </defs>
  <g id="icon--link-minus" clip-path="url(#clip_1)">
    <path d="M7 4.5C7 4.22386 6.77614 4 6.5 4L4.4 4L4.20796 4.00518C2.36428 4.10487 0.9 5.63144 0.9 7.5C0.9 9.433 2.467 11 4.4 11L6.5 11L6.58988 10.9919C6.82312 10.9496 7 10.7455 7 10.5C7 10.2239 6.77614 10 6.5 10L4.4 10L4.23562 9.99468C2.93154 9.91004 1.9 8.82548 1.9 7.5C1.9 6.17452 2.93154 5.08996 4.23562 5.00532L4.4 5L6.5 5L6.58988 4.99194C6.82312 4.94961 7 4.74546 7 4.5ZM14.1 7.5C14.1 5.567 12.533 4 10.6 4L8.5 4C8.22386 4 8 4.22386 8 4.5C8 4.77614 8.22386 5 8.5 5L10.6 5L10.7644 5.00532C12.0685 5.08996 13.1 6.17452 13.1 7.5C13.1 7.67139 13.0828 7.83874 13.0499 8.00043L14.0644 8.00095C14.0879 7.83735 14.1 7.67009 14.1 7.5ZM11.1 7.5C11.1 7.22386 10.8761 7 10.6 7L4.4 7C4.12386 7 3.9 7.22386 3.9 7.5C3.9 7.77614 4.12386 8 4.4 8L10.6 8C10.8761 8 11.1 7.77614 11.1 7.5ZM14 11.5C14 11.2239 13.7761 11 13.5 11L9.5 11C9.22386 11 9 11.2239 9 11.5C9 11.7761 9.22386 12 9.5 12L13.5 12C13.7761 12 14 11.7761 14 11.5Z" id="Combined-Shape" fill="#000000" fill-rule="evenodd" stroke="none" artboard="e022751e-af37-4598-8d42-e841cc9942da" />
  </g>
</svg>