<?xml version="1.0" encoding="utf-8"?>
<svg width="15px" height="15px" viewBox="0 0 15 15" version="1.1" xmlns:xlink="http://www.w3.org/1999/xlink" xmlns="http://www.w3.org/2000/svg">
  <defs>
    <rect width="15" height="15" id="artboard_1" />
    <clipPath id="clip_1">
      <use xlink:href="#artboard_1" clip-rule="evenodd" />
    </clipPath>
  </defs>
  <g id="icon--link-plus" clip-path="url(#clip_1)">
    <path d="M11.5 9C11.7761 9 12 9.22386 12 9.5L12 11L13.5 11C13.7761 11 14 11.2239 14 11.5C14 11.7761 13.7761 12 13.5 12L12 12L12 13.5C12 13.7761 11.7761 14 11.5 14C11.2239 14 11 13.7761 11 13.5L11 12L9.5 12C9.22386 12 9 11.7761 9 11.5C9 11.2239 9.22386 11 9.5 11L11 11L11 9.5C11 9.22386 11.2239 9 11.5 9ZM6.5 4C6.77614 4 7 4.22386 7 4.5C7 4.74546 6.82313 4.94961 6.58988 4.99194L6.5 5L4.4 5L4.23563 5.00532C2.93154 5.08996 1.9 6.17452 1.9 7.5C1.9 8.82548 2.93154 9.91004 4.23563 9.99468L4.4 10L6.5 10C6.77614 10 7 10.2239 7 10.5C7 10.7455 6.82313 10.9496 6.58988 10.9919L6.5 11L4.4 11C2.467 11 0.900002 9.433 0.900002 7.5C0.900002 5.63144 2.36428 4.10487 4.20797 4.00518L4.4 4L6.5 4ZM10.6 4C12.533 4 14.1 5.567 14.1 7.5C14.1 7.67009 14.0879 7.83735 14.0644 8.00095L13.0499 8.00043C13.0828 7.83874 13.1 7.67139 13.1 7.5C13.1 6.17452 12.0685 5.08996 10.7644 5.00532L10.6 5L8.5 5C8.22386 5 8 4.77614 8 4.5C8 4.22386 8.22386 4 8.5 4L10.6 4ZM10.6 7C10.8761 7 11.1 7.22386 11.1 7.5C11.1 7.77614 10.8761 8 10.6 8L4.4 8C4.12386 8 3.9 7.77614 3.9 7.5C3.9 7.22386 4.12386 7 4.4 7L10.6 7Z" id="Shape" fill="#000000" stroke="none" artboard="479ffd2f-d75e-45c3-ad73-94a8de1c73cc" />
  </g>
</svg>