<?xml version="1.0" encoding="utf-8"?>
<svg width="15px" height="15px" viewBox="0 0 15 15" version="1.1" xmlns:xlink="http://www.w3.org/1999/xlink" xmlns="http://www.w3.org/2000/svg">
  <defs>
    <rect width="15" height="15" id="artboard_1" />
    <clipPath id="clip_1">
      <use xlink:href="#artboard_1" clip-rule="evenodd" />
    </clipPath>
  </defs>
  <g id="icon--mail-arrow-left" clip-path="url(#clip_1)">
    <path d="M12.124 9.16998C12.3093 9.04947 12.5782 9.0898 12.7395 9.25116C12.8984 9.40999 12.9182 9.69476 12.7991 9.88508L12.7395 9.96022L11.5784 10.9992L14.5125 11.0003L14.6026 11.0083C14.8365 11.0508 15.0138 11.2555 15.0138 11.5016C15.0138 11.7478 14.8365 11.9525 14.6026 11.9949L14.5125 12.003L11.5814 12.003L12.7395 13.0398L12.7991 13.1149C12.9182 13.3052 12.8984 13.59 12.7395 13.7489C12.5782 13.9102 12.3093 13.9505 12.124 13.83L12.0588 13.7772L10.1361 11.8545L10.0766 11.7794C9.97447 11.6163 9.97447 11.3837 10.0766 11.2206L10.1361 11.1455L12.0588 9.2228L12.124 9.16998ZM13.5 3C13.7761 3 14 3.22386 14 3.5L14 8L13 8L13 4.369L7.83634 8.06421C7.66946 8.21591 7.42562 8.23487 7.2395 8.1211L7.16366 8.06421L2 4.37L2 11L9 11L9 12L1.5 12C1.22386 12 1 11.7761 1 11.5L1 3.5C1 3.22386 1.22386 3 1.5 3L13.5 3ZM11.919 4L3.079 4L7.5 7.02L11.919 4Z" id="Shape" fill="#000000" fill-rule="evenodd" stroke="none" artboard="7f4238cc-e23a-40e2-a0e2-e66734559a19" />
  </g>
</svg>