<?xml version="1.0" encoding="utf-8"?>
<svg width="15px" height="15px" viewBox="0 0 15 15" version="1.1" xmlns:xlink="http://www.w3.org/1999/xlink" xmlns="http://www.w3.org/2000/svg">
  <defs>
    <rect width="15" height="15" id="artboard_1" />
    <clipPath id="clip_1">
      <use xlink:href="#artboard_1" clip-rule="evenodd" />
    </clipPath>
  </defs>
  <g id="icon--mail-check" clip-path="url(#clip_1)">
    <use xlink:href="#artboard_1" stroke="none" fill="#FFFFFF" />
    <path d="M13.5 3C13.7761 3 14 3.22386 14 3.5L14 8L13 8L13 4.369L7.83634 8.06421C7.66946 8.21591 7.42562 8.23487 7.2395 8.1211L7.16366 8.06421L2 4.37L2 11L8 11L8 12L1.5 12C1.22386 12 1 11.7761 1 11.5L1 3.5C1 3.22386 1.22386 3 1.5 3L13.5 3L13.5 3ZM11.919 4L3.07901 4L7.50001 7.01924L11.919 4L11.919 4ZM14.6562 9.35285L14.6576 9.35426C14.755 9.4517 14.8037 9.56932 14.8037 9.70711C14.8037 9.84491 14.755 9.96252 14.6576 10.06L11.3327 13.3848C11.2744 13.4432 11.2039 13.4723 11.1213 13.4723C11.0388 13.4723 10.9683 13.4432 10.9099 13.3848L9.35285 11.8277C9.25541 11.7303 9.2067 11.6127 9.2067 11.4749C9.2067 11.3371 9.25541 11.2195 9.35285 11.122L9.35426 11.1206C9.4517 11.0232 9.56931 10.9745 9.70711 10.9745C9.84491 10.9745 9.96252 11.0232 10.06 11.1206L11.1213 12.182L13.9505 9.35285C14.0479 9.25541 14.1655 9.2067 14.3033 9.2067C14.4411 9.2067 14.5587 9.25541 14.6562 9.35285L14.6562 9.35285Z" id="Vector" fill="#000000" fill-rule="evenodd" stroke="none" artboard="9a4eb28c-56cd-491c-9291-dd952ca676df" />
  </g>
</svg>