<?xml version="1.0" encoding="utf-8"?>
<svg width="15px" height="15px" viewBox="0 0 15 15" version="1.1" xmlns:xlink="http://www.w3.org/1999/xlink" xmlns="http://www.w3.org/2000/svg">
  <defs>
    <rect width="15" height="15" id="artboard_1" />
    <clipPath id="clip_1">
      <use xlink:href="#artboard_1" clip-rule="evenodd" />
    </clipPath>
  </defs>
  <g id="icon--mail-cross" clip-path="url(#clip_1)">
    <path d="M11.0836 9.39645L12.4978 10.91L13.912 9.39645C14.1072 9.20118 14.4238 9.20118 14.6191 9.39645C14.8143 9.59171 14.8143 9.90829 14.6191 10.1036L13.1 11.5178L14.6191 12.932C14.8143 13.1272 14.8143 13.4438 14.6191 13.6391C14.4238 13.8343 14.1072 13.8343 13.912 13.6391L12.4978 12.12L11.0836 13.6391C10.8883 13.8343 10.5717 13.8343 10.3764 13.6391C10.1812 13.4438 10.1812 13.1272 10.3764 12.932L11.89 11.5178L10.3764 10.1036C10.1812 9.90829 10.1812 9.59171 10.3764 9.39645C10.5717 9.20118 10.8883 9.20118 11.0836 9.39645ZM13.5 3C13.7761 3 14 3.22386 14 3.5L14 8L13 8L13 4.369L7.83634 8.06421C7.66946 8.21591 7.42562 8.23487 7.2395 8.1211L7.16366 8.06421L2 4.37L2 11L9 11L9 12L1.5 12C1.22386 12 1 11.7761 1 11.5L1 3.5C1 3.22386 1.22386 3 1.5 3L13.5 3ZM11.919 4L3.079 4L7.5 7.01924L11.919 4Z" id="Shape" fill="#000000" fill-rule="evenodd" stroke="none" artboard="eb32eee3-b69a-4dd0-b23a-32c282a96b5b" />
  </g>
</svg>