<?xml version="1.0" encoding="utf-8"?>
<svg width="15px" height="15px" viewBox="0 0 15 15" version="1.1" xmlns:xlink="http://www.w3.org/1999/xlink" xmlns="http://www.w3.org/2000/svg">
  <defs>
    <rect width="15" height="15" id="artboard_1" />
    <clipPath id="clip_1">
      <use xlink:href="#artboard_1" clip-rule="evenodd" />
    </clipPath>
  </defs>
  <g id="icon--mail-arrow-right" clip-path="url(#clip_1)">
    <path d="M12.8898 9.16998L12.955 9.2228L14.8777 11.1455C15.0365 11.3043 15.0564 11.5891 14.9373 11.7794L14.8777 11.8545L12.955 13.7772C12.7735 13.9587 12.4558 13.9304 12.2743 13.7489C12.1155 13.59 12.0956 13.3052 12.2148 13.1149L12.2743 13.0398L13.4325 12.003L10.5014 12.003C10.2245 12.003 10 11.7785 10 11.5016C10 11.2555 10.1774 11.0508 10.4113 11.0083L10.5014 11.0003L13.4355 10.9992L12.2743 9.96022C12.0928 9.7787 12.0928 9.43268 12.2743 9.25116C12.4357 9.0898 12.7046 9.04947 12.8898 9.16998ZM13.5 3C13.7761 3 14 3.22386 14 3.5L14 8L13 8L13 4.369L7.83634 8.06421C7.66946 8.21591 7.42562 8.23487 7.2395 8.1211L7.16366 8.06421L2 4.37L2 11L9 11L9 12L1.5 12C1.22386 12 1 11.7761 1 11.5L1 3.5C1 3.22386 1.22386 3 1.5 3L13.5 3ZM11.919 4L3.079 4L7.5 7.01924L11.919 4Z" id="Shape" fill="#000000" fill-rule="evenodd" stroke="none" artboard="98869194-8446-46df-b622-013aa074f79d" />
  </g>
</svg>