<?xml version="1.0" encoding="utf-8"?>
<svg width="15px" height="15px" viewBox="0 0 15 15" version="1.1" xmlns:xlink="http://www.w3.org/1999/xlink" xmlns="http://www.w3.org/2000/svg">
  <defs>
    <rect width="15" height="15" id="artboard_1" />
    <clipPath id="clip_1">
      <use xlink:href="#artboard_1" clip-rule="evenodd" />
    </clipPath>
  </defs>
  <g id="icon--medal" clip-path="url(#clip_1)">
    <path d="M11.5844 1L11.5869 1.00795L13.1514 4.00388L10.1788 8.24735L10.1451 8.20787C10.6777 8.82194 11 9.62333 11 10.5C11 12.433 9.433 14 7.5 14C5.567 14 4 12.433 4 10.5C4 9.69121 4.27433 8.9465 4.73502 8.35384L4.83823 8.22724L1.88153 4.00388L3.44858 1L11.5844 1ZM7.5 8C6.11929 8 5 9.11929 5 10.5C5 11.8807 6.11929 13 7.5 13C8.88071 13 10 11.8807 10 10.5C10 9.11929 8.88071 8 7.5 8ZM11.487 2.54498L8.30338 7.09262L8.28018 7.08726C8.69405 7.18148 9.08003 7.34905 9.42371 7.57559L9.59145 7.69332L12.217 3.94298L11.487 2.54498ZM3.545 2.54498L2.815 3.94298L5.42989 7.67752C5.77082 7.42761 6.15478 7.2391 6.56956 7.12501L6.72488 7.08611L3.545 2.54498ZM9.49053 4L5.54153 4L7.51653 6.82095L9.49053 4ZM11.0315 1.79901L4.00053 1.79901L4.98153 3.20001L10.0515 3.20001L11.0315 1.79901Z" id="medal" fill="#000000" fill-rule="evenodd" stroke="none" artboard="bda2915e-cc55-4489-963e-b1f4b8751430" />
  </g>
</svg>