<?xml version="1.0" encoding="utf-8"?>
<svg width="15px" height="15px" viewBox="0 0 15 15" version="1.1" xmlns:xlink="http://www.w3.org/1999/xlink" xmlns="http://www.w3.org/2000/svg">
  <defs>
    <rect width="15" height="15" id="artboard_1" />
    <clipPath id="clip_1">
      <use xlink:href="#artboard_1" clip-rule="evenodd" />
    </clipPath>
  </defs>
  <g id="icon--minus-circled" clip-path="url(#clip_1)">
    <path d="M7.5 0.899994C11.1451 0.899994 14.1 3.85491 14.1 7.49999C14.1 11.1451 11.1451 14.1 7.5 14.1C3.85492 14.1 0.900002 11.1451 0.900002 7.49999C0.900002 3.85491 3.85492 0.899994 7.5 0.899994ZM7.5 1.89999C4.40721 1.89999 1.9 4.4072 1.9 7.49999C1.9 10.5928 4.40721 13.1 7.5 13.1C10.5928 13.1 13.1 10.5928 13.1 7.49999C13.1 4.4072 10.5928 1.89999 7.5 1.89999ZM9.5 7C9.77614 7 10 7.22386 10 7.5C10 7.77614 9.77614 8 9.5 8L5.5 8C5.22386 8 5 7.77614 5 7.5C5 7.22386 5.22386 7 5.5 7L9.5 7Z" id="Shape" fill="#000000" fill-rule="evenodd" stroke="none" artboard="8f80728d-fe95-4906-9bf5-114fa325a95c" />
  </g>
</svg>