<?xml version="1.0" encoding="utf-8"?>
<svg width="15px" height="15px" viewBox="0 0 15 15" version="1.1" xmlns:xlink="http://www.w3.org/1999/xlink" xmlns="http://www.w3.org/2000/svg">
  <defs>
    <rect width="15" height="15" id="artboard_1" />
    <clipPath id="clip_1">
      <use xlink:href="#artboard_1" clip-rule="evenodd" />
    </clipPath>
  </defs>
  <g id="icon--navigation" clip-path="url(#clip_1)">
    <path d="M7.6 1.9C10.6376 1.9 13.1 4.36244 13.1 7.4L13.1 7.6C13.1 10.6376 10.6376 13.1 7.6 13.1L7.4 13.1C4.36244 13.1 1.9 10.6376 1.9 7.6L1.9 7.4C1.9 4.36244 4.36244 1.9 7.4 1.9L7.6 1.9ZM8.00066 2.91759L8 3.5C8 3.77614 7.77614 4 7.5 4C7.22386 4 7 3.77614 7 3.5L7.00015 2.91752C4.83384 3.10826 3.10816 4.83401 2.91751 7.00034L3.5 7C3.77614 7 4 7.22386 4 7.5C4 7.77614 3.77614 8 3.5 8L2.91761 8.00085C3.1088 10.1667 4.83434 11.8919 7.00034 12.0825L7 11.5C7 11.2239 7.22386 11 7.5 11C7.77614 11 8 11.2239 8 11.5L8.00085 12.0824C10.1664 11.8912 11.8913 10.1662 12.0824 8.00065L11.5 8C11.2239 8 11 7.77614 11 7.5C11 7.22386 11.2239 7 11.5 7L12.0825 7.00015C11.8918 4.83417 10.1665 3.10868 8.00066 2.91759ZM9.97487 5.02513L8.56066 8.56066L5.02513 9.97487L6.43934 6.43934L9.97487 5.02513ZM8.66 6.34L7.1323 7.13089L6.34 8.66L7.8684 7.86699L8.66 6.34Z" id="Shape" fill="#000000" fill-rule="evenodd" stroke="none" artboard="ff7d7bb1-baf7-4671-8a35-9c2ab7c7bdd6" />
  </g>
</svg>