<?xml version="1.0" encoding="utf-8"?>
<svg width="15px" height="15px" viewBox="0 0 15 15" version="1.1" xmlns:xlink="http://www.w3.org/1999/xlink" xmlns="http://www.w3.org/2000/svg">
  <defs>
    <rect width="15" height="15" id="artboard_1" />
    <clipPath id="clip_1">
      <use xlink:href="#artboard_1" clip-rule="evenodd" />
    </clipPath>
  </defs>
  <g id="icon--nuclear" clip-path="url(#clip_1)">
    <path d="M7.5 1C11.0899 1 14 3.91015 14 7.5C14 11.0899 11.0899 14 7.5 14C3.91015 14 1 11.0899 1 7.5C1 3.91015 3.91015 1 7.5 1ZM7.5 1.79999C4.35198 1.79999 1.8 4.35196 1.8 7.49999C1.8 10.648 4.35198 13.2 7.5 13.2C10.648 13.2 13.2 10.648 13.2 7.49999C13.2 4.35196 10.648 1.79999 7.5 1.79999ZM8.3463 8.97473L9.84854 11.5721C9.15756 11.9715 8.35547 12.2 7.5 12.2C6.64698 12.2 5.84703 11.9728 5.15739 11.5755L6.65572 8.97589C6.90447 9.1185 7.19272 9.20003 7.5 9.20003C7.80812 9.20003 8.09709 9.11805 8.3463 8.97473ZM7.5 6.5C8.05228 6.5 8.5 6.94772 8.5 7.5C8.5 8.05228 8.05228 8.5 7.5 8.5C6.94772 8.5 6.5 8.05228 6.5 7.5C6.5 6.94772 6.94772 6.5 7.5 6.5ZM5.14259 3.43304L6.64365 6.03109C6.18107 6.30136 5.85765 6.78387 5.80696 7.34507L5.8 7.51197L2.8 7.51318L2.8 7.49997C2.8 5.76337 3.74184 4.24675 5.14259 3.43304ZM9.85248 3.43024C11.1922 4.20629 12.1132 5.62483 12.1942 7.26435L12.2 7.50807L12.2 7.50807L9.19997 7.51017L9.2 7.50002C9.2 6.87258 8.86008 6.32453 8.35434 6.02998L9.85248 3.43024Z" id="Shape" fill="#000000" fill-rule="evenodd" stroke="none" artboard="9dbc2de6-f448-4e99-8f15-39df2bddd14d" />
  </g>
</svg>