<?xml version="1.0" encoding="utf-8"?>
<svg width="15px" height="15px" viewBox="0 0 15 15" version="1.1" xmlns:xlink="http://www.w3.org/1999/xlink" xmlns="http://www.w3.org/2000/svg">
  <defs>
    <rect width="15" height="15" id="artboard_1" />
    <clipPath id="clip_1">
      <use xlink:href="#artboard_1" clip-rule="evenodd" />
    </clipPath>
  </defs>
  <g id="icon--pin-off" clip-path="url(#clip_1)">
    <path d="M5.02513 2.31802L12.8033 10.0962C12.9986 10.2915 12.9986 10.608 12.8033 10.8033C12.608 10.9986 12.2915 10.9986 12.0962 10.8033L9.671 8.378L8.46672 10.0951L8.8033 10.4317C8.99856 10.627 8.99856 10.9436 8.8033 11.1388C8.60804 11.3341 8.29146 11.3341 8.09619 11.1388L6.32843 9.37107L3.85355 11.8459C3.65829 12.0412 3.34171 12.0412 3.14645 11.8459C2.95118 11.6507 2.95118 11.3341 3.14645 11.1388L5.62132 8.66396L3.85355 6.89619C3.65829 6.70093 3.65829 6.38435 3.85355 6.18908C4.04882 5.99382 4.3654 5.99382 4.56066 6.18908L4.89654 6.52496L6.612 5.319L4.31802 3.02512C4.12276 2.82986 4.12276 2.51328 4.31802 2.31802C4.51328 2.12275 4.82986 2.12275 5.02513 2.31802ZM7.33 6.037L5.61425 7.24268L7.74901 9.37743L8.954 7.661L7.33 6.037ZM10.2175 1.94645L13.0459 4.77488C13.2412 4.97014 13.2412 5.28672 13.0459 5.48198C12.8507 5.67725 12.5341 5.67725 12.3388 5.48198L11.9676 5.11075L10.832 6.725L10.115 6.008L11.2492 4.39233L10.5994 3.7425L8.983 4.876L8.265 4.158L9.88093 3.02408L9.51041 2.65356C9.31515 2.45829 9.31515 2.14171 9.51041 1.94645C9.70567 1.75119 10.0223 1.75119 10.2175 1.94645Z" id="Shape" fill="#000000" stroke="none" artboard="20848791-1d70-4ab5-96fd-62fb6ea5b15c" />
  </g>
</svg>