<?xml version="1.0" encoding="utf-8"?>
<svg width="15px" height="15px" viewBox="0 0 15 15" version="1.1" xmlns:xlink="http://www.w3.org/1999/xlink" xmlns="http://www.w3.org/2000/svg">
  <defs>
    <rect width="15" height="15" id="artboard_1" />
    <clipPath id="clip_1">
      <use xlink:href="#artboard_1" clip-rule="evenodd" />
    </clipPath>
  </defs>
  <g id="icon--pin" clip-path="url(#clip_1)">
    <path d="M13.0459 4.77488C13.2412 4.97014 13.2412 5.28672 13.0459 5.48198C12.8507 5.67725 12.5341 5.67725 12.3388 5.48198L11.9676 5.11075L8.46672 10.0951L8.8033 10.4317C8.99856 10.627 8.99856 10.9436 8.8033 11.1388C8.60804 11.3341 8.29146 11.3341 8.09619 11.1388L6.32843 9.37107L3.85355 11.8459C3.65829 12.0412 3.34171 12.0412 3.14645 11.8459C2.95118 11.6507 2.95118 11.3341 3.14645 11.1388L5.62132 8.66396L3.85355 6.8962C3.65829 6.70094 3.65829 6.38435 3.85355 6.18909C4.04882 5.99383 4.3654 5.99383 4.56066 6.18909L4.89654 6.52497L9.88093 3.02408L9.51041 2.65356C9.31515 2.45829 9.31515 2.14171 9.51041 1.94645C9.70567 1.75119 10.0223 1.75119 10.2175 1.94645L13.0459 4.77488ZM11.2492 4.39234L10.5994 3.74251L5.61425 7.24269L7.74901 9.37744L11.2492 4.39234Z" id="Shape" fill="#000000" stroke="none" artboard="b21bc337-956a-40b4-a892-5b6876881f35" />
  </g>
</svg>