<?xml version="1.0" encoding="utf-8"?>
<svg width="15px" height="15px" viewBox="0 0 15 15" version="1.1" xmlns:xlink="http://www.w3.org/1999/xlink" xmlns="http://www.w3.org/2000/svg">
  <defs>
    <rect width="15" height="15" id="artboard_1" />
    <clipPath id="clip_1">
      <use xlink:href="#artboard_1" clip-rule="evenodd" />
    </clipPath>
  </defs>
  <g id="icon--plus-outline" clip-path="url(#clip_1)">
    <path d="M7.5 4C7.77614 4 8 4.22386 8 4.5L8 7L10.5 7C10.7761 7 11 7.22386 11 7.5C11 7.77614 10.7761 8 10.5 8L8 8L8 10.5C8 10.7761 7.77614 11 7.5 11C7.22386 11 7 10.7761 7 10.5L7 8L4.5 8C4.22386 8 4 7.77614 4 7.5C4 7.22386 4.22386 7 4.5 7L7 7L7 4.5C7 4.22386 7.22386 4 7.5 4Z" id="Path" fill="#000000" fill-rule="evenodd" stroke="none" artboard="2067c22c-fe8b-49cc-86d5-583764e6a138" />
  </g>
</svg>