<?xml version="1.0" encoding="utf-8"?>
<svg width="15px" height="15px" viewBox="0 0 15 15" version="1.1" xmlns:xlink="http://www.w3.org/1999/xlink" xmlns="http://www.w3.org/2000/svg">
  <defs>
    <rect width="15" height="15" id="artboard_1" />
    <clipPath id="clip_1">
      <use xlink:href="#artboard_1" clip-rule="evenodd" />
    </clipPath>
  </defs>
  <g id="icon--projects" clip-path="url(#clip_1)">
    <path d="M4.67636 3L10.3236 3C10.5279 3 10.7146 3.05725 10.8837 3.17176C11.0528 3.28627 11.1753 3.43834 11.2512 3.62798L13 8L13 12.001C13 12.2769 12.9025 12.5123 12.7074 12.7074C12.5123 12.9025 12.2769 13 12.001 13L2.999 13C2.72313 13 2.48767 12.9025 2.2926 12.7074C2.26822 12.683 2.24536 12.658 2.22402 12.6324C2.07467 12.4528 2 12.2424 2 12.001L2 8L3.74881 3.62798C3.82466 3.43834 3.94716 3.28627 4.11629 3.17176C4.28542 3.05725 4.47211 3 4.67636 3L4.67636 3ZM11.923 8L9.49899 8C9.3612 8 9.24358 8.04872 9.14615 8.14615C9.04871 8.24359 8.99999 8.3612 9 8.499L9 9L5.99999 9L5.99999 8.499C5.99999 8.3612 5.95127 8.24359 5.85384 8.14615C5.7564 8.04872 5.63879 8 5.50099 8L3.07703 8L4.67703 4L10.323 4L11.923 8L11.923 8ZM3 9L3 12L12 12L12 9L10 9L10 9.501C10 9.63879 9.95128 9.75641 9.85385 9.85385C9.75641 9.95128 9.63879 10 9.501 10L5.499 10C5.36121 10 5.24359 9.95128 5.14615 9.85385C5.04872 9.75641 5 9.63879 5 9.501L5 9L3 9L3 9Z" id="Vector" fill="#000000" fill-rule="evenodd" stroke="none" artboard="14d16b72-f31d-4dd7-baee-6085c7da7c44" />
  </g>
</svg>