<?xml version="1.0" encoding="utf-8"?>
<svg width="15px" height="15px" viewBox="0 0 15 15" version="1.1" xmlns:xlink="http://www.w3.org/1999/xlink" xmlns="http://www.w3.org/2000/svg">
  <defs>
    <rect width="15" height="15" id="artboard_1" />
    <clipPath id="clip_1">
      <use xlink:href="#artboard_1" clip-rule="evenodd" />
    </clipPath>
  </defs>
  <g id="icon--radio-on" clip-path="url(#clip_1)">
    <path d="M14.1 7.49999C14.1 3.85491 11.1451 0.899994 7.5 0.899994C3.85492 0.899994 0.9 3.85491 0.9 7.49999C0.9 11.1451 3.85492 14.1 7.5 14.1C11.1451 14.1 14.1 11.1451 14.1 7.49999ZM1.9 7.49999C1.9 4.4072 4.40721 1.89999 7.5 1.89999C10.5928 1.89999 13.1 4.4072 13.1 7.49999C13.1 10.5928 10.5928 13.1 7.5 13.1C4.40721 13.1 1.9 10.5928 1.9 7.49999ZM9.6 7.49999C9.6 8.65979 8.6598 9.59999 7.5 9.59999C6.3402 9.59999 5.4 8.65979 5.4 7.49999C5.4 6.3402 6.3402 5.39999 7.5 5.39999C8.6598 5.39999 9.6 6.3402 9.6 7.49999Z" id="Combined-Shape" fill="#000000" fill-rule="evenodd" stroke="none" artboard="489f4a3b-3954-4e72-97d5-f54d1b498509" />
  </g>
</svg>