<?xml version="1.0" encoding="utf-8"?>
<svg width="15px" height="15px" viewBox="0 0 15 15" version="1.1" xmlns:xlink="http://www.w3.org/1999/xlink" xmlns="http://www.w3.org/2000/svg">
  <defs>
    <rect width="15" height="15" id="artboard_1" />
    <clipPath id="clip_1">
      <use xlink:href="#artboard_1" clip-rule="evenodd" />
    </clipPath>
  </defs>
  <g id="icon--refresh" clip-path="url(#clip_1)">
    <path d="M3.5402 3.5402C1.35327 5.72713 1.35327 9.27286 3.5402 11.4598C5.72714 13.6467 9.27286 13.6467 11.4598 11.4598C12.8199 10.0997 13.371 8.16567 12.9749 6.32003C12.917 6.05004 12.6511 5.87814 12.3811 5.93609C12.1111 5.99404 11.9392 6.25989 11.9972 6.52988C12.3228 8.04714 11.8703 9.63506 10.7527 10.7527C8.95628 12.5491 6.04372 12.5491 4.24731 10.7527C2.4509 8.95627 2.4509 6.04371 4.24731 4.2473C6.0248 2.46981 8.89506 2.45109 10.6956 4.19114L9.72648 4.25468C9.44649 4.27256 9.22848 4.50477 9.22828 4.78533C9.2281 5.04083 9.43507 5.2481 9.69057 5.24828L9.7254 5.24699L11.8027 5.09163C12.0274 5.09163 12.2428 4.9043 12.2931 4.68549L12.3041 4.59024L12.3035 2.5559C12.3034 2.28056 12.0802 2.05739 11.8049 2.05739C11.5714 2.05739 11.3766 2.22301 11.3315 2.44317L11.322 2.55566L11.3492 3.43303L11.3013 3.38771C9.10479 1.3545 5.67507 1.40533 3.5402 3.5402Z" id="Combined-Shape" fill="#000000" fill-rule="evenodd" stroke="none" artboard="6f67bb09-6e98-4b19-968f-62670d80cfa1" />
  </g>
</svg>