<?xml version="1.0" encoding="utf-8"?>
<svg width="15px" height="15px" viewBox="0 0 15 15" version="1.1" xmlns:xlink="http://www.w3.org/1999/xlink" xmlns="http://www.w3.org/2000/svg">
  <defs>
    <rect width="15" height="15" id="artboard_1" />
    <clipPath id="clip_1">
      <use xlink:href="#artboard_1" clip-rule="evenodd" />
    </clipPath>
  </defs>
  <g id="icon--rocket" clip-path="url(#clip_1)">
    <path d="M5.07193 12.1359L1.5364 13.5501L2.95061 10.0146L5.07193 12.1359ZM8.35432 12.5884L8.62083 12.0818C9.01218 11.337 9.15256 10.5013 9.04478 9.69254L7.10869 11.3422L8.35432 12.5884ZM5.39366 6.04134C4.65904 5.94378 3.90194 6.05074 3.21096 6.36471L3.00468 6.46567L2.49735 6.73147L3.74328 7.97598L5.39366 6.04134ZM12.4965 2.58995L10.9399 2.83564C9.97899 2.92299 9.08491 3.35432 8.41966 4.04574L8.2582 4.22397L4.4525 8.68663L6.39917 10.6333L10.8625 6.8283C11.5967 6.2023 12.0778 5.33399 12.2219 4.38537L12.2509 4.14664L12.4965 2.58995ZM10.7995 4.28701C11.2291 4.71659 11.2291 5.41307 10.7995 5.84265C10.3699 6.27222 9.67344 6.27222 9.24386 5.84265C8.81428 5.41307 8.81428 4.71659 9.24386 4.28701C9.67344 3.85743 10.3699 3.85743 10.7995 4.28701ZM0.9 6.54975L2.53955 5.58043C3.65937 4.99205 4.94344 4.8575 6.1358 5.1707L7.49725 3.57516C8.34496 2.58095 9.54815 1.95804 10.8493 1.83975L13.4865 1.60001L13.2468 4.23718C13.1285 5.53836 12.5056 6.74155 11.5113 7.58925L9.91581 8.95071C10.229 10.1431 10.0945 11.4271 9.50608 12.547L8.53675 14.1865L0.9 6.54975Z" id="Shape" fill="#000000" fill-rule="evenodd" stroke="none" artboard="fb4124bc-f773-4ec9-b6f9-f40d77af9169" />
  </g>
</svg>