<?xml version="1.0" encoding="utf-8"?>
<svg width="15px" height="15px" viewBox="0 0 15 15" version="1.1" xmlns:xlink="http://www.w3.org/1999/xlink" xmlns="http://www.w3.org/2000/svg">
  <defs>
    <rect width="15" height="15" id="artboard_1" />
    <clipPath id="clip_1">
      <use xlink:href="#artboard_1" clip-rule="evenodd" />
    </clipPath>
  </defs>
  <g id="icon--scan" clip-path="url(#clip_1)">
    <path d="M12.501 5L12.499 5Q12.4499 5 12.4016 4.99041Q12.3534 4.98082 12.308 4.96202Q12.2626 4.94321 12.2218 4.9159Q12.1809 4.8886 12.1462 4.85385Q12.1114 4.81909 12.0841 4.77823Q12.0568 4.73736 12.038 4.69196Q12.0192 4.64655 12.0096 4.59835Q12 4.55015 12 4.501L12 3L3 3L3 4.501Q3 4.55015 2.99041 4.59835Q2.98082 4.64655 2.96202 4.69196Q2.94321 4.73736 2.9159 4.77823Q2.8886 4.81909 2.85385 4.85385Q2.81909 4.8886 2.77823 4.9159Q2.73736 4.94321 2.69196 4.96202Q2.64655 4.98082 2.59835 4.99041Q2.55015 5 2.501 5L2.499 5Q2.44985 5 2.40165 4.99041Q2.35345 4.98082 2.30804 4.96202Q2.26263 4.94321 2.22177 4.9159Q2.18091 4.8886 2.14615 4.85385Q2.1114 4.81909 2.0841 4.77823Q2.05679 4.73736 2.03798 4.69196Q2.01918 4.64655 2.00959 4.59835Q2 4.55015 2 4.501L2 2.499Q2 2.44985 2.00959 2.40165Q2.01918 2.35345 2.03798 2.30804Q2.05679 2.26263 2.0841 2.22177Q2.1114 2.18091 2.14615 2.14615Q2.18091 2.1114 2.22177 2.0841Q2.26263 2.05679 2.30804 2.03798Q2.35345 2.01918 2.40165 2.00959Q2.44985 2 2.499 2L12.501 2Q12.5501 2 12.5983 2.00959Q12.6466 2.01918 12.692 2.03798Q12.7374 2.05679 12.7782 2.0841Q12.8191 2.1114 12.8538 2.14615Q12.8886 2.18091 12.9159 2.22177Q12.9432 2.26263 12.962 2.30804Q12.9808 2.35345 12.9904 2.40165Q13 2.44985 13 2.499L13 4.501Q13 4.55015 12.9904 4.59835Q12.9808 4.64655 12.962 4.69196Q12.9432 4.73736 12.9159 4.77823Q12.8886 4.81909 12.8538 4.85385Q12.8191 4.8886 12.7782 4.9159Q12.7374 4.94321 12.692 4.96202Q12.6466 4.98082 12.5983 4.99041Q12.5501 5 12.501 5ZM1.499 7L13.501 7Q13.5501 7 13.5983 7.00959Q13.6466 7.01918 13.692 7.03798Q13.7374 7.05679 13.7782 7.0841Q13.8191 7.1114 13.8538 7.14615Q13.8886 7.18091 13.9159 7.22177Q13.9432 7.26263 13.962 7.30804Q13.9808 7.35345 13.9904 7.40165Q14 7.44985 14 7.499L14 7.501Q14 7.55015 13.9904 7.59835Q13.9808 7.64655 13.962 7.69196Q13.9432 7.73736 13.9159 7.77823Q13.8886 7.81909 13.8538 7.85385Q13.8191 7.8886 13.7782 7.9159Q13.7374 7.94321 13.692 7.96201Q13.6466 7.98082 13.5983 7.99041Q13.5501 8 13.501 8L1.499 8Q1.44985 8 1.40165 7.99041Q1.35345 7.98082 1.30804 7.96201Q1.26263 7.94321 1.22177 7.9159Q1.18091 7.8886 1.14615 7.85385Q1.1114 7.81909 1.0841 7.77823Q1.05679 7.73736 1.03798 7.69196Q1.01918 7.64655 1.00959 7.59835Q1 7.55015 1 7.501L1 7.499Q1 7.44985 1.00959 7.40165Q1.01918 7.35345 1.03798 7.30804Q1.05679 7.26263 1.0841 7.22177Q1.1114 7.18091 1.14615 7.14615Q1.18091 7.1114 1.22177 7.0841Q1.26263 7.05679 1.30804 7.03798Q1.35345 7.01918 1.40165 7.00959Q1.44985 7 1.499 7ZM12 10.499Q12 10.4499 12.0096 10.4016Q12.0192 10.3534 12.038 10.308Q12.0568 10.2626 12.0841 10.2218Q12.1114 10.1809 12.1462 10.1462Q12.1809 10.1114 12.2218 10.0841Q12.2626 10.0568 12.308 10.038Q12.3534 10.0192 12.4016 10.0096Q12.4499 10 12.499 10L12.501 10Q12.5501 10 12.5983 10.0096Q12.6466 10.0192 12.692 10.038Q12.7374 10.0568 12.7782 10.0841Q12.8191 10.1114 12.8538 10.1462Q12.8886 10.1809 12.9159 10.2218Q12.9432 10.2626 12.962 10.308Q12.9808 10.3534 12.9904 10.4016Q13 10.4499 13 10.499L13 12.501Q13 12.5501 12.9904 12.5983Q12.9808 12.6466 12.962 12.692Q12.9432 12.7374 12.9159 12.7782Q12.8886 12.8191 12.8538 12.8538Q12.8191 12.8886 12.7782 12.9159Q12.7374 12.9432 12.692 12.962Q12.6466 12.9808 12.5983 12.9904Q12.5501 13 12.501 13L2.499 13Q2.44985 13 2.40165 12.9904Q2.35345 12.9808 2.30804 12.962Q2.26263 12.9432 2.22177 12.9159Q2.18091 12.8886 2.14615 12.8538Q2.1114 12.8191 2.0841 12.7782Q2.05679 12.7374 2.03798 12.692Q2.01918 12.6466 2.00959 12.5983Q2 12.5501 2 12.501L2 10.499Q2 10.4499 2.00959 10.4016Q2.01918 10.3534 2.03798 10.308Q2.05679 10.2626 2.0841 10.2218Q2.1114 10.1809 2.14615 10.1462Q2.18091 10.1114 2.22177 10.0841Q2.26263 10.0568 2.30804 10.038Q2.35345 10.0192 2.40165 10.0096Q2.44985 10 2.499 10L2.501 10Q2.55015 10 2.59835 10.0096Q2.64655 10.0192 2.69196 10.038Q2.73736 10.0568 2.77823 10.0841Q2.81909 10.1114 2.85385 10.1462Q2.8886 10.1809 2.9159 10.2218Q2.94321 10.2626 2.96202 10.308Q2.98082 10.3534 2.99041 10.4016Q3 10.4499 3 10.499L3 12L12 12L12 10.499Z" id="Combined-Shape" fill="#000000" fill-rule="evenodd" stroke="none" artboard="84a7cee1-e347-469a-bc06-4426e0a0bef2" />
  </g>
</svg>