<?xml version="1.0" encoding="utf-8"?>
<svg width="15px" height="15px" viewBox="0 0 15 15" version="1.1" xmlns:xlink="http://www.w3.org/1999/xlink" xmlns="http://www.w3.org/2000/svg">
  <defs>
    <rect width="15" height="15" id="artboard_1" />
    <clipPath id="clip_1">
      <use xlink:href="#artboard_1" clip-rule="evenodd" />
    </clipPath>
  </defs>
  <g id="icon--search" clip-path="url(#clip_1)">
    <path d="M10.1 6C10.1 3.73563 8.26437 1.9 6 1.9C3.73563 1.9 1.9 3.73563 1.9 6C1.9 8.26437 3.73563 10.1 6 10.1C6.95212 10.1 7.82844 9.77545 8.52436 9.23096L12.3355 13.0426C12.5308 13.2379 12.8474 13.2379 13.0426 13.0426C13.2379 12.8474 13.2379 12.5308 13.0426 12.3355L9.23096 8.52436C9.77546 7.82844 10.1 6.95212 10.1 6L10.1 6ZM2.9 6C2.9 4.28792 4.28792 2.9 6 2.9C7.71208 2.9 9.1 4.28792 9.1 6C9.1 7.71208 7.71208 9.1 6 9.1C4.28792 9.1 2.9 7.71208 2.9 6L2.9 6Z" id="Vector" fill="#000000" fill-rule="evenodd" stroke="none" artboard="cc3db453-9572-434b-9b7e-6cdc6499cd9b" />
  </g>
</svg>