<?xml version="1.0" encoding="utf-8"?>
<svg width="15px" height="15px" viewBox="0 0 15 15" version="1.1" xmlns:xlink="http://www.w3.org/1999/xlink" xmlns="http://www.w3.org/2000/svg">
  <defs>
    <rect width="15" height="15" id="artboard_1" />
    <clipPath id="clip_1">
      <use xlink:href="#artboard_1" clip-rule="evenodd" />
    </clipPath>
  </defs>
  <g id="icon--send" clip-path="url(#clip_1)">
    <path d="M4.421 7.499L1.06811 1.75194C0.817679 1.32263 1.27906 0.830516 1.72361 1.05279L13.7236 7.05279C14.0921 7.23702 14.0921 7.76279 13.7238 7.94714L1.73376 13.9471C1.2895 14.1695 0.828019 13.678 1.0778 13.2486L4.421 7.499ZM12.381 7.5L2.776 2.697L5.28712 7L8.501 7Q8.55015 7 8.59835 7.00959Q8.64655 7.01918 8.69196 7.03798Q8.73736 7.05679 8.77823 7.0841Q8.81909 7.1114 8.85385 7.14615Q8.8886 7.18091 8.9159 7.22177Q8.94321 7.26263 8.96202 7.30804Q8.98082 7.35345 8.99041 7.40165Q9 7.44985 9 7.499L9 7.501Q9 7.55015 8.99041 7.59835Q8.98082 7.64655 8.96202 7.69196Q8.94321 7.73736 8.9159 7.77823Q8.8886 7.81909 8.85385 7.85385Q8.81909 7.8886 8.77823 7.9159Q8.73736 7.94321 8.69196 7.96201Q8.64655 7.98082 8.59835 7.99041Q8.55015 8 8.501 8L5.28758 8L2.785 12.302L12.381 7.5Z" id="Combined-Shape" fill="#000000" fill-rule="evenodd" stroke="none" artboard="39a6d363-ab95-445f-954c-6a728a9b9679" />
  </g>
</svg>