<?xml version="1.0" encoding="utf-8"?>
<svg width="15px" height="15px" viewBox="0 0 15 15" version="1.1" xmlns:xlink="http://www.w3.org/1999/xlink" xmlns="http://www.w3.org/2000/svg">
  <defs>
    <rect width="15" height="15" id="artboard_1" />
    <clipPath id="clip_1">
      <use xlink:href="#artboard_1" clip-rule="evenodd" />
    </clipPath>
  </defs>
  <g id="icon--settings" clip-path="url(#clip_1)">
    <path d="M4.501 3L4.499 3C4.3612 3 4.24359 3.04872 4.14615 3.14615C4.04872 3.24359 4 3.3612 4 3.499L4 8L5 8L5 3.499C5 3.3612 4.95128 3.24359 4.85385 3.14615C4.75641 3.04872 4.63879 3 4.501 3L4.501 3ZM7.499 3C7.3612 3 7.24359 3.04872 7.14615 3.14615C7.04872 3.24359 7 3.3612 7 3.499L7 5L6.5 5C6.22386 5 6 5.22386 6 5.5C6 5.77614 6.22386 6 6.5 6L8.5 6C8.77614 6 9 5.77614 9 5.5C9 5.22386 8.77614 5 8.5 5L8 5L8 3.499C8 3.3612 7.95128 3.24359 7.85385 3.14615C7.75641 3.04872 7.63879 3 7.501 3L7.499 3L7.499 3ZM10.499 3C10.3612 3 10.2436 3.04872 10.1462 3.14615C10.0487 3.24359 10 3.3612 10 3.499L10 7L11 7L11 3.499C11 3.3612 10.9513 3.24359 10.8538 3.14615C10.7564 3.04872 10.6388 3 10.501 3L10.499 3L10.499 3ZM7 7L7 11.501C7 11.6388 7.04872 11.7564 7.14615 11.8538C7.24359 11.9513 7.3612 12 7.499 12L7.501 12C7.63879 12 7.75641 11.9513 7.85385 11.8538C7.95128 11.7564 8 11.6388 8 11.501L8 7L7 7L7 7ZM11.5 9C11.7761 9 12 8.77614 12 8.5C12 8.22386 11.7761 8 11.5 8L9.5 8C9.22386 8 9 8.22386 9 8.5C9 8.77614 9.22386 9 9.5 9L10 9L10 11.501C10 11.6388 10.0487 11.7564 10.1462 11.8538C10.2436 11.9513 10.3612 12 10.499 12L10.501 12C10.6388 12 10.7564 11.9513 10.8538 11.8538C10.9513 11.7564 11 11.6388 11 11.501L11 9L11.5 9L11.5 9ZM5.5 10C5.77614 10 6 9.77614 6 9.5C6 9.22386 5.77614 9 5.5 9L3.5 9C3.22386 9 3 9.22386 3 9.5C3 9.77614 3.22386 10 3.5 10L4 10L4 11.501C4 11.6388 4.04872 11.7564 4.14615 11.8538C4.24359 11.9513 4.3612 12 4.499 12L4.501 12C4.63879 12 4.75641 11.9513 4.85385 11.8538C4.95128 11.7564 5 11.6388 5 11.501L5 10L5.5 10L5.5 10Z" id="Vector" fill="#000000" fill-rule="evenodd" stroke="none" artboard="c49e8680-7ab9-4db3-a23b-7021c1905396" />
  </g>
</svg>