<?xml version="1.0" encoding="utf-8"?>
<svg width="15px" height="15px" viewBox="0 0 15 15" version="1.1" xmlns:xlink="http://www.w3.org/1999/xlink" xmlns="http://www.w3.org/2000/svg">
  <defs>
    <rect width="15" height="15" id="artboard_1" />
    <clipPath id="clip_1">
      <use xlink:href="#artboard_1" clip-rule="evenodd" />
    </clipPath>
  </defs>
  <g id="icon--signal" clip-path="url(#clip_1)">
    <path d="M1 8L1 7L3.70511 7Q3.78042 7 3.85237 6.97778Q3.92432 6.95556 3.9865 6.91309Q4.04869 6.87063 4.09558 6.81171Q4.14247 6.75278 4.16988 6.68264L5.5227 3.22125Q5.52955 3.20371 5.53771 3.18673Q5.54587 3.16976 5.55528 3.15345Q5.5647 3.13714 5.57532 3.12158Q5.58593 3.10603 5.59769 3.09131Q5.60945 3.0766 5.62229 3.06282Q5.63512 3.04904 5.64896 3.03626Q5.6628 3.02349 5.67756 3.01179Q5.69232 3.0001 5.70792 2.98955Q5.72352 2.97899 5.73987 2.96965Q5.75622 2.96031 5.77323 2.95222Q5.79024 2.94413 5.80781 2.93735Q5.82538 2.93057 5.84341 2.92514Q5.86144 2.9197 5.87983 2.91564Q5.89822 2.91158 5.91686 2.90891Q5.93551 2.90625 5.9543 2.90499Q5.97309 2.90374 5.99192 2.90391Q6.01076 2.90408 6.02952 2.90567Q6.04829 2.90725 6.06688 2.91025Q6.08547 2.91325 6.10379 2.91764Q6.1221 2.92203 6.14003 2.92779Q6.15796 2.93355 6.17541 2.94064Q6.19286 2.94773 6.20972 2.95612Q6.22658 2.96451 6.24276 2.97414Q6.25894 2.98378 6.27435 2.99461Q6.28976 3.00543 6.30431 3.01739Q6.31886 3.02935 6.33247 3.04237Q6.34607 3.05539 6.35866 3.0694Q6.37125 3.08341 6.38274 3.09833Q6.39423 3.11325 6.40457 3.12899Q6.41491 3.14473 6.42403 3.16121Q6.43315 3.17769 6.44101 3.1948Q6.44886 3.21192 6.4554 3.22958L9 10.1L9.91449 7.9193Q9.95709 7.81771 10.0141 7.72344Q10.0711 7.62917 10.1412 7.54424Q10.2114 7.45932 10.2932 7.38556Q10.3751 7.31181 10.4668 7.25081Q10.5585 7.1898 10.6582 7.14287Q10.7578 7.09593 10.8633 7.06407Q10.9687 7.03221 11.0777 7.0161Q11.1867 7 11.2969 7L14 7L14 8L11.3814 8Q11.3071 8 11.236 8.02164Q11.165 8.04328 11.1033 8.08468Q11.0416 8.12608 10.9947 8.18366Q10.9477 8.24123 10.9196 8.30998L9.48503 11.815Q9.47794 11.8323 9.46958 11.849Q9.46122 11.8657 9.45162 11.8818Q9.44203 11.8979 9.43126 11.9132Q9.42049 11.9285 9.40861 11.9429Q9.39673 11.9574 9.38379 11.9709Q9.37086 11.9844 9.35695 11.9969Q9.34304 12.0094 9.32823 12.0209Q9.31343 12.0323 9.29781 12.0426Q9.28219 12.0529 9.26584 12.062Q9.24949 12.0711 9.2325 12.0789Q9.21552 12.0868 9.198 12.0933Q9.18047 12.0999 9.16251 12.1051Q9.14454 12.1103 9.12624 12.1142Q9.10793 12.1181 9.08939 12.1205Q9.07085 12.123 9.05217 12.1241Q9.03349 12.1252 9.01478 12.1249Q8.99608 12.1246 8.97745 12.1228Q8.95882 12.1211 8.94037 12.118Q8.92192 12.1149 8.90376 12.1104Q8.88559 12.106 8.86781 12.1001Q8.85003 12.0943 8.83274 12.0872Q8.81545 12.08 8.79874 12.0716Q8.78203 12.0632 8.766 12.0535Q8.74997 12.0439 8.7347 12.0331Q8.71944 12.0223 8.70503 12.0103Q8.69062 11.9984 8.67714 11.9854Q8.66366 11.9725 8.65119 11.9585Q8.63872 11.9446 8.62733 11.9297Q8.61594 11.9149 8.6057 11.8992Q8.59545 11.8836 8.58641 11.8672Q8.57736 11.8508 8.56957 11.8338Q8.56178 11.8168 8.55528 11.7992L6 4.9L5.08551 7.0807Q5.04291 7.18229 4.98591 7.27656Q4.92892 7.37083 4.85875 7.45576Q4.78859 7.54068 4.70676 7.61444Q4.62494 7.68819 4.53321 7.74919Q4.44148 7.81019 4.34182 7.85713Q4.24216 7.90407 4.13671 7.93593Q4.03126 7.96779 3.92228 7.9839Q3.8133 8 3.70314 8L1 8Z" id="Path" fill="#000000" fill-rule="evenodd" stroke="none" artboard="7cc671a6-da5c-4cca-af81-bf150281b04a" />
  </g>
</svg>