<?xml version="1.0" encoding="utf-8"?>
<svg width="15px" height="15px" viewBox="0 0 15 15" version="1.1" xmlns:xlink="http://www.w3.org/1999/xlink" xmlns="http://www.w3.org/2000/svg">
  <defs>
    <rect width="15" height="15" id="artboard_1" />
    <clipPath id="clip_1">
      <use xlink:href="#artboard_1" clip-rule="evenodd" />
    </clipPath>
  </defs>
  <g id="icon--skull" clip-path="url(#clip_1)">
    <path d="M7.5 1C10.5376 1 13 3.46243 13 6.5L13 9.5C13 10.1528 12.5829 10.7083 12.0007 10.9144L12 12.5C12 13.2797 11.4051 13.9204 10.6445 13.9931L10.5 14L4.5 14C3.7203 14 3.07955 13.4051 3.00687 12.6445L3 12.5L3.00029 10.9148C2.41754 10.7089 2 10.1532 2 9.5L2 6.5C2 3.46243 4.46243 1 7.5 1ZM7.5 2C5.08573 2 3.11551 3.90124 3.0049 6.28816L3 6.5L3 9.5C3 9.74546 3.17688 9.94961 3.41012 9.99194L3.5 10C3.77614 10 4 10.2239 4 10.5L4 12.5L4.00806 12.5899C4.0451 12.794 4.20603 12.9549 4.41012 12.9919L4.5 13L5 13L5 11.5C5 11.2239 5.22386 11 5.5 11C5.77614 11 6 11.2239 6 11.5L6 13L7 13L7 11.5C7 11.2239 7.22386 11 7.5 11C7.77614 11 8 11.2239 8 11.5L8 13L9 13L9 11.5C9 11.2239 9.22386 11 9.5 11C9.77614 11 10 11.2239 10 11.5L10 13L10.5 13L10.5899 12.9919C10.794 12.9549 10.9549 12.794 10.9919 12.5899L11 12.5L11 10.5C11 10.2545 11.1769 10.0504 11.4101 10.0081L11.5 10C11.7455 10 11.9496 9.82312 11.9919 9.58988L12 9.5L12 6.5C12 4.01472 9.98528 2 7.5 2ZM7.62 7.67331C7.63516 7.68468 7.64863 7.69815 7.66 7.71331L8.76 9.17998C8.82627 9.26834 8.80836 9.39371 8.72 9.45998C8.68538 9.48594 8.64327 9.49998 8.6 9.49998L6.4 9.49998C6.28954 9.49998 6.2 9.41044 6.2 9.29998C6.2 9.25671 6.21404 9.2146 6.24 9.17998L7.34 7.71331C7.40627 7.62495 7.53163 7.60704 7.62 7.67331ZM9.5 5.5C10.0523 5.5 10.5 5.94772 10.5 6.5C10.5 7.05228 10.0523 7.5 9.5 7.5C8.94772 7.5 8.5 7.05228 8.5 6.5C8.5 5.94772 8.94772 5.5 9.5 5.5ZM5.5 5.5C6.05228 5.5 6.5 5.94772 6.5 6.5C6.5 7.05228 6.05228 7.5 5.5 7.5C4.94772 7.5 4.5 7.05228 4.5 6.5C4.5 5.94772 4.94772 5.5 5.5 5.5Z" id="Shape" fill="#000000" fill-rule="evenodd" stroke="none" artboard="f7ded44e-a6c9-4dc0-83a8-6dd7d537014f" />
  </g>
</svg>