<?xml version="1.0" encoding="utf-8"?>
<svg width="15px" height="15px" viewBox="0 0 15 15" version="1.1" xmlns:xlink="http://www.w3.org/1999/xlink" xmlns="http://www.w3.org/2000/svg">
  <defs>
    <rect width="15" height="15" id="artboard_1" />
    <clipPath id="clip_1">
      <use xlink:href="#artboard_1" clip-rule="evenodd" />
    </clipPath>
  </defs>
  <g id="icon--spinner-two" clip-path="url(#clip_1)">
    <path d="M9.83551 1.86266C9.85499 1.6264 9.70358 1.40271 9.46648 1.33918C9.19975 1.26771 8.92558 1.426 8.85411 1.69274L8.33647 3.62459L8.32099 3.71349C8.30151 3.94974 8.45293 4.17343 8.69002 4.23696C8.95676 4.30843 9.23093 4.15014 9.3024 3.88341L9.82003 1.95155L9.83551 1.86266L9.83551 1.86266ZM6.68316 1.60801C6.5819 1.39366 6.33893 1.27565 6.10183 1.33918C5.8351 1.41065 5.67681 1.68482 5.74828 1.95156L6.26592 3.88341L6.29696 3.96813C6.39822 4.18248 6.64119 4.30049 6.87829 4.23696C7.14502 4.16549 7.30331 3.89132 7.23184 3.62459L6.7142 1.69274L6.68316 1.60801L6.68316 1.60801ZM5.30928 5.14283C5.50454 4.94756 5.50454 4.63098 5.30928 4.43572L3.89507 3.02151C3.6998 2.82625 3.38322 2.82625 3.18796 3.02151C2.9927 3.21677 2.9927 3.53335 3.18796 3.72861L4.60217 5.14283C4.79744 5.33809 5.11402 5.33809 5.30928 5.14283L5.30928 5.14283ZM13.7091 6.54772C13.9759 6.47625 14.1341 6.20208 14.0627 5.93535C13.9912 5.66862 13.717 5.51033 13.4503 5.5818L11.5184 6.09944C11.2517 6.17091 11.0934 6.44508 11.1649 6.71181C11.2364 6.97854 11.5105 7.13683 11.7773 7.06536L13.7091 6.54772L13.7091 6.54772ZM3.79105 7.06542C4.05778 7.13689 4.33195 6.9786 4.40342 6.71187C4.47489 6.44513 4.3166 6.17097 4.04987 6.0995L2.11802 5.58186C1.85128 5.51039 1.57712 5.66868 1.50564 5.93541C1.43417 6.20214 1.59247 6.47631 1.8592 6.54778L3.79105 7.06542L3.79105 7.06542ZM13.4503 9.65356C13.717 9.72503 13.9912 9.56674 14.0627 9.3C14.1341 9.03327 13.9759 8.7591 13.7091 8.68763L11.7773 8.16999C11.5105 8.09852 11.2364 8.25681 11.1649 8.52355C11.0934 8.79028 11.2517 9.06445 11.5185 9.13592L13.4503 9.65356L13.4503 9.65356ZM4.04986 9.13592C4.3166 9.06445 4.47489 8.79028 4.40342 8.52355C4.33195 8.25681 4.05778 8.09852 3.79104 8.16999L1.85919 8.68763C1.59246 8.7591 1.43417 9.03327 1.50564 9.30001C1.57711 9.56674 1.85128 9.72503 2.11801 9.65356L4.04986 9.13592L4.04986 9.13592ZM12.3804 12.2139C12.5756 12.0186 12.5756 11.702 12.3804 11.5068L10.9661 10.0926C10.7709 9.89729 10.4543 9.89729 10.259 10.0926C10.0638 10.2878 10.0638 10.6044 10.259 10.7997L11.6732 12.2139C11.8685 12.4091 12.1851 12.4091 12.3804 12.2139L12.3804 12.2139ZM5.30929 10.7997C5.50455 10.6044 5.50455 10.2878 5.30929 10.0926C5.11402 9.89729 4.79744 9.89729 4.60218 10.0926L3.18797 11.5068C2.9927 11.702 2.9927 12.0186 3.18797 12.2139C3.38323 12.4091 3.69981 12.4091 3.89507 12.2139L5.30929 10.7997L5.30929 10.7997ZM7.24734 11.5219C7.26682 11.2856 7.1154 11.062 6.87831 10.9984C6.61157 10.927 6.33741 11.0852 6.26593 11.352L5.7483 13.2838L5.73282 13.3727C5.71334 13.609 5.86475 13.8327 6.10185 13.8962C6.36858 13.9677 6.64275 13.8094 6.71422 13.5426L7.23186 11.6108L7.24734 11.5219L7.24734 11.5219ZM9.27136 11.2672C9.17009 11.0529 8.92712 10.9349 8.69003 10.9984C8.42329 11.0699 8.265 11.3441 8.33647 11.6108L8.85411 13.5426L8.88516 13.6274C8.98642 13.8417 9.22939 13.9597 9.46649 13.8962C9.73322 13.8247 9.89151 13.5506 9.82004 13.2838L9.3024 11.352L9.27136 11.2672L9.27136 11.2672Z" id="Vector" fill="#000000" fill-rule="evenodd" stroke="none" artboard="eba97427-bd84-4411-9346-25e3d54ca955" />
  </g>
</svg>