<?xml version="1.0" encoding="utf-8"?>
<svg width="15px" height="15px" viewBox="0 0 15 15" version="1.1" xmlns:xlink="http://www.w3.org/1999/xlink" xmlns="http://www.w3.org/2000/svg">
  <defs>
    <rect width="15" height="15" id="artboard_1" />
    <clipPath id="clip_1">
      <use xlink:href="#artboard_1" clip-rule="evenodd" />
    </clipPath>
  </defs>
  <g id="icon--spinner-four" clip-path="url(#clip_1)">
    <path d="M10.0593 2.0483C9.96329 2.30721 9.67556 2.43925 9.41665 2.34322C7.41608 1.60121 5.1463 2.07557 3.61094 3.61093C2.07559 5.14629 1.60122 7.41607 2.34323 9.41664C2.43926 9.67555 2.30722 9.96328 2.04831 10.0593C1.7894 10.1553 1.50167 10.0233 1.40564 9.76439C0.528933 7.40065 1.08957 4.71809 2.90383 2.90382C4.7181 1.08956 7.40066 0.528921 9.7644 1.40563C10.0233 1.50166 10.1553 1.78939 10.0593 2.0483ZM13.5948 5.23675C14.4709 7.60025 13.9102 10.2822 12.0962 12.0962C10.2822 13.9102 7.60026 14.4709 5.23675 13.5948C4.97783 13.4988 4.84574 13.2111 4.94172 12.9522C5.0377 12.6933 5.32541 12.5612 5.58433 12.6572C7.58471 13.3987 9.85401 12.9242 11.3891 11.3891C12.9242 9.854 13.3987 7.5847 12.6572 5.58433C12.5612 5.3254 12.6933 5.03769 12.9522 4.94171C13.2111 4.84573 13.4988 4.97782 13.5948 5.23675Z" id="Shape" fill="#000000" fill-rule="evenodd" stroke="none" artboard="082991b2-cd54-48de-86b4-838c731991a2" />
  </g>
</svg>