<?xml version="1.0" encoding="utf-8"?>
<svg width="15px" height="15px" viewBox="0 0 15 15" version="1.1" xmlns:xlink="http://www.w3.org/1999/xlink" xmlns="http://www.w3.org/2000/svg">
  <defs>
    <rect width="15" height="15" id="artboard_1" />
    <clipPath id="clip_1">
      <use xlink:href="#artboard_1" clip-rule="evenodd" />
    </clipPath>
  </defs>
  <g id="icon--spinner-three" clip-path="url(#clip_1)">
    <path d="M7.5 11.7C7.77614 11.7 8 11.9239 8 12.2L8 13.5C8 13.7762 7.77614 14 7.5 14C7.22386 14 7 13.7762 7 13.5L7 12.2C7 11.9239 7.22386 11.7 7.5 11.7ZM4.31802 10.682C4.51328 10.8772 4.51328 11.1938 4.31802 11.3891L3.61091 12.0962C3.41565 12.2914 3.09907 12.2914 2.90381 12.0962C2.70854 11.9009 2.70854 11.5843 2.90381 11.3891L3.61091 10.682C3.80617 10.4867 4.12276 10.4867 4.31802 10.682ZM10.8907 10.1836L12.0927 11.3856C12.288 11.5809 12.288 11.8975 12.0927 12.0927C11.8975 12.288 11.5809 12.288 11.3856 12.0927L10.1836 10.8907C9.98829 10.6954 9.98829 10.3788 10.1836 10.1836C10.3788 9.98829 10.6954 9.98829 10.8907 10.1836ZM13.5 7C13.7761 7 14 7.22386 14 7.5C14 7.77614 13.7761 8 13.5 8L11.5 8C11.2239 8 11 7.77614 11 7.5C11 7.22386 11.2239 7 11.5 7L13.5 7ZM2.2 7C2.47614 7 2.7 7.22386 2.7 7.5C2.7 7.77614 2.47614 8 2.2 8L1.5 8C1.22386 8 1 7.77614 1 7.5C1 7.22386 1.22386 7 1.5 7L2.2 7ZM3.61066 2.90353L3.82279 3.11566C4.01805 3.31092 4.01805 3.6275 3.82279 3.82277C3.62753 4.01803 3.31095 4.01803 3.11569 3.82277L2.90355 3.61063C2.70829 3.41537 2.70829 3.09879 2.90355 2.90353C3.09882 2.70826 3.4154 2.70826 3.61066 2.90353ZM7.5 1C7.77614 1 8 1.22386 8 1.5C8 1.77614 7.77614 2 7.5 2C7.22386 2 7 1.77614 7 1.5C7 1.22386 7.22386 1 7.5 1Z" id="Shape" fill="#000000" fill-rule="evenodd" stroke="none" artboard="f14b30b6-ac5b-4c7d-b58a-8a485348bb59" />
  </g>
</svg>