<?xml version="1.0" encoding="utf-8"?>
<svg width="15px" height="15px" viewBox="0 0 15 15" version="1.1" xmlns:xlink="http://www.w3.org/1999/xlink" xmlns="http://www.w3.org/2000/svg">
  <defs>
    <rect width="15" height="15" id="artboard_1" />
    <clipPath id="clip_1">
      <use xlink:href="#artboard_1" clip-rule="evenodd" />
    </clipPath>
  </defs>
  <g id="icon--spinner" clip-path="url(#clip_1)">
    <path d="M7.5065 11.2909C8.1714 11.2909 8.7112 11.8307 8.7112 12.4956C8.7112 13.1605 8.1714 13.7003 7.5065 13.7003C6.8416 13.7003 6.3017 13.1605 6.3017 12.4956C6.3017 11.8307 6.8416 11.2909 7.5065 11.2909ZM11.9193 10.1511C12.4061 10.6378 12.4061 11.4282 11.9193 11.915C11.4326 12.4017 10.6422 12.4017 10.1554 11.915C9.6687 11.4282 9.6687 10.6378 10.1554 10.1511C10.6422 9.66431 11.4326 9.66431 11.9193 10.1511ZM4.7873 10.2212C5.2354 10.6693 5.2354 11.3968 4.7873 11.8448C4.3393 12.2928 3.6118 12.2928 3.1638 11.8448C2.7157 11.3968 2.7157 10.6693 3.1638 10.2212C3.6118 9.77319 4.3393 9.77319 4.7873 10.2212ZM12.4999 6.19507C13.2213 6.19507 13.8069 6.78067 13.8069 7.50207C13.8069 8.22347 13.2213 8.80907 12.4999 8.80907C11.7786 8.80907 11.1929 8.22347 11.1929 7.50207C11.1929 6.78067 11.7786 6.19507 12.4999 6.19507ZM2.513 6.43909C3.0997 6.43909 3.576 6.91539 3.576 7.50209C3.576 8.08879 3.0997 8.56509 2.513 8.56509C1.9263 8.56509 1.45 8.08879 1.45 7.50209C1.45 6.91539 1.9263 6.43909 2.513 6.43909ZM4.617 3.32977C4.971 3.68377 4.971 4.25857 4.617 4.61257C4.2629 4.96657 3.6881 4.96657 3.3341 4.61257C2.9801 4.25857 2.9801 3.68377 3.3341 3.32977C3.6881 2.97577 4.2629 2.97577 4.617 3.32977ZM7.5065 1.79999C7.8976 1.79999 8.2151 2.11749 8.2151 2.50859C8.2151 2.89979 7.8976 3.21729 7.5065 3.21729C7.1153 3.21729 6.7978 2.89979 6.7978 2.50859C6.7978 2.11749 7.1153 1.79999 7.5065 1.79999Z" id="Shape" fill="#000000" fill-rule="evenodd" stroke="none" artboard="b09f5c8a-cae4-4900-a49f-9fe3d4177525" />
  </g>
</svg>