<?xml version="1.0" encoding="utf-8"?>
<svg width="15px" height="15px" viewBox="0 0 15 15" version="1.1" xmlns:xlink="http://www.w3.org/1999/xlink" xmlns="http://www.w3.org/2000/svg">
  <defs>
    <rect width="15" height="15" id="artboard_1" />
    <clipPath id="clip_1">
      <use xlink:href="#artboard_1" clip-rule="evenodd" />
    </clipPath>
  </defs>
  <g id="icon--star-filled" clip-path="url(#clip_1)">
    <path d="M7.78238 0.821934C7.8578 0.852413 7.9176 0.912215 7.94808 0.987631L9.61724 5.11774L14.061 5.42893C14.2263 5.4405 14.3508 5.58384 14.3393 5.74909C14.3336 5.83023 14.2952 5.90558 14.2329 5.95788L10.8207 8.82162L11.8979 13.1441C11.938 13.3048 11.8402 13.4676 11.6794 13.5076C11.6005 13.5273 11.517 13.5141 11.448 13.471L7.67 11.1107L3.892 13.471C3.75151 13.5587 3.56648 13.516 3.47871 13.3755C3.43561 13.3065 3.42238 13.223 3.44205 13.1441L4.51929 8.82162L1.10712 5.95788C0.98024 5.85139 0.963708 5.6622 1.0702 5.53532C1.12249 5.47301 1.19784 5.43461 1.27899 5.42893L5.72275 5.11774L7.39192 0.987631C7.45398 0.83405 7.6288 0.759865 7.78238 0.821934Z" id="Star" fill="#000000" stroke="none" artboard="49594b80-b0c9-4bad-82c3-f68450065263" />
  </g>
</svg>