<?xml version="1.0" encoding="utf-8"?>
<svg width="15px" height="15px" viewBox="0 0 15 15" version="1.1" xmlns:xlink="http://www.w3.org/1999/xlink" xmlns="http://www.w3.org/2000/svg">
  <defs>
    <rect width="15" height="15" id="artboard_1" />
    <clipPath id="clip_1">
      <use xlink:href="#artboard_1" clip-rule="evenodd" />
    </clipPath>
  </defs>
  <g id="icon--switch-off" clip-path="url(#clip_1)">
    <path d="M10.5 3C12.9853 3 15 5.01472 15 7.5C15 9.98528 12.9853 12 10.5 12L4.5 12C2.01472 12 0 9.98528 0 7.5C0 5.01472 2.01472 3 4.5 3L10.5 3ZM4.5 4C2.567 4 1 5.567 1 7.5C1 9.433 2.567 11 4.5 11C6.433 11 8 9.433 8 7.5C8 5.567 6.433 4 4.5 4ZM10.5 4L7.32879 4.0001C8.34822 4.82508 9 6.08642 9 7.5C9 8.91405 8.34778 10.1758 7.32777 11.0007L10.5 11C12.433 11 14 9.433 14 7.5C14 5.63144 12.5357 4.10487 10.692 4.00518L10.5 4Z" id="Shape" fill="#000000" stroke="none" artboard="f8056a54-4f4e-4cf7-9c2e-748a296d2640" />
  </g>
</svg>