<?xml version="1.0" encoding="utf-8"?>
<svg width="15px" height="15px" viewBox="0 0 15 15" version="1.1" xmlns:xlink="http://www.w3.org/1999/xlink" xmlns="http://www.w3.org/2000/svg">
  <defs>
    <rect width="15" height="15" id="artboard_1" />
    <clipPath id="clip_1">
      <use xlink:href="#artboard_1" clip-rule="evenodd" />
    </clipPath>
  </defs>
  <g id="icon--sync" clip-path="url(#clip_1)">
    <path d="M7.97981 13.0771C7.39339 13.1284 6.81068 13.0881 6.24745 12.9602C5.97817 12.899 5.80947 12.6311 5.87064 12.3618C5.93182 12.0926 6.1997 11.9239 6.46898 11.985C6.93133 12.0901 7.40991 12.1231 7.89265 12.0809C10.4275 11.8591 12.3026 9.62445 12.0808 7.08962C11.9872 6.01917 11.5304 5.04252 10.812 4.29688L10.7464 5.27286L10.7328 5.36368C10.6763 5.59862 10.4652 5.77089 10.2158 5.77109C9.96027 5.77125 9.753 5.56427 9.75282 5.30877L9.90948 3.1966L9.91795 3.11311C9.9568 2.92071 10.1242 2.75028 10.3156 2.70623L10.4109 2.69522L12.4452 2.69582L12.5348 2.70388C12.7674 2.74615 12.9437 2.94973 12.9437 3.19448C12.9437 3.42795 12.7781 3.62275 12.5579 3.6678L12.4454 3.67738L11.5855 3.65925C12.4291 4.55941 12.9654 5.72668 13.077 7.00246C13.3469 10.0875 11.0648 12.8072 7.97981 13.0771ZM7.02001 1.92053C7.60642 1.86922 8.18914 1.90948 8.75236 2.03743C9.02164 2.09861 9.19035 2.3665 9.12917 2.63578C9.068 2.90506 8.80011 3.07376 8.53083 3.01259C8.06849 2.90755 7.5899 2.87449 7.10716 2.91672C4.57232 3.13849 2.69721 5.37316 2.91898 7.908C3.01263 8.97845 3.46945 9.9551 4.1878 10.7007L4.25339 9.72476L4.26706 9.63393C4.32347 9.399 4.53465 9.22673 4.78405 9.22653C5.03954 9.22637 5.24681 9.43335 5.24699 9.68884L5.09034 11.801L5.08186 11.8845C5.04301 12.0769 4.87566 12.2473 4.6842 12.2914L4.58895 12.3024L2.55462 12.3018L2.465 12.2937C2.23243 12.2515 2.0561 12.0479 2.0561 11.8031C2.0561 11.5697 2.22172 11.3749 2.44188 11.3298L2.55437 11.3202L3.41427 11.3384C2.57069 10.4382 2.0344 9.27094 1.92278 7.99516C1.65288 4.91014 3.93498 2.19043 7.02001 1.92053Z" id="Combined-Shape" fill="#000000" fill-rule="evenodd" stroke="none" artboard="87b957d7-47c9-44a7-827c-ff97cf088096" />
  </g>
</svg>