<?xml version="1.0" encoding="utf-8"?>
<svg width="15px" height="15px" viewBox="0 0 15 15" version="1.1" xmlns:xlink="http://www.w3.org/1999/xlink" xmlns="http://www.w3.org/2000/svg">
  <defs>
    <rect width="15" height="15" id="artboard_1" />
    <clipPath id="clip_1">
      <use xlink:href="#artboard_1" clip-rule="evenodd" />
    </clipPath>
  </defs>
  <g id="icon--tooltip-check" clip-path="url(#clip_1)">
    <path d="M14 3.5C14 2.67157 13.3284 2 12.5 2L2.5 2C1.67157 2 1 2.67157 1 3.5L1 9.5C1 10.3284 1.67157 11 2.5 11L4.975 11L7.5 13.558L10.025 11L12.5 11C13.3284 11 14 10.3284 14 9.5L14 3.5L14 3.5ZM2.5 3L12.5 3L12.5899 3.00806C12.8231 3.05039 13 3.25454 13 3.5L13 9.5L12.9919 9.58988C12.9496 9.82312 12.7455 10 12.5 10L9.60698 10L7.5 12.134L5.39302 10L2.5 10L2.41012 9.99194C2.17688 9.94961 2 9.74546 2 9.5L2 3.5L2.00806 3.41012C2.05039 3.17688 2.25454 3 2.5 3L2.5 3ZM10.0576 4.55428L10.0561 4.55286C9.95871 4.45543 9.8411 4.40671 9.7033 4.40671C9.56551 4.40671 9.44789 4.45543 9.35046 4.55286L6.52132 7.382L5.45995 6.32063C5.36252 6.22319 5.2449 6.17447 5.10711 6.17447C4.96931 6.17447 4.8517 6.22319 4.75426 6.32063L4.75285 6.32204C4.65541 6.41948 4.60669 6.53709 4.60669 6.67489C4.60669 6.81268 4.65541 6.9303 4.75285 7.02774L6.3099 8.58479C6.36828 8.64317 6.43876 8.67236 6.52132 8.67236C6.60389 8.67236 6.67436 8.64317 6.73275 8.58479L10.0576 5.25997C10.155 5.16253 10.2037 5.04492 10.2037 4.90712C10.2037 4.76933 10.155 4.65171 10.0576 4.55428L10.0576 4.55428Z" id="Vector" fill="#000000" fill-rule="evenodd" stroke="none" artboard="d007c5ff-d1d2-48c3-81d1-d0407e4463ff" />
  </g>
</svg>