<?xml version="1.0" encoding="utf-8"?>
<svg width="15px" height="15px" viewBox="0 0 15 15" version="1.1" xmlns:xlink="http://www.w3.org/1999/xlink" xmlns="http://www.w3.org/2000/svg">
  <defs>
    <rect width="15" height="15" id="artboard_1" />
    <clipPath id="clip_1">
      <use xlink:href="#artboard_1" clip-rule="evenodd" />
    </clipPath>
  </defs>
  <g id="icon--tooltip-cross" clip-path="url(#clip_1)">
    <path d="M12.5 2C13.3284 2 14 2.67157 14 3.5L14 9.5C14 10.3284 13.3284 11 12.5 11L10.025 11L7.5 13.558L4.975 11L2.5 11C1.67157 11 1 10.3284 1 9.5L1 3.5C1 2.67157 1.67157 2 2.5 2L12.5 2ZM12.5 3L2.5 3C2.25454 3 2.05039 3.17688 2.00806 3.41012L2 3.5L2 9.5C2 9.74546 2.17688 9.94961 2.41012 9.99194L2.5 10L5.39302 10L7.5 12.134L9.60698 10L12.5 10C12.7455 10 12.9496 9.82312 12.9919 9.58988L13 9.5L13 3.5C13 3.25454 12.8231 3.05039 12.5899 3.00806L12.5 3ZM6.08355 4.39645L7.49777 5.91L8.91198 4.39645C9.10724 4.20118 9.42383 4.20118 9.61909 4.39645C9.81435 4.59171 9.81435 4.90829 9.61909 5.10355L8.1 6.51777L9.61909 7.93198C9.81435 8.12724 9.81435 8.44382 9.61909 8.63909C9.42383 8.83435 9.10724 8.83435 8.91198 8.63909L7.49777 7.12L6.08355 8.63909C5.88829 8.83435 5.57171 8.83435 5.37645 8.63909C5.18118 8.44382 5.18118 8.12724 5.37645 7.93198L6.89 6.51777L5.37645 5.10355C5.18118 4.90829 5.18118 4.59171 5.37645 4.39645C5.57171 4.20118 5.88829 4.20118 6.08355 4.39645Z" id="Shape" fill="#000000" fill-rule="evenodd" stroke="none" artboard="30ae47f3-8dfe-4d0b-8933-8a31bb123ad8" />
  </g>
</svg>