<?xml version="1.0" encoding="utf-8"?>
<svg width="15px" height="15px" viewBox="0 0 15 15" version="1.1" xmlns:xlink="http://www.w3.org/1999/xlink" xmlns="http://www.w3.org/2000/svg">
  <defs>
    <rect width="15" height="15" id="artboard_1" />
    <clipPath id="clip_1">
      <use xlink:href="#artboard_1" clip-rule="evenodd" />
    </clipPath>
  </defs>
  <g id="icon--tooltip-plus" clip-path="url(#clip_1)">
    <path d="M12.5 2C13.3284 2 14 2.67157 14 3.5L14 9.5C14 10.3284 13.3284 11 12.5 11L10.025 11L7.5 13.558L4.975 11L2.5 11C1.67157 11 1 10.3284 1 9.5L1 3.5C1 2.67157 1.67157 2 2.5 2L12.5 2ZM12.5 3L2.5 3C2.25454 3 2.05039 3.17688 2.00806 3.41012L2 3.5L2 9.5C2 9.74546 2.17688 9.94961 2.41012 9.99194L2.5 10L5.39302 10L7.5 12.134L9.60698 10L12.5 10C12.7455 10 12.9496 9.82312 12.9919 9.58988L13 9.5L13 3.5C13 3.25454 12.8231 3.05039 12.5899 3.00806L12.5 3ZM7.5 4C7.77614 4 8 4.22386 8 4.5L8 6L9.5 6C9.77614 6 10 6.22386 10 6.5C10 6.77614 9.77614 7 9.5 7L8 7L8 8.5C8 8.77614 7.77614 9 7.5 9C7.22386 9 7 8.77614 7 8.5L7 7L5.5 7C5.22386 7 5 6.77614 5 6.5C5 6.22386 5.22386 6 5.5 6L7 6L7 4.5C7 4.22386 7.22386 4 7.5 4Z" id="Shape" fill="#000000" fill-rule="evenodd" stroke="none" artboard="6d835ee1-aa22-44da-8bce-d3259d3bc782" />
  </g>
</svg>