<?xml version="1.0" encoding="utf-8"?>
<svg width="15px" height="15px" viewBox="0 0 15 15" version="1.1" xmlns:xlink="http://www.w3.org/1999/xlink" xmlns="http://www.w3.org/2000/svg">
  <defs>
    <path d="M7.499 1.90002C7.3612 1.90002 7.24359 1.94874 7.14615 2.04618C7.04872 2.14361 7 2.26123 7 2.39902L7 4.50102C7 4.63882 7.04872 4.75643 7.14615 4.85387C7.24359 4.9513 7.3612 5.00002 7.499 5.00002L7.501 5.00002C7.63879 5.00002 7.75641 4.9513 7.85385 4.85387C7.95128 4.75643 8 4.63882 8 4.50102L8 2.39902C8 2.26123 7.95128 2.14361 7.85385 2.04618C7.75641 1.94874 7.63879 1.90002 7.501 1.90002L7.499 1.90002L7.499 1.90002ZM3.35426 2.64576L3.35285 2.64718C3.25541 2.74461 3.2067 2.86223 3.2067 3.00002C3.2067 3.13782 3.25541 3.25544 3.35285 3.35287L4.83919 4.83921C4.93662 4.93665 5.05424 4.98536 5.19203 4.98536C5.32983 4.98536 5.44744 4.93665 5.54488 4.83921L5.54629 4.8378C5.64373 4.74036 5.69245 4.62274 5.69245 4.48495C5.69245 4.34715 5.64373 4.22954 5.54629 4.1321L4.05996 2.64576C4.01317 2.59897 3.9592 2.56292 3.89807 2.5376C3.83693 2.51227 3.77328 2.49961 3.70711 2.49961C3.64094 2.49961 3.57729 2.51227 3.51615 2.53759C3.45502 2.56292 3.40105 2.59897 3.35426 2.64576L3.35426 2.64576ZM11.6457 2.64576C11.5483 2.54833 11.4307 2.49961 11.2929 2.49961C11.1551 2.49961 11.0375 2.54833 10.94 2.64576L9.45371 4.1321C9.35627 4.22954 9.30756 4.34715 9.30756 4.48495C9.30756 4.62274 9.35627 4.74036 9.45371 4.8378L9.45512 4.83921C9.55256 4.93665 9.67018 4.98536 9.80797 4.98536C9.94577 4.98536 10.0634 4.93665 10.1608 4.83921L11.6472 3.35287C11.7446 3.25544 11.7933 3.13782 11.7933 3.00002C11.7933 2.86223 11.7446 2.74461 11.6472 2.64718L11.6457 2.64576L11.6457 2.64576ZM11.4145 9.41453C11.0242 9.80486 10.553 10 10.001 10L10 10L10 14L5 14L5 10L4.999 10C4.44699 10 3.97582 9.80486 3.58549 9.41453C3.19516 9.0242 3 8.55303 3 8.00102L3 6.00002L12 6.00002L12 8.00102C12 8.55303 11.8048 9.0242 11.4145 9.41453L11.4145 9.41453ZM9 9.00002L10.001 9.00002C10.2769 9.00002 10.5123 8.90249 10.7074 8.70742C10.9025 8.51236 11 8.27689 11 8.00102L11 7.00002L4 7.00002L4 8.00102C4 8.27689 4.09753 8.51235 4.2926 8.70742C4.48767 8.90249 4.72313 9.00002 4.999 9.00002L6 9.00002L6 13L9 13L9 9.00002L9 9.00002Z" id="path_1" />
    <rect width="15" height="15" id="artboard_1" />
    <clipPath id="clip_1">
      <use xlink:href="#artboard_1" clip-rule="evenodd" />
    </clipPath>
    <clipPath id="clip_2">
      <use xlink:href="#path_1" />
    </clipPath>
  </defs>
  <g id="icon--torch" clip-path="url(#clip_1)">
    <g id="Vector-shape-Union" artboard="c3b92ae9-624b-40df-90fc-142fd72de19f">
      <g clip-path="url(#clip_2)">
        <use xlink:href="#path_1" fill="none" stroke="#000000" stroke-width="2" />
      </g>
    </g>
  </g>
</svg>