<?xml version="1.0" encoding="utf-8"?>
<svg width="15px" height="15px" viewBox="0 0 15 15" version="1.1" xmlns:xlink="http://www.w3.org/1999/xlink" xmlns="http://www.w3.org/2000/svg">
  <defs>
    <rect width="15" height="15" id="artboard_1" />
    <clipPath id="clip_1">
      <use xlink:href="#artboard_1" clip-rule="evenodd" />
    </clipPath>
  </defs>
  <g id="icon--trash-outline" clip-path="url(#clip_1)">
    <path d="M5 5L5 12L10 12L10 5L5 5ZM6.5 6C6.77614 6 7 6.22386 7 6.5L7 10.5C7 10.7761 6.77614 11 6.5 11C6.22386 11 6 10.7761 6 10.5L6 6.5C6 6.22386 6.22386 6 6.5 6ZM8.5 6C8.77614 6 9 6.22386 9 6.5L9 10.5C9 10.7761 8.77614 11 8.5 11C8.22386 11 8 10.7761 8 10.5L8 6.5C8 6.22386 8.22386 6 8.5 6ZM10.5 2C10.7761 2 11 2.22386 11 2.5L11 3L4 3L4 2.5C4 2.22386 4.22386 2 4.5 2L10.5 2ZM11 12C11 12.5523 10.5523 13 10 13L5 13C4.44772 13 4 12.5523 4 12L4 5L3.5 5C3.22386 5 3 4.77614 3 4.5C3 4.22386 3.22386 4 3.5 4L11.5 4C11.7761 4 12 4.22386 12 4.5C12 4.77614 11.7761 5 11.5 5L11 5L11 12Z" id="Shape" fill="#000000" stroke="none" artboard="6c24b210-1da5-4bc8-944b-11a1498b5b69" />
  </g>
</svg>