<?xml version="1.0" encoding="utf-8"?>
<svg width="15px" height="15px" viewBox="0 0 15 15" version="1.1" xmlns:xlink="http://www.w3.org/1999/xlink" xmlns="http://www.w3.org/2000/svg">
  <defs>
    <rect width="15" height="15" id="artboard_1" />
    <clipPath id="clip_1">
      <use xlink:href="#artboard_1" clip-rule="evenodd" />
    </clipPath>
  </defs>
  <g id="icon--view-object" clip-path="url(#clip_1)">
    <path d="M2.5 10.9C2.83137 10.9 3.1 11.1686 3.1 11.5C3.1 11.8314 2.83137 12.1 2.5 12.1C2.16863 12.1 1.9 11.8314 1.9 11.5C1.9 11.1686 2.16863 10.9 2.5 10.9ZM4.5 10.9C4.83137 10.9 5.1 11.1686 5.1 11.5C5.1 11.8314 4.83137 12.1 4.5 12.1C4.16863 12.1 3.9 11.8314 3.9 11.5C3.9 11.1686 4.16863 10.9 4.5 10.9ZM6.5 10.9C6.83137 10.9 7.1 11.1686 7.1 11.5C7.1 11.8314 6.83137 12.1 6.5 12.1C6.16863 12.1 5.9 11.8314 5.9 11.5C5.9 11.1686 6.16863 10.9 6.5 10.9ZM8.5 10.9C8.83137 10.9 9.1 11.1686 9.1 11.5C9.1 11.8314 8.83137 12.1 8.5 12.1C8.16863 12.1 7.9 11.8314 7.9 11.5C7.9 11.1686 8.16863 10.9 8.5 10.9ZM10.5 10.9C10.8314 10.9 11.1 11.1686 11.1 11.5C11.1 11.8314 10.8314 12.1 10.5 12.1C10.1686 12.1 9.9 11.8314 9.9 11.5C9.9 11.1686 10.1686 10.9 10.5 10.9ZM12.5 10.9C12.8314 10.9 13.1 11.1686 13.1 11.5C13.1 11.8314 12.8314 12.1 12.5 12.1C12.1686 12.1 11.9 11.8314 11.9 11.5C11.9 11.1686 12.1686 10.9 12.5 10.9ZM13.5 3C13.7761 3 14 3.22386 14 3.5L14 8.5C14 8.77614 13.7761 9 13.5 9L1.5 9C1.22386 9 1 8.77614 1 8.5L1 3.5C1 3.22386 1.22386 3 1.5 3L13.5 3ZM13 4L2 4L2 8L13 8L13 4Z" id="Shape" fill="#000000" stroke="none" artboard="58e9ded2-4066-4d2e-83d7-86b299403b22" />
  </g>
</svg>