<?xml version="1.0" encoding="utf-8"?>
<svg width="15px" height="15px" viewBox="0 0 15 15" version="1.1" xmlns:xlink="http://www.w3.org/1999/xlink" xmlns="http://www.w3.org/2000/svg">
  <defs>
    <rect width="15" height="15" id="artboard_1" />
    <clipPath id="clip_1">
      <use xlink:href="#artboard_1" clip-rule="evenodd" />
    </clipPath>
  </defs>
  <g id="icon--view-list" clip-path="url(#clip_1)">
    <path d="M2.5 9.9C2.83137 9.9 3.1 10.1686 3.1 10.5C3.1 10.8314 2.83137 11.1 2.5 11.1C2.16863 11.1 1.9 10.8314 1.9 10.5C1.9 10.1686 2.16863 9.9 2.5 9.9ZM12.5 10C12.7761 10 13 10.2239 13 10.5C13 10.7761 12.7761 11 12.5 11L4.5 11C4.22386 11 4 10.7761 4 10.5C4 10.2239 4.22386 10 4.5 10L12.5 10ZM2.5 6.9C2.83137 6.9 3.1 7.16863 3.1 7.5C3.1 7.83137 2.83137 8.1 2.5 8.1C2.16863 8.1 1.9 7.83137 1.9 7.5C1.9 7.16863 2.16863 6.9 2.5 6.9ZM12.5 7C12.7761 7 13 7.22386 13 7.5C13 7.77614 12.7761 8 12.5 8L4.5 8C4.22386 8 4 7.77614 4 7.5C4 7.22386 4.22386 7 4.5 7L12.5 7ZM2.5 3.9C2.83137 3.9 3.1 4.16863 3.1 4.5C3.1 4.83137 2.83137 5.1 2.5 5.1C2.16863 5.1 1.9 4.83137 1.9 4.5C1.9 4.16863 2.16863 3.9 2.5 3.9ZM12.5 4C12.7761 4 13 4.22386 13 4.5C13 4.77614 12.7761 5 12.5 5L4.5 5C4.22386 5 4 4.77614 4 4.5C4 4.22386 4.22386 4 4.5 4L12.5 4Z" id="Shape" fill="#000000" fill-rule="evenodd" stroke="none" artboard="903bf416-ad7c-4417-be5b-2bc7068360ad" />
  </g>
</svg>