<?xml version="1.0" encoding="utf-8"?>
<svg width="15px" height="15px" viewBox="0 0 15 15" version="1.1" xmlns:xlink="http://www.w3.org/1999/xlink" xmlns="http://www.w3.org/2000/svg">
  <defs>
    <rect width="15" height="15" id="artboard_1" />
    <clipPath id="clip_1">
      <use xlink:href="#artboard_1" clip-rule="evenodd" />
    </clipPath>
  </defs>
  <g id="icon--voice" clip-path="url(#clip_1)">
    <path d="M1.5 1C1.77614 1 2 1.22386 2 1.5L2 13.5C2 13.7761 1.77614 14 1.5 14C1.22386 14 1 13.7761 1 13.5L1 1.5C1 1.22386 1.22386 1 1.5 1ZM13.5 1C13.7761 1 14 1.22386 14 1.5L14 13.5C14 13.7761 13.7761 14 13.5 14C13.2239 14 13 13.7761 13 13.5L13 1.5C13 1.22386 13.2239 1 13.5 1ZM5.5 3C5.77614 3 6 3.22386 6 3.5L6 11.5C6 11.7761 5.77614 12 5.5 12C5.22386 12 5 11.7761 5 11.5L5 3.5C5 3.22386 5.22386 3 5.5 3ZM9.5 3C9.77614 3 10 3.24873 10 3.55556L10 12.4444C10 12.7513 9.77614 13 9.5 13C9.22386 13 9 12.7513 9 12.4444L9 3.55556C9 3.24873 9.22386 3 9.5 3ZM3.5 4C3.77614 4 4 4.22386 4 4.5L4 10.5C4 10.7761 3.77614 11 3.5 11C3.22386 11 3 10.7761 3 10.5L3 4.5C3 4.22386 3.22386 4 3.5 4ZM11.5 5C11.7761 5 12 5.19188 12 5.42857L12 10.5714C12 10.8081 11.7761 11 11.5 11C11.2239 11 11 10.8081 11 10.5714L11 5.42857C11 5.19188 11.2239 5 11.5 5ZM7.5 6C7.77614 6 8 6.17909 8 6.4L8 9.6C8 9.82091 7.77614 10 7.5 10C7.22386 10 7 9.82091 7 9.6L7 6.4C7 6.17909 7.22386 6 7.5 6Z" id="Shape" fill="#000000" fill-rule="evenodd" stroke="none" artboard="ad13014e-5112-4097-aa5b-d1aff1d69b01" />
  </g>
</svg>