<?xml version="1.0" encoding="utf-8"?>
<svg width="15px" height="15px" viewBox="0 0 15 15" version="1.1" xmlns:xlink="http://www.w3.org/1999/xlink" xmlns="http://www.w3.org/2000/svg">
  <defs>
    <rect width="15" height="15" id="artboard_1" />
    <clipPath id="clip_1">
      <use xlink:href="#artboard_1" clip-rule="evenodd" />
    </clipPath>
  </defs>
  <g id="icon--warning-circled" clip-path="url(#clip_1)">
    <path d="M7.5 0.899994C11.1451 0.899994 14.1 3.85491 14.1 7.49999C14.1 11.1451 11.1451 14.1 7.5 14.1C3.85492 14.1 0.900002 11.1451 0.900002 7.49999C0.900002 3.85491 3.85492 0.899994 7.5 0.899994ZM7.5 1.89999C4.40721 1.89999 1.9 4.4072 1.9 7.49999C1.9 10.5928 4.40721 13.1 7.5 13.1C10.5928 13.1 13.1 10.5928 13.1 7.49999C13.1 4.4072 10.5928 1.89999 7.5 1.89999ZM7.50238 9.89999C7.83375 9.89999 8.10238 10.1686 8.10238 10.5C8.10238 10.8314 7.83375 11.1 7.50238 11.1C7.17101 11.1 6.90238 10.8314 6.90238 10.5C6.90238 10.1686 7.17101 9.89999 7.50238 9.89999ZM7.88875 4C8.03076 4 8.14973 4.09868 8.18083 4.23121L8.18845 4.31332L8.00238 8.5C8.00238 8.77614 7.77852 9 7.50238 9C7.22624 9 7.00238 8.77614 7.00238 8.5L6.8163 4.31332C6.80895 4.1478 6.93717 4.00765 7.10269 4.0003L7.88875 4Z" id="Shape" fill="#000000" fill-rule="evenodd" stroke="none" artboard="eb330645-01f4-4500-a012-562bda76ae78" />
  </g>
</svg>