<?xml version="1.0" encoding="utf-8"?>
<svg width="15px" height="15px" viewBox="0 0 15 15" version="1.1" xmlns:xlink="http://www.w3.org/1999/xlink" xmlns="http://www.w3.org/2000/svg">
  <defs>
    <rect width="15" height="15" id="artboard_1" />
    <clipPath id="clip_1">
      <use xlink:href="#artboard_1" clip-rule="evenodd" />
    </clipPath>
  </defs>
  <g id="icon--woven" clip-path="url(#clip_1)">
    <path d="M10.9618 8.23419L12.3735 9.64569C12.5687 9.84092 12.5687 10.1575 12.3735 10.3527C12.1783 10.5479 11.8617 10.5479 11.6665 10.3527L10.2548 8.94119L10.9618 8.23419ZM9.06102 6.33313L9.12378 6.39519L8.41678 7.10319L8.35391 7.04024C7.83934 6.52567 7.02386 6.4954 6.47388 6.94943L6.37401 7.04024L3.0601 10.3523C2.86507 10.5472 2.54897 10.5472 2.354 10.3522C2.15904 10.1572 2.15904 9.84114 2.35399 9.64618L5.6669 6.33313C6.60416 5.39587 8.12376 5.39587 9.06102 6.33313ZM12.3737 4.97695C12.5687 5.1719 12.5687 5.48799 12.3737 5.68295L9.0608 8.996C8.12354 9.93326 6.60395 9.93326 5.66669 8.996L5.60393 8.93395L6.31093 8.22595L6.37379 8.2889C6.88837 8.80347 7.70385 8.83374 8.25382 8.3797L8.35369 8.2889L11.6676 4.97685C11.8626 4.78193 12.1787 4.78197 12.3737 4.97695ZM3.06121 4.97644L4.47293 6.38794L3.76593 7.09494L2.3542 5.68345C2.15897 5.48821 2.15897 5.17168 2.3542 4.97644C2.54944 4.78121 2.86597 4.78121 3.06121 4.97644Z" id="Shape" fill="#000000" fill-rule="evenodd" stroke="none" artboard="003b1e08-12e6-471d-a7d2-f6c8b140f438" />
  </g>
</svg>