<?xml version="1.0" encoding="utf-8"?>
<svg width="15px" height="15px" viewBox="0 0 15 15" version="1.1" xmlns:xlink="http://www.w3.org/1999/xlink" xmlns="http://www.w3.org/2000/svg">
  <defs>
    <rect width="15" height="15" id="artboard_1" />
    <clipPath id="clip_1">
      <use xlink:href="#artboard_1" clip-rule="evenodd" />
    </clipPath>
  </defs>
  <g id="icon--alarm-plus" clip-path="url(#clip_1)">
    <path d="M7.50001 1.9C10.5928 1.9 13.1 4.40721 13.1 7.5C13.1 10.5928 10.5928 13.1 7.50001 13.1C4.40721 13.1 1.90001 10.5928 1.90001 7.5C1.90001 4.40721 4.40721 1.9 7.50001 1.9ZM7.50001 2.9C4.9595 2.9 2.90001 4.95949 2.90001 7.5C2.90001 10.0405 4.9595 12.1 7.50001 12.1C10.0405 12.1 12.1 10.0405 12.1 7.5C12.1 4.95949 10.0405 2.9 7.50001 2.9ZM7.5 5C7.77614 5 8 5.22386 8 5.5L8 7L9.5 7C9.77614 7 10 7.22386 10 7.5C10 7.77614 9.77614 8 9.5 8L8 8L8 9.5C8 9.77614 7.77614 10 7.5 10C7.22386 10 7 9.77614 7 9.5L7 8L5.5 8C5.22386 8 5 7.77614 5 7.5C5 7.22386 5.22386 7 5.5 7L7 7L7 5.5C7 5.22386 7.22386 5 7.5 5ZM12.1536 1.44645L13.5678 2.86066C13.763 3.05592 13.763 3.3725 13.5678 3.56777C13.3725 3.76303 13.0559 3.76303 12.8607 3.56777L11.4464 2.15355C11.2512 1.95829 11.2512 1.64171 11.4464 1.44645C11.6417 1.25118 11.9583 1.25118 12.1536 1.44645ZM3.56777 1.44645C3.74134 1.62001 3.76062 1.88944 3.62563 2.0843L3.56777 2.15355L2.15356 3.56777C1.95829 3.76303 1.64171 3.76303 1.44645 3.56777C1.27288 3.3942 1.2536 3.12478 1.38859 2.92991L1.44645 2.86066L2.86066 1.44645C3.05593 1.25118 3.37251 1.25118 3.56777 1.44645Z" id="Shape" fill="#000000" stroke="none" artboard="29128908-a749-4697-86a6-f3e04faca472" />
  </g>
</svg>