<?xml version="1.0" encoding="utf-8"?>
<svg width="15px" height="15px" viewBox="0 0 15 15" version="1.1" xmlns:xlink="http://www.w3.org/1999/xlink" xmlns="http://www.w3.org/2000/svg">
  <defs>
    <rect width="15" height="15" id="artboard_1" />
    <clipPath id="clip_1">
      <use xlink:href="#artboard_1" clip-rule="evenodd" />
    </clipPath>
  </defs>
  <g id="icon--alarm" clip-path="url(#clip_1)">
    <path d="M1.44645 3.56777C1.25119 3.3725 1.25119 3.05592 1.44645 2.86066L2.86066 1.44645C3.05593 1.25118 3.37251 1.25118 3.56777 1.44645C3.76303 1.64171 3.76303 1.95829 3.56777 2.15355L2.15356 3.56777C1.95829 3.76303 1.64171 3.76303 1.44645 3.56777ZM11.4464 1.44645C11.6417 1.25118 11.9583 1.25118 12.1536 1.44645L13.5678 2.86066C13.763 3.05592 13.763 3.3725 13.5678 3.56777C13.3725 3.76303 13.0559 3.76303 12.8607 3.56777L11.4464 2.15355C11.2512 1.95829 11.2512 1.64171 11.4464 1.44645ZM7.50001 13.1C10.5928 13.1 13.1 10.5928 13.1 7.5C13.1 4.40721 10.5928 1.9 7.50001 1.9C4.40721 1.9 1.90001 4.40721 1.90001 7.5C1.90001 10.5928 4.40721 13.1 7.50001 13.1ZM7.50001 12.1C4.9595 12.1 2.90001 10.0405 2.90001 7.5C2.90001 4.95949 4.9595 2.9 7.50001 2.9C10.0405 2.9 12.1 4.95949 12.1 7.5C12.1 10.0405 10.0405 12.1 7.50001 12.1ZM8.00001 7.439L8.00001 4.5C8.00001 4.22386 7.77615 4 7.50001 4C7.22387 4 7.00001 4.22386 7.00001 4.5L7.00001 8L7.00901 8L7.00001 8.01603L10.0311 9.76602C10.2702 9.9041 10.576 9.82216 10.7141 9.58301C10.8522 9.34387 10.7702 9.03807 10.5311 8.9L8.00001 7.439Z" id="Combined-Shape" fill="#000000" fill-rule="evenodd" stroke="none" artboard="0372b082-ea34-4b81-bbb2-49c3df5bb643" />
  </g>
</svg>