<?xml version="1.0" encoding="utf-8"?>
<svg width="15px" height="15px" viewBox="0 0 15 15" version="1.1" xmlns:xlink="http://www.w3.org/1999/xlink" xmlns="http://www.w3.org/2000/svg">
  <defs>
    <rect width="15" height="15" id="artboard_1" />
    <clipPath id="clip_1">
      <use xlink:href="#artboard_1" clip-rule="evenodd" />
    </clipPath>
  </defs>
  <g id="icon--bell-outline" clip-path="url(#clip_1)">
    <path d="M3 11L3 10.309C3 10.1196 3.107 9.9465 3.27639 9.8618L3.74679 9.6266C3.90388 9.54806 4.00824 9.39285 4.02171 9.21774L4.30826 5.49264C4.41213 4.14236 5.49719 3.0874 6.83191 3.00516L7 3L7 2.5C7 2.22386 7.22386 2 7.5 2C7.77614 2 8 2.22386 8 2.5L8 3C9.41069 3 10.5835 4.0861 10.6917 5.49264L10.9783 9.21774C10.9918 9.39285 11.0961 9.54806 11.2532 9.6266L11.7236 9.8618C11.893 9.9465 12 10.1196 12 10.309L12 11L7 11L7 11.5C7 11.7761 6.77614 12 6.5 12C6.22386 12 6 11.7761 6 11.5L6 11L3 11ZM7.5 3.94C6.99609 3.94 6.52253 4.05777 6.35458 4.12675C5.81966 4.34648 5.42044 4.8317 5.3231 5.42189L5.30531 5.56933L5.01877 9.29444C5.0004 9.53323 4.80469 10.0141 4.5 10.1L10.42 10C10.1367 9.84375 10.014 9.70389 9.98123 9.29444C9.88171 8.0489 9.7862 6.8072 9.69469 5.56933C9.64309 4.89851 9.20683 4.34346 8.61222 4.11373C8.4655 4.05705 8.00391 3.94 7.5 3.94Z" id="Shape" fill="#000000" stroke="none" artboard="ebb17ab2-729f-42de-beb6-d703f341b646" />
  </g>
</svg>