<?xml version="1.0" encoding="utf-8"?>
<svg width="15px" height="15px" viewBox="0 0 15 15" version="1.1" xmlns:xlink="http://www.w3.org/1999/xlink" xmlns="http://www.w3.org/2000/svg">
  <defs>
    <rect width="15" height="15" id="artboard_1" />
    <clipPath id="clip_1">
      <use xlink:href="#artboard_1" clip-rule="evenodd" />
    </clipPath>
  </defs>
  <g id="icon--bell-outline-off" clip-path="url(#clip_1)">
    <path d="M3.95355 4.24645L11.7317 12.0246C11.927 12.2199 11.927 12.5365 11.7317 12.7317C11.5365 12.927 11.2199 12.927 11.0246 12.7317L9.293 11L7 11L7 11.5C7 11.7761 6.77614 12 6.5 12C6.22386 12 6 11.7761 6 11.5L6 11L3 11L3 10.309C3 10.1196 3.107 9.9465 3.27639 9.8618L3.74679 9.6266C3.90388 9.54806 4.00824 9.39285 4.02171 9.21774L4.271 5.978L3.24645 4.95355C3.05118 4.75829 3.05118 4.44171 3.24645 4.24645C3.44171 4.05118 3.75829 4.05118 3.95355 4.24645ZM7.49999 2C7.77613 2 7.99999 2.22386 7.99999 2.5L7.99999 3C9.41068 3 10.5835 4.0861 10.6917 5.49264L10.9783 9.21774C10.9918 9.39285 11.0961 9.54806 11.2532 9.6266L11.7236 9.8618C11.893 9.9465 12 10.1196 12 10.309L12 10.893L9.94499 8.838L9.83495 7.42901L9.69468 5.56933L9.69468 5.56933C9.64308 4.89851 9.20682 4.34346 8.61221 4.11373C8.4655 4.05705 8.0039 3.94 7.49999 3.94C6.99609 3.94 6.52252 4.05777 6.35458 4.12675C6.10212 4.23046 5.87988 4.3933 5.70534 4.5984L4.9971 3.88943C5.45742 3.38056 6.10794 3.04977 6.8319 3.00516L6.99999 3L6.99999 2.5C6.99999 2.22386 7.22385 2 7.49999 2ZM5.202 6.909L5.01877 9.29444C5.0004 9.53323 4.80469 10.0141 4.5 10.1L8.328 10.035L5.202 6.909Z" id="Shape" fill="#000000" stroke="none" artboard="5e0cb009-3952-4bf6-b10f-c927422b7d25" />
  </g>
</svg>