<?xml version="1.0" encoding="utf-8"?>
<svg width="15px" height="15px" viewBox="0 0 15 15" version="1.1" xmlns:xlink="http://www.w3.org/1999/xlink" xmlns="http://www.w3.org/2000/svg">
  <defs>
    <rect width="15" height="15" id="artboard_1" />
    <clipPath id="clip_1">
      <use xlink:href="#artboard_1" clip-rule="evenodd" />
    </clipPath>
  </defs>
  <g id="icon--calendar-time" clip-path="url(#clip_1)">
    <path d="M10.6 5.9C13.0853 5.9 15.1 7.91472 15.1 10.4L15.1 10.6C15.1 13.0853 13.0853 15.1 10.6 15.1L10.4 15.1C7.91471 15.1 5.89999 13.0853 5.89999 10.6L5.89999 10.4C5.89999 7.91472 7.91471 5.9 10.4 5.9L10.6 5.9ZM10.6 6.9L10.4 6.9C8.53143 6.9 7.00487 8.36428 6.90517 10.208L6.89999 10.4L6.89999 10.6C6.89999 12.4686 8.36427 13.9951 10.208 14.0948L10.4 14.1L10.6 14.1C12.4686 14.1 13.9951 12.6357 14.0948 10.792L14.1 10.6L14.1 10.4C14.1 8.53144 12.6357 7.00488 10.792 6.90518L10.6 6.9ZM11.5 1C11.7761 1 12 1.22386 12 1.5L12 2L13.5 2C13.7761 2 14 2.22386 14 2.5L14.0015 6.25843C13.6944 6.0046 13.3593 5.78349 13.0014 5.60043L13 5L2 5L2 12L5.20708 12.0002C5.30583 12.3493 5.43818 12.6842 5.60043 13.0014L1.5 13C1.22386 13 1 12.7761 1 12.5L1 2.5C1 2.22386 1.22386 2 1.5 2L3 2L3 1.5C3 1.22386 3.22386 1 3.5 1C3.77614 1 4 1.22386 4 1.5L4 2L11 2L11 1.5C11 1.22386 11.2239 1 11.5 1ZM10.5 7.5C10.7762 7.5 11 7.72386 11 8L11 10.21L12.9151 11.317C13.1542 11.4551 13.2362 11.7609 13.0981 12C12.96 12.2391 12.6542 12.3211 12.4151 12.183L10 10.789L10 8C10 7.72386 10.2239 7.5 10.5 7.5ZM13 3L2 3L2 4L13 4L13 3Z" id="Shape" fill="#000000" fill-rule="evenodd" stroke="none" artboard="ce65c889-f083-4e7c-8a3e-a343e92e5dd6" />
  </g>
</svg>