<?xml version="1.0" encoding="utf-8"?>
<svg width="15px" height="15px" viewBox="0 0 15 15" version="1.1" xmlns:xlink="http://www.w3.org/1999/xlink" xmlns="http://www.w3.org/2000/svg">
  <defs>
    <rect width="15" height="15" id="artboard_1" />
    <clipPath id="clip_1">
      <use xlink:href="#artboard_1" clip-rule="evenodd" />
    </clipPath>
  </defs>
  <g id="icon--calendar-outline" clip-path="url(#clip_1)">
    <path d="M12 2L12 1.5C12 1.22386 11.7761 1 11.5 1C11.2239 1 11 1.22386 11 1.5L11 2L4 2L4 1.5C4 1.22386 3.77614 1 3.5 1C3.22386 1 3 1.22386 3 1.5L3 2L1.5 2C1.22386 2 1 2.22386 1 2.5L1 12.5C1 12.7761 1.22386 13 1.5 13L13.5 13C13.7761 13 14 12.7761 14 12.5L14 2.5C14 2.22386 13.7761 2 13.5 2L12 2ZM2 4L2 3L13 3L13 4L2 4ZM2 12L2 5L13 5L13 12L2 12ZM5 6.499Q5 6.44985 5.00959 6.40165Q5.01918 6.35345 5.03798 6.30804Q5.05679 6.26263 5.0841 6.22177Q5.1114 6.18091 5.14615 6.14615Q5.18091 6.1114 5.22177 6.0841Q5.26263 6.05679 5.30804 6.03798Q5.35345 6.01918 5.40165 6.00959Q5.44985 6 5.499 6L5.501 6Q5.55015 6 5.59835 6.00959Q5.64655 6.01918 5.69196 6.03798Q5.73736 6.05679 5.77823 6.0841Q5.81909 6.1114 5.85385 6.14615Q5.8886 6.18091 5.9159 6.22177Q5.94321 6.26263 5.96202 6.30804Q5.98082 6.35345 5.99041 6.40165Q6 6.44985 6 6.499L6 6.501Q6 6.55015 5.99041 6.59835Q5.98082 6.64655 5.96202 6.69196Q5.94321 6.73736 5.9159 6.77823Q5.8886 6.81909 5.85385 6.85385Q5.81909 6.8886 5.77823 6.9159Q5.73736 6.94321 5.69196 6.96202Q5.64655 6.98082 5.59835 6.99041Q5.55015 7 5.501 7L5.499 7Q5.44985 7 5.40165 6.99041Q5.35345 6.98082 5.30804 6.96202Q5.26263 6.94321 5.22177 6.9159Q5.18091 6.8886 5.14615 6.85385Q5.1114 6.81909 5.0841 6.77823Q5.05679 6.73736 5.03798 6.69196Q5.01918 6.64655 5.00959 6.59835Q5 6.55015 5 6.501L5 6.499ZM7 6.499Q7 6.44985 7.00959 6.40165Q7.01918 6.35345 7.03798 6.30804Q7.05679 6.26263 7.0841 6.22177Q7.1114 6.18091 7.14615 6.14615Q7.18091 6.1114 7.22177 6.0841Q7.26263 6.05679 7.30804 6.03798Q7.35345 6.01918 7.40165 6.00959Q7.44985 6 7.499 6L7.501 6Q7.55015 6 7.59835 6.00959Q7.64655 6.01918 7.69196 6.03798Q7.73736 6.05679 7.77823 6.0841Q7.81909 6.1114 7.85385 6.14615Q7.8886 6.18091 7.9159 6.22177Q7.94321 6.26263 7.96201 6.30804Q7.98082 6.35345 7.99041 6.40165Q8 6.44985 8 6.499L8 6.501Q8 6.55015 7.99041 6.59835Q7.98082 6.64655 7.96201 6.69196Q7.94321 6.73736 7.9159 6.77823Q7.8886 6.81909 7.85385 6.85385Q7.81909 6.8886 7.77823 6.9159Q7.73736 6.94321 7.69196 6.96202Q7.64655 6.98082 7.59835 6.99041Q7.55015 7 7.501 7L7.499 7Q7.44985 7 7.40165 6.99041Q7.35345 6.98082 7.30804 6.96202Q7.26263 6.94321 7.22177 6.9159Q7.18091 6.8886 7.14615 6.85385Q7.1114 6.81909 7.0841 6.77823Q7.05679 6.73736 7.03798 6.69196Q7.01918 6.64655 7.00959 6.59835Q7 6.55015 7 6.501L7 6.499ZM9 6.499Q9 6.44985 9.00959 6.40165Q9.01918 6.35345 9.03798 6.30804Q9.05679 6.26263 9.0841 6.22177Q9.1114 6.18091 9.14615 6.14615Q9.18091 6.1114 9.22177 6.0841Q9.26263 6.05679 9.30804 6.03798Q9.35345 6.01918 9.40165 6.00959Q9.44985 6 9.499 6L9.501 6Q9.55015 6 9.59835 6.00959Q9.64655 6.01918 9.69196 6.03798Q9.73736 6.05679 9.77823 6.0841Q9.81909 6.1114 9.85385 6.14615Q9.8886 6.18091 9.9159 6.22177Q9.94321 6.26263 9.96202 6.30804Q9.98082 6.35345 9.99041 6.40165Q10 6.44985 10 6.499L10 6.501Q10 6.55015 9.99041 6.59835Q9.98082 6.64655 9.96202 6.69196Q9.94321 6.73736 9.9159 6.77823Q9.8886 6.81909 9.85385 6.85385Q9.81909 6.8886 9.77823 6.9159Q9.73736 6.94321 9.69196 6.96202Q9.64655 6.98082 9.59835 6.99041Q9.55015 7 9.501 7L9.499 7Q9.44985 7 9.40165 6.99041Q9.35345 6.98082 9.30804 6.96202Q9.26263 6.94321 9.22177 6.9159Q9.18091 6.8886 9.14615 6.85385Q9.1114 6.81909 9.0841 6.77823Q9.05679 6.73736 9.03798 6.69196Q9.01918 6.64655 9.00959 6.59835Q9 6.55015 9 6.501L9 6.499ZM11 6.499Q11 6.44985 11.0096 6.40165Q11.0192 6.35345 11.038 6.30804Q11.0568 6.26263 11.0841 6.22177Q11.1114 6.18091 11.1462 6.14615Q11.1809 6.1114 11.2218 6.0841Q11.2626 6.05679 11.308 6.03798Q11.3534 6.01918 11.4016 6.00959Q11.4499 6 11.499 6L11.501 6Q11.5501 6 11.5983 6.00959Q11.6466 6.01918 11.692 6.03798Q11.7374 6.05679 11.7782 6.0841Q11.8191 6.1114 11.8538 6.14615Q11.8886 6.18091 11.9159 6.22177Q11.9432 6.26263 11.962 6.30804Q11.9808 6.35345 11.9904 6.40165Q12 6.44985 12 6.499L12 6.501Q12 6.55015 11.9904 6.59835Q11.9808 6.64655 11.962 6.69196Q11.9432 6.73736 11.9159 6.77823Q11.8886 6.81909 11.8538 6.85385Q11.8191 6.8886 11.7782 6.9159Q11.7374 6.94321 11.692 6.96202Q11.6466 6.98082 11.5983 6.99041Q11.5501 7 11.501 7L11.499 7Q11.4499 7 11.4016 6.99041Q11.3534 6.98082 11.308 6.96202Q11.2626 6.94321 11.2218 6.9159Q11.1809 6.8886 11.1462 6.85385Q11.1114 6.81909 11.0841 6.77823Q11.0568 6.73736 11.038 6.69196Q11.0192 6.64655 11.0096 6.59835Q11 6.55015 11 6.501L11 6.499ZM3 8.499Q3 8.44985 3.00959 8.40165Q3.01918 8.35345 3.03798 8.30804Q3.05679 8.26263 3.0841 8.22177Q3.1114 8.18091 3.14615 8.14615Q3.18091 8.1114 3.22177 8.0841Q3.26263 8.05679 3.30804 8.03798Q3.35345 8.01918 3.40165 8.00959Q3.44985 8 3.499 8L3.501 8Q3.55015 8 3.59835 8.00959Q3.64655 8.01918 3.69196 8.03798Q3.73736 8.05679 3.77823 8.0841Q3.81909 8.1114 3.85385 8.14615Q3.8886 8.18091 3.9159 8.22177Q3.94321 8.26263 3.96202 8.30804Q3.98082 8.35345 3.99041 8.40165Q4 8.44985 4 8.499L4 8.501Q4 8.55015 3.99041 8.59835Q3.98082 8.64655 3.96202 8.69196Q3.94321 8.73736 3.9159 8.77823Q3.8886 8.81909 3.85385 8.85385Q3.81909 8.8886 3.77823 8.9159Q3.73736 8.94321 3.69196 8.96202Q3.64655 8.98082 3.59835 8.99041Q3.55015 9 3.501 9L3.499 9Q3.44985 9 3.40165 8.99041Q3.35345 8.98082 3.30804 8.96202Q3.26263 8.94321 3.22177 8.9159Q3.18091 8.8886 3.14615 8.85385Q3.1114 8.81909 3.0841 8.77823Q3.05679 8.73736 3.03798 8.69196Q3.01918 8.64655 3.00959 8.59835Q3 8.55015 3 8.501L3 8.499ZM5 8.499Q5 8.44985 5.00959 8.40165Q5.01918 8.35345 5.03798 8.30804Q5.05679 8.26263 5.0841 8.22177Q5.1114 8.18091 5.14615 8.14615Q5.18091 8.1114 5.22177 8.0841Q5.26263 8.05679 5.30804 8.03798Q5.35345 8.01918 5.40165 8.00959Q5.44985 8 5.499 8L5.501 8Q5.55015 8 5.59835 8.00959Q5.64655 8.01918 5.69196 8.03798Q5.73736 8.05679 5.77823 8.0841Q5.81909 8.1114 5.85385 8.14615Q5.8886 8.18091 5.9159 8.22177Q5.94321 8.26263 5.96202 8.30804Q5.98082 8.35345 5.99041 8.40165Q6 8.44985 6 8.499L6 8.501Q6 8.55015 5.99041 8.59835Q5.98082 8.64655 5.96202 8.69196Q5.94321 8.73736 5.9159 8.77823Q5.8886 8.81909 5.85385 8.85385Q5.81909 8.8886 5.77823 8.9159Q5.73736 8.94321 5.69196 8.96202Q5.64655 8.98082 5.59835 8.99041Q5.55015 9 5.501 9L5.499 9Q5.44985 9 5.40165 8.99041Q5.35345 8.98082 5.30804 8.96202Q5.26263 8.94321 5.22177 8.9159Q5.18091 8.8886 5.14615 8.85385Q5.1114 8.81909 5.0841 8.77823Q5.05679 8.73736 5.03798 8.69196Q5.01918 8.64655 5.00959 8.59835Q5 8.55015 5 8.501L5 8.499ZM7 8.499Q7 8.44985 7.00959 8.40165Q7.01918 8.35345 7.03798 8.30804Q7.05679 8.26263 7.0841 8.22177Q7.1114 8.18091 7.14615 8.14615Q7.18091 8.1114 7.22177 8.0841Q7.26263 8.05679 7.30804 8.03798Q7.35345 8.01918 7.40165 8.00959Q7.44985 8 7.499 8L7.501 8Q7.55015 8 7.59835 8.00959Q7.64655 8.01918 7.69196 8.03798Q7.73736 8.05679 7.77823 8.0841Q7.81909 8.1114 7.85385 8.14615Q7.8886 8.18091 7.9159 8.22177Q7.94321 8.26263 7.96201 8.30804Q7.98082 8.35345 7.99041 8.40165Q8 8.44985 8 8.499L8 8.501Q8 8.55015 7.99041 8.59835Q7.98082 8.64655 7.96201 8.69196Q7.94321 8.73736 7.9159 8.77823Q7.8886 8.81909 7.85385 8.85385Q7.81909 8.8886 7.77823 8.9159Q7.73736 8.94321 7.69196 8.96202Q7.64655 8.98082 7.59835 8.99041Q7.55015 9 7.501 9L7.499 9Q7.44985 9 7.40165 8.99041Q7.35345 8.98082 7.30804 8.96202Q7.26263 8.94321 7.22177 8.9159Q7.18091 8.8886 7.14615 8.85385Q7.1114 8.81909 7.0841 8.77823Q7.05679 8.73736 7.03798 8.69196Q7.01918 8.64655 7.00959 8.59835Q7 8.55015 7 8.501L7 8.499ZM9 8.499Q9 8.44985 9.00959 8.40165Q9.01918 8.35345 9.03798 8.30804Q9.05679 8.26263 9.0841 8.22177Q9.1114 8.18091 9.14615 8.14615Q9.18091 8.1114 9.22177 8.0841Q9.26263 8.05679 9.30804 8.03798Q9.35345 8.01918 9.40165 8.00959Q9.44985 8 9.499 8L9.501 8Q9.55015 8 9.59835 8.00959Q9.64655 8.01918 9.69196 8.03798Q9.73736 8.05679 9.77823 8.0841Q9.81909 8.1114 9.85385 8.14615Q9.8886 8.18091 9.9159 8.22177Q9.94321 8.26263 9.96202 8.30804Q9.98082 8.35345 9.99041 8.40165Q10 8.44985 10 8.499L10 8.501Q10 8.55015 9.99041 8.59835Q9.98082 8.64655 9.96202 8.69196Q9.94321 8.73736 9.9159 8.77823Q9.8886 8.81909 9.85385 8.85385Q9.81909 8.8886 9.77823 8.9159Q9.73736 8.94321 9.69196 8.96202Q9.64655 8.98082 9.59835 8.99041Q9.55015 9 9.501 9L9.499 9Q9.44985 9 9.40165 8.99041Q9.35345 8.98082 9.30804 8.96202Q9.26263 8.94321 9.22177 8.9159Q9.18091 8.8886 9.14615 8.85385Q9.1114 8.81909 9.0841 8.77823Q9.05679 8.73736 9.03798 8.69196Q9.01918 8.64655 9.00959 8.59835Q9 8.55015 9 8.501L9 8.499ZM11 8.499Q11 8.44985 11.0096 8.40165Q11.0192 8.35345 11.038 8.30804Q11.0568 8.26263 11.0841 8.22177Q11.1114 8.18091 11.1462 8.14615Q11.1809 8.1114 11.2218 8.0841Q11.2626 8.05679 11.308 8.03798Q11.3534 8.01918 11.4016 8.00959Q11.4499 8 11.499 8L11.501 8Q11.5501 8 11.5983 8.00959Q11.6466 8.01918 11.692 8.03798Q11.7374 8.05679 11.7782 8.0841Q11.8191 8.1114 11.8538 8.14615Q11.8886 8.18091 11.9159 8.22177Q11.9432 8.26263 11.962 8.30804Q11.9808 8.35345 11.9904 8.40165Q12 8.44985 12 8.499L12 8.501Q12 8.55015 11.9904 8.59835Q11.9808 8.64655 11.962 8.69196Q11.9432 8.73736 11.9159 8.77823Q11.8886 8.81909 11.8538 8.85385Q11.8191 8.8886 11.7782 8.9159Q11.7374 8.94321 11.692 8.96202Q11.6466 8.98082 11.5983 8.99041Q11.5501 9 11.501 9L11.499 9Q11.4499 9 11.4016 8.99041Q11.3534 8.98082 11.308 8.96202Q11.2626 8.94321 11.2218 8.9159Q11.1809 8.8886 11.1462 8.85385Q11.1114 8.81909 11.0841 8.77823Q11.0568 8.73736 11.038 8.69196Q11.0192 8.64655 11.0096 8.59835Q11 8.55015 11 8.501L11 8.499ZM3 10.499Q3 10.4499 3.00959 10.4016Q3.01918 10.3534 3.03798 10.308Q3.05679 10.2626 3.0841 10.2218Q3.1114 10.1809 3.14615 10.1462Q3.18091 10.1114 3.22177 10.0841Q3.26263 10.0568 3.30804 10.038Q3.35345 10.0192 3.40165 10.0096Q3.44985 10 3.499 10L3.501 10Q3.55015 10 3.59835 10.0096Q3.64655 10.0192 3.69196 10.038Q3.73736 10.0568 3.77823 10.0841Q3.81909 10.1114 3.85385 10.1462Q3.8886 10.1809 3.9159 10.2218Q3.94321 10.2626 3.96202 10.308Q3.98082 10.3534 3.99041 10.4016Q4 10.4499 4 10.499L4 10.501Q4 10.5501 3.99041 10.5983Q3.98082 10.6466 3.96202 10.692Q3.94321 10.7374 3.9159 10.7782Q3.8886 10.8191 3.85385 10.8538Q3.81909 10.8886 3.77823 10.9159Q3.73736 10.9432 3.69196 10.962Q3.64655 10.9808 3.59835 10.9904Q3.55015 11 3.501 11L3.499 11Q3.44985 11 3.40165 10.9904Q3.35345 10.9808 3.30804 10.962Q3.26263 10.9432 3.22177 10.9159Q3.18091 10.8886 3.14615 10.8538Q3.1114 10.8191 3.0841 10.7782Q3.05679 10.7374 3.03798 10.692Q3.01918 10.6466 3.00959 10.5983Q3 10.5501 3 10.501L3 10.499ZM5 10.499Q5 10.4499 5.00959 10.4016Q5.01918 10.3534 5.03798 10.308Q5.05679 10.2626 5.0841 10.2218Q5.1114 10.1809 5.14615 10.1462Q5.18091 10.1114 5.22177 10.0841Q5.26263 10.0568 5.30804 10.038Q5.35345 10.0192 5.40165 10.0096Q5.44985 10 5.499 10L5.501 10Q5.55015 10 5.59835 10.0096Q5.64655 10.0192 5.69196 10.038Q5.73736 10.0568 5.77823 10.0841Q5.81909 10.1114 5.85385 10.1462Q5.8886 10.1809 5.9159 10.2218Q5.94321 10.2626 5.96202 10.308Q5.98082 10.3534 5.99041 10.4016Q6 10.4499 6 10.499L6 10.501Q6 10.5501 5.99041 10.5983Q5.98082 10.6466 5.96202 10.692Q5.94321 10.7374 5.9159 10.7782Q5.8886 10.8191 5.85385 10.8538Q5.81909 10.8886 5.77823 10.9159Q5.73736 10.9432 5.69196 10.962Q5.64655 10.9808 5.59835 10.9904Q5.55015 11 5.501 11L5.499 11Q5.44985 11 5.40165 10.9904Q5.35345 10.9808 5.30804 10.962Q5.26263 10.9432 5.22177 10.9159Q5.18091 10.8886 5.14615 10.8538Q5.1114 10.8191 5.0841 10.7782Q5.05679 10.7374 5.03798 10.692Q5.01918 10.6466 5.00959 10.5983Q5 10.5501 5 10.501L5 10.499ZM7 10.499Q7 10.4499 7.00959 10.4016Q7.01918 10.3534 7.03798 10.308Q7.05679 10.2626 7.0841 10.2218Q7.1114 10.1809 7.14615 10.1462Q7.18091 10.1114 7.22177 10.0841Q7.26263 10.0568 7.30804 10.038Q7.35345 10.0192 7.40165 10.0096Q7.44985 10 7.499 10L7.501 10Q7.55015 10 7.59835 10.0096Q7.64655 10.0192 7.69196 10.038Q7.73736 10.0568 7.77823 10.0841Q7.81909 10.1114 7.85385 10.1462Q7.8886 10.1809 7.9159 10.2218Q7.94321 10.2626 7.96201 10.308Q7.98082 10.3534 7.99041 10.4016Q8 10.4499 8 10.499L8 10.501Q8 10.5501 7.99041 10.5983Q7.98082 10.6466 7.96201 10.692Q7.94321 10.7374 7.9159 10.7782Q7.8886 10.8191 7.85385 10.8538Q7.81909 10.8886 7.77823 10.9159Q7.73736 10.9432 7.69196 10.962Q7.64655 10.9808 7.59835 10.9904Q7.55015 11 7.501 11L7.499 11Q7.44985 11 7.40165 10.9904Q7.35345 10.9808 7.30804 10.962Q7.26263 10.9432 7.22177 10.9159Q7.18091 10.8886 7.14615 10.8538Q7.1114 10.8191 7.0841 10.7782Q7.05679 10.7374 7.03798 10.692Q7.01918 10.6466 7.00959 10.5983Q7 10.5501 7 10.501L7 10.499Z" id="Combined-Shape" fill="#000000" fill-rule="evenodd" stroke="none" artboard="091bc4cf-28b6-4035-9269-e8caf01b9f7e" />
  </g>
</svg>