<?xml version="1.0" encoding="utf-8"?>
<svg width="15px" height="15px" viewBox="0 0 15 15" version="1.1" xmlns:xlink="http://www.w3.org/1999/xlink" xmlns="http://www.w3.org/2000/svg">
  <defs>
    <rect width="15" height="15" id="artboard_1" />
    <clipPath id="clip_1">
      <use xlink:href="#artboard_1" clip-rule="evenodd" />
    </clipPath>
  </defs>
  <g id="icon--calendar-day-next" clip-path="url(#clip_1)">
    <path d="M10.8898 10.17L10.955 10.2228L12.8777 12.1455C12.9231 12.1909 12.9571 12.2465 12.9798 12.3073L13 12.383L13 12.616L12.9798 12.6927C12.9685 12.7231 12.9543 12.7522 12.9373 12.7794L12.8777 12.8545L10.955 14.7772C10.7735 14.9587 10.4558 14.9304 10.2743 14.7489C10.1155 14.59 10.0956 14.3052 10.2148 14.1149L10.2743 14.0398L11.4325 13.003L8.50138 13.003C8.22448 13.003 8 12.7785 8 12.5016C8 12.2555 8.17736 12.0508 8.41126 12.0083L8.50138 12.0003L11.4355 11.9992L10.2743 10.9602C10.0928 10.7787 10.0928 10.4327 10.2743 10.2512C10.4357 10.0898 10.7046 10.0495 10.8898 10.17ZM13.5 9.895C13.7761 9.895 14 10.1189 14 10.395L14 14.395C14 14.6711 13.7761 14.895 13.5 14.895C13.2239 14.895 13 14.6711 13 14.395L13 12.616L13.0053 12.5983C13.0167 12.5336 13.0167 12.4664 13.0053 12.4017L13 12.383L13 10.395C13 10.1189 13.2239 9.895 13.5 9.895ZM11.5 1C11.7761 1 12 1.22386 12 1.5L12 2L13.5 2C13.7761 2 14 2.22386 14 2.5L14 9L13 9L13 5L2 5L2 12L7 12L7 13L1.5 13C1.22386 13 1 12.7761 1 12.5L1 2.5C1 2.22386 1.22386 2 1.5 2L3 2L3 1.5C3 1.22386 3.22386 1 3.5 1C3.77614 1 4 1.22386 4 1.5L4 2L11 2L11 1.5C11 1.22386 11.2239 1 11.5 1ZM6 6L6 11L5 11L4.99948 7.506L4.2935 7.91975L4.00948 7.01042L5.5 6L6 6ZM10.26 6L10.26 6.51L8.4236 11L7.24435 11L8.90901 7L7 7L7 6L10.26 6ZM13 3L2 3L2 4L13 4L13 3Z" id="Shape" fill="#000000" fill-rule="evenodd" stroke="none" artboard="d19b852c-84eb-4dc0-87ab-92384c3262f2" />
  </g>
</svg>