<?xml version="1.0" encoding="utf-8"?>
<svg width="15px" height="15px" viewBox="0 0 15 15" version="1.1" xmlns:xlink="http://www.w3.org/1999/xlink" xmlns="http://www.w3.org/2000/svg">
  <defs>
    <rect width="15" height="15" id="artboard_1" />
    <clipPath id="clip_1">
      <use xlink:href="#artboard_1" clip-rule="evenodd" />
    </clipPath>
  </defs>
  <g id="icon--calendar-day-before" clip-path="url(#clip_1)">
    <path d="M2 14.395C2 14.6711 1.77614 14.895 1.5 14.895C1.22386 14.895 1 14.6711 1 14.395L1 10.395C1 10.1189 1.22386 9.895 1.5 9.895C1.77614 9.895 2 10.1189 2 10.395L2 12.5C2 12.3681 2.04538 12.2362 2.13614 12.1455L4.05882 10.2228C4.24035 10.0413 4.558 10.0696 4.73952 10.2512C4.92105 10.4327 4.92105 10.7787 4.73952 10.9602L3.57836 11.9992L6.51246 12.0002C6.78936 12.0002 7.01384 12.2247 7.01384 12.5016C7.01384 12.7785 6.78936 13.003 6.51246 13.003L3.58137 13.003L4.73952 14.0398C4.92105 14.2213 4.92105 14.5673 4.73952 14.7489C4.558 14.9304 4.24035 14.9587 4.05882 14.7772L2.13614 12.8545C2.06807 12.7865 2.02553 12.6953 2.00851 12.5983L2 12.501L2 14.395ZM11.5 1C11.7761 1 12 1.22386 12 1.5L12 2L13.5 2C13.7761 2 14 2.22386 14 2.5L14 12.5C14 12.7761 13.7761 13 13.5 13L8 13L8 12L13 12L13 5L2 5L2 9L1 9L1 2.5C1 2.22386 1.22386 2 1.5 2L3 2L3 1.5C3 1.22386 3.22386 1 3.5 1C3.77614 1 4 1.22386 4 1.5L4 2L11 2L11 1.5C11 1.22386 11.2239 1 11.5 1ZM7 6L7 11L6 11L5.99948 7.506L5.2935 7.91975L5.00948 7.01042L6.5 6L7 6ZM11.26 6L11.26 6.51L9.4236 11L8.24435 11L9.90901 7L8 7L8 6L11.26 6ZM13 3L2 3L2 4L13 4L13 3Z" id="Shape" fill="#000000" fill-rule="evenodd" stroke="none" artboard="21e143bd-eaf8-4b61-81a7-b4aeb2384e9a" />
  </g>
</svg>