<?xml version="1.0" encoding="utf-8"?>
<svg width="15px" height="15px" viewBox="0 0 15 15" version="1.1" xmlns:xlink="http://www.w3.org/1999/xlink" xmlns="http://www.w3.org/2000/svg">
  <defs>
    <rect width="15" height="15" id="artboard_1" />
    <clipPath id="clip_1">
      <use xlink:href="#artboard_1" clip-rule="evenodd" />
    </clipPath>
  </defs>
  <g id="icon--calendar-range" clip-path="url(#clip_1)">
    <path d="M11.5 1C11.7761 1 12 1.22386 12 1.5L12 2L13.5 2C13.7761 2 14 2.22386 14 2.5L14 12.5C14 12.7761 13.7761 13 13.5 13L1.5 13C1.22386 13 1 12.7761 1 12.5L1 2.5C1 2.22386 1.22386 2 1.5 2L3 2L3 1.5C3 1.22386 3.22386 1 3.5 1C3.77614 1 4 1.22386 4 1.5L4 2L11 2L11 1.5C11 1.22386 11.2239 1 11.5 1ZM13 5L2 5L2 12L13 12L13 5ZM11.5 7C11.7761 7 12 7.22386 12 7.5L12 9.5C12 9.77614 11.7761 10 11.5 10C11.2239 10 11 9.77614 11 9.5L11 9L4 9L4 9.5C4 9.77614 3.77614 10 3.5 10C3.22386 10 3 9.77614 3 9.5L3 7.5C3 7.22386 3.22386 7 3.5 7C3.77614 7 4 7.22386 4 7.5L4 8L11 8L11 7.5C11 7.22386 11.2239 7 11.5 7ZM13 3L2 3L2 4L13 4L13 3Z" id="Shape" fill="#000000" fill-rule="evenodd" stroke="none" artboard="a2d05817-3375-460a-98d4-3f97fd2c382a" />
  </g>
</svg>