<?xml version="1.0" encoding="utf-8"?>
<svg width="15px" height="15px" viewBox="0 0 15 15" version="1.1" xmlns:xlink="http://www.w3.org/1999/xlink" xmlns="http://www.w3.org/2000/svg">
  <defs>
    <rect width="15" height="15" id="artboard_1" />
    <clipPath id="clip_1">
      <use xlink:href="#artboard_1" clip-rule="evenodd" />
    </clipPath>
  </defs>
  <g id="icon--calendar-week" clip-path="url(#clip_1)">
    <path d="M12 1.5C12 1.22386 11.7761 1 11.5 1C11.2239 1 11 1.22386 11 1.5L11 2L4 2L4 1.5C4 1.22386 3.77614 1 3.5 1C3.22386 1 3 1.22386 3 1.5L3 2L1.5 2C1.22386 2 1 2.22386 1 2.5L1 12.5C1 12.7761 1.22386 13 1.5 13L13.5 13C13.7761 13 14 12.7761 14 12.5L14 2.5C14 2.22386 13.7761 2 13.5 2L12 2L12 1.5ZM2 3L13 3L13 4L2 4L2 3ZM2 5L13 5L13 12L2 12L2 5ZM11.501 6L3.499 6Q3.44985 6 3.40165 6.00959Q3.35345 6.01918 3.30804 6.03798Q3.26263 6.05679 3.22177 6.0841Q3.18091 6.1114 3.14615 6.14615Q3.1114 6.18091 3.0841 6.22177Q3.05679 6.26263 3.03798 6.30804Q3.01918 6.35345 3.00959 6.40165Q3 6.44985 3 6.499L3 6.501Q3 6.55015 3.00959 6.59835Q3.01918 6.64655 3.03798 6.69196Q3.05679 6.73736 3.0841 6.77823Q3.1114 6.81909 3.14615 6.85385Q3.18091 6.8886 3.22177 6.9159Q3.26263 6.94321 3.30804 6.96202Q3.35345 6.98082 3.40165 6.99041Q3.44985 7 3.499 7L11.501 7Q11.5501 7 11.5983 6.99041Q11.6466 6.98082 11.692 6.96202Q11.7374 6.94321 11.7782 6.9159Q11.8191 6.8886 11.8538 6.85385Q11.8886 6.81909 11.9159 6.77823Q11.9432 6.73736 11.962 6.69196Q11.9808 6.64655 11.9904 6.59835Q12 6.55015 12 6.501L12 6.499Q12 6.44985 11.9904 6.40165Q11.9808 6.35345 11.962 6.30804Q11.9432 6.26263 11.9159 6.22177Q11.8886 6.18091 11.8538 6.14615Q11.8191 6.1114 11.7782 6.0841Q11.7374 6.05679 11.692 6.03798Q11.6466 6.01918 11.5983 6.00959Q11.5501 6 11.501 6Z" id="Shape-Union" fill="#000000" fill-rule="evenodd" stroke="none" artboard="04981d24-a8ca-4870-8c83-025117602319" />
  </g>
</svg>