<?xml version="1.0" encoding="utf-8"?>
<svg width="15px" height="15px" viewBox="0 0 15 15" version="1.1" xmlns:xlink="http://www.w3.org/1999/xlink" xmlns="http://www.w3.org/2000/svg">
  <defs>
    <rect width="15" height="15" id="artboard_1" />
    <clipPath id="clip_1">
      <use xlink:href="#artboard_1" clip-rule="evenodd" />
    </clipPath>
  </defs>
  <g id="icon--calendar-week-next" clip-path="url(#clip_1)">
    <path d="M3.499 6L11.501 6Q11.5501 6 11.5983 6.00959Q11.6466 6.01918 11.692 6.03798Q11.7374 6.05679 11.7782 6.0841Q11.8191 6.1114 11.8538 6.14615Q11.8886 6.18091 11.9159 6.22177Q11.9432 6.26263 11.962 6.30804Q11.9808 6.35345 11.9904 6.40165Q12 6.44985 12 6.499L12 6.501Q12 6.55015 11.9904 6.59835Q11.9808 6.64655 11.962 6.69196Q11.9432 6.73736 11.9159 6.77823Q11.8886 6.81909 11.8538 6.85385Q11.8191 6.8886 11.7782 6.9159Q11.7374 6.94321 11.692 6.96202Q11.6466 6.98082 11.5983 6.99041Q11.5501 7 11.501 7L3.499 7Q3.44985 7 3.40165 6.99041Q3.35345 6.98082 3.30804 6.96202Q3.26263 6.94321 3.22177 6.9159Q3.18091 6.8886 3.14615 6.85385Q3.1114 6.81909 3.0841 6.77823Q3.05679 6.73736 3.03798 6.69196Q3.01918 6.64655 3.00959 6.59835Q3 6.55015 3 6.501L3 6.499Q3 6.44985 3.00959 6.40165Q3.01918 6.35345 3.03798 6.30804Q3.05679 6.26263 3.0841 6.22177Q3.1114 6.18091 3.14615 6.14615Q3.18091 6.1114 3.22177 6.0841Q3.26263 6.05679 3.30804 6.03798Q3.35345 6.01918 3.40165 6.00959Q3.44985 6 3.499 6Z" id="Rectangle" fill="#000000" fill-rule="evenodd" stroke="none" artboard="74a3ee59-c90a-4e1e-81cf-8d66da17c97a" />
    <path d="M10.2743 10.2512C10.4357 10.0898 10.7046 10.0495 10.8898 10.17L10.955 10.2228L12.8777 12.1455C13.0365 12.3043 13.0564 12.5891 12.9373 12.7794L12.8777 12.8545L10.955 14.7772C10.7735 14.9587 10.4558 14.9304 10.2743 14.7488C10.1155 14.59 10.0956 14.3052 10.2148 14.1149L10.2743 14.0398L11.4325 13.003L8.50138 13.003C8.22448 13.003 8 12.7785 8 12.5016C8 12.2555 8.17736 12.0508 8.41126 12.0083L8.50138 12.0002L11.4355 11.9992L10.2743 10.9602C10.0928 10.7787 10.0928 10.4327 10.2743 10.2512ZM13.5 9.895C13.7761 9.895 14 10.1189 14 10.395L14 14.395C14 14.6711 13.7761 14.895 13.5 14.895C13.2239 14.895 13 14.6711 13 14.395L13 10.395C13 10.1189 13.2239 9.895 13.5 9.895ZM11.5 1C11.7761 1 12 1.22386 12 1.5L12 2L13.5 2C13.7761 2 14 2.22386 14 2.5L14 9L13 9L13 5L2 5L2 12L7 12L7 13L1.5 13C1.22386 13 1 12.7761 1 12.5L1 2.5C1 2.22386 1.22386 2 1.5 2L3 2L3 1.5C3 1.22386 3.22386 1 3.5 1C3.77614 1 4 1.22386 4 1.5L4 2L11 2L11 1.5C11 1.22386 11.2239 1 11.5 1ZM13 3L2 3L2 4L13 4L13 3Z" id="Shape" fill="#000000" fill-rule="evenodd" stroke="none" artboard="8499270d-f7f5-4f1e-b1b5-6b3c989c1ce2" />
  </g>
</svg>