<?xml version="1.0" encoding="utf-8"?>
<svg width="15px" height="15px" viewBox="0 0 15 15" version="1.1" xmlns:xlink="http://www.w3.org/1999/xlink" xmlns="http://www.w3.org/2000/svg">
  <defs>
    <rect width="15" height="15" id="artboard_1" />
    <clipPath id="clip_1">
      <use xlink:href="#artboard_1" clip-rule="evenodd" />
    </clipPath>
  </defs>
  <g id="icon--calendar-week-before" clip-path="url(#clip_1)">
    <path d="M3.499 6L11.501 6Q11.5501 6 11.5983 6.00959Q11.6466 6.01918 11.692 6.03798Q11.7374 6.05679 11.7782 6.0841Q11.8191 6.1114 11.8538 6.14615Q11.8886 6.18091 11.9159 6.22177Q11.9432 6.26263 11.962 6.30804Q11.9808 6.35345 11.9904 6.40165Q12 6.44985 12 6.499L12 6.501Q12 6.55015 11.9904 6.59835Q11.9808 6.64655 11.962 6.69196Q11.9432 6.73736 11.9159 6.77823Q11.8886 6.81909 11.8538 6.85385Q11.8191 6.8886 11.7782 6.9159Q11.7374 6.94321 11.692 6.96202Q11.6466 6.98082 11.5983 6.99041Q11.5501 7 11.501 7L3.499 7Q3.44985 7 3.40165 6.99041Q3.35345 6.98082 3.30804 6.96202Q3.26263 6.94321 3.22177 6.9159Q3.18091 6.8886 3.14615 6.85385Q3.1114 6.81909 3.0841 6.77823Q3.05679 6.73736 3.03798 6.69196Q3.01918 6.64655 3.00959 6.59835Q3 6.55015 3 6.501L3 6.499Q3 6.44985 3.00959 6.40165Q3.01918 6.35345 3.03798 6.30804Q3.05679 6.26263 3.0841 6.22177Q3.1114 6.18091 3.14615 6.14615Q3.18091 6.1114 3.22177 6.0841Q3.26263 6.05679 3.30804 6.03798Q3.35345 6.01918 3.40165 6.00959Q3.44985 6 3.499 6Z" id="Rectangle" fill="#000000" fill-rule="evenodd" stroke="none" artboard="012249d8-cf93-4faf-b604-11c4302cbb5d" />
    <path d="M4.73952 10.2512C4.92105 10.4327 4.92105 10.7787 4.73952 10.9602L3.57836 11.9992L6.51246 12.0002C6.78936 12.0002 7.01384 12.2247 7.01384 12.5016C7.01384 12.7785 6.78936 13.003 6.51246 13.003L3.58137 13.003L4.73952 14.0398C4.92105 14.2213 4.92105 14.5673 4.73952 14.7488C4.558 14.9304 4.24035 14.9587 4.05882 14.7772L2.13614 12.8545C1.95462 12.673 1.95462 12.327 2.13614 12.1455L4.05882 10.2228C4.24035 10.0413 4.558 10.0696 4.73952 10.2512ZM1.5 9.895C1.77614 9.895 2 10.1189 2 10.395L2 14.395C2 14.6711 1.77614 14.895 1.5 14.895C1.22386 14.895 1 14.6711 1 14.395L1 10.395C1 10.1189 1.22386 9.895 1.5 9.895ZM11.5 1C11.7761 1 12 1.22386 12 1.5L12 2L13.5 2C13.7761 2 14 2.22386 14 2.5L14 12.5C14 12.7761 13.7761 13 13.5 13L8 13L8 12L13 12L13 5L2 5L2 9L1 9L1 2.5C1 2.22386 1.22386 2 1.5 2L3 2L3 1.5C3 1.22386 3.22386 1 3.5 1C3.77614 1 4 1.22386 4 1.5L4 2L11 2L11 1.5C11 1.22386 11.2239 1 11.5 1ZM13 3L2 3L2 4L13 4L13 3Z" id="Shape" fill="#000000" fill-rule="evenodd" stroke="none" artboard="dbbe3af0-7954-4e88-bf31-36b292128fa4" />
  </g>
</svg>