<?xml version="1.0" encoding="utf-8"?>
<svg width="15px" height="15px" viewBox="0 0 15 15" version="1.1" xmlns:xlink="http://www.w3.org/1999/xlink" xmlns="http://www.w3.org/2000/svg">
  <defs>
    <rect width="15" height="15" id="artboard_1" />
    <clipPath id="clip_1">
      <use xlink:href="#artboard_1" clip-rule="evenodd" />
    </clipPath>
  </defs>
  <g id="icon--calendar-next" clip-path="url(#clip_1)">
    <path d="M10.2743 10.2512C10.4357 10.0898 10.7046 10.0495 10.8898 10.17L10.955 10.2228L12.8777 12.1455C13.0365 12.3043 13.0564 12.5891 12.9373 12.7794L12.8777 12.8545L10.955 14.7772C10.7735 14.9587 10.4558 14.9304 10.2743 14.7488C10.1155 14.59 10.0956 14.3052 10.2148 14.1149L10.2743 14.0398L11.4325 13.003L8.50138 13.003C8.22448 13.003 8 12.7785 8 12.5016C8 12.2555 8.17736 12.0508 8.41126 12.0083L8.50138 12.0002L11.4355 11.9992L10.2743 10.9602C10.0928 10.7787 10.0928 10.4327 10.2743 10.2512ZM13.5 9.895C13.7761 9.895 14 10.1189 14 10.395L14 14.395C14 14.6711 13.7761 14.895 13.5 14.895C13.2239 14.895 13 14.6711 13 14.395L13 10.395C13 10.1189 13.2239 9.895 13.5 9.895ZM11.5 1C11.7761 1 12 1.22386 12 1.5L12 2L13.5 2C13.7761 2 14 2.22386 14 2.5L14 9L13 9L13 5L2 5L2 12L7 12L7 13L1.5 13C1.22386 13 1 12.7761 1 12.5L1 2.5C1 2.22386 1.22386 2 1.5 2L3 2L3 1.5C3 1.22386 3.22386 1 3.5 1C3.77614 1 4 1.22386 4 1.5L4 2L11 2L11 1.5C11 1.22386 11.2239 1 11.5 1ZM3.5 10C3.77614 10 4 10.2239 4 10.5C4 10.7761 3.77614 11 3.5 11C3.22386 11 3 10.7761 3 10.5C3 10.2239 3.22386 10 3.5 10ZM5.5 10C5.77614 10 6 10.2239 6 10.5C6 10.7761 5.77614 11 5.5 11C5.22386 11 5 10.7761 5 10.5C5 10.2239 5.22386 10 5.5 10ZM7.5 10C7.77614 10 8 10.2239 8 10.5C8 10.7761 7.77614 11 7.5 11C7.22386 11 7 10.7761 7 10.5C7 10.2239 7.22386 10 7.5 10ZM3.5 8C3.77614 8 4 8.22386 4 8.5C4 8.77614 3.77614 9 3.5 9C3.22386 9 3 8.77614 3 8.5C3 8.22386 3.22386 8 3.5 8ZM5.5 8C5.77614 8 6 8.22386 6 8.5C6 8.77614 5.77614 9 5.5 9C5.22386 9 5 8.77614 5 8.5C5 8.22386 5.22386 8 5.5 8ZM7.5 8C7.77614 8 8 8.22386 8 8.5C8 8.77614 7.77614 9 7.5 9C7.22386 9 7 8.77614 7 8.5C7 8.22386 7.22386 8 7.5 8ZM9.5 8C9.77614 8 10 8.22386 10 8.5C10 8.77614 9.77614 9 9.5 9C9.22386 9 9 8.77614 9 8.5C9 8.22386 9.22386 8 9.5 8ZM11.5 8C11.7761 8 12 8.22386 12 8.5C12 8.77614 11.7761 9 11.5 9C11.2239 9 11 8.77614 11 8.5C11 8.22386 11.2239 8 11.5 8ZM5.5 6C5.77614 6 6 6.22386 6 6.5C6 6.77614 5.77614 7 5.5 7C5.22386 7 5 6.77614 5 6.5C5 6.22386 5.22386 6 5.5 6ZM7.5 6C7.77614 6 8 6.22386 8 6.5C8 6.77614 7.77614 7 7.5 7C7.22386 7 7 6.77614 7 6.5C7 6.22386 7.22386 6 7.5 6ZM9.5 6C9.77614 6 10 6.22386 10 6.5C10 6.77614 9.77614 7 9.5 7C9.22386 7 9 6.77614 9 6.5C9 6.22386 9.22386 6 9.5 6ZM11.5 6C11.7761 6 12 6.22386 12 6.5C12 6.77614 11.7761 7 11.5 7C11.2239 7 11 6.77614 11 6.5C11 6.22386 11.2239 6 11.5 6ZM13 3L2 3L2 4L13 4L13 3Z" id="Shape" fill="#000000" fill-rule="evenodd" stroke="none" artboard="4706df30-59d9-4c53-a3f5-5aa2207ca4ab" />
  </g>
</svg>