<?xml version="1.0" encoding="utf-8"?>
<svg width="15px" height="15px" viewBox="0 0 15 15" version="1.1" xmlns:xlink="http://www.w3.org/1999/xlink" xmlns="http://www.w3.org/2000/svg">
  <defs>
    <rect width="15" height="15" id="artboard_1" />
    <clipPath id="clip_1">
      <use xlink:href="#artboard_1" clip-rule="evenodd" />
    </clipPath>
  </defs>
  <g id="icon--calendar-day" clip-path="url(#clip_1)">
    <path d="M11.5 1C11.7761 1 12 1.22386 12 1.5L12 2L13.5 2C13.7761 2 14 2.22386 14 2.5L14 12.5C14 12.7761 13.7761 13 13.5 13L1.5 13C1.22386 13 1 12.7761 1 12.5L1 2.5C1 2.22386 1.22386 2 1.5 2L3 2L3 1.5C3 1.22386 3.22386 1 3.5 1C3.77614 1 4 1.22386 4 1.5L4 2L11 2L11 1.5C11 1.22386 11.2239 1 11.5 1ZM13 5L2 5L2 12L13 12L13 5ZM6 6L6 11L5 11L4.99948 7.506L4.2935 7.91975L4.00948 7.01042L5.5 6L6 6ZM10.26 6L10.26 6.51L8.4236 11L7.24435 11L8.90901 7L7 7L7 6L10.26 6ZM13 3L2 3L2 4L13 4L13 3Z" id="Shape" fill="#000000" fill-rule="evenodd" stroke="none" artboard="54957b89-5ec0-4bf9-b6dc-7ea4f685700f" />
  </g>
</svg>