<?xml version="1.0" encoding="utf-8"?>
<svg width="15px" height="15px" viewBox="0 0 15 15" version="1.1" xmlns:xlink="http://www.w3.org/1999/xlink" xmlns="http://www.w3.org/2000/svg">
  <defs>
    <rect width="15" height="15" id="artboard_1" />
    <clipPath id="clip_1">
      <use xlink:href="#artboard_1" clip-rule="evenodd" />
    </clipPath>
  </defs>
  <g id="icon--day" clip-path="url(#clip_1)">
    <path d="M7.5 1C7.77614 1 8 1.22386 8 1.5L8 2.5C8 2.77614 7.77614 3 7.5 3C7.22386 3 7 2.77614 7 2.5L7 1.5C7 1.22386 7.22386 1 7.5 1ZM4.16067 3.65356L3.45356 2.94645C3.2583 2.75119 2.94171 2.75119 2.74645 2.94645C2.55119 3.14171 2.55119 3.4583 2.74645 3.65356L3.45356 4.36067C3.64882 4.55593 3.9654 4.55593 4.16067 4.36067C4.35593 4.1654 4.35593 3.84882 4.16067 3.65356ZM12.1607 2.94645C12.3559 3.14171 12.3559 3.4583 12.1607 3.65356L11.4536 4.36067C11.2583 4.55593 10.9417 4.55593 10.7465 4.36067C10.5512 4.1654 10.5512 3.84882 10.7465 3.65356L11.4536 2.94645C11.6488 2.75119 11.9654 2.75119 12.1607 2.94645ZM11.1 7.36153C11.1 5.44978 9.55021 3.89999 7.63845 3.89999L7.36153 3.89999C5.44978 3.89999 3.89999 5.44978 3.89999 7.36153L3.89999 7.63845C3.89999 9.55021 5.44978 11.1 7.36153 11.1L7.63845 11.1C9.55021 11.1 11.1 9.55021 11.1 7.63845L11.1 7.36153ZM7.49999 4.89999C6.06405 4.89999 4.89999 6.06405 4.89999 7.49999C4.89999 8.93593 6.06405 10.1 7.49999 10.1C8.93593 10.1 10.1 8.93593 10.1 7.49999C10.1 6.06405 8.93593 4.89999 7.49999 4.89999ZM3 7.5C3 7.22386 2.77614 7 2.5 7L1.5 7C1.22386 7 1 7.22386 1 7.5C1 7.77614 1.22386 8 1.5 8L2.5 8C2.77614 8 3 7.77614 3 7.5ZM13.5 7C13.7761 7 14 7.22386 14 7.5C14 7.77614 13.7761 8 13.5 8L12.5 8C12.2239 8 12 7.77614 12 7.5C12 7.22386 12.2239 7 12.5 7L13.5 7ZM4.16067 10.6464C4.35593 10.8417 4.35593 11.1583 4.16067 11.3536L3.45356 12.0607C3.2583 12.2559 2.94171 12.2559 2.74645 12.0607C2.55119 11.8654 2.55119 11.5488 2.74645 11.3536L3.45356 10.6464C3.64882 10.4512 3.9654 10.4512 4.16067 10.6464ZM12.1607 11.3536L11.4536 10.6464C11.2583 10.4512 10.9417 10.4512 10.7465 10.6464C10.5512 10.8417 10.5512 11.1583 10.7465 11.3536L11.4536 12.0607C11.6488 12.2559 11.9654 12.2559 12.1607 12.0607C12.3559 11.8654 12.3559 11.5488 12.1607 11.3536ZM8 12.5C8 12.2239 7.77614 12 7.5 12C7.22386 12 7 12.2239 7 12.5L7 13.5C7 13.7761 7.22386 14 7.5 14C7.77614 14 8 13.7761 8 13.5L8 12.5Z" id="Shape-path-Union" fill="#000000" fill-rule="evenodd" stroke="none" artboard="d801438c-15d3-408b-bd5b-032b4c9615cf" />
  </g>
</svg>