<?xml version="1.0" encoding="utf-8"?>
<svg width="15px" height="15px" viewBox="0 0 15 15" version="1.1" xmlns:xlink="http://www.w3.org/1999/xlink" xmlns="http://www.w3.org/2000/svg">
  <defs>
    <rect width="15" height="15" id="artboard_1" />
    <clipPath id="clip_1">
      <use xlink:href="#artboard_1" clip-rule="evenodd" />
    </clipPath>
  </defs>
  <g id="icon--evening" clip-path="url(#clip_1)">
    <path d="M9 2.5C9 2.22363 8.77612 2 8.5 2C8.22388 2 8 2.22363 8 2.5L8 3.5C8 3.77637 8.22388 4 8.5 4C8.77612 4 9 3.77637 9 3.5L9 2.5ZM5.04715 4.84715L3.98507 3.78508Q3.91489 3.71489 3.82319 3.67691Q3.73148 3.63892 3.63223 3.63892Q3.53297 3.63892 3.44127 3.67691Q3.34957 3.71489 3.27938 3.78508L3.27797 3.78649Q3.24321 3.82124 3.21591 3.86211Q3.1886 3.90297 3.1698 3.94838Q3.15099 3.99378 3.1414 4.04199Q3.13181 4.09019 3.13181 4.13934Q3.13181 4.18848 3.1414 4.23669Q3.15099 4.28489 3.1698 4.3303Q3.1886 4.3757 3.21591 4.41657Q3.24321 4.45743 3.27797 4.49218L4.34004 5.55426Q4.41023 5.62444 4.50193 5.66243Q4.59363 5.70041 4.69289 5.70041Q4.79214 5.70041 4.88385 5.66243Q4.97555 5.62444 5.04573 5.55426L5.04715 5.55284Q5.0819 5.51809 5.1092 5.47723Q5.13651 5.43636 5.15532 5.39096Q5.17412 5.34555 5.18371 5.29735Q5.1933 5.24914 5.1933 5.2Q5.1933 5.15085 5.18371 5.10265Q5.17412 5.05444 5.15532 5.00904Q5.13651 4.96363 5.1092 4.92277Q5.0819 4.8819 5.04715 4.84715ZM11.9422 4.85782L12.2971 4.50285Q12.3319 4.4681 12.3728 4.44079Q12.4136 4.41349 12.459 4.39468Q12.5044 4.37587 12.5526 4.36628Q12.6008 4.35669 12.65 4.35669Q12.6991 4.35669 12.7473 4.36628Q12.7955 4.37587 12.841 4.39468Q12.8864 4.41349 12.9272 4.44079Q12.9681 4.4681 13.0028 4.50285L13.0043 4.50426Q13.039 4.53901 13.0663 4.57988Q13.0936 4.62074 13.1124 4.66615Q13.1312 4.71156 13.1408 4.75976Q13.1504 4.80796 13.1504 4.85711Q13.1504 4.90625 13.1408 4.95446Q13.1312 5.00266 13.1124 5.04807Q13.0936 5.09347 13.0663 5.13434Q13.039 5.1752 13.0043 5.20995L12.6493 5.56492Q12.5791 5.63511 12.4874 5.67309Q12.3957 5.71108 12.2964 5.71108Q12.1972 5.71108 12.1055 5.67309Q12.0138 5.63511 11.9436 5.56492L11.9422 5.56351Q11.9074 5.52876 11.8801 5.48789Q11.8528 5.44703 11.834 5.40162Q11.8152 5.35621 11.8056 5.30801Q11.796 5.25981 11.796 5.21066Q11.796 5.16151 11.8056 5.11331Q11.8152 5.06511 11.834 5.0197Q11.8528 4.9743 11.8801 4.93343Q11.9074 4.89257 11.9422 4.85782ZM6 8.5C6 8.67139 6.01733 8.83838 6.05005 9L5.0354 9C5.01196 8.83691 5 8.66992 5 8.5C5 6.56689 6.56689 5 8.5 5C10.4331 5 12 6.56689 12 8.5C12 8.66992 11.988 8.83691 11.9646 9L10.95 9C10.9827 8.83838 11 8.67139 11 8.5C11 7.11914 9.88062 6 8.5 6C7.11938 6 6 7.11914 6 8.5ZM13.501 8L13.499 8Q13.4499 8 13.4016 8.00959Q13.3534 8.01918 13.308 8.03798Q13.2626 8.05679 13.2218 8.0841Q13.1809 8.1114 13.1462 8.14615Q13.1114 8.18091 13.0841 8.22177Q13.0568 8.26263 13.038 8.30804Q13.0192 8.35345 13.0096 8.40165Q13 8.44985 13 8.499L13 8.501Q13 8.55015 13.0096 8.59835Q13.0192 8.64655 13.038 8.69196Q13.0568 8.73736 13.0841 8.77823Q13.1114 8.81909 13.1462 8.85385Q13.1809 8.8886 13.2218 8.9159Q13.2626 8.94321 13.308 8.96202Q13.3534 8.98082 13.4016 8.99041Q13.4499 9 13.499 9L13.501 9Q13.5501 9 13.5983 8.99041Q13.6466 8.98082 13.692 8.96202Q13.7374 8.94321 13.7782 8.9159Q13.8191 8.8886 13.8538 8.85385Q13.8886 8.81909 13.9159 8.77823Q13.9432 8.73736 13.962 8.69196Q13.9808 8.64655 13.9904 8.59835Q14 8.55015 14 8.501L14 8.499Q14 8.44985 13.9904 8.40165Q13.9808 8.35345 13.962 8.30804Q13.9432 8.26263 13.9159 8.22177Q13.8886 8.18091 13.8538 8.14615Q13.8191 8.1114 13.7782 8.0841Q13.7374 8.05679 13.692 8.03798Q13.6466 8.01918 13.5983 8.00959Q13.5501 8 13.501 8ZM1 8.5C1 8.22363 1.2239 8 1.5 8L3.5 8C3.7761 8 4 8.22363 4 8.5C4 8.77637 3.7761 9 3.5 9L1.5 9C1.4006 9 1.3081 8.97119 1.2302 8.9209C1.0918 8.83203 1 8.67676 1 8.5ZM7.0816 8.9756L8.303 10.197C8.4118 10.3058 8.58821 10.3058 8.697 10.197L9.9184 8.9756C10.0272 8.8668 10.0272 8.6904 9.9184 8.5816C9.8096 8.4728 9.6332 8.4728 9.52439 8.5816L8.50001 9.606L7.47561 8.5816C7.3668 8.4728 7.1904 8.4728 7.0816 8.5816C6.9728 8.6904 6.9728 8.8668 7.0816 8.9756ZM13.501 11L1.499 11C1.4663 11 1.4338 11.0032 1.4017 11.0096C1.3695 11.016 1.3383 11.0254 1.308 11.038C1.2777 11.0505 1.249 11.0659 1.2218 11.0841C1.1945 11.1023 1.1693 11.123 1.1462 11.1461C1.123 11.1693 1.1023 11.1945 1.0841 11.2218C1.0659 11.249 1.0505 11.2778 1.038 11.308C1.0255 11.3383 1.016 11.3695 1.0096 11.4017C1.0032 11.4338 1 11.4662 1 11.499L1 11.501C1 11.5338 1.0032 11.5662 1.0096 11.5983C1.016 11.6305 1.0255 11.6617 1.038 11.692C1.0505 11.7222 1.0659 11.751 1.0841 11.7782C1.1023 11.8055 1.123 11.8307 1.1462 11.8539C1.1693 11.877 1.1945 11.8977 1.2218 11.9159C1.249 11.9341 1.2777 11.9495 1.308 11.962C1.3383 11.9746 1.3695 11.984 1.4017 11.9904C1.4338 11.9968 1.4663 12 1.499 12L13.501 12C13.5338 12 13.5662 11.9968 13.5983 11.9904C13.6305 11.984 13.6617 11.9746 13.692 11.962C13.7222 11.9495 13.751 11.9341 13.7782 11.9159C13.8055 11.8977 13.8307 11.877 13.8538 11.8539C13.877 11.8307 13.8977 11.8055 13.9159 11.7782C13.9341 11.751 13.9495 11.7222 13.962 11.692C13.9746 11.6617 13.984 11.6305 13.9904 11.5983C13.9968 11.5662 14 11.5338 14 11.501L14 11.499C14 11.4662 13.9968 11.4338 13.9904 11.4017C13.984 11.3695 13.9746 11.3383 13.962 11.308C13.9495 11.2778 13.9341 11.249 13.9159 11.2218C13.8977 11.1945 13.877 11.1693 13.8538 11.1461C13.8307 11.123 13.8055 11.1023 13.7782 11.0841C13.751 11.0659 13.7222 11.0505 13.692 11.038C13.6617 11.0254 13.6305 11.016 13.5983 11.0096C13.5662 11.0032 13.5338 11 13.501 11Z" id="Shape-Union" fill="#000000" fill-rule="evenodd" stroke="none" artboard="6e7f88b9-9700-490c-99df-f07da5975e09" />
  </g>
</svg>