<?xml version="1.0" encoding="utf-8"?>
<svg width="15px" height="15px" viewBox="0 0 15 15" version="1.1" xmlns:xlink="http://www.w3.org/1999/xlink" xmlns="http://www.w3.org/2000/svg">
  <defs>
    <rect width="15" height="15" id="artboard_1" />
    <clipPath id="clip_1">
      <use xlink:href="#artboard_1" clip-rule="evenodd" />
    </clipPath>
  </defs>
  <g id="icon--history" clip-path="url(#clip_1)">
    <path d="M7.5 4C7.77614 4 8 4.22386 8 4.5L8 7.439L10.5311 8.9C10.7702 9.03807 10.8522 9.34387 10.7141 9.58301C10.576 9.82216 10.2702 9.9041 10.0311 9.76603L7 8.01603L7.009 8L7 8L7 4.5C7 4.22386 7.22386 4 7.5 4Z" id="Combined-Shape" fill="#000000" stroke="none" artboard="91e771de-cf2a-4609-ae17-7ce73e7dbf3e" />
    <path d="M7.50001 1.9C10.5928 1.9 13.1 4.40721 13.1 7.5C13.1 10.5928 10.5928 13.1 7.50001 13.1C5.57652 13.1 3.81927 12.1221 2.79431 10.537C2.64437 10.3051 2.71081 9.99555 2.9427 9.84562C3.17459 9.69568 3.48412 9.76211 3.63406 9.994C4.47666 11.2971 5.91944 12.1 7.50001 12.1C10.0405 12.1 12.1 10.0405 12.1 7.5C12.1 4.95949 10.0405 2.9 7.50001 2.9C4.98626 2.9 2.94344 4.91634 2.90069 7.41989L3.63086 6.77957C3.8415 6.59423 4.15985 6.60427 4.35838 6.80252C4.53917 6.98306 4.53938 7.27597 4.35884 7.45676L4.3333 7.48048L2.75454 8.83952C2.59571 8.99836 2.31094 9.01821 2.12062 8.89909L2.04548 8.83952L0.607406 7.4006C0.412766 7.20585 0.412812 6.8902 0.60751 6.6955C0.772604 6.53041 1.02745 6.50977 1.21498 6.63359L1.3013 6.70636L1.3013 6.70636L1.90246 7.346L1.90425 7.28011C2.01973 4.28924 4.48085 1.9 7.50001 1.9Z" id="Path" fill="#000000" fill-rule="evenodd" stroke="none" artboard="2d4b6a40-2342-469d-b21f-858da61de7df" />
  </g>
</svg>