<?xml version="1.0" encoding="utf-8"?>
<svg width="15px" height="15px" viewBox="0 0 15 15" version="1.1" xmlns:xlink="http://www.w3.org/1999/xlink" xmlns="http://www.w3.org/2000/svg">
  <defs>
    <rect width="15" height="15" id="artboard_1" />
    <clipPath id="clip_1">
      <use xlink:href="#artboard_1" clip-rule="evenodd" />
    </clipPath>
  </defs>
  <g id="icon--morning" clip-path="url(#clip_1)">
    <path d="M6 2.5C6 2.22363 6.22388 2 6.5 2C6.77612 2 7 2.22363 7 2.5L7 3.5C7 3.77637 6.77612 4 6.5 4C6.22388 4 6 3.77637 6 3.5L6 2.5ZM9.95285 4.84715L11.0149 3.78508Q11.0851 3.71489 11.1768 3.67691Q11.2685 3.63892 11.3678 3.63892Q11.467 3.63892 11.5587 3.67691Q11.6504 3.71489 11.7206 3.78508L11.722 3.78649Q11.7568 3.82124 11.7841 3.86211Q11.8114 3.90297 11.8302 3.94838Q11.849 3.99378 11.8586 4.04199Q11.8682 4.09019 11.8682 4.13934Q11.8682 4.18848 11.8586 4.23669Q11.849 4.28489 11.8302 4.3303Q11.8114 4.3757 11.7841 4.41657Q11.7568 4.45743 11.722 4.49218L10.66 5.55426Q10.5898 5.62444 10.4981 5.66243Q10.4064 5.70041 10.3071 5.70041Q10.2079 5.70041 10.1162 5.66243Q10.0245 5.62444 9.95427 5.55426L9.95285 5.55284Q9.9181 5.51809 9.89079 5.47723Q9.86349 5.43636 9.84468 5.39096Q9.82587 5.34555 9.81629 5.29735Q9.8067 5.24914 9.8067 5.2Q9.8067 5.15085 9.81629 5.10265Q9.82587 5.05444 9.84468 5.00904Q9.86349 4.96363 9.89079 4.92277Q9.9181 4.8819 9.95285 4.84715ZM3.05782 4.85782L2.70285 4.50285Q2.6681 4.4681 2.62724 4.44079Q2.58637 4.41349 2.54097 4.39468Q2.49556 4.37587 2.44736 4.36628Q2.39915 4.35669 2.35001 4.35669Q2.30086 4.35669 2.25266 4.36628Q2.20445 4.37587 2.15905 4.39468Q2.11364 4.41349 2.07278 4.44079Q2.03191 4.4681 1.99716 4.50285L1.99575 4.50426Q1.96099 4.53901 1.93369 4.57988Q1.90638 4.62074 1.88758 4.66615Q1.86877 4.71156 1.85918 4.75976Q1.84959 4.80796 1.84959 4.85711Q1.84959 4.90625 1.85918 4.95446Q1.86877 5.00266 1.88758 5.04807Q1.90638 5.09347 1.93369 5.13434Q1.96099 5.1752 1.99575 5.20995L2.35071 5.56492Q2.4209 5.63511 2.5126 5.67309Q2.6043 5.71108 2.70356 5.71108Q2.80282 5.71108 2.89452 5.67309Q2.98622 5.63511 3.05641 5.56492L3.05782 5.56351Q3.09257 5.52876 3.11988 5.48789Q3.14718 5.44703 3.16599 5.40162Q3.1848 5.35621 3.19439 5.30801Q3.20397 5.25981 3.20397 5.21066Q3.20397 5.16151 3.19439 5.11331Q3.1848 5.06511 3.16599 5.0197Q3.14718 4.9743 3.11988 4.93343Q3.09257 4.89257 3.05782 4.85782ZM9 8.5C9 8.67139 8.98267 8.83838 8.94995 9L9.9646 9C9.98804 8.83691 10 8.66992 10 8.5C10 6.56689 8.43311 5 6.5 5C4.56689 5 3 6.56689 3 8.5C3 8.66992 3.01196 8.83691 3.0354 9L4.05005 9C4.01733 8.83838 4 8.67139 4 8.5C4 7.11914 5.11938 6 6.5 6C7.88062 6 9 7.11914 9 8.5ZM1.499 8L1.501 8Q1.55015 8 1.59835 8.00959Q1.64655 8.01918 1.69196 8.03798Q1.73736 8.05679 1.77823 8.0841Q1.81909 8.1114 1.85385 8.14615Q1.8886 8.18091 1.9159 8.22177Q1.94321 8.26263 1.96202 8.30804Q1.98082 8.35345 1.99041 8.40165Q2 8.44985 2 8.499L2 8.501Q2 8.55015 1.99041 8.59835Q1.98082 8.64655 1.96202 8.69196Q1.94321 8.73736 1.9159 8.77823Q1.8886 8.81909 1.85385 8.85385Q1.81909 8.8886 1.77823 8.9159Q1.73737 8.94321 1.69196 8.96202Q1.64655 8.98082 1.59835 8.99041Q1.55015 9 1.501 9L1.499 9Q1.44985 9 1.40165 8.99041Q1.35345 8.98082 1.30804 8.96202Q1.26263 8.94321 1.22177 8.9159Q1.18091 8.8886 1.14615 8.85385Q1.1114 8.81909 1.0841 8.77823Q1.05679 8.73736 1.03798 8.69196Q1.01918 8.64655 1.00959 8.59835Q1 8.55015 1 8.501L1 8.499Q1 8.44985 1.00959 8.40165Q1.01918 8.35345 1.03798 8.30804Q1.05679 8.26263 1.0841 8.22177Q1.1114 8.18091 1.14615 8.14615Q1.18091 8.1114 1.22177 8.0841Q1.26263 8.05679 1.30804 8.03798Q1.35345 8.01918 1.40165 8.00959Q1.44985 8 1.499 8ZM14 8.5C14 8.22363 13.7761 8 13.5 8L11.5 8C11.2239 8 11 8.22363 11 8.5C11 8.77637 11.2239 9 11.5 9L13.5 9C13.5994 9 13.6919 8.97119 13.7698 8.9209C13.9082 8.83203 14 8.67676 14 8.5ZM7.9184 9.803L6.697 8.5816C6.5882 8.4728 6.41179 8.4728 6.303 8.5816L5.0816 9.803C4.9728 9.91179 4.9728 10.0882 5.0816 10.197C5.1904 10.3058 5.3668 10.3058 5.47561 10.197L6.49999 9.1726L7.52439 10.197C7.6332 10.3058 7.8096 10.3058 7.9184 10.197C8.0272 10.0882 8.0272 9.91179 7.9184 9.803ZM1.499 11L13.501 11C13.5337 11 13.5662 11.0032 13.5983 11.0096C13.6305 11.016 13.6617 11.0254 13.692 11.038C13.7223 11.0505 13.751 11.0659 13.7782 11.0841C13.8055 11.1023 13.8307 11.123 13.8538 11.1461C13.877 11.1693 13.8977 11.1945 13.9159 11.2218C13.9341 11.249 13.9495 11.2778 13.962 11.308C13.9745 11.3383 13.984 11.3695 13.9904 11.4017C13.9968 11.4338 14 11.4662 14 11.499L14 11.501C14 11.5338 13.9968 11.5662 13.9904 11.5983C13.984 11.6305 13.9745 11.6617 13.962 11.692C13.9495 11.7222 13.9341 11.751 13.9159 11.7782C13.8977 11.8055 13.877 11.8307 13.8538 11.8539C13.8307 11.877 13.8055 11.8977 13.7782 11.9159C13.751 11.9341 13.7223 11.9495 13.692 11.962C13.6617 11.9746 13.6305 11.984 13.5983 11.9904C13.5662 11.9968 13.5337 12 13.501 12L1.499 12C1.46624 12 1.43378 11.9968 1.40165 11.9904C1.36951 11.984 1.33831 11.9746 1.30804 11.962C1.27777 11.9495 1.24901 11.9341 1.22177 11.9159C1.19453 11.8977 1.16932 11.877 1.14615 11.8539C1.12299 11.8307 1.1023 11.8055 1.0841 11.7782C1.06589 11.751 1.05052 11.7222 1.03798 11.692C1.02545 11.6617 1.01598 11.6305 1.00959 11.5983C1.0032 11.5662 1 11.5338 1 11.501L1 11.499C1 11.4662 1.0032 11.4338 1.00959 11.4017C1.01598 11.3695 1.02545 11.3383 1.03798 11.308C1.05052 11.2778 1.06589 11.249 1.0841 11.2218C1.1023 11.1945 1.12299 11.1693 1.14615 11.1461C1.16932 11.123 1.19453 11.1023 1.22177 11.0841C1.24901 11.0659 1.27777 11.0505 1.30804 11.038C1.33831 11.0254 1.36951 11.016 1.40165 11.0096C1.43378 11.0032 1.46624 11 1.499 11Z" id="Shape-Union" fill="#000000" fill-rule="evenodd" stroke="none" artboard="80318c10-3c05-4072-af13-8ee5ba8a3f16" />
  </g>
</svg>