<?xml version="1.0" encoding="utf-8"?>
<svg width="15px" height="15px" viewBox="0 0 15 15" version="1.1" xmlns:xlink="http://www.w3.org/1999/xlink" xmlns="http://www.w3.org/2000/svg">
  <defs>
    <rect width="15" height="15" id="artboard_1" />
    <clipPath id="clip_1">
      <use xlink:href="#artboard_1" clip-rule="evenodd" />
    </clipPath>
  </defs>
  <g id="icon--timer-setting" clip-path="url(#clip_1)">
    <path d="M7.5 14C7.77614 14 8 14.2239 8 14.5C8 14.7761 7.77614 15 7.5 15C7.22386 15 7 14.7761 7 14.5C7 14.2239 7.22386 14 7.5 14ZM5.5 14C5.77614 14 6 14.2239 6 14.5C6 14.7761 5.77614 15 5.5 15C5.22386 15 5 14.7761 5 14.5C5 14.2239 5.22386 14 5.5 14ZM9.5 14C9.77614 14 10 14.2239 10 14.5C10 14.7761 9.77614 15 9.5 15C9.22386 15 9 14.7761 9 14.5C9 14.2239 9.22386 14 9.5 14ZM8.99999 0C9.27614 0 9.49999 0.223858 9.49999 0.5C9.49999 0.776142 9.27614 1 8.99999 1L7.99999 1L8.00079 1.92209C9.04654 2.01477 10.0097 2.3949 10.8106 2.98295L11.5 2.29289C11.6953 2.09763 12.0118 2.09763 12.2071 2.29289C12.4024 2.48816 12.4024 2.80474 12.2071 3L11.5628 3.64595C12.5155 4.64992 13.1 6.0067 13.1 7.5C13.1 10.5928 10.5928 13.1 7.49999 13.1C4.4072 13.1 1.89999 10.5928 1.89999 7.5C1.89999 4.57562 4.14158 2.17479 7.00027 1.92199L6.99999 1L5.99999 1C5.72385 1 5.49999 0.776142 5.49999 0.5C5.49999 0.223858 5.72385 0 5.99999 0L8.99999 0ZM7.49999 2.9C4.95948 2.9 2.89999 4.95949 2.89999 7.5C2.89999 10.0405 4.95948 12.1 7.49999 12.1C10.0405 12.1 12.1 10.0405 12.1 7.5C12.1 4.95949 10.0405 2.9 7.49999 2.9ZM7.5 4C7.77614 4 8 4.22386 8 4.5L8 7.5C8 7.77614 7.77614 8 7.5 8C7.22386 8 7 7.77614 7 7.5L7 4.5C7 4.22386 7.22386 4 7.5 4Z" id="Shape" fill="#000000" fill-rule="evenodd" stroke="none" artboard="92b13024-88c9-452a-93ca-1e8a6738f5e9" />
  </g>
</svg>