<?xml version="1.0" encoding="utf-8"?>
<svg width="15px" height="15px" viewBox="0 0 15 15" version="1.1" xmlns:xlink="http://www.w3.org/1999/xlink" xmlns="http://www.w3.org/2000/svg">
  <defs>
    <rect width="15" height="15" id="artboard_1" />
    <clipPath id="clip_1">
      <use xlink:href="#artboard_1" clip-rule="evenodd" />
    </clipPath>
  </defs>
  <g id="icon--timer-off" clip-path="url(#clip_1)">
    <path d="M2.85355 1.84645L13.6317 12.6246C13.827 12.8199 13.827 13.1365 13.6317 13.3317C13.4365 13.527 13.1199 13.527 12.9246 13.3317L11.2517 11.6576C10.2588 12.5541 8.94312 13.1 7.49999 13.1C4.4072 13.1 1.89999 10.5928 1.89999 7.5C1.89999 6.05687 2.44587 4.74124 3.34241 3.74833L2.14644 2.55355C1.95118 2.35829 1.95118 2.04171 2.14644 1.84645C2.3417 1.65119 2.65829 1.65119 2.85355 1.84645ZM4.05066 4.45654C3.33455 5.26754 2.89999 6.33302 2.89999 7.5C2.89999 10.0405 4.95948 12.1 7.49999 12.1C8.66697 12.1 9.73245 11.6654 10.5435 10.9493L4.05066 4.45654ZM9 0C9.27614 0 9.5 0.223858 9.5 0.5C9.5 0.776142 9.27614 1 9 1L7.999 1L7.9998 1.922C9.04593 2.01452 10.0094 2.39471 10.8107 2.98295L11.5 2.29289C11.6953 2.09763 12.0118 2.09763 12.2071 2.29289C12.4024 2.48816 12.4024 2.80474 12.2071 3L11.5628 3.64595C12.5155 4.64992 13.1 6.0067 13.1 7.5C13.1 8.42648 12.875 9.30041 12.4767 10.0701L11.7264 9.31886C11.9668 8.76098 12.1 8.14604 12.1 7.5C12.1 4.95949 10.0405 2.9 7.5 2.9C6.85396 2.9 6.23902 3.03318 5.68114 3.27359L4.92987 2.52331C5.55931 2.19758 6.25844 1.98777 6.999 1.92211L6.999 1L6 1C5.72386 1 5.5 0.776142 5.5 0.5C5.5 0.223858 5.72386 0 6 0L9 0ZM7.5 4C7.77614 4 8 4.22386 8 4.5L8 5.593L7 4.593L7 4.5C7 4.22386 7.22386 4 7.5 4Z" id="Shape" fill="#000000" stroke="none" artboard="84bb103e-7260-4910-b134-56d66448fc74" />
  </g>
</svg>