<?xml version="1.0" encoding="utf-8"?>
<svg width="15px" height="15px" viewBox="0 0 15 15" version="1.1" xmlns:xlink="http://www.w3.org/1999/xlink" xmlns="http://www.w3.org/2000/svg">
  <defs>
    <rect width="15" height="15" id="artboard_1" />
    <clipPath id="clip_1">
      <use xlink:href="#artboard_1" clip-rule="evenodd" />
    </clipPath>
  </defs>
  <g id="icon--timer-sand-empty" clip-path="url(#clip_1)">
    <path d="M12 1.5C12 1.22386 11.7761 1 11.5 1L3.5 1C3.22386 1 3 1.22386 3 1.5L3 3.92963C3 4.59834 3.3342 5.2228 3.8906 5.59373L6 7L6 8L3.8906 9.40627C3.3342 9.7772 3 10.4017 3 11.0704L3 13.5C3 13.7761 3.22386 14 3.5 14L11.5 14C11.7761 14 12 13.7761 12 13.5L12 11.0704C12 10.4017 11.6658 9.7772 11.1094 9.40627L9 8L9 7L11.1094 5.59373C11.6658 5.2228 12 4.59834 12 3.92963L12 1.5ZM3.99901 2L10.999 2L11 3.92963L10.9923 4.05377C10.9565 4.34006 10.7981 4.5994 10.5547 4.76168L8 6.46482L8 8.53518L10.5547 10.2383L10.6537 10.3136C10.8721 10.5022 11 10.7778 11 11.0704L10.999 13L3.99901 13L4 11.0704L4.00772 10.9462C4.04351 10.6599 4.20188 10.4006 4.4453 10.2383L7 8.53518L7 6.46482L4.4453 4.76168L4.34629 4.6864C4.12794 4.49781 4 4.22219 4 3.92963L3.99901 2ZM10 11.3923L10 12.1L5 12.1L5 11.3922Q5 11.3235 5.01858 11.2573Q5.03715 11.1911 5.07293 11.1325Q5.1087 11.0738 5.159 11.0269Q5.2093 10.9801 5.27039 10.9486L7.499 9.8L9.72947 10.9487Q9.79058 10.9802 9.84091 11.027Q9.89124 11.0738 9.92703 11.1325Q9.96282 11.1912 9.98141 11.2574Q10 11.3236 10 11.3923Z" id="Path-Union" fill="#000000" fill-rule="evenodd" stroke="none" artboard="61ebedaf-32da-4b8a-827d-8c2716a039ea" />
  </g>
</svg>