<?xml version="1.0" encoding="utf-8"?>
<svg width="15px" height="15px" viewBox="0 0 15 15" version="1.1" xmlns:xlink="http://www.w3.org/1999/xlink" xmlns="http://www.w3.org/2000/svg">
  <defs>
    <rect width="15" height="15" id="artboard_1" />
    <clipPath id="clip_1">
      <use xlink:href="#artboard_1" clip-rule="evenodd" />
    </clipPath>
  </defs>
  <g id="icon--time-outline" clip-path="url(#clip_1)">
    <path d="M7.49999 1.9C10.5928 1.9 13.1 4.40721 13.1 7.5C13.1 10.5928 10.5928 13.1 7.49999 13.1C4.4072 13.1 1.89999 10.5928 1.89999 7.5C1.89999 4.40721 4.4072 1.9 7.49999 1.9ZM7.49999 2.9C4.95948 2.9 2.89999 4.95949 2.89999 7.5C2.89999 10.0405 4.95948 12.1 7.49999 12.1C10.0405 12.1 12.1 10.0405 12.1 7.5C12.1 4.95949 10.0405 2.9 7.49999 2.9ZM7.5 4C7.77614 4 8 4.22386 8 4.5L8 7.439L10.5311 8.9C10.7702 9.03807 10.8522 9.34387 10.7141 9.58301C10.576 9.82216 10.2702 9.9041 10.0311 9.76603L7 8.01603L7.009 8L7 8L7 4.5C7 4.22386 7.22386 4 7.5 4Z" id="Shape" fill="#000000" stroke="none" artboard="a6ec5d14-bd8e-4b5c-a843-59088ed07153" />
  </g>
</svg>