<?xml version="1.0" encoding="utf-8"?>
<svg width="15px" height="15px" viewBox="0 0 15 15" version="1.1" xmlns:xlink="http://www.w3.org/1999/xlink" xmlns="http://www.w3.org/2000/svg">
  <defs>
    <rect width="15" height="15" id="artboard_1" />
    <clipPath id="clip_1">
      <use xlink:href="#artboard_1" clip-rule="evenodd" />
    </clipPath>
  </defs>
  <g id="icon--timer-sand" clip-path="url(#clip_1)">
    <path d="M12 3.92963L12 1.5C12 1.22386 11.7761 1 11.5 1L3.5 1C3.22386 1 3 1.22386 3 1.5L3 3.92963C3 4.59834 3.3342 5.2228 3.8906 5.59373L6 7L6 8L3.8906 9.40627C3.3342 9.7772 3 10.4017 3 11.0704L3 13.5C3 13.7761 3.22386 14 3.5 14L11.5 14C11.7761 14 12 13.7761 12 13.5L12 11.0704C12 10.4017 11.6658 9.7772 11.1094 9.40627L9 8L9 7L11.1094 5.59373C11.6658 5.2228 12 4.59834 12 3.92963ZM3.99999 3.92963L3.99899 2L10.999 2L11 3.92963L10.9923 4.05377C10.9565 4.34006 10.7981 4.5994 10.5547 4.76168L7.99999 6.46482L7.99999 8.53518L10.5547 10.2383L10.6537 10.3136C10.872 10.5022 11 10.7778 11 11.0704L10.999 13L3.99899 13L3.99999 11.0704L4.00771 10.9462C4.0435 10.6599 4.20186 10.4006 4.44529 10.2383L6.99999 8.53518L6.99999 6.46482L4.44529 4.76168L4.34628 4.6864C4.12792 4.49781 3.99999 4.22219 3.99999 3.92963ZM5.10001 4.01362L9.90001 4.01362L9.86409 4.10191Q9.80001 4.25944 9.65307 4.34504L7.49901 5.6L5.34669 4.3447Q5.20001 4.25915 5.13595 4.10188L5.10001 4.01362ZM9.39732 11.878L9.39705 12.025L5.60022 12.025L5.60077 11.8765Q5.60118 11.7676 5.64692 11.6688Q5.69266 11.5699 5.77543 11.4992L7.49899 10.025L9.22249 11.4978Q9.30589 11.569 9.35171 11.6687Q9.39753 11.7684 9.39732 11.878Z" id="Path-Union" fill="#000000" fill-rule="evenodd" stroke="none" artboard="6e88d167-e888-4e2c-9ab2-167368888e08" />
  </g>
</svg>