<?xml version="1.0" encoding="utf-8"?>
<svg width="15px" height="15px" viewBox="0 0 15 15" version="1.1" xmlns:xlink="http://www.w3.org/1999/xlink" xmlns="http://www.w3.org/2000/svg">
  <defs>
    <rect width="15" height="15" id="artboard_1" />
    <clipPath id="clip_1">
      <use xlink:href="#artboard_1" clip-rule="evenodd" />
    </clipPath>
  </defs>
  <g id="icon--update" clip-path="url(#clip_1)">
    <path d="M3.5402 11.4598C1.35326 9.27286 1.35326 5.72714 3.5402 3.5402C5.67506 1.40534 9.10478 1.35451 11.3013 3.38771L11.3492 3.43304L11.322 2.55566L11.3315 2.44317C11.3766 2.22301 11.5714 2.0574 11.8049 2.0574C12.0802 2.0574 12.3034 2.28057 12.3035 2.55591L12.3041 4.59025L12.2931 4.6855C12.2428 4.90431 12.0274 5.09163 11.8027 5.09163L9.72539 5.247L9.69056 5.24829C9.43507 5.24811 9.22809 5.04084 9.22827 4.78534C9.22847 4.50477 9.44648 4.27256 9.72647 4.25468L10.6956 4.19115C8.89505 2.4511 6.0248 2.46982 4.2473 4.24731C2.45089 6.04372 2.45089 8.95628 4.2473 10.7527C6.04371 12.5491 8.95627 12.5491 10.7527 10.7527C11.8703 9.63506 12.3228 8.04715 11.9972 6.52989C11.9392 6.25989 12.1111 5.99404 12.3811 5.93609C12.6511 5.87815 12.9169 6.05004 12.9749 6.32004C13.371 8.16567 12.8199 10.0997 11.4598 11.4598C9.27286 13.6467 5.72713 13.6467 3.5402 11.4598ZM8 4.5C8 4.22386 7.77614 4 7.5 4C7.22386 4 7 4.22386 7 4.5L7 8L7.009 8L7 8.01603L10.0311 9.76603C10.2702 9.9041 10.576 9.82216 10.7141 9.58301C10.8522 9.34387 10.7702 9.03807 10.5311 8.9L8 7.439L8 4.5Z" id="Combined-Shape" fill="#000000" fill-rule="evenodd" stroke="none" artboard="27996de6-225a-44cd-889b-b1f0f20fb871" />
  </g>
</svg>