<?xml version="1.0" encoding="utf-8"?>
<svg width="15px" height="15px" viewBox="0 0 15 15" version="1.1" xmlns:xlink="http://www.w3.org/1999/xlink" xmlns="http://www.w3.org/2000/svg">
  <defs>
    <rect width="15" height="15" id="artboard_1" />
    <clipPath id="clip_1">
      <use xlink:href="#artboard_1" clip-rule="evenodd" />
    </clipPath>
  </defs>
  <g id="icon--align-left" clip-path="url(#clip_1)">
    <path d="M2.5 2C2.77614 2 3 2.22386 3 2.5L3 12.5C3 12.7761 2.77614 13 2.5 13C2.22386 13 2 12.7761 2 12.5L2 2.5C2 2.22386 2.22386 2 2.5 2ZM12.5 5C12.7761 5 13 5.22386 13 5.5L13 9.5C13 9.77614 12.7761 10 12.5 10L4.5 10C4.22386 10 4 9.77614 4 9.5L4 5.5C4 5.22386 4.22386 5 4.5 5L12.5 5ZM12 6L5 6L5 9L12 9L12 6Z" id="Shape" fill="#000000" fill-rule="evenodd" stroke="none" artboard="d7a7015e-59d9-4095-b1fd-dc93a9334f72" />
  </g>
</svg>