<?xml version="1.0" encoding="utf-8"?>
<svg width="15px" height="15px" viewBox="0 0 15 15" version="1.1" xmlns:xlink="http://www.w3.org/1999/xlink" xmlns="http://www.w3.org/2000/svg">
  <defs>
    <rect width="15" height="15" id="artboard_1" />
    <clipPath id="clip_1">
      <use xlink:href="#artboard_1" clip-rule="evenodd" />
    </clipPath>
  </defs>
  <g id="icon--align-middle" clip-path="url(#clip_1)">
    <path d="M9.5 3C9.77614 3 10 3.22386 10 3.5L10 7L12.5 7C12.7761 7 13 7.22386 13 7.5C13 7.77614 12.7761 8 12.5 8L10 8L10 11.5C10 11.7761 9.77614 12 9.5 12L5.5 12C5.22386 12 5 11.7761 5 11.5L5 8L2.5 8C2.22386 8 2 7.77614 2 7.5C2 7.22386 2.22386 7 2.5 7L5 7L5 3.5C5 3.22386 5.22386 3 5.5 3L9.5 3ZM9 4L6 4L6 11L9 11L9 4Z" id="Shape" fill="#000000" fill-rule="evenodd" stroke="none" artboard="e29901e2-571e-4574-8e12-b562c8b980d8" />
  </g>
</svg>