<?xml version="1.0" encoding="utf-8"?>
<svg width="15px" height="15px" viewBox="0 0 15 15" version="1.1" xmlns:xlink="http://www.w3.org/1999/xlink" xmlns="http://www.w3.org/2000/svg">
  <defs>
    <rect width="15" height="15" id="artboard_1" />
    <clipPath id="clip_1">
      <use xlink:href="#artboard_1" clip-rule="evenodd" />
    </clipPath>
  </defs>
  <g id="icon--align-right" clip-path="url(#clip_1)">
    <path d="M12.5 2C12.7761 2 13 2.22386 13 2.5L13 12.5C13 12.7761 12.7761 13 12.5 13C12.2239 13 12 12.7761 12 12.5L12 2.5C12 2.22386 12.2239 2 12.5 2ZM10.5 5C10.7761 5 11 5.22386 11 5.5L11 9.5C11 9.77614 10.7761 10 10.5 10L2.5 10C2.22386 10 2 9.77614 2 9.5L2 5.5C2 5.22386 2.22386 5 2.5 5L10.5 5ZM10 6L3 6L3 9L10 9L10 6Z" id="Shape" fill="#000000" fill-rule="evenodd" stroke="none" artboard="79c24005-7c8a-486f-aee5-20f8214a3929" />
  </g>
</svg>