<?xml version="1.0" encoding="utf-8"?>
<svg width="15px" height="15px" viewBox="0 0 15 15" version="1.1" xmlns:xlink="http://www.w3.org/1999/xlink" xmlns="http://www.w3.org/2000/svg">
  <defs>
    <rect width="15" height="15" id="artboard_1" />
    <clipPath id="clip_1">
      <use xlink:href="#artboard_1" clip-rule="evenodd" />
    </clipPath>
  </defs>
  <g id="icon--cell-border-frame" clip-path="url(#clip_1)">
    <path d="M2 13L2 2L13 2L13 13L2 13ZM7 3L3 3L3 7L4 7L4 8L3 8L3 12L7 12L7 11L8 11L8 12L12 12L12 8L11 8L11 7L12 7L12 3L8 3L8 4L7 4L7 3ZM8 9L8 10L7 10L7 9L8 9ZM6 7L6 8L5 8L5 7L6 7ZM8 7L8 8L7 8L7 7L8 7ZM10 7L10 8L9 8L9 7L10 7ZM8 5L8 6L7 6L7 5L8 5Z" id="Shape" fill="#000000" fill-rule="evenodd" stroke="none" artboard="e71c36a8-14a1-40df-bf62-5865e431411f" />
  </g>
</svg>