<?xml version="1.0" encoding="utf-8"?>
<svg width="15px" height="15px" viewBox="0 0 15 15" version="1.1" xmlns:xlink="http://www.w3.org/1999/xlink" xmlns="http://www.w3.org/2000/svg">
  <defs>
    <rect width="15" height="15" id="artboard_1" />
    <clipPath id="clip_1">
      <use xlink:href="#artboard_1" clip-rule="evenodd" />
    </clipPath>
  </defs>
  <g id="icon--cell-border-bottom" clip-path="url(#clip_1)">
    <path d="M3 4L3 3L4 3L4 2L2 2L2 4L3 4ZM13 4L13 2L11 2L11 3L12 3L12 4L13 4ZM6 3L6 2L5 2L5 3L6 3ZM7 4L8 4L8 2L7 2L7 4ZM10 3L10 2L9 2L9 3L10 3ZM8 6L8 5L7 5L7 6L8 6ZM3 6L3 5L2 5L2 6L3 6ZM13 6L13 5L12 5L12 6L13 6ZM6 8L6 7L5 7L5 8L6 8ZM8 8L8 7L7 7L7 8L8 8ZM10 8L10 7L9 7L9 8L10 8ZM13 8L13 7L11 7L11 8L13 8ZM4 8L4 7L2 7L2 8L4 8ZM8 10L8 9L7 9L7 10L8 10ZM3 10L3 9L2 9L2 10L3 10ZM13 10L13 9L12 9L12 10L13 10ZM13 13L13 11L12 11L12 12L8 12L8 11L7 11L7 12L3 12L3 11L2 11L2 13L13 13Z" id="Shape" fill="#000000" fill-rule="evenodd" stroke="none" artboard="95fd88ce-4f5c-4264-82be-f450f34de251" />
  </g>
</svg>