<?xml version="1.0" encoding="utf-8"?>
<svg width="15px" height="15px" viewBox="0 0 15 15" version="1.1" xmlns:xlink="http://www.w3.org/1999/xlink" xmlns="http://www.w3.org/2000/svg">
  <defs>
    <rect width="15" height="15" id="artboard_1" />
    <clipPath id="clip_1">
      <use xlink:href="#artboard_1" clip-rule="evenodd" />
    </clipPath>
  </defs>
  <g id="icon--cell-border-top" clip-path="url(#clip_1)">
    <path d="M3 11L3 12L4 12L4 13L2 13L2 11L3 11ZM13 11L13 13L11 13L11 12L12 12L12 11L13 11ZM6 12L6 13L5 13L5 12L6 12ZM7 11L8 11L8 13L7 13L7 11ZM10 12L10 13L9 13L9 12L10 12ZM8 9L8 10L7 10L7 9L8 9ZM3 9L3 10L2 10L2 9L3 9ZM13 9L13 10L12 10L12 9L13 9ZM6 7L6 8L5 8L5 7L6 7ZM8 7L8 8L7 8L7 7L8 7ZM10 7L10 8L9 8L9 7L10 7ZM13 7L13 8L11 8L11 7L13 7ZM4 7L4 8L2 8L2 7L4 7ZM8 5L8 6L7 6L7 5L8 5ZM3 5L3 6L2 6L2 5L3 5ZM13 5L13 6L12 6L12 5L13 5ZM13 2L13 4L12 4L12 3L8 3L8 4L7 4L7 3L3 3L3 4L2 4L2 2L13 2Z" id="Shape" fill="#000000" fill-rule="evenodd" stroke="none" artboard="f144cdf7-8683-4008-ada7-6aae0096ad4a" />
  </g>
</svg>