<?xml version="1.0" encoding="utf-8"?>
<svg width="15px" height="15px" viewBox="0 0 15 15" version="1.1" xmlns:xlink="http://www.w3.org/1999/xlink" xmlns="http://www.w3.org/2000/svg">
  <defs>
    <rect width="15" height="15" id="artboard_1" />
    <clipPath id="clip_1">
      <use xlink:href="#artboard_1" clip-rule="evenodd" />
    </clipPath>
  </defs>
  <g id="icon--cell-border-inner-horizontal" clip-path="url(#clip_1)">
    <path d="M3 11L3 12L4 12L4 13L2 13L2 11L3 11ZM6 12L6 13L5 13L5 12L6 12ZM8 11L8 13L7 13L7 11L8 11ZM10 12L10 13L9 13L9 12L10 12ZM13 11L13 13L11 13L11 12L12 12L12 11L13 11ZM8 9L8 10L7 10L7 9L8 9ZM3 9L3 10L2 10L2 9L3 9ZM13 9L13 10L12 10L12 9L13 9ZM2 8L2 7L13 7L13 8L2 8ZM8 5L8 6L7 6L7 5L8 5ZM3 5L3 6L2 6L2 5L3 5ZM13 5L13 6L12 6L12 5L13 5ZM4 2L4 3L3 3L3 4L2 4L2 2L4 2ZM13 2L13 4L12 4L12 3L11 3L11 2L13 2ZM8 2L8 4L7 4L7 2L8 2ZM6 2L6 3L5 3L5 2L6 2ZM10 2L10 3L9 3L9 2L10 2Z" id="Shape" fill="#000000" fill-rule="evenodd" stroke="none" artboard="39771ac6-cfe3-44f2-9fd9-357e08a6870b" />
  </g>
</svg>