<?xml version="1.0" encoding="utf-8"?>
<svg width="15px" height="15px" viewBox="0 0 15 15" version="1.1" xmlns:xlink="http://www.w3.org/1999/xlink" xmlns="http://www.w3.org/2000/svg">
  <defs>
    <rect width="15" height="15" id="artboard_1" />
    <clipPath id="clip_1">
      <use xlink:href="#artboard_1" clip-rule="evenodd" />
    </clipPath>
  </defs>
  <g id="icon--cell-border-left" clip-path="url(#clip_1)">
    <path d="M11 12L12 12L12 11L13 11L13 13L11 13L11 12ZM11 2L13 2L13 4L12 4L12 3L11 3L11 2ZM12 9L13 9L13 10L12 10L12 9ZM11 8L11 7L13 7L13 8L11 8ZM12 5L13 5L13 6L12 6L12 5ZM9 7L10 7L10 8L9 8L9 7ZM9 12L10 12L10 13L9 13L9 12ZM9 2L10 2L10 3L9 3L9 2ZM7 9L8 9L8 10L7 10L7 9ZM7 7L8 7L8 8L7 8L7 7ZM7 5L8 5L8 6L7 6L7 5ZM7 2L8 2L8 4L7 4L7 2ZM7 11L8 11L8 13L7 13L7 11ZM5 7L6 7L6 8L5 8L5 7ZM5 12L6 12L6 13L5 13L5 12ZM5 2L6 2L6 3L5 3L5 2ZM2 2L4 2L4 3L3 3L3 7L4 7L4 8L3 8L3 12L4 12L4 13L2 13L2 2Z" id="Shape" fill="#000000" fill-rule="evenodd" stroke="none" artboard="b3576fb3-bd33-4bdd-bd57-fc21aa46f6b6" />
  </g>
</svg>