<?xml version="1.0" encoding="utf-8"?>
<svg width="15px" height="15px" viewBox="0 0 15 15" version="1.1" xmlns:xlink="http://www.w3.org/1999/xlink" xmlns="http://www.w3.org/2000/svg">
  <defs>
    <rect width="15" height="15" id="artboard_1" />
    <clipPath id="clip_1">
      <use xlink:href="#artboard_1" clip-rule="evenodd" />
    </clipPath>
  </defs>
  <g id="icon--cell-border-right" clip-path="url(#clip_1)">
    <path d="M4 3L3 3L3 4L2 4L2 2L4 2L4 3ZM4 13L2 13L2 11L3 11L3 12L4 12L4 13ZM3 6L2 6L2 5L3 5L3 6ZM4 7L4 8L2 8L2 7L4 7ZM3 10L2 10L2 9L3 9L3 10ZM6 8L5 8L5 7L6 7L6 8ZM6 3L5 3L5 2L6 2L6 3ZM6 13L5 13L5 12L6 12L6 13ZM8 6L7 6L7 5L8 5L8 6ZM8 8L7 8L7 7L8 7L8 8ZM8 10L7 10L7 9L8 9L8 10ZM8 13L7 13L7 11L8 11L8 13ZM8 4L7 4L7 2L8 2L8 4ZM10 8L9 8L9 7L10 7L10 8ZM10 3L9 3L9 2L10 2L10 3ZM10 13L9 13L9 12L10 12L10 13ZM13 13L11 13L11 12L12 12L12 8L11 8L11 7L12 7L12 3L11 3L11 2L13 2L13 13Z" id="Shape" fill="#000000" fill-rule="evenodd" stroke="none" artboard="33130b5d-ea49-4071-af94-240d4172e28e" />
  </g>
</svg>