<?xml version="1.0" encoding="utf-8"?>
<svg width="15px" height="15px" viewBox="0 0 15 15" version="1.1" xmlns:xlink="http://www.w3.org/1999/xlink" xmlns="http://www.w3.org/2000/svg">
  <defs>
    <rect width="15" height="15" id="artboard_1" />
    <clipPath id="clip_1">
      <use xlink:href="#artboard_1" clip-rule="evenodd" />
    </clipPath>
  </defs>
  <g id="icon--colorcard" clip-path="url(#clip_1)">
    <path d="M1 11.501L1 1L6 1L6 5.46447L8.48531 2.97916L9.19242 2.27205L9.89953 2.97916L12.0208 5.10047L12.728 5.80758L12.0208 6.51469L9.53556 8.99998L13 9L14 9L14 14L13 14L3.51591 14L3.501 14L3.499 14C2.80892 14 2.2199 13.756 1.73194 13.2681C1.24398 12.7801 1 12.1911 1 11.501L1 11.501ZM5 2L5 5L2 5L2 2L5 2L5 2ZM6 6.87866L6 11.1213L11.3137 5.8076L9.19238 3.68628L6 6.87866L6 6.87866ZM5 9L2 9L2 6L5 6L5 9L5 9ZM5.53552 13L12.9999 13L13 10L8.53551 10L5.53552 13L5.53552 13ZM2 10L2 11.501C2 12.5003 2.49967 13 3.499 13L3.501 13C4.50033 13 5 12.5003 5 11.501L5 10L2 10L2 10ZM3.499 11L3.501 11C3.63879 11 3.75641 11.0487 3.85385 11.1462C3.95128 11.2436 4 11.3612 4 11.499L4 11.501C4 11.6388 3.95128 11.7564 3.85385 11.8538C3.75641 11.9513 3.63879 12 3.501 12L3.499 12C3.3612 12 3.24359 11.9513 3.14615 11.8538C3.04872 11.7564 3 11.6388 3 11.501L3 11.499C3 11.3612 3.04872 11.2436 3.14615 11.1462C3.24359 11.0487 3.3612 11 3.499 11L3.499 11Z" id="Vector" fill="#000000" fill-rule="evenodd" stroke="none" artboard="edfd0892-383f-4d93-843b-7addd222efe4" />
  </g>
</svg>