<?xml version="1.0" encoding="utf-8"?>
<svg width="15px" height="15px" viewBox="0 0 15 15" version="1.1" xmlns:xlink="http://www.w3.org/1999/xlink" xmlns="http://www.w3.org/2000/svg">
  <defs>
    <rect width="15" height="15" id="artboard_1" />
    <clipPath id="clip_1">
      <use xlink:href="#artboard_1" clip-rule="evenodd" />
    </clipPath>
  </defs>
  <g id="icon--column-minus" clip-path="url(#clip_1)">
    <path d="M9.5 12C9.77614 12 10 12.2239 10 12.5C10 12.7761 9.77614 13 9.5 13L5.5 13C5.22386 13 5 12.7761 5 12.5C5 12.2239 5.22386 12 5.5 12L9.5 12ZM6 1L6 9L1 9L1 1L6 1ZM8 8L8 9L7 9L7 8L8 8ZM14 1L14 9L9 9L9 1L14 1ZM5 2L2 2L2 8L5 8L5 2ZM13 2L10 2L10 8L13 8L13 2ZM8 1L8 2L7 2L7 1L8 1Z" id="Shape" fill="#000000" stroke="none" artboard="e9a828b4-5083-495f-b55a-70f89a64fd05" />
  </g>
</svg>