<?xml version="1.0" encoding="utf-8"?>
<svg width="15px" height="15px" viewBox="0 0 15 15" version="1.1" xmlns:xlink="http://www.w3.org/1999/xlink" xmlns="http://www.w3.org/2000/svg">
  <defs>
    <rect width="15" height="15" id="artboard_1" />
    <clipPath id="clip_1">
      <use xlink:href="#artboard_1" clip-rule="evenodd" />
    </clipPath>
  </defs>
  <g id="icon--column-delete" clip-path="url(#clip_1)">
    <path d="M6 8.99999L1 8.99999L1 0.999991L6 0.999992L6 8.99999ZM5 7.99999L5 1.99999L2 1.99999L2 7.99999L5 7.99999ZM9.62357 11.0835L8.11002 12.4978L9.62357 13.912C9.81883 14.1072 9.81883 14.4238 9.62357 14.6191C9.42831 14.8143 9.11173 14.8143 8.91647 14.6191L7.50225 13.1L6.08804 14.6191C5.89278 14.8143 5.57619 14.8143 5.38093 14.6191C5.18567 14.4238 5.18567 14.1072 5.38093 13.912L6.90002 12.4978L5.38093 11.0835C5.18567 10.8883 5.18567 10.5717 5.38093 10.3764C5.57619 10.1812 5.89278 10.1812 6.08804 10.3764L7.50225 11.89L8.91647 10.3764C9.11173 10.1812 9.42831 10.1812 9.62357 10.3764C9.81883 10.5717 9.81883 10.8883 9.62357 11.0835ZM8 8.99999L7 8.99999L7 7.99999L8 7.99999L8 8.99999ZM8 1.99999L7 1.99999L7 0.999992L8 0.999992L8 1.99999ZM14 8.99999L9 8.99999L9 0.99999L14 0.99999L14 8.99999ZM13 7.99999L13 1.99999L10 1.99999L10 7.99999L13 7.99999Z" id="Shape" fill="#000000" stroke="none" artboard="95835b0b-731b-4c48-b262-46221155c12c" />
  </g>
</svg>