<?xml version="1.0" encoding="utf-8"?>
<svg width="15px" height="15px" viewBox="0 0 15 15" version="1.1" xmlns:xlink="http://www.w3.org/1999/xlink" xmlns="http://www.w3.org/2000/svg">
  <defs>
    <rect width="15" height="15" id="artboard_1" />
    <clipPath id="clip_1">
      <use xlink:href="#artboard_1" clip-rule="evenodd" />
    </clipPath>
  </defs>
  <g id="icon--distribute-vertical" clip-path="url(#clip_1)">
    <path d="M13 3.5C13 3.77614 12.7761 4 12.5 4L2.5 4C2.22386 4 2 3.77614 2 3.5C2 3.22386 2.22386 3 2.5 3L12.5 3C12.7761 3 13 3.22386 13 3.5ZM13 11.5C13 11.7761 12.7761 12 12.5 12L2.5 12C2.22386 12 2 11.7761 2 11.5C2 11.2239 2.22386 11 2.5 11L12.5 11C12.7761 11 13 11.2239 13 11.5ZM12 9.5C12 9.74546 11.8231 9.94961 11.5899 9.99194L11.5 10L3.5 10C3.25454 10 3.05039 9.82312 3.00806 9.58988L3 9.5L3 5.5C3 5.25454 3.17688 5.05039 3.41012 5.00806L3.5 5L11.5 5C11.7455 5 11.9496 5.17688 11.9919 5.41012L12 5.5L12 9.5ZM11 9L11 6L4 6L4 9L11 9Z" id="Shape" fill="#000000" fill-rule="evenodd" stroke="none" artboard="89966ae2-a1a4-4fdf-b9e6-e4c8fc12dda4" />
  </g>
</svg>