<?xml version="1.0" encoding="utf-8"?>
<svg width="15px" height="15px" viewBox="0 0 15 15" version="1.1" xmlns:xlink="http://www.w3.org/1999/xlink" xmlns="http://www.w3.org/2000/svg">
  <defs>
    <rect width="15" height="15" id="artboard_1" />
    <clipPath id="clip_1">
      <use xlink:href="#artboard_1" clip-rule="evenodd" />
    </clipPath>
  </defs>
  <g id="icon--eraser" clip-path="url(#clip_1)">
    <path d="M9.26701 1.48889L13.511 5.73289Q13.5458 5.76764 13.5731 5.80851Q13.6004 5.84938 13.6192 5.89479Q13.638 5.94021 13.6476 5.98842Q13.6572 6.03662 13.6572 6.08578Q13.6572 6.13493 13.6476 6.18314Q13.638 6.23134 13.6191 6.27675Q13.6003 6.32216 13.573 6.36303Q13.5457 6.40389 13.5109 6.43864L8.94899 10.999L11.5009 10.9999Q11.5501 10.9999 11.5983 11.0095Q11.6465 11.0191 11.6919 11.0379Q11.7373 11.0567 11.7782 11.084Q11.8191 11.1113 11.8538 11.1461Q11.8886 11.1809 11.9159 11.2217Q11.9432 11.2626 11.962 11.308Q11.9808 11.3534 11.9904 11.4016Q11.9999 11.4499 11.9999 11.499L11.9999 11.501Q11.9999 11.5502 11.9904 11.5984Q11.9808 11.6466 11.962 11.692Q11.9432 11.7374 11.9158 11.7782Q11.8885 11.8191 11.8538 11.8538Q11.819 11.8886 11.7782 11.9159Q11.7373 11.9432 11.6919 11.962Q11.6465 11.9808 11.5983 11.9904Q11.5501 12 11.5009 11.9999L4.42763 11.9991Q4.3284 11.9991 4.23671 11.9611Q4.14503 11.9231 4.07486 11.8529L1.48885 9.26707Q1.4541 9.23232 1.42679 9.19145Q1.39949 9.15059 1.38068 9.10518Q1.36187 9.05978 1.35228 9.01157Q1.34269 8.96337 1.34269 8.91422Q1.34269 8.86507 1.35228 8.81687Q1.36186 8.76866 1.38067 8.72326Q1.39948 8.67785 1.42678 8.63698Q1.45409 8.59612 1.48884 8.56137L8.56132 1.48889Q8.59607 1.45414 8.63693 1.42684Q8.6778 1.39953 8.7232 1.38072Q8.76861 1.36192 8.81681 1.35233Q8.86501 1.34274 8.91416 1.34274Q8.96331 1.34274 9.01151 1.35233Q9.05971 1.36192 9.10512 1.38072Q9.15053 1.39953 9.19139 1.42684Q9.23225 1.45414 9.26701 1.48889ZM8.91425 2.55023L4.67108 6.79302L7.08558 9.20716Q7.12033 9.2419 7.14763 9.28275Q7.17493 9.32361 7.19374 9.36901Q7.21255 9.4144 7.22214 9.4626Q7.23173 9.51079 7.23173 9.55993Q7.23173 9.60907 7.22214 9.65726Q7.21256 9.70546 7.19376 9.75086Q7.17495 9.79625 7.14765 9.83711Q7.12035 9.87797 7.08561 9.91271L7.08419 9.91413Q7.04945 9.94887 7.00859 9.97617Q6.96773 10.0035 6.92234 10.0223Q6.87694 10.0411 6.82874 10.0507Q6.78055 10.0602 6.73141 10.0602Q6.68227 10.0602 6.63408 10.0507Q6.58589 10.0411 6.54049 10.0223Q6.4951 10.0034 6.45424 9.97614Q6.41339 9.94884 6.37864 9.91409L3.96508 7.50002L2.55029 8.91419L4.63508 10.999L7.53508 10.999L12.4498 6.08577L8.91425 2.55023Z" id="Shape" fill="#000000" fill-rule="evenodd" stroke="none" artboard="03b1dd5f-8b6b-49c0-a89d-255025299074" />
  </g>
</svg>