<?xml version="1.0" encoding="utf-8"?>
<svg width="15px" height="15px" viewBox="0 0 15 15" version="1.1" xmlns:xlink="http://www.w3.org/1999/xlink" xmlns="http://www.w3.org/2000/svg">
  <defs>
    <rect width="15" height="15" id="artboard_1" />
    <clipPath id="clip_1">
      <use xlink:href="#artboard_1" clip-rule="evenodd" />
    </clipPath>
  </defs>
  <g id="icon--eyedropper-full" clip-path="url(#clip_1)">
    <path d="M8.97482 3.19669L11.8032 6.02512C11.9985 6.22038 11.9985 6.53697 11.8032 6.73223L11.0961 7.43933C10.9229 7.61321 10.6535 7.63253 10.4586 7.49754L10.3894 7.43898L10.0355 7.08437L6.1213 10.999L3.5744 12.8551C3.49976 12.9095 3.41443 12.9404 3.32775 12.9487L3.24096 12.9495C3.15441 12.9427 3.06962 12.9135 2.99591 12.8625L2.92624 12.8044L2.19393 12.0715C2.01989 11.8974 1.99855 11.6224 2.14363 11.4235L3.9993 8.87903L7.91416 4.96305L7.56131 4.61091C7.38757 4.43751 7.36802 4.16811 7.50282 3.97311L7.56096 3.90345L8.26771 3.19669C8.46297 3.00143 8.77955 3.00143 8.97482 3.19669ZM8.62131 5.67015L7.14966 7.14103L7.85666 7.84903L9.32842 6.37726L8.62131 5.67015ZM13.9246 1.07537C14.5104 1.66116 14.5104 2.61091 13.9246 3.19669L12.1568 4.96446L10.0355 2.84314L11.8033 1.07537C12.3891 0.489585 13.3388 0.489585 13.9246 1.07537Z" id="Shape" fill="#000000" fill-rule="evenodd" stroke="none" artboard="8a9eed45-5363-4aa0-89e0-f1d705a43be5" />
  </g>
</svg>