<?xml version="1.0" encoding="utf-8"?>
<svg width="15px" height="15px" viewBox="0 0 15 15" version="1.1" xmlns:xlink="http://www.w3.org/1999/xlink" xmlns="http://www.w3.org/2000/svg">
  <defs>
    <rect width="15" height="15" id="artboard_1" />
    <clipPath id="clip_1">
      <use xlink:href="#artboard_1" clip-rule="evenodd" />
    </clipPath>
  </defs>
  <g id="icon--eyedropper" clip-path="url(#clip_1)">
    <path d="M2.92624 12.8044L2.19393 12.0715C2.01989 11.8974 1.99855 11.6224 2.14363 11.4235L3.9993 8.87903L7.91416 4.96305L7.56131 4.61091C7.38757 4.43751 7.36802 4.16811 7.50282 3.97311L7.56096 3.90345L7.56096 3.90345L8.26771 3.19669C8.46297 3.00143 8.77955 3.00143 8.97482 3.19669L11.8032 6.02512C11.9985 6.22038 11.9985 6.53697 11.8032 6.73223L11.0961 7.43933C10.9229 7.61321 10.6535 7.63253 10.4586 7.49754L10.3894 7.43898L10.3894 7.43898L10.0355 7.08437L6.1213 10.999L3.5744 12.8551C3.37535 13.0001 3.10033 12.9786 2.92624 12.8044ZM8.6213 5.67015L4.69998 9.58999L3.09167 11.556L3.44167 11.906L5.40998 10.3L9.3284 6.37726L8.6213 5.67015ZM13.9246 1.07537C14.5104 1.66116 14.5104 2.61091 13.9246 3.19669L12.1568 4.96446L10.0355 2.84314L11.8033 1.07537C12.3891 0.489585 13.3388 0.489585 13.9246 1.07537Z" id="Shape" fill="#000000" fill-rule="evenodd" stroke="none" artboard="aeafc1cc-d4c6-4964-a698-6b56d071881a" />
  </g>
</svg>