<?xml version="1.0" encoding="utf-8"?>
<svg width="15px" height="15px" viewBox="0 0 15 15" version="1.1" xmlns:xlink="http://www.w3.org/1999/xlink" xmlns="http://www.w3.org/2000/svg">
  <defs>
    <rect width="15" height="15" id="artboard_1" />
    <clipPath id="clip_1">
      <use xlink:href="#artboard_1" clip-rule="evenodd" />
    </clipPath>
  </defs>
  <g id="icon--eyedropper-off" clip-path="url(#clip_1)">
    <path d="M3.9535 3.24644L11.7317 11.0246C11.9269 11.2199 11.9269 11.5365 11.7317 11.7317C11.5364 11.927 11.2198 11.927 11.0246 11.7317L8.20561 8.91303L6.1213 10.999L3.5744 12.8551C3.37535 13.0001 3.10033 12.9786 2.92624 12.8044L2.19393 12.0715C2.01989 11.8974 1.99855 11.6224 2.14363 11.4235L3.9993 8.87903L6.08461 6.79203L3.24639 3.95354C3.05113 3.75828 3.05113 3.4417 3.24639 3.24644C3.44165 3.05118 3.75823 3.05118 3.9535 3.24644ZM6.79164 7.49904L4.69998 9.59L3.09167 11.556L3.44167 11.906L5.40998 10.3L7.49964 8.20704L6.79164 7.49904ZM8.97486 3.19669L11.8033 6.02512C11.9985 6.22038 11.9985 6.53697 11.8033 6.73223L11.0962 7.43933C10.9229 7.61321 10.6535 7.63253 10.4587 7.49754L10.3894 7.43898L10.0355 7.08437L9.61265 7.50603L8.90565 6.79903L9.32841 6.37726L8.6213 5.67015L8.19865 6.09203L7.49165 5.38503L7.9142 4.96305L7.56135 4.61091C7.38761 4.43751 7.36806 4.16811 7.50286 3.97311L7.561 3.90345L8.26775 3.19669C8.46301 3.00143 8.77959 3.00143 8.97486 3.19669ZM13.9246 1.07537C14.5104 1.66116 14.5104 2.61091 13.9246 3.19669L12.1568 4.96446L10.0355 2.84314L11.8033 1.07537C12.3891 0.489585 13.3388 0.489585 13.9246 1.07537Z" id="Shape" fill="#000000" fill-rule="evenodd" stroke="none" artboard="ace986a7-f9c7-4332-97d1-1307bdb724e7" />
  </g>
</svg>