<?xml version="1.0" encoding="utf-8"?>
<svg width="15px" height="15px" viewBox="0 0 15 15" version="1.1" xmlns:xlink="http://www.w3.org/1999/xlink" xmlns="http://www.w3.org/2000/svg">
  <defs>
    <rect width="15" height="15" id="artboard_1" />
    <clipPath id="clip_1">
      <use xlink:href="#artboard_1" clip-rule="evenodd" />
    </clipPath>
  </defs>
  <g id="icon--flip-vertical" clip-path="url(#clip_1)">
    <path d="M1 7.50765C1 7.78379 1.26456 8.00765 1.59091 8.00765L11 8.007L11 9.00765L12 9.0072L12 8.007L13.4091 8.00765C13.7354 8.00765 14 7.78379 14 7.50765C14 7.2315 13.7354 7.00765 13.4091 7.00765L12 7.007L12 2.38C12 2.10385 11.7761 1.88 11.5 1.88L11.4616 1.88148L3.42334 3.12708C3.17971 3.16488 3 3.37462 3 3.62117L3 7.007L1.59091 7.00765C1.26456 7.00765 1 7.2315 1 7.50765ZM11 13.1462L11.4233 13.2129L11.5 13.2189C11.7455 13.2189 11.9496 13.042 11.9919 12.8087L12 12.7189L12 12.0072L11 12.0076L11 13.1462ZM11 11.0072L12 11.0072L12 10.0072L11 10.0076L11 11.0072ZM4 7.00765L4 4.04865L11 2.96265L11 7.00765L4 7.00765ZM9 12.8362L10 12.9912L10 11.9812L9 11.8262L9 12.8362ZM7 12.5262L8 12.6812L8 11.6712L7 11.5152L7 12.5262ZM5 12.2162L6 12.3712L6 11.3602L5 11.2052L5 12.2162ZM3 11.4777C3 11.6934 3.13759 11.881 3.3352 11.9498L3.42334 11.9718L4 12.0612L4 11.0076L3 11.0072L3 11.4777ZM3 10.0072L4 10.0072L4 9.0072L3 9.0072L3 10.0072Z" id="Shape" fill="#000000" fill-rule="evenodd" stroke="none" artboard="b8f5b1cd-1f59-4f85-bb42-786ec8512dab" />
  </g>
</svg>