<?xml version="1.0" encoding="utf-8"?>
<svg width="15px" height="15px" viewBox="0 0 15 15" version="1.1" xmlns:xlink="http://www.w3.org/1999/xlink" xmlns="http://www.w3.org/2000/svg">
  <defs>
    <rect width="15" height="15" id="artboard_1" />
    <clipPath id="clip_1">
      <use xlink:href="#artboard_1" clip-rule="evenodd" />
    </clipPath>
  </defs>
  <g id="icon--flip-horizontal" clip-path="url(#clip_1)">
    <path d="M7.49996 1C7.77611 1 7.99996 1.26456 7.99996 1.59091L7.99931 11L8.99996 11L8.99952 12L7.99931 12L7.99996 13.4091C7.99996 13.7354 7.77611 14 7.49996 14C7.22382 14 6.99996 13.7354 6.99996 13.4091L6.99931 12L2.37231 12C2.09617 12 1.87231 11.7761 1.87231 11.5L1.87379 11.4616L3.1194 3.42334C3.15719 3.17971 3.36694 3 3.61349 3L6.99931 3L6.99996 1.59091C6.99996 1.26456 7.22382 1 7.49996 1ZM13.1385 11L13.2053 11.4233L13.2112 11.5C13.2112 11.7455 13.0343 11.9496 12.801 11.9919L12.7112 12L11.9995 12L12 11L13.1385 11ZM10.9995 11L10.9995 12L9.99951 12L9.99996 11L10.9995 11ZM6.99996 4L4.04096 4L2.95496 11L6.99996 11L6.99996 4ZM12.8285 9L12.9835 10L11.9735 10L11.8185 9L12.8285 9ZM12.5186 7L12.6736 8L11.6636 8L11.5076 7L12.5186 7ZM12.2085 5L12.3635 6L11.3525 6L11.1975 5L12.2085 5ZM11.47 3C11.6857 3 11.8733 3.13759 11.9421 3.3352L11.9641 3.42334L12.0535 4L11 4L10.9995 3L11.47 3ZM9.99951 3L9.99951 4L8.99951 4L8.99951 3L9.99951 3Z" id="Shape" fill="#000000" fill-rule="evenodd" stroke="none" artboard="ec7b7989-3119-40c2-be48-71c00e670eff" />
  </g>
</svg>