<?xml version="1.0" encoding="utf-8"?>
<svg width="15px" height="15px" viewBox="0 0 15 15" version="1.1" xmlns:xlink="http://www.w3.org/1999/xlink" xmlns="http://www.w3.org/2000/svg">
  <defs>
    <rect width="15" height="15" id="artboard_1" />
    <clipPath id="clip_1">
      <use xlink:href="#artboard_1" clip-rule="evenodd" />
    </clipPath>
  </defs>
  <g id="icon-H2" clip-path="url(#clip_1)">
    <use xlink:href="#artboard_1" stroke="none" fill="#FFFFFF" />
    <path d="M9.38693 4.7366C9.66987 4.44012 9.87197 4.30537 10.0338 4.19756C10.4111 3.94153 10.694 3.87415 11.0444 3.87415C11.4083 3.87415 11.7586 3.94153 11.9877 4.17061C12.2168 4.3997 12.2976 4.66922 12.2976 5.01958C12.2976 5.343 12.1359 5.81465 11.8664 6.17849C11.3004 6.96008 10.3302 8.09205 9.26556 9.48005C8.83434 10.046 8.64575 10.7333 8.64575 11.4744C8.64575 11.6631 8.64575 11.8248 8.67266 12L13.3083 12L13.3083 10.9624L9.87197 10.9624C9.88548 10.6929 9.97983 10.3964 10.1954 10.1134C11.004 9.03534 12.1494 7.67429 12.7963 6.7849C13.3219 6.05721 13.4565 5.57209 13.4565 5.00611C13.4565 4.42666 13.2544 3.83372 12.8232 3.41598C12.392 3.02518 11.6912 2.85 11.0444 2.85C10.4246 2.85 9.77774 2.99823 9.25216 3.42945C9.04995 3.60463 8.83434 3.79329 8.67266 3.96848L9.38693 4.7366ZM7.29817 2.97128L6.13928 2.97128L6.13928 6.731L2.95894 6.731L2.95894 2.97128L1.80005 2.97128L1.80005 12L2.95894 12L2.95894 7.75515L6.13928 7.75515L6.13928 12L7.29817 12L7.29817 2.97128Z" id="Path-2-Union" fill="#000000" fill-rule="evenodd" stroke="none" artboard="2c123a5a-5a66-4c07-858d-dfae0c633593" />
  </g>
</svg>