<?xml version="1.0" encoding="utf-8"?>
<svg width="15px" height="15px" viewBox="0 0 15 15" version="1.1" xmlns:xlink="http://www.w3.org/1999/xlink" xmlns="http://www.w3.org/2000/svg">
  <defs>
    <rect width="15" height="15" id="artboard_1" />
    <clipPath id="clip_1">
      <use xlink:href="#artboard_1" clip-rule="evenodd" />
    </clipPath>
  </defs>
  <g id="icon-H3" clip-path="url(#clip_1)">
    <use xlink:href="#artboard_1" stroke="none" fill="#FFFFFF" />
    <path d="M7.29817 2.85L6.13928 2.85L6.13928 6.60972L2.95894 6.60972L2.95894 2.85L1.80005 2.85L1.80005 11.8787L2.95894 11.8787L2.95894 7.63387L6.13928 7.63387L6.13928 11.8787L7.29817 11.8787L7.29817 2.85ZM13.6587 2.85L8.65915 2.85L8.65915 3.87415L11.7451 3.87415L9.89899 6.93313L10.1954 7.24307C10.4515 7.20265 10.7479 7.18917 10.9366 7.18917C11.4083 7.18917 11.853 7.29698 12.1628 7.6204C12.4998 7.97077 12.5536 8.57717 12.5536 9.08924C12.5536 9.60133 12.4998 10.2077 12.1628 10.5581C11.8125 10.9219 11.2735 10.9758 10.7749 10.9758C10.3706 10.9758 9.44075 10.8276 8.76701 10.5581L8.64575 11.5418C9.29258 11.8383 10.1415 12 10.7749 12C11.4891 12 12.4324 11.8652 13.0119 11.2858C13.5913 10.7198 13.7125 9.81694 13.7125 9.08924C13.7125 8.36156 13.5913 7.44521 13.0119 6.89271C12.6345 6.51539 12.109 6.34021 11.5969 6.24588L13.6587 2.85Z" id="Path-6-Union" fill="#000000" fill-rule="evenodd" stroke="none" artboard="a371efd7-12f6-41b8-8309-f0cee6694ba9" />
  </g>
</svg>