<?xml version="1.0" encoding="utf-8"?>
<svg width="15px" height="15px" viewBox="0 0 15 15" version="1.1" xmlns:xlink="http://www.w3.org/1999/xlink" xmlns="http://www.w3.org/2000/svg">
  <defs>
    <rect width="15" height="15" id="artboard_1" />
    <clipPath id="clip_1">
      <use xlink:href="#artboard_1" clip-rule="evenodd" />
    </clipPath>
  </defs>
  <g id="icon--H5" clip-path="url(#clip_1)">
    <use xlink:href="#artboard_1" stroke="none" fill="#FFFFFF" />
    <path d="M6.13928 2.62L7.29817 2.62L7.29817 11.6487L6.13928 11.6487L6.13928 7.40386L2.95894 7.40386L2.95894 11.6487L1.80005 11.6487L1.80005 2.62L2.95894 2.62L2.95894 6.37971L6.13928 6.37971L6.13928 2.62L6.13928 2.62ZM13.2679 3.64414L10.3571 3.64414L10.2359 6.0024C10.4784 5.97545 10.694 5.96197 10.9096 5.96197C11.6239 5.96197 12.5672 6.09673 13.1467 6.6627C13.726 7.2152 13.8473 8.13156 13.8473 8.85924C13.8473 9.58693 13.726 10.4898 13.1467 11.0558C12.5672 11.6352 11.6239 11.77 10.9096 11.77C10.2763 11.77 9.42735 11.6083 8.78052 11.3118L8.90178 10.3416C9.49468 10.5707 10.411 10.7458 10.9096 10.7458C11.4083 10.7458 11.9472 10.6919 12.2976 10.3281C12.6345 9.97773 12.6884 9.37132 12.6884 8.85924C12.6884 8.34717 12.6345 7.74076 12.2976 7.3904C11.9472 7.02655 11.4083 6.95917 10.9096 6.95917C10.6671 6.95917 10.3841 6.98612 10.0742 7.01307C9.84506 7.04002 9.57551 7.09392 9.34651 7.14783L9.06345 6.86484L9.22513 2.62L13.2679 2.62L13.2679 3.64414L13.2679 3.64414Z" id="Vector" fill="#000000" fill-rule="evenodd" stroke="none" artboard="9eb381b2-2de6-47dc-b1e6-f6bfb52ad4f3" />
  </g>
</svg>