<?xml version="1.0" encoding="utf-8"?>
<svg width="15px" height="15px" viewBox="0 0 15 15" version="1.1" xmlns:xlink="http://www.w3.org/1999/xlink" xmlns="http://www.w3.org/2000/svg">
  <defs>
    <rect width="15" height="15" id="artboard_1" />
    <clipPath id="clip_1">
      <use xlink:href="#artboard_1" clip-rule="evenodd" />
    </clipPath>
  </defs>
  <g id="icon--highlighter" clip-path="url(#clip_1)">
    <path d="M12.4161 1.60244L13.8975 3.08384C14.0792 3.26548 14.0936 3.5552 13.9309 3.75401L7.85352 11.182C6.9485 11.1815 6.08042 11.5409 5.44047 12.1808L5.0251 12.5962L4.67083 12.242L3.94883 12.9643L1.75183 12.3343L3.25683 10.828L2.90378 10.4749L3.31915 10.0595C3.9591 9.41955 4.31843 8.55147 4.31799 7.64644L11.746 1.56902C11.9448 1.40635 12.2345 1.4208 12.4161 1.60244ZM5.22344 8.55118L5.2157 8.59245C5.06946 9.25949 4.76969 9.88597 4.33769 10.4204L4.30383 10.4593L5.03993 11.1954L5.07954 11.1623C5.62448 10.7218 6.26511 10.4188 6.94686 10.2758L5.22344 8.55118ZM12.0291 2.62952L5.80652 7.72069L7.77864 9.69281L12.8698 3.47027L12.0291 2.62952Z" id="Shape" fill="#000000" fill-rule="evenodd" stroke="none" artboard="a10eed3a-bba8-4570-b997-2ede301e6303" />
  </g>
</svg>