<?xml version="1.0" encoding="utf-8"?>
<svg width="15px" height="15px" viewBox="0 0 15 15" version="1.1" xmlns:xlink="http://www.w3.org/1999/xlink" xmlns="http://www.w3.org/2000/svg">
  <defs>
    <rect width="15" height="15" id="artboard_1" />
    <clipPath id="clip_1">
      <use xlink:href="#artboard_1" clip-rule="evenodd" />
    </clipPath>
  </defs>
  <g id="icon--lasso" clip-path="url(#clip_1)">
    <path d="M1.11033 3.85515C1.53185 1.6866 4.5105 0.441212 7.76333 1.0735C11.0162 1.70578 13.3114 3.97631 12.8899 6.14486C12.6783 7.23342 11.8223 8.08937 10.6108 8.59196C10.8526 8.85828 11 9.21193 11 9.60001C11 10.2159 10.6289 10.745 10.098 10.976C10.0541 12.5791 9.28241 13.6755 7.78297 14.2653C7.72126 14.2896 7.65727 14.3011 7.59097 14.2999C7.52468 14.2987 7.46114 14.2849 7.40035 14.2584C7.33955 14.232 7.28614 14.1949 7.24011 14.1472C7.19407 14.0994 7.15892 14.0447 7.13465 13.983C7.08411 13.8545 7.0864 13.727 7.14152 13.6004C7.19664 13.4738 7.28844 13.3853 7.41693 13.3347C7.72275 13.2144 7.98689 13.0648 8.20935 12.8859C8.58435 12.5843 8.84093 12.1994 8.9791 11.7313C9.04164 11.5194 9.07992 11.2904 9.09395 11.0444C8.4628 10.8673 8 10.2877 8 9.60001C8 9.42069 8.03146 9.24873 8.08917 9.08933C7.49337 9.10157 6.87031 9.04965 6.23686 8.92652C2.98403 8.29423 0.688806 6.0237 1.11033 3.85515L1.11033 3.85515ZM2.09193 4.04597C1.94924 4.78001 2.25159 5.51669 2.99895 6.25602C3.85647 7.10431 4.99936 7.66726 6.42764 7.94489C7.85591 8.22252 9.12647 8.12869 10.2393 7.6634C11.2092 7.25788 11.7655 6.6881 11.9082 5.95406C12.0509 5.22001 11.7485 4.48333 11.0012 3.74401C10.1437 2.89572 9.00076 2.33276 7.57249 2.05513C6.14422 1.7775 4.87366 1.87133 3.76081 2.33662C2.7909 2.74214 2.23461 3.31193 2.09193 4.04597L2.09193 4.04597ZM9.05394 9.01075C8.88468 9.12254 8.80005 9.31896 8.80005 9.6C8.80005 10.0667 9.03338 10.3 9.50005 10.3C9.96671 10.3 10.2 10.0667 10.2 9.6C10.2 9.4067 10.1317 9.24171 9.99502 9.10503C9.8849 8.99491 9.75641 8.92915 9.60954 8.90775C9.42897 8.9488 9.24355 8.98322 9.05394 9.01075L9.05394 9.01075Z" id="Vector" fill="#000000" fill-rule="evenodd" stroke="none" artboard="3dab4094-3a84-41fd-be96-f191f5e9e970" />
  </g>
</svg>