<?xml version="1.0" encoding="utf-8"?>
<svg width="15px" height="15px" viewBox="0 0 15 15" version="1.1" xmlns:xlink="http://www.w3.org/1999/xlink" xmlns="http://www.w3.org/2000/svg">
  <defs>
    <rect width="15" height="15" id="artboard_1" />
    <clipPath id="clip_1">
      <use xlink:href="#artboard_1" clip-rule="evenodd" />
    </clipPath>
  </defs>
  <g id="icon--letter-height" clip-path="url(#clip_1)">
    <path d="M12.6 12C12.8762 12 13.1 12.2239 13.1 12.5C13.1 12.7761 12.8762 13 12.6 13L10.4 13C10.1239 13 9.90002 12.7761 9.90002 12.5C9.90002 12.2239 10.1239 12 10.4 12L12.6 12ZM7.15003 4L7.14903 4.01L9.28603 11L8.24003 11L7.62903 9L5.35803 9L4.74703 11L3.70203 11L5.84137 4L7.15003 4ZM12 10L12 11L11 11L11 10L12 10ZM12 8L12 9L11 9L11 8L12 8ZM6.49406 5.285L5.66406 8L7.32406 8L6.49406 5.285ZM12 6L12 7L11 7L11 6L12 6ZM12 4L12 5L11 5L11 4L12 4ZM12.6 2C12.8762 2 13.1 2.22386 13.1 2.5C13.1 2.77614 12.8762 3 12.6 3L10.4 3C10.1239 3 9.90002 2.77614 9.90002 2.5C9.90002 2.22386 10.1239 2 10.4 2L12.6 2Z" id="Shape" fill="#000000" fill-rule="evenodd" stroke="none" artboard="d435931b-7474-4f81-9da3-0bfbda08cc2b" />
  </g>
</svg>