<?xml version="1.0" encoding="utf-8"?>
<svg width="15px" height="15px" viewBox="0 0 15 15" version="1.1" xmlns:xlink="http://www.w3.org/1999/xlink" xmlns="http://www.w3.org/2000/svg">
  <defs>
    <rect width="15" height="15" id="artboard_1" />
    <clipPath id="clip_1">
      <use xlink:href="#artboard_1" clip-rule="evenodd" />
    </clipPath>
  </defs>
  <g id="icon--letter-weight" clip-path="url(#clip_1)">
    <path d="M8.14903 2.01L8.15003 2L6.84137 2L4.70203 9L5.74703 9L6.35803 7L8.62903 7L9.24003 9L10.286 9L8.14903 2.01ZM6.66403 6L7.49403 3.285L8.32403 6L6.66403 6ZM2.501 9.89999L2.499 9.89999Q2.44985 9.89999 2.40165 9.90958Q2.35345 9.91917 2.30804 9.93798Q2.26263 9.95679 2.22177 9.98409Q2.18091 10.0114 2.14615 10.0461Q2.1114 10.0809 2.0841 10.1218Q2.05679 10.1626 2.03798 10.208Q2.01918 10.2534 2.00959 10.3016Q2 10.3498 2 10.399L2 12.601Q2 12.6501 2.00959 12.6983Q2.01918 12.7465 2.03798 12.792Q2.05679 12.8374 2.0841 12.8782Q2.1114 12.9191 2.14615 12.9538Q2.18091 12.9886 2.22177 13.0159Q2.26263 13.0432 2.30804 13.062Q2.35345 13.0808 2.40165 13.0904Q2.44985 13.1 2.499 13.1L2.501 13.1Q2.55015 13.1 2.59835 13.0904Q2.64655 13.0808 2.69196 13.062Q2.73736 13.0432 2.77823 13.0159Q2.81909 12.9886 2.85385 12.9538Q2.8886 12.9191 2.9159 12.8782Q2.94321 12.8374 2.96202 12.792Q2.98082 12.7465 2.99041 12.6983Q3 12.6501 3 12.601L3 10.399Q3 10.3498 2.99041 10.3016Q2.98082 10.2534 2.96202 10.208Q2.94321 10.1626 2.9159 10.1218Q2.8886 10.0809 2.85385 10.0461Q2.81909 10.0114 2.77823 9.98409Q2.73736 9.95679 2.69196 9.93798Q2.64655 9.91917 2.59835 9.90958Q2.55015 9.89999 2.501 9.89999ZM12.501 9.89999L12.499 9.89999Q12.4499 9.89999 12.4016 9.90958Q12.3534 9.91917 12.308 9.93798Q12.2626 9.95679 12.2218 9.98409Q12.1809 10.0114 12.1462 10.0461Q12.1114 10.0809 12.0841 10.1218Q12.0568 10.1626 12.038 10.208Q12.0192 10.2534 12.0096 10.3016Q12 10.3498 12 10.399L12 12.601Q12 12.6501 12.0096 12.6983Q12.0192 12.7465 12.038 12.792Q12.0568 12.8374 12.0841 12.8782Q12.1114 12.9191 12.1462 12.9538Q12.1809 12.9886 12.2218 13.0159Q12.2626 13.0432 12.308 13.062Q12.3534 13.0808 12.4016 13.0904Q12.4499 13.1 12.499 13.1L12.501 13.1Q12.5501 13.1 12.5983 13.0904Q12.6466 13.0808 12.692 13.062Q12.7374 13.0432 12.7782 13.0159Q12.8191 12.9886 12.8538 12.9538Q12.8886 12.9191 12.9159 12.8782Q12.9432 12.8374 12.962 12.792Q12.9808 12.7465 12.9904 12.6983Q13 12.6501 13 12.601L13 10.399Q13 10.3498 12.9904 10.3016Q12.9808 10.2534 12.962 10.208Q12.9432 10.1626 12.9159 10.1218Q12.8886 10.0809 12.8538 10.0461Q12.8191 10.0114 12.7782 9.98409Q12.7374 9.95679 12.692 9.93798Q12.6466 9.91917 12.5983 9.90958Q12.5501 9.89999 12.501 9.89999ZM4 11L4 12L5 12L5 11L4 11ZM6 11L6 12L7 12L7 11L6 11ZM8 11L8 12L9 12L9 11L8 11ZM10 11L10 12L11 12L11 11L10 11Z" id="Combined-Shape" fill="#000000" fill-rule="evenodd" stroke="none" artboard="85fa76d6-0dc0-4a27-a581-21a3c2db8cdd" />
  </g>
</svg>