<?xml version="1.0" encoding="utf-8"?>
<svg width="15px" height="15px" viewBox="0 0 15 15" version="1.1" xmlns:xlink="http://www.w3.org/1999/xlink" xmlns="http://www.w3.org/2000/svg">
  <defs>
    <rect width="15" height="15" id="artboard_1" />
    <clipPath id="clip_1">
      <use xlink:href="#artboard_1" clip-rule="evenodd" />
    </clipPath>
  </defs>
  <g id="icon--line-hr" clip-path="url(#clip_1)">
    <use xlink:href="#artboard_1" stroke="none" fill="#FFFFFF" />
    <path d="M13.2 7.499L13.2 7.501Q13.2 7.56985 13.1866 7.63737Q13.1732 7.70489 13.1468 7.7685Q13.1205 7.8321 13.0822 7.88935Q13.044 7.94659 12.9953 7.99527Q12.9466 8.04395 12.8894 8.0822Q12.8321 8.12045 12.7685 8.14679Q12.7049 8.17314 12.6374 8.18657Q12.5699 8.2 12.501 8.2L2.49905 8.2Q2.4302 8.2 2.36268 8.18657Q2.29516 8.17314 2.23155 8.14679Q2.16795 8.12045 2.1107 8.0822Q2.05346 8.04395 2.00478 7.99527Q1.9561 7.94659 1.91785 7.88935Q1.8796 7.8321 1.85326 7.7685Q1.82691 7.70489 1.81348 7.63737Q1.80005 7.56985 1.80005 7.501L1.80005 7.499Q1.80005 7.43016 1.81348 7.36263Q1.82691 7.29511 1.85326 7.23151Q1.8796 7.1679 1.91785 7.11066Q1.9561 7.05342 2.00478 7.00473Q2.05346 6.95605 2.11071 6.9178Q2.16795 6.87956 2.23155 6.85321Q2.29516 6.82687 2.36268 6.81343Q2.4302 6.8 2.49905 6.8L12.501 6.8Q12.5699 6.8 12.6374 6.81343Q12.7049 6.82687 12.7685 6.85321Q12.8321 6.87956 12.8894 6.9178Q12.9466 6.95605 12.9953 7.00473Q13.044 7.05342 13.0822 7.11066Q13.1205 7.1679 13.1468 7.23151Q13.1732 7.29511 13.1866 7.36263Q13.2 7.43016 13.2 7.499Z" id="Shape" fill="#000000" fill-rule="evenodd" stroke="none" artboard="bdf74727-045c-43a0-9177-e2a6567700ae" />
  </g>
</svg>