<?xml version="1.0" encoding="utf-8"?>
<svg width="15px" height="15px" viewBox="0 0 15 15" version="1.1" xmlns:xlink="http://www.w3.org/1999/xlink" xmlns="http://www.w3.org/2000/svg">
  <defs>
    <rect width="15" height="15" id="artboard_1" />
    <clipPath id="clip_1">
      <use xlink:href="#artboard_1" clip-rule="evenodd" />
    </clipPath>
  </defs>
  <g id="icon--list-bullet" clip-path="url(#clip_1)">
    <path d="M12.5 7C12.7761 7 13 7.22386 13 7.5C13 7.77614 12.7761 8 12.5 8L4.5 8C4.22386 8 4 7.77614 4 7.5C4 7.22386 4.22386 7 4.5 7L12.5 7ZM12.5 10C12.7761 10 13 10.2239 13 10.5C13 10.7761 12.7761 11 12.5 11L4.5 11C4.22386 11 4 10.7761 4 10.5C4 10.2239 4.22386 10 4.5 10L12.5 10ZM12.5 4C12.7761 4 13 4.22386 13 4.5C13 4.77614 12.7761 5 12.5 5L4.5 5C4.22386 5 4 4.77614 4 4.5C4 4.22386 4.22386 4 4.5 4L12.5 4ZM2.50002 6.89999C2.8314 6.89999 3.10002 7.16862 3.10002 7.49999C3.10002 7.83136 2.8314 8.09999 2.50002 8.09999C2.16865 8.09999 1.90002 7.83136 1.90002 7.49999C1.90002 7.16862 2.16865 6.89999 2.50002 6.89999ZM2.50002 9.89999C2.8314 9.89999 3.10002 10.1686 3.10002 10.5C3.10002 10.8314 2.8314 11.1 2.50002 11.1C2.16865 11.1 1.90002 10.8314 1.90002 10.5C1.90002 10.1686 2.16865 9.89999 2.50002 9.89999ZM2.50002 3.89999C2.8314 3.89999 3.10002 4.16862 3.10002 4.49999C3.10002 4.83136 2.8314 5.09999 2.50002 5.09999C2.16865 5.09999 1.90002 4.83136 1.90002 4.49999C1.90002 4.16862 2.16865 3.89999 2.50002 3.89999Z" id="Shape" fill="#000000" fill-rule="evenodd" stroke="none" artboard="862878be-14a3-487a-a6c4-afad11359316" />
  </g>
</svg>