<?xml version="1.0" encoding="utf-8"?>
<svg width="15px" height="15px" viewBox="0 0 15 15" version="1.1" xmlns:xlink="http://www.w3.org/1999/xlink" xmlns="http://www.w3.org/2000/svg">
  <defs>
    <rect width="15" height="15" id="artboard_1" />
    <clipPath id="clip_1">
      <use xlink:href="#artboard_1" clip-rule="evenodd" />
    </clipPath>
  </defs>
  <g id="icon--pen-OFF" clip-path="url(#clip_1)">
    <path d="M3.95351 4.24645L11.7317 12.0246C11.927 12.2199 11.927 12.5365 11.7317 12.7317C11.5364 12.927 11.2198 12.927 11.0246 12.7317L8.22396 9.93101L5.77384 12.3829L2.60493 13.3429C2.34065 13.423 2.0615 13.2737 1.98144 13.0094C1.95296 12.9154 1.9528 12.8151 1.98098 12.721L2.92384 9.5729L5.39496 7.10201L3.24641 4.95356C3.05115 4.7583 3.05115 4.44171 3.24641 4.24645C3.44167 4.05119 3.75825 4.05119 3.95351 4.24645ZM6.10202 7.80902L3.80802 10.1019L3.39502 11.4769L3.84002 11.9219L5.24302 11.4979L7.51602 9.22302L6.10202 7.80902ZM12.2148 1.70001L13.629 3.11423L12.9221 3.82015L13.2758 4.17453C13.4704 4.3702 13.4702 4.68651 13.2754 4.88199L12.9219 5.23555L13.9825 6.29621C14.1561 6.46973 14.1754 6.73915 14.0404 6.93402L13.9825 7.00327L13.9825 7.00327L11.046 9.93901L10.339 9.23201L12.9219 6.64976L12.2148 5.94265L9.631 8.52401L8.923 7.81601L11.507 5.23491L10.093 3.82091L7.509 6.40201L6.802 5.69501L10.4474 2.0529C10.6425 1.85792 10.9587 1.85783 11.154 2.0527L11.5079 2.40593L12.2148 1.70001Z" id="Shape" fill="#000000" fill-rule="evenodd" stroke="none" artboard="68429a40-755d-46a0-ad7b-68b39e79f945" />
  </g>
</svg>