<?xml version="1.0" encoding="utf-8"?>
<svg width="15px" height="15px" viewBox="0 0 15 15" version="1.1" xmlns:xlink="http://www.w3.org/1999/xlink" xmlns="http://www.w3.org/2000/svg">
  <defs>
    <rect width="15" height="15" id="artboard_1" />
    <clipPath id="clip_1">
      <use xlink:href="#artboard_1" clip-rule="evenodd" />
    </clipPath>
  </defs>
  <g id="icon--pen" clip-path="url(#clip_1)">
    <path d="M5.77384 12.3829L2.60493 13.3429C2.34065 13.423 2.0615 13.2737 1.98144 13.0094C1.95296 12.9154 1.9528 12.8151 1.98098 12.721L2.92384 9.57291L10.4473 2.05304C10.6425 1.858 10.9587 1.85788 11.154 2.05277L11.5079 2.40593L12.2147 1.70001L13.6289 3.11423L12.9221 3.82015L13.2757 4.17453C13.4703 4.3702 13.4702 4.68651 13.2754 4.88199L12.9218 5.23555L13.9825 6.29621C14.1778 6.49147 14.1778 6.80805 13.9825 7.00331L10.447 10.5388C10.2517 10.7341 9.93512 10.7341 9.73986 10.5388C9.5446 10.3436 9.5446 10.027 9.73986 9.83174L12.9218 6.64976L12.2147 5.94265L5.77384 12.3829ZM11.507 5.23489L10.093 3.82089L3.80802 10.1019L3.39502 11.4769L3.84002 11.9219L5.24302 11.4979L11.507 5.23489Z" id="Shape" fill="#000000" fill-rule="evenodd" stroke="none" artboard="9a3c694d-ac06-48c6-b39a-c30b370fce3f" />
  </g>
</svg>