<?xml version="1.0" encoding="utf-8"?>
<svg width="15px" height="15px" viewBox="0 0 15 15" version="1.1" xmlns:xlink="http://www.w3.org/1999/xlink" xmlns="http://www.w3.org/2000/svg">
  <defs>
    <rect width="15" height="15" id="artboard_1" />
    <clipPath id="clip_1">
      <use xlink:href="#artboard_1" clip-rule="evenodd" />
    </clipPath>
  </defs>
  <g id="icon--pencil-off" clip-path="url(#clip_1)">
    <path d="M3.95361 4.24645L11.7318 12.0246C11.927 12.2199 11.927 12.5365 11.7318 12.7317C11.5365 12.927 11.2199 12.927 11.0247 12.7317L8.57618 10.283L5.77006 13.09L2.60115 14.05C2.33687 14.1301 2.05772 13.9808 1.97765 13.7165C1.94917 13.6225 1.94902 13.5222 1.9772 13.4281L2.92006 10.28L5.74718 7.45401L3.2465 4.95356C3.05124 4.7583 3.05124 4.44171 3.2465 4.24645C3.44177 4.05119 3.75835 4.05119 3.95361 4.24645ZM6.45324 8.16L3.80424 10.809L3.39124 12.184L3.83624 12.629L5.23924 12.205L7.86824 9.575L6.45324 8.16ZM10.0896 3.11423L12.9181 5.94265L9.98317 8.87601L9.27518 8.16801L11.5032 5.94201L10.0892 4.52801L7.86017 6.75301L7.15417 6.04701L10.0896 3.11423ZM11.5039 1.70001L14.3323 4.52844L13.6252 5.23555L10.7968 2.40712L11.5039 1.70001Z" id="Shape" fill="#000000" fill-rule="evenodd" stroke="none" artboard="35021997-c227-4afa-9991-2cd02bbb9c25" />
  </g>
</svg>