<?xml version="1.0" encoding="utf-8"?>
<svg width="15px" height="15px" viewBox="0 0 15 15" version="1.1" xmlns:xlink="http://www.w3.org/1999/xlink" xmlns="http://www.w3.org/2000/svg">
  <defs>
    <rect width="15" height="15" id="artboard_1" />
    <clipPath id="clip_1">
      <use xlink:href="#artboard_1" clip-rule="evenodd" />
    </clipPath>
  </defs>
  <g id="icon--pilcrow" clip-path="url(#clip_1)">
    <path d="M11.1 2.499L11.1 2.501Q11.1 2.55015 11.0904 2.59835Q11.0808 2.64655 11.062 2.69196Q11.0432 2.73736 11.0159 2.77823Q10.9886 2.81909 10.9539 2.85385Q10.9191 2.8886 10.8783 2.9159Q10.8374 2.94321 10.792 2.96202Q10.7466 2.98082 10.6984 2.99041Q10.6502 3 10.601 3L10 3L10 12.501Q10 12.5501 9.99044 12.5983Q9.98085 12.6466 9.96204 12.692Q9.94323 12.7374 9.91593 12.7782Q9.88862 12.8191 9.85387 12.8538Q9.81912 12.8886 9.77825 12.9159Q9.73739 12.9432 9.69198 12.962Q9.64658 12.9808 9.59837 12.9904Q9.55017 13 9.50102 13L9.49902 13Q9.44988 13 9.40167 12.9904Q9.35347 12.9808 9.30806 12.962Q9.26266 12.9432 9.2218 12.9159Q9.18093 12.8886 9.14618 12.8538Q9.11143 12.8191 9.08412 12.7782Q9.05682 12.7374 9.03801 12.692Q9.0192 12.6466 9.00961 12.5983Q9.00002 12.5501 9.00002 12.501L9.00002 3L8.00002 3L8.00002 12.501Q8.00002 12.5501 7.99044 12.5983Q7.98085 12.6466 7.96204 12.692Q7.94323 12.7374 7.91593 12.7782Q7.88862 12.8191 7.85387 12.8538Q7.81912 12.8886 7.77825 12.9159Q7.73739 12.9432 7.69198 12.962Q7.64658 12.9808 7.59837 12.9904Q7.55017 13 7.50102 13L7.49902 13Q7.44988 13 7.40167 12.9904Q7.35347 12.9808 7.30806 12.962Q7.26266 12.9432 7.22179 12.9159Q7.18093 12.8886 7.14618 12.8538Q7.11142 12.8191 7.08412 12.7782Q7.05682 12.7374 7.03801 12.692Q7.0192 12.6466 7.00961 12.5983Q7.00002 12.5501 7.00002 12.501C7.00002 11.4285 7.00002 9 7.00002 9C7.00002 9 6.40002 9 6.40002 9C4.46703 9 2.90002 7.433 2.90002 5.5C2.90002 3.567 4.46703 2 6.40002 2L10.601 2C10.8766 2 11.1 2.22341 11.1 2.499Z" id="Path" fill="#000000" fill-rule="evenodd" stroke="none" artboard="b94c6077-ffd8-42bc-b457-a6aa4fd2934f" />
  </g>
</svg>