<?xml version="1.0" encoding="utf-8"?>
<svg width="15px" height="15px" viewBox="0 0 15 15" version="1.1" xmlns:xlink="http://www.w3.org/1999/xlink" xmlns="http://www.w3.org/2000/svg">
  <defs>
    <rect width="15" height="15" id="artboard_1" />
    <clipPath id="clip_1">
      <use xlink:href="#artboard_1" clip-rule="evenodd" />
    </clipPath>
  </defs>
  <g id="icon--quote-left" clip-path="url(#clip_1)">
    <path d="M3.5 11C3.22386 11 3 10.7761 3 10.5L3 7.16002C3 7.10628 3.00866 7.05289 3.02566 7.00191L3.88604 4.34189C3.95409 4.13771 4.14516 4 4.36038 4L5.30629 4C5.58243 4 5.80629 4.22386 5.80629 4.5C5.80629 4.55374 5.79762 4.60713 5.78063 4.65811L5 7L6.5 7C6.77614 7 7 7.22386 7 7.5L7 10.5C7 10.7761 6.77614 11 6.5 11L3.5 11ZM8.5 11C8.22386 11 8 10.7761 8 10.5L8 7.17287C8 7.11913 8.00866 7.06574 8.02566 7.01476L8.88604 4.34189C8.95409 4.13771 9.14516 4 9.36038 4L10.3063 4C10.5824 4 10.8063 4.22386 10.8063 4.5C10.8063 4.55374 10.7976 4.60713 10.7806 4.65811L10 7L11.5 7C11.7761 7 12 7.22386 12 7.5L12 10.5C12 10.7761 11.7761 11 11.5 11L8.5 11Z" id="Shape" fill="#000000" fill-rule="evenodd" stroke="none" artboard="0f79652c-a989-4f80-b0c2-d015ff3ba4c7" />
  </g>
</svg>