<?xml version="1.0" encoding="utf-8"?>
<svg width="15px" height="15px" viewBox="0 0 15 15" version="1.1" xmlns:xlink="http://www.w3.org/1999/xlink" xmlns="http://www.w3.org/2000/svg">
  <defs>
    <rect width="15" height="15" id="artboard_1" />
    <clipPath id="clip_1">
      <use xlink:href="#artboard_1" clip-rule="evenodd" />
    </clipPath>
  </defs>
  <g id="icon--row-minus" clip-path="url(#clip_1)">
    <path d="M9 9L9 14L1 14L1 9L9 9ZM8 10L2 10L2 13L8 13L8 10ZM9 7L9 8L8 8L8 7L9 7ZM2 7L2 8L1 8L1 7L2 7ZM14.5 7C14.7761 7 15 7.22386 15 7.5C15 7.77614 14.7761 8 14.5 8L10.5 8C10.2239 8 10 7.77614 10 7.5C10 7.22386 10.2239 7 10.5 7L14.5 7ZM9 1L9 6L1 6L1 1L9 1ZM8 2L2 2L2 5L8 5L8 2Z" id="Shape" fill="#000000" fill-rule="evenodd" stroke="none" artboard="80b69966-6a38-422c-b594-f1130ecf8323" />
  </g>
</svg>