<?xml version="1.0" encoding="utf-8"?>
<svg width="15px" height="15px" viewBox="0 0 15 15" version="1.1" xmlns:xlink="http://www.w3.org/1999/xlink" xmlns="http://www.w3.org/2000/svg">
  <defs>
    <rect width="15" height="15" id="artboard_1" />
    <clipPath id="clip_1">
      <use xlink:href="#artboard_1" clip-rule="evenodd" />
    </clipPath>
  </defs>
  <g id="icon--ruler" clip-path="url(#clip_1)">
    <path d="M15 4.5C15 4.22386 14.7761 4 14.5 4L0.5 4C0.223858 4 0 4.22386 0 4.5L0 9.5C0 9.77614 0.223858 10 0.5 10L14.5 10C14.7761 10 15 9.77614 15 9.5L15 4.5L15 4.5ZM3 5L3 6.501C3 6.63879 2.95128 6.75641 2.85385 6.85385C2.75641 6.95128 2.63879 7 2.501 7L2.499 7C2.3612 7 2.24359 6.95128 2.14615 6.85385C2.04872 6.75641 2 6.63879 2 6.501L2 5L1 5L1 9L14 9L14 5L13 5L13 7.501C13 7.63879 12.9513 7.75641 12.8538 7.85385C12.7564 7.95128 12.6388 8 12.501 8L12.499 8C12.3612 8 12.2436 7.95128 12.1462 7.85385C12.0487 7.75641 12 7.63879 12 7.501L12 5L11 5L11 6.501C11 6.63879 10.9513 6.75641 10.8538 6.85385C10.7564 6.95128 10.6388 7 10.501 7L10.499 7C10.3612 7 10.2436 6.95128 10.1462 6.85385C10.0487 6.75641 10 6.63879 10 6.501L10 5L9 5L9 7.501C9 7.63879 8.95128 7.75641 8.85385 7.85385C8.75641 7.95128 8.63879 8 8.501 8L8.499 8C8.36121 8 8.24359 7.95128 8.14615 7.85385C8.04872 7.75641 8 7.63879 8 7.501L8 5L7 5L7 6.501C7 6.63879 6.95128 6.75641 6.85385 6.85385C6.75641 6.95128 6.63879 7 6.501 7L6.499 7C6.3612 7 6.24359 6.95128 6.14615 6.85385C6.04872 6.75641 6 6.63879 6 6.501L6 5L5 5L5 7.501C5 7.63879 4.95128 7.75641 4.85385 7.85385C4.75641 7.95128 4.63879 8 4.501 8L4.499 8C4.36121 8 4.24359 7.95128 4.14615 7.85385C4.04872 7.75641 4 7.63879 4 7.501L4 5L3 5L3 5Z" id="Vector" fill="#000000" fill-rule="evenodd" stroke="none" artboard="b1609bdf-bf01-482e-bb24-d4a1f300866a" />
  </g>
</svg>