<?xml version="1.0" encoding="utf-8"?>
<svg width="15px" height="15px" viewBox="0 0 15 15" version="1.1" xmlns:xlink="http://www.w3.org/1999/xlink" xmlns="http://www.w3.org/2000/svg">
  <defs>
    <rect width="15" height="15" id="artboard_1" />
    <clipPath id="clip_1">
      <use xlink:href="#artboard_1" clip-rule="evenodd" />
    </clipPath>
  </defs>
  <g id="icon--ruler-square" clip-path="url(#clip_1)">
    <path d="M15 0L15 5L5 5L5 15L0 15L0 0L15 0ZM4 5L1 5L1 14L4 14L4 13L2.5 13C2.25454 13 2.05039 12.8231 2.00806 12.5899L2 12.5C2 12.2545 2.17688 12.0504 2.41012 12.0081L2.5 12L4 12L4 11L3.5 11C3.25454 11 3.05039 10.8231 3.00806 10.5899L3 10.5C3 10.2545 3.17688 10.0504 3.41012 10.0081L3.5 10L4 10L4 9L2.5 9C2.25454 9 2.05039 8.82312 2.00806 8.58988L2 8.5C2 8.25454 2.17688 8.05039 2.41012 8.00806L2.5 8L4 8L4 7L3.5 7C3.25454 7 3.05039 6.82312 3.00806 6.58988L3 6.5C3 6.25454 3.17688 6.05039 3.41012 6.00806L3.5 6L4 6L4 5ZM4 1L1 1L1 4L4 4L4 1ZM14 1L5 1L5 4L6 4L6 3.5C6 3.22386 6.22386 3 6.5 3C6.77614 3 7 3.22386 7 3.5L7 4L8 4L8 2.5C8 2.22386 8.22386 2 8.5 2C8.77614 2 9 2.22386 9 2.5L9 4L10 4L10 3.5C10 3.22386 10.2239 3 10.5 3C10.7761 3 11 3.22386 11 3.5L11 4L12 4L12 2.5C12 2.22386 12.2239 2 12.5 2C12.7761 2 13 2.22386 13 2.5L13 4L14 4L14 1Z" id="Shape" fill="#000000" fill-rule="evenodd" stroke="none" artboard="c46c1457-1e6b-4c0d-986a-5a70fa5f1f38" />
  </g>
</svg>