<?xml version="1.0" encoding="utf-8"?>
<svg width="15px" height="15px" viewBox="0 0 15 15" version="1.1" xmlns:xlink="http://www.w3.org/1999/xlink" xmlns="http://www.w3.org/2000/svg">
  <defs>
    <rect width="15" height="15" id="artboard_1" />
    <clipPath id="clip_1">
      <use xlink:href="#artboard_1" clip-rule="evenodd" />
    </clipPath>
  </defs>
  <g id="icon--scissors" clip-path="url(#clip_1)">
    <path d="M2.99995 2.89999C4.15971 2.89999 5.09988 3.84016 5.09988 4.99991C5.09988 5.05208 5.09797 5.10381 5.09423 5.15502C5.08065 5.35104 5.18819 5.53547 5.36547 5.62021C5.89765 5.87579 6.91296 6.3611 6.91296 6.3611L12.6068 4.59091C13.1168 4.43225 13.6635 4.6413 13.9409 5.08592L14 5.19265L9.26588 7.50106L14 9.8102L13.9409 9.91693C13.6866 10.3245 13.2061 10.5341 12.7349 10.444L12.6068 10.4119L6.91396 8.64102C6.91396 8.64102 5.89776 9.12698 5.36517 9.38167C5.18776 9.46655 5.08007 9.65106 5.09342 9.84727C5.09804 9.89758 5.09988 9.94845 5.09988 9.99974C5.09988 11.1595 4.15971 12.0997 2.99995 12.0997C1.84019 12.0997 0.900024 11.1595 0.900024 9.99974C0.900024 8.83998 1.84019 7.89981 2.99995 7.89981C3.45208 7.89981 3.87085 8.04271 4.21354 8.2858C4.40143 8.41745 4.65632 8.39727 4.82116 8.2377C5.13915 7.9317 5.584 7.50106 5.584 7.50106C5.584 7.50106 5.13745 7.06938 4.81974 6.76226C4.65454 6.60262 4.39939 6.58242 4.21112 6.71407C3.86945 6.95742 3.45133 7.09984 2.99995 7.09984C1.84019 7.09984 0.900024 6.15967 0.900024 4.99991C0.900024 3.84016 1.84019 2.89999 2.99995 2.89999ZM3.00001 8.79979C2.33729 8.79979 1.80005 9.33703 1.80005 9.99975C1.80005 10.6625 2.33729 11.1997 3.00001 11.1997C3.66273 11.1997 4.19997 10.6625 4.19997 9.99975C4.19997 9.33703 3.66273 8.79979 3.00001 8.79979ZM6.49988 6.89986C6.16852 6.89986 5.8999 7.16848 5.8999 7.49984C5.8999 7.8312 6.16852 8.09982 6.49988 8.09982C6.83124 8.09982 7.09986 7.8312 7.09986 7.49984C7.09986 7.16848 6.83124 6.89986 6.49988 6.89986ZM3.00001 3.79996C2.33729 3.79996 1.80005 4.33719 1.80005 4.99991C1.80005 5.66263 2.33729 6.19987 3.00001 6.19987C3.66273 6.19987 4.19997 5.66263 4.19997 4.99991C4.19997 4.33719 3.66273 3.79996 3.00001 3.79996Z" id="Fill-1" fill="#000000" fill-rule="evenodd" stroke="none" artboard="aac6cf74-01d3-4e70-8e2f-0961da83f76e" />
  </g>
</svg>