<?xml version="1.0" encoding="utf-8"?>
<svg width="15px" height="15px" viewBox="0 0 15 15" version="1.1" xmlns:xlink="http://www.w3.org/1999/xlink" xmlns="http://www.w3.org/2000/svg">
  <defs>
    <rect width="15" height="15" id="artboard_1" />
    <clipPath id="clip_1">
      <use xlink:href="#artboard_1" clip-rule="evenodd" />
    </clipPath>
  </defs>
  <g id="icon--shape-intersection" clip-path="url(#clip_1)">
    <path d="M7 12L7 13L6.5 13C6.22386 13 6 12.7761 6 12.5L6 12L7 12ZM13 12L13 12.5C13 12.7761 12.7761 13 12.5 13L12 13L12 12L13 12ZM11 12L11 13L10 13L10 12L11 12ZM9 12L9 13L8 13L8 12L9 12ZM13 10L13 11L12 11L12 10L13 10ZM7 10L7 11L6 11L6 10L7 10ZM9 6L9 8.5C9 8.77614 8.77614 9 8.5 9L6 9L6 6.5C6 6.22386 6.22386 6 6.5 6L9 6ZM13 8L13 9L12 9L12 8L13 8ZM3 8L3 9L2.5 9C2.22386 9 2 8.77614 2 8.5L2 8L3 8ZM5 8L5 9L4 9L4 8L5 8ZM8 7L7 7L7 8L8 8L8 7ZM12.5 6C12.7761 6 13 6.22386 13 6.5L13 7L12 7L12 6L12.5 6ZM11 6L11 7L10 7L10 6L11 6ZM3 6L3 7L2 7L2 6L3 6ZM3 4L3 5L2 5L2 4L3 4ZM9 4L9 5L8 5L8 4L9 4ZM8.5 2C8.77614 2 9 2.22386 9 2.5L9 3L8 3L8 2L8.5 2ZM3 2L3 3L2 3L2 2.5C2 2.22386 2.22386 2 2.5 2L3 2ZM5 2L5 3L4 3L4 2L5 2ZM7 2L7 3L6 3L6 2L7 2Z" id="Shape" fill="#000000" fill-rule="evenodd" stroke="none" artboard="33b46397-d50d-405e-b4e6-b41664adb692" />
  </g>
</svg>