<?xml version="1.0" encoding="utf-8"?>
<svg width="15px" height="15px" viewBox="0 0 15 15" version="1.1" xmlns:xlink="http://www.w3.org/1999/xlink" xmlns="http://www.w3.org/2000/svg">
  <defs>
    <rect width="15" height="15" id="artboard_1" />
    <clipPath id="clip_1">
      <use xlink:href="#artboard_1" clip-rule="evenodd" />
    </clipPath>
  </defs>
  <g id="icon--specialcharakter" clip-path="url(#clip_1)">
    <path d="M4.79062 5.67086C4.64526 5.33399 4.57258 5.00766 4.57258 4.69187C4.57258 4.03305 4.79584 3.48618 5.24238 3.05127C5.68817 2.61709 6.28216 2.39999 7.02434 2.39999C7.73173 2.39999 8.28619 2.6031 8.68773 3.00931C9.08895 3.41519 9.28956 3.90054 9.28957 4.46535C9.28956 5.11588 9.08412 5.68582 8.67325 6.17518C8.44966 6.44177 8.08708 6.74494 7.5855 7.08471L9.18475 8.99426C9.27391 8.72495 9.33768 8.5181 9.37607 8.3737C9.42179 8.20168 9.46881 7.95975 9.51713 7.64791L9.53025 7.56322L10.868 7.56322L10.8545 7.67519C10.7779 8.30994 10.6248 8.91888 10.3952 9.502C10.2636 9.83605 10.1663 10.0605 10.1033 10.1754L11.9131 12.3735L10.1083 12.3735L9.23138 11.3059C8.89099 11.6655 8.57674 11.9322 8.28863 12.1059C7.74419 12.4353 7.11845 12.6 6.41142 12.6C5.3633 12.6 4.59829 12.3139 4.1164 11.7416C3.63882 11.1745 3.40002 10.5345 3.40002 9.82178C3.40002 9.05443 3.63302 8.41238 4.09901 7.89564C4.36822 7.60039 4.85495 7.23724 5.5592 6.80622C5.18181 6.36216 4.92561 5.9837 4.79062 5.67086L4.79062 5.67086ZM6.14748 5.27345C6.28462 5.50269 6.50892 5.79715 6.8204 6.15683C7.19583 5.88802 7.45614 5.66893 7.60133 5.49955L7.60172 5.49909C7.84745 5.21587 7.97032 4.90238 7.97032 4.55863C7.97032 4.29583 7.88357 4.06961 7.71007 3.87996C7.5389 3.69288 7.30589 3.59933 7.01103 3.59933C6.55639 3.59933 6.24324 3.74704 6.07159 4.04244C5.98285 4.19572 5.93848 4.36334 5.93848 4.5453C5.93848 4.79781 6.00814 5.04053 6.14748 5.27345L6.14748 5.27345ZM8.46419 10.3525L6.35827 7.78351C5.78216 8.17121 5.40516 8.46848 5.22728 8.67533C4.95076 8.98955 4.8125 9.37392 4.8125 9.82845C4.8125 10.3144 4.98881 10.6873 5.34144 10.9471C5.70355 11.214 6.08906 11.3474 6.49798 11.3474C6.97154 11.3474 7.37778 11.2393 7.71671 11.0233C8.0344 10.8207 8.28356 10.5971 8.46419 10.3525L8.46419 10.3525Z" id="Vector" fill="#000000" fill-rule="evenodd" stroke="none" artboard="718620b8-b6d4-4e4b-adf1-4c0be22d5a66" />
  </g>
</svg>