<?xml version="1.0" encoding="utf-8"?>
<svg width="15px" height="15px" viewBox="0 0 15 15" version="1.1" xmlns:xlink="http://www.w3.org/1999/xlink" xmlns="http://www.w3.org/2000/svg">
  <defs>
    <rect width="15" height="15" id="artboard_1" />
    <clipPath id="clip_1">
      <use xlink:href="#artboard_1" clip-rule="evenodd" />
    </clipPath>
  </defs>
  <g id="icon--text-outdent" clip-path="url(#clip_1)">
    <path d="M2.51379 11C2.23765 11 2.01379 11.2239 2.01379 11.5C2.01379 11.7761 2.23765 12 2.51379 12L12.5138 12C12.7899 12 13.0138 11.7761 13.0138 11.5C13.0138 11.2239 12.7899 11 12.5138 11L2.51379 11ZM3.83303 5.46025L3.76785 5.51306L2.13614 7.14547C1.97731 7.3043 1.95746 7.58908 2.07658 7.77939L2.13614 7.85453L3.76785 9.48416C3.94938 9.66569 4.26703 9.63732 4.44855 9.4558C4.60739 9.29697 4.62724 9.01219 4.50812 8.82188L4.44855 8.74674L3.58137 8.00302L5.51246 8.00302C5.78936 8.00302 6.01384 7.77854 6.01384 7.50163C6.01384 7.25549 5.83647 7.05078 5.60258 7.00833L5.51246 7.00025L3.57836 6.99924L4.44855 6.25049C4.63008 6.06897 4.63008 5.72295 4.44855 5.54143C4.2872 5.38007 4.01829 5.33973 3.83303 5.46025ZM7.51379 7C7.23765 7 7.01379 7.22386 7.01379 7.5C7.01379 7.77614 7.23765 8 7.51379 8L12.5138 8C12.7899 8 13.0138 7.77614 13.0138 7.5C13.0138 7.22386 12.7899 7 12.5138 7L7.51379 7ZM7.51379 5C7.23765 5 7.01379 5.22386 7.01379 5.5C7.01379 5.77614 7.23765 6 7.51379 6L12.5138 6C12.7899 6 13.0138 5.77614 13.0138 5.5C13.0138 5.22386 12.7899 5 12.5138 5L7.51379 5ZM7.51379 9C7.23765 9 7.01379 9.22386 7.01379 9.5C7.01379 9.77614 7.23765 10 7.51379 10L12.5138 10C12.7899 10 13.0138 9.77614 13.0138 9.5C13.0138 9.22386 12.7899 9 12.5138 9L7.51379 9ZM2.5 3C2.22386 3 2 3.22386 2 3.5C2 3.77614 2.22386 4 2.5 4L12.5138 4C12.79 4 13.0138 3.77614 13.0138 3.5C13.0138 3.22386 12.79 3 12.5138 3L2.5 3Z" id="Shape" fill="#000000" fill-rule="evenodd" stroke="none" artboard="2850bf62-d99d-4672-9987-f98518d76083" />
  </g>
</svg>