<?xml version="1.0" encoding="utf-8"?>
<svg width="15px" height="15px" viewBox="0 0 15 15" version="1.1" xmlns:xlink="http://www.w3.org/1999/xlink" xmlns="http://www.w3.org/2000/svg">
  <defs>
    <rect width="15" height="15" id="artboard_1" />
    <clipPath id="clip_1">
      <use xlink:href="#artboard_1" clip-rule="evenodd" />
    </clipPath>
  </defs>
  <g id="icon--text-indent" clip-path="url(#clip_1)">
    <path d="M12.5 11C12.7761 11 13 11.2239 13 11.5C13 11.7761 12.7761 12 12.5 12L2.5 12C2.22386 12 2 11.7761 2 11.5C2 11.2239 2.22386 11 2.5 11L12.5 11ZM11.1808 5.46025L11.246 5.51306L12.8777 7.14547C13.0365 7.3043 13.0564 7.58908 12.9373 7.77939L12.8777 7.85453L11.246 9.48416C11.0645 9.66569 10.7468 9.63732 10.5653 9.4558C10.4065 9.29697 10.3866 9.01219 10.5057 8.82188L10.5653 8.74674L11.4325 8.00302L9.50138 8.00302C9.22448 8.00302 9 7.77854 9 7.50163C9 7.25549 9.17736 7.05078 9.41126 7.00833L9.50138 7.00025L11.4355 6.99924L10.5653 6.25049C10.3838 6.06897 10.3838 5.72295 10.5653 5.54143C10.7266 5.38007 10.9956 5.33973 11.1808 5.46025ZM7.5 7C7.77614 7 8 7.22386 8 7.5C8 7.77614 7.77614 8 7.5 8L2.5 8C2.22386 8 2 7.77614 2 7.5C2 7.22386 2.22386 7 2.5 7L7.5 7ZM7.5 9C7.77614 9 8 9.22386 8 9.5C8 9.77614 7.77614 10 7.5 10L2.5 10C2.22386 10 2 9.77614 2 9.5C2 9.22386 2.22386 9 2.5 9L7.5 9ZM7.5 5C7.77614 5 8 5.22386 8 5.5C8 5.77614 7.77614 6 7.5 6L2.5 6C2.22386 6 2 5.77614 2 5.5C2 5.22386 2.22386 5 2.5 5L7.5 5ZM12.5138 3C12.79 3 13.0138 3.22386 13.0138 3.5C13.0138 3.77614 12.79 4 12.5138 4L2.5 4C2.22386 4 2 3.77614 2 3.5C2 3.22386 2.22386 3 2.5 3L12.5138 3Z" id="Shape" fill="#000000" fill-rule="evenodd" stroke="none" artboard="a9277f4a-fd28-4f3e-b9c7-184a4bd136bc" />
  </g>
</svg>