<?xml version="1.0" encoding="utf-8"?>
<svg width="15px" height="15px" viewBox="0 0 15 15" version="1.1" xmlns:xlink="http://www.w3.org/1999/xlink" xmlns="http://www.w3.org/2000/svg">
  <defs>
    <rect width="15" height="15" id="artboard_1" />
    <clipPath id="clip_1">
      <use xlink:href="#artboard_1" clip-rule="evenodd" />
    </clipPath>
  </defs>
  <g id="icon--text-align-left" clip-path="url(#clip_1)">
    <path d="M9.55556 10C9.80102 10 10 10.2239 10 10.5C10 10.7761 9.80102 11 9.55556 11L2.44444 11C2.19898 11 2 10.7761 2 10.5C2 10.2239 2.19898 10 2.44444 10L9.55556 10ZM7.57143 7C7.80812 7 8 7.22386 8 7.5C8 7.77614 7.80812 8 7.57143 8L2.42857 8C2.19188 8 2 7.77614 2 7.5C2 7.22386 2.19188 7 2.42857 7L7.57143 7ZM12.5 4C12.7761 4 13 4.22386 13 4.5C13 4.77614 12.7761 5 12.5 5L2.5 5C2.22386 5 2 4.77614 2 4.5C2 4.22386 2.22386 4 2.5 4L12.5 4Z" id="Shape" fill="#000000" fill-rule="evenodd" stroke="none" artboard="2da32323-edf4-46d2-bf25-9f6daeeeec0b" />
  </g>
</svg>