<?xml version="1.0" encoding="utf-8"?>
<svg width="15px" height="15px" viewBox="0 0 15 15" version="1.1" xmlns:xlink="http://www.w3.org/1999/xlink" xmlns="http://www.w3.org/2000/svg">
  <defs>
    <rect width="15" height="15" id="artboard_1" />
    <clipPath id="clip_1">
      <use xlink:href="#artboard_1" clip-rule="evenodd" />
    </clipPath>
  </defs>
  <g id="icon--typo-italic" clip-path="url(#clip_1)">
    <path d="M5.91016 12C5.67986 12 5.49316 11.8133 5.49316 11.583C5.49316 11.5551 5.49596 11.5273 5.50151 11.5L5.52172 11.4005C5.56905 11.1675 5.77394 11 6.01172 11L6.48216 11L7.82216 4L7.41016 4C7.17986 4 6.99316 3.8133 6.99316 3.583C6.99316 3.55513 6.99596 3.52732 7.00151 3.5L7.02172 3.40048C7.06905 3.16746 7.27394 3 7.51172 3L9.63974 3C9.87004 3 10.0567 3.1867 10.0567 3.417C10.0567 3.44487 10.0539 3.47268 10.0484 3.5L10.0282 3.59952C9.98085 3.83254 9.77596 4 9.53819 4L8.94016 4L7.60016 11L8.13974 11C8.37004 11 8.55674 11.1867 8.55674 11.417C8.55674 11.4449 8.55394 11.4727 8.5484 11.5L8.52818 11.5995C8.48085 11.8325 8.27596 12 8.03819 12L5.91016 12Z" id="Path" fill="#000000" fill-rule="evenodd" stroke="none" artboard="45e8c944-eef0-4ea0-8928-63a38600d20b" />
  </g>
</svg>