<?xml version="1.0" encoding="utf-8"?>
<svg width="15px" height="15px" viewBox="0 0 15 15" version="1.1" xmlns:xlink="http://www.w3.org/1999/xlink" xmlns="http://www.w3.org/2000/svg">
  <defs>
    <rect width="15" height="15" id="artboard_1" />
    <clipPath id="clip_1">
      <use xlink:href="#artboard_1" clip-rule="evenodd" />
    </clipPath>
  </defs>
  <g id="icon--typo-bold" clip-path="url(#clip_1)">
    <path d="M7.16788 2.89999C7.86618 2.89999 8.9562 3.00697 9.56934 3.50174C10.1995 3.99651 10.4209 4.75871 10.4209 5.30697C10.4209 5.8686 10.2165 6.64418 9.58637 7.13895L9.7175 7.20876L9.88742 7.30545C9.97624 7.35833 10.0633 7.41475 10.1144 7.45988C10.7956 8.00813 11 8.82383 11 9.43895C11 10.0674 10.7616 10.8965 10.0633 11.4448C9.39903 11.9796 8.25791 12.1 7.45742 12.1C6.61436 12.1 5.60842 12.0473 4.77015 11.9872L4 11.9262L4 3.06046C4 3.06046 4.42041 3.02918 4.62571 3.01414C5.47366 2.952 6.27662 2.89999 7.16788 2.89999ZM7.27161 7.94257L6.04382 7.94127L6.04382 10.6692L6.48327 10.6867L6.48327 10.6867L7.50737 10.7093L7.50737 10.7093C7.87767 10.7093 8.3714 10.6692 8.68879 10.4017C8.98856 10.1343 9.02382 9.7465 9.02382 9.33197C9.02382 8.97092 8.86513 8.47615 8.58299 8.24883C8.28519 7.99921 7.7366 7.95035 7.27161 7.94257L7.27161 7.94257ZM7.2745 4.2907L6.93057 4.29119C6.75378 4.29185 6.5512 4.29339 6.34739 4.29699L6.04382 4.30407L6.04382 6.5907L7.03209 6.5907C7.44232 6.5907 7.75931 6.56395 8.09495 6.36337C8.3933 6.18953 8.52382 5.775 8.52382 5.4407C8.52382 5.07965 8.50518 4.69186 8.24412 4.53139C7.98307 4.31744 7.61014 4.2907 7.2745 4.2907Z" id="Shape" fill="#000000" stroke="none" artboard="3a9f8dcf-37be-4dc0-81e6-9e5dedda3292" />
  </g>
</svg>