<?xml version="1.0" encoding="utf-8"?>
<svg width="15px" height="15px" viewBox="0 0 15 15" version="1.1" xmlns:xlink="http://www.w3.org/1999/xlink" xmlns="http://www.w3.org/2000/svg">
  <defs>
    <rect width="15" height="15" id="artboard_1" />
    <clipPath id="clip_1">
      <use xlink:href="#artboard_1" clip-rule="evenodd" />
    </clipPath>
  </defs>
  <g id="icon--typo-code" clip-path="url(#clip_1)">
    <path d="M8.82446 3.39028C9.0705 3.51564 9.16833 3.81673 9.04296 4.06278L6.84793 11.3912C6.72257 11.6372 6.42148 11.7351 6.17543 11.6097C5.92939 11.4843 5.83156 11.1833 5.95692 10.9372L8.15196 3.60878C8.27732 3.36274 8.57841 3.26491 8.82446 3.39028ZM5.03553 3.96644C5.2308 4.1617 5.2308 4.47828 5.03553 4.67355L2.20711 7.50197L5.03553 10.3304C5.2308 10.5257 5.2308 10.8422 5.03553 11.0375C4.84027 11.2328 4.52369 11.2328 4.32843 11.0375L1.14645 7.85553C0.951184 7.66026 0.951184 7.34368 1.14645 7.14842L4.32843 3.96644C4.52369 3.77118 4.84027 3.77118 5.03553 3.96644ZM9.96639 3.96644C10.14 3.79287 10.4094 3.77359 10.6043 3.90858L10.6735 3.96644L13.8555 7.14842C14.029 7.32199 14.0483 7.59141 13.9133 7.78628L13.8555 7.85553L10.6735 11.0375C10.4782 11.2328 10.1617 11.2328 9.96639 11.0375C9.79283 10.8639 9.77354 10.5945 9.90854 10.3996L9.96639 10.3304L12.7948 7.50197L9.96639 4.67355C9.77113 4.47828 9.77113 4.1617 9.96639 3.96644Z" id="Shape" fill="#000000" fill-rule="evenodd" stroke="none" artboard="782d38b7-d295-44dc-92f1-53c729ef7e3c" />
  </g>
</svg>