<?xml version="1.0" encoding="utf-8"?>
<svg width="15px" height="15px" viewBox="0 0 15 15" version="1.1" xmlns:xlink="http://www.w3.org/1999/xlink" xmlns="http://www.w3.org/2000/svg">
  <defs>
    <rect width="15" height="15" id="artboard_1" />
    <clipPath id="clip_1">
      <use xlink:href="#artboard_1" clip-rule="evenodd" />
    </clipPath>
  </defs>
  <g id="icon--typo-lowercase" clip-path="url(#clip_1)">
    <path d="M10.4337 5.42072C11.4113 5.38401 12.1388 5.58399 12.5475 6.10288C12.9562 6.62176 12.9938 7.17305 13.0013 8.02072L12.9999 12L12.077 12L11.9999 11.8024L11.9999 11.7994C11.6109 11.9699 11.1046 12.1 10.6792 12.1C9.9213 12.1 9.38136 12.0856 8.83895 11.6275C8.29654 11.1694 8.09998 10.507 8.09998 10C8.09998 9.48001 8.28636 8.89422 8.75436 8.49122C9.22236 8.08822 9.71428 7.90001 10.5327 7.90001C11.1361 7.90001 11.5716 7.96057 11.9999 8.096L11.9999 8C11.9999 7.28444 11.9285 7.02407 11.7313 6.78935C11.4904 6.50246 11.1479 6.3741 10.4337 6.42072C9.7738 6.4638 9.26298 6.64089 8.75422 6.97973L8.52216 6.11367C9.11904 5.64611 9.77248 5.44556 10.4337 5.42072ZM11.9999 9.07991C11.5444 8.92797 11.0054 8.90001 10.6312 8.90001C10.0722 8.90001 9.68461 9.06508 9.47624 9.25412C9.26787 9.44316 9.09998 9.66277 9.09998 10C9.09998 10.3373 9.189 10.5994 9.41141 10.8026C9.63382 11.0057 9.95986 11.15 10.5211 11.15C10.9379 11.15 11.4844 11.1086 11.9999 10.8842L11.9999 9.07991Z" id="Combined-Shape" fill="#000000" fill-rule="evenodd" stroke="none" artboard="d43e8a9f-f278-4525-920d-7eda8b761650" />
    <path d="M4.43372 5.42072C5.41125 5.38401 6.13885 5.58399 6.54754 6.10288C6.95623 6.62176 6.99383 7.17305 7.00133 8.02072L6.99995 12L6.07701 12L5.99995 11.8024L5.99995 11.7994C5.61087 11.9699 5.10458 12.1 4.67918 12.1C3.92131 12.1 3.38136 12.0856 2.83895 11.6275C2.29654 11.1694 2.09998 10.507 2.09998 10C2.09998 9.48001 2.28636 8.89422 2.75436 8.49122C3.22236 8.08822 3.71428 7.90001 4.53273 7.90001C5.13615 7.90001 5.57161 7.96057 5.99995 8.096L5.99995 8C5.99995 7.28444 5.92846 7.02407 5.73133 6.78935C5.49038 6.50246 5.14788 6.3741 4.43372 6.42072C3.7738 6.4638 3.26298 6.64089 2.75422 6.97973L2.52216 6.11367C3.11904 5.64611 3.77248 5.44556 4.43372 5.42072ZM5.99995 9.07991C5.5444 8.92797 5.00536 8.90001 4.63122 8.90001C4.07217 8.90001 3.68461 9.06508 3.47624 9.25412C3.26787 9.44316 3.09998 9.66277 3.09998 10C3.09998 10.3373 3.189 10.5994 3.41141 10.8026C3.63382 11.0057 3.95986 11.15 4.52112 11.15C4.93792 11.15 5.48435 11.1086 5.99995 10.8842L5.99995 9.07991Z" id="Combined-Shape-Copy" fill="#000000" fill-rule="evenodd" stroke="none" artboard="1c5125db-2fa1-4964-8966-008099aa023b" />
  </g>
</svg>