<?xml version="1.0" encoding="utf-8"?>
<svg width="15px" height="15px" viewBox="0 0 15 15" version="1.1" xmlns:xlink="http://www.w3.org/1999/xlink" xmlns="http://www.w3.org/2000/svg">
  <defs>
    <rect width="15" height="15" id="artboard_1" />
    <clipPath id="clip_1">
      <use xlink:href="#artboard_1" clip-rule="evenodd" />
    </clipPath>
  </defs>
  <g id="icon--zoom-out" clip-path="url(#clip_1)">
    <path d="M8.5 1.89999C11.0405 1.89999 13.1 3.95948 13.1 6.49999C13.1 9.0405 11.0405 11.1 8.5 11.1C7.36564 11.1 6.32718 10.6894 5.52514 10.0087L2.85355 12.682C2.65829 12.8772 2.34171 12.8772 2.14645 12.682C1.97288 12.5084 1.9536 12.239 2.08859 12.0441L2.14645 11.9749L4.83727 9.28328C4.24915 8.51052 3.9 7.54603 3.9 6.49999C3.9 3.95948 5.95949 1.89999 8.5 1.89999ZM8.50002 2.89999C6.5118 2.89999 4.90002 4.51177 4.90002 6.49999C4.90002 8.48822 6.5118 10.1 8.50002 10.1C10.4882 10.1 12.1 8.48822 12.1 6.49999C12.1 4.51177 10.4882 2.89999 8.50002 2.89999ZM10.5 6C10.7761 6 11 6.22386 11 6.5C11 6.77614 10.7761 7 10.5 7L6.5 7C6.22386 7 6 6.77614 6 6.5C6 6.22386 6.22386 6 6.5 6L10.5 6Z" id="Shape" fill="#000000" fill-rule="evenodd" stroke="none" artboard="17f702aa-9c1b-494f-ba39-e9623d4c9229" />
  </g>
</svg>