<?xml version="1.0" encoding="utf-8"?>
<svg width="15px" height="15px" viewBox="0 0 15 15" version="1.1" xmlns:xlink="http://www.w3.org/1999/xlink" xmlns="http://www.w3.org/2000/svg">
  <defs>
    <rect width="15" height="15" id="artboard_1" />
    <clipPath id="clip_1">
      <use xlink:href="#artboard_1" clip-rule="evenodd" />
    </clipPath>
  </defs>
  <g id="icon--zoom-in" clip-path="url(#clip_1)">
    <path d="M13.1 6.49999C13.1 3.95948 11.0405 1.89999 8.50002 1.89999C5.95951 1.89999 3.90002 3.95948 3.90002 6.49999C3.90002 7.5462 4.24929 8.51084 4.83758 9.28366L2.14568 11.9756Q2.0755 12.0458 2.03751 12.1375Q1.99953 12.2292 1.99953 12.3284Q1.99953 12.4277 2.03751 12.5194Q2.0755 12.6111 2.14568 12.6813L2.1471 12.6827Q2.21728 12.7529 2.30898 12.7908Q2.40069 12.8288 2.49994 12.8288Q2.5992 12.8288 2.6909 12.7908Q2.7826 12.7529 2.85279 12.6827L5.52602 10.0094C6.32795 10.6897 7.36607 11.1 8.50002 11.1C11.0405 11.1 13.1 9.0405 13.1 6.49999ZM4.90002 6.49999C4.90002 4.51177 6.5118 2.89999 8.50002 2.89999C10.4882 2.89999 12.1 4.51177 12.1 6.49999C12.1 8.48822 10.4882 10.1 8.50002 10.1C6.5118 10.1 4.90002 8.48822 4.90002 6.49999ZM8.501 4L8.499 4Q8.44985 4 8.40165 4.00959Q8.35345 4.01918 8.30804 4.03798Q8.26263 4.05679 8.22177 4.0841Q8.18091 4.1114 8.14615 4.14615Q8.1114 4.18091 8.0841 4.22177Q8.05679 4.26263 8.03798 4.30804Q8.01918 4.35345 8.00959 4.40165Q8 4.44985 8 4.499L8 6L6.499 6Q6.44985 6 6.40165 6.00959Q6.35345 6.01918 6.30804 6.03798Q6.26263 6.05679 6.22177 6.0841Q6.18091 6.1114 6.14615 6.14615Q6.1114 6.18091 6.0841 6.22177Q6.05679 6.26263 6.03798 6.30804Q6.01918 6.35345 6.00959 6.40165Q6 6.44985 6 6.499L6 6.501Q6 6.55015 6.00959 6.59835Q6.01918 6.64655 6.03798 6.69196Q6.05679 6.73736 6.0841 6.77823Q6.1114 6.81909 6.14615 6.85385Q6.18091 6.8886 6.22177 6.9159Q6.26263 6.94321 6.30804 6.96202Q6.35345 6.98082 6.40165 6.99041Q6.44985 7 6.499 7L8 7L8 8.501Q8 8.55015 8.00959 8.59835Q8.01918 8.64655 8.03798 8.69196Q8.05679 8.73736 8.0841 8.77823Q8.1114 8.81909 8.14615 8.85385Q8.18091 8.8886 8.22177 8.9159Q8.26263 8.94321 8.30804 8.96202Q8.35345 8.98082 8.40165 8.99041Q8.44985 9 8.499 9L8.501 9Q8.55015 9 8.59835 8.99041Q8.64655 8.98082 8.69196 8.96202Q8.73736 8.94321 8.77823 8.9159Q8.81909 8.8886 8.85385 8.85385Q8.8886 8.81909 8.9159 8.77823Q8.94321 8.73736 8.96202 8.69196Q8.98082 8.64655 8.99041 8.59835Q9 8.55015 9 8.501L9 7L10.501 7Q10.5501 7 10.5983 6.99041Q10.6466 6.98082 10.692 6.96202Q10.7374 6.94321 10.7782 6.9159Q10.8191 6.8886 10.8538 6.85385Q10.8886 6.81909 10.9159 6.77823Q10.9432 6.73736 10.962 6.69196Q10.9808 6.64655 10.9904 6.59835Q11 6.55015 11 6.501L11 6.499Q11 6.44985 10.9904 6.40165Q10.9808 6.35345 10.962 6.30804Q10.9432 6.26263 10.9159 6.22177Q10.8886 6.18091 10.8538 6.14615Q10.8191 6.1114 10.7782 6.0841Q10.7374 6.05679 10.692 6.03798Q10.6466 6.01918 10.5983 6.00959Q10.5501 6 10.501 6L9 6L9 4.499Q9 4.44985 8.99041 4.40165Q8.98082 4.35345 8.96202 4.30804Q8.94321 4.26263 8.9159 4.22177Q8.8886 4.18091 8.85385 4.14615Q8.81909 4.1114 8.77823 4.0841Q8.73736 4.05679 8.69196 4.03798Q8.64655 4.01918 8.59835 4.00959Q8.55015 4 8.501 4Z" id="Combined-Shape" fill="#000000" fill-rule="evenodd" stroke="none" artboard="b32f5468-fb05-4d07-b37a-b79b0d1f2b00" />
  </g>
</svg>