<?xml version="1.0" encoding="utf-8"?>
<svg width="15px" height="15px" viewBox="0 0 15 15" version="1.1" xmlns:xlink="http://www.w3.org/1999/xlink" xmlns="http://www.w3.org/2000/svg">
  <defs>
    <rect width="15" height="15" id="artboard_1" />
    <clipPath id="clip_1">
      <use xlink:href="#artboard_1" clip-rule="evenodd" />
    </clipPath>
  </defs>
  <g id="icon--arrow-split-right" clip-path="url(#clip_1)">
    <path d="M9.78843 2L9.69516 2.01098C9.48461 2.06119 9.32843 2.276 9.32843 2.5C9.32843 2.72756 9.52121 2.94563 9.74385 2.99128L9.82843 3L11.3799 2.91387L7.294 7.00064L2.5005 6.99916C2.25487 6.99908 2.05053 7.17601 2.00809 7.40941L2 7.4995C2 7.77593 2.22407 8.00003 2.5005 8.00006L7.296 8.00064L10.9768 11.6814L11.024 11.721L11.3799 12.0772L9.82843 11.9911C9.57242 11.9911 9.32843 12.2351 9.32843 12.4911C9.32843 12.7151 9.48461 12.9299 9.69516 12.9801L9.78843 12.9911L12.5 12.9911C12.724 12.9911 12.9388 12.8043 12.989 12.5861L13 12.4911L13 9.77954C13 9.55199 12.8072 9.36552 12.5846 9.32689L12.5 9.31955C12.276 9.31955 12.0612 9.50635 12.011 9.72456L12 9.81955L12.0856 11.3673L10.0188 9.3L10.014 9.304L8.2091 7.49967L12.0856 3.62381L12 5.17157L12.011 5.26656C12.0612 5.48476 12.276 5.67157 12.5 5.67157C12.7276 5.67157 12.9456 5.51039 12.9913 5.29477L13 5.21157L13 2.5L12.989 2.40501C12.9451 2.21408 12.7751 2.04719 12.5833 2.00845L12.5 2L9.78843 2Z" id="Path" fill="#000000" fill-rule="evenodd" stroke="none" artboard="2dff1070-f7e4-4238-a748-c63ac5657377" />
  </g>
</svg>