<?xml version="1.0" encoding="utf-8"?>
<svg width="15px" height="15px" viewBox="0 0 15 15" version="1.1" xmlns:xlink="http://www.w3.org/1999/xlink" xmlns="http://www.w3.org/2000/svg">
  <defs>
    <rect width="15" height="15" id="artboard_1" />
    <clipPath id="clip_1">
      <use xlink:href="#artboard_1" clip-rule="evenodd" />
    </clipPath>
  </defs>
  <g id="icon--arrow-turn-left" clip-path="url(#clip_1)">
    <path d="M4.73196 3.25575C4.91298 3.43677 4.91298 3.78183 4.73196 3.96285L3.574 4.99901L10.1 5.00001C11.7569 5.00001 13.1 6.34316 13.1 8.00001C13.1 9.65687 11.7569 11 10.1 11L10.005 10.996L10 11L5.5 11C5.22386 11 5 10.7762 5 10.5C5 10.2239 5.22386 10 5.5 10L9.999 9.99901L10.1 10C11.2046 10 12.1 9.10458 12.1 8.00001C12.1 6.89544 11.2046 6.00001 10.1 6.00001L9.99984 6.00301L3.577 6.00001L4.73196 7.03392C4.91298 7.21494 4.91298 7.56 4.73196 7.74103C4.55094 7.92205 4.23416 7.95033 4.05314 7.76931L2.13577 5.85194C1.95474 5.67092 1.95474 5.32586 2.13577 5.14483L4.05314 3.22746C4.23416 3.04644 4.55094 3.07472 4.73196 3.25575Z" id="Path" fill="#000000" fill-rule="evenodd" stroke="none" artboard="1b4fbc09-23ba-43b1-8673-2e407a9f73c0" />
  </g>
</svg>