<?xml version="1.0" encoding="utf-8"?>
<svg width="15px" height="15px" viewBox="0 0 15 15" version="1.1" xmlns:xlink="http://www.w3.org/1999/xlink" xmlns="http://www.w3.org/2000/svg">
  <defs>
    <rect width="15" height="15" id="artboard_1" />
    <clipPath id="clip_1">
      <use xlink:href="#artboard_1" clip-rule="evenodd" />
    </clipPath>
  </defs>
  <g id="icon--arrow-split-down" clip-path="url(#clip_1)">
    <path d="M2.00446 9.78397L2.01544 9.6907C2.06564 9.48015 2.28045 9.32397 2.50446 9.32397C2.73202 9.32397 2.95009 9.51676 2.99574 9.7394L3.00446 9.82397L2.91833 11.3754L7.0051 7.28954L7.00361 2.49604C7.00353 2.25042 7.18047 2.04607 7.41387 2.00363L7.50396 1.99554C7.78038 1.99554 8.00448 2.21962 8.00452 2.49604L8.0051 7.29154L11.6859 10.9724L11.7255 11.0195L12.0817 11.3754L11.9956 9.82397C11.9956 9.56797 12.2396 9.32397 12.4956 9.32397C12.7196 9.32397 12.9344 9.48015 12.9846 9.6907L12.9956 9.78397L12.9956 12.4955C12.9956 12.7195 12.8088 12.9344 12.5906 12.9846L12.4956 12.9955L9.784 12.9955C9.55644 12.9955 9.36998 12.8028 9.33135 12.5801L9.324 12.4955C9.324 12.2715 9.51081 12.0567 9.72902 12.0065L9.824 11.9955L11.3718 12.0811L9.30446 10.0143L9.30846 10.0095L7.50413 8.20464L3.62826 12.0811L5.17603 11.9955L5.27101 12.0065C5.48922 12.0567 5.67603 12.2715 5.67603 12.4955C5.67603 12.7231 5.51485 12.9412 5.29923 12.9868L5.21603 12.9955L2.50446 12.9955L2.40947 12.9846C2.21854 12.9406 2.05165 12.7707 2.01291 12.5788L2.00446 12.4955L2.00446 9.78397Z" id="Path" fill="#000000" fill-rule="evenodd" stroke="none" artboard="599d913b-b105-40c6-b5e7-91498013b1e2" />
  </g>
</svg>