<?xml version="1.0" encoding="utf-8"?>
<svg width="15px" height="15px" viewBox="0 0 15 15" version="1.1" xmlns:xlink="http://www.w3.org/1999/xlink" xmlns="http://www.w3.org/2000/svg">
  <defs>
    <rect width="15" height="15" id="artboard_1" />
    <clipPath id="clip_1">
      <use xlink:href="#artboard_1" clip-rule="evenodd" />
    </clipPath>
  </defs>
  <g id="icon--arrow-right-bold" clip-path="url(#clip_1)">
    <path d="M7.13808 2.32238C7.30743 2.1447 7.57632 2.11897 7.77437 2.24926L7.84498 2.30544L12.9235 7.14646L12.9881 7.22565C13.1021 7.39894 13.0966 7.62646 12.9745 7.79409L12.915 7.86194L7.84498 12.6946C7.75199 12.7832 7.62846 12.8327 7.5 12.8327C7.25454 12.8327 7.05039 12.6558 7.00806 12.4225L7 12.3327L7 10L2.5 10C2.25454 10 2.05039 9.82314 2.00806 9.58989L2 9.50001L2 5.50001C2 5.25455 2.17688 5.0504 2.41012 5.00807L2.5 5.00001L7 5.00001L7 2.66736C7 2.5389 7.04944 2.41536 7.13808 2.32238ZM7.99902 3.83401L8.00002 6.00001L2.99902 6.00001L2.99902 9.00002L8.00002 9.00002L7.99902 11.166L11.845 7.50001L7.99902 3.83401Z" id="Path" fill="#000000" stroke="none" artboard="ef1a2009-c383-433a-9e09-80b455b977e9" />
  </g>
</svg>