<?xml version="1.0" encoding="utf-8"?>
<svg width="15px" height="15px" viewBox="0 0 15 15" version="1.1" xmlns:xlink="http://www.w3.org/1999/xlink" xmlns="http://www.w3.org/2000/svg">
  <defs>
    <rect width="15" height="15" id="artboard_1" />
    <clipPath id="clip_1">
      <use xlink:href="#artboard_1" clip-rule="evenodd" />
    </clipPath>
  </defs>
  <g id="icon--arrow-cross-to-right" clip-path="url(#clip_1)">
    <path d="M6.83862 6.13216L6.13062 6.83916L2.1453 2.85471C1.97174 2.68114 1.95245 2.41172 2.08745 2.21685L2.1453 2.1476C2.31887 1.97404 2.58829 1.95475 2.78316 2.08975L2.85241 2.1476L6.83862 6.13216ZM13.0786 6.04116C13.0786 6.29716 12.8346 6.50116 12.5786 6.50116C12.3226 6.50116 12.0786 6.25716 12.0786 6.00116L12.1647 3.62125L2.8524 12.9322C2.65714 13.1274 2.34055 13.1274 2.14529 12.9322C1.95003 12.7369 1.95003 12.4203 2.14529 12.2251L11.4548 2.91556L9.07861 3.00116C8.82261 3.00116 8.57861 2.75716 8.57861 2.50116C8.57861 2.24515 8.78261 2.00116 9.03861 2.00116L12.5786 2.00116C12.8346 2.00116 13.0786 2.24515 13.0786 2.50116L13.0786 6.04116ZM13.0786 12.5786C13.0786 12.8062 12.8858 13.0242 12.6632 13.0699L12.5786 13.0786L9.03861 13.0786C8.78261 13.0786 8.57861 12.8346 8.57861 12.5786C8.57861 12.351 8.7714 12.133 8.99404 12.0873L9.07861 12.0786L11.4548 12.1642L8.24361 8.95214L8.95161 8.24414L12.1647 11.4585L12.0786 9.07861C12.0786 8.8226 12.3226 8.57861 12.5786 8.57861C12.8062 8.57861 13.0242 8.73979 13.0699 8.95541L13.0786 9.03861L13.0786 12.5786Z" id="Shape" fill="#000000" fill-rule="evenodd" stroke="none" artboard="22656cb9-8f2e-4c15-b7e9-f78e1bd711e0" />
  </g>
</svg>