<?xml version="1.0" encoding="utf-8"?>
<svg width="15px" height="15px" viewBox="0 0 15 15" version="1.1" xmlns:xlink="http://www.w3.org/1999/xlink" xmlns="http://www.w3.org/2000/svg">
  <defs>
    <rect width="15" height="15" id="artboard_1" />
    <clipPath id="clip_1">
      <use xlink:href="#artboard_1" clip-rule="evenodd" />
    </clipPath>
  </defs>
  <g id="icon--arrow-down-bold" clip-path="url(#clip_1)">
    <path d="M12.6753 7.14272C12.5823 7.05401 12.4588 7.00452 12.3303 7.00452L9.99766 7.00452L9.99766 2.50045C9.99766 2.22406 9.7738 2 9.49766 2L5.49766 2C5.22152 2 4.99766 2.22406 4.99766 2.50045L4.99766 7.00452L2.66501 7.00452C2.38887 7.00452 2.16501 7.22858 2.16501 7.50497C2.16501 7.63355 2.21445 7.75719 2.30309 7.85026L7.13574 12.9248C7.3051 13.1027 7.57398 13.1284 7.77203 12.998L7.85121 12.9334L12.6922 7.85026C12.8828 7.6502 12.8752 7.33342 12.6753 7.14272ZM11.1647 8.00464L7.49866 11.8556L3.83167 8.00464L5.99766 8.0045L5.99767 3.00064L8.99767 3.00064L8.99766 8.0045L11.1647 8.00464Z" id="Shape" fill="#000000" stroke="none" artboard="f7af2ef7-674a-4514-bc68-4e6a6ee9e6a8" />
  </g>
</svg>