<?xml version="1.0" encoding="utf-8"?>
<svg width="15px" height="15px" viewBox="0 0 15 15" version="1.1" xmlns:xlink="http://www.w3.org/1999/xlink" xmlns="http://www.w3.org/2000/svg">
  <defs>
    <rect width="15" height="15" id="artboard_1" />
    <clipPath id="clip_1">
      <use xlink:href="#artboard_1" clip-rule="evenodd" />
    </clipPath>
  </defs>
  <g id="icon--arrow-cross-to-up" clip-path="url(#clip_1)">
    <path d="M6.131 8.23999L6.838 8.94799L2.85355 12.9333C2.67999 13.1069 2.41056 13.1262 2.21569 12.9912L2.14645 12.9333C1.97288 12.7597 1.9536 12.4903 2.08859 12.2955L2.14645 12.2262L6.131 8.23999ZM6.04 2C6.29601 2 6.5 2.244 6.5 2.5C6.5 2.756 6.256 3 6 3L3.6201 2.91387L12.931 12.2262C13.1263 12.4215 13.1263 12.7381 12.931 12.9333C12.7358 13.1286 12.4192 13.1286 12.2239 12.9333L2.9144 3.62381L3 6C3 6.256 2.756 6.5 2.5 6.5C2.244 6.5 2 6.296 2 6.04L2 2.5C2 2.244 2.244 2 2.5 2L6.04 2ZM12.5775 2C12.805 2 13.0231 2.19279 13.0688 2.41543L13.0775 2.5L13.0775 6.04C13.0775 6.296 12.8335 6.5 12.5775 6.5C12.3499 6.5 12.1319 6.30721 12.0862 6.08457L12.0775 6L12.1631 3.62381L8.95101 6.835L8.24301 6.127L11.4574 2.91387L9.07748 3C8.82148 3 8.57748 2.756 8.57748 2.5C8.57748 2.27244 8.73866 2.05437 8.95428 2.00872L9.03748 2L12.5775 2Z" id="Shape" fill="#000000" fill-rule="evenodd" stroke="none" artboard="ce4275c7-702d-458d-b6da-46ca84233cd0" />
  </g>
</svg>