<?xml version="1.0" encoding="utf-8"?>
<svg width="15px" height="15px" viewBox="0 0 15 15" version="1.1" xmlns:xlink="http://www.w3.org/1999/xlink" xmlns="http://www.w3.org/2000/svg">
  <defs>
    <rect width="15" height="15" id="artboard_1" />
    <clipPath id="clip_1">
      <use xlink:href="#artboard_1" clip-rule="evenodd" />
    </clipPath>
  </defs>
  <g id="icon--arrow-up-bold" clip-path="url(#clip_1)">
    <path d="M12.6753 7.85729C12.5823 7.94601 12.4587 7.9955 12.3303 7.9955L9.99763 7.9955L9.99763 12.4996C9.99763 12.776 9.77377 13 9.49763 13L5.49763 13C5.22149 13 4.99763 12.776 4.99763 12.4996L4.99763 7.9955L2.66498 7.9955C2.38884 7.9955 2.16498 7.77144 2.16498 7.49504C2.16498 7.36647 2.21442 7.24282 2.30305 7.14975L7.13571 2.07517C7.30507 1.89734 7.57395 1.87158 7.772 2.00199L7.85118 2.06659L12.6922 7.14975C12.8827 7.34982 12.8751 7.66659 12.6753 7.85729ZM11.1646 6.99535L7.4986 3.14435L3.8316 6.99535L5.9976 6.99548L5.9976 11.9993L8.9976 11.9993L8.9976 6.99548L11.1646 6.99535Z" id="Shape" fill="#000000" stroke="none" artboard="de8a2a43-3545-450c-83a5-1899aa80b1d3" />
  </g>
</svg>