<?xml version="1.0" encoding="utf-8"?>
<svg width="15px" height="15px" viewBox="0 0 15 15" version="1.1" xmlns:xlink="http://www.w3.org/1999/xlink" xmlns="http://www.w3.org/2000/svg">
  <defs>
    <rect width="15" height="15" id="artboard_1" />
    <clipPath id="clip_1">
      <use xlink:href="#artboard_1" clip-rule="evenodd" />
    </clipPath>
  </defs>
  <g id="icon--arrow-expand-to-down" clip-path="url(#clip_1)">
    <path d="M3.5 2L11.5 2C11.7761 2 12 2.22386 12 2.5C12 2.77614 11.7761 3 11.5 3L7.998 2.99938L7.99938 11.4244L11.0355 8.26641C11.2166 8.08539 11.5616 8.08539 11.7426 8.26641C11.901 8.42481 11.9425 8.68714 11.8291 8.87152L11.7709 8.94524L7.85355 12.8626C7.69516 13.021 7.41117 13.0408 7.22138 12.922L7.14645 12.8626L3.22907 8.94524C3.04805 8.76421 3.07634 8.44744 3.25736 8.26641C3.41575 8.10802 3.69974 8.08822 3.88953 8.20702L3.96447 8.26641L6.99837 11.4214L6.998 2.99938L3.5 3C3.22386 3 3 2.77614 3 2.5C3 2.22386 3.22386 2 3.5 2Z" id="Path" fill="#000000" fill-rule="evenodd" stroke="none" artboard="280377f9-b720-42a5-b7e6-c866b623603a" />
  </g>
</svg>