<?xml version="1.0" encoding="utf-8"?>
<svg width="15px" height="15px" viewBox="0 0 15 15" version="1.1" xmlns:xlink="http://www.w3.org/1999/xlink" xmlns="http://www.w3.org/2000/svg">
  <defs>
    <rect width="15" height="15" id="artboard_1" />
    <clipPath id="clip_1">
      <use xlink:href="#artboard_1" clip-rule="evenodd" />
    </clipPath>
  </defs>
  <g id="icon--arrow-merge-left" clip-path="url(#clip_1)">
    <path d="M12.8878 3.33498C12.7144 3.16132 12.4451 3.14184 12.2501 3.27668L12.1806 3.33473L8.49824 7.01895L3.57396 7.0176L4.73192 5.98145C4.91295 5.80042 4.91295 5.45536 4.73192 5.27434C4.57353 5.11594 4.3112 5.07449 4.12682 5.18787L4.0531 5.24605L2.13573 7.16343C1.97734 7.32182 1.95753 7.60581 2.07633 7.7956L2.13573 7.87053L4.0531 9.7879C4.23412 9.96893 4.5509 9.94064 4.73192 9.75962C4.89032 9.60123 4.91012 9.31724 4.79132 9.12745L4.73192 9.05251L3.57696 8.0186L8.50024 8.01895L12.1811 11.6997C12.3544 11.873 12.6234 11.8923 12.8179 11.7575L12.8873 11.6995L12.8873 11.6995C13.0823 11.5042 13.0823 11.1879 12.8871 10.9927L9.41334 7.51798L12.8876 4.04278C13.083 3.84733 13.0831 3.53054 12.8878 3.33498Z" id="Path" fill="#000000" fill-rule="evenodd" stroke="none" artboard="2b9c0a18-f813-45c2-ba9a-1c3109890875" />
  </g>
</svg>