<?xml version="1.0" encoding="utf-8"?>
<svg width="15px" height="15px" viewBox="0 0 15 15" version="1.1" xmlns:xlink="http://www.w3.org/1999/xlink" xmlns="http://www.w3.org/2000/svg">
  <defs>
    <rect width="15" height="15" id="artboard_1" />
    <clipPath id="clip_1">
      <use xlink:href="#artboard_1" clip-rule="evenodd" />
    </clipPath>
  </defs>
  <g id="icon--arrow-left-bold" clip-path="url(#clip_1)">
    <path d="M7.86191 2.32238C7.95055 2.41536 7.99999 2.5389 7.99999 2.66736L7.99999 5.00001L12.5 5.00001C12.7761 5.00001 13 5.22387 13 5.50001L13 9.50001C13 9.77615 12.7761 10 12.5 10L7.99999 10L7.99999 12.3327C7.99999 12.6088 7.77613 12.8327 7.49999 12.8327C7.37153 12.8327 7.248 12.7832 7.15501 12.6946L2.08501 7.86194C1.90734 7.69258 1.8816 7.42369 2.01189 7.22565L2.07644 7.14646L7.15501 2.30544C7.35489 2.11491 7.67139 2.12249 7.86191 2.32238ZM6.99899 3.83502L3.15399 7.50002L6.99899 11.165L6.99999 9.00002L12 8.99902L12 5.99902L6.99999 6.00002L6.99899 3.83502Z" id="Path" fill="#000000" stroke="none" artboard="7350a533-d680-4325-960d-890b8071521c" />
  </g>
</svg>