<?xml version="1.0" encoding="utf-8"?>
<svg width="15px" height="15px" viewBox="0 0 15 15" version="1.1" xmlns:xlink="http://www.w3.org/1999/xlink" xmlns="http://www.w3.org/2000/svg">
  <defs>
    <rect width="15" height="15" id="artboard_1" />
    <clipPath id="clip_1">
      <use xlink:href="#artboard_1" clip-rule="evenodd" />
    </clipPath>
  </defs>
  <g id="icon--arrow-cross-to-left" clip-path="url(#clip_1)">
    <path d="M8.23883 6.13216L8.94683 6.83916L12.9321 2.85471C13.1057 2.68115 13.125 2.41172 12.99 2.21685L12.9321 2.14761C12.7586 1.97404 12.4892 1.95475 12.2943 2.08975L12.225 2.14761L8.23883 6.13216ZM1.99884 6.04116C1.99884 6.29716 2.24283 6.50116 2.49884 6.50116C2.75484 6.50116 2.99884 6.25716 2.99884 6.00116L2.91271 3.62125L12.2251 12.9322C12.4203 13.1274 12.7369 13.1274 12.9322 12.9322C13.1274 12.7369 13.1274 12.4203 12.9322 12.2251L3.62265 2.91556L5.99884 3.00116C6.25484 3.00116 6.49884 2.75716 6.49884 2.50116C6.49884 2.24515 6.29484 2.00116 6.03884 2.00116L2.49884 2.00116C2.24283 2.00116 1.99884 2.24515 1.99884 2.50116L1.99884 6.04116ZM1.99884 12.5786C1.99884 12.8062 2.19162 13.0242 2.41427 13.0699L2.49884 13.0786L6.03884 13.0786C6.29484 13.0786 6.49884 12.8346 6.49884 12.5786C6.49884 12.3511 6.30605 12.133 6.08341 12.0873L5.99884 12.0786L3.62265 12.1642L6.83384 8.95214L6.12584 8.24414L2.91271 11.4585L2.99884 9.07861C2.99884 8.82261 2.75484 8.57861 2.49884 8.57861C2.27128 8.57861 2.05321 8.73979 2.00756 8.95541L1.99884 9.03861L1.99884 12.5786Z" id="Shape" fill="#000000" fill-rule="evenodd" stroke="none" artboard="4d17d794-a18a-49c0-a9d0-6ac78d9e3ca3" />
  </g>
</svg>