<?xml version="1.0" encoding="utf-8"?>
<svg width="15px" height="15px" viewBox="0 0 15 15" version="1.1" xmlns:xlink="http://www.w3.org/1999/xlink" xmlns="http://www.w3.org/2000/svg">
  <defs>
    <rect width="15" height="15" id="artboard_1" />
    <clipPath id="clip_1">
      <use xlink:href="#artboard_1" clip-rule="evenodd" />
    </clipPath>
  </defs>
  <g id="icon--arrow-split-horizontal" clip-path="url(#clip_1)">
    <path d="M6.5 2C6.77614 2 7 2.22386 7 2.5L7 12.5C7 12.7761 6.77614 13 6.5 13C6.22386 13 6 12.7761 6 12.5L6 8.001L2.577 8L3.73196 9.03391C3.91298 9.21493 3.91298 9.55999 3.73196 9.74102C3.55094 9.92204 3.23416 9.95032 3.05314 9.7693L1.13577 7.85193C0.954744 7.67091 0.954744 7.32584 1.13577 7.14482L3.05314 5.22745C3.23416 5.04643 3.55094 5.07471 3.73196 5.25573C3.91298 5.43676 3.91298 5.78182 3.73196 5.96284L2.574 6.999L6 6.998L6 2.5C6 2.22386 6.22386 2 6.5 2ZM8.5 2C8.77614 2 9 2.22386 9 2.5L9 6.998L12.4359 6.999L11.2779 5.96284C11.0969 5.78182 11.0969 5.43676 11.2779 5.25573C11.4363 5.09734 11.6987 5.05589 11.8831 5.16927L11.9568 5.22745L13.8741 7.14482C14.0325 7.30322 14.0523 7.5872 13.9335 7.777L13.8741 7.85193L11.9568 9.7693C11.7757 9.95032 11.459 9.92204 11.2779 9.74102C11.1196 9.58262 11.0998 9.29863 11.2185 9.10884L11.2779 9.03391L12.4329 8L9 8.001L9 12.5C9 12.7761 8.77614 13 8.5 13C8.22386 13 8 12.7761 8 12.5L8 2.5C8 2.22386 8.22386 2 8.5 2Z" id="Shape" fill="#000000" fill-rule="evenodd" stroke="none" artboard="3eea296b-e1bb-44d2-9fff-5c59337873f1" />
  </g>
</svg>