<?xml version="1.0" encoding="utf-8"?>
<svg width="15px" height="15px" viewBox="0 0 15 15" version="1.1" xmlns:xlink="http://www.w3.org/1999/xlink" xmlns="http://www.w3.org/2000/svg">
  <defs>
    <rect width="15" height="15" id="artboard_1" />
    <clipPath id="clip_1">
      <use xlink:href="#artboard_1" clip-rule="evenodd" />
    </clipPath>
  </defs>
  <g id="icon--arrow-split-vertical" clip-path="url(#clip_1)">
    <path d="M13.0049 6.49505C13.0049 6.7712 12.7811 6.99505 12.5049 6.99505L2.50494 6.99505C2.2288 6.99505 2.00494 6.7712 2.00494 6.49505C2.00494 6.21891 2.2288 5.99505 2.50494 5.99505L7.00394 5.99505L7.00494 2.57205L5.97104 3.72702C5.79001 3.90804 5.44495 3.90804 5.26393 3.72702C5.08291 3.54599 5.05462 3.22922 5.23564 3.04819L7.15302 1.13082C7.33404 0.949798 7.6791 0.949798 7.86012 1.13082L9.77749 3.04819C9.95852 3.22922 9.93023 3.54599 9.74921 3.72702C9.56819 3.90804 9.22313 3.90804 9.0421 3.72702L8.00594 2.56905L8.00694 5.99505L12.5049 5.99505C12.7811 5.99505 13.0049 6.21891 13.0049 6.49505ZM13.0049 8.49505C13.0049 8.7712 12.7811 8.99505 12.5049 8.99505L8.00694 8.99505L8.00594 12.431L9.0421 11.273C9.22313 11.092 9.56819 11.092 9.74921 11.273C9.9076 11.4314 9.94906 11.6937 9.83568 11.8781L9.77749 11.9518L7.86012 13.8692C7.70173 14.0276 7.41774 14.0474 7.22795 13.9286L7.15301 13.8692L5.23564 11.9518C5.05462 11.7708 5.0829 11.454 5.26393 11.273C5.42232 11.1146 5.70631 11.0948 5.8961 11.2136L5.97103 11.273L7.00494 12.428L7.00394 8.99505L2.50494 8.99505C2.2288 8.99505 2.00494 8.7712 2.00494 8.49505C2.00494 8.21891 2.2288 7.99505 2.50494 7.99505L12.5049 7.99505C12.7811 7.99505 13.0049 8.21891 13.0049 8.49505Z" id="Shape" fill="#000000" fill-rule="evenodd" stroke="none" artboard="99ad5124-f6b1-4930-9751-25145208e6e2" />
  </g>
</svg>