<?xml version="1.0" encoding="utf-8"?>
<svg width="15px" height="15px" viewBox="0 0 15 15" version="1.1" xmlns:xlink="http://www.w3.org/1999/xlink" xmlns="http://www.w3.org/2000/svg">
  <defs>
    <rect width="15" height="15" id="artboard_1" />
    <clipPath id="clip_1">
      <use xlink:href="#artboard_1" clip-rule="evenodd" />
    </clipPath>
  </defs>
  <g id="icon--arrow-cross-to-down" clip-path="url(#clip_1)">
    <path d="M8.94647 6.83977L8.23947 6.13177L12.2239 2.14645C12.3975 1.97288 12.6669 1.9536 12.8618 2.08859L12.931 2.14645C13.1046 2.32001 13.1239 2.58944 12.9889 2.78431L12.931 2.85355L8.94647 6.83977ZM9.03747 13.0798C8.78147 13.0798 8.57747 12.8358 8.57747 12.5798C8.57747 12.3238 8.82147 12.0798 9.07747 12.0798L11.4574 12.1659L2.14645 2.85355C1.95118 2.65829 1.95118 2.34171 2.14645 2.14645C2.34171 1.95118 2.65829 1.95118 2.85355 2.14645L12.1631 11.456L12.0775 9.07977C12.0775 8.82376 12.3215 8.57977 12.5775 8.57977C12.8335 8.57977 13.0775 8.78376 13.0775 9.03977L13.0775 12.5798C13.0775 12.8358 12.8335 13.0798 12.5775 13.0798L9.03747 13.0798ZM2.5 13.0798C2.27244 13.0798 2.05437 12.887 2.00872 12.6643L2 12.5798L2 9.03975C2 8.78375 2.244 8.57975 2.5 8.57975C2.72756 8.57975 2.94563 8.77254 2.99128 8.99518L3 9.07975L2.9144 11.4559L6.12647 8.24475L6.83447 8.95275L3.6201 12.1659L6 12.0798C6.256 12.0798 6.5 12.3237 6.5 12.5798C6.5 12.8073 6.33882 13.0254 6.1232 13.071L6.04 13.0798L2.5 13.0798Z" id="Shape" fill="#000000" fill-rule="evenodd" stroke="none" artboard="21a6fe42-41b5-4625-8a89-fa9b2254a3d0" />
  </g>
</svg>