<?xml version="1.0" encoding="utf-8"?>
<svg width="15px" height="15px" viewBox="0 0 15 15" version="1.1" xmlns:xlink="http://www.w3.org/1999/xlink" xmlns="http://www.w3.org/2000/svg">
  <defs>
    <rect width="15" height="15" id="artboard_1" />
    <clipPath id="clip_1">
      <use xlink:href="#artboard_1" clip-rule="evenodd" />
    </clipPath>
  </defs>
  <g id="icon--arrow-split-left" clip-path="url(#clip_1)">
    <path d="M5.21157 2L5.30484 2.01098C5.51539 2.06119 5.67157 2.276 5.67157 2.5C5.67157 2.72756 5.47879 2.94563 5.25615 2.99128L5.17157 3L3.6201 2.91387L7.706 7.00064L12.4995 6.99916C12.7451 6.99908 12.9495 7.17601 12.9919 7.40941L13 7.4995C13 7.77593 12.7759 8.00003 12.4995 8.00006L7.704 8.00064L4.02315 11.6814L3.976 11.721L3.6201 12.0772L5.17157 11.9911C5.42758 11.9911 5.67157 12.2351 5.67157 12.4911C5.67157 12.7151 5.51539 12.9299 5.30484 12.9801L5.21157 12.9911L2.5 12.9911C2.276 12.9911 2.06119 12.8043 2.01098 12.5861L2 12.4911L2 9.77954C2 9.55199 2.19279 9.36552 2.41543 9.32689L2.5 9.31955C2.724 9.31955 2.93881 9.50635 2.98902 9.72456L3 9.81955L2.9144 11.3673L4.98123 9.3L4.986 9.304L6.7909 7.49967L4.982 5.69L4.98123 5.69112L2.9144 3.62381L3 5.17157L2.98902 5.26656C2.93881 5.48476 2.724 5.67157 2.5 5.67157C2.27244 5.67157 2.05437 5.51039 2.00872 5.29477L2 5.21157L2 2.5L2.01098 2.40501C2.05491 2.21408 2.22487 2.04719 2.41673 2.00845L2.5 2L5.21157 2Z" id="Path" fill="#000000" fill-rule="evenodd" stroke="none" artboard="9c4482df-6ae9-42a8-9a82-21ba2ab982cd" />
  </g>
</svg>