<?xml version="1.0" encoding="utf-8"?>
<svg width="15px" height="15px" viewBox="0 0 15 15" version="1.1" xmlns:xlink="http://www.w3.org/1999/xlink" xmlns="http://www.w3.org/2000/svg">
  <defs>
    <rect width="15" height="15" id="artboard_1" />
    <clipPath id="clip_1">
      <use xlink:href="#artboard_1" clip-rule="evenodd" />
    </clipPath>
  </defs>
  <g id="icon--arrow-curvy-right" clip-path="url(#clip_1)">
    <path d="M10.6 3C11.9807 3 13.1 4.11929 13.1 5.5C13.1 6.88071 11.9807 8 10.6 8L4.40002 8C3.5716 8 2.90002 8.67157 2.90002 9.5C2.90002 10.2797 3.49491 10.9204 4.25556 10.9931L4.40002 11L5.03302 11L5.10019 10.9988L11.523 11.0017L10.3681 9.96784C10.187 9.78682 10.187 9.44176 10.3681 9.26073C10.5491 9.07971 10.8659 9.05143 11.0469 9.23245L12.9643 11.1498C13.1453 11.3308 13.1453 11.6759 12.9643 11.8569L11.0469 13.7743C10.8659 13.9553 10.5491 13.927 10.3681 13.746C10.187 13.565 10.187 13.2199 10.3681 13.0389L11.526 12.0028L4.40002 12C3.01931 12 1.90002 10.8807 1.90002 9.5C1.90002 8.11929 3.01931 7 4.40002 7L10.6 7C11.4285 7 12.1 6.32843 12.1 5.5C12.1 4.7203 11.5051 4.07955 10.7445 4.00687L10.6 4L2.50002 4C2.22388 4 2.00002 3.77614 2.00002 3.5C2.00002 3.22386 2.22388 3 2.50002 3L10.6 3Z" id="Path" fill="#000000" fill-rule="evenodd" stroke="none" artboard="87121fd5-ad03-41ff-893c-87ff6a2b47b5" />
  </g>
</svg>