<?xml version="1.0" encoding="utf-8"?>
<svg width="15px" height="15px" viewBox="0 0 15 15" version="1.1" xmlns:xlink="http://www.w3.org/1999/xlink" xmlns="http://www.w3.org/2000/svg">
  <defs>
    <rect width="15" height="15" id="artboard_1" />
    <clipPath id="clip_1">
      <use xlink:href="#artboard_1" clip-rule="evenodd" />
    </clipPath>
  </defs>
  <g id="icon--arrow-merge-down" clip-path="url(#clip_1)">
    <path d="M11.682 2.11051C11.8557 2.28393 11.8751 2.5533 11.7403 2.74823L11.6822 2.81776L7.99802 6.50011L7.99936 11.4244L9.03552 10.2664C9.21654 10.0854 9.56161 10.0854 9.74263 10.2664C9.90102 10.4248 9.94248 10.6872 9.82909 10.8715L9.77091 10.9452L7.85354 12.8626C7.69515 13.021 7.41116 13.0408 7.22137 12.922L7.14643 12.8626L5.22906 10.9452C5.04804 10.7642 5.07632 10.4474 5.25735 10.2664C5.41574 10.108 5.69973 10.0882 5.88952 10.207L5.96445 10.2664L6.99836 11.4214L6.99802 6.49811L3.31724 2.81726C3.14394 2.64397 3.12469 2.37496 3.25947 2.1804L3.31749 2.11101L3.31749 2.11101C3.51277 1.91601 3.82912 1.9161 4.02428 2.11122L7.49899 5.58501L10.9742 2.11072C11.1696 1.91532 11.4864 1.91523 11.682 2.11051Z" id="Path" fill="#000000" fill-rule="evenodd" stroke="none" artboard="26f607db-d859-49a4-a3b1-466988738d86" />
  </g>
</svg>