<?xml version="1.0" encoding="utf-8"?>
<svg width="15px" height="15px" viewBox="0 0 15 15" version="1.1" xmlns:xlink="http://www.w3.org/1999/xlink" xmlns="http://www.w3.org/2000/svg">
  <defs>
    <rect width="15" height="15" id="artboard_1" />
    <clipPath id="clip_1">
      <use xlink:href="#artboard_1" clip-rule="evenodd" />
    </clipPath>
  </defs>
  <g id="icon--arrow-right-left" clip-path="url(#clip_1)">
    <path d="M12.5 7.99999C12.7761 7.99999 13 8.22385 13 8.49999C13 8.77614 12.7761 8.99999 12.5 8.99999C12.5 8.99999 3.577 8.99999 3.577 8.99999C3.577 8.99999 5.73196 11.0339 5.73196 11.0339C5.91298 11.2149 5.91298 11.56 5.73196 11.741C5.55094 11.922 5.23416 11.9503 5.05314 11.7693L2.61277 9.33009C2.27435 8.9919 2 8.71774 2 8.71774L1.86529 8.32275C1.87708 8.12519 2.16043 7.99901 2.35834 7.99903C4.19847 7.9992 12.5 7.99999 12.5 7.99999Z" id="Path" fill="#000000" fill-rule="evenodd" stroke="none" artboard="894335e6-67d7-41eb-8e23-0677aa972a73" />
    <path d="M2.5 7.00175C2.22386 7.00175 2 6.77789 2 6.50175C2 6.2256 2.22386 6.00175 2.5 6.00175C2.5 6.00175 11.423 6.00175 11.423 6.00175C11.423 6.00175 9.26804 3.96784 9.26804 3.96784C9.08702 3.78681 9.08702 3.44175 9.26804 3.26073C9.44906 3.07971 9.76584 3.05142 9.94686 3.23245L12.3872 5.67165C12.7257 6.00984 13 6.284 13 6.284L13.1347 6.67899C13.1229 6.87655 12.8396 7.00273 12.6417 7.00271C10.8015 7.00254 2.5 7.00175 2.5 7.00175Z" id="Path-Copy" fill="#000000" fill-rule="evenodd" stroke="none" artboard="2f785655-4b85-4abf-a439-4bcbc757be7b" />
  </g>
</svg>