<?xml version="1.0" encoding="utf-8"?>
<svg width="15px" height="15px" viewBox="0 0 15 15" version="1.1" xmlns:xlink="http://www.w3.org/1999/xlink" xmlns="http://www.w3.org/2000/svg">
  <defs>
    <rect width="15" height="15" id="artboard_1" />
    <clipPath id="clip_1">
      <use xlink:href="#artboard_1" clip-rule="evenodd" />
    </clipPath>
  </defs>
  <g id="icon--arrow-curvy-up" clip-path="url(#clip_1)">
    <path d="M3 4.39999C3 3.01928 4.11929 1.89999 5.5 1.89999C6.88071 1.89999 8 3.01928 8 4.39999L8 10.6C8 11.4284 8.67157 12.1 9.5 12.1C10.2797 12.1 10.9204 11.5051 10.9931 10.7445L11 10.6L11 9.96699L10.9988 9.89983L11.0017 3.47699L9.96784 4.63196C9.78682 4.81298 9.44176 4.81298 9.26073 4.63196C9.07971 4.45093 9.05143 4.13416 9.23245 3.95313L11.1498 2.03576C11.3308 1.85474 11.6759 1.85474 11.8569 2.03576L13.7743 3.95313C13.9553 4.13416 13.927 4.45093 13.746 4.63196C13.565 4.81298 13.2199 4.81298 13.0389 4.63196L12.0028 3.47399L12 10.6C12 11.9807 10.8807 13.1 9.5 13.1C8.11929 13.1 7 11.9807 7 10.6L7 4.39999C7 3.57157 6.32843 2.89999 5.5 2.89999C4.7203 2.89999 4.07955 3.49488 4.00687 4.25553L4 4.39999L4 12.5C4 12.7761 3.77614 13 3.5 13C3.22386 13 3 12.7761 3 12.5L3 4.39999Z" id="Path" fill="#000000" fill-rule="evenodd" stroke="none" artboard="584f5c68-4405-4a59-a240-f471b87e5c31" />
  </g>
</svg>