<?xml version="1.0" encoding="utf-8"?>
<svg width="15px" height="15px" viewBox="0 0 15 15" version="1.1" xmlns:xlink="http://www.w3.org/1999/xlink" xmlns="http://www.w3.org/2000/svg">
  <defs>
    <rect width="15" height="15" id="artboard_1" />
    <clipPath id="clip_1">
      <use xlink:href="#artboard_1" clip-rule="evenodd" />
    </clipPath>
  </defs>
  <g id="icon--arrow-select-to-left" clip-path="url(#clip_1)">
    <path d="M2 6.20658L2 10.5C2 10.7761 2.22386 11 2.5 11L6.79227 11C7.06841 11 7.29227 10.7761 7.29227 10.5C7.29227 10.3673 7.23954 10.2401 7.14569 10.1463L6.13036 9.13172C7.52111 7.38196 10.3445 7.02492 12.2748 8.03607C12.5727 8.19211 12.9445 8.45321 13.4098 8.8559C13.5153 8.94717 13.6725 8.94473 13.7751 8.85021C13.8768 8.75647 13.8864 8.59913 13.7968 8.49372L13.5169 8.17479C10.6894 5.12702 6.55388 4.73652 3.79057 6.78949L2.85345 5.85292C2.65813 5.65772 2.34154 5.65782 2.14634 5.85314C2.05264 5.9469 2 6.07403 2 6.20658Z" id="Path" fill="#000000" fill-rule="evenodd" stroke="none" artboard="d3f08cfd-d2cd-4096-9212-e3f465843956" />
  </g>
</svg>