<?xml version="1.0" encoding="utf-8"?>
<svg width="15px" height="15px" viewBox="0 0 15 15" version="1.1" xmlns:xlink="http://www.w3.org/1999/xlink" xmlns="http://www.w3.org/2000/svg">
  <defs>
    <rect width="15" height="15" id="artboard_1" />
    <clipPath id="clip_1">
      <use xlink:href="#artboard_1" clip-rule="evenodd" />
    </clipPath>
  </defs>
  <g id="icon--arrow-move-left-down" clip-path="url(#clip_1)">
    <path d="M12.0037 4.49789L12.0016 11.4214L13.0355 10.2664C13.2166 10.0854 13.5616 10.0854 13.7426 10.2664C13.9237 10.4474 13.9519 10.7642 13.7709 10.9452L11.8536 12.8626C11.6725 13.0436 11.3275 13.0436 11.1464 12.8626L9.22907 10.9452C9.04805 10.7642 9.07634 10.4474 9.25736 10.2664C9.43838 10.0854 9.78344 10.0854 9.96447 10.2664L11.0006 11.4244L11 4.50198C10.9998 4.22591 10.7761 4.0021 10.5 4.00185L3.577 3.99998L4.73196 5.03389C4.91298 5.21491 4.91298 5.55997 4.73196 5.741C4.55094 5.92202 4.23416 5.9503 4.05314 5.76928L2.13577 3.85191C1.95474 3.67089 1.95474 3.32583 2.13577 3.1448L4.05314 1.22743C4.23416 1.04641 4.55094 1.07469 4.73196 1.25572C4.91298 1.43674 4.91298 1.7818 4.73196 1.96282L3.574 2.99898L10.5036 2.99847C11.3321 2.99794 12.0037 3.66946 12.0037 4.49789Z" id="Path" fill="#000000" fill-rule="evenodd" stroke="none" artboard="e1d75dcf-e190-4913-ad67-6e8b48066622" />
  </g>
</svg>