<?xml version="1.0" encoding="utf-8"?>
<svg width="15px" height="15px" viewBox="0 0 15 15" version="1.1" xmlns:xlink="http://www.w3.org/1999/xlink" xmlns="http://www.w3.org/2000/svg">
  <defs>
    <rect width="15" height="15" id="artboard_1" />
    <clipPath id="clip_1">
      <use xlink:href="#artboard_1" clip-rule="evenodd" />
    </clipPath>
  </defs>
  <g id="icon--arrow-turn-down" clip-path="url(#clip_1)">
    <path d="M11.7443 10.268C11.5632 10.087 11.2182 10.087 11.0372 10.268L10.001 11.426L10 4.89999C10 3.24314 8.65685 1.89999 7 1.89999C5.34315 1.89999 4 3.24314 4 4.89999L4.004 4.99499L4 4.99999L4 9.49999C4 9.77614 4.22386 9.99999 4.5 9.99999C4.77614 9.99999 5 9.77614 5 9.49999L5 4.89999C5 3.79542 5.89543 2.89999 7 2.89999C8.10457 2.89999 9 3.79542 9 4.89999L8.997 5.00015L9 11.423L7.96609 10.268C7.78507 10.087 7.44001 10.087 7.25898 10.268C7.07796 10.4491 7.04968 10.7658 7.2307 10.9469L9.14807 12.8642C9.32909 13.0452 9.67416 13.0452 9.85518 12.8642L11.7725 10.9469C11.9536 10.7658 11.9253 10.4491 11.7443 10.268Z" id="Path" fill="#000000" fill-rule="evenodd" stroke="none" artboard="b686c0f0-2bff-46cf-95c0-925fa626a1d3" />
  </g>
</svg>