<?xml version="1.0" encoding="utf-8"?>
<svg width="15px" height="15px" viewBox="0 0 15 15" version="1.1" xmlns:xlink="http://www.w3.org/1999/xlink" xmlns="http://www.w3.org/2000/svg">
  <defs>
    <rect width="15" height="15" id="artboard_1" />
    <clipPath id="clip_1">
      <use xlink:href="#artboard_1" clip-rule="evenodd" />
    </clipPath>
  </defs>
  <g id="icon--arrow-move-right-down" clip-path="url(#clip_1)">
    <path d="M2.99962 4.49789L3.00174 11.4214L1.96783 10.2664C1.7868 10.0854 1.44174 10.0854 1.26072 10.2664C1.0797 10.4474 1.05141 10.7642 1.23244 10.9452L3.14981 12.8626C3.33083 13.0436 3.67589 13.0436 3.85691 12.8626L5.77429 10.9452C5.95531 10.7642 5.92702 10.4474 5.746 10.2664C5.56498 10.0854 5.21992 10.0854 5.03889 10.2664L4.00274 11.4244L4.00332 4.50198C4.00352 4.22591 4.22729 4.0021 4.50336 4.00185L11.4264 3.99998L10.2714 5.03389C10.0904 5.21491 10.0904 5.55997 10.2714 5.741C10.4524 5.92202 10.7692 5.9503 10.9502 5.76928L12.8676 3.85191C13.0486 3.67089 13.0486 3.32583 12.8676 3.1448L10.9502 1.22743C10.7692 1.04641 10.4524 1.07469 10.2714 1.25572C10.0904 1.43674 10.0904 1.7818 10.2714 1.96282L11.4294 2.99898L4.49974 2.99847C3.67131 2.99794 2.99969 3.66946 2.99962 4.49789Z" id="Path" fill="#000000" fill-rule="evenodd" stroke="none" artboard="4271261c-eb21-4a69-bc84-1268db02e173" />
  </g>
</svg>