<?xml version="1.0" encoding="utf-8"?>
<svg width="15px" height="15px" viewBox="0 0 15 15" version="1.1" xmlns:xlink="http://www.w3.org/1999/xlink" xmlns="http://www.w3.org/2000/svg">
  <defs>
    <rect width="15" height="15" id="artboard_1" />
    <clipPath id="clip_1">
      <use xlink:href="#artboard_1" clip-rule="evenodd" />
    </clipPath>
  </defs>
  <g id="icon--arrow-turn-right" clip-path="url(#clip_1)">
    <path d="M10.2681 3.25575C10.087 3.43677 10.087 3.78183 10.2681 3.96285L11.426 4.99901L4.90002 5.00001C3.24317 5.00001 1.90002 6.34316 1.90002 8.00001C1.90002 9.65687 3.24317 11 4.90002 11L4.99502 10.996L5.00002 11L9.50002 11C9.77617 11 10 10.7762 10 10.5C10 10.2239 9.77617 10 9.50002 10L4.90002 10C3.79545 10 2.90002 9.10458 2.90002 8.00001C2.90002 6.89544 3.79545 6.00001 4.90002 6.00001L5.00019 6.00301L11.423 6.00001L10.2681 7.03392C10.087 7.21494 10.087 7.56 10.2681 7.74103C10.4491 7.92205 10.7659 7.95033 10.9469 7.76931L12.8643 5.85194C13.0453 5.67092 13.0453 5.32586 12.8643 5.14483L10.9469 3.22746C10.7659 3.04644 10.4491 3.07472 10.2681 3.25575Z" id="Path" fill="#000000" fill-rule="evenodd" stroke="none" artboard="d2d372bf-2fd7-47c1-b4e5-63fe1b927869" />
  </g>
</svg>