<?xml version="1.0" encoding="utf-8"?>
<svg width="15px" height="15px" viewBox="0 0 15 15" version="1.1" xmlns:xlink="http://www.w3.org/1999/xlink" xmlns="http://www.w3.org/2000/svg">
  <defs>
    <rect width="15" height="15" id="artboard_1" />
    <clipPath id="clip_1">
      <use xlink:href="#artboard_1" clip-rule="evenodd" />
    </clipPath>
  </defs>
  <g id="icon--arrow-to-down" clip-path="url(#clip_1)">
    <path d="M11.5 12C11.7761 12 12 12.2239 12 12.5C12 12.7761 11.7761 13 11.5 13L3.5 13C3.22386 13 3 12.7761 3 12.5C3 12.2239 3.22386 12 3.5 12L11.5 12ZM7.49838 1.99838C7.74384 1.99838 7.94799 2.17526 7.99032 2.40851L7.99838 2.49838L7.99938 9.42438L11.0355 6.26642C11.2166 6.0854 11.5616 6.0854 11.7426 6.26642C11.901 6.42482 11.9425 6.68715 11.8291 6.87153L11.7709 6.94524L7.85356 10.8626C7.69516 11.021 7.41118 11.0408 7.22138 10.922L7.14645 10.8626L3.22908 6.94524C3.04806 6.76422 3.07634 6.44744 3.25736 6.26642C3.41576 6.10803 3.69974 6.08823 3.88954 6.20702L3.96447 6.26642L6.99838 9.42138L6.99838 2.49838C6.99838 2.22224 7.22224 1.99838 7.49838 1.99838Z" id="Shape" fill="#000000" fill-rule="evenodd" stroke="none" artboard="76214411-79c8-49c0-a155-06bd09e6dde4" />
  </g>
</svg>