<?xml version="1.0" encoding="utf-8"?>
<svg width="15px" height="15px" viewBox="0 0 15 15" version="1.1" xmlns:xlink="http://www.w3.org/1999/xlink" xmlns="http://www.w3.org/2000/svg">
  <defs>
    <rect width="15" height="15" id="artboard_1" />
    <clipPath id="clip_1">
      <use xlink:href="#artboard_1" clip-rule="evenodd" />
    </clipPath>
  </defs>
  <g id="icon--arrow-curvy-left" clip-path="url(#clip_1)">
    <path d="M4.40002 3C3.01931 3 1.90002 4.11929 1.90002 5.5C1.90002 6.88071 3.01931 8 4.40002 8L10.6 8C11.4285 8 12.1 8.67157 12.1 9.5C12.1 10.2797 11.5051 10.9204 10.7445 10.9931L10.6 11L9.96702 11L9.89986 10.9988L3.47702 11.0017L4.63199 9.96784C4.81301 9.78682 4.81301 9.44176 4.63199 9.26073C4.45096 9.07971 4.13419 9.05143 3.95316 9.23245L2.03579 11.1498C1.85477 11.3308 1.85477 11.6759 2.03579 11.8569L3.95316 13.7743C4.13419 13.9553 4.45096 13.927 4.63199 13.746C4.81301 13.565 4.81301 13.2199 4.63199 13.0389L3.47402 12.0028L10.6 12C11.9807 12 13.1 10.8807 13.1 9.5C13.1 8.11929 11.9807 7 10.6 7L4.40002 7C3.5716 7 2.90002 6.32843 2.90002 5.5C2.90002 4.7203 3.49491 4.07955 4.25556 4.00687L4.40002 4L12.5 4C12.7762 4 13 3.77614 13 3.5C13 3.22386 12.7762 3 12.5 3L4.40002 3Z" id="Path" fill="#000000" fill-rule="evenodd" stroke="none" artboard="464ea83d-963a-459d-b5ca-b844abef25e0" />
  </g>
</svg>