<?xml version="1.0" encoding="utf-8"?>
<svg width="15px" height="15px" viewBox="0 0 15 15" version="1.1" xmlns:xlink="http://www.w3.org/1999/xlink" xmlns="http://www.w3.org/2000/svg">
  <defs>
    <rect width="15" height="15" id="artboard_1" />
    <clipPath id="clip_1">
      <use xlink:href="#artboard_1" clip-rule="evenodd" />
    </clipPath>
  </defs>
  <g id="icon--arrow-up-down" clip-path="url(#clip_1)">
    <path d="M7.00183 2.36023L7.00086 12.5009C7.00086 12.777 6.77701 13.0009 6.50086 13.0009C6.22472 13.0009 6.00086 12.777 6.00086 12.5009L6.00087 3.57785L3.96696 5.73281C3.78593 5.91384 3.44087 5.91384 3.25985 5.73281C3.07883 5.55179 3.05054 5.23501 3.23157 5.05399L6.02907 2.25503C6.19173 2.09229 6.41239 2.00085 6.64249 2.00085C6.81614 2.00085 6.96102 2.12403 6.99453 2.28777L7.00183 2.36023ZM11.7684 9.94771L8.97092 12.7467C8.80826 12.9094 8.58759 13.0009 8.35749 13.0009C8.18384 13.0009 8.03896 12.8777 8.00545 12.7139L7.99815 12.6415L7.99912 2.50085C7.99912 2.22471 8.22298 2.00085 8.49912 2.00085C8.77526 2.00085 8.99912 2.22471 8.99912 2.50085L8.99912 11.4239L11.033 9.26889C11.2141 9.08787 11.5591 9.08787 11.7401 9.26889C11.9212 9.44991 11.9494 9.76669 11.7684 9.94771Z" id="Shape" fill="#000000" fill-rule="evenodd" stroke="none" artboard="0471a3ee-0f09-4af6-bede-95a622019837" />
  </g>
</svg>