<?xml version="1.0" encoding="utf-8"?>
<svg width="15px" height="15px" viewBox="0 0 15 15" version="1.1" xmlns:xlink="http://www.w3.org/1999/xlink" xmlns="http://www.w3.org/2000/svg">
  <defs>
    <rect width="15" height="15" id="artboard_1" />
    <clipPath id="clip_1">
      <use xlink:href="#artboard_1" clip-rule="evenodd" />
    </clipPath>
  </defs>
  <g id="icon--arrow-exchange-up-down" clip-path="url(#clip_1)">
    <path d="M7.74264 4.73034C7.56161 4.91136 7.21655 4.91136 7.03553 4.73034L5.99937 3.57238L5.99837 12.4984C5.99837 12.7745 5.77451 12.9984 5.49837 12.9984C5.22223 12.9984 4.99837 12.7745 4.99837 12.4984L4.99837 3.57538L3.96446 4.73034C3.78344 4.91136 3.43838 4.91136 3.25736 4.73034C3.07633 4.54932 3.04805 4.23254 3.22907 4.05152L5.14644 2.13415C5.32747 1.95312 5.67253 1.95312 5.85355 2.13415L7.77092 4.05152C7.95194 4.23254 7.92366 4.54932 7.74264 4.73034ZM11.7426 10.2664C11.901 10.4248 11.9425 10.6871 11.8291 10.8715L11.7709 10.9452L9.85355 12.8626C9.69515 13.021 9.41117 13.0408 9.22137 12.922L9.14644 12.8626L7.22907 10.9452C7.04805 10.7642 7.07633 10.4474 7.25736 10.2664C7.41575 10.108 7.69974 10.0882 7.88953 10.207L7.96446 10.2664L8.99837 11.4214L8.99837 2.49838C8.99837 2.22224 9.22223 1.99838 9.49837 1.99838C9.74383 1.99838 9.94798 2.17526 9.99032 2.4085L9.99837 2.49838L9.99937 11.4244L11.0355 10.2664C11.2166 10.0854 11.5616 10.0854 11.7426 10.2664Z" id="Shape" fill="#000000" fill-rule="evenodd" stroke="none" artboard="725ef4d2-0a78-49b9-b6ab-4fbf3c674d61" />
  </g>
</svg>