<?xml version="1.0" encoding="utf-8"?>
<svg width="15px" height="15px" viewBox="0 0 15 15" version="1.1" xmlns:xlink="http://www.w3.org/1999/xlink" xmlns="http://www.w3.org/2000/svg">
  <defs>
    <rect width="15" height="15" id="artboard_1" />
    <clipPath id="clip_1">
      <use xlink:href="#artboard_1" clip-rule="evenodd" />
    </clipPath>
  </defs>
  <g id="icon--arrow-curvy-down" clip-path="url(#clip_1)">
    <path d="M3 10.6C3 11.9807 4.11929 13.1 5.5 13.1C6.88071 13.1 8 11.9807 8 10.6L8 4.39999C8 3.57157 8.67157 2.89999 9.5 2.89999C10.2797 2.89999 10.9204 3.49488 10.9931 4.25553L11 4.39999L11 5.03299L10.9988 5.10015L11.0017 11.523L9.96784 10.368C9.78682 10.187 9.44176 10.187 9.26073 10.368C9.07971 10.5491 9.05143 10.8658 9.23245 11.0469L11.1498 12.9642C11.3308 13.1452 11.6759 13.1452 11.8569 12.9642L13.7743 11.0469C13.9553 10.8658 13.927 10.5491 13.746 10.368C13.565 10.187 13.2199 10.187 13.0389 10.368L12.0028 11.526L12 4.39999C12 3.01928 10.8807 1.89999 9.5 1.89999C8.11929 1.89999 7 3.01928 7 4.39999L7 10.6C7 11.4284 6.32843 12.1 5.5 12.1C4.7203 12.1 4.07955 11.5051 4.00687 10.7445L4 10.6L4 2.49999C4 2.22385 3.77614 1.99999 3.5 1.99999C3.22386 1.99999 3 2.22385 3 2.49999L3 10.6Z" id="Path" fill="#000000" fill-rule="evenodd" stroke="none" artboard="9227379b-83b3-4ea4-bb9f-b7e528e84226" />
  </g>
</svg>