<?xml version="1.0" encoding="utf-8"?>
<svg width="15px" height="15px" viewBox="0 0 15 15" version="1.1" xmlns:xlink="http://www.w3.org/1999/xlink" xmlns="http://www.w3.org/2000/svg">
  <defs>
    <rect width="15" height="15" id="artboard_1" />
    <clipPath id="clip_1">
      <use xlink:href="#artboard_1" clip-rule="evenodd" />
    </clipPath>
  </defs>
  <g id="icon--arrow-exchange-right-left" clip-path="url(#clip_1)">
    <path d="M10.268 3.25575C10.087 3.43677 10.087 3.78183 10.268 3.96285L11.426 4.99901L2.5 5.00001C2.22386 5.00001 2 5.22387 2 5.50001C2 5.77615 2.22386 6.00001 2.5 6.00001L11.423 6.00001L10.268 7.03392C10.087 7.21494 10.087 7.56 10.268 7.74103C10.4491 7.92205 10.7658 7.95033 10.9469 7.76931L12.8642 5.85194C13.0453 5.67092 13.0453 5.32586 12.8642 5.14483L10.9469 3.22746C10.7658 3.04644 10.4491 3.07472 10.268 3.25575Z" id="Path" fill="#000000" fill-rule="evenodd" stroke="none" artboard="42cece3a-8265-4f77-af56-2096a20dc7e3" />
    <path d="M4.73196 7.25575C4.91298 7.43677 4.91298 7.78183 4.73196 7.96285L3.574 8.99901L12.5 9.00001C12.7761 9.00001 13 9.22387 13 9.50001C13 9.77615 12.7761 10 12.5 10L3.577 10L4.73196 11.0339C4.91298 11.2149 4.91298 11.56 4.73196 11.741C4.55094 11.922 4.23416 11.9503 4.05314 11.7693L2.13577 9.85194C1.95474 9.67092 1.95474 9.32586 2.13577 9.14483L4.05314 7.22746C4.23416 7.04644 4.55094 7.07472 4.73196 7.25575Z" id="Path" fill="#000000" fill-rule="evenodd" stroke="none" artboard="72f8efe1-a77c-4815-a8cc-efe5d02b2c11" />
  </g>
</svg>