<?xml version="1.0" encoding="utf-8"?>
<svg width="15px" height="15px" viewBox="0 0 15 15" version="1.1" xmlns:xlink="http://www.w3.org/1999/xlink" xmlns="http://www.w3.org/2000/svg">
  <defs>
    <rect width="15" height="15" id="artboard_1" />
    <clipPath id="clip_1">
      <use xlink:href="#artboard_1" clip-rule="evenodd" />
    </clipPath>
  </defs>
  <g id="icon--arrow-to-end" clip-path="url(#clip_1)">
    <path d="M12.5 3C12.7761 3 13 3.22386 13 3.5L13 11.5C13 11.7761 12.7761 12 12.5 12C12.2239 12 12 11.7761 12 11.5L12 3.5C12 3.22386 12.2239 3 12.5 3ZM6.26804 3.25573C6.42643 3.09734 6.68877 3.05588 6.87314 3.16926L6.94686 3.22745L10.8642 7.14482C11.0226 7.30321 11.0424 7.5872 10.9236 7.77699L10.8642 7.85192L6.94686 11.7693C6.76584 11.9503 6.44906 11.922 6.26804 11.741C6.10964 11.5826 6.08984 11.2986 6.20864 11.1088L6.26804 11.0339L9.423 8L2.5 8C2.22386 8 2 7.77614 2 7.5C2 7.25454 2.17688 7.05039 2.41012 7.00805L2.5 7L9.426 6.999L6.26804 3.96284C6.08702 3.78181 6.08702 3.43675 6.26804 3.25573Z" id="Shape" fill="#000000" fill-rule="evenodd" stroke="none" artboard="2ca7c947-8102-4c68-abd0-d438bcdc45bb" />
  </g>
</svg>