<?xml version="1.0" encoding="utf-8"?>
<svg width="15px" height="15px" viewBox="0 0 15 15" version="1.1" xmlns:xlink="http://www.w3.org/1999/xlink" xmlns="http://www.w3.org/2000/svg">
  <defs>
    <rect width="15" height="15" id="artboard_1" />
    <clipPath id="clip_1">
      <use xlink:href="#artboard_1" clip-rule="evenodd" />
    </clipPath>
  </defs>
  <g id="icon--arrow-move-right-up" clip-path="url(#clip_1)">
    <path d="M3.88964 10.5005L3.89175 3.577L2.85784 4.73196C2.67682 4.91298 2.33176 4.91298 2.15073 4.73196C1.96971 4.55094 1.94143 4.23416 2.12245 4.05314L4.03982 2.13577C4.22084 1.95474 4.56591 1.95474 4.74693 2.13577L6.6643 4.05314C6.84532 4.23416 6.81704 4.55094 6.63602 4.73196C6.45499 4.91298 6.10993 4.91298 5.92891 4.73196L4.89275 3.574L4.89333 10.4964C4.89353 10.7724 5.1173 10.9963 5.39338 10.9965L12.3164 10.9984L11.1614 9.96447C10.9804 9.78344 10.9804 9.43838 11.1614 9.25736C11.3424 9.07634 11.6592 9.04805 11.8402 9.22907L13.7576 11.1464C13.9386 11.3275 13.9386 11.6725 13.7576 11.8536L11.8402 13.7709C11.6592 13.9519 11.3424 13.9237 11.1614 13.7426C10.9804 13.5616 10.9804 13.2166 11.1614 13.0355L12.3194 11.9994L5.38975 11.9999C4.56132 12.0004 3.8897 11.3289 3.88964 10.5005Z" id="Path" fill="#000000" fill-rule="evenodd" stroke="none" artboard="cd84c8ac-f608-4e02-8441-158e4ad56a1d" />
  </g>
</svg>