<?xml version="1.0" encoding="utf-8"?>
<svg width="15px" height="15px" viewBox="0 0 15 15" version="1.1" xmlns:xlink="http://www.w3.org/1999/xlink" xmlns="http://www.w3.org/2000/svg">
  <defs>
    <rect width="15" height="15" id="artboard_1" />
    <clipPath id="clip_1">
      <use xlink:href="#artboard_1" clip-rule="evenodd" />
    </clipPath>
  </defs>
  <g id="icon--arrow-merge-up" clip-path="url(#clip_1)">
    <path d="M11.682 12.8879C11.8557 12.7145 11.8751 12.4451 11.7403 12.2502L11.6822 12.1807L7.99802 8.4983L7.99936 3.57403L9.03552 4.73199C9.21654 4.91301 9.56161 4.91301 9.74263 4.73199C9.90102 4.57359 9.94248 4.31126 9.82909 4.12688L9.77091 4.05316L7.85354 2.13579C7.69515 1.9774 7.41116 1.9576 7.22137 2.07639L7.14643 2.13579L5.22906 4.05316C5.04804 4.23419 5.07632 4.55096 5.25735 4.73199C5.41574 4.89038 5.69973 4.91018 5.88952 4.79138L5.96445 4.73199L6.99836 3.57703L6.99802 8.5003L3.31724 12.1812C3.14394 12.3544 3.12469 12.6234 3.25947 12.818L3.31749 12.8874L3.31749 12.8874C3.51277 13.0824 3.82912 13.0823 4.02428 12.8872L7.49899 9.4134L10.9742 12.8877C11.1696 13.0831 11.4864 13.0832 11.682 12.8879Z" id="Path" fill="#000000" fill-rule="evenodd" stroke="none" artboard="b363bf71-9894-457b-87c7-c7fc19241940" />
  </g>
</svg>