<?xml version="1.0" encoding="utf-8"?>
<svg width="15px" height="15px" viewBox="0 0 15 15" version="1.1" xmlns:xlink="http://www.w3.org/1999/xlink" xmlns="http://www.w3.org/2000/svg">
  <defs>
    <rect width="15" height="15" id="artboard_1" />
    <clipPath id="clip_1">
      <use xlink:href="#artboard_1" clip-rule="evenodd" />
    </clipPath>
  </defs>
  <g id="icon--arrow-merge-right" clip-path="url(#clip_1)">
    <path d="M2.11637 3.33498C2.28979 3.16132 2.55916 3.14184 2.75409 3.27668L2.82362 3.33473L6.50597 7.01895L11.4302 7.0176L10.2723 5.98145C10.0913 5.80042 10.0913 5.45536 10.2723 5.27434C10.4307 5.11594 10.693 5.07449 10.8774 5.18787L10.9511 5.24605L12.8685 7.16343C13.0269 7.32182 13.0467 7.60581 12.9279 7.7956L12.8685 7.87053L10.9511 9.7879C10.7701 9.96893 10.4533 9.94064 10.2723 9.75962C10.1139 9.60123 10.0941 9.31724 10.2129 9.12745L10.2723 9.05251L11.4272 8.0186L6.50397 8.01895L2.82312 11.6997C2.64982 11.873 2.38082 11.8923 2.18626 11.7575L2.11687 11.6995L2.11687 11.6995C1.92187 11.5042 1.92196 11.1879 2.11707 10.9927L5.59087 7.51798L2.11657 4.04278C1.92118 3.84733 1.92109 3.53054 2.11637 3.33498Z" id="Path" fill="#000000" fill-rule="evenodd" stroke="none" artboard="a59f2d87-af86-4af9-96ff-23b8e978e6a4" />
  </g>
</svg>