<?xml version="1.0" encoding="utf-8"?>
<svg width="15px" height="15px" viewBox="0 0 15 15" version="1.1" xmlns:xlink="http://www.w3.org/1999/xlink" xmlns="http://www.w3.org/2000/svg">
  <defs>
    <rect width="15" height="15" id="artboard_1" />
    <clipPath id="clip_1">
      <use xlink:href="#artboard_1" clip-rule="evenodd" />
    </clipPath>
  </defs>
  <g id="icon--arrow-move-left-up" clip-path="url(#clip_1)">
    <path d="M12.0037 10.5005L12.0016 3.577L13.0355 4.73196C13.2166 4.91298 13.5616 4.91298 13.7426 4.73196C13.9237 4.55094 13.9519 4.23416 13.7709 4.05314L11.8536 2.13577C11.6725 1.95474 11.3275 1.95474 11.1464 2.13577L9.22907 4.05314C9.04805 4.23416 9.07634 4.55094 9.25736 4.73196C9.43838 4.91298 9.78344 4.91298 9.96447 4.73196L11.0006 3.574L11 10.4964C10.9998 10.7724 10.7761 10.9963 10.5 10.9965L3.577 10.9984L4.73196 9.96447C4.91298 9.78344 4.91298 9.43838 4.73196 9.25736C4.55094 9.07634 4.23416 9.04805 4.05314 9.22907L2.13577 11.1464C1.95474 11.3275 1.95474 11.6725 2.13577 11.8536L4.05314 13.7709C4.23416 13.9519 4.55094 13.9237 4.73196 13.7426C4.91298 13.5616 4.91298 13.2166 4.73196 13.0355L3.574 11.9994L10.5036 11.9999C11.3321 12.0004 12.0037 11.3289 12.0037 10.5005Z" id="Path" fill="#000000" fill-rule="evenodd" stroke="none" artboard="8230febe-31da-4566-9613-a0e563af23fd" />
  </g>
</svg>