<?xml version="1.0" encoding="utf-8"?>
<svg width="15px" height="15px" viewBox="0 0 15 15" version="1.1" xmlns:xlink="http://www.w3.org/1999/xlink" xmlns="http://www.w3.org/2000/svg">
  <defs>
    <rect width="15" height="15" id="artboard_1" />
    <clipPath id="clip_1">
      <use xlink:href="#artboard_1" clip-rule="evenodd" />
    </clipPath>
  </defs>
  <g id="icon--arrow-random" clip-path="url(#clip_1)">
    <path d="M5.163 3.99951L8.352 9.99851L12.426 9.99895L11.268 8.96279C11.087 8.78177 11.087 8.43671 11.268 8.25569C11.4264 8.09729 11.6888 8.05584 11.8731 8.16922L11.9469 8.2274L13.8642 10.1448C14.0226 10.3032 14.0424 10.5872 13.9236 10.7769L13.8642 10.8519L11.9469 12.7693C11.7658 12.9503 11.4491 12.922 11.268 12.741C11.1096 12.5826 11.0898 12.2986 11.2086 12.1088L11.268 12.0339L12.423 11L7.751 10.9995L4.561 4.99951L1.5 4.99987C1.25458 4.99991 1.05044 4.8231 1.00807 4.5899L1 4.49995C1 4.2238 1.22385 3.99992 1.5 3.99988L5.163 3.99951ZM5.5 10L6 11L1.5 11C1.22386 11 1 10.7761 1 10.5C1 10.2239 1.22386 10 1.5 10L5.5 10ZM11.268 2.25571C11.4264 2.09732 11.6888 2.05587 11.8731 2.16925L11.9469 2.22743L13.8642 4.1448C14.0226 4.3032 14.0424 4.58718 13.9236 4.77698L13.8642 4.85191L11.9469 6.76928C11.7658 6.9503 11.4491 6.92202 11.268 6.741C11.1096 6.5826 11.0898 6.29861 11.2086 6.10882L11.268 6.03389L12.423 4.99998L7.5 4.99998L7 3.99998L12.426 3.99898L11.268 2.96282C11.087 2.7818 11.087 2.43674 11.268 2.25571Z" id="Shape" fill="#000000" fill-rule="evenodd" stroke="none" artboard="d46ef735-b773-491a-a9ad-acc7620fab8b" />
  </g>
</svg>