<?xml version="1.0" encoding="utf-8"?>
<svg width="15px" height="15px" viewBox="0 0 15 15" version="1.1" xmlns:xlink="http://www.w3.org/1999/xlink" xmlns="http://www.w3.org/2000/svg">
  <defs>
    <rect width="15" height="15" id="artboard_1" />
    <clipPath id="clip_1">
      <use xlink:href="#artboard_1" clip-rule="evenodd" />
    </clipPath>
  </defs>
  <g id="icon--arrow-split-up" clip-path="url(#clip_1)">
    <path d="M2.00446 5.20712L2.01544 5.30038C2.06564 5.51093 2.28045 5.66712 2.50446 5.66712C2.73202 5.66712 2.95009 5.47433 2.99574 5.25169L3.00446 5.16712L2.91833 3.61564L7.0051 7.70154L7.00361 12.495C7.00353 12.7407 7.18047 12.945 7.41387 12.9875L7.50396 12.9955C7.78038 12.9955 8.00448 12.7715 8.00452 12.495L8.0051 7.69954L11.6859 4.01869L11.7255 3.97154L12.0817 3.61564L11.9956 5.16712C11.9956 5.42312 12.2396 5.66712 12.4956 5.66712C12.7196 5.66712 12.9344 5.51093 12.9846 5.30038L12.9956 5.20712L12.9956 2.49554C12.9956 2.27154 12.8088 2.05673 12.5906 2.00653L12.4956 1.99554L9.784 1.99554C9.55644 1.99554 9.36998 2.18833 9.33135 2.41097L9.324 2.49554C9.324 2.71955 9.51081 2.93436 9.72902 2.98456L9.824 2.99554L11.3718 2.90995L9.30446 4.97677L9.30846 4.98154L7.50413 6.78645L3.62826 2.90995L5.17603 2.99554L5.27101 2.98456C5.48922 2.93436 5.67603 2.71955 5.67603 2.49554C5.67603 2.26798 5.51485 2.04991 5.29923 2.00426L5.21603 1.99554L2.50446 1.99554L2.40947 2.00653C2.21854 2.05046 2.05165 2.22041 2.01291 2.41228L2.00446 2.49554L2.00446 5.20712Z" id="Path" fill="#000000" fill-rule="evenodd" stroke="none" artboard="e9f45268-8a68-4a69-8187-c259646cba38" />
  </g>
</svg>