<?xml version="1.0" encoding="utf-8"?>
<svg width="15px" height="15px" viewBox="0 0 15 15" version="1.1" xmlns:xlink="http://www.w3.org/1999/xlink" xmlns="http://www.w3.org/2000/svg">
  <defs>
    <rect width="15" height="15" id="artboard_1" />
    <clipPath id="clip_1">
      <use xlink:href="#artboard_1" clip-rule="evenodd" />
    </clipPath>
  </defs>
  <g id="icon--carret-move-left-right" clip-path="url(#clip_1)">
    <path d="M7.50198 2C7.22584 2 7.00198 2.22386 7.00198 2.5L7.00198 12.5C7.00198 12.7761 7.22584 13 7.50198 13C7.77813 13 8.00198 12.7761 8.00198 12.5L8.00198 2.5C8.00198 2.22386 7.77813 2 7.50198 2ZM2.96645 4.96645C2.77119 5.16172 2.77119 5.4783 2.96645 5.67356L4.79488 7.50199L2.96645 9.33042C2.77119 9.52568 2.77119 9.84226 2.96645 10.0375C3.16172 10.2328 3.4783 10.2328 3.67356 10.0375L5.85554 7.85554C6.0508 7.66028 6.0508 7.3437 5.85554 7.14843L3.67356 4.96645C3.4783 4.77119 3.16172 4.77119 2.96645 4.96645ZM12.0355 4.96645C12.2308 5.16172 12.2308 5.4783 12.0355 5.67356L10.2071 7.50199L12.0355 9.33042C12.2308 9.52568 12.2308 9.84226 12.0355 10.0375C11.8403 10.2328 11.5237 10.2328 11.3284 10.0375L9.14644 7.85554C8.95118 7.66028 8.95118 7.3437 9.14644 7.14843L11.3284 4.96645C11.5237 4.77119 11.8403 4.77119 12.0355 4.96645Z" id="Shape" fill="#000000" fill-rule="evenodd" stroke="none" artboard="56548fab-06fe-4c9e-b1c4-18fd09a31976" />
  </g>
</svg>