<?xml version="1.0" encoding="utf-8"?>
<svg width="15px" height="15px" viewBox="0 0 15 15" version="1.1" xmlns:xlink="http://www.w3.org/1999/xlink" xmlns="http://www.w3.org/2000/svg">
  <defs>
    <rect width="15" height="15" id="artboard_1" />
    <clipPath id="clip_1">
      <use xlink:href="#artboard_1" clip-rule="evenodd" />
    </clipPath>
  </defs>
  <g id="icon--carret-doueble-down" clip-path="url(#clip_1)">
    <path d="M10.3304 3.96645C10.5257 3.77119 10.8423 3.77119 11.0375 3.96645C11.2328 4.16172 11.2328 4.4783 11.0375 4.67356L7.85554 7.85554C7.66028 8.0508 7.3437 8.0508 7.14843 7.85554L3.96645 4.67356C3.77119 4.4783 3.77119 4.16172 3.96645 3.96645C4.16172 3.77119 4.4783 3.77119 4.67356 3.96645L7.50199 6.79488L10.3304 3.96645ZM10.3304 7.96645C10.5257 7.77119 10.8423 7.77119 11.0375 7.96645C11.2328 8.16172 11.2328 8.4783 11.0375 8.67356L7.85554 11.8555C7.66028 12.0508 7.3437 12.0508 7.14843 11.8555L3.96645 8.67356C3.77119 8.4783 3.77119 8.16172 3.96645 7.96645C4.16172 7.77119 4.4783 7.77119 4.67356 7.96645L7.50199 10.7949L10.3304 7.96645Z" id="Combined-Shape" fill="#000000" fill-rule="evenodd" stroke="none" artboard="1cbbad0e-12c1-4ce8-a1e3-6e8b69525231" />
  </g>
</svg>