<?xml version="1.0" encoding="utf-8"?>
<svg width="15px" height="15px" viewBox="0 0 15 15" version="1.1" xmlns:xlink="http://www.w3.org/1999/xlink" xmlns="http://www.w3.org/2000/svg">
  <defs>
    <rect width="15" height="15" id="artboard_1" />
    <clipPath id="clip_1">
      <use xlink:href="#artboard_1" clip-rule="evenodd" />
    </clipPath>
  </defs>
  <g id="icon--carret-double-right" clip-path="url(#clip_1)">
    <path d="M3.96645 4.67356C3.77119 4.4783 3.77119 4.16172 3.96645 3.96645C4.16172 3.77119 4.4783 3.77119 4.67356 3.96645L7.85554 7.14843C8.0508 7.3437 8.0508 7.66028 7.85554 7.85554L4.67356 11.0375C4.4783 11.2328 4.16172 11.2328 3.96645 11.0375C3.77119 10.8423 3.77119 10.5257 3.96645 10.3304L6.79488 7.50199L3.96645 4.67356ZM7.96645 4.67356C7.77119 4.4783 7.77119 4.16172 7.96645 3.96645C8.16172 3.77119 8.4783 3.77119 8.67356 3.96645L11.8555 7.14843C12.0508 7.3437 12.0508 7.66028 11.8555 7.85554L8.67356 11.0375C8.4783 11.2328 8.16172 11.2328 7.96645 11.0375C7.77119 10.8423 7.77119 10.5257 7.96645 10.3304L10.7949 7.50199L7.96645 4.67356Z" id="Combined-Shape" fill="#000000" fill-rule="evenodd" stroke="none" artboard="8e57c903-5575-45f1-890e-b7ca892fa06d" />
  </g>
</svg>