<?xml version="1.0" encoding="utf-8"?>
<svg width="15px" height="15px" viewBox="0 0 15 15" version="1.1" xmlns:xlink="http://www.w3.org/1999/xlink" xmlns="http://www.w3.org/2000/svg">
  <defs>
    <rect width="15" height="15" id="artboard_1" />
    <clipPath id="clip_1">
      <use xlink:href="#artboard_1" clip-rule="evenodd" />
    </clipPath>
  </defs>
  <g id="icon--carret-move-up-down" clip-path="url(#clip_1)">
    <path d="M13.001 7.50097C13.001 7.22483 12.7771 7.00097 12.501 7.00097L2.50098 7.00097C2.22483 7.00097 2.00098 7.22483 2.00098 7.50097C2.00098 7.77712 2.22483 8.00097 2.50098 8.00097L12.501 8.00097C12.7771 8.00097 13.001 7.77712 13.001 7.50097ZM10.0345 2.96544C9.83926 2.77018 9.52268 2.77018 9.32742 2.96544L7.49899 4.79387L5.67056 2.96544C5.4753 2.77018 5.15872 2.77018 4.96346 2.96544C4.76819 3.16071 4.76819 3.47729 4.96346 3.67255L7.14544 5.85453C7.3407 6.04979 7.65728 6.04979 7.85254 5.85453L10.0345 3.67255C10.2298 3.47729 10.2298 3.16071 10.0345 2.96544ZM10.0345 12.0345C9.83926 12.2298 9.52268 12.2298 9.32742 12.0345L7.49899 10.2061L5.67056 12.0345C5.4753 12.2298 5.15872 12.2298 4.96346 12.0345C4.76819 11.8393 4.76819 11.5227 4.96346 11.3274L7.14543 9.14543C7.3407 8.95017 7.65728 8.95017 7.85254 9.14543L10.0345 11.3274C10.2298 11.5227 10.2298 11.8393 10.0345 12.0345Z" id="Shape" fill="#000000" fill-rule="evenodd" stroke="none" artboard="5d9dd045-5c7f-48a0-ae16-41003ceda6a2" />
  </g>
</svg>