<?xml version="1.0" encoding="utf-8"?>
<svg width="15px" height="15px" viewBox="0 0 15 15" version="1.1" xmlns:xlink="http://www.w3.org/1999/xlink" xmlns="http://www.w3.org/2000/svg">
  <defs>
    <rect width="15" height="15" id="artboard_1" />
    <clipPath id="clip_1">
      <use xlink:href="#artboard_1" clip-rule="evenodd" />
    </clipPath>
  </defs>
  <g id="icon--carret-double-left" clip-path="url(#clip_1)">
    <path d="M7.03553 3.96645C7.2308 4.16172 7.2308 4.4783 7.03553 4.67356L4.20711 7.50199L7.03553 10.3304C7.2308 10.5257 7.2308 10.8423 7.03553 11.0375C6.84027 11.2328 6.52369 11.2328 6.32843 11.0375L3.14645 7.85554C2.95118 7.66028 2.95118 7.3437 3.14645 7.14843L6.32843 3.96645C6.52369 3.77119 6.84027 3.77119 7.03553 3.96645ZM11.0355 3.96645C11.2308 4.16172 11.2308 4.4783 11.0355 4.67356L8.20711 7.50199L11.0355 10.3304C11.2308 10.5257 11.2308 10.8423 11.0355 11.0375C10.8403 11.2328 10.5237 11.2328 10.3284 11.0375L7.14645 7.85554C6.95118 7.66028 6.95118 7.3437 7.14645 7.14843L10.3284 3.96645C10.5237 3.77119 10.8403 3.77119 11.0355 3.96645Z" id="Shape" fill="#000000" fill-rule="evenodd" stroke="none" artboard="afe984e0-cbb3-4a63-9518-03437f24dd6a" />
  </g>
</svg>