<?xml version="1.0" encoding="utf-8"?>
<svg width="15px" height="15px" viewBox="0 0 15 15" version="1.1" xmlns:xlink="http://www.w3.org/1999/xlink" xmlns="http://www.w3.org/2000/svg">
  <defs>
    <rect width="15" height="15" id="artboard_1" />
    <clipPath id="clip_1">
      <use xlink:href="#artboard_1" clip-rule="evenodd" />
    </clipPath>
  </defs>
  <g id="icon--carret-sort" clip-path="url(#clip_1)">
    <path d="M4.95644 8.95644C5.13001 8.78288 5.39944 8.76359 5.5943 8.89859L5.66355 8.95644L7.50203 10.7949L9.34051 8.95644C9.53577 8.76118 9.85235 8.76118 10.0476 8.95644C10.2212 9.13001 10.2405 9.39944 10.1055 9.5943L10.0476 9.66355L7.85558 11.8556C7.68202 12.0291 7.41259 12.0484 7.21772 11.9134L7.14847 11.8556L4.95644 9.66355C4.76118 9.46829 4.76118 9.15171 4.95644 8.95644ZM7.85558 3.14645L10.0476 5.33848C10.2429 5.53374 10.2429 5.85032 10.0476 6.04558C9.85235 6.24085 9.53577 6.24085 9.34051 6.04558L7.50203 4.20711L5.66355 6.04558C5.46829 6.24085 5.15171 6.24085 4.95644 6.04558C4.76118 5.85032 4.76118 5.53374 4.95644 5.33848L7.14847 3.14645C7.34374 2.95118 7.66032 2.95118 7.85558 3.14645Z" id="Shape" fill="#000000" fill-rule="evenodd" stroke="none" artboard="48262e6b-1eae-484c-b6b8-4ffbe97df6ef" />
  </g>
</svg>