<?xml version="1.0" encoding="utf-8"?>
<svg width="15px" height="15px" viewBox="0 0 15 15" version="1.1" xmlns:xlink="http://www.w3.org/1999/xlink" xmlns="http://www.w3.org/2000/svg">
  <defs>
    <rect width="15" height="15" id="artboard_1" />
    <clipPath id="clip_1">
      <use xlink:href="#artboard_1" clip-rule="evenodd" />
    </clipPath>
  </defs>
  <g id="icon--carret-double-up" clip-path="url(#clip_1)">
    <path d="M10.3304 7.03553C10.5257 7.2308 10.8423 7.2308 11.0375 7.03553C11.2328 6.84027 11.2328 6.52369 11.0375 6.32843L7.85554 3.14645C7.66028 2.95118 7.3437 2.95118 7.14843 3.14645L3.96645 6.32843C3.77119 6.52369 3.77119 6.84027 3.96645 7.03553C4.16172 7.2308 4.4783 7.2308 4.67356 7.03553L7.50199 4.20711L10.3304 7.03553ZM10.3304 11.0355C10.5257 11.2308 10.8423 11.2308 11.0375 11.0355C11.2328 10.8403 11.2328 10.5237 11.0375 10.3284L7.85554 7.14645C7.66028 6.95118 7.3437 6.95118 7.14843 7.14645L3.96645 10.3284C3.77119 10.5237 3.77119 10.8403 3.96645 11.0355C4.16172 11.2308 4.4783 11.2308 4.67356 11.0355L7.50199 8.20711L10.3304 11.0355Z" id="Combined-Shape" fill="#000000" fill-rule="evenodd" stroke="none" artboard="aaf9c784-41fc-4e8b-ab7a-96505dbfec7c" />
  </g>
</svg>