<?xml version="1.0" encoding="utf-8"?>
<svg width="15px" height="15px" viewBox="0 0 15 15" version="1.1" xmlns:xlink="http://www.w3.org/1999/xlink" xmlns="http://www.w3.org/2000/svg">
  <defs>
    <rect width="15" height="15" id="artboard_1" />
    <clipPath id="clip_1">
      <use xlink:href="#artboard_1" clip-rule="evenodd" />
    </clipPath>
  </defs>
  <g id="icon--diagonal-right" clip-path="url(#clip_1)">
    <path d="M7.39853 2.99707C7.15395 2.99691 6.95043 3.17302 6.9081 3.4054L6.90002 3.49526C6.90002 3.76464 7.11839 3.98302 7.38777 3.98302L10.3682 3.91813L3.91842 10.3681L3.98713 7.39838C3.99264 7.15929 3.82494 6.95647 3.59869 6.91L3.5001 6.9C3.22477 6.9 3.00155 7.12318 3.00149 7.39851L3.00061 11.5C3.00076 11.7761 3.22444 11.9999 3.5005 12.0003L7.60151 12.0029C7.84608 12.0031 8.0496 11.827 8.09193 11.5946L8.10002 11.5047C8.10002 11.2354 7.88164 11.017 7.61226 11.017L4.63184 11.0819L4.62542 11.0751L11.0817 4.61887L11.0129 7.60162C11.0074 7.84071 11.1751 8.04353 11.4013 8.09001L11.4999 8.1C11.7753 8.1 11.9985 7.87683 11.9985 7.60149L11.9994 3.5C11.9993 3.22394 11.7756 3.00007 11.4995 2.99968L7.39853 2.99707Z" id="Path" fill="#000000" fill-rule="evenodd" stroke="none" artboard="d35a2816-ac43-420f-a763-4fbeca18560d" />
  </g>
</svg>