<?xml version="1.0" encoding="utf-8"?>
<svg width="15px" height="15px" viewBox="0 0 15 15" version="1.1" xmlns:xlink="http://www.w3.org/1999/xlink" xmlns="http://www.w3.org/2000/svg">
  <defs>
    <rect width="15" height="15" id="artboard_1" />
    <clipPath id="clip_1">
      <use xlink:href="#artboard_1" clip-rule="evenodd" />
    </clipPath>
  </defs>
  <g id="icon--diagonal-left" clip-path="url(#clip_1)">
    <path d="M7.60151 2.99707C7.84608 2.99691 8.0496 3.17302 8.09193 3.4054L8.10002 3.49526C8.10002 3.76464 7.88164 3.98302 7.61226 3.98302L4.63184 3.91813L11.0816 10.3681L11.0129 7.39838C11.0074 7.15929 11.1751 6.95647 11.4013 6.91L11.4999 6.9L11.4999 6.9C11.7753 6.9 11.9985 7.12318 11.9985 7.39851L11.9994 11.5C11.9993 11.7761 11.7756 11.9999 11.4995 12.0003L7.39853 12.0029C7.15395 12.0031 6.95043 11.827 6.9081 11.5946L6.90002 11.5047C6.90002 11.2354 7.11839 11.017 7.38777 11.017L10.3682 11.0819L10.3746 11.0751L3.91837 4.61887L3.98713 7.60162C3.99264 7.84071 3.82494 8.04353 3.59869 8.09001L3.5001 8.1C3.22477 8.1 3.00155 7.87683 3.00149 7.60149L3.00061 3.5C3.00076 3.22394 3.22444 3.00007 3.5005 2.99968L7.60151 2.99707Z" id="Path" fill="#000000" fill-rule="evenodd" stroke="none" artboard="21a54701-6168-482a-b3d6-70cf2f8c7a79" />
  </g>
</svg>