<?xml version="1.0" encoding="utf-8"?>
<svg width="15px" height="15px" viewBox="0 0 15 15" version="1.1" xmlns:xlink="http://www.w3.org/1999/xlink" xmlns="http://www.w3.org/2000/svg">
  <defs>
    <rect width="15" height="15" id="artboard_1" />
    <clipPath id="clip_1">
      <use xlink:href="#artboard_1" clip-rule="evenodd" />
    </clipPath>
  </defs>
  <g id="icon--external-link" clip-path="url(#clip_1)">
    <path d="M6.5 3C6.77614 3 7 3.22386 7 3.5C7 3.77614 6.77614 4 6.5 4L3 4L3 12L11 12L11 8.5C11 8.22386 11.2239 8 11.5 8C11.7761 8 12 8.22386 12 8.5L12 12.5C12 12.7761 11.7761 13 11.5 13L2.5 13C2.22386 13 2 12.7761 2 12.5L2 3.5C2 3.22386 2.22386 3 2.5 3L6.5 3ZM12.521 2C12.745 2 12.9598 2.18681 13.01 2.40501L13.021 2.5L13.021 5.21157C13.021 5.46758 12.777 5.67157 12.521 5.67157C12.297 5.67157 12.0821 5.48476 12.0319 5.26656L12.021 5.17157L12.1051 3.63088L5.82352 9.9138C5.65001 10.0874 5.38063 10.1067 5.18577 9.97174L5.11647 9.91385C4.9212 9.71858 4.92118 9.40199 5.11642 9.20669L11.4044 2.91741L11.4009 2.91387L9.84938 3C9.59338 3 9.34938 2.756 9.34938 2.5C9.34938 2.276 9.50557 2.06119 9.71612 2.01098L9.80938 2L12.521 2Z" id="Shape" fill="#000000" stroke="none" artboard="a7368389-5dc3-4fe3-b471-7ca31a98c70c" />
  </g>
</svg>