<?xml version="1.0" encoding="utf-8"?>
<svg width="15px" height="15px" viewBox="0 0 15 15" version="1.1" xmlns:xlink="http://www.w3.org/1999/xlink" xmlns="http://www.w3.org/2000/svg">
  <defs>
    <rect width="15" height="15" id="artboard_1" />
    <clipPath id="clip_1">
      <use xlink:href="#artboard_1" clip-rule="evenodd" />
    </clipPath>
  </defs>
  <g id="icon--height" clip-path="url(#clip_1)">
    <path d="M7.57615 2.0018C7.66121 2.00903 7.74477 2.03796 7.81785 2.08858L7.88709 2.14644L10.8584 5.11999C11.0537 5.31525 11.0537 5.63473 10.8584 5.82999C10.6848 6.00356 10.421 6.02284 10.2274 5.88785L10.1584 5.82999L7.99954 3.5558L7.99954 11.4488L10.1584 9.17644L10.2274 9.11858C10.421 8.98359 10.6848 9.00287 10.8584 9.17644C11.032 9.35001 11.0513 9.62172 10.9163 9.81709L10.8584 9.88644L7.88709 12.86L7.81785 12.9178C7.76913 12.9516 7.71575 12.9757 7.66038 12.9902L7.57615 13.0046L7.43225 13.0046C7.34719 12.9974 7.26363 12.9685 7.19055 12.9178L7.12131 12.86L4.14999 9.88644C3.95472 9.69118 3.95472 9.3717 4.14999 9.17644C4.32355 9.00287 4.58736 8.98359 4.78098 9.11858L4.84999 9.17644L6.99954 11.4398L6.99954 3.5648L4.84999 5.82999C4.65472 6.02525 4.34525 6.02525 4.14999 5.82999C3.95472 5.63473 3.95472 5.31525 4.14999 5.11999L7.12131 2.14644C7.20809 2.05966 7.31884 2.01144 7.43225 2.0018L7.57615 2.0018Z" id="Path" fill="#000000" fill-rule="evenodd" stroke="none" artboard="508567fc-2af7-4426-bc31-c3150c52328c" />
  </g>
</svg>