<?xml version="1.0" encoding="utf-8"?>
<svg width="15px" height="15px" viewBox="0 0 15 15" version="1.1" xmlns:xlink="http://www.w3.org/1999/xlink" xmlns="http://www.w3.org/2000/svg">
  <defs>
    <rect width="15" height="15" id="artboard_1" />
    <clipPath id="clip_1">
      <use xlink:href="#artboard_1" clip-rule="evenodd" />
    </clipPath>
  </defs>
  <g id="icon--move" clip-path="url(#clip_1)">
    <path d="M7.99886 9.4998L7.99958 12.4488L9.30295 11.0036L9.37196 10.9458C9.56558 10.8108 9.82939 10.8301 10.003 11.0036C10.1765 11.1772 10.1958 11.4489 10.0608 11.6443L10.003 11.7136L7.88713 13.86L7.81788 13.9178C7.76917 13.9516 7.71579 13.9757 7.66041 13.9902L7.57619 14.0046L7.43229 14.0046C7.34723 13.9974 7.26367 13.9685 7.19059 13.9178L7.12134 13.86L5.00021 11.7152C4.80494 11.52 4.80494 11.2005 5.00021 11.0052C5.17377 10.8317 5.43758 10.8124 5.6312 10.9474L5.70021 11.0052L6.99958 12.4398L6.99886 9.4998C6.9988 9.2544 7.17558 9.05026 7.40876 9.00788L7.49874 8.9998L7.49874 8.9998C7.7749 8.9998 7.99879 9.22364 7.99886 9.4998ZM3.99902 5.00236C4.17259 5.17592 4.19187 5.43973 4.05688 5.63335L3.99902 5.70236L2.56446 7.00173L5.50446 7.00101C5.74986 7.00095 5.95401 7.17773 5.99639 7.41092L6.00446 7.50089L6.00446 7.50089C6.00446 7.77705 5.78063 8.00094 5.50446 8.00101L2.55546 8.00173L4.00064 9.30511L4.0585 9.37411C4.19349 9.56773 4.17421 9.83154 4.00064 10.0051C3.82707 10.1787 3.55536 10.198 3.35999 10.063L3.29064 10.0051L1.14427 7.88928L1.08642 7.82003C1.05267 7.77132 1.02856 7.71794 1.0141 7.66257L0.999634 7.57834L0.999634 7.43444C1.00687 7.34938 1.03579 7.26582 1.08642 7.19274L1.14427 7.1235L3.28902 5.00236C3.48429 4.8071 3.80376 4.8071 3.99902 5.00236ZM11.7146 5.00134L13.8578 7.1235C13.9446 7.21028 13.9928 7.32103 14.0025 7.43444L14.0025 7.57834C13.9952 7.6634 13.9663 7.74696 13.9157 7.82003L13.8578 7.88928L11.7147 9.99859C11.5195 10.1939 11.2 10.1939 11.0047 9.99859C10.8312 9.82502 10.8119 9.56121 10.9469 9.36759L11.0047 9.29859L12.4485 8.00173L9.50446 8.00101C9.22829 8.00094 9.00446 7.77705 9.00446 7.50089C9.00446 7.25549 9.18129 7.05139 9.41448 7.00906L9.50446 7.00101L9.50446 7.00101L12.4395 7.00173L11.0046 5.70134C10.8093 5.50607 10.8093 5.1966 11.0046 5.00134C11.1999 4.80607 11.5193 4.80607 11.7146 5.00134ZM7.57617 1.0018C7.66123 1.00903 7.74479 1.03796 7.81787 1.08858L7.88712 1.14644L9.99642 3.28952C10.1917 3.48478 10.1917 3.80426 9.99642 3.99952C9.82286 4.17309 9.55905 4.19237 9.36543 4.05737L9.29642 3.99952L7.99956 2.5558L7.99884 5.4998C7.99878 5.77596 7.77488 5.9998 7.49872 5.9998C7.25332 5.9998 7.04922 5.82297 7.0069 5.58978L6.99884 5.4998L6.99884 5.4998L6.99956 2.5648L5.69917 3.99966C5.50391 4.19492 5.19443 4.19492 4.99917 3.99966C4.80391 3.80439 4.80391 3.48492 4.99917 3.28966L7.12133 1.14644C7.20811 1.05966 7.31886 1.01144 7.43227 1.0018L7.57617 1.0018Z" id="Shape" fill="#000000" fill-rule="evenodd" stroke="none" artboard="e757772b-a624-4e38-b679-d8ffd3adaf12" />
  </g>
</svg>