<?xml version="1.0" encoding="utf-8"?>
<svg width="15px" height="15px" viewBox="0 0 15 15" version="1.1" xmlns:xlink="http://www.w3.org/1999/xlink" xmlns="http://www.w3.org/2000/svg">
  <defs>
    <rect width="15" height="15" id="artboard_1" />
    <clipPath id="clip_1">
      <use xlink:href="#artboard_1" clip-rule="evenodd" />
    </clipPath>
  </defs>
  <g id="icon--relocation" clip-path="url(#clip_1)">
    <path d="M8.94818 3.00002C9.18129 1.80331 10.2352 0.900024 11.5001 0.900024C12.9361 0.900024 14.1001 2.06408 14.1001 3.50002C14.1001 4.76495 13.1969 5.81889 12.0001 6.052L12.0001 5.05333C12.7335 4.90224 13.1001 4.38447 13.1001 3.50002C13.1001 2.96669 12.9668 2.56669 12.7001 2.30002C12.4335 2.03336 12.0335 1.90002 11.5001 1.90002C11.0583 1.90002 10.6812 2.05623 10.3688 2.36865C10.1816 2.55587 10.0504 2.76633 9.97541 3.00002L8.94818 3.00002L8.94818 3.00002ZM10.5466 10.4526C10.2906 10.4526 10.0466 10.2086 10.0466 9.95259L10.1327 5.57269L5.2537 10.4526C5.05844 10.6479 4.74185 10.6479 4.54659 10.4526C4.35133 10.2573 4.35133 9.94076 4.54659 9.7455L9.42278 4.86699L5.04659 4.95258C4.79059 4.95258 4.54659 4.70858 4.54659 4.45257C4.54659 4.19657 4.75059 3.95258 5.00659 3.95258L10.5466 3.95259C10.8026 3.95259 11.0466 4.19659 11.0466 4.45259L11.0466 9.99259C11.0466 10.2486 10.8026 10.4526 10.5466 10.4526L10.5466 10.4526ZM1.00012 13.501L1.00012 8.499C1.00012 8.36121 1.04884 8.24359 1.14628 8.14615C1.24371 8.04872 1.36133 8 1.49912 8L4.00012 8L3.00012 9L2.00012 9L2.00012 13L6.00012 13L6.00012 12L7.00012 11L7.00012 13.501C7.00012 13.6388 6.9514 13.7564 6.85397 13.8538C6.75653 13.9513 6.63892 14 6.50112 14L1.49912 14C1.36133 14 1.24371 13.9513 1.14628 13.8538C1.04884 13.7564 1.00012 13.6388 1.00012 13.501L1.00012 13.501Z" id="Vector" fill="#000000" fill-rule="evenodd" stroke="none" artboard="dfb25014-5401-4075-8faf-05ddeb27c328" />
  </g>
</svg>