<?xml version="1.0" encoding="utf-8"?>
<svg width="15px" height="15px" viewBox="0 0 15 15" version="1.1" xmlns:xlink="http://www.w3.org/1999/xlink" xmlns="http://www.w3.org/2000/svg">
  <defs>
    <rect width="15" height="15" id="artboard_1" />
    <clipPath id="clip_1">
      <use xlink:href="#artboard_1" clip-rule="evenodd" />
    </clipPath>
  </defs>
  <g id="icon--scale-down" clip-path="url(#clip_1)">
    <path d="M2.40011 8.99706L5.50111 8.99967C5.7465 9.00002 5.9505 9.17694 5.99291 9.41014L6.00101 9.49999L6.00013 12.6015C6.00008 12.8462 5.8237 13.0498 5.59113 13.092L5.50151 13.1L5.40292 13.09C5.20496 13.0493 5.05182 12.889 5.02032 12.6893L5.01449 12.6016L5.08325 10.6189L2.58451 13.1245L2.51459 13.183C2.3192 13.3184 2.04904 13.299 1.87501 13.125C1.70071 12.9507 1.6813 12.6802 1.8168 12.4844L1.87487 12.4149L4.36978 9.91811L2.38936 9.98301C2.14991 9.98301 1.95076 9.81046 1.90946 9.58292L1.9016 9.49525L1.90968 9.40539C1.94672 9.20205 2.10718 9.04181 2.31055 9.00503L2.40011 8.99706ZM12.6009 8.99706C12.8455 8.9969 13.049 9.17301 13.0913 9.40539L13.0994 9.49525C13.0994 9.76463 12.881 9.98301 12.6116 9.98301L10.6312 9.91811L13.1261 12.4149C13.3221 12.611 13.3221 12.9289 13.126 13.125C12.952 13.299 12.6818 13.3184 12.4864 13.183L12.4165 13.1245L9.91776 10.6189L9.98652 12.6016C9.99203 12.8407 9.82433 13.0435 9.59808 13.09L9.49949 13.1C9.22416 13.1 9.00094 12.8768 9.00088 12.6015L9 9.49999C9.00015 9.22393 9.22383 9.00006 9.49989 8.99967L12.6009 8.99706ZM2.51459 1.81883L2.58451 1.87733L5.08325 4.38297L5.01449 2.40022C5.00898 2.16113 5.17668 1.95831 5.40292 1.91183L5.50151 1.90184C5.77685 1.90184 6.00007 2.12501 6.00013 2.40035L6.00101 5.50184C6.00085 5.7779 5.77717 6.00177 5.50111 6.00216L2.40011 6.00477C2.15554 6.00493 1.95202 5.82882 1.90968 5.59644L1.9016 5.50658C1.9016 5.2372 2.11998 5.01882 2.38936 5.01882L4.36978 5.08371L1.87487 2.58697C1.67886 2.39082 1.67892 2.07292 1.87501 1.87684C2.04904 1.7028 2.3192 1.68347 2.51459 1.81883ZM12.4864 1.81883C12.6818 1.68347 12.952 1.7028 13.126 1.87684C13.3003 2.05113 13.3197 2.32168 13.1842 2.51741L13.1261 2.58697L10.6312 5.08371L12.6116 5.01882C12.8511 5.01882 13.0502 5.19137 13.0915 5.4189L13.0994 5.50658L13.0913 5.59644C13.0543 5.79977 12.8938 5.96002 12.6905 5.9968L12.6009 6.00477L9.49989 6.00216C9.25451 6.00181 9.05051 5.82489 9.00809 5.59169L9 5.50184L9.00088 2.40035C9.00093 2.15561 9.17731 1.95208 9.40988 1.90987L9.49949 1.90184L9.59808 1.91183C9.79605 1.9525 9.94919 2.11287 9.98069 2.31249L9.98652 2.40022L9.91776 4.38297L12.4165 1.87733L12.4864 1.81883Z" id="Shape" fill="#000000" fill-rule="evenodd" stroke="none" artboard="236ee88f-3a60-455a-a9f8-93d519638805" />
  </g>
</svg>