<?xml version="1.0" encoding="utf-8"?>
<svg width="15px" height="15px" viewBox="0 0 15 15" version="1.1" xmlns:xlink="http://www.w3.org/1999/xlink" xmlns="http://www.w3.org/2000/svg">
  <defs>
    <rect width="15" height="15" id="artboard_1" />
    <clipPath id="clip_1">
      <use xlink:href="#artboard_1" clip-rule="evenodd" />
    </clipPath>
  </defs>
  <g id="icon--scale-up" clip-path="url(#clip_1)">
    <path d="M9.51459 8.81884L9.58451 8.87734L12.0832 11.383L12.0145 9.40023C12.009 9.16114 12.1767 8.95832 12.4029 8.91185L12.5015 8.90185C12.7768 8.90185 13.0001 9.12503 13.0001 9.40036L13.001 12.5019C13.0009 12.7779 12.7772 13.0018 12.5011 13.0022L9.40011 13.0048C9.15554 13.0049 8.95201 12.8288 8.90968 12.5965L8.9016 12.5066C8.9016 12.2372 9.11998 12.0188 9.38936 12.0188L11.3698 12.0837L8.87487 9.58698C8.67886 9.39083 8.67892 9.07294 8.87501 8.87685C9.04904 8.70282 9.31919 8.68348 9.51459 8.81884ZM5.48641 8.81884C5.68181 8.68348 5.95196 8.70282 6.126 8.87685C6.3003 9.05115 6.31971 9.32169 6.18421 9.51743L6.12613 9.58698L3.63123 12.0837L5.61165 12.0188C5.8511 12.0188 6.05025 12.1914 6.09155 12.4189L6.0994 12.5066L6.09132 12.5965C6.05428 12.7998 5.89383 12.96 5.69045 12.9968L5.60089 13.0048L2.49989 13.0022C2.25451 13.0018 2.05051 12.8249 2.0081 12.5917L2 12.5019L2.00088 9.40036C2.00093 9.15562 2.17731 8.95209 2.40988 8.90989L2.49949 8.90185L2.59808 8.91185C2.79605 8.95251 2.94919 9.11288 2.98069 9.31251L2.98652 9.40023L2.91776 11.383L5.41649 8.87734L5.48641 8.81884ZM9.40011 1.99707L12.5011 1.99969C12.7465 2.00003 12.9505 2.17695 12.9929 2.41015L13.001 2.5L13.0001 5.60149C13.0001 5.84624 12.8237 6.04977 12.5911 6.09197L12.5015 6.1L12.4029 6.09001C12.205 6.04934 12.0518 5.88898 12.0203 5.68935L12.0145 5.60163L12.0832 3.61887L9.58451 6.12451L9.51459 6.18302C9.31919 6.31838 9.04904 6.29904 8.87501 6.125C8.70071 5.95071 8.6813 5.68017 8.8168 5.48443L8.87487 5.41487L11.3698 2.91813L9.38936 2.98302C9.14991 2.98302 8.95076 2.81048 8.90946 2.58294L8.9016 2.49527L8.90968 2.4054C8.94672 2.20207 9.10718 2.04182 9.31055 2.00504L9.40011 1.99707ZM5.60089 1.99707C5.84547 1.99692 6.04899 2.17302 6.09132 2.4054L6.0994 2.49527C6.0994 2.76465 5.88103 2.98302 5.61165 2.98302L3.63123 2.91813L6.12613 5.41487C6.32214 5.61103 6.32208 5.92892 6.126 6.125C5.95196 6.29904 5.68181 6.31838 5.48641 6.18302L5.41649 6.12451L2.91776 3.61887L2.98652 5.60163C2.99203 5.84071 2.82433 6.04354 2.59808 6.09001L2.49949 6.1C2.22416 6.1 2.00094 5.87683 2.00088 5.60149L2 2.5C2.00015 2.22394 2.22383 2.00007 2.49989 1.99969L5.60089 1.99707Z" id="Shape" fill="#000000" fill-rule="evenodd" stroke="none" artboard="bb1a6bcf-6c74-4227-aebe-4cd04fb18d68" />
  </g>
</svg>