<?xml version="1.0" encoding="utf-8"?>
<svg width="15px" height="15px" viewBox="0 0 15 15" version="1.1" xmlns:xlink="http://www.w3.org/1999/xlink" xmlns="http://www.w3.org/2000/svg">
  <defs>
    <rect width="15" height="15" id="artboard_1" />
    <clipPath id="clip_1">
      <use xlink:href="#artboard_1" clip-rule="evenodd" />
    </clipPath>
  </defs>
  <g id="icon--share" clip-path="url(#clip_1)">
    <path d="M3 12L12 12L12 6L9.5 6C9.22386 6 9 5.77614 9 5.5C9 5.25454 9.17688 5.05039 9.41012 5.00806L9.5 5L12.5 5C12.7455 5 12.9496 5.17688 12.9919 5.41012L13 5.5L13 12.5C13 12.7455 12.8231 12.9496 12.5899 12.9919L12.5 13L2.5 13C2.22386 13 2 12.7761 2 12.5L2 5.5C2 5.22386 2.22386 5 2.5 5L5.5 5C5.77614 5 6 5.22386 6 5.5C6 5.77614 5.77614 6 5.5 6L3 6L3 12ZM7.85356 1.13415L9.77093 3.05152C9.95195 3.23254 9.92367 3.54932 9.74264 3.73034C9.56162 3.91137 9.21656 3.91137 9.03554 3.73034L7.99938 2.57238L7.99838 9.49838C7.99838 9.77452 7.77452 9.99838 7.49838 9.99838C7.22224 9.99838 6.99838 9.77452 6.99838 9.49838L6.99838 2.57538L5.96447 3.73034C5.78345 3.91137 5.43839 3.91137 5.25736 3.73034C5.07634 3.54932 5.04806 3.23254 5.22908 3.05152L7.14645 1.13415C7.32747 0.953127 7.67253 0.953127 7.85356 1.13415Z" id="Shape" fill="#000000" stroke="none" artboard="3766436f-608a-4973-ba44-96b0aea3012f" />
  </g>
</svg>