<?xml version="1.0" encoding="utf-8"?>
<svg width="15px" height="15px" viewBox="0 0 15 15" version="1.1" xmlns:xlink="http://www.w3.org/1999/xlink" xmlns="http://www.w3.org/2000/svg">
  <defs>
    <rect width="15" height="15" id="artboard_1" />
    <clipPath id="clip_1">
      <use xlink:href="#artboard_1" clip-rule="evenodd" />
    </clipPath>
  </defs>
  <g id="icon--upload" clip-path="url(#clip_1)">
    <path d="M12.5 9C12.7761 9 13 9.22386 13 9.5L13 12.5C13 12.7761 12.7761 13 12.5 13L2.5 13C2.22386 13 2 12.7761 2 12.5L2 9.5C2 9.22386 2.22386 9 2.5 9C2.77614 9 3 9.22386 3 9.5L3 12L12 12L12 9.5C12 9.22386 12.2239 9 12.5 9ZM7.85356 2.13415L9.77093 4.05152C9.95195 4.23254 9.92367 4.54932 9.74264 4.73034C9.56162 4.91137 9.21656 4.91137 9.03554 4.73034L7.99938 3.57238L7.99838 9.49838C7.99838 9.77452 7.77452 9.99838 7.49838 9.99838C7.22224 9.99838 6.99838 9.77452 6.99838 9.49838L6.99838 3.57538L5.96447 4.73034C5.78345 4.91137 5.43839 4.91137 5.25736 4.73034C5.07634 4.54932 5.04806 4.23254 5.22908 4.05152L7.14645 2.13415C7.32747 1.95313 7.67253 1.95313 7.85356 2.13415Z" id="Shape" fill="#000000" fill-rule="evenodd" stroke="none" artboard="5570fb73-561e-45e8-8f86-7cffa8fc9216" />
  </g>
</svg>