<?xml version="1.0" encoding="utf-8"?>
<svg width="15px" height="15px" viewBox="0 0 15 15" version="1.1" xmlns:xlink="http://www.w3.org/1999/xlink" xmlns="http://www.w3.org/2000/svg">
  <defs>
    <rect width="15" height="15" id="artboard_1" />
    <clipPath id="clip_1">
      <use xlink:href="#artboard_1" clip-rule="evenodd" />
    </clipPath>
  </defs>
  <g id="icon--width" clip-path="url(#clip_1)">
    <path d="M13.0056 7.57518C12.9984 7.66023 12.9695 7.74379 12.9189 7.81687L12.861 7.88612L9.88745 10.8574C9.69218 11.0527 9.37271 11.0527 9.17745 10.8574C9.00388 10.6839 8.98459 10.4201 9.11959 10.2264L9.17745 10.1574L11.4516 7.99856L3.55864 7.99856L5.831 10.1574L5.88885 10.2264C6.02385 10.4201 6.00457 10.6839 5.831 10.8574C5.65743 11.031 5.38572 11.0503 5.19035 10.9153L5.121 10.8574L2.14745 7.88612L2.08959 7.81687C2.05584 7.76815 2.03174 7.71478 2.01727 7.6594L2.00281 7.57518L2.00281 7.43127C2.01004 7.34621 2.03897 7.26265 2.08959 7.18958L2.14745 7.12033L5.121 4.14901C5.31626 3.95375 5.63574 3.95375 5.831 4.14901C6.00457 4.32258 6.02385 4.58639 5.88885 4.78001L5.831 4.84901L3.56764 6.99856L11.4426 6.99856L9.17745 4.84901C8.98218 4.65375 8.98218 4.34427 9.17745 4.14901C9.37271 3.95375 9.69218 3.95375 9.88745 4.14901L12.861 7.12033C12.9478 7.20711 12.996 7.31786 13.0056 7.43127L13.0056 7.57518Z" id="Path" fill="#000000" fill-rule="evenodd" stroke="none" artboard="142827e8-db09-4326-ba8d-634e88aa10b5" />
  </g>
</svg>