<?xml version="1.0" encoding="utf-8"?>
<svg width="15px" height="15px" viewBox="0 0 15 15" version="1.1" xmlns:xlink="http://www.w3.org/1999/xlink" xmlns="http://www.w3.org/2000/svg">
  <defs>
    <rect width="15" height="15" id="artboard_1" />
    <clipPath id="clip_1">
      <use xlink:href="#artboard_1" clip-rule="evenodd" />
    </clipPath>
  </defs>
  <g id="icon--ice-crystal-" clip-path="url(#clip_1)">
    <path d="M7.50005 0.900002C7.77619 0.900002 8.00005 1.12386 8.00005 1.4L7.99946 2.35L8.91516 1.51699C9.1267 1.33949 9.44208 1.36708 9.61958 1.57862C9.79708 1.79016 9.76949 2.10553 9.55795 2.28304L7.99946 3.56L7.91862 6.763L10.6765 5.07625L11.0198 3.12705C11.0678 2.8551 11.3271 2.67351 11.599 2.72147C11.8408 2.76409 12.0111 2.97373 12.0123 3.21078L12.0046 3.30069L11.72 4.47375L12.543 3.99927C12.7822 3.8612 13.088 3.94314 13.2261 4.18228C13.3641 4.42143 13.2822 4.72722 13.043 4.86529L12.22 5.33978L13.3993 5.7163C13.6588 5.81075 13.7926 6.09767 13.6981 6.35716C13.6037 6.61664 13.3167 6.75044 13.0573 6.65599L11.1721 5.94478L8.31362 7.5L11.1721 9.05522L13.0535 8.34185C13.313 8.24741 13.5999 8.3812 13.6944 8.64069C13.7783 8.87135 13.6819 9.12368 13.4772 9.24324L13.3955 9.28155L12.1767 9.63522L13.043 10.1347C13.2822 10.2728 13.3641 10.5786 13.2261 10.8177C13.088 11.0569 12.7822 11.1388 12.543 11.0007L11.6767 10.5012L12.0009 11.6972L12.0086 11.7871C12.0074 12.0241 11.837 12.2338 11.5953 12.2764C11.3536 12.319 11.1218 12.1803 11.0396 11.9579L11.0161 11.8708L10.6721 9.92125L7.91862 8.237L7.99946 11.44L9.55795 12.7127C9.76949 12.8902 9.79708 13.2055 9.61958 13.4171C9.4618 13.6051 9.19508 13.6478 8.98919 13.5303L8.91516 13.4787L7.99946 12.6L8.00005 13.6C8.00005 13.8761 7.77619 14.1 7.50005 14.1C7.22391 14.1 7.00005 13.8761 7.00005 13.6L6.99946 12.6L6.12586 13.4787L6.05184 13.5303C5.84594 13.6478 5.57922 13.6051 5.42145 13.4171C5.26367 13.229 5.26794 12.959 5.4194 12.7766L5.48307 12.7127L6.99946 11.44L7.08162 8.212L4.34784 9.88478L4.02494 11.8708C3.97699 12.1427 3.71766 12.3243 3.44572 12.2764C3.20399 12.2338 3.03365 12.0241 3.03246 11.7871L3.04014 11.6972L3.34326 10.4648L2.47753 10.9653C2.23838 11.1034 1.93259 11.0214 1.79451 10.7823C1.65644 10.5431 1.73838 10.2373 1.97753 10.0993L2.84326 9.59875L1.64549 9.28155L1.56379 9.24324C1.35908 9.12368 1.2627 8.87135 1.34665 8.64069C1.4306 8.41003 1.66663 8.27869 1.90029 8.31868L1.98751 8.34185L3.84784 9.01875L6.63962 7.5L3.84351 5.97875L1.98377 6.65599C1.72428 6.75044 1.43736 6.61664 1.34291 6.35716C1.25896 6.1265 1.35535 5.87417 1.56005 5.75461L1.64175 5.7163L2.79995 5.37625L1.97753 4.90073C1.73838 4.76266 1.65644 4.45687 1.79451 4.21772C1.93259 3.97857 2.23838 3.89664 2.47753 4.03471L3.29995 4.51022L3.0364 3.30069C2.98845 3.02875 3.17003 2.76942 3.44198 2.72147C3.71393 2.67351 3.97325 2.8551 4.02121 3.12705L4.34784 5.11522L7.08162 6.787L6.99946 3.555L5.48307 2.28304C5.27154 2.10553 5.24395 1.79016 5.42145 1.57862C5.57922 1.39059 5.84594 1.34789 6.05184 1.46539L6.12586 1.51699L6.99946 2.35L7.00005 1.4C7.00005 1.12386 7.22391 0.900002 7.50005 0.900002Z" id="Path" fill="#000000" fill-rule="evenodd" stroke="none" artboard="130d08ce-8aad-4379-9e90-ecbe5bb85981" />
  </g>
</svg>