<?xml version="1.0" encoding="utf-8"?>
<svg width="15px" height="15px" viewBox="0 0 15 15" version="1.1" xmlns:xlink="http://www.w3.org/1999/xlink" xmlns="http://www.w3.org/2000/svg">
  <defs>
    <rect width="15" height="15" id="artboard_1" />
    <clipPath id="clip_1">
      <use xlink:href="#artboard_1" clip-rule="evenodd" />
    </clipPath>
  </defs>
  <g id="icon--night-moon" clip-path="url(#clip_1)">
    <path d="M5.61212 2.17102C5.66512 2.23472 5.67272 2.32472 5.63112 2.39632C5.22952 3.11762 5.00002 3.94812 5.00002 4.83232C5.00002 7.59372 7.23862 9.83232 10 9.83232C10.8927 9.83232 11.7308 9.59832 12.4563 9.18842C12.5252 9.14732 12.6126 9.15392 12.6745 9.20492C12.7365 9.25592 12.7598 9.34031 12.7328 9.41582C11.9359 11.473 9.93842 12.9323 7.60002 12.9323L7.40002 12.9323C4.36242 12.9323 1.90002 10.4699 1.90002 7.43232L1.90002 7.23232C1.90002 4.91142 3.35752 2.92012 5.39392 2.11162C5.47192 2.08362 5.55902 2.10732 5.61212 2.17102ZM4.16305 3.973L4.14157 3.99481C3.3601 4.78239 2.86876 5.83975 2.80672 6.98551L2.80005 7.23232L2.80005 7.43232C2.80005 9.90229 4.74668 11.9175 7.18948 12.0276L7.40005 12.0323L7.60005 12.0323C8.85336 12.0323 10.0121 11.5265 10.8522 10.6909L10.875 10.666L10.6124 10.7008C10.5113 10.7113 10.4096 10.7192 10.3075 10.7244L10 10.7323C6.74159 10.7323 4.10005 8.09077 4.10005 4.83232C4.10005 4.62866 4.11041 4.42642 4.13094 4.22607L4.16305 3.973Z" id="Fill-1" fill="#000000" stroke="none" artboard="f34bf10e-2b99-44b3-b31c-fb0c00f8f909" />
  </g>
</svg>