<?xml version="1.0" encoding="utf-8"?>
<svg width="15px" height="15px" viewBox="0 0 15 15" version="1.1" xmlns:xlink="http://www.w3.org/1999/xlink" xmlns="http://www.w3.org/2000/svg">
  <defs>
    <rect width="15" height="15" id="artboard_1" />
    <clipPath id="clip_1">
      <use xlink:href="#artboard_1" clip-rule="evenodd" />
    </clipPath>
  </defs>
  <g id="icon--night-outline" clip-path="url(#clip_1)">
    <path d="M4.81702 4.51286C4.88832 4.57606 4.91752 4.67436 4.89222 4.76616C4.50792 6.29206 4.78992 7.96476 5.90002 9.07486C7.01012 10.185 8.68272 10.467 10.2072 10.0811C10.2999 10.055 10.3993 10.0842 10.4632 10.1562C10.5271 10.2282 10.5442 10.3303 10.5073 10.4192C9.80222 11.9844 8.22842 13.0749 6.40002 13.0749C3.91472 13.0749 1.90002 11.0602 1.90002 8.57486C1.90002 6.74646 2.99042 5.17276 4.55642 4.46866C4.64462 4.43256 4.74562 4.44966 4.81702 4.51286ZM3.83422 6.27249L3.83005 6.053L3.80428 6.07957C3.17452 6.73494 2.80005 7.62067 2.80005 8.57486C2.80005 10.5631 4.41181 12.1749 6.40005 12.1749C7.35413 12.1749 8.24002 11.8004 8.89268 11.178L8.92405 11.145L8.69636 11.1419C7.47558 11.0982 6.32117 10.6735 5.43685 9.87577L5.26365 9.71126C4.36005 8.80765 3.87993 7.58145 3.83422 6.27249ZM12.5 5.9C12.7762 5.9 12.9 6.12386 12.9 6.4L12.9 7.1L13.6 7.1C13.8762 7.1 14.1 7.22386 14.1 7.5C14.1 7.77614 13.8762 7.9 13.6 7.9L12.9 7.9L12.9 8.6C12.9 8.87614 12.7762 9.1 12.5 9.1C12.2239 9.1 12.1 8.87614 12.1 8.6L12.1 7.9L11.4 7.9C11.1239 7.9 10.9 7.77614 10.9 7.5C10.9 7.22386 11.1239 7.1 11.4 7.1L12.1 7.1L12.1 6.4C12.1 6.12386 12.2239 5.9 12.5 5.9ZM7.5 7C7.77614 7 8 7.22386 8 7.5C8 7.77614 7.77614 8 7.5 8C7.22386 8 7 7.77614 7 7.5C7 7.22386 7.22386 7 7.5 7ZM8.50002 2.9C8.77617 2.9 8.90002 3.12386 8.90002 3.4L8.90002 4.1L9.60002 4.1C9.87617 4.1 10.1 4.22386 10.1 4.5C10.1 4.77614 9.87617 4.9 9.60002 4.9L8.90002 4.9L8.90002 5.6C8.90002 5.87614 8.77617 6.1 8.50002 6.1C8.22388 6.1 8.10002 5.87614 8.10002 5.6L8.10002 4.9L7.40002 4.9C7.12388 4.9 6.90002 4.77614 6.90002 4.5C6.90002 4.22386 7.12388 4.1 7.40002 4.1L8.10002 4.1L8.10002 3.4C8.10002 3.12386 8.22388 2.9 8.50002 2.9ZM11.5 3C11.7761 3 12 3.22386 12 3.5C12 3.77614 11.7761 4 11.5 4C11.2239 4 11 3.77614 11 3.5C11 3.22386 11.2239 3 11.5 3ZM6.5 2C6.77614 2 7 2.22386 7 2.5C7 2.77614 6.77614 3 6.5 3C6.22386 3 6 2.77614 6 2.5C6 2.22386 6.22386 2 6.5 2Z" id="Shape" fill="#000000" fill-rule="evenodd" stroke="none" artboard="0aa5007d-5ae2-43d9-9770-d6bcf0e1b029" />
  </g>
</svg>