<?xml version="1.0" encoding="utf-8"?>
<svg width="15px" height="15px" viewBox="0 0 15 15" version="1.1" xmlns:xlink="http://www.w3.org/1999/xlink" xmlns="http://www.w3.org/2000/svg">
  <defs>
    <rect width="15" height="15" id="artboard_1" />
    <clipPath id="clip_1">
      <use xlink:href="#artboard_1" clip-rule="evenodd" />
    </clipPath>
  </defs>
  <g id="icon--thermometer" clip-path="url(#clip_1)">
    <path d="M9.00002 1C9.27617 1 9.50002 1.22386 9.50002 1.5L9.5007 9.83939C9.87497 10.2898 10.1 10.8686 10.1 11.5C10.1 12.9359 8.93596 14.1 7.50002 14.1C6.06408 14.1 4.90002 12.9359 4.90002 11.5C4.90002 10.8691 5.12475 10.2907 5.49851 9.84039L5.50002 1.5C5.50002 1.22386 5.72388 1 6.00002 1L9.00002 1ZM8.00007 6.5L8.00119 10.6344C8.29947 10.8075 8.50007 11.1303 8.50007 11.5C8.50007 12.0523 8.05236 12.5 7.50007 12.5C6.94779 12.5 6.50007 12.0523 6.50007 11.5C6.50007 11.1299 6.70111 10.8068 6.99994 10.6339L6.99907 9.5L6.29807 9.5L6.29851 10.1292L6.11412 10.3514C5.84773 10.6723 5.70007 11.0737 5.70007 11.5C5.70007 12.4941 6.50596 13.3 7.50007 13.3C8.49419 13.3 9.30007 12.4941 9.30007 11.5C9.30007 11.1267 9.18685 10.7725 8.97985 10.4747L8.88545 10.3507L8.70078 10.1284L8.70007 1.8L6.29907 1.8L6.29807 3L7.75007 3C7.88814 3 8.00007 3.11193 8.00007 3.25C8.00007 3.38807 7.88814 3.5 7.75007 3.5L6.29807 3.5L6.29807 5L7.75007 5C7.88814 5 8.00007 5.11193 8.00007 5.25C8.00007 5.38807 7.88814 5.5 7.75007 5.5L6.29807 5.5L6.29807 7L6.99907 7L7.00007 6.5C7.00007 6.22386 7.22393 6 7.50007 6C7.77622 6 8.00007 6.22386 8.00007 6.5ZM6.99906 9L6.99906 7.5L6.29806 7.5L6.29806 9L6.99906 9Z" id="Shape" fill="#000000" fill-rule="evenodd" stroke="none" artboard="c3e6d5ce-c827-4c59-b0e2-e87b1d468092" />
  </g>
</svg>