<?xml version="1.0" encoding="utf-8"?>
<svg width="15px" height="15px" viewBox="0 0 15 15" version="1.1" xmlns:xlink="http://www.w3.org/1999/xlink" xmlns="http://www.w3.org/2000/svg">
  <defs>
    <rect width="15" height="15" id="artboard_1" />
    <clipPath id="clip_1">
      <use xlink:href="#artboard_1" clip-rule="evenodd" />
    </clipPath>
  </defs>
  <g id="icon--weather-lightning" clip-path="url(#clip_1)">
    <path d="M9 8L7.934 10L9.56366 10L7.36801 14L7.368 11L6 11L6.57087 8L9 8ZM8.00002 1.9C10.2473 1.9 12.0723 3.70806 12.0997 5.94886C13.2409 6.18131 14.1 7.19032 14.1 8.4L14.1 8.5C14.1 9.88071 12.9807 11 11.6 11L10.127 11L10.692 10L11.6 10C12.3797 10 13.0205 9.40511 13.0932 8.64446L13.1 8.5L13.1 8.4C13.1 7.73116 12.6584 7.15214 12.0361 6.96316L11.9001 6.92874L11.1096 6.76773L11.0998 5.96108C11.0791 4.26561 9.69765 2.9 8.00002 2.9C6.65942 2.9 5.48781 3.7587 5.06543 4.9973L5.01254 5.16852L4.80447 5.91824L4.00002 5.9L3.90002 5.9C2.84566 5.9 1.98186 6.71588 1.90551 7.75074L1.90002 7.9L1.90002 8C1.90002 9.05436 2.7159 9.91817 3.75076 9.99451L3.90002 10L5.17402 10L5.00902 11L3.90002 11C2.24317 11 0.900024 9.65685 0.900024 8L0.900024 7.9C0.900024 6.24315 2.24317 4.9 3.90002 4.9L4.04896 4.90109C4.52929 3.17036 6.1163 1.9 8.00002 1.9Z" id="Shape" fill="#000000" fill-rule="evenodd" stroke="none" artboard="4d1203d7-267d-4636-9dd6-a126c535daf9" />
  </g>
</svg>