<?xml version="1.0" encoding="utf-8"?>
<svg width="15px" height="15px" viewBox="0 0 15 15" version="1.1" xmlns:xlink="http://www.w3.org/1999/xlink" xmlns="http://www.w3.org/2000/svg">
  <defs>
    <rect width="15" height="15" id="artboard_1" />
    <clipPath id="clip_1">
      <use xlink:href="#artboard_1" clip-rule="evenodd" />
    </clipPath>
  </defs>
  <g id="icon--weather-fog" clip-path="url(#clip_1)">
    <path d="M9.50002 11C9.77617 11 10 11.2239 10 11.5C10 11.7761 9.77617 12 9.50002 12L1.40002 12C1.12388 12 0.900024 11.7761 0.900024 11.5C0.900024 11.2239 1.12388 11 1.40002 11L9.50002 11ZM13.6 11C13.8761 11 14.1 11.2239 14.1 11.5C14.1 11.7761 13.8761 12 13.6 12L11.5 12C11.2239 12 11 11.7761 11 11.5C11 11.2239 11.2239 11 11.5 11L13.6 11ZM5.50002 9C5.77617 9 6.00002 9.22386 6.00002 9.5C6.00002 9.77614 5.77617 10 5.50002 10L1.40002 10C1.12388 10 0.900024 9.77614 0.900024 9.5C0.900024 9.22386 1.12388 9 1.40002 9L5.50002 9ZM13.6 9C13.8761 9 14.1 9.22386 14.1 9.5C14.1 9.77614 13.8761 10 13.6 10L7.5 10C7.22386 10 7 9.77614 7 9.5C7 9.22386 7.22386 9 7.5 9L13.6 9ZM8.00002 1.9C10.2473 1.9 12.0723 3.70806 12.0997 5.94886C13.1124 6.15514 13.903 6.97302 14.0682 7.99998L13.0459 8.00018C12.9101 7.50887 12.53 7.11315 12.0361 6.96316L11.9001 6.92874L11.1096 6.76773L11.0998 5.96108C11.0791 4.26561 9.69765 2.9 8.00002 2.9C6.65942 2.9 5.48781 3.7587 5.06543 4.9973L5.01254 5.16852L4.80447 5.91824L4.00002 5.9L3.90002 5.9C2.84566 5.9 1.98186 6.71588 1.90551 7.75074L1.90002 7.9L1.90002 8L0.900024 8L0.900024 7.9C0.900024 6.24315 2.24317 4.9 3.90002 4.9L4.04896 4.90109C4.52929 3.17036 6.1163 1.9 8.00002 1.9Z" id="Shape" fill="#000000" fill-rule="evenodd" stroke="none" artboard="5c4bb020-b4bc-495f-b9e7-8c61b55d486a" />
  </g>
</svg>