<?xml version="1.0" encoding="utf-8"?>
<svg width="15px" height="15px" viewBox="0 0 15 15" version="1.1" xmlns:xlink="http://www.w3.org/1999/xlink" xmlns="http://www.w3.org/2000/svg">
  <defs>
    <rect width="15" height="15" id="artboard_1" />
    <clipPath id="clip_1">
      <use xlink:href="#artboard_1" clip-rule="evenodd" />
    </clipPath>
  </defs>
  <g id="icon--weather-rainy" clip-path="url(#clip_1)">
    <path d="M12.0997 5.94886C12.0723 3.70806 10.2473 1.9 8.00002 1.9C6.1163 1.9 4.52929 3.17036 4.04896 4.90109L3.90002 4.9C2.24317 4.9 0.900024 6.24315 0.900024 7.9L0.900024 8C0.900024 9.55971 2.09029 10.8414 3.61205 10.9864L3.93102 10L3.75076 9.99451C2.7159 9.91817 1.90002 9.05436 1.90002 8L1.90002 7.9L1.90551 7.75074C1.98186 6.71588 2.84566 5.9 3.90002 5.9L4.00002 5.9L4.80447 5.91824L5.01254 5.16852L5.06543 4.9973C5.48781 3.7587 6.65942 2.9 8.00002 2.9C9.69765 2.9 11.0791 4.26561 11.0998 5.96108L11.1096 6.76773L11.9001 6.92874L12.0361 6.96316C12.6584 7.15214 13.1 7.73116 13.1 8.4L13.1 8.5L13.0932 8.64446C13.0205 9.40511 12.3797 10 11.6 10L10.905 10L10.58 11L11.6 11C12.9807 11 14.1 9.88071 14.1 8.5L14.1 8.4C14.1 7.19032 13.2409 6.18131 12.0997 5.94886ZM5.99675 9.52614L6.3462 8.47323Q6.37351 8.39095 6.36036 8.30525Q6.3472 8.21956 6.29646 8.14926Q6.24572 8.07896 6.16854 8.03948Q6.09135 8 6.00465 8L6.00255 8Q5.89354 8 5.78981 8.03352Q5.68609 8.06704 5.5977 8.13084Q5.50931 8.19463 5.44482 8.28252Q5.38033 8.3704 5.34599 8.47386L4.99654 9.52677Q4.96923 9.60905 4.98239 9.69475Q4.99554 9.78044 5.04628 9.85074Q5.09702 9.92104 5.1742 9.96052Q5.25139 10 5.33809 10L5.3402 10Q5.4492 10 5.55293 9.96648Q5.65665 9.93296 5.74504 9.86916Q5.83343 9.80537 5.89792 9.71748Q5.96241 9.6296 5.99675 9.52614ZM9.99675 9.52614L10.3462 8.47323Q10.3735 8.39095 10.3604 8.30525Q10.3472 8.21956 10.2965 8.14926Q10.2457 8.07896 10.1685 8.03948Q10.0914 8 10.0047 8L10.0025 8Q9.89354 8 9.78981 8.03352Q9.68609 8.06704 9.5977 8.13084Q9.50931 8.19463 9.44482 8.28252Q9.38033 8.3704 9.34599 8.47386L8.99654 9.52677Q8.96923 9.60905 8.98239 9.69475Q8.99554 9.78044 9.04628 9.85074Q9.09702 9.92104 9.17421 9.96052Q9.25139 10 9.33809 10L9.34019 10Q9.4492 10 9.55293 9.96648Q9.65665 9.93296 9.74504 9.86916Q9.83343 9.80537 9.89792 9.71748Q9.96241 9.6296 9.99675 9.52614ZM7.71933 10.5266L8.06879 9.4737Q8.0961 9.39141 8.08294 9.30572Q8.06978 9.22003 8.01904 9.14973Q7.96831 9.07943 7.89112 9.03995Q7.81394 9.00047 7.72724 9.00047L7.72513 9.00047Q7.61613 9.00047 7.5124 9.03399Q7.40868 9.06751 7.32029 9.1313Q7.2319 9.1951 7.16741 9.28299Q7.10292 9.37087 7.06858 9.47433L6.71912 10.5272Q6.69181 10.6095 6.70497 10.6952Q6.71813 10.7809 6.76887 10.8512Q6.81961 10.9215 6.89679 10.961Q6.97398 11.0005 7.06067 11.0005L7.06278 11.0005Q7.17179 11.0005 7.27551 10.9669Q7.37924 10.9334 7.46763 10.8696Q7.55602 10.8058 7.62051 10.7179Q7.685 10.6301 7.71933 10.5266ZM5.00105 12.5261L5.35051 11.4732Q5.37782 11.3909 5.36466 11.3053Q5.35151 11.2196 5.30077 11.1493Q5.25003 11.079 5.17284 11.0395Q5.09566 11 5.00896 11L5.00685 11Q4.89785 11 4.79412 11.0335Q4.6904 11.067 4.60201 11.1308Q4.51362 11.1946 4.44913 11.2825Q4.38464 11.3704 4.3503 11.4739L4.00084 12.5268Q3.97354 12.6091 3.98669 12.6947Q3.99985 12.7804 4.05059 12.8507Q4.10133 12.921 4.17851 12.9605Q4.2557 13 4.3424 13L4.3445 13Q4.45351 13 4.55724 12.9665Q4.66096 12.933 4.74935 12.8692Q4.83774 12.8054 4.90223 12.7175Q4.96672 12.6296 5.00105 12.5261ZM9.00105 12.5261L9.35051 11.4732Q9.37782 11.3909 9.36466 11.3053Q9.35151 11.2196 9.30077 11.1493Q9.25003 11.079 9.17285 11.0395Q9.09566 11 9.00896 11L9.00686 11Q8.89785 11 8.79412 11.0335Q8.6904 11.067 8.60201 11.1308Q8.51362 11.1946 8.44913 11.2825Q8.38464 11.3704 8.3503 11.4739L8.00084 12.5268Q7.97354 12.6091 7.98669 12.6947Q7.99985 12.7804 8.05059 12.8507Q8.10133 12.921 8.17851 12.9605Q8.2557 13 8.3424 13L8.3445 13Q8.45351 13 8.55723 12.9665Q8.66096 12.933 8.74935 12.8692Q8.83774 12.8054 8.90223 12.7175Q8.96672 12.6296 9.00105 12.5261ZM6.72364 13.5266L7.0731 12.4737Q7.10041 12.3914 7.08725 12.3057Q7.07409 12.22 7.02335 12.1497Q6.97262 12.0794 6.89543 12.0399Q6.81824 12.0005 6.73155 12.0005L6.72944 12.0005Q6.62043 12.0005 6.51671 12.034Q6.41298 12.0675 6.32459 12.1313Q6.2362 12.1951 6.17171 12.283Q6.10723 12.3709 6.07289 12.4743L5.72343 13.5272Q5.69612 13.6095 5.70928 13.6952Q5.72244 13.7809 5.77317 13.8512Q5.82391 13.9215 5.9011 13.961Q5.97828 14.0005 6.06498 14.0005L6.06709 14.0005Q6.1761 14.0005 6.27982 13.9669Q6.38355 13.9334 6.47194 13.8696Q6.56033 13.8058 6.62481 13.7179Q6.6893 13.6301 6.72364 13.5266Z" id="Combined-Shape" fill="#000000" fill-rule="evenodd" stroke="none" artboard="61d31b06-b47e-4933-97e3-89bdbd840c98" />
  </g>
</svg>