<?xml version="1.0" encoding="utf-8"?>
<svg width="15px" height="15px" viewBox="0 0 15 15" version="1.1" xmlns:xlink="http://www.w3.org/1999/xlink" xmlns="http://www.w3.org/2000/svg">
  <defs>
    <rect width="15" height="15" id="artboard_1" />
    <clipPath id="clip_1">
      <use xlink:href="#artboard_1" clip-rule="evenodd" />
    </clipPath>
  </defs>
  <g id="icon--weather-pouring" clip-path="url(#clip_1)">
    <path d="M8.00174 8C8.20021 8 8.3611 8.16089 8.3611 8.35936C8.3611 8.39831 8.35476 8.437 8.34235 8.47391L6.64314 13.5261C6.5479 13.8093 6.2825 14 5.98375 14C5.78528 14 5.62439 13.8391 5.62439 13.6406C5.62439 13.6017 5.63072 13.563 5.64314 13.5261L7.34235 8.47391C7.43759 8.19075 7.70298 8 8.00174 8ZM10.0017 8C10.2002 8 10.3611 8.16089 10.3611 8.35936C10.3611 8.39831 10.3547 8.437 10.3423 8.47391L8.97944 12.5261C8.8842 12.8093 8.6188 13 8.32005 13C8.12158 13 7.96069 12.8391 7.96069 12.6406C7.96069 12.6017 7.96703 12.563 7.97944 12.5261L9.34232 8.47391C9.43756 8.19075 9.70296 8 10.0017 8ZM6.00171 8C6.20018 8 6.36107 8.16089 6.36107 8.35936C6.36107 8.39831 6.35474 8.437 6.34232 8.47391L4.97944 12.5261C4.8842 12.8093 4.6188 13 4.32005 13C4.12158 13 3.96069 12.8391 3.96069 12.6406C3.96069 12.6017 3.96703 12.563 3.97944 12.5261L5.34232 8.47391C5.43756 8.19075 5.70296 8 6.00171 8ZM8.00002 1.9C10.2473 1.9 12.0723 3.70806 12.0997 5.94886C13.2409 6.18131 14.1 7.19032 14.1 8.4L14.1 8.5C14.1 9.88071 12.9807 11 11.6 11L10.58 11L10.905 10L11.6 10C12.3797 10 13.0205 9.40511 13.0932 8.64446L13.1 8.5L13.1 8.4C13.1 7.73116 12.6584 7.15214 12.0361 6.96316L11.9001 6.92874L11.1096 6.76773L11.0998 5.96108C11.0791 4.26561 9.69765 2.9 8.00002 2.9C6.65942 2.9 5.48781 3.7587 5.06543 4.9973L5.01254 5.16852L4.80447 5.91824L4.00002 5.9L3.90002 5.9C2.84566 5.9 1.98186 6.71588 1.90551 7.75074L1.90002 7.9L1.90002 8C1.90002 9.05436 2.7159 9.91817 3.75076 9.99451L3.93102 10L3.61205 10.9864C2.09029 10.8414 0.900024 9.55971 0.900024 8L0.900024 7.9C0.900024 6.24315 2.24317 4.9 3.90002 4.9L4.04896 4.90109C4.52929 3.17036 6.1163 1.9 8.00002 1.9Z" id="Shape" fill="#000000" fill-rule="evenodd" stroke="none" artboard="aa875c05-c4f2-4834-9aed-80e8ee530040" />
  </g>
</svg>