<?xml version="1.0" encoding="utf-8"?>
<svg width="15px" height="15px" viewBox="0 0 15 15" version="1.1" xmlns:xlink="http://www.w3.org/1999/xlink" xmlns="http://www.w3.org/2000/svg">
  <defs>
    <rect width="15" height="15" id="artboard_1" />
    <clipPath id="clip_1">
      <use xlink:href="#artboard_1" clip-rule="evenodd" />
    </clipPath>
  </defs>
  <g id="icon--weather-partly-snowy" clip-path="url(#clip_1)">
    <path d="M5.5 0C5.77614 0 6 0.223858 6 0.5L6 1.5C6 1.77614 5.77614 2 5.5 2C5.22386 2 5 1.77614 5 1.5L5 0.5C5 0.223858 5.22386 0 5.5 0ZM2.31802 1.61091L3.02513 2.31802C3.22039 2.51328 3.22039 2.82986 3.02513 3.02513C2.82986 3.22039 2.51328 3.22039 2.31802 3.02513L1.61091 2.31802C1.41565 2.12276 1.41565 1.80617 1.61091 1.61091C1.80617 1.41565 2.12276 1.41565 2.31802 1.61091ZM9.38909 1.61091C9.58435 1.80617 9.58435 2.12276 9.38909 2.31802L8.68198 3.02513C8.48672 3.22039 8.17014 3.22039 7.97487 3.02513C7.77961 2.82986 7.77961 2.51328 7.97487 2.31802L8.68198 1.61091C8.87724 1.41565 9.19383 1.41565 9.38909 1.61091ZM5.6 2.9C6.81004 2.9 7.81929 3.75967 8.05031 4.90158L8 4.9L7.76561 4.90544C7.52067 4.91683 7.27934 4.94597 7.04312 4.99187C6.87914 4.40689 6.36738 3.96639 5.74446 3.90687L5.6 3.9L5.4 3.9C4.6203 3.9 3.97955 4.49489 3.90687 5.25554L3.9 5.4L3.9 5.6C3.9 5.97392 4.03682 6.31588 4.26312 6.57856C4.19163 6.65775 4.12178 6.74162 4.05457 6.82792L3.982 6.924L3.82633 6.94583C3.66956 6.97149 3.51627 7.00764 3.3672 7.05354C3.07294 6.64504 2.9 6.14272 2.9 5.6L2.9 5.4C2.9 4.01929 4.01929 2.9 5.4 2.9L5.6 2.9ZM1.5 5C1.77614 5 2 5.22386 2 5.5C2 5.77614 1.77614 6 1.5 6L0.5 6C0.223858 6 0 5.77614 0 5.5C0 5.22386 0.223858 5 0.5 5L1.5 5ZM11.8751 8.90426C11.4325 7.17687 9.8654 5.9 8.00002 5.9C6.51992 5.9 5.22757 6.7039 4.5358 7.89889L4.23565 7.90532C2.93156 7.98996 1.90002 9.07452 1.90002 10.4L1.90002 10.6C1.90002 11.9807 3.01931 13.1 4.40002 13.1L5.04302 13.1L5.49874 12.1L4.40002 12.1L4.25556 12.0931C3.49491 12.0204 2.90002 11.3797 2.90002 10.6L2.90002 10.4L2.90689 10.2555C2.97958 9.49489 3.62033 8.9 4.40002 8.9L5.11509 8.89419L5.40124 8.39989L5.50642 8.23121C6.05775 7.40845 6.98413 6.9 8.00002 6.9C9.37797 6.9 10.5694 7.83728 10.9064 9.15245L11.1059 9.9311L12.0341 9.89942L12.1476 9.90598C12.671 9.96618 13.1 10.433 13.1 11C13.1 11.6075 12.6075 12.1 12 12.1L11.6941 12.1L11.3988 13.1L12 13.1C13.1598 13.1 14.1 12.1598 14.1 11C14.1 9.8402 13.1598 8.9 12 8.9L11.8751 8.90426ZM6.23205 9.03528C6.36371 9 6.50058 8.99118 6.63485 9.00882L6.76795 9.03528L6.59892 9.86394L7.23205 9.30322C7.32843 9.3996 7.40451 9.51373 7.45636 9.63883L7.5 9.76733L6.69784 10.0353L7.5 10.3032C7.46473 10.4349 7.40393 10.5578 7.32152 10.6653L7.23205 10.7673L6.59892 10.2066L6.76795 11.0353C6.6363 11.0706 6.49942 11.0794 6.36516 11.0617L6.23205 11.0353L6.40109 10.2066L5.76795 10.7673C5.67157 10.671 5.5955 10.5568 5.54364 10.4317L5.5 10.3032L6.30217 10.0353L5.5 9.76733C5.53528 9.63567 5.59608 9.51272 5.67848 9.40526L5.76795 9.30322L6.40109 9.86394L6.23205 9.03528ZM9.25307 10.5184C9.04615 10.4857 8.83408 10.4966 8.63061 10.5511L8.87552 11.7518L7.95818 10.9393L7.85285 11.0563C7.72106 11.2192 7.62447 11.4083 7.56995 11.6118L8.7322 12L7.56995 12.3882L7.61862 12.5379C7.69374 12.7335 7.80923 12.9117 7.95818 13.0607L8.87552 12.2482L8.63061 13.4489L8.78461 13.4816C8.99152 13.5143 9.2036 13.5034 9.40707 13.4489L9.16216 12.2482L10.0795 13.0607L10.1848 12.9436C10.3166 12.7808 10.4132 12.5917 10.4677 12.3882L9.30548 12L10.4677 11.6118L10.4191 11.462C10.3439 11.2665 10.2284 11.0883 10.0795 10.9393L9.16216 11.7518L9.40707 10.5511L9.25307 10.5184ZM6.63485 13.0088C6.50058 12.9912 6.36371 13 6.23205 13.0353L6.40109 13.8639L5.76795 13.3032L5.67848 13.4053C5.59608 13.5127 5.53528 13.6357 5.5 13.7673L6.30217 14.0353L5.5 14.3032L5.54364 14.4317C5.5955 14.5568 5.67157 14.671 5.76795 14.7673L6.40109 14.2066L6.23205 15.0353L6.36516 15.0617C6.49942 15.0794 6.6363 15.0706 6.76795 15.0353L6.59892 14.2066L7.23205 14.7673L7.32152 14.6653C7.40393 14.5578 7.46473 14.4349 7.5 14.3032L6.69784 14.0353L7.5 13.7673L7.45636 13.6388C7.40451 13.5137 7.32843 13.3996 7.23205 13.3032L6.59892 13.8639L6.76795 13.0353L6.63485 13.0088Z" id="Combined-Shape" fill="#000000" fill-rule="evenodd" stroke="none" artboard="86da4d36-e840-4787-ba09-1652c2cf3cc8" />
  </g>
</svg>