<?xml version="1.0" encoding="utf-8"?>
<svg width="15px" height="15px" viewBox="0 0 15 15" version="1.1" xmlns:xlink="http://www.w3.org/1999/xlink" xmlns="http://www.w3.org/2000/svg">
  <defs>
    <rect width="15" height="15" id="artboard_1" />
    <clipPath id="clip_1">
      <use xlink:href="#artboard_1" clip-rule="evenodd" />
    </clipPath>
  </defs>
  <g id="icon--weather-partly-rainy" clip-path="url(#clip_1)">
    <path d="M7.73023 13.0005C7.92954 13.0005 8.0911 13.162 8.0911 13.3613C8.0911 13.4 8.0849 13.4383 8.07273 13.475L7.72394 14.5259C7.6299 14.8092 7.36496 15.0005 7.06644 15.0005C6.86713 15.0005 6.70557 14.8389 6.70557 14.6396C6.70557 14.601 6.71177 14.5626 6.72394 14.5259L7.07273 13.475C7.16677 13.1917 7.43171 13.0005 7.73023 13.0005ZM10.0076 12C10.2069 12 10.3684 12.1616 10.3684 12.3609C10.3684 12.3995 10.3622 12.4379 10.3501 12.4745L10.0013 13.5255C9.90725 13.8088 9.6423 14 9.34378 14C9.14448 14 8.98291 13.8384 8.98291 13.6391C8.98291 13.6005 8.98911 13.5621 9.00128 13.5255L9.35008 12.4745C9.44411 12.1912 9.70906 12 10.0076 12ZM6.00758 12C6.20688 12 6.36845 12.1616 6.36845 12.3609C6.36845 12.3995 6.36224 12.4379 6.35008 12.4745L6.00128 13.5255C5.90725 13.8088 5.6423 14 5.34378 14C5.14448 14 4.98291 13.8384 4.98291 13.6391C4.98291 13.6005 4.98911 13.5621 5.00128 13.5255L5.35008 12.4745C5.44411 12.1912 5.70906 12 6.00758 12ZM8.00002 5.9C9.8654 5.9 11.4325 7.17687 11.8751 8.90426L12 8.9C13.1598 8.9 14.1 9.8402 14.1 11C14.1 12.1598 13.1598 13.1 12 13.1L11.236 13.099L11.572 12.099L12 12.1C12.6075 12.1 13.1 11.6075 13.1 11C13.1 10.433 12.671 9.96618 12.1476 9.90598L12.0341 9.89942L11.1059 9.9311L10.9064 9.15245C10.5694 7.83728 9.37797 6.9 8.00002 6.9C6.98413 6.9 6.05775 7.40845 5.50642 8.23121L5.40124 8.39989L5.11509 8.89419L4.40002 8.9C3.62033 8.9 2.97958 9.49489 2.90689 10.2555L2.90002 10.4L2.90002 10.6C2.90002 11.3797 3.49491 12.0204 4.25556 12.0931L4.40002 12.1L4.71102 12.099L4.37502 13.098L4.23565 13.0947C2.93156 13.01 1.90002 11.9255 1.90002 10.6L1.90002 10.4C1.90002 9.88946 2.05306 9.41467 2.31576 9.01899L2.43568 8.85394L2.43568 8.85394L2.45713 8.82712C2.52789 8.73948 2.60455 8.65682 2.68645 8.57966L2.85077 8.4378L2.85077 8.4378L2.99236 8.33368L2.99236 8.33368L3.18296 8.21573C3.49812 8.03975 3.85529 7.93001 4.23565 7.90532L4.5358 7.89889C5.22757 6.7039 6.51992 5.9 8.00002 5.9ZM8.58241 10.4177C8.78171 10.4177 8.94328 10.5792 8.94328 10.7785C8.94328 10.8172 8.93707 10.8555 8.9249 10.8922L8.57611 11.9431C8.48208 12.2264 8.21713 12.4177 7.91861 12.4177C7.71931 12.4177 7.55774 12.2561 7.55774 12.0568C7.55774 12.0182 7.56394 11.9798 7.57611 11.9431L7.9249 10.8922C8.01894 10.6089 8.28389 10.4177 8.58241 10.4177ZM5.60002 2.9C6.81006 2.9 7.81931 3.75967 8.05034 4.90158L8.00002 4.9L7.76563 4.90544C7.5207 4.91683 7.27937 4.94597 7.04314 4.99187C6.87916 4.40689 6.36741 3.96639 5.74448 3.90687L5.60002 3.9L5.40002 3.9C4.62033 3.9 3.97958 4.49489 3.90689 5.25554L3.90002 5.4L3.90002 5.6C3.90002 5.97392 4.03684 6.31588 4.26314 6.57856C4.19166 6.65775 4.1218 6.74162 4.05459 6.82792L3.98202 6.924L3.82635 6.94583C3.66959 6.97149 3.5163 7.00764 3.36722 7.05354C3.07296 6.64504 2.90002 6.14272 2.90002 5.6L2.90002 5.4C2.90002 4.01929 4.01931 2.9 5.40002 2.9L5.60002 2.9ZM1.5 5C1.77614 5 2 5.22386 2 5.5C2 5.77614 1.77614 6 1.5 6L0.5 6C0.223858 6 0 5.77614 0 5.5C0 5.22386 0.223858 5 0.5 5L1.5 5ZM2.31803 1.61091L3.02514 2.31802C3.2204 2.51328 3.2204 2.82986 3.02514 3.02513C2.82988 3.22039 2.51329 3.22039 2.31803 3.02513L1.61092 2.31802C1.41566 2.12276 1.41566 1.80617 1.61092 1.61091C1.80619 1.41565 2.12277 1.41565 2.31803 1.61091ZM9.38903 1.61091C9.58429 1.80617 9.58429 2.12276 9.38903 2.31802L8.68192 3.02513C8.48666 3.22039 8.17008 3.22039 7.97482 3.02513C7.77955 2.82986 7.77955 2.51328 7.97482 2.31802L8.68192 1.61091C8.87718 1.41565 9.19377 1.41565 9.38903 1.61091ZM5.5 0C5.77614 0 6 0.223858 6 0.5L6 1.5C6 1.77614 5.77614 2 5.5 2C5.22386 2 5 1.77614 5 1.5L5 0.5C5 0.223858 5.22386 0 5.5 0Z" id="Shape" fill="#000000" fill-rule="evenodd" stroke="none" artboard="5993ecff-ee8e-4e5f-9c5b-e3d2e90fd4ed" />
  </g>
</svg>