<?xml version="1.0" encoding="utf-8"?>
<svg width="15px" height="15px" viewBox="0 0 15 15" version="1.1" xmlns:xlink="http://www.w3.org/1999/xlink" xmlns="http://www.w3.org/2000/svg">
  <defs>
    <rect width="15" height="15" id="artboard_1" />
    <clipPath id="clip_1">
      <use xlink:href="#artboard_1" clip-rule="evenodd" />
    </clipPath>
  </defs>
  <g id="icon--weather-sunny-2" clip-path="url(#clip_1)">
    <path d="M7.5 11C7.77614 11 8 11.2239 8 11.5L8 12.5C8 12.7761 7.77614 13 7.5 13C7.22386 13 7 12.7761 7 12.5L7 11.5C7 11.2239 7.22386 11 7.5 11ZM5.02514 9.97487C5.2204 10.1701 5.2204 10.4867 5.02514 10.682L4.31803 11.3891C4.12277 11.5843 3.80619 11.5843 3.61092 11.3891C3.41566 11.1938 3.41566 10.8772 3.61092 10.682L4.31803 9.97487C4.51329 9.77961 4.82988 9.77961 5.02514 9.97487ZM10.6819 9.97487L11.389 10.682C11.5843 10.8772 11.5843 11.1938 11.389 11.3891C11.1938 11.5843 10.8772 11.5843 10.6819 11.3891L9.97482 10.682C9.77955 10.4867 9.77955 10.1701 9.97482 9.97487C10.1701 9.77961 10.4867 9.77961 10.6819 9.97487ZM7.60002 4.9C8.98074 4.9 10.1 6.01929 10.1 7.4L10.1 7.6C10.1 8.98071 8.98074 10.1 7.60002 10.1L7.40002 10.1C6.01931 10.1 4.90002 8.98071 4.90002 7.6L4.90002 7.4C4.90002 6.01929 6.01931 4.9 7.40002 4.9L7.60002 4.9ZM7.60002 5.9L7.40002 5.9C6.62033 5.9 5.97958 6.49489 5.90689 7.25554L5.90002 7.4L5.90002 7.6C5.90002 8.3797 6.49491 9.02045 7.25556 9.09313L7.40002 9.1L7.60002 9.1C8.37972 9.1 9.02047 8.50511 9.09316 7.74446L9.10002 7.6L9.10002 7.4C9.10002 6.6203 8.50514 5.97955 7.74448 5.90687L7.60002 5.9ZM3.5 7C3.77614 7 4 7.22386 4 7.5C4 7.77614 3.77614 8 3.5 8L2.5 8C2.22386 8 2 7.77614 2 7.5C2 7.22386 2.22386 7 2.5 7L3.5 7ZM12.5 7C12.7761 7 13 7.22386 13 7.5C13 7.77614 12.7761 8 12.5 8L11.5 8C11.2239 8 11 7.77614 11 7.5C11 7.22386 11.2239 7 11.5 7L12.5 7ZM4.31803 3.61091L5.02514 4.31802C5.2204 4.51328 5.2204 4.82986 5.02514 5.02513C4.82988 5.22039 4.51329 5.22039 4.31803 5.02513L3.61092 4.31802C3.41566 4.12276 3.41566 3.80617 3.61092 3.61091C3.80619 3.41565 4.12277 3.41565 4.31803 3.61091ZM11.389 3.61091C11.5843 3.80617 11.5843 4.12276 11.389 4.31802L10.6819 5.02513C10.4867 5.22039 10.1701 5.22039 9.97482 5.02513C9.77955 4.82986 9.77955 4.51328 9.97482 4.31802L10.6819 3.61091C10.8772 3.41565 11.1938 3.41565 11.389 3.61091ZM7.5 2C7.77614 2 8 2.22386 8 2.5L8 3.5C8 3.77614 7.77614 4 7.5 4C7.22386 4 7 3.77614 7 3.5L7 2.5C7 2.22386 7.22386 2 7.5 2Z" id="Shape" fill="#000000" fill-rule="evenodd" stroke="none" artboard="0c3fb618-09de-44e0-98c3-1a4b11c0983f" />
  </g>
</svg>