<?xml version="1.0" encoding="utf-8"?>
<svg width="15px" height="15px" viewBox="0 0 15 15" version="1.1" xmlns:xlink="http://www.w3.org/1999/xlink" xmlns="http://www.w3.org/2000/svg">
  <defs>
    <rect width="15" height="15" id="artboard_1" />
    <clipPath id="clip_1">
      <use xlink:href="#artboard_1" clip-rule="evenodd" />
    </clipPath>
  </defs>
  <g id="icon--weather-snowy" clip-path="url(#clip_1)">
    <path d="M5.73205 12.0353C5.86371 12 6.00058 11.9912 6.13485 12.0088L6.26795 12.0353L6.09892 12.8639L6.73205 12.3032C6.82843 12.3996 6.90451 12.5137 6.95636 12.6388L7 12.7673L6.19784 13.0353L7 13.3032C6.96473 13.4349 6.90393 13.5578 6.82152 13.6653L6.73205 13.7673L6.09892 13.2066L6.26795 14.0353C6.1363 14.0706 5.99942 14.0794 5.86516 14.0617L5.73205 14.0353L5.90109 13.2066L5.26795 13.7673C5.17157 13.671 5.0955 13.5568 5.04364 13.4317L5 13.3032L5.80217 13.0353L5 12.7673C5.03528 12.6357 5.09608 12.5127 5.17848 12.4053L5.26795 12.3032L5.90109 12.8639L5.73205 12.0353ZM8.63073 10.5511C8.8342 10.4966 9.04628 10.4857 9.25319 10.5184L9.40719 10.5511L9.16228 11.7518L10.0796 10.9393C10.2286 11.0883 10.3441 11.2665 10.4192 11.462L10.4678 11.6118L9.3056 12L10.4678 12.3882C10.4133 12.5917 10.3167 12.7808 10.185 12.9436L10.0796 13.0607L9.16228 12.2482L9.40719 13.4489C9.20372 13.5034 8.99164 13.5143 8.78473 13.4816L8.63073 13.4489L8.87564 12.2482L7.9583 13.0607C7.80935 12.9117 7.69387 12.7335 7.61874 12.5379L7.57007 12.3882L8.73232 12L7.57007 11.6118C7.62459 11.4083 7.72118 11.2192 7.85297 11.0563L7.9583 10.9393L8.87564 11.7518L8.63073 10.5511ZM8.00002 1.9C10.2473 1.9 12.0723 3.70806 12.0997 5.94886C13.2409 6.18131 14.1 7.19032 14.1 8.4L14.1 8.5C14.1 9.88071 12.9807 11 11.6 11L10.983 11L11.317 10L11.6 10C12.3797 10 13.0205 9.40511 13.0932 8.64446L13.1 8.5L13.1 8.4C13.1 7.73116 12.6584 7.15214 12.0361 6.96316L11.9001 6.92874L11.1096 6.76773L11.0998 5.96108C11.0791 4.26561 9.69765 2.9 8.00002 2.9C6.65942 2.9 5.48781 3.7587 5.06543 4.9973L5.01254 5.16852L4.80447 5.91824L4.00002 5.9L3.90002 5.9C2.84566 5.9 1.98186 6.71588 1.90551 7.75074L1.90002 7.9L1.90002 8C1.90002 9.05436 2.7159 9.91817 3.75076 9.99451L3.90002 10L5.16602 10L4.83202 11L3.90002 11C2.24317 11 0.900024 9.65685 0.900024 8L0.900024 7.9C0.900024 6.24315 2.24317 4.9 3.90002 4.9L4.04896 4.90109C4.52929 3.17036 6.1163 1.9 8.00002 1.9ZM6.63073 7.55111C6.8342 7.49659 7.04628 7.48569 7.25319 7.5184L7.40719 7.55111L7.16228 8.75176L8.07962 7.93933C8.22857 8.08828 8.34405 8.2665 8.41918 8.46205L8.46784 8.61177L7.3056 9L8.46784 9.38822C8.41333 9.59169 8.31674 9.78081 8.18495 9.94365L8.07962 10.0607L7.16228 9.24824L7.40719 10.4489C7.20372 10.5034 6.99164 10.5143 6.78473 10.4816L6.63073 10.4489L6.87564 9.24824L5.9583 10.0607C5.80935 9.91171 5.69387 9.7335 5.61874 9.53795L5.57007 9.38822L6.73232 9L5.57007 8.61177C5.62459 8.4083 5.72118 8.21918 5.85297 8.05635L5.9583 7.93933L6.87564 8.75176L6.63073 7.55111Z" id="Shape" fill="#000000" fill-rule="evenodd" stroke="none" artboard="0a064c1c-9c80-449d-9c5a-13bd6a9c1098" />
  </g>
</svg>