<?xml version="1.0" encoding="utf-8"?>
<svg width="15px" height="15px" viewBox="0 0 15 15" version="1.1" xmlns:xlink="http://www.w3.org/1999/xlink" xmlns="http://www.w3.org/2000/svg">
  <defs>
    <rect width="15" height="15" id="artboard_1" />
    <clipPath id="clip_1">
      <use xlink:href="#artboard_1" clip-rule="evenodd" />
    </clipPath>
  </defs>
  <g id="icon--weather-hazy" clip-path="url(#clip_1)">
    <path d="M9.50002 11C9.77617 11 10 11.2239 10 11.5C10 11.7761 9.77617 12 9.50002 12L1.40002 12C1.12388 12 0.900024 11.7761 0.900024 11.5C0.900024 11.2239 1.12388 11 1.40002 11L9.50002 11ZM13.6 11C13.8761 11 14.1 11.2239 14.1 11.5C14.1 11.7761 13.8761 12 13.6 12L11.5 12C11.2239 12 11 11.7761 11 11.5C11 11.2239 11.2239 11 11.5 11L13.6 11ZM5.50002 9C5.77617 9 6.00002 9.22386 6.00002 9.5C6.00002 9.77614 5.77617 10 5.50002 10L1.40002 10C1.12388 10 0.900024 9.77614 0.900024 9.5C0.900024 9.22386 1.12388 9 1.40002 9L5.50002 9ZM13.6 9C13.8761 9 14.1 9.22386 14.1 9.5C14.1 9.77614 13.8761 10 13.6 10L7.5 10C7.22386 10 7 9.77614 7 9.5C7 9.22386 7.22386 9 7.5 9L13.6 9ZM7.60002 4.9C8.98074 4.9 10.1 6.01929 10.1 7.4L10.1 7.6C10.1 7.73651 10.0891 7.87046 10.068 8.00103L9.04599 8.00041C9.06883 7.91774 9.08477 7.8322 9.09316 7.74446L9.10002 7.6L9.10002 7.4C9.10002 6.6203 8.50514 5.97955 7.74448 5.90687L7.60002 5.9L7.40002 5.9C6.62033 5.9 5.97958 6.49489 5.90689 7.25554L5.90002 7.4L5.90002 7.6C5.90002 7.73867 5.91884 7.87294 5.95406 8.00041L4.93202 8.00103C4.91097 7.87046 4.90002 7.73651 4.90002 7.6L4.90002 7.4C4.90002 6.01929 6.01931 4.9 7.40002 4.9L7.60002 4.9ZM3.5 7C3.77614 7 4 7.22386 4 7.5C4 7.77614 3.77614 8 3.5 8L2.5 8C2.22386 8 2 7.77614 2 7.5C2 7.22386 2.22386 7 2.5 7L3.5 7ZM12.5 7C12.7761 7 13 7.22386 13 7.5C13 7.77614 12.7761 8 12.5 8L11.5 8C11.2239 8 11 7.77614 11 7.5C11 7.22386 11.2239 7 11.5 7L12.5 7ZM4.31803 3.61091L5.02514 4.31802C5.2204 4.51328 5.2204 4.82986 5.02514 5.02513C4.82988 5.22039 4.51329 5.22039 4.31803 5.02513L3.61092 4.31802C3.41566 4.12276 3.41566 3.80617 3.61092 3.61091C3.80619 3.41565 4.12277 3.41565 4.31803 3.61091ZM11.3892 3.61091C11.5844 3.80617 11.5844 4.12276 11.3892 4.31802L10.682 5.02513C10.4868 5.22039 10.1702 5.22039 9.97494 5.02513C9.77968 4.82986 9.77968 4.51328 9.97494 4.31802L10.682 3.61091C10.8773 3.41565 11.1939 3.41565 11.3892 3.61091ZM7.5 2C7.77614 2 8 2.22386 8 2.5L8 3.5C8 3.77614 7.77614 4 7.5 4C7.22386 4 7 3.77614 7 3.5L7 2.5C7 2.22386 7.22386 2 7.5 2Z" id="Shape" fill="#000000" fill-rule="evenodd" stroke="none" artboard="87a932b2-69d1-42bc-9fe5-e64c12f59f4d" />
  </g>
</svg>