<?xml version="1.0" encoding="utf-8"?>
<svg width="15px" height="15px" viewBox="0 0 15 15" version="1.1" xmlns:xlink="http://www.w3.org/1999/xlink" xmlns="http://www.w3.org/2000/svg">
  <defs>
    <rect width="15" height="15" id="artboard_1" />
    <clipPath id="clip_1">
      <use xlink:href="#artboard_1" clip-rule="evenodd" />
    </clipPath>
  </defs>
  <g id="icon--agile" clip-path="url(#clip_1)">
    <path d="M6.50022 2C4.01494 2 2.00022 4.01472 2.00022 6.5C2.00022 7.42507 2.27935 8.28495 2.75799 9L4.05068 9C4.04221 8.99168 4.03376 8.9833 4.02534 8.97487C3.34191 8.29146 3.00019 7.4665 3.00022 6.5C3.00022 5.5335 3.34191 4.70854 4.02534 4.02513C4.70876 3.34171 5.53374 3 6.50022 3C7.46669 3 8.29167 3.34171 8.97509 4.02513C9.65852 4.70854 10.0002 5.5335 10.0002 6.5C10.0002 7.4665 9.65849 8.29146 8.97509 8.97487C8.3416 9.60837 7.58649 9.94825 6.70976 9.99453L1.29985 9.99499C1.02365 9.99499 0.799805 10.2189 0.799805 10.495C0.799805 10.7711 1.02365 10.995 1.29985 10.995L6.49997 10.995L6.49997 11L6.50022 11C6.572 11 6.64338 10.9983 6.71434 10.995L12.9999 10.995L11.8449 12.0289C11.6639 12.2099 11.6639 12.555 11.8449 12.736C12.0259 12.917 12.3427 12.9453 12.5237 12.7643L14.4411 10.8469C14.6221 10.6659 14.6221 10.3208 14.4411 10.1398L12.5237 8.22244C12.3427 8.04142 12.0259 8.0697 11.8449 8.25072C11.6639 8.43175 11.6639 8.77681 11.8449 8.95783L13.0029 9.99399L9.33591 9.9943C10.3514 9.16922 11.0002 7.91038 11.0002 6.5C11.0002 4.01472 8.98549 2 6.50022 2L6.50022 2Z" id="Vector-shape" fill="#000000" fill-rule="evenodd" stroke="none" artboard="14627939-a791-4b04-9d75-0b032b41b205" />
  </g>
</svg>