<?xml version="1.0" encoding="utf-8"?>
<svg width="15px" height="15px" viewBox="0 0 15 15" version="1.1" xmlns:xlink="http://www.w3.org/1999/xlink" xmlns="http://www.w3.org/2000/svg">
  <defs>
    <path d="M1.499 2L7.501 2C7.63879 2 7.75641 2.04872 7.85385 2.14615C7.95128 2.24359 8 2.3612 8 2.499L8 4.501C8 4.63879 7.95128 4.75641 7.85385 4.85385C7.75641 4.95128 7.63879 5 7.501 5L1.499 5C1.3612 5 1.24359 4.95128 1.14615 4.85385C1.04872 4.75641 1 4.63879 1 4.501L1 2.499C1 2.3612 1.04872 2.24359 1.14615 2.14615C1.24359 2.04872 1.3612 2 1.499 2L1.499 2ZM11.6 3C12.9807 3 14.1 4.11929 14.1 5.5C14.1 6.88071 12.9807 8 11.6 8C11.3239 8 11.1 7.77614 11.1 7.5C11.1 7.25454 11.2769 7.05039 11.5101 7.00806L11.6 7C12.4284 7 13.1 6.32843 13.1 5.5C13.1 4.7203 12.5051 4.07955 11.7445 4.00687L11.6 4L10.3315 3.995C10.4166 4.16564 10.5346 4.2903 10.633 4.39437C10.7937 4.56421 10.9025 4.6792 10.732 4.84975C10.5509 5.03077 10.2342 5.05905 10.0531 4.87803L9.13577 3.84693C8.95474 3.66591 8.95474 3.32085 9.13577 3.13982L10.0531 2.12754C10.2342 1.94652 10.5509 1.9748 10.732 2.15582C10.9062 2.33006 10.7923 2.44318 10.624 2.61039C10.5219 2.71179 10.3998 2.83309 10.3098 2.99997L11.6 3L11.6 3ZM3.499 6L9.501 6C9.63879 6 9.75641 6.04872 9.85385 6.14615C9.95128 6.24359 10 6.3612 10 6.499L10 8.501C10 8.63879 9.95128 8.75641 9.85385 8.85385C9.75641 8.95128 9.63879 9 9.501 9L3.499 9C3.3612 9 3.24359 8.95128 3.14615 8.85385C3.04872 8.75641 3 8.63879 3 8.501L3 6.499C3 6.3612 3.04872 6.24359 3.14615 6.14615C3.24359 6.04872 3.3612 6 3.499 6L3.499 6ZM1.499 10L7.501 10C7.63879 10 7.75641 10.0487 7.85385 10.1462C7.95128 10.2436 8 10.3612 8 10.499L8 12.501C8 12.6388 7.95128 12.7564 7.85385 12.8538C7.75641 12.9513 7.63879 13 7.501 13L1.499 13C1.3612 13 1.24359 12.9513 1.14615 12.8538C1.04872 12.7564 1 12.6388 1 12.501L1 10.499C1 10.3612 1.04872 10.2436 1.14615 10.1462C1.24359 10.0487 1.3612 10 1.499 10L1.499 10Z" id="path_1" />
    <rect width="15" height="15" id="artboard_1" />
    <clipPath id="clip_1">
      <use xlink:href="#artboard_1" clip-rule="evenodd" />
    </clipPath>
    <clipPath id="clip_2">
      <use xlink:href="#path_1" />
    </clipPath>
  </defs>
  <g id="icon--backlog" clip-path="url(#clip_1)">
    <g id="Vector" artboard="12be25c2-0f96-4043-8945-3d47a7d30459">
      <g clip-path="url(#clip_2)">
        <use xlink:href="#path_1" fill="none" stroke="#000000" stroke-width="2" />
      </g>
    </g>
  </g>
</svg>