<?xml version="1.0" encoding="utf-8"?>
<svg width="15px" height="15px" viewBox="0 0 15 15" version="1.1" xmlns:xlink="http://www.w3.org/1999/xlink" xmlns="http://www.w3.org/2000/svg">
  <g id="icon--brainstorm">
    <path d="M0 0L15 0L15 15L0 15L0 0Z" id="icon--brainstorm" fill="none" fill-rule="evenodd" stroke="none" />
    <path d="M6.49902 1.8L8.50098 1.8C8.63867 1.80001 8.75635 1.84873 8.85376 1.94616C8.95117 2.04359 8.99976 2.16121 9 2.299L9 4.301C8.99976 4.4388 8.95117 4.55642 8.85376 4.65385C8.75635 4.75129 8.63867 4.8 8.50098 4.8L7.90015 4.8L7.90015 6.8L8.50073 6.8C8.63843 6.80001 8.75586 6.84873 8.85327 6.94617C8.95068 7.04359 8.99951 7.16121 8.99976 7.299L8.99976 7.35564L10.918 6.5414C10.906 6.46267 10.8999 6.38206 10.8999 6.3C10.8999 5.41635 11.6162 4.7 12.5 4.7C13.3835 4.7 14.0999 5.41635 14.0999 6.3C14.0999 7.18366 13.3835 7.9 12.5 7.9C11.9841 7.9 11.5251 7.65591 11.2327 7.27692L8.99976 8.22473L8.99976 9.301C8.99951 9.43333 8.95459 9.54706 8.86475 9.64217L9.73706 10.8L11.501 10.8C11.6387 10.8 11.7561 10.8487 11.8535 10.9462C11.9512 11.0436 12 11.1612 12 11.299L12 13.301C12 13.4388 11.9512 13.5564 11.8535 13.6539C11.7561 13.7513 11.6387 13.8 11.501 13.8L9.49902 13.8C9.36108 13.8 9.24341 13.7513 9.146 13.6539C9.04858 13.5564 8.99976 13.4388 9 13.301L9 12.7L7.17163 12.7C7.03125 13.4403 6.38086 14 5.59985 14C4.71606 14 3.99976 13.2837 3.99976 12.4C3.99976 11.5163 4.71606 10.8 5.59985 10.8C6.30884 10.8 6.91016 11.2612 7.12012 11.9L9 11.9L9 11.299C9 11.2543 9.00488 11.2118 9.01514 11.1713L7.98193 9.8L6.49878 9.8C6.36084 9.8 6.24316 9.75129 6.14575 9.65385C6.04834 9.55642 5.99976 9.4388 5.99976 9.301L5.99976 9.04328L4 9.65467L4 10.301C3.99976 10.4388 3.95093 10.5564 3.85352 10.6539C3.7561 10.7513 3.63867 10.8 3.50098 10.8L1.49902 10.8C1.36108 10.8 1.24341 10.7513 1.146 10.6538C1.04858 10.5564 0.999756 10.4388 1 10.301L1 8.299C0.999756 8.16122 1.04858 8.0436 1.146 7.94616C1.24341 7.84872 1.36108 7.80001 1.49902 7.8L3.50098 7.8C3.63867 7.80001 3.7561 7.84872 3.85352 7.94616C3.95093 8.0436 3.99976 8.16122 4 8.299L4 8.81812L5.99976 8.20673L5.99976 7.299C5.99976 7.16121 6.04834 7.04359 6.14575 6.94616C6.24316 6.84872 6.36084 6.80001 6.49878 6.8L7.1001 6.8L7.1001 4.8L6.49902 4.8C6.36108 4.8 6.24341 4.75129 6.146 4.65386C6.04858 4.55643 5.99976 4.4388 6 4.301L6 2.299C5.99976 2.16121 6.04858 2.0436 6.146 1.94617C6.24341 1.84873 6.36108 1.80001 6.49902 1.8L6.49902 1.8ZM8 3.8L7 3.8L7 2.8L8 2.8L8 3.8L8 3.8ZM11.8999 6.3C11.8999 6.7 12.0999 6.9 12.5 6.9C12.8999 6.9 13.0999 6.7 13.0999 6.3C13.0999 5.9 12.8999 5.7 12.5 5.7C12.0999 5.7 11.8999 5.9 11.8999 6.3L11.8999 6.3ZM6.99976 7.8L7.99976 7.8L7.99976 8.8L6.99976 8.8L6.99976 7.8L6.99976 7.8ZM2 9.8L3 9.8L3 8.8L2 8.8L2 9.8L2 9.8ZM4.99976 12.4C4.99976 12.8 5.19971 13 5.59985 13C5.99976 13 6.19971 12.8 6.19971 12.4C6.19971 12 5.99976 11.8 5.59985 11.8C5.19971 11.8 4.99976 12 4.99976 12.4L4.99976 12.4ZM10 12.8L11 12.8L11 11.8L10 11.8L10 12.8L10 12.8Z" id="Vector" fill="#000000" fill-rule="evenodd" stroke="none" />
  </g>
</svg>