<?xml version="1.0" encoding="utf-8"?>
<svg width="15px" height="15px" viewBox="0 0 15 15" version="1.1" xmlns:xlink="http://www.w3.org/1999/xlink" xmlns="http://www.w3.org/2000/svg">
  <defs>
    <rect width="15" height="15" id="artboard_1" />
    <clipPath id="clip_1">
      <use xlink:href="#artboard_1" clip-rule="evenodd" />
    </clipPath>
  </defs>
  <g id="icon--fibonacci-eight" clip-path="url(#clip_1)">
    <path d="M5.43832 1.23504C5.47685 0.684101 5.95471 0.268708 6.50565 0.307233L12.491 0.725772C13.042 0.764297 13.4574 1.24215 13.4188 1.79309L12.7213 11.7687C12.6827 12.3197 12.2049 12.7351 11.654 12.6965L11 12.6498L11 13C11 13.5523 10.5523 14 10 14L4 14C3.44772 14 3 13.5523 3 13L3 3C3 2.44771 3.44772 2 4 2L5.385 1.99976L5.43832 1.23504L5.43832 1.23504ZM9.99999 1.99999C10.5523 1.99999 11 2.44771 11 2.99999L11 11.6478L11.7237 11.699L12.4213 1.72333L6.43588 1.30479L6.38599 1.99975L9.99999 1.99999L9.99999 1.99999ZM10 3L4 3L4 13L10 13L10 3L10 3ZM7.1001 5.5C7.92852 5.5 8.6001 6.17157 8.6001 7C8.6001 7.33366 8.49115 7.64188 8.30689 7.89103C8.27872 7.92913 8.24164 7.96844 8.1801 8.00107C8.24534 8.03224 8.28299 8.07782 8.31291 8.11865C8.49374 8.36547 8.6001 8.67032 8.6001 9C8.6001 9.82843 7.92852 10.5 7.1001 10.5C6.27167 10.5 5.6001 9.82843 5.6001 9C5.6001 8.65703 5.71521 8.34094 5.9089 8.08826C5.93219 8.05787 5.98235 8.02486 6.0401 7.9999C5.98633 7.97139 5.92237 7.93014 5.89492 7.89321C5.70991 7.64432 5.6001 7.33498 5.6001 7C5.6001 6.17157 6.27167 5.5 7.1001 5.5L7.1001 5.5ZM7.1001 6.5C6.82396 6.5 6.6001 6.72386 6.6001 7C6.6001 7.27614 6.82396 7.5 7.1001 7.5C7.37624 7.5 7.6001 7.27614 7.6001 7C7.6001 6.72386 7.37624 6.5 7.1001 6.5L7.1001 6.5ZM7.1001 8.5C6.82396 8.5 6.6001 8.72386 6.6001 9C6.6001 9.27614 6.82396 9.5 7.1001 9.5C7.37624 9.5 7.6001 9.27614 7.6001 9C7.6001 8.72386 7.37624 8.5 7.1001 8.5L7.1001 8.5Z" id="Vector" fill="#000000" fill-rule="evenodd" stroke="none" artboard="5c235076-3e79-49d4-9459-239869520aab" />
  </g>
</svg>