<?xml version="1.0" encoding="utf-8"?>
<svg width="15px" height="15px" viewBox="0 0 15 15" version="1.1" xmlns:xlink="http://www.w3.org/1999/xlink" xmlns="http://www.w3.org/2000/svg">
  <defs>
    <rect width="15" height="15" id="artboard_1" />
    <clipPath id="clip_1">
      <use xlink:href="#artboard_1" clip-rule="evenodd" />
    </clipPath>
  </defs>
  <g id="icon--fibonacci-one" clip-path="url(#clip_1)">
    <path d="M5.43832 1.23504C5.47685 0.684101 5.95471 0.268708 6.50564 0.307233L12.491 0.725772C13.042 0.764297 13.4574 1.24215 13.4188 1.79309L12.7213 11.7687C12.6827 12.3197 12.2049 12.7351 11.654 12.6965L11 12.6498L11 13C11 13.5523 10.5523 14 10 14L3 14C2.44772 14 2 13.5523 2 13L2 3C2 2.44771 2.44772 2 3 2L5.385 1.99976L5.43832 1.23504L5.43832 1.23504ZM9.99999 1.99999C10.5523 1.99999 11 2.44771 11 2.99999L11 11.6478L11.7237 11.699L12.4213 1.72333L6.43587 1.30479L6.38599 1.99975L9.99999 1.99999L9.99999 1.99999ZM10 3L3 3L3 13L10 13L10 3L10 3ZM6.5001 5.5C6.77624 5.5 7.0001 5.72386 7.0001 6L7.0001 10.0602C7.0001 10.3363 6.77624 10.5602 6.5001 10.5602C6.22396 10.5602 6.0001 10.3363 6.0001 10.0602L5.99958 6.73519L5.38675 7.16589C5.18618 7.30181 4.9217 7.27267 4.75512 7.10804C4.61378 6.90748 4.64074 6.63883 4.80695 6.46992L4.8825 6.40691L5.70916 5.79643L6.11057 5.5L6.5001 5.5L6.5001 5.5Z" id="Vector" fill="#000000" fill-rule="evenodd" stroke="none" artboard="292e7d7d-ebc7-46bb-aa2f-10b892b0466c" />
  </g>
</svg>