<?xml version="1.0" encoding="utf-8"?>
<svg width="15px" height="15px" viewBox="0 0 15 15" version="1.1" xmlns:xlink="http://www.w3.org/1999/xlink" xmlns="http://www.w3.org/2000/svg">
  <defs>
    <rect width="15" height="15" id="artboard_1" />
    <clipPath id="clip_1">
      <use xlink:href="#artboard_1" clip-rule="evenodd" />
    </clipPath>
  </defs>
  <g id="icon--fibonacci-five" clip-path="url(#clip_1)">
    <path d="M5.43832 1.23504C5.47685 0.684101 5.95471 0.268708 6.50565 0.307233L12.491 0.725772C13.042 0.764297 13.4574 1.24215 13.4188 1.79309L12.7213 11.7687C12.6827 12.3197 12.2049 12.7351 11.654 12.6965L11 12.6498L11 13C11 13.5523 10.5523 14 10 14L4 14C3.44772 14 3 13.5523 3 13L3 3C3 2.44771 3.44772 2 4 2L5.385 1.99976L5.43832 1.23504L5.43832 1.23504ZM9.99999 1.99999C10.5523 1.99999 11 2.44771 11 2.99999L11 11.6478L11.7237 11.699L12.4213 1.72333L6.43588 1.30479L6.38599 1.99975L9.99999 1.99999L9.99999 1.99999ZM10 3L4 3L4 13L10 13L10 3L10 3ZM6.09885 5.49996L7.85378 5.49796C7.99158 5.49796 8.10919 5.54668 8.20663 5.64411C8.30406 5.74155 8.35278 5.85917 8.35278 5.99696L8.35278 5.99896C8.35278 6.13676 8.30406 6.25438 8.20663 6.35182C8.10919 6.44924 7.99158 6.49796 7.85378 6.49796L6.59985 6.49996L6.59985 7.35378L7.1011 7.35378C8.07886 7.35822 8.5 8.16148 8.5 8.90998C8.49829 9.8329 7.82843 10.5 7 10.5C6.41276 10.5 5.90433 10.1625 5.65807 9.6709L5.66224 9.66881C5.61645 9.5933 5.59009 9.50469 5.59009 9.40993C5.59009 9.13384 5.81395 8.90998 6.09009 8.90998C6.30478 8.90998 6.48787 9.0453 6.55873 9.2353C6.6429 9.39275 6.80893 9.49992 7 9.49992C7.27614 9.49992 7.5 9.29031 7.5 8.90998C7.5 8.57688 7.27614 8.35381 7 8.35381L6.09885 8.35381C5.96106 8.35381 5.84344 8.30509 5.74601 8.20766C5.64857 8.11021 5.59985 7.9926 5.59985 7.8548L5.59985 5.99896C5.59985 5.86117 5.64857 5.74355 5.74601 5.64611C5.84344 5.54868 5.96106 5.49996 6.09885 5.49996L6.09885 5.49996Z" id="Vector" fill="#000000" fill-rule="evenodd" stroke="none" artboard="bf69c358-e3f0-4e96-8cef-f78f2ccd8345" />
  </g>
</svg>