<?xml version="1.0" encoding="utf-8"?>
<svg width="15px" height="15px" viewBox="0 0 15 15" version="1.1" xmlns:xlink="http://www.w3.org/1999/xlink" xmlns="http://www.w3.org/2000/svg">
  <defs>
    <rect width="15" height="15" id="artboard_1" />
    <clipPath id="clip_1">
      <use xlink:href="#artboard_1" clip-rule="evenodd" />
    </clipPath>
  </defs>
  <g id="icon--fibonacci-two" clip-path="url(#clip_1)">
    <path d="M5.43832 1.23504C5.47685 0.684101 5.95471 0.268708 6.50565 0.307233L12.491 0.725772C13.042 0.764297 13.4574 1.24215 13.4188 1.79309L12.7213 11.7687C12.6827 12.3197 12.2049 12.7351 11.654 12.6965L11 12.6498L11 13C11 13.5523 10.5523 14 10 14L4 14C3.44772 14 3 13.5523 3 13L3 3C3 2.44771 3.44772 2 4 2L5.385 1.99976L5.43832 1.23504L5.43832 1.23504ZM9.99999 1.99999C10.5523 1.99999 11 2.44771 11 2.99999L11 11.6478L11.7237 11.699L12.4213 1.72333L6.43588 1.30479L6.38599 1.99975L9.99999 1.99999L9.99999 1.99999ZM10 3L4 3L4 13L10 13L10 3L10 3ZM5.6498 6.34599C5.61719 6.41137 5.6001 6.48369 5.6001 6.56C5.6001 6.83614 5.82396 7.06 6.1001 7.06C6.26969 7.06 6.41957 6.97556 6.50998 6.84643L6.55298 6.77597C6.63514 6.61231 6.8045 6.5 7.0001 6.5C7.24556 6.5 7.44971 6.67688 7.49204 6.91012C7.49741 6.91012 7.5001 6.94008 7.5001 7C7.5001 7.52257 7.02946 7.84496 6.45368 8.43127C6.02093 8.87194 5.93604 9.00612 5.84191 9.21634C5.74778 9.42656 5.72875 9.67352 5.72875 10C5.72875 10.2616 5.90562 10.4496 6.13887 10.4919L6.22875 10.5L8.0682 10.5C8.34435 10.5 8.5682 10.2761 8.5682 10C8.5682 9.75453 8.39132 9.55037 8.15805 9.50805L8.06817 9.5L7.00841 9.5C6.78202 9.5 6.75705 9.48935 6.83721 9.32573C6.91737 9.16211 7.86643 8.30136 7.86643 8.30136C8.38302 7.79656 8.50012 7.65091 8.50012 7C8.50012 6.17157 7.82852 5.5 7.0001 5.5C6.474 5.5 6.01116 5.77084 5.7434 6.18071L5.66836 6.30764L5.6498 6.34599L5.6498 6.34599Z" id="Vector" fill="#000000" fill-rule="evenodd" stroke="none" artboard="d3b43fd8-3f36-42ee-82bc-a24a28b6bd1b" />
  </g>
</svg>