<?xml version="1.0" encoding="utf-8"?>
<svg width="15px" height="15px" viewBox="0 0 15 15" version="1.1" xmlns:xlink="http://www.w3.org/1999/xlink" xmlns="http://www.w3.org/2000/svg">
  <defs>
    <rect width="15" height="15" id="artboard_1" />
    <clipPath id="clip_1">
      <use xlink:href="#artboard_1" clip-rule="evenodd" />
    </clipPath>
  </defs>
  <g id="icon--fibonacci-thirteen" clip-path="url(#clip_1)">
    <path d="M6.50565 0.307233C5.95471 0.268708 5.47685 0.684102 5.43832 1.23504L5.385 1.99976L4 2C3.44772 2 3 2.44771 3 3L3 13C3 13.5523 3.44772 14 4 14L10 14C10.5523 14 11 13.5523 11 13L11 12.6498L11.654 12.6965C12.2049 12.7351 12.6827 12.3197 12.7213 11.7687L13.4188 1.79309C13.4574 1.24215 13.042 0.764298 12.491 0.725772L6.50565 0.307233L6.50565 0.307233ZM11 2.99999C11 2.44771 10.5523 1.99999 9.99999 1.99999L6.38599 1.99975L6.43588 1.30479L12.4213 1.72333L11.7237 11.699L11 11.6478L11 2.99999L11 2.99999ZM4 3L10 3L10 13L4 13L4 6.82066C4.00002 6.92012 4.02965 7.02056 4.0913 7.10804C4.25788 7.27268 4.52237 7.30181 4.72293 7.1659L5.33577 6.73519L5.33628 10.0602C5.33628 10.3363 5.56014 10.5602 5.83628 10.5602C6.11242 10.5602 6.33628 10.3363 6.33628 10.0602L6.33628 6C6.33628 5.72386 6.11242 5.5 5.83628 5.5L5.44675 5.5L5.04534 5.79644L4.21868 6.40691L4.14313 6.46993C4.04947 6.56511 4.00003 6.69196 4 6.82046L4 3L4 3ZM8.0001 5.5C7.42699 5.5 6.92895 5.82141 6.6764 6.29381C6.65147 6.33354 6.63252 6.37595 6.61955 6.42103C6.60658 6.4661 6.6001 6.51209 6.6001 6.559L6.6001 6.561C6.6001 6.69879 6.64882 6.81641 6.74625 6.91385C6.84369 7.01128 6.9613 7.06 7.0991 7.06L7.1011 7.06C7.1965 7.06 7.28466 7.03472 7.36556 6.98415C7.44647 6.93359 7.50782 6.86543 7.54963 6.77967C7.55114 6.77863 7.55226 6.77739 7.55298 6.77597C7.63514 6.61231 7.8045 6.5 8.0001 6.5C8.24556 6.5 8.44971 6.67688 8.49204 6.91012L8.5001 7L8.5001 7.001C8.5001 7.27659 8.27669 7.5 8.0011 7.5L8.0001 7.5C7.72396 7.5 7.5001 7.72386 7.5001 8C7.5001 8.27614 7.72396 8.5 8.0001 8.5L8.0011 8.5C8.27669 8.5 8.5001 8.72341 8.5001 8.999L8.5001 9C8.5001 9.27614 8.27624 9.5 8.0001 9.5C7.81481 9.5 7.65306 9.39921 7.56668 9.24947C7.52957 9.15322 7.46848 9.07591 7.38343 9.01755C7.29837 8.95918 7.20426 8.93 7.1011 8.93L7.0991 8.93C6.9613 8.93 6.84369 8.97872 6.74625 9.07615C6.64882 9.17359 6.6001 9.2912 6.6001 9.429L6.6001 9.431C6.6001 9.46808 6.60418 9.5047 6.61234 9.54087C6.62051 9.57704 6.63255 9.61187 6.64848 9.64535C6.64956 9.65155 6.65157 9.65768 6.65457 9.66374C6.89945 10.1592 7.40998 10.5 8.0001 10.5C8.82853 10.5 9.5001 9.82843 9.5001 9C9.5001 9 9.5001 8.11885 9.0001 7.97661C9.5001 7.80936 9.5001 7 9.5001 7C9.5001 6.17157 8.82853 5.5 8.0001 5.5L8.0001 5.5Z" id="Vector" fill="#000000" fill-rule="evenodd" stroke="none" artboard="9b9c0682-eef9-4ad5-a335-53f24526ebd9" />
  </g>
</svg>