<?xml version="1.0" encoding="utf-8"?>
<svg width="15px" height="15px" viewBox="0 0 15 15" version="1.1" xmlns:xlink="http://www.w3.org/1999/xlink" xmlns="http://www.w3.org/2000/svg">
  <defs>
    <rect width="15" height="15" id="artboard_1" />
    <clipPath id="clip_1">
      <use xlink:href="#artboard_1" clip-rule="evenodd" />
    </clipPath>
  </defs>
  <g id="icon--fibonacci-three" clip-path="url(#clip_1)">
    <path d="M5.43832 1.23504C5.47685 0.684101 5.95471 0.268708 6.50565 0.307233L12.491 0.725772C13.042 0.764297 13.4574 1.24215 13.4188 1.79309L12.7213 11.7687C12.6827 12.3197 12.2049 12.7351 11.654 12.6965L11 12.6498L11 13C11 13.5523 10.5523 14 10 14L4 14C3.44772 14 3 13.5523 3 13L3 3C3 2.44771 3.44772 2 4 2L5.385 1.99976L5.43832 1.23504L5.43832 1.23504ZM9.99999 1.99999C10.5523 1.99999 11 2.44771 11 2.99999L11 11.6478L11.7237 11.699L12.4213 1.72333L6.43588 1.30479L6.38599 1.99975L9.99999 1.99999L9.99999 1.99999ZM10 3L4 3L4 13L10 13L10 3L10 3ZM5.6764 6.29381C5.92895 5.82141 6.42699 5.5 7.0001 5.5C7.82853 5.5 8.5001 6.17157 8.5001 7C8.5001 7 8.5001 7.80936 8.0001 7.97661C8.5001 8.11885 8.5001 9 8.5001 9C8.5001 9.82843 7.82853 10.5 7.0001 10.5C6.40998 10.5 5.89945 10.1592 5.65457 9.66374C5.65157 9.65768 5.64956 9.65155 5.64848 9.64535C5.63255 9.61187 5.62051 9.57704 5.61234 9.54087C5.60418 9.5047 5.6001 9.46808 5.6001 9.431L5.6001 9.429C5.6001 9.2912 5.64882 9.17359 5.74625 9.07615C5.84369 8.97872 5.9613 8.93 6.0991 8.93L6.1011 8.93C6.20426 8.93 6.29837 8.95918 6.38343 9.01755C6.46848 9.07591 6.52957 9.15322 6.56668 9.24947C6.65306 9.39921 6.81481 9.5 7.0001 9.5C7.27624 9.5 7.5001 9.27614 7.5001 9L7.5001 8.999C7.5001 8.72341 7.27669 8.5 7.0011 8.5L7.0001 8.5C6.72396 8.5 6.5001 8.27614 6.5001 8C6.5001 7.72386 6.72396 7.5 7.0001 7.5L7.0011 7.5C7.27669 7.5 7.5001 7.27659 7.5001 7.001L7.5001 7L7.49204 6.91012C7.44971 6.67688 7.24556 6.5 7.0001 6.5C6.8045 6.5 6.63514 6.61231 6.55298 6.77597C6.55226 6.77739 6.55114 6.77863 6.54963 6.77967C6.50782 6.86543 6.44647 6.93359 6.36556 6.98415C6.28466 7.03472 6.1965 7.06 6.1011 7.06L6.0991 7.06C5.9613 7.06 5.84369 7.01128 5.74625 6.91385C5.64882 6.81641 5.6001 6.69879 5.6001 6.561L5.6001 6.559C5.6001 6.51209 5.60658 6.4661 5.61955 6.42103C5.63252 6.37595 5.65147 6.33354 5.6764 6.29381L5.6764 6.29381Z" id="Vector" fill="#000000" fill-rule="evenodd" stroke="none" artboard="2f03e35b-a315-4d3f-888d-d594c1a78564" />
  </g>
</svg>