<?xml version="1.0" encoding="utf-8"?>
<svg width="15px" height="15px" viewBox="0 0 15 15" version="1.1" xmlns:xlink="http://www.w3.org/1999/xlink" xmlns="http://www.w3.org/2000/svg">
  <defs>
    <rect width="15" height="15" id="artboard_1" />
    <clipPath id="clip_1">
      <use xlink:href="#artboard_1" clip-rule="evenodd" />
    </clipPath>
  </defs>
  <g id="icon--kanban" clip-path="url(#clip_1)">
    <path d="M2.499 1L4.501 1Q4.55015 1 4.59835 1.00959Q4.64655 1.01918 4.69196 1.03798Q4.73736 1.05679 4.77823 1.0841Q4.81909 1.1114 4.85385 1.14615Q4.8886 1.18091 4.9159 1.22177Q4.94321 1.26263 4.96202 1.30804Q4.98082 1.35345 4.99041 1.40165Q5 1.44985 5 1.499L5 1.501Q5 1.55015 4.99041 1.59835Q4.98082 1.64655 4.96202 1.69196Q4.94321 1.73736 4.9159 1.77823Q4.8886 1.81909 4.85385 1.85385Q4.81909 1.8886 4.77823 1.9159Q4.73736 1.94321 4.69196 1.96202Q4.64655 1.98082 4.59835 1.99041Q4.55015 2 4.501 2L2.499 2Q2.44985 2 2.40165 1.99041Q2.35345 1.98082 2.30804 1.96202Q2.26263 1.94321 2.22177 1.9159Q2.18091 1.8886 2.14615 1.85385Q2.1114 1.81909 2.0841 1.77823Q2.05679 1.73737 2.03798 1.69196Q2.01918 1.64655 2.00959 1.59835Q2 1.55015 2 1.501L2 1.499Q2 1.44985 2.00959 1.40165Q2.01918 1.35345 2.03798 1.30804Q2.05679 1.26263 2.0841 1.22177Q2.1114 1.18091 2.14615 1.14615Q2.18091 1.1114 2.22177 1.0841Q2.26263 1.05679 2.30804 1.03798Q2.35345 1.01918 2.40165 1.00959Q2.44985 1 2.499 1ZM6 1.499Q6 1.44985 6.00959 1.40165Q6.01918 1.35345 6.03798 1.30804Q6.05679 1.26263 6.0841 1.22177Q6.1114 1.18091 6.14615 1.14615Q6.18091 1.1114 6.22177 1.0841Q6.26263 1.05679 6.30804 1.03798Q6.35345 1.01918 6.40165 1.00959Q6.44985 1 6.499 1L8.501 1Q8.55015 1 8.59835 1.00959Q8.64655 1.01918 8.69196 1.03798Q8.73736 1.05679 8.77823 1.0841Q8.81909 1.1114 8.85385 1.14615Q8.8886 1.18091 8.9159 1.22177Q8.94321 1.26263 8.96202 1.30804Q8.98082 1.35345 8.99041 1.40165Q9 1.44985 9 1.499L9 1.501Q9 1.55015 8.99041 1.59835Q8.98082 1.64655 8.96202 1.69196Q8.94321 1.73736 8.9159 1.77823Q8.8886 1.81909 8.85385 1.85385Q8.81909 1.8886 8.77823 1.9159Q8.73736 1.94321 8.69196 1.96202Q8.64655 1.98082 8.59835 1.99041Q8.55015 2 8.501 2L6.499 2Q6.44985 2 6.40165 1.99041Q6.35345 1.98082 6.30804 1.96202Q6.26263 1.94321 6.22177 1.9159Q6.18091 1.8886 6.14615 1.85385Q6.1114 1.81909 6.0841 1.77823Q6.05679 1.73737 6.03798 1.69196Q6.01918 1.64655 6.00959 1.59835Q6 1.55015 6 1.501L6 1.499ZM10 1.499Q10 1.44985 10.0096 1.40165Q10.0192 1.35345 10.038 1.30804Q10.0568 1.26263 10.0841 1.22177Q10.1114 1.18091 10.1462 1.14615Q10.1809 1.1114 10.2218 1.0841Q10.2626 1.05679 10.308 1.03798Q10.3534 1.01918 10.4016 1.00959Q10.4499 1 10.499 1L12.501 1Q12.5501 1 12.5983 1.00959Q12.6466 1.01918 12.692 1.03798Q12.7374 1.05679 12.7782 1.0841Q12.8191 1.1114 12.8538 1.14615Q12.8886 1.18091 12.9159 1.22177Q12.9432 1.26263 12.962 1.30804Q12.9808 1.35345 12.9904 1.40165Q13 1.44985 13 1.499L13 1.501Q13 1.55015 12.9904 1.59835Q12.9808 1.64655 12.962 1.69196Q12.9432 1.73736 12.9159 1.77823Q12.8886 1.81909 12.8538 1.85385Q12.8191 1.8886 12.7782 1.9159Q12.7374 1.94321 12.692 1.96202Q12.6466 1.98082 12.5983 1.99041Q12.5501 2 12.501 2L10.499 2Q10.4499 2 10.4016 1.99041Q10.3534 1.98082 10.308 1.96202Q10.2626 1.94321 10.2218 1.9159Q10.1809 1.8886 10.1462 1.85385Q10.1114 1.81909 10.0841 1.77823Q10.0568 1.73737 10.038 1.69196Q10.0192 1.64655 10.0096 1.59835Q10 1.55015 10 1.501L10 1.499ZM2.499 3L4.501 3Q4.55015 3 4.59835 3.00959Q4.64655 3.01918 4.69196 3.03798Q4.73736 3.05679 4.77823 3.0841Q4.81909 3.1114 4.85385 3.14615Q4.8886 3.18091 4.9159 3.22177Q4.94321 3.26263 4.96202 3.30804Q4.98082 3.35345 4.99041 3.40165Q5 3.44985 5 3.499L5 4.501Q5 4.55015 4.99041 4.59835Q4.98082 4.64655 4.96202 4.69196Q4.94321 4.73736 4.9159 4.77823Q4.8886 4.81909 4.85385 4.85385Q4.81909 4.8886 4.77823 4.9159Q4.73736 4.94321 4.69196 4.96202Q4.64655 4.98082 4.59835 4.99041Q4.55015 5 4.501 5L2.499 5Q2.44985 5 2.40165 4.99041Q2.35345 4.98082 2.30804 4.96202Q2.26263 4.94321 2.22177 4.9159Q2.18091 4.8886 2.14615 4.85385Q2.1114 4.81909 2.0841 4.77823Q2.05679 4.73736 2.03798 4.69196Q2.01918 4.64655 2.00959 4.59835Q2 4.55015 2 4.501L2 3.499Q2 3.44985 2.00959 3.40165Q2.01918 3.35345 2.03798 3.30804Q2.05679 3.26263 2.0841 3.22177Q2.1114 3.18091 2.14615 3.14615Q2.18091 3.1114 2.22177 3.0841Q2.26263 3.05679 2.30804 3.03798Q2.35345 3.01918 2.40165 3.00959Q2.44985 3 2.499 3ZM6 3.499Q6 3.44985 6.00959 3.40165Q6.01918 3.35345 6.03798 3.30804Q6.05679 3.26263 6.0841 3.22177Q6.1114 3.18091 6.14615 3.14615Q6.18091 3.1114 6.22177 3.0841Q6.26263 3.05679 6.30804 3.03798Q6.35345 3.01918 6.40165 3.00959Q6.44985 3 6.499 3L8.501 3Q8.55015 3 8.59835 3.00959Q8.64655 3.01918 8.69196 3.03798Q8.73736 3.05679 8.77823 3.0841Q8.81909 3.1114 8.85385 3.14615Q8.8886 3.18091 8.9159 3.22177Q8.94321 3.26263 8.96202 3.30804Q8.98082 3.35345 8.99041 3.40165Q9 3.44985 9 3.499L9 4.501Q9 4.55015 8.99041 4.59835Q8.98082 4.64655 8.96202 4.69196Q8.94321 4.73736 8.9159 4.77823Q8.8886 4.81909 8.85385 4.85385Q8.81909 4.8886 8.77823 4.9159Q8.73736 4.94321 8.69196 4.96202Q8.64655 4.98082 8.59835 4.99041Q8.55015 5 8.501 5L6.499 5Q6.44985 5 6.40165 4.99041Q6.35345 4.98082 6.30804 4.96202Q6.26263 4.94321 6.22177 4.9159Q6.18091 4.8886 6.14615 4.85385Q6.1114 4.81909 6.0841 4.77823Q6.05679 4.73736 6.03798 4.69196Q6.01918 4.64655 6.00959 4.59835Q6 4.55015 6 4.501L6 3.499ZM10 3.499Q10 3.44985 10.0096 3.40165Q10.0192 3.35345 10.038 3.30804Q10.0568 3.26263 10.0841 3.22177Q10.1114 3.18091 10.1462 3.14615Q10.1809 3.1114 10.2218 3.0841Q10.2626 3.05679 10.308 3.03798Q10.3534 3.01918 10.4016 3.00959Q10.4499 3 10.499 3L12.501 3Q12.5501 3 12.5983 3.00959Q12.6466 3.01918 12.692 3.03798Q12.7374 3.05679 12.7782 3.0841Q12.8191 3.1114 12.8538 3.14615Q12.8886 3.18091 12.9159 3.22177Q12.9432 3.26263 12.962 3.30804Q12.9808 3.35345 12.9904 3.40165Q13 3.44985 13 3.499L13 4.501Q13 4.55015 12.9904 4.59835Q12.9808 4.64655 12.962 4.69196Q12.9432 4.73736 12.9159 4.77823Q12.8886 4.81909 12.8538 4.85385Q12.8191 4.8886 12.7782 4.9159Q12.7374 4.94321 12.692 4.96202Q12.6466 4.98082 12.5983 4.99041Q12.5501 5 12.501 5L10.499 5Q10.4499 5 10.4016 4.99041Q10.3534 4.98082 10.308 4.96202Q10.2626 4.94321 10.2218 4.9159Q10.1809 4.8886 10.1462 4.85385Q10.1114 4.81909 10.0841 4.77823Q10.0568 4.73736 10.038 4.69196Q10.0192 4.64655 10.0096 4.59835Q10 4.55015 10 4.501L10 3.499ZM2.499 6L4.501 6Q4.55015 6 4.59835 6.00959Q4.64655 6.01918 4.69196 6.03798Q4.73736 6.05679 4.77823 6.0841Q4.81909 6.1114 4.85385 6.14615Q4.8886 6.18091 4.9159 6.22177Q4.94321 6.26263 4.96202 6.30804Q4.98082 6.35345 4.99041 6.40165Q5 6.44985 5 6.499L5 7.501Q5 7.55015 4.99041 7.59835Q4.98082 7.64655 4.96202 7.69196Q4.94321 7.73736 4.9159 7.77823Q4.8886 7.81909 4.85385 7.85385Q4.81909 7.8886 4.77823 7.9159Q4.73736 7.94321 4.69196 7.96201Q4.64655 7.98082 4.59835 7.99041Q4.55015 8 4.501 8L2.499 8Q2.44985 8 2.40165 7.99041Q2.35345 7.98082 2.30804 7.96201Q2.26263 7.94321 2.22177 7.9159Q2.18091 7.8886 2.14615 7.85385Q2.1114 7.81909 2.0841 7.77823Q2.05679 7.73736 2.03798 7.69196Q2.01918 7.64655 2.00959 7.59835Q2 7.55015 2 7.501L2 6.499Q2 6.44985 2.00959 6.40165Q2.01918 6.35345 2.03798 6.30804Q2.05679 6.26263 2.0841 6.22177Q2.1114 6.18091 2.14615 6.14615Q2.18091 6.1114 2.22177 6.0841Q2.26263 6.05679 2.30804 6.03798Q2.35345 6.01918 2.40165 6.00959Q2.44985 6 2.499 6ZM6 6.499Q6 6.44985 6.00959 6.40165Q6.01918 6.35345 6.03798 6.30804Q6.05679 6.26263 6.0841 6.22177Q6.1114 6.18091 6.14615 6.14615Q6.18091 6.1114 6.22177 6.0841Q6.26263 6.05679 6.30804 6.03798Q6.35345 6.01918 6.40165 6.00959Q6.44985 6 6.499 6L8.501 6Q8.55015 6 8.59835 6.00959Q8.64655 6.01918 8.69196 6.03798Q8.73736 6.05679 8.77823 6.0841Q8.81909 6.1114 8.85385 6.14615Q8.8886 6.18091 8.9159 6.22177Q8.94321 6.26263 8.96202 6.30804Q8.98082 6.35345 8.99041 6.40165Q9 6.44985 9 6.499L9 7.501Q9 7.55015 8.99041 7.59835Q8.98082 7.64655 8.96202 7.69196Q8.94321 7.73736 8.9159 7.77823Q8.8886 7.81909 8.85385 7.85385Q8.81909 7.8886 8.77823 7.9159Q8.73736 7.94321 8.69196 7.96201Q8.64655 7.98082 8.59835 7.99041Q8.55015 8 8.501 8L6.499 8Q6.44985 8 6.40165 7.99041Q6.35345 7.98082 6.30804 7.96201Q6.26263 7.94321 6.22177 7.9159Q6.18091 7.8886 6.14615 7.85385Q6.1114 7.81909 6.0841 7.77823Q6.05679 7.73736 6.03798 7.69196Q6.01918 7.64655 6.00959 7.59835Q6 7.55015 6 7.501L6 6.499ZM10 6.499Q10 6.44985 10.0096 6.40165Q10.0192 6.35345 10.038 6.30804Q10.0568 6.26263 10.0841 6.22177Q10.1114 6.18091 10.1462 6.14615Q10.1809 6.1114 10.2218 6.0841Q10.2626 6.05679 10.308 6.03798Q10.3534 6.01918 10.4016 6.00959Q10.4499 6 10.499 6L12.501 6Q12.5501 6 12.5983 6.00959Q12.6466 6.01918 12.692 6.03798Q12.7374 6.05679 12.7782 6.0841Q12.8191 6.1114 12.8538 6.14615Q12.8886 6.18091 12.9159 6.22177Q12.9432 6.26263 12.962 6.30804Q12.9808 6.35345 12.9904 6.40165Q13 6.44985 13 6.499L13 7.501Q13 7.55015 12.9904 7.59835Q12.9808 7.64655 12.962 7.69196Q12.9432 7.73736 12.9159 7.77823Q12.8886 7.81909 12.8538 7.85385Q12.8191 7.8886 12.7782 7.9159Q12.7374 7.94321 12.692 7.96201Q12.6466 7.98082 12.5983 7.99041Q12.5501 8 12.501 8L10.499 8Q10.4499 8 10.4016 7.99041Q10.3534 7.98082 10.308 7.96201Q10.2626 7.94321 10.2218 7.9159Q10.1809 7.8886 10.1462 7.85385Q10.1114 7.81909 10.0841 7.77823Q10.0568 7.73736 10.038 7.69196Q10.0192 7.64655 10.0096 7.59835Q10 7.55015 10 7.501L10 6.499ZM6 9.499Q6 9.44985 6.00959 9.40165Q6.01918 9.35345 6.03798 9.30804Q6.05679 9.26263 6.0841 9.22177Q6.1114 9.18091 6.14615 9.14615Q6.18091 9.1114 6.22177 9.0841Q6.26263 9.05679 6.30804 9.03798Q6.35345 9.01918 6.40165 9.00959Q6.44985 9 6.499 9L8.501 9Q8.55015 9 8.59835 9.00959Q8.64655 9.01918 8.69196 9.03798Q8.73736 9.05679 8.77823 9.0841Q8.81909 9.1114 8.85385 9.14615Q8.8886 9.18091 8.9159 9.22177Q8.94321 9.26263 8.96202 9.30804Q8.98082 9.35345 8.99041 9.40165Q9 9.44985 9 9.499L9 10.501Q9 10.5501 8.99041 10.5983Q8.98082 10.6466 8.96202 10.692Q8.94321 10.7374 8.9159 10.7782Q8.8886 10.8191 8.85385 10.8538Q8.81909 10.8886 8.77823 10.9159Q8.73736 10.9432 8.69196 10.962Q8.64655 10.9808 8.59835 10.9904Q8.55015 11 8.501 11L6.499 11Q6.44985 11 6.40165 10.9904Q6.35345 10.9808 6.30804 10.962Q6.26263 10.9432 6.22177 10.9159Q6.18091 10.8886 6.14615 10.8538Q6.1114 10.8191 6.0841 10.7782Q6.05679 10.7374 6.03798 10.692Q6.01918 10.6466 6.00959 10.5983Q6 10.5501 6 10.501L6 9.499ZM10 9.499Q10 9.44985 10.0096 9.40165Q10.0192 9.35345 10.038 9.30804Q10.0568 9.26263 10.0841 9.22177Q10.1114 9.18091 10.1462 9.14615Q10.1809 9.1114 10.2218 9.0841Q10.2626 9.05679 10.308 9.03798Q10.3534 9.01918 10.4016 9.00959Q10.4499 9 10.499 9L12.501 9Q12.5501 9 12.5983 9.00959Q12.6466 9.01918 12.692 9.03798Q12.7374 9.05679 12.7782 9.0841Q12.8191 9.1114 12.8538 9.14615Q12.8886 9.18091 12.9159 9.22177Q12.9432 9.26263 12.962 9.30804Q12.9808 9.35345 12.9904 9.40165Q13 9.44985 13 9.499L13 10.501Q13 10.5501 12.9904 10.5983Q12.9808 10.6466 12.962 10.692Q12.9432 10.7374 12.9159 10.7782Q12.8886 10.8191 12.8538 10.8538Q12.8191 10.8886 12.7782 10.9159Q12.7374 10.9432 12.692 10.962Q12.6466 10.9808 12.5983 10.9904Q12.5501 11 12.501 11L10.499 11Q10.4499 11 10.4016 10.9904Q10.3534 10.9808 10.308 10.962Q10.2626 10.9432 10.2218 10.9159Q10.1809 10.8886 10.1462 10.8538Q10.1114 10.8191 10.0841 10.7782Q10.0568 10.7374 10.038 10.692Q10.0192 10.6466 10.0096 10.5983Q10 10.5501 10 10.501L10 9.499ZM6 12.499Q6 12.4499 6.00959 12.4016Q6.01918 12.3534 6.03798 12.308Q6.05679 12.2626 6.0841 12.2218Q6.1114 12.1809 6.14615 12.1462Q6.18091 12.1114 6.22177 12.0841Q6.26263 12.0568 6.30804 12.038Q6.35345 12.0192 6.40165 12.0096Q6.44985 12 6.499 12L8.501 12Q8.55015 12 8.59835 12.0096Q8.64655 12.0192 8.69196 12.038Q8.73736 12.0568 8.77823 12.0841Q8.81909 12.1114 8.85385 12.1462Q8.8886 12.1809 8.9159 12.2218Q8.94321 12.2626 8.96202 12.308Q8.98082 12.3534 8.99041 12.4016Q9 12.4499 9 12.499L9 13.501Q9 13.5501 8.99041 13.5983Q8.98082 13.6466 8.96202 13.692Q8.94321 13.7374 8.9159 13.7782Q8.8886 13.8191 8.85385 13.8538Q8.81909 13.8886 8.77823 13.9159Q8.73736 13.9432 8.69196 13.962Q8.64655 13.9808 8.59835 13.9904Q8.55015 14 8.501 14L6.499 14Q6.44985 14 6.40165 13.9904Q6.35345 13.9808 6.30804 13.962Q6.26263 13.9432 6.22177 13.9159Q6.18091 13.8886 6.14615 13.8538Q6.1114 13.8191 6.0841 13.7782Q6.05679 13.7374 6.03798 13.692Q6.01918 13.6466 6.00959 13.5983Q6 13.5501 6 13.501L6 12.499Z" id="kanban" fill="#000000" fill-rule="evenodd" stroke="none" artboard="a218ce97-7e62-460d-9a09-2ed7821d7f73" />
  </g>
</svg>