<?xml version="1.0" encoding="utf-8"?>
<svg width="15px" height="15px" viewBox="0 0 15 15" version="1.1" xmlns:xlink="http://www.w3.org/1999/xlink" xmlns="http://www.w3.org/2000/svg">
  <defs>
    <rect width="15" height="15" id="artboard_1" />
    <clipPath id="clip_1">
      <use xlink:href="#artboard_1" clip-rule="evenodd" />
    </clipPath>
  </defs>
  <g id="icon--requirement" clip-path="url(#clip_1)">
    <path d="M10 3.5C10 3.22386 9.77614 3 9.5 3L5.5 3C5.22386 3 5 3.22386 5 3.5L5 5.5C5 5.77614 5.22386 6 5.5 6L7 6L7 7L4.499 7Q4.44985 7 4.40165 7.00959Q4.35345 7.01918 4.30804 7.03798Q4.26263 7.05679 4.22177 7.0841Q4.18091 7.1114 4.14615 7.14615Q4.1114 7.18091 4.0841 7.22177Q4.05679 7.26263 4.03798 7.30804Q4.01918 7.35345 4.00959 7.40165Q4 7.44985 4 7.499L4 9L2.5 9C2.22386 9 2 9.22386 2 9.5L2 11.5C2 11.7761 2.22386 12 2.5 12L6.5 12C6.77614 12 7 11.7761 7 11.5L7 9.5C7 9.22386 6.77614 9 6.5 9L5 9L5 8L10 8L10 9L8.5 9C8.22386 9 8 9.22386 8 9.5L8 11.5C8 11.7761 8.22386 12 8.5 12L12.5 12C12.7761 12 13 11.7761 13 11.5L13 9.5C13 9.22386 12.7761 9 12.5 9L11 9L11 7.499Q11 7.44985 10.9904 7.40165Q10.9808 7.35345 10.962 7.30804Q10.9432 7.26263 10.9159 7.22177Q10.8886 7.18091 10.8538 7.14615Q10.8191 7.1114 10.7782 7.0841Q10.7374 7.05679 10.692 7.03798Q10.6466 7.01918 10.5983 7.00959Q10.5501 7 10.501 7L8 7L8 6L9.5 6C9.77614 6 10 5.77614 10 5.5L10 3.5ZM11 10L9 10L9 11L12 11L12 10L11 10ZM9 5L6 5L6 4L9 4L9 5ZM3 10L6 10L6 11L3 11L3 10Z" id="requirement" fill="#000000" fill-rule="evenodd" stroke="none" artboard="38d436f3-a1d1-4e5c-acf1-a026e01df01b" />
  </g>
</svg>