<?xml version="1.0" encoding="utf-8"?>
<svg width="15px" height="15px" viewBox="0 0 15 15" version="1.1" xmlns:xlink="http://www.w3.org/1999/xlink" xmlns="http://www.w3.org/2000/svg">
  <g id="icon--szenario">
    <path d="M0 0L15 0L15 15L0 15L0 0Z" id="icon--szenario" fill="none" fill-rule="evenodd" stroke="none" />
    <path d="M5 0C6.10457 0 7 0.860991 7 1.92308L7 3.07692C7 4.13901 6.10457 5 5 5C3.89543 5 3 4.13901 3 3.07692L3 1.92308C3 0.860991 3.89543 0 5 0ZM5 1C4.4802 1 4.05303 1.39659 4.00458 1.90369L4 2L4 3C4 3.55228 4.44772 4 5 4C5.5198 4 5.94697 3.60341 5.99542 3.09631L6 3L6 2C6 1.44772 5.55228 1 5 1ZM6 5.91047L6 6.96406L5.93203 6.93687C5.39686 6.72281 4.81597 6.69902 4.27065 6.86552L4.06797 6.93687L1.50751 7.96106C1.18417 8.0904 0.958123 8.40755 0.916146 8.77624L0.909091 8.90085L0.909091 9.99925L0 10L0 8.90085C0 8.05984 0.478305 7.30868 1.19683 7.02127L3.7573 5.99708C4.47987 5.70805 5.26494 5.67918 6 5.91047ZM11.5 6C11.7761 6 12 6.22386 12 6.5L12 8.5C12 8.77614 11.7761 9 11.5 9L10 9L10 10L12.501 10Q12.5501 10 12.5983 10.0096Q12.6466 10.0192 12.692 10.038Q12.7374 10.0568 12.7782 10.0841Q12.8191 10.1114 12.8538 10.1462Q12.8886 10.1809 12.9159 10.2218Q12.9432 10.2626 12.962 10.308Q12.9808 10.3534 12.9904 10.4016Q13 10.4499 13 10.499L13 12L14.5 12C14.7761 12 15 12.2239 15 12.5L15 14.5C15 14.7761 14.7761 15 14.5 15L10.5 15C10.2239 15 10 14.7761 10 14.5L10 12.5C10 12.2239 10.2239 12 10.5 12L12 12L12 11L7 11L7 12L8.5 12C8.77614 12 9 12.2239 9 12.5L9 14.5C9 14.7761 8.77614 15 8.5 15L4.5 15C4.22386 15 4 14.7761 4 14.5L4 12.5C4 12.2239 4.22386 12 4.5 12L6 12L6 10.499Q6 10.4499 6.00959 10.4016Q6.01918 10.3534 6.03798 10.308Q6.05679 10.2626 6.0841 10.2218Q6.1114 10.1809 6.14615 10.1462Q6.18091 10.1114 6.22177 10.0841Q6.26263 10.0568 6.30804 10.038Q6.35345 10.0192 6.40165 10.0096Q6.44985 10 6.499 10L9 10L9 9L7.5 9C7.22386 9 7 8.77614 7 8.5L7 6.5C7 6.22386 7.22386 6 7.5 6L11.5 6ZM8 8L11 8L11 7L8 7L8 8ZM8 13L5 13L5 14L8 14L8 13ZM11 14L11 13L14 13L14 14L11 14Z" id="Shape-Copy-Subtract-Union" fill="#000000" fill-rule="evenodd" stroke="none" />
  </g>
</svg>