<?xml version="1.0" encoding="utf-8"?>
<svg width="15px" height="15px" viewBox="0 0 15 15" version="1.1" xmlns:xlink="http://www.w3.org/1999/xlink" xmlns="http://www.w3.org/2000/svg">
  <defs>
    <rect width="15" height="15" id="artboard_1" />
    <clipPath id="clip_1">
      <use xlink:href="#artboard_1" clip-rule="evenodd" />
    </clipPath>
  </defs>
  <g id="icon--archive-cross" clip-path="url(#clip_1)">
    <path d="M10.0836 9.39645L11.4978 10.91L12.912 9.39645C13.1073 9.20118 13.4238 9.20118 13.6191 9.39645C13.8144 9.59171 13.8144 9.90829 13.6191 10.1036L12.1 11.5178L13.6191 12.932C13.8144 13.1272 13.8144 13.4438 13.6191 13.6391C13.4238 13.8343 13.1073 13.8343 12.912 13.6391L11.4978 12.12L10.0836 13.6391C9.8883 13.8343 9.57172 13.8343 9.37646 13.6391C9.1812 13.4438 9.1812 13.1272 9.37646 12.932L10.89 11.5178L9.37646 10.1036C9.1812 9.90829 9.1812 9.59171 9.37646 9.39645C9.57172 9.20118 9.8883 9.20118 10.0836 9.39645ZM12.5 3C12.7761 3 13 3.22386 13 3.5L13 5.5C13 5.77614 12.7761 6 12.5 6L12 6L12 8L11 8L11 6L4 6L4 11L8 11L8 12L3.5 12C3.22386 12 3 11.7761 3 11.5L3 6L2.5 6C2.22386 6 2 5.77614 2 5.5L2 3.5C2 3.22386 2.22386 3 2.5 3L12.5 3ZM8.5 7C8.77614 7 9 7.22386 9 7.5C9 7.77614 8.77614 8 8.5 8L6.5 8C6.22386 8 6 7.77614 6 7.5C6 7.22386 6.22386 7 6.5 7L8.5 7ZM12 4L3 4L3 5L12 5L12 4Z" id="Shape" fill="#000000" fill-rule="evenodd" stroke="none" artboard="ee65322c-6607-4651-8908-d64c20dc0ef2" />
  </g>
</svg>