<?xml version="1.0" encoding="utf-8"?>
<svg width="15px" height="15px" viewBox="0 0 15 15" version="1.1" xmlns:xlink="http://www.w3.org/1999/xlink" xmlns="http://www.w3.org/2000/svg">
  <defs>
    <rect width="15" height="15" id="artboard_1" />
    <clipPath id="clip_1">
      <use xlink:href="#artboard_1" clip-rule="evenodd" />
    </clipPath>
  </defs>
  <g id="icon--book-old" clip-path="url(#clip_1)">
    <path d="M12 12.5C12 12.7455 11.8231 12.9496 11.5899 12.9919L11.5 13L4.5 13C3.7203 13 3.07955 12.4051 3.00687 11.6445L3 11.5L3 3.5C3 2.67157 3.67157 2 4.5 2L11.5 2C11.7761 2 12 2.22386 12 2.5L12 12.5ZM11 11L4.5 11L4.41012 11.0081C4.20603 11.0451 4.0451 11.206 4.00806 11.4101L4 11.5L4.00806 11.5899C4.0451 11.794 4.20603 11.9549 4.41012 11.9919L4.5 12L11 12L11 11ZM7 3L4.5 3C4.25454 3 4.05039 3.17688 4.00806 3.41012L4 3.5L4.00029 10.0852C4.1045 10.0484 4.21398 10.0228 4.32731 10.0098L4.5 10L11 10L11 3L10 3L10 6.0615C10 6.33764 9.77614 6.5615 9.5 6.5615C9.40065 6.5615 9.30354 6.5319 9.22109 6.47648L8.51216 6L7.7758 6.48696C7.54547 6.63928 7.23527 6.57604 7.08295 6.34571C7.02885 6.2639 7 6.16798 7 6.06991L7 3ZM9 3L8 3L8 5.44417L8.17638 5.29002C8.36603 5.12427 8.64936 5.12547 8.8376 5.29281L9 5.43717L9 3Z" id="Shape" fill="#000000" fill-rule="evenodd" stroke="none" artboard="8fc069f8-b86e-4783-8d36-b0c18069ec2b" />
  </g>
</svg>