<?xml version="1.0" encoding="utf-8"?>
<svg width="15px" height="15px" viewBox="0 0 15 15" version="1.1" xmlns:xlink="http://www.w3.org/1999/xlink" xmlns="http://www.w3.org/2000/svg">
  <defs>
    <rect width="15" height="15" id="artboard_1" />
    <clipPath id="clip_1">
      <use xlink:href="#artboard_1" clip-rule="evenodd" />
    </clipPath>
  </defs>
  <g id="icon--card-stack-minus" clip-path="url(#clip_1)">
    <path d="M13.5 2C13.7761 2 14 2.22386 14 2.5L14 10.5C14 10.7761 13.7761 11 13.5 11L13 11L13 12.5C13 12.7761 12.7761 13 12.5 13L2.5 13C2.22386 13 2 12.7761 2 12.5L2 11L1.5 11C1.22386 11 1 10.7761 1 10.5L1 2.5C1 2.22386 1.22386 2 1.5 2L13.5 2ZM12 11L3 11L3 12L12 12L12 11ZM13 3L2 3L2 10L13 10L13 3ZM9.5 6C9.77614 6 10 6.22386 10 6.5C10 6.77614 9.77614 7 9.5 7L5.5 7C5.22386 7 5 6.77614 5 6.5C5 6.22386 5.22386 6 5.5 6L9.5 6Z" id="Shape" fill="#000000" fill-rule="evenodd" stroke="none" artboard="8d7dbc90-4cd4-409a-9619-ffb718524b71" />
  </g>
</svg>