<?xml version="1.0" encoding="utf-8"?>
<svg width="15px" height="15px" viewBox="0 0 15 15" version="1.1" xmlns:xlink="http://www.w3.org/1999/xlink" xmlns="http://www.w3.org/2000/svg">
  <defs>
    <rect width="15" height="15" id="artboard_1" />
    <clipPath id="clip_1">
      <use xlink:href="#artboard_1" clip-rule="evenodd" />
    </clipPath>
  </defs>
  <g id="icon--cloud-cross" clip-path="url(#clip_1)">
    <path d="M12.0997 5.94886C12.0723 3.70806 10.2473 1.9 7.99999 1.9C6.11627 1.9 4.52926 3.17036 4.04893 4.9011L3.89999 4.9C2.24314 4.9 0.899994 6.24315 0.899994 7.9L0.899994 8C0.899994 9.65686 2.24314 11 3.89999 11L8 11L8 10L3.89999 10L3.75073 9.99452C2.71587 9.91817 1.89999 9.05436 1.89999 8L1.89999 7.9L1.90548 7.75074C1.98183 6.71588 2.84563 5.9 3.89999 5.9L3.99999 5.9L4.80443 5.91825L5.01251 5.16852L5.0654 4.99731C5.48778 3.7587 6.65939 2.9 7.99999 2.9C9.69762 2.9 11.079 4.26561 11.0998 5.96109L11.1096 6.76773L11.9001 6.92874L12.0361 6.96316C12.5299 7.11314 12.91 7.50877 13.0459 8L14.0682 8C13.903 6.97303 13.1124 6.15515 12.0997 5.94886Z" id="Combined-Shape" fill="#000000" fill-rule="evenodd" stroke="none" artboard="7538a9a9-605a-4a1a-9e78-d8625fb92b4d" />
    <path d="M10.088 9.39645L11.5022 10.91L12.9164 9.39645C13.1117 9.20118 13.4283 9.20118 13.6236 9.39645C13.8188 9.59171 13.8188 9.90829 13.6236 10.1036L12.1045 11.5178L13.6236 12.932C13.8188 13.1272 13.8188 13.4438 13.6236 13.6391C13.4283 13.8343 13.1117 13.8343 12.9164 13.6391L11.5022 12.12L10.088 13.6391C9.89276 13.8343 9.57618 13.8343 9.38091 13.6391C9.18565 13.4438 9.18565 13.1272 9.38091 12.932L10.8945 11.5178L9.38091 10.1036C9.18565 9.90829 9.18565 9.59171 9.38091 9.39645C9.57618 9.20118 9.89276 9.20118 10.088 9.39645Z" id="Path" fill="#000000" stroke="none" artboard="76eb21ae-c09e-4ecb-80d3-39962916759f" />
  </g>
</svg>