<?xml version="1.0" encoding="utf-8"?>
<svg width="15px" height="15px" viewBox="0 0 15 15" version="1.1" xmlns:xlink="http://www.w3.org/1999/xlink" xmlns="http://www.w3.org/2000/svg">
  <defs>
    <rect width="15" height="15" id="artboard_1" />
    <clipPath id="clip_1">
      <use xlink:href="#artboard_1" clip-rule="evenodd" />
    </clipPath>
  </defs>
  <g id="icon--cloud-arrow-down" clip-path="url(#clip_1)">
    <path d="M7.49174 7C7.7372 7 7.94135 7.17688 7.98369 7.41012L7.99174 7.5L7.99274 12.426L9.0289 11.268C9.20992 11.087 9.55498 11.087 9.73601 11.268C9.8944 11.4264 9.93586 11.6888 9.82247 11.8731L9.76429 11.9469L7.84692 13.8642C7.68852 14.0226 7.40454 14.0424 7.21474 13.9236L7.13981 13.8642L5.22244 11.9469C5.04142 11.7658 5.0697 11.4491 5.25073 11.268C5.40912 11.1096 5.69311 11.0898 5.8829 11.2086L5.95783 11.268L6.99174 12.423L6.99174 7.5C6.99174 7.22386 7.2156 7 7.49174 7ZM7.99999 1.9C10.2473 1.9 12.0723 3.70806 12.0997 5.94886C13.2408 6.18131 14.1 7.19032 14.1 8.4L14.1 8.5C14.1 9.88071 12.9807 11 11.6 11L11 11L11 10L11.6 10C12.3797 10 13.0204 9.40511 13.0931 8.64446L13.1 8.5L13.1 8.4C13.1 7.73116 12.6583 7.15214 12.0361 6.96316L11.9001 6.92874L11.1096 6.76773L11.0998 5.96109C11.079 4.26561 9.69762 2.9 7.99999 2.9C6.65939 2.9 5.48778 3.7587 5.0654 4.99731L5.01251 5.16852L4.80443 5.91825L3.99999 5.9L3.89999 5.9C2.84563 5.9 1.98183 6.71588 1.90548 7.75074L1.89999 7.9L1.89999 8C1.89999 9.05436 2.71587 9.91817 3.75073 9.99452L3.89999 10L3.99999 10L3.99999 11L3.89999 11C2.24314 11 0.899994 9.65686 0.899994 8L0.899994 7.9C0.899994 6.24315 2.24314 4.9 3.89999 4.9L4.04893 4.9011C4.52926 3.17036 6.11627 1.9 7.99999 1.9Z" id="Shape" fill="#000000" fill-rule="evenodd" stroke="none" artboard="4f7db754-09ba-47eb-8d62-ca7d5f9c9ec2" />
  </g>
</svg>