<?xml version="1.0" encoding="utf-8"?>
<svg width="15px" height="15px" viewBox="0 0 15 15" version="1.1" xmlns:xlink="http://www.w3.org/1999/xlink" xmlns="http://www.w3.org/2000/svg">
  <defs>
    <rect width="15" height="15" id="artboard_1" />
    <clipPath id="clip_1">
      <use xlink:href="#artboard_1" clip-rule="evenodd" />
    </clipPath>
  </defs>
  <g id="icon--cloud-off" clip-path="url(#clip_1)">
    <path d="M1.85355 1.84644L12.6317 12.6246C12.827 12.8199 12.827 13.1365 12.6317 13.3317C12.4365 13.527 12.1199 13.527 11.9246 13.3317L9.59299 11L3.89999 11C2.24314 11 0.899994 9.65685 0.899994 8L0.899994 7.9C0.899994 6.37256 2.0415 5.11174 3.51797 4.92409L1.14644 2.55355C0.951178 2.35829 0.951178 2.04171 1.14644 1.84644C1.3417 1.65118 1.65829 1.65118 1.85355 1.84644ZM8 1.89999C10.2473 1.89999 12.0723 3.70805 12.0997 5.94886C13.2408 6.1813 14.1 7.19031 14.1 8.39999L14.1 8.49999C14.1 9.63602 13.3423 10.5951 12.3047 10.8993L11.407 9.99999L11.6 9.99999C12.3797 9.99999 13.0204 9.40511 13.0931 8.64445L13.1 8.49999L13.1 8.39999C13.1 7.73115 12.6583 7.15213 12.0361 6.96315L11.9001 6.92873L11.1096 6.76772L11.0998 5.96108C11.079 4.2656 9.69763 2.89999 8 2.89999C7.00474 2.89999 6.10262 3.37326 5.53106 4.1239L4.81889 3.41317C5.57068 2.4898 6.71646 1.89999 8 1.89999ZM4.50399 5.91099L3.99999 5.89999L3.89999 5.89999C2.84563 5.89999 1.98183 6.71587 1.90548 7.75073L1.89999 7.89999L1.89999 7.99999C1.89999 9.05436 2.71587 9.91816 3.75073 9.99451L3.89999 9.99999L8.59299 9.99999L4.50399 5.91099Z" id="Shape" fill="#000000" fill-rule="evenodd" stroke="none" artboard="9894eae4-7200-44ac-8926-0ce22bc78494" />
  </g>
</svg>