<?xml version="1.0" encoding="utf-8"?>
<svg width="15px" height="15px" viewBox="0 0 15 15" version="1.1" xmlns:xlink="http://www.w3.org/1999/xlink" xmlns="http://www.w3.org/2000/svg">
  <defs>
    <rect width="15" height="15" id="artboard_1" />
    <clipPath id="clip_1">
      <use xlink:href="#artboard_1" clip-rule="evenodd" />
    </clipPath>
  </defs>
  <g id="icon--cloud-sync" clip-path="url(#clip_1)">
    <path d="M9.5 10.5C9.77614 10.5 10 10.7239 10 11C10 12.1042 10.8949 12.9995 11.999 13L12 11.8L14.3577 13.5L12 15.2L11.999 13.999L11.8237 13.9949C10.2489 13.9037 9 12.5977 9 11C9 10.7239 9.22386 10.5 9.5 10.5ZM12 6.8L12.0005 8C13.6574 8 15.0005 9.34315 15.0005 11C15.0005 11.2761 14.7767 11.5 14.5005 11.5C14.2244 11.5 14.0005 11.2761 14.0005 11C14.0005 9.89543 13.1051 9 12.0005 9L12 10.2L9.64224 8.5L12 6.8ZM7.99999 1.9C10.2473 1.9 12.0723 3.70806 12.0997 5.94886L12.0997 6L11.099 6L11.0998 5.96109C11.079 4.26561 9.69762 2.9 7.99999 2.9C6.65939 2.9 5.48778 3.7587 5.0654 4.99731L5.01251 5.16852L4.80443 5.91825L3.99999 5.9L3.89999 5.9C2.84563 5.9 1.98183 6.71588 1.90548 7.75074L1.89999 7.9L1.89999 8C1.89999 9.05436 2.71587 9.91817 3.75073 9.99452L3.89999 10L7.99999 10L7.99999 11L3.89999 11C2.24314 11 0.899994 9.65686 0.899994 8L0.899994 7.9C0.899994 6.24315 2.24314 4.9 3.89999 4.9L4.04893 4.9011C4.52926 3.17036 6.11627 1.9 7.99999 1.9Z" id="Shape" fill="#000000" fill-rule="evenodd" stroke="none" artboard="dd4559ab-051a-480b-bf77-97cd2fd9a297" />
  </g>
</svg>