<?xml version="1.0" encoding="utf-8"?>
<svg width="15px" height="15px" viewBox="0 0 15 15" version="1.1" xmlns:xlink="http://www.w3.org/1999/xlink" xmlns="http://www.w3.org/2000/svg">
  <defs>
    <rect width="15" height="15" id="artboard_1" />
    <clipPath id="clip_1">
      <use xlink:href="#artboard_1" clip-rule="evenodd" />
    </clipPath>
  </defs>
  <g id="icon--cloud-minus" clip-path="url(#clip_1)">
    <path d="M7.99999 1.9C10.2473 1.9 12.0723 3.70806 12.0997 5.94886C13.2408 6.18131 14.1 7.19032 14.1 8.4L14.1 8.5C14.1 8.67123 14.0828 8.83845 14.05 9L13.0146 9C13.0546 8.88708 13.0813 8.76796 13.0931 8.64446L13.1 8.5L13.1 8.4C13.1 7.73116 12.6583 7.15214 12.0361 6.96316L11.9001 6.92874L11.1096 6.76773L11.0998 5.96109C11.079 4.26561 9.69762 2.9 7.99999 2.9C6.65939 2.9 5.48778 3.7587 5.0654 4.99731L5.01251 5.16852L4.80443 5.91825L3.99999 5.9L3.89999 5.9C2.84563 5.9 1.98183 6.71588 1.90548 7.75074L1.89999 7.9L1.89999 8C1.89999 9.05436 2.71587 9.91817 3.75073 9.99452L3.89999 10L8.99999 10L8.99999 11L3.89999 11C2.24314 11 0.899994 9.65686 0.899994 8L0.899994 7.9C0.899994 6.24315 2.24314 4.9 3.89999 4.9L4.04893 4.9011C4.52926 3.17036 6.11627 1.9 7.99999 1.9ZM15 11.5C15 11.2239 14.7761 11 14.5 11L10.5 11C10.2239 11 10 11.2239 10 11.5C10 11.7761 10.2239 12 10.5 12L14.5 12C14.7761 12 15 11.7761 15 11.5Z" id="Combined-Shape" fill="#000000" fill-rule="evenodd" stroke="none" artboard="0dfdbd77-e76d-4032-81f3-4a3dacb02d1c" />
  </g>
</svg>