<?xml version="1.0" encoding="utf-8"?>
<svg width="15px" height="15px" viewBox="0 0 15 15" version="1.1" xmlns:xlink="http://www.w3.org/1999/xlink" xmlns="http://www.w3.org/2000/svg">
  <defs>
    <rect width="15" height="15" id="artboard_1" />
    <clipPath id="clip_1">
      <use xlink:href="#artboard_1" clip-rule="evenodd" />
    </clipPath>
  </defs>
  <g id="icon--file-minus" clip-path="url(#clip_1)">
    <path d="M9.59289 1C9.7255 1 9.85268 1.05268 9.94645 1.14645L12.8536 4.05355C12.9473 4.14732 13 4.2745 13 4.40711L13 13.5C13 13.7761 12.7761 14 12.5 14L2.5 14C2.22386 14 2 13.7761 2 13.5L2 1.5C2 1.22386 2.22386 1 2.5 1L9.59289 1ZM9.49 2L3 2L3 13L12 13L12 4.52L9.49 2ZM9.5 7C9.77614 7 10 7.22386 10 7.5C10 7.77614 9.77614 8 9.5 8L5.5 8C5.22386 8 5 7.77614 5 7.5C5 7.22386 5.22386 7 5.5 7L9.5 7Z" id="Shape" fill="#000000" fill-rule="evenodd" stroke="none" artboard="3d810009-1a77-4535-8662-c16914da68f1" />
  </g>
</svg>