<?xml version="1.0" encoding="utf-8"?>
<svg width="15px" height="15px" viewBox="0 0 15 15" version="1.1" xmlns:xlink="http://www.w3.org/1999/xlink" xmlns="http://www.w3.org/2000/svg">
  <defs>
    <rect width="15" height="15" id="artboard_1" />
    <clipPath id="clip_1">
      <use xlink:href="#artboard_1" clip-rule="evenodd" />
    </clipPath>
  </defs>
  <g id="icon--file-otf" clip-path="url(#clip_1)">
    <path d="M8.5 9C8.77614 9 9 9.22386 9 9.5C9 9.77614 8.77614 10 8.5 10L8 10L8 13.5C8 13.7761 7.77614 14 7.5 14C7.22386 14 7 13.7761 7 13.5L7 10L6.5 10C6.22386 10 6 9.77614 6 9.5C6 9.22386 6.22386 9 6.5 9L8.5 9ZM12.5 9C12.7761 9 13 9.22386 13 9.5C13 9.77614 12.7761 10 12.5 10L11 10L11 11L11.7 11C11.9761 11 12.2 11.2239 12.2 11.5C12.2 11.7761 11.9761 12 11.7 12L11 12L11 13.5C11 13.7761 10.7761 14 10.5 14C10.2239 14 10 13.7761 10 13.5L10 9.5C10 9.22386 10.2239 9 10.5 9L12.5 9ZM3.5 9C4.32843 9 5 9.67157 5 10.5L5 12.5C5 13.3284 4.32843 14 3.5 14C2.67157 14 2 13.3284 2 12.5L2 10.5C2 9.67157 2.67157 9 3.5 9ZM3.5 10C3.25454 10 3.05039 10.1769 3.00806 10.4101L3 10.5L3 12.5C3 12.7761 3.22386 13 3.5 13C3.74546 13 3.94961 12.8231 3.99194 12.5899L4 12.5L4 10.5C4 10.2239 3.77614 10 3.5 10ZM8.59289 1C8.7255 1 8.85268 1.05268 8.94645 1.14645L12.8536 5.05355C12.9473 5.14732 13 5.2745 13 5.40711L13 8L12 8L12 6L8.5 6C8.22386 6 8 5.77614 8 5.5L8 2L3 2L3 8L2 8L2 1.5C2 1.22386 2.22386 1 2.5 1L8.59289 1ZM8.899 2.41L8.9 5.099L11.58 5.099L8.899 2.41Z" id="Shape" fill="#000000" fill-rule="evenodd" stroke="none" artboard="a4976db9-8e1a-44bc-a0cc-542ebad00713" />
  </g>
</svg>