<?xml version="1.0" encoding="utf-8"?>
<svg width="15px" height="15px" viewBox="0 0 15 15" version="1.1" xmlns:xlink="http://www.w3.org/1999/xlink" xmlns="http://www.w3.org/2000/svg">
  <defs>
    <rect width="15" height="15" id="artboard_1" />
    <clipPath id="clip_1">
      <use xlink:href="#artboard_1" clip-rule="evenodd" />
    </clipPath>
  </defs>
  <g id="icon--file-pdf" clip-path="url(#clip_1)">
    <path d="M3.5 9C4.32843 9 5 9.67157 5 10.5C5 11.3284 4.32843 12 3.5 12L3 12L3 13.5C3 13.7761 2.77614 14 2.5 14C2.22386 14 2 13.7761 2 13.5L2 9.5C2 9.22386 2.22386 9 2.5 9L3.5 9ZM7.5 9C8.32843 9 9 9.67157 9 10.5L9 12.5C9 13.3284 8.32843 14 7.5 14L6.5 14C6.22386 14 6 13.7761 6 13.5L6 9.5C6 9.22386 6.22386 9 6.5 9L7.5 9ZM12.5 9C12.7761 9 13 9.22386 13 9.5C13 9.77614 12.7761 10 12.5 10L11 10L11 11L11.7 11C11.9761 11 12.2 11.2239 12.2 11.5C12.2 11.7761 11.9761 12 11.7 12L11 12L11 13.5C11 13.7761 10.7761 14 10.5 14C10.2239 14 10 13.7761 10 13.5L10 9.5C10 9.22386 10.2239 9 10.5 9L12.5 9ZM7.5 10L7 10L7 13L7.5 13C7.74546 13 7.94961 12.8231 7.99194 12.5899L8 12.5L8 10.5C8 10.2545 7.82312 10.0504 7.58988 10.0081L7.5 10ZM3.5 10L3 10L3 11L3.5 11C3.77614 11 4 10.7761 4 10.5C4 10.2545 3.82312 10.0504 3.58988 10.0081L3.5 10ZM8.59289 1C8.7255 1 8.85268 1.05268 8.94645 1.14645L12.8536 5.05355C12.9473 5.14732 13 5.2745 13 5.40711L13 8L12 8L12 6L8.5 6C8.22386 6 8 5.77614 8 5.5L8 2L3 2L3 8L2 8L2 1.5C2 1.22386 2.22386 1 2.5 1L8.59289 1ZM8.89899 2.41L8.89999 5.099L11.58 5.099L8.89899 2.41Z" id="Shape" fill="#000000" fill-rule="evenodd" stroke="none" artboard="3f8835ae-c388-4f9c-81ac-8b2c76f9c56e" />
  </g>
</svg>