<?xml version="1.0" encoding="utf-8"?>
<svg width="15px" height="15px" viewBox="0 0 15 15" version="1.1" xmlns:xlink="http://www.w3.org/1999/xlink" xmlns="http://www.w3.org/2000/svg">
  <defs>
    <rect width="15" height="15" id="artboard_1" />
    <clipPath id="clip_1">
      <use xlink:href="#artboard_1" clip-rule="evenodd" />
    </clipPath>
  </defs>
  <g id="icon--file-doc" clip-path="url(#clip_1)">
    <path d="M3.5 9C4.32843 9 5 9.67157 5 10.5L5 12.5C5 13.3284 4.32843 14 3.5 14L2.5 14C2.22386 14 2 13.7761 2 13.5L2 9.5C2 9.22386 2.22386 9 2.5 9L3.5 9ZM7.5 9C8.32843 9 9 9.67157 9 10.5L9 12.5C9 13.3284 8.32843 14 7.5 14C6.67157 14 6 13.3284 6 12.5L6 10.5C6 9.67157 6.67157 9 7.5 9ZM11.5 9C12.2503 9 12.8719 9.55085 12.9825 10.2702L12.9972 10.4069C13.002 10.4379 13.0051 10.4697 13.0051 10.5022C13.0051 10.7783 12.7813 11.0022 12.5051 11.0022C12.2597 11.0022 12.0555 10.8253 12.0132 10.5921L12 10.5C12 10.2239 11.7761 10 11.5 10C11.2545 10 11.0504 10.1769 11.0081 10.4101L11 10.5L11 12.5C11 12.7761 11.2239 13 11.5 13C11.7455 13 11.9496 12.8231 11.9919 12.5899L12.0132 12.4123C12.0555 12.1791 12.2597 12.0022 12.5051 12.0022C12.7813 12.0022 13.0051 12.226 13.0051 12.5022L13.0028 12.5509L12.9959 12.5983L13 12.5C13 13.3284 12.3284 14 11.5 14C10.6716 14 10 13.3284 10 12.5L10 10.5C10 9.67157 10.6716 9 11.5 9ZM3.5 10L3 10L3 13L3.5 13C3.74546 13 3.94961 12.8231 3.99194 12.5899L4 12.5L4 10.5C4 10.2545 3.82312 10.0504 3.58988 10.0081L3.5 10ZM7.5 10C7.25454 10 7.05039 10.1769 7.00806 10.4101L7 10.5L7 12.5C7 12.7761 7.22386 13 7.5 13C7.74546 13 7.94961 12.8231 7.99194 12.5899L8 12.5L8 10.5C8 10.2239 7.77614 10 7.5 10ZM8.59289 1C8.7255 1 8.85268 1.05268 8.94645 1.14645L12.8536 5.05355C12.9473 5.14732 13 5.2745 13 5.40711L13 8L12 8L12 6L8.5 6C8.22386 6 8 5.77614 8 5.5L8 2L3 2L3 8L2 8L2 1.5C2 1.22386 2.22386 1 2.5 1L8.59289 1ZM8.89899 2.41L8.89999 5.099L11.58 5.099L8.89899 2.41Z" id="Shape" fill="#000000" fill-rule="evenodd" stroke="none" artboard="c81bcdb7-3e3a-455f-94ee-dd5a9c75c1fb" />
  </g>
</svg>