<?xml version="1.0" encoding="utf-8"?>
<svg width="15px" height="15px" viewBox="0 0 15 15" version="1.1" xmlns:xlink="http://www.w3.org/1999/xlink" xmlns="http://www.w3.org/2000/svg">
  <defs>
    <rect width="15" height="15" id="artboard_1" />
    <clipPath id="clip_1">
      <use xlink:href="#artboard_1" clip-rule="evenodd" />
    </clipPath>
  </defs>
  <g id="icon--file-eps" clip-path="url(#clip_1)">
    <path d="M11.5 9C12.0253 9 12.4875 9.26998 12.7554 9.67875L12.8363 9.81547L12.8505 9.84635C12.8829 9.91137 12.9 9.98369 12.9 10.06C12.9 10.3361 12.7175 10.5498 12.4414 10.5498C12.2798 10.5498 12.1361 10.4731 12.0447 10.3542L11.9934 10.2758C11.9132 10.1067 11.6995 10 11.5 10C11.2239 10 11 10.2239 11 10.5C11 10.7761 11.1275 11 11.5 11C12.4621 11 13 11.6716 13 12.5C13 13.4734 12.3284 14 11.5 14C10.9743 14 10.4474 13.7296 10.1796 13.3203L10.0894 13.1623C10.0542 13.0946 10.0356 13.0195 10.0356 12.94C10.0356 12.6639 10.27 12.4558 10.5462 12.4558C10.7161 12.4558 10.8019 12.5405 10.8923 12.6701L10.9356 12.7416C11.0696 12.94 11.2612 13 11.5 13C11.7761 13 12 12.851 12 12.5C12 12.2762 11.9105 12.0315 11.5 12C10.4461 11.919 10 11.3284 10 10.5C10 9.67157 10.6716 9 11.5 9ZM7.5 9C8.32843 9 9 9.67157 9 10.5C9 11.3284 8.32843 12 7.5 12L7 12L7 13.5C7 13.7761 6.77614 14 6.5 14C6.22386 14 6 13.7761 6 13.5L6 9.5C6 9.22386 6.22386 9 6.5 9L7.5 9ZM4.5 9C4.77614 9 5 9.22386 5 9.5C5 9.77614 4.77614 10 4.5 10L3 10L3 11L3.67138 11C3.94752 11 4.17138 11.2239 4.17138 11.5C4.17138 11.7761 3.94752 12 3.67138 12L3 12L3 13L4.5 13C4.77614 13 5 13.2239 5 13.5C5 13.7761 4.77614 14 4.5 14L2.5 14C2.22386 14 2 13.7761 2 13.5L2 9.5C2 9.22386 2.22386 9 2.5 9L4.5 9ZM7.5 10L7 10L7 11L7.5 11C7.77614 11 8 10.7761 8 10.5C8 10.2545 7.82312 10.0504 7.58988 10.0081L7.5 10ZM8.59289 1C8.7255 1 8.85268 1.05268 8.94645 1.14645L12.8536 5.05355C12.9473 5.14732 13 5.2745 13 5.40711L13 8L12 8L12 6L8.5 6C8.22386 6 8 5.77614 8 5.5L8 2L3 2L3 8L2 8L2 1.5C2 1.22386 2.22386 1 2.5 1L8.59289 1ZM8.899 2.41L8.9 5.099L11.58 5.099L8.899 2.41Z" id="Shape" fill="#000000" fill-rule="evenodd" stroke="none" artboard="5e62e85f-a93b-435f-9cc6-66be7538f571" />
  </g>
</svg>