<?xml version="1.0" encoding="utf-8"?>
<svg width="15px" height="15px" viewBox="0 0 15 15" version="1.1" xmlns:xlink="http://www.w3.org/1999/xlink" xmlns="http://www.w3.org/2000/svg">
  <defs>
    <rect width="15" height="15" id="artboard_1" />
    <clipPath id="clip_1">
      <use xlink:href="#artboard_1" clip-rule="evenodd" />
    </clipPath>
  </defs>
  <g id="icon--file-plus" clip-path="url(#clip_1)">
    <path d="M12.6472 3.84715L10.1528 1.35285C9.95798 1.15797 9.57659 1 9.301 1L2.5 1C2.22386 1 2 1.22386 2 1.5L2 13.5C2 13.7761 2.22386 14 2.5 14L12.5 14C12.7761 14 13 13.7761 13 13.5L13 4.699C13 4.42341 12.842 4.04203 12.6472 3.84715ZM3 2L9.49 2L12 4.52L12 13L3 13L3 2ZM8 5.5C8 5.22386 7.77614 5 7.5 5C7.22386 5 7 5.22386 7 5.5L7 7L5.5 7C5.22386 7 5 7.22386 5 7.5C5 7.77614 5.22386 8 5.5 8L7 8L7 9.5C7 9.77614 7.22386 10 7.5 10C7.77614 10 8 9.77614 8 9.5L8 8L9.5 8C9.77614 8 10 7.77614 10 7.5C10 7.22386 9.77614 7 9.5 7L8 7L8 5.5Z" id="Combined-Shape" fill="#000000" fill-rule="evenodd" stroke="none" artboard="9414a391-09a0-4e78-a9c6-b76ba5b5ba31" />
  </g>
</svg>