<?xml version="1.0" encoding="utf-8"?>
<svg width="15px" height="15px" viewBox="0 0 15 15" version="1.1" xmlns:xlink="http://www.w3.org/1999/xlink" xmlns="http://www.w3.org/2000/svg">
  <defs>
    <rect width="15" height="15" id="artboard_1" />
    <clipPath id="clip_1">
      <use xlink:href="#artboard_1" clip-rule="evenodd" />
    </clipPath>
  </defs>
  <g id="icon--file-svg" clip-path="url(#clip_1)">
    <path d="M3.5 9C4.02526 9 4.48746 9.26998 4.75541 9.67875L4.83627 9.81547L4.85047 9.84635C4.8829 9.91137 4.9 9.98369 4.9 10.06C4.9 10.3361 4.71754 10.5498 4.4414 10.5498C4.27979 10.5498 4.13609 10.4731 4.04469 10.3542L3.99339 10.2758C3.91319 10.1067 3.69955 10 3.5 10C3.22386 10 3 10.2239 3 10.5C3 10.7761 3.12747 11 3.5 11C4.46211 11 5 11.6716 5 12.5C5 13.4734 4.32843 14 3.5 14C2.97431 14 2.44743 13.7296 2.17958 13.3203L2.08938 13.1623C2.05418 13.0946 2.03564 13.0195 2.03564 12.94C2.03564 12.6639 2.27005 12.4558 2.54619 12.4558C2.71613 12.4558 2.8019 12.5405 2.89225 12.6701L2.93564 12.7416C3.06961 12.94 3.26123 13 3.5 13C3.77614 13 4 12.851 4 12.5C4 12.2762 3.91054 12.0315 3.5 12C2.44614 11.919 2 11.3284 2 10.5C2 9.67157 2.67157 9 3.5 9ZM11.5 9C12.2797 9 12.9204 9.59489 12.9931 10.3555L13 10.5C13 10.7761 12.7761 11 12.5 11C12.2545 11 12.0504 10.8231 12.0081 10.5899L12 10.5C12 10.2239 11.7761 10 11.5 10C11.2545 10 11.0504 10.1769 11.0081 10.4101L11 10.5L11 12.5C11 12.7761 11.2239 13 11.5 13C11.7455 13 11.9496 12.8231 11.9919 12.5899L12 12.5L12 12.3L11.9 12.3C11.6791 12.3 11.5 12.1209 11.5 11.9C11.5 11.6791 11.6791 11.5 11.9 11.5L12.5 11.5C12.7761 11.5 13 11.7239 13 12L13 12.5C13 13.3284 12.3284 14 11.5 14C10.6716 14 10 13.3284 10 12.5L10 10.5C10 9.67157 10.6716 9 11.5 9ZM8.7 9C8.92917 9 9.11495 9.18578 9.11495 9.41495L9.11317 9.45336L8.41092 13.2077C8.34732 13.662 7.95872 14 7.5 14C7.07951 14 6.71794 13.716 6.61161 13.3187L5.89216 9.49143C5.84992 9.26619 5.99828 9.04935 6.22352 9.00711L6.2616 9.00178L6.38165 9C6.62377 9 6.8311 9.17347 6.87381 9.41179L7.499 12.9L8.12603 9.41155C8.16885 9.17334 8.37612 9 8.61814 9L8.7 9ZM8.59289 1C8.7255 1 8.85268 1.05268 8.94645 1.14645L12.8536 5.05355C12.9473 5.14732 13 5.2745 13 5.40711L13 8L12 8L12 6L8.5 6C8.22386 6 8 5.77614 8 5.5L8 2L3 2L3 8L2 8L2 1.5C2 1.22386 2.22386 1 2.5 1L8.59289 1ZM8.899 2.41L8.9 5.099L11.58 5.099L8.899 2.41Z" id="Shape" fill="#000000" fill-rule="evenodd" stroke="none" artboard="d4f7c04b-aee8-4b68-a1af-67dc92d26a14" />
  </g>
</svg>