<?xml version="1.0" encoding="utf-8"?>
<svg width="15px" height="15px" viewBox="0 0 15 15" version="1.1" xmlns:xlink="http://www.w3.org/1999/xlink" xmlns="http://www.w3.org/2000/svg">
  <defs>
    <rect width="15" height="15" id="artboard_1" />
    <clipPath id="clip_1">
      <use xlink:href="#artboard_1" clip-rule="evenodd" />
    </clipPath>
  </defs>
  <g id="icon--file-jpg" clip-path="url(#clip_1)">
    <path d="M7.5 9C8.32843 9 9 9.67157 9 10.5C9 11.3284 8.32843 12 7.5 12L7 12L7 13.5C7 13.7761 6.77614 14 6.5 14C6.22386 14 6 13.7761 6 13.5L6 9.5C6 9.22386 6.22386 9 6.5 9L7.5 9ZM5 9.5L5 12.5C5 13.3284 4.32843 14 3.5 14C2.67157 14 2 13.3284 2 12.5C2 12.2239 2.22386 12 2.5 12C2.74546 12 2.94961 12.1769 2.99194 12.4101L3 12.5C3 12.7761 3.22386 13 3.5 13C3.74546 13 3.94961 12.8231 3.99194 12.5899L4 12.5L4 9.5C4 9.22386 4.22386 9 4.5 9C4.77614 9 5 9.22386 5 9.5ZM11.5 9C12.2797 9 12.9204 9.59489 12.9931 10.3555L13 10.5C13 10.7761 12.7761 11 12.5 11C12.2545 11 12.0504 10.8231 12.0081 10.5899L12 10.5C12 10.2239 11.7761 10 11.5 10C11.2545 10 11.0504 10.1769 11.0081 10.4101L11 10.5L11 12.5C11 12.7761 11.2239 13 11.5 13C11.7455 13 11.9496 12.8231 11.9919 12.5899L12 12.5L12 12.3L11.9 12.3C11.6791 12.3 11.5 12.1209 11.5 11.9C11.5 11.6791 11.6791 11.5 11.9 11.5L12.5 11.5C12.7761 11.5 13 11.7239 13 12L13 12.5C13 13.3284 12.3284 14 11.5 14C10.6716 14 10 13.3284 10 12.5L10 10.5C10 9.67157 10.6716 9 11.5 9ZM7.5 10L7 10L7 11L7.5 11C7.77614 11 8 10.7761 8 10.5C8 10.2545 7.82312 10.0504 7.58988 10.0081L7.5 10ZM8.59289 1C8.7255 1 8.85268 1.05268 8.94645 1.14645L12.8536 5.05355C12.9473 5.14732 13 5.2745 13 5.40711L13 8L12 8L12 6L8.5 6C8.22386 6 8 5.77614 8 5.5L8 2L3 2L3 8L2 8L2 1.5C2 1.22386 2.22386 1 2.5 1L8.59289 1ZM8.899 2.41L8.9 5.099L11.58 5.099L8.899 2.41Z" id="Shape" fill="#000000" fill-rule="evenodd" stroke="none" artboard="35bc0bc9-a868-4499-a622-892b97115ef3" />
  </g>
</svg>