<?xml version="1.0" encoding="utf-8"?>
<svg width="15px" height="15px" viewBox="0 0 15 15" version="1.1" xmlns:xlink="http://www.w3.org/1999/xlink" xmlns="http://www.w3.org/2000/svg">
  <defs>
    <rect width="15" height="15" id="artboard_1" />
    <clipPath id="clip_1">
      <use xlink:href="#artboard_1" clip-rule="evenodd" />
    </clipPath>
  </defs>
  <g id="icon--file-gif" clip-path="url(#clip_1)">
    <path d="M7.5 9C7.77614 9 8 9.22386 8 9.5L8 13.5C8 13.7761 7.77614 14 7.5 14C7.22386 14 7 13.7761 7 13.5L7 9.5C7 9.22386 7.22386 9 7.5 9ZM11.5 9C11.7761 9 12 9.22386 12 9.5C12 9.77614 11.7761 10 11.5 10L10 10L10 11L10.7 11C10.9761 11 11.2 11.2239 11.2 11.5C11.2 11.7761 10.9761 12 10.7 12L10 12L10 13.5C10 13.7761 9.77614 14 9.5 14C9.22386 14 9 13.7761 9 13.5L9 9.5C9 9.22386 9.22386 9 9.5 9L11.5 9ZM4.5 9C5.2797 9 5.92045 9.59489 5.99313 10.3555L6 10.5C6 10.7761 5.77614 11 5.5 11C5.25454 11 5.05039 10.8231 5.00806 10.5899L5 10.5C5 10.2239 4.77614 10 4.5 10C4.25454 10 4.05039 10.1769 4.00806 10.4101L4 10.5L4 12.5C4 12.7761 4.22386 13 4.5 13C4.74546 13 4.94961 12.8231 4.99194 12.5899L5 12.5L5 12.3L4.9 12.3C4.67909 12.3 4.5 12.1209 4.5 11.9C4.5 11.6791 4.67909 11.5 4.9 11.5L5.5 11.5C5.77614 11.5 6 11.7239 6 12L6 12.5C6 13.3284 5.32843 14 4.5 14C3.67157 14 3 13.3284 3 12.5L3 10.5C3 9.67157 3.67157 9 4.5 9ZM8.59289 1C8.7255 1 8.85268 1.05268 8.94645 1.14645L12.8536 5.05355C12.9473 5.14732 13 5.2745 13 5.40711L13 8L12 8L12 6L8.5 6C8.22386 6 8 5.77614 8 5.5L8 2L3 2L3 8L2 8L2 1.5C2 1.22386 2.22386 1 2.5 1L8.59289 1ZM8.89899 2.41L8.89999 5.099L11.58 5.099L8.89899 2.41Z" id="Shape" fill="#000000" fill-rule="evenodd" stroke="none" artboard="2cc38ba9-85c0-4853-9e02-d276d4d10406" />
  </g>
</svg>