<?xml version="1.0" encoding="utf-8"?>
<svg width="15px" height="15px" viewBox="0 0 15 15" version="1.1" xmlns:xlink="http://www.w3.org/1999/xlink" xmlns="http://www.w3.org/2000/svg">
  <defs>
    <rect width="15" height="15" id="artboard_1" />
    <clipPath id="clip_1">
      <use xlink:href="#artboard_1" clip-rule="evenodd" />
    </clipPath>
  </defs>
  <g id="icon--file-tif" clip-path="url(#clip_1)">
    <path d="M5.5 9C5.77614 9 6 9.22386 6 9.5C6 9.77614 5.77614 10 5.5 10L5 10L5 13.5C5 13.7761 4.77614 14 4.5 14C4.22386 14 4 13.7761 4 13.5L4 10L3.5 10C3.22386 10 3 9.77614 3 9.5C3 9.22386 3.22386 9 3.5 9L5.5 9ZM8 9.5L8 13.5C8 13.7761 7.77614 14 7.5 14C7.22386 14 7 13.7761 7 13.5L7 9.5C7 9.22386 7.22386 9 7.5 9C7.77614 9 8 9.22386 8 9.5ZM11.5 9C11.7761 9 12 9.22386 12 9.5C12 9.77614 11.7761 10 11.5 10L10 10L10 11L10.7 11C10.9761 11 11.2 11.2239 11.2 11.5C11.2 11.7761 10.9761 12 10.7 12L10 12L10 13.5C10 13.7761 9.77614 14 9.5 14C9.22386 14 9 13.7761 9 13.5L9 9.5C9 9.22386 9.22386 9 9.5 9L11.5 9ZM8.59289 1C8.7255 1 8.85268 1.05268 8.94645 1.14645L12.8536 5.05355C12.9473 5.14732 13 5.2745 13 5.40711L13 8L12 8L12 6L8.5 6C8.22386 6 8 5.77614 8 5.5L8 2L3 2L3 8L2 8L2 1.5C2 1.22386 2.22386 1 2.5 1L8.59289 1ZM8.899 2.41L8.9 5.099L11.58 5.099L8.899 2.41Z" id="Shape" fill="#000000" fill-rule="evenodd" stroke="none" artboard="725c2c90-924a-4c3e-80ca-6fff0b75baa3" />
  </g>
</svg>