<?xml version="1.0" encoding="utf-8"?>
<svg width="15px" height="15px" viewBox="0 0 15 15" version="1.1" xmlns:xlink="http://www.w3.org/1999/xlink" xmlns="http://www.w3.org/2000/svg">
  <defs>
    <rect width="15" height="15" id="artboard_1" />
    <clipPath id="clip_1">
      <use xlink:href="#artboard_1" clip-rule="evenodd" />
    </clipPath>
  </defs>
  <g id="icon--file-text" clip-path="url(#clip_1)">
    <path d="M12.6472 3.84715L10.1528 1.35285C9.95798 1.15797 9.57659 1 9.301 1L2.5 1C2.22386 1 2 1.22386 2 1.5L2 13.5C2 13.7761 2.22386 14 2.5 14L12.5 14C12.7761 14 13 13.7761 13 13.5L13 4.699C13 4.42341 12.842 4.04203 12.6472 3.84715ZM3 2L9.49 2L12 4.52L12 13L3 13L3 2ZM7.501 4L4.499 4Q4.44985 4 4.40165 4.00959Q4.35345 4.01918 4.30804 4.03798Q4.26263 4.05679 4.22177 4.0841Q4.18091 4.1114 4.14615 4.14615Q4.1114 4.18091 4.0841 4.22177Q4.05679 4.26263 4.03798 4.30804Q4.01918 4.35345 4.00959 4.40165Q4 4.44985 4 4.499L4 4.501Q4 4.55015 4.00959 4.59835Q4.01918 4.64655 4.03798 4.69196Q4.05679 4.73736 4.0841 4.77823Q4.1114 4.81909 4.14615 4.85385Q4.18091 4.8886 4.22177 4.9159Q4.26263 4.94321 4.30804 4.96202Q4.35345 4.98082 4.40165 4.99041Q4.44985 5 4.499 5L7.501 5Q7.55015 5 7.59835 4.99041Q7.64655 4.98082 7.69196 4.96202Q7.73736 4.94321 7.77823 4.9159Q7.81909 4.8886 7.85385 4.85385Q7.8886 4.81909 7.9159 4.77823Q7.94321 4.73736 7.96201 4.69196Q7.98082 4.64655 7.99041 4.59835Q8 4.55015 8 4.501L8 4.499Q8 4.44985 7.99041 4.40165Q7.98082 4.35345 7.96201 4.30804Q7.94321 4.26263 7.9159 4.22177Q7.8886 4.18091 7.85385 4.14615Q7.81909 4.1114 7.77823 4.0841Q7.73736 4.05679 7.69196 4.03798Q7.64655 4.01918 7.59835 4.00959Q7.55015 4 7.501 4ZM4.499 7L10.501 7Q10.5501 7 10.5983 7.00959Q10.6466 7.01918 10.692 7.03798Q10.7374 7.05679 10.7782 7.0841Q10.8191 7.1114 10.8538 7.14615Q10.8886 7.18091 10.9159 7.22177Q10.9432 7.26263 10.962 7.30804Q10.9808 7.35345 10.9904 7.40165Q11 7.44985 11 7.499L11 7.501Q11 7.55015 10.9904 7.59835Q10.9808 7.64655 10.962 7.69196Q10.9432 7.73736 10.9159 7.77823Q10.8886 7.81909 10.8538 7.85385Q10.8191 7.8886 10.7782 7.9159Q10.7374 7.94321 10.692 7.96201Q10.6466 7.98082 10.5983 7.99041Q10.5501 8 10.501 8L4.499 8Q4.44985 8 4.40165 7.99041Q4.35345 7.98082 4.30804 7.96201Q4.26263 7.94321 4.22177 7.9159Q4.18091 7.8886 4.14615 7.85385Q4.1114 7.81909 4.0841 7.77823Q4.05679 7.73736 4.03798 7.69196Q4.01918 7.64655 4.00959 7.59835Q4 7.55015 4 7.501L4 7.499Q4 7.44985 4.00959 7.40165Q4.01918 7.35345 4.03798 7.30804Q4.05679 7.26263 4.0841 7.22177Q4.1114 7.18091 4.14615 7.14615Q4.18091 7.1114 4.22177 7.0841Q4.26263 7.05679 4.30804 7.03798Q4.35345 7.01918 4.40165 7.00959Q4.44985 7 4.499 7ZM10.501 10L4.499 10Q4.44985 10 4.40165 10.0096Q4.35345 10.0192 4.30804 10.038Q4.26263 10.0568 4.22177 10.0841Q4.1809 10.1114 4.14615 10.1462Q4.1114 10.1809 4.0841 10.2218Q4.05679 10.2626 4.03798 10.308Q4.01918 10.3534 4.00959 10.4016Q4 10.4499 4 10.499L4 10.501Q4 10.5501 4.00959 10.5983Q4.01918 10.6466 4.03798 10.692Q4.05679 10.7374 4.0841 10.7782Q4.1114 10.8191 4.14615 10.8538Q4.18091 10.8886 4.22177 10.9159Q4.26263 10.9432 4.30804 10.962Q4.35345 10.9808 4.40165 10.9904Q4.44985 11 4.499 11L10.501 11Q10.5501 11 10.5983 10.9904Q10.6466 10.9808 10.692 10.962Q10.7374 10.9432 10.7782 10.9159Q10.8191 10.8886 10.8538 10.8538Q10.8886 10.8191 10.9159 10.7782Q10.9432 10.7374 10.962 10.692Q10.9808 10.6466 10.9904 10.5983Q11 10.5501 11 10.501L11 10.499Q11 10.4499 10.9904 10.4016Q10.9808 10.3534 10.962 10.308Q10.9432 10.2626 10.9159 10.2218Q10.8886 10.1809 10.8538 10.1462Q10.8191 10.1114 10.7782 10.0841Q10.7374 10.0568 10.692 10.038Q10.6466 10.0192 10.5983 10.0096Q10.5501 10 10.501 10Z" id="Combined-Shape" fill="#000000" fill-rule="evenodd" stroke="none" artboard="c796c32d-bc79-456b-8e8c-b1ac78f1ebb5" />
  </g>
</svg>