<?xml version="1.0" encoding="utf-8"?>
<svg width="15px" height="15px" viewBox="0 0 15 15" version="1.1" xmlns:xlink="http://www.w3.org/1999/xlink" xmlns="http://www.w3.org/2000/svg">
  <defs>
    <rect width="15" height="15" id="artboard_1" />
    <clipPath id="clip_1">
      <use xlink:href="#artboard_1" clip-rule="evenodd" />
    </clipPath>
  </defs>
  <g id="icon--file-psd" clip-path="url(#clip_1)">
    <path d="M3.5 9C4.32843 9 5 9.67157 5 10.5C5 11.3284 4.32843 12 3.5 12L3 12L3 13.5C3 13.7761 2.77614 14 2.5 14C2.22386 14 2 13.7761 2 13.5L2 9.5C2 9.22386 2.22386 9 2.5 9L3.5 9ZM7.5 9C8.02526 9 8.48746 9.26998 8.75541 9.67875L8.83627 9.81547L8.85047 9.84635C8.8829 9.91137 8.9 9.98369 8.9 10.06C8.9 10.3361 8.71754 10.5498 8.4414 10.5498C8.27979 10.5498 8.13609 10.4731 8.04469 10.3542L7.99339 10.2758C7.91319 10.1067 7.69955 10 7.5 10C7.22386 10 7 10.2239 7 10.5C7 10.7761 7.12747 11 7.5 11C8.46211 11 9 11.6716 9 12.5C9 13.4734 8.32843 14 7.5 14C6.97431 14 6.44743 13.7296 6.17958 13.3203L6.08938 13.1623C6.05418 13.0946 6.03564 13.0195 6.03564 12.94C6.03564 12.6639 6.27005 12.4558 6.54619 12.4558C6.71613 12.4558 6.8019 12.5405 6.89225 12.6701L6.93564 12.7416C7.06961 12.94 7.26123 13 7.5 13C7.77614 13 8 12.851 8 12.5C8 12.2762 7.91054 12.0315 7.5 12C6.44614 11.919 6 11.3284 6 10.5C6 9.67157 6.67157 9 7.5 9ZM11.5 9C12.3284 9 13 9.67157 13 10.5L13 12.5C13 13.3284 12.3284 14 11.5 14L10.5 14C10.2239 14 10 13.7761 10 13.5L10 9.5C10 9.22386 10.2239 9 10.5 9L11.5 9ZM11.5 10L11 10L11 13L11.5 13C11.7455 13 11.9496 12.8231 11.9919 12.5899L12 12.5L12 10.5C12 10.2545 11.8231 10.0504 11.5899 10.0081L11.5 10ZM3.5 10L3 10L3 11L3.5 11C3.77614 11 4 10.7761 4 10.5C4 10.2545 3.82312 10.0504 3.58988 10.0081L3.5 10ZM8.59289 1C8.7255 1 8.85268 1.05268 8.94645 1.14645L12.8536 5.05355C12.9473 5.14732 13 5.2745 13 5.40711L13 8L12 8L12 6L8.5 6C8.22386 6 8 5.77614 8 5.5L8 2L3 2L3 8L2 8L2 1.5C2 1.22386 2.22386 1 2.5 1L8.59289 1ZM8.899 2.41L8.9 5.099L11.58 5.099L8.899 2.41Z" id="Shape" fill="#000000" fill-rule="evenodd" stroke="none" artboard="007b70ad-ef75-4eac-ae54-58497397ed16" />
  </g>
</svg>