<?xml version="1.0" encoding="utf-8"?>
<svg width="15px" height="15px" viewBox="0 0 15 15" version="1.1" xmlns:xlink="http://www.w3.org/1999/xlink" xmlns="http://www.w3.org/2000/svg">
  <defs>
    <rect width="15" height="15" id="artboard_1" />
    <clipPath id="clip_1">
      <use xlink:href="#artboard_1" clip-rule="evenodd" />
    </clipPath>
  </defs>
  <g id="icon--file-mp3" clip-path="url(#clip_1)">
    <path d="M8.94645 1.14645C8.85268 1.05268 8.7255 1 8.59289 1L2.5 1C2.22386 1 2 1.22386 2 1.5L2 8L3 8L3 2L8 2L8 5.5C8 5.77614 8.22386 6 8.5 6L12 6L12 8L13 8L13 5.40711C13 5.2745 12.9473 5.14732 12.8536 5.05355L8.94645 1.14645ZM8.9 5.099L8.899 2.41L11.58 5.099L8.9 5.099ZM5.499 14L5.501 14Q5.55015 14 5.59835 13.9904Q5.64655 13.9808 5.69196 13.962Q5.73736 13.9432 5.77823 13.9159Q5.81909 13.8886 5.85385 13.8538Q5.8886 13.8191 5.9159 13.7782Q5.94321 13.7374 5.96202 13.692Q5.98082 13.6466 5.99041 13.5983Q6 13.5501 6 13.501L6 10.499Q6 10.4254 5.99278 10.3521Q5.98556 10.2788 5.9712 10.2066Q5.95683 10.1343 5.93545 10.0639Q5.91408 9.99339 5.88589 9.92536Q5.85771 9.85732 5.823 9.79238Q5.78829 9.72743 5.74737 9.6662Q5.70646 9.60497 5.65974 9.54804Q5.61302 9.49112 5.56095 9.43905Q5.50888 9.38698 5.45196 9.34026Q5.39503 9.29354 5.3338 9.25263Q5.27257 9.21171 5.20762 9.177Q5.14268 9.14229 5.07464 9.1141Q5.00661 9.08592 4.93614 9.06455Q4.86567 9.04317 4.79344 9.0288Q4.72121 9.01444 4.64793 9.00722Q4.57464 9 4.501 9L1.499 9Q1.44985 9 1.40165 9.00959Q1.35345 9.01918 1.30804 9.03798Q1.26263 9.05679 1.22177 9.0841Q1.18091 9.1114 1.14615 9.14615Q1.1114 9.18091 1.0841 9.22177Q1.05679 9.26263 1.03798 9.30804Q1.01918 9.35345 1.00959 9.40165Q1 9.44985 1 9.499L1 13.501Q1 13.5501 1.00959 13.5983Q1.01918 13.6466 1.03798 13.692Q1.05679 13.7374 1.0841 13.7782Q1.1114 13.8191 1.14615 13.8538Q1.18091 13.8886 1.22177 13.9159Q1.26263 13.9432 1.30804 13.962Q1.35345 13.9808 1.40165 13.9904Q1.44985 14 1.499 14L1.501 14Q1.55015 14 1.59835 13.9904Q1.64655 13.9808 1.69196 13.962Q1.73736 13.9432 1.77823 13.9159Q1.81909 13.8886 1.85385 13.8538Q1.8886 13.8191 1.9159 13.7782Q1.94321 13.7374 1.96202 13.692Q1.98082 13.6466 1.99041 13.5983Q2 13.5501 2 13.501L2 10L3 10L3 13.501Q3 13.5501 3.00959 13.5983Q3.01918 13.6466 3.03798 13.692Q3.05679 13.7374 3.0841 13.7782Q3.1114 13.8191 3.14615 13.8538Q3.18091 13.8886 3.22177 13.9159Q3.26263 13.9432 3.30804 13.962Q3.35345 13.9808 3.40165 13.9904Q3.44985 14 3.499 14L3.501 14Q3.55015 14 3.59835 13.9904Q3.64655 13.9808 3.69196 13.962Q3.73736 13.9432 3.77823 13.9159Q3.81909 13.8886 3.85385 13.8538Q3.8886 13.8191 3.9159 13.7782Q3.94321 13.7374 3.96202 13.692Q3.98082 13.6466 3.99041 13.5983Q4 13.5501 4 13.501L4 10L4.501 10Q4.55015 10 4.59835 10.0096Q4.64655 10.0192 4.69196 10.038Q4.73736 10.0568 4.77823 10.0841Q4.81909 10.1114 4.85385 10.1462Q4.8886 10.1809 4.9159 10.2218Q4.94321 10.2626 4.96202 10.308Q4.98082 10.3534 4.99041 10.4016Q5 10.4499 5 10.499L5 13.501Q5 13.5501 5.00959 13.5983Q5.01918 13.6466 5.03798 13.692Q5.05679 13.7374 5.0841 13.7782Q5.1114 13.8191 5.14615 13.8538Q5.18091 13.8886 5.22177 13.9159Q5.26263 13.9432 5.30804 13.962Q5.35345 13.9808 5.40165 13.9904Q5.44985 14 5.499 14ZM10 10.5C10 9.67157 9.32843 9 8.5 9L7.5 9C7.22386 9 7 9.22386 7 9.5L7 13.5C7 13.7761 7.22386 14 7.5 14C7.77614 14 8 13.7761 8 13.5L8 12L8.5 12C9.32843 12 10 11.3284 10 10.5ZM12.5 9C11.9269 9 11.4288 9.32144 11.1763 9.79389Q11.1 9.91548 11.1 10.059L11.1 10.061Q11.1 10.1101 11.1096 10.1583Q11.1192 10.2066 11.138 10.252Q11.1568 10.2974 11.1841 10.3382Q11.2114 10.3791 11.2462 10.4138Q11.2809 10.4486 11.3218 10.4759Q11.3626 10.5032 11.408 10.522Q11.4535 10.5408 11.5017 10.5504Q11.5499 10.56 11.599 10.56L11.601 10.56Q11.6711 10.56 11.7386 10.5407Q11.806 10.5213 11.8655 10.4842Q11.925 10.447 11.9719 10.3948Q12.0188 10.3427 12.0495 10.2797C12.051 10.2786 12.0522 10.2774 12.0529 10.276C12.135 10.1123 12.3044 10 12.5 10C12.7455 10 12.9496 10.1769 12.9919 10.4101L13 10.5L13 10.501C13 10.7766 12.7766 11 12.501 11L12.5 11C12.2239 11 12 11.2239 12 11.5C12 11.7761 12.2239 12 12.5 12L12.501 12C12.7766 12 13 12.2234 13 12.499L13 12.5C13 12.7761 12.7761 13 12.5 13C12.3147 13 12.153 12.8992 12.0666 12.7495Q12.0394 12.679 11.9925 12.6196Q11.9457 12.5603 11.8833 12.5176Q11.821 12.4748 11.7488 12.4524Q11.6766 12.43 11.601 12.43L11.599 12.43Q11.5499 12.43 11.5017 12.4396Q11.4535 12.4492 11.408 12.468Q11.3626 12.4868 11.3218 12.5141Q11.2809 12.5414 11.2462 12.5762Q11.2114 12.6109 11.1841 12.6518Q11.1568 12.6926 11.138 12.738Q11.1192 12.7834 11.1096 12.8316Q11.1 12.8799 11.1 12.929L11.1 12.931Q11.1 13.0436 11.1484 13.1453C11.1495 13.1515 11.1515 13.1577 11.1545 13.1637C11.3994 13.6592 11.9099 14 12.5 14C13.3284 14 14 13.3284 14 12.5C14 12.5 14 11.6189 13.5 11.4766C14 11.3094 14 10.5 14 10.5C14 9.67157 13.3284 9 12.5 9ZM8 10L8.5 10L8.58988 10.0081C8.82312 10.0504 9 10.2545 9 10.5C9 10.7761 8.77614 11 8.5 11L8 11L8 10Z" id="Shape-Union" fill="#000000" fill-rule="evenodd" stroke="none" artboard="ddb86139-dc9d-4448-94df-efc32b1397ac" />
  </g>
</svg>