<?xml version="1.0" encoding="utf-8"?>
<svg width="15px" height="15px" viewBox="0 0 15 15" version="1.1" xmlns:xlink="http://www.w3.org/1999/xlink" xmlns="http://www.w3.org/2000/svg">
  <defs>
    <rect width="15" height="15" id="artboard_1" />
    <clipPath id="clip_1">
      <use xlink:href="#artboard_1" clip-rule="evenodd" />
    </clipPath>
  </defs>
  <g id="icon--file-ppt" clip-path="url(#clip_1)">
    <path d="M8.94645 1.14645C8.85268 1.05268 8.7255 1 8.59289 1L2.5 1C2.22386 1 2 1.22386 2 1.5L2 8L3 8L3 2L8 2L8 5.5C8 5.77614 8.22386 6 8.5 6L12 6L12 8L13 8L13 5.40711C13 5.2745 12.9473 5.14732 12.8536 5.05355L8.94645 1.14645ZM8.9 5.099L8.899 2.41L11.58 5.099L8.9 5.099ZM5 10.5C5 9.67157 4.32843 9 3.5 9L2.5 9C2.22386 9 2 9.22386 2 9.5L2 13.5C2 13.7761 2.22386 14 2.5 14C2.77614 14 3 13.7761 3 13.5L3 12L3.5 12C4.32843 12 5 11.3284 5 10.5ZM9 10.5C9 9.67157 8.32843 9 7.5 9L6.5 9C6.22386 9 6 9.22386 6 9.5L6 13.5C6 13.7761 6.22386 14 6.5 14C6.77614 14 7 13.7761 7 13.5L7 12L7.5 12C8.32843 12 9 11.3284 9 10.5ZM13 9.5C13 9.22386 12.7761 9 12.5 9L10.5 9C10.2239 9 10 9.22386 10 9.5C10 9.77614 10.2239 10 10.5 10L11 10L11 13.5C11 13.7761 11.2239 14 11.5 14C11.7761 14 12 13.7761 12 13.5L12 10L12.5 10C12.7761 10 13 9.77614 13 9.5ZM3 10L3.5 10L3.58988 10.0081C3.82312 10.0504 4 10.2545 4 10.5C4 10.7761 3.77614 11 3.5 11L3 11L3 10ZM7 10L7.5 10L7.58988 10.0081C7.82312 10.0504 8 10.2545 8 10.5C8 10.7761 7.77614 11 7.5 11L7 11L7 10Z" id="Shape-Union" fill="#000000" fill-rule="evenodd" stroke="none" artboard="2aca8263-f2d8-4862-a34f-ed8bccad3349" />
  </g>
</svg>