<?xml version="1.0" encoding="utf-8"?>
<svg width="15px" height="15px" viewBox="0 0 15 15" version="1.1" xmlns:xlink="http://www.w3.org/1999/xlink" xmlns="http://www.w3.org/2000/svg">
  <defs>
    <rect width="15" height="15" id="artboard_1" />
    <clipPath id="clip_1">
      <use xlink:href="#artboard_1" clip-rule="evenodd" />
    </clipPath>
  </defs>
  <g id="icon--file-archive" clip-path="url(#clip_1)">
    <path d="M8.59289 1C8.7255 1 8.85268 1.05268 8.94645 1.14645L12.8536 5.05355C12.9473 5.14732 13 5.2745 13 5.40711L13 13.5C13 13.7761 12.7761 14 12.5 14L2.5 14C2.22386 14 2 13.7761 2 13.5L2 1.5C2 1.22386 2.22386 1 2.5 1L8.59289 1ZM6 2L3 2L3 13L12 13L12 5.5L8.5034 2L7 2L7 3L6 3L6 2ZM8 10L6 10L6 8L7 8L7 7L8 7L8 10ZM7 6L7 7L6 7L6 6L7 6ZM8 5L8 6L7 6L7 5L8 5ZM7 4L7 5L6 5L6 4L7 4ZM8 3L8 4L7 4L7 3L8 3Z" id="Shape" fill="#000000" fill-rule="evenodd" stroke="none" artboard="9bfab00a-1210-4a90-9c82-6ff7fe3bffac" />
  </g>
</svg>