<?xml version="1.0" encoding="utf-8"?>
<svg width="15px" height="15px" viewBox="0 0 15 15" version="1.1" xmlns:xlink="http://www.w3.org/1999/xlink" xmlns="http://www.w3.org/2000/svg">
  <defs>
    <rect width="15" height="15" id="artboard_1" />
    <clipPath id="clip_1">
      <use xlink:href="#artboard_1" clip-rule="evenodd" />
    </clipPath>
  </defs>
  <g id="icon--folder-minus" clip-path="url(#clip_1)">
    <path d="M14.5 12C14.7761 12 15 12.2239 15 12.5C15 12.7761 14.7761 13 14.5 13L10.5 13C10.2239 13 10 12.7761 10 12.5C10 12.2239 10.2239 12 10.5 12L14.5 12ZM5.58579 2C5.851 2 6.10536 2.10536 6.29289 2.29289L8 4L13.5 4C13.7761 4 14 4.22386 14 4.5L14 10L13 10L13 5L7.58579 5L5.585 3L2 3L2 11L9 11L9 12L1.5 12C1.22386 12 1 11.7761 1 11.5L1 2.5C1 2.22386 1.22386 2 1.5 2L5.58579 2Z" id="Shape" fill="#000000" fill-rule="evenodd" stroke="none" artboard="8747e6ac-839f-4714-a14b-71832b0ff015" />
  </g>
</svg>