<?xml version="1.0" encoding="utf-8"?>
<svg width="15px" height="15px" viewBox="0 0 15 15" version="1.1" xmlns:xlink="http://www.w3.org/1999/xlink" xmlns="http://www.w3.org/2000/svg">
  <defs>
    <rect width="15" height="15" id="artboard_1" />
    <clipPath id="clip_1">
      <use xlink:href="#artboard_1" clip-rule="evenodd" />
    </clipPath>
  </defs>
  <g id="icon--folder-refresh" clip-path="url(#clip_1)">
    <path d="M13.6021 8.46258L13.7777 8.58296L13.7777 8.58296L13.8176 8.61285C13.8723 8.65442 13.9255 8.69793 13.9774 8.74353L14.1214 8.8785L15 8.00173L15 10.5L12.5 10.5L13.4141 9.58539C13.3584 9.52967 13.2996 9.47744 13.2381 9.42891L13.1831 9.38687L13.0312 9.28554L12.9021 9.21416L12.825 9.1775L12.7526 9.14643L12.7526 9.14643L12.595 9.08992L12.5331 9.07189L12.376 9.03535L12.209 9.01083C12.149 9.00459 12.0884 9.00101 12.0273 9.00019L11.9117 9.00178L11.9117 9.00178L11.7382 9.01698L11.5813 9.0439L11.4682 9.07148L11.3007 9.12556L11.3007 9.12556L11.1376 9.19474C11.0917 9.21665 11.0465 9.24041 11.0021 9.26602L11.1222 9.20243L11.0405 9.24478L11.0405 9.24478L10.961 9.29072L10.8819 9.34115L10.823 9.38285L10.7044 9.47636C10.2734 9.84321 10 10.3897 10 11C10 12.1046 10.8954 13 12 13C12.7731 13 13.4665 12.5576 13.7992 11.8747C13.9202 11.6264 14.2195 11.5232 14.4677 11.6442C14.716 11.7651 14.8192 12.0644 14.6982 12.3127C14.1994 13.3363 13.1592 14 12 14C10.3431 14 9 12.6569 9 11C9 10.2466 9.27776 9.55798 9.73646 9.03108L9.87876 8.8785L9.97914 8.78258L9.97914 8.78258L10.1414 8.64497L10.1414 8.64497L10.3629 8.48516L10.3629 8.48516L10.5109 8.39468L10.5109 8.39468L10.6544 8.31794L10.6544 8.31794L10.8556 8.22586L10.8556 8.22586L11.0539 8.15224L11.0539 8.15224L11.207 8.10599L11.207 8.10599L11.331 8.07487L11.331 8.07487L11.5102 8.03979L11.5102 8.03979L11.7297 8.01195L11.7297 8.01195L11.9107 8.00116L11.9107 8.00116L12.0334 8L12.2883 8.01363L12.2883 8.01363L12.4247 8.02998L12.4247 8.02998L12.5364 8.04786L12.5364 8.04786L12.6797 8.07741L12.6797 8.07741L12.7872 8.10462L12.7872 8.10462C12.9043 8.1362 13.0195 8.17496 13.1324 8.22089L13.3244 8.30755L13.3244 8.30755C13.4194 8.35377 13.5119 8.40554 13.6021 8.46258ZM5.58579 2C5.851 2 6.10536 2.10536 6.29289 2.29289L8 4L13.5 4C13.7761 4 14 4.22386 14 4.5L14 7L13 7L13 5L7.58579 5L5.585 3L2 3L2 11L8 11L8 12L1.5 12C1.22386 12 1 11.7761 1 11.5L1 2.5C1 2.22386 1.22386 2 1.5 2L5.58579 2Z" id="Shape" fill="#000000" fill-rule="evenodd" stroke="none" artboard="a0b10c20-e9be-46b3-8eb5-cfc2770dde26" />
  </g>
</svg>