<?xml version="1.0" encoding="utf-8"?>
<svg width="15px" height="15px" viewBox="0 0 15 15" version="1.1" xmlns:xlink="http://www.w3.org/1999/xlink" xmlns="http://www.w3.org/2000/svg">
  <defs>
    <rect width="15" height="15" id="artboard_1" />
    <clipPath id="clip_1">
      <use xlink:href="#artboard_1" clip-rule="evenodd" />
    </clipPath>
  </defs>
  <g id="icon--folder-cross" clip-path="url(#clip_1)">
    <path d="M10.088 10.3964L11.5022 11.91L12.9164 10.3964C13.1117 10.2012 13.4283 10.2012 13.6236 10.3964C13.8188 10.5917 13.8188 10.9083 13.6236 11.1036L12.1045 12.5178L13.6236 13.932C13.8188 14.1272 13.8188 14.4438 13.6236 14.6391C13.4283 14.8343 13.1117 14.8343 12.9164 14.6391L11.5022 13.12L10.088 14.6391C9.89276 14.8343 9.57618 14.8343 9.38091 14.6391C9.18565 14.4438 9.18565 14.1272 9.38091 13.932L10.8945 12.5178L9.38091 11.1036C9.18565 10.9083 9.18565 10.5917 9.38091 10.3964C9.57618 10.2012 9.89276 10.2012 10.088 10.3964ZM5.58579 2C5.851 2 6.10536 2.10536 6.29289 2.29289L8 4L13.5 4C13.7761 4 14 4.22386 14 4.5L14 9L13 9L13 5L7.58579 5L5.585 3L2 3L2 11L8 11L8 12L1.5 12C1.22386 12 1 11.7761 1 11.5L1 2.5C1 2.22386 1.22386 2 1.5 2L5.58579 2Z" id="Shape" fill="#000000" fill-rule="evenodd" stroke="none" artboard="f04df840-b16b-4674-b5cf-bb0c2bc1fc8d" />
  </g>
</svg>