<?xml version="1.0" encoding="utf-8"?>
<svg width="15px" height="15px" viewBox="0 0 15 15" version="1.1" xmlns:xlink="http://www.w3.org/1999/xlink" xmlns="http://www.w3.org/2000/svg">
  <defs>
    <rect width="15" height="15" id="artboard_1" />
    <clipPath id="clip_1">
      <use xlink:href="#artboard_1" clip-rule="evenodd" />
    </clipPath>
  </defs>
  <g id="icon--image" clip-path="url(#clip_1)">
    <path d="M13.5 2C13.7761 2 14 2.22386 14 2.5L14 12.5C14 12.7761 13.7761 13 13.5 13L1.5 13C1.22386 13 1 12.7761 1 12.5L1 2.5C1 2.22386 1.22386 2 1.5 2L13.5 2ZM4.49963 8L2 10.5L2 12L8.497 12L4.49963 8ZM10.4916 9L8.62421 10.8242L9.8 12L13 12L13 11.509L10.4916 9ZM13 3L2 3L2 9.199L4.35851 6.84142C4.421 6.77894 4.51454 6.76644 4.58944 6.80393L4.64135 6.84142L7.99593 10.196L10.3505 7.84142C10.413 7.77894 10.5065 7.76644 10.5814 7.80393L10.6334 7.84142L13 10.208L13 3ZM8.49999 3.9C9.38365 3.9 10.1 4.61635 10.1 5.5C10.1 6.38366 9.38365 7.1 8.49999 7.1C7.61634 7.1 6.89999 6.38366 6.89999 5.5C6.89999 4.61635 7.61634 3.9 8.49999 3.9ZM8.49999 4.8C8.11339 4.8 7.79999 5.1134 7.79999 5.5C7.79999 5.8866 8.11339 6.2 8.49999 6.2C8.88659 6.2 9.19999 5.8866 9.19999 5.5C9.19999 5.1134 8.88659 4.8 8.49999 4.8Z" id="Shape" fill="#000000" fill-rule="evenodd" stroke="none" artboard="5cf935c7-fc9e-4ba6-90af-9e1d4b0fa941" />
  </g>
</svg>