<?xml version="1.0" encoding="utf-8"?>
<svg width="15px" height="15px" viewBox="0 0 15 15" version="1.1" xmlns:xlink="http://www.w3.org/1999/xlink" xmlns="http://www.w3.org/2000/svg">
  <defs>
    <rect width="15" height="15" id="artboard_1" />
    <clipPath id="clip_1">
      <use xlink:href="#artboard_1" clip-rule="evenodd" />
    </clipPath>
  </defs>
  <g id="icon--news-old" clip-path="url(#clip_1)">
    <path d="M11 2.499C11 4.45596 11 11.5 11 11.5C11 11.7455 11.1769 11.9496 11.4101 11.9919C11.4101 11.9919 11.5 12 11.5 12C11.7455 12 11.9496 11.8231 11.9919 11.5899C11.9919 11.5899 12 11.5 12 11.5L12 6.499Q12 6.44985 12.0096 6.40165Q12.0192 6.35345 12.038 6.30804Q12.0568 6.26263 12.0841 6.22177Q12.1114 6.18091 12.1462 6.14615Q12.1809 6.1114 12.2218 6.0841Q12.2626 6.05679 12.308 6.03798Q12.3534 6.01918 12.4016 6.00959Q12.4499 6 12.499 6L12.501 6C12.7766 6 13 6.22341 13 6.499C13 7.85384 13 11.5 13 11.5C13 12.2797 12.4051 12.9204 11.6445 12.9931C11.6445 12.9931 11.5 13 11.5 13C11.5 13 4.5 13 4.5 13C3.67157 13 3 12.3284 3 11.5L3 2.499C3 2.22341 3.22341 2 3.499 2L10.501 2C10.7766 2 11 2.22341 11 2.499ZM10 3L4 3L4 11.5C4 11.7455 4.17688 11.9496 4.41012 11.9919L4.5 12L10.0856 12.0007C10.0302 11.8441 10 11.6756 10 11.5L10 3ZM9 10.499L9 10.501Q9 10.5501 8.99041 10.5983Q8.98082 10.6466 8.96202 10.692Q8.94321 10.7374 8.9159 10.7782Q8.8886 10.8191 8.85385 10.8538Q8.81909 10.8886 8.77823 10.9159Q8.73736 10.9432 8.69196 10.962Q8.64655 10.9808 8.59835 10.9904Q8.55015 11 8.501 11L5.499 11Q5.44985 11 5.40165 10.9904Q5.35345 10.9808 5.30804 10.962Q5.26263 10.9432 5.22177 10.9159Q5.18091 10.8886 5.14615 10.8538Q5.1114 10.8191 5.0841 10.7782Q5.05679 10.7374 5.03798 10.692Q5.01918 10.6466 5.00959 10.5983Q5 10.5501 5 10.501L5 10.499Q5 10.4499 5.00959 10.4016Q5.01918 10.3534 5.03798 10.308Q5.05679 10.2626 5.0841 10.2218Q5.1114 10.1809 5.14615 10.1462Q5.18091 10.1114 5.22177 10.0841Q5.26263 10.0568 5.30804 10.038Q5.35345 10.0192 5.40165 10.0096Q5.44985 10 5.499 10L8.501 10Q8.55015 10 8.59835 10.0096Q8.64655 10.0192 8.69196 10.038Q8.73736 10.0568 8.77823 10.0841Q8.81909 10.1114 8.85385 10.1462Q8.8886 10.1809 8.9159 10.2218Q8.94321 10.2626 8.96202 10.308Q8.98082 10.3534 8.99041 10.4016Q9 10.4499 9 10.499ZM9 8.499L9 8.501Q9 8.55015 8.99041 8.59835Q8.98082 8.64655 8.96202 8.69196Q8.94321 8.73736 8.9159 8.77823Q8.8886 8.81909 8.85385 8.85385Q8.81909 8.8886 8.77823 8.9159Q8.73736 8.94321 8.69196 8.96202Q8.64655 8.98082 8.59835 8.99041Q8.55015 9 8.501 9L5.499 9Q5.44985 9 5.40165 8.99041Q5.35345 8.98082 5.30804 8.96202Q5.26263 8.94321 5.22177 8.9159Q5.18091 8.8886 5.14615 8.85385Q5.1114 8.81909 5.0841 8.77823Q5.05679 8.73736 5.03798 8.69196Q5.01918 8.64655 5.00959 8.59835Q5 8.55015 5 8.501L5 8.499Q5 8.44985 5.00959 8.40165Q5.01918 8.35345 5.03798 8.30804Q5.05679 8.26263 5.0841 8.22177Q5.1114 8.18091 5.14615 8.14615Q5.18091 8.1114 5.22177 8.0841Q5.26263 8.05679 5.30804 8.03798Q5.35345 8.01918 5.40165 8.00959Q5.44985 8 5.499 8L8.501 8Q8.55015 8 8.59835 8.00959Q8.64655 8.01918 8.69196 8.03798Q8.73736 8.05679 8.77823 8.0841Q8.81909 8.1114 8.85385 8.14615Q8.8886 8.18091 8.9159 8.22177Q8.94321 8.26263 8.96202 8.30804Q8.98082 8.35345 8.99041 8.40165Q9 8.44985 9 8.499ZM9 4.499L9 6.501Q9 6.55015 8.99041 6.59835Q8.98082 6.64655 8.96202 6.69196Q8.94321 6.73736 8.9159 6.77823Q8.8886 6.81909 8.85385 6.85385Q8.81909 6.8886 8.77823 6.9159Q8.73736 6.94321 8.69196 6.96202Q8.64655 6.98082 8.59835 6.99041Q8.55015 7 8.501 7L5.499 7Q5.44985 7 5.40165 6.99041Q5.35345 6.98082 5.30804 6.96202Q5.26263 6.94321 5.22177 6.9159Q5.18091 6.8886 5.14615 6.85385Q5.1114 6.81909 5.0841 6.77823Q5.05679 6.73736 5.03798 6.69196Q5.01918 6.64655 5.00959 6.59835Q5 6.55015 5 6.501L5 4.499Q5 4.44985 5.00959 4.40165Q5.01918 4.35345 5.03798 4.30804Q5.05679 4.26263 5.0841 4.22177Q5.1114 4.18091 5.14615 4.14615Q5.18091 4.1114 5.22177 4.0841Q5.26263 4.05679 5.30804 4.03798Q5.35345 4.01918 5.40165 4.00959Q5.44985 4 5.499 4L8.501 4Q8.55015 4 8.59835 4.00959Q8.64655 4.01918 8.69196 4.03798Q8.73736 4.05679 8.77823 4.0841Q8.81909 4.1114 8.85385 4.14615Q8.8886 4.18091 8.9159 4.22177Q8.94321 4.26263 8.96202 4.30804Q8.98082 4.35345 8.99041 4.40165Q9 4.44985 9 4.499ZM8 5L6 5L6 6L8 6L8 5Z" id="Shape" fill="#000000" fill-rule="evenodd" stroke="none" artboard="b6303724-c0b9-4525-a40a-2b527cf79893" />
  </g>
</svg>