<?xml version="1.0" encoding="utf-8"?>
<svg width="15px" height="15px" viewBox="0 0 15 15" version="1.1" xmlns:xlink="http://www.w3.org/1999/xlink" xmlns="http://www.w3.org/2000/svg">
  <defs>
    <rect width="15" height="15" id="artboard_1" />
    <clipPath id="clip_1">
      <use xlink:href="#artboard_1" clip-rule="evenodd" />
    </clipPath>
  </defs>
  <g id="icon--reader" clip-path="url(#clip_1)">
    <path d="M13 1.5C13 1.22386 12.7761 1 12.5 1L2.5 1C2.22386 1 2 1.22386 2 1.5L2 13.5C2 13.7761 2.22386 14 2.5 14L12.5 14C12.7761 14 13 13.7761 13 13.5L13 1.5ZM3 2L12 2L12 13L3 13L3 2ZM10.501 4L4.499 4Q4.44985 4 4.40165 4.00959Q4.35345 4.01918 4.30804 4.03798Q4.26263 4.05679 4.22177 4.0841Q4.1809 4.1114 4.14615 4.14615Q4.1114 4.18091 4.0841 4.22177Q4.05679 4.26263 4.03798 4.30804Q4.01918 4.35345 4.00959 4.40165Q4 4.44985 4 4.499L4 4.501Q4 4.55015 4.00959 4.59835Q4.01918 4.64655 4.03798 4.69196Q4.05679 4.73736 4.0841 4.77823Q4.1114 4.81909 4.14615 4.85385Q4.18091 4.8886 4.22177 4.9159Q4.26263 4.94321 4.30804 4.96202Q4.35345 4.98082 4.40165 4.99041Q4.44985 5 4.499 5L10.501 5Q10.5501 5 10.5983 4.99041Q10.6466 4.98082 10.692 4.96202Q10.7374 4.94321 10.7782 4.9159Q10.8191 4.8886 10.8538 4.85385Q10.8886 4.81909 10.9159 4.77823Q10.9432 4.73736 10.962 4.69196Q10.9808 4.64655 10.9904 4.59835Q11 4.55015 11 4.501L11 4.499Q11 4.44985 10.9904 4.40165Q10.9808 4.35345 10.962 4.30804Q10.9432 4.26263 10.9159 4.22177Q10.8886 4.18091 10.8538 4.14615Q10.8191 4.1114 10.7782 4.0841Q10.7374 4.05679 10.692 4.03798Q10.6466 4.01918 10.5983 4.00959Q10.5501 4 10.501 4ZM10.501 7L4.499 7Q4.44985 7 4.40165 7.00959Q4.35345 7.01918 4.30804 7.03798Q4.26263 7.05679 4.22177 7.0841Q4.1809 7.1114 4.14615 7.14615Q4.1114 7.18091 4.0841 7.22177Q4.05679 7.26263 4.03798 7.30804Q4.01918 7.35345 4.00959 7.40165Q4 7.44985 4 7.499L4 7.501Q4 7.55015 4.00959 7.59835Q4.01918 7.64655 4.03798 7.69196Q4.05679 7.73736 4.0841 7.77823Q4.1114 7.81909 4.14615 7.85385Q4.18091 7.8886 4.22177 7.9159Q4.26263 7.94321 4.30804 7.96201Q4.35345 7.98082 4.40165 7.99041Q4.44985 8 4.499 8L10.501 8Q10.5501 8 10.5983 7.99041Q10.6466 7.98082 10.692 7.96201Q10.7374 7.94321 10.7782 7.9159Q10.8191 7.8886 10.8538 7.85385Q10.8886 7.81909 10.9159 7.77823Q10.9432 7.73736 10.962 7.69196Q10.9808 7.64655 10.9904 7.59835Q11 7.55015 11 7.501L11 7.499Q11 7.44985 10.9904 7.40165Q10.9808 7.35345 10.962 7.30804Q10.9432 7.26263 10.9159 7.22177Q10.8886 7.18091 10.8538 7.14615Q10.8191 7.1114 10.7782 7.0841Q10.7374 7.05679 10.692 7.03798Q10.6466 7.01918 10.5983 7.00959Q10.5501 7 10.501 7ZM4.499 10L9.501 10Q9.55015 10 9.59835 10.0096Q9.64655 10.0192 9.69196 10.038Q9.73736 10.0568 9.77823 10.0841Q9.81909 10.1114 9.85385 10.1462Q9.8886 10.1809 9.9159 10.2218Q9.94321 10.2626 9.96202 10.308Q9.98082 10.3534 9.99041 10.4016Q10 10.4499 10 10.499L10 10.501Q10 10.5501 9.99041 10.5983Q9.98082 10.6466 9.96202 10.692Q9.94321 10.7374 9.9159 10.7782Q9.8886 10.8191 9.85385 10.8538Q9.81909 10.8886 9.77823 10.9159Q9.73736 10.9432 9.69196 10.962Q9.64655 10.9808 9.59835 10.9904Q9.55015 11 9.501 11L4.499 11Q4.44985 11 4.40165 10.9904Q4.35345 10.9808 4.30804 10.962Q4.26263 10.9432 4.22177 10.9159Q4.18091 10.8886 4.14615 10.8538Q4.1114 10.8191 4.0841 10.7782Q4.05679 10.7374 4.03798 10.692Q4.01918 10.6466 4.00959 10.5983Q4 10.5501 4 10.501L4 10.499Q4 10.4499 4.00959 10.4016Q4.01918 10.3534 4.03798 10.308Q4.05679 10.2626 4.0841 10.2218Q4.1114 10.1809 4.14615 10.1462Q4.18091 10.1114 4.22177 10.0841Q4.26263 10.0568 4.30804 10.038Q4.35345 10.0192 4.40165 10.0096Q4.44985 10 4.499 10Z" id="Combined-Shape" fill="#000000" fill-rule="evenodd" stroke="none" artboard="5b7a7818-1f7a-4642-9d18-c8d53401b63a" />
  </g>
</svg>