<?xml version="1.0" encoding="utf-8"?>
<svg width="15px" height="15px" viewBox="0 0 15 15" version="1.1" xmlns:xlink="http://www.w3.org/1999/xlink" xmlns="http://www.w3.org/2000/svg">
  <defs>
    <rect width="15" height="15" id="artboard_1" />
    <clipPath id="clip_1">
      <use xlink:href="#artboard_1" clip-rule="evenodd" />
    </clipPath>
  </defs>
  <g id="icon--video" clip-path="url(#clip_1)">
    <path d="M7.5 1.9258C8.93732 1.92504 10.3322 2.01239 11.6847 2.18783L12.3574 2.28289C13.8652 2.46383 15 3.74292 15 5.26152L15 9.73848C15 11.1963 13.9542 12.4335 12.5365 12.6902L12.3574 12.7171C10.7912 12.9739 9.17208 13.0929 7.5 13.0742C5.82792 13.0555 4.20878 12.9364 2.64256 12.7171C1.13478 12.5362 0 11.2571 0 9.73848L0 5.26152C0 3.74292 1.13478 2.46383 2.64256 2.28289C4.20398 2.04572 5.82313 1.92669 7.5 1.9258ZM7.50053 2.9258C5.87302 2.92667 4.30386 3.04202 2.76171 3.27577C1.80942 3.39004 1.08032 4.16139 1.00621 5.10308L1 5.26152L1 9.73848C1 10.7509 1.75652 11.6036 2.78124 11.7268C4.30461 11.9401 5.8812 12.056 7.51121 12.0743C8.89539 12.0898 10.2402 12.0077 11.5729 11.8243L12.2383 11.7242C13.1906 11.61 13.9197 10.8386 13.9938 9.89692L14 9.73848L14 5.26152C14 4.24912 13.2435 3.39639 12.2062 3.27139C10.9115 3.07327 9.57426 2.96025 8.19415 2.93255L7.50053 2.9258ZM5.0245 5.33724C5.08072 5.20683 5.21843 5.13663 5.35244 5.16054L5.41875 5.18049L10.1608 7.2245C10.2312 7.25482 10.2873 7.3109 10.3176 7.38125C10.3738 7.51167 10.3303 7.65998 10.2209 7.74099L10.1608 7.7755L5.41875 9.8195C5.38125 9.83567 5.34084 9.84401 5.3 9.84401C5.15798 9.84401 5.03902 9.74533 5.00792 9.61279L5 9.54401L5 5.45599C5 5.41515 5.00834 5.37474 5.0245 5.33724Z" id="Shape" fill="#000000" fill-rule="evenodd" stroke="none" artboard="bed1ad0c-3d97-4d7b-8a49-a2bab8b4b0c4" />
  </g>
</svg>