<?xml version="1.0" encoding="utf-8"?>
<svg width="15px" height="15px" viewBox="0 0 15 15" version="1.1" xmlns:xlink="http://www.w3.org/1999/xlink" xmlns="http://www.w3.org/2000/svg">
  <defs>
    <rect width="15" height="15" id="artboard_1" />
    <clipPath id="clip_1">
      <use xlink:href="#artboard_1" clip-rule="evenodd" />
    </clipPath>
  </defs>
  <g id="icon--bluetooth-off" clip-path="url(#clip_1)">
    <path d="M3.85355 3.04644L12.6317 11.8246C12.827 12.0199 12.827 12.3365 12.6317 12.5317C12.4365 12.727 12.1199 12.727 11.9246 12.5317L10.245 10.852L7.80749 12.7576C7.5899 12.9276 7.27567 12.889 7.10565 12.6714C7.03694 12.5835 6.99962 12.4752 6.99962 12.3636L6.99962 8.54084L4.63421 10.39C4.4409 10.5412 4.17114 10.5276 3.99413 10.3699L3.93246 10.3039L3.93246 10.3039C3.78442 10.1144 3.79783 9.85016 3.95235 9.67681L4.0249 9.61025L6.8 7.53284L6.867 7.474L3.14645 3.75355C2.95118 3.55829 2.95118 3.24171 3.14645 3.04644C3.34171 2.85118 3.65829 2.85118 3.85355 3.04644ZM7.99902 8.606L7.99965 11.3388L9.53302 10.14L7.99902 8.606ZM7.49953 2.05C7.6111 2.05 7.71945 2.08731 7.80737 2.156L10.9782 4.63336C11.1958 4.80337 11.2344 5.11759 11.0644 5.33519C11.0379 5.36909 11.0072 5.39942 10.9729 5.42545L9.07451 6.867L8.39151 6.185L9.86653 5.03284L7.99953 3.57484L7.99951 5.793L6.99951 4.793L6.99953 2.55C6.99953 2.27386 7.22339 2.05 7.49953 2.05Z" id="Shape" fill="#000000" fill-rule="evenodd" stroke="none" artboard="a78855d2-419b-40b2-af61-7283afa08e25" />
  </g>
</svg>