<?xml version="1.0" encoding="utf-8"?>
<svg width="15px" height="15px" viewBox="0 0 15 15" version="1.1" xmlns:xlink="http://www.w3.org/1999/xlink" xmlns="http://www.w3.org/2000/svg">
  <defs>
    <rect width="15" height="15" id="artboard_1" />
    <clipPath id="clip_1">
      <use xlink:href="#artboard_1" clip-rule="evenodd" />
    </clipPath>
  </defs>
  <g id="icon--bluetooth" clip-path="url(#clip_1)">
    <path d="M10.9742 5.42466L8.20013 7.53284L10.8759 9.56509Q10.9216 9.59973 10.9581 9.64382Q10.9947 9.6879 11.0204 9.73912Q11.046 9.79035 11.0594 9.84605Q11.0727 9.90175 11.0731 9.95903Q11.0735 10.0163 11.0609 10.0722Q11.0483 10.1281 11.0234 10.1797Q10.9985 10.2312 10.9625 10.2758Q10.9265 10.3204 10.8814 10.3557L7.806 12.7588Q7.77851 12.7803 7.74829 12.7978Q7.71807 12.8152 7.68572 12.8283Q7.65337 12.8414 7.61951 12.8498Q7.58565 12.8582 7.55095 12.8619Q7.51624 12.8655 7.48137 12.8643Q7.4465 12.8631 7.41213 12.8571Q7.37777 12.851 7.34458 12.8402Q7.31139 12.8294 7.28003 12.8141Q7.24866 12.7988 7.21973 12.7793Q7.1908 12.7598 7.16487 12.7365Q7.13894 12.7131 7.11651 12.6864Q7.09408 12.6597 7.07558 12.6301Q7.05709 12.6005 7.0429 12.5686Q7.02871 12.5367 7.01909 12.5032Q7.00947 12.4696 7.00461 12.4351Q6.99976 12.4005 6.99976 12.3656L6.99976 8.54084L4.63355 10.3906Q4.59483 10.4208 4.55096 10.443Q4.50708 10.4651 4.45973 10.4782Q4.41237 10.4914 4.36337 10.495Q4.31436 10.4987 4.26558 10.4927Q4.21681 10.4867 4.17014 10.4713Q4.12346 10.456 4.08069 10.4318Q4.03792 10.4076 4.00069 10.3755Q3.96346 10.3434 3.9332 10.3047L3.93196 10.3031Q3.90193 10.2647 3.88009 10.221Q3.85824 10.1774 3.84545 10.1304Q3.83266 10.0833 3.82942 10.0346Q3.82618 9.98594 3.83262 9.93759Q3.83907 9.88924 3.85494 9.84312Q3.87081 9.79699 3.89548 9.75492Q3.92016 9.71284 3.95266 9.67647Q3.98516 9.64009 4.02421 9.61086L6.80013 7.53284L4.02428 5.45588Q3.98523 5.42666 3.95272 5.3903Q3.92021 5.35393 3.89553 5.31187Q3.87086 5.26979 3.85498 5.22368Q3.8391 5.17756 3.83265 5.12921Q3.82621 5.08087 3.82944 5.0322Q3.83267 4.98354 3.84546 4.93647Q3.85825 4.8894 3.88009 4.84579Q3.90193 4.80218 3.93196 4.76374L3.9332 4.76215Q3.96346 4.72342 4.00069 4.69134Q4.03792 4.65926 4.0807 4.63506Q4.12347 4.61086 4.17015 4.59547Q4.21683 4.58008 4.26561 4.57409Q4.31439 4.5681 4.3634 4.57174Q4.41241 4.57539 4.45977 4.58852Q4.50713 4.60165 4.55101 4.62378Q4.5949 4.6459 4.63363 4.67616L6.99976 6.52484L6.99976 2.54795Q6.99976 2.51305 7.00461 2.4785Q7.00947 2.44395 7.01909 2.4104Q7.02871 2.37686 7.0429 2.34499Q7.05709 2.31311 7.07558 2.28352Q7.09407 2.25393 7.1165 2.2272Q7.13893 2.20047 7.16486 2.17712Q7.19079 2.15377 7.21972 2.13426Q7.24865 2.11475 7.28001 2.09945Q7.31137 2.08415 7.34456 2.07337Q7.37774 2.06259 7.41211 2.05653Q7.44647 2.05047 7.48134 2.04925Q7.51622 2.04803 7.55092 2.05168Q7.58562 2.05533 7.61948 2.06377Q7.65333 2.07221 7.68569 2.08528Q7.71804 2.09836 7.74826 2.1158Q7.77848 2.13325 7.80597 2.15473L10.9795 4.63416Q11.0246 4.66942 11.0606 4.71399Q11.0965 4.75856 11.1215 4.81013Q11.1464 4.86169 11.159 4.91756Q11.1716 4.97343 11.1712 5.03071Q11.1709 5.08799 11.1575 5.14368Q11.1442 5.19938 11.1185 5.25061Q11.0929 5.30183 11.0563 5.34592Q11.0198 5.39001 10.9742 5.42466ZM7.99976 8.57484L7.99976 11.3388L9.76876 9.95684L7.99976 8.57484ZM7.99976 3.57484L7.99976 6.49184L9.86676 5.03284L7.99976 3.57484Z" id="Shape" fill="#000000" fill-rule="evenodd" stroke="none" artboard="cd14ae14-d6a2-4265-8469-1d96529491eb" />
  </g>
</svg>