<?xml version="1.0" encoding="utf-8"?>
<svg width="15px" height="15px" viewBox="0 0 15 15" version="1.1" xmlns:xlink="http://www.w3.org/1999/xlink" xmlns="http://www.w3.org/2000/svg">
  <defs>
    <rect width="15" height="15" id="artboard_1" />
    <clipPath id="clip_1">
      <use xlink:href="#artboard_1" clip-rule="evenodd" />
    </clipPath>
  </defs>
  <g id="icon--bluetooth-connected" clip-path="url(#clip_1)">
    <path d="M7.49963 2.05C7.6112 2.05 7.71955 2.08731 7.80747 2.156L10.9783 4.63336C11.1959 4.80337 11.2345 5.11759 11.0645 5.33519C11.038 5.36909 11.0073 5.39942 10.973 5.42545L8.20001 7.53284L10.8748 9.5643C11.0947 9.73132 11.1376 10.045 10.9706 10.2649C10.9445 10.2992 10.9142 10.33 10.8802 10.3565L7.8075 12.7576C7.58991 12.9276 7.27568 12.889 7.10565 12.6714C7.03695 12.5835 6.99963 12.4752 6.99963 12.3636L6.99963 8.54084L4.63422 10.39C4.44091 10.5412 4.17115 10.5276 3.99414 10.3699L3.93247 10.3039L3.93247 10.3039C3.78443 10.1144 3.79784 9.85016 3.95236 9.67681L4.02491 9.61025L6.80001 7.53284L4.02498 5.45649C3.8325 5.31248 3.77619 5.054 3.87985 4.84626L3.93247 4.76294L3.93247 4.76294C4.08358 4.56951 4.34864 4.51753 4.55851 4.62778L4.6343 4.67677L6.99963 6.52484L6.99963 2.55C6.99963 2.27386 7.22349 2.05 7.49963 2.05ZM7.99951 8.57484L7.99951 11.3388L9.76851 9.95684L7.99951 8.57484ZM10.7926 6.84761L11.1208 7.10871C11.3369 7.28062 11.3727 7.59517 11.2008 7.81127C11.1773 7.84089 11.1504 7.86773 11.1208 7.89129L10.7926 8.15238C10.6104 8.29733 10.3522 8.29733 10.17 8.15238L9.84182 7.89129C9.62572 7.71938 9.58989 7.40483 9.7618 7.18873C9.78536 7.15911 9.81221 7.13227 9.84182 7.10871L10.17 6.84761C10.3522 6.70267 10.6104 6.70267 10.7926 6.84761ZM4.79258 6.84761L5.12079 7.10871C5.3369 7.28062 5.37273 7.59517 5.20082 7.81127C5.17726 7.84089 5.15041 7.86773 5.12079 7.89129L4.79258 8.15238C4.61038 8.29733 4.35224 8.29733 4.17004 8.15238L3.84182 7.89129C3.62572 7.71938 3.58989 7.40483 3.7618 7.18873C3.78536 7.15911 3.81221 7.13227 3.84182 7.10871L4.17004 6.84761C4.35224 6.70267 4.61038 6.70267 4.79258 6.84761ZM7.99951 3.57484L7.99951 6.49184L9.86651 5.03284L7.99951 3.57484Z" id="Shape" fill="#000000" fill-rule="evenodd" stroke="none" artboard="eea32091-b212-4487-8add-0f7e77eb966d" />
  </g>
</svg>