<?xml version="1.0" encoding="utf-8"?>
<svg width="15px" height="15px" viewBox="0 0 15 15" version="1.1" xmlns:xlink="http://www.w3.org/1999/xlink" xmlns="http://www.w3.org/2000/svg">
  <defs>
    <rect width="15" height="15" id="artboard_1" />
    <clipPath id="clip_1">
      <use xlink:href="#artboard_1" clip-rule="evenodd" />
    </clipPath>
  </defs>
  <g id="icon--brackets-curly" clip-path="url(#clip_1)">
    <path d="M5.99899 2.499L5.99899 2.501C5.99899 2.77659 5.77558 3 5.49999 3C5.052 3 4.46441 3 4.46441 3C3.70318 3 3.07759 3.5808 3.00662 4.32344C3.00662 4.32344 2.99991 4.46448 2.99991 4.46448C2.99991 4.46448 2.99988 5.72185 2.99988 5.72185C2.99988 6.06993 2.87889 6.40554 2.6602 6.67245C2.6602 6.67245 2.56057 6.78247 2.56057 6.78247C2.56057 6.78247 1.84295 7.5 1.84295 7.5C1.84295 7.5 2.56052 8.21737 2.56052 8.21737C2.80667 8.4635 2.95844 8.78638 2.99254 9.12977C2.99254 9.12977 2.99988 9.27803 2.99988 9.27803C2.99988 9.27803 2.99991 10.5355 2.99991 10.5355C2.99992 11.2967 3.58076 11.9223 4.32343 11.9933C4.32343 11.9933 4.46448 12 4.46448 12L5.49999 12Q5.54913 12 5.59734 12.0096Q5.64554 12.0192 5.69094 12.038Q5.73635 12.0568 5.77722 12.0841Q5.81808 12.1114 5.85283 12.1462Q5.88758 12.1809 5.91489 12.2218Q5.94219 12.2626 5.961 12.308Q5.97981 12.3534 5.9894 12.4016Q5.99899 12.4499 5.99899 12.499L5.99899 12.501C5.99899 12.7766 5.77558 13 5.49999 13C5.05202 13 4.46448 13 4.46448 13C3.10335 13 1.99993 11.8966 1.99991 10.5355C1.99991 10.5355 1.99988 9.27804 1.99988 9.27804C1.99988 9.14543 1.9472 9.01825 1.85343 8.92449C1.85343 8.92449 0.782441 7.85355 0.782441 7.85355C0.587174 7.65829 0.587167 7.34171 0.782425 7.14644C0.782425 7.14644 1.85344 6.07537 1.85344 6.07537C1.94721 5.98161 1.99988 5.85444 1.99988 5.72184C1.99988 5.72184 1.99991 4.46447 1.99991 4.46447C1.99993 3.10337 3.10332 2 4.46441 2L5.49999 2C5.77558 2 5.99899 2.22341 5.99899 2.499ZM10.5355 2C11.8966 2 13 3.10336 13 4.46443C13 4.46443 12.9999 5.72182 12.9999 5.72182C12.9999 5.85443 13.0526 5.98161 13.1464 6.07538C13.1464 6.07538 14.2175 7.14645 14.2175 7.14645C14.3911 7.31999 14.4104 7.58941 14.2754 7.78428C14.2754 7.78428 14.2175 7.85353 14.2175 7.85353C14.2175 7.85353 13.1464 8.92448 13.1464 8.92448C13.0526 9.01825 12.9999 9.14544 12.9999 9.27806C12.9999 9.27806 13 10.5355 13 10.5355C13 11.8421 11.9831 12.9113 10.6975 12.9948C10.6975 12.9948 10.5355 13 10.5355 13L9.49802 13Q9.44888 13 9.40067 12.9904Q9.35247 12.9808 9.30706 12.962Q9.26166 12.9432 9.22079 12.9159Q9.17993 12.8886 9.14518 12.8538Q9.11042 12.8191 9.08312 12.7782Q9.05581 12.7374 9.03701 12.692Q9.0182 12.6466 9.00861 12.5983Q8.99902 12.5501 8.99902 12.501L8.99902 12.499C8.99902 12.2234 9.22243 12 9.49802 12C9.94662 12 10.5354 12 10.5354 12C11.2967 12 11.9223 11.4192 11.9932 10.6765C11.9932 10.6765 12 10.5355 12 10.5355C12 10.5355 11.9999 9.27808 11.9999 9.27808C11.9999 8.92994 12.1209 8.59429 12.3397 8.32735C12.3397 8.32735 12.4393 8.21733 12.4393 8.21733C12.4393 8.21733 13.158 7.501 13.158 7.501C13.158 7.501 12.4393 6.78251 12.4393 6.78251C12.1931 6.53636 12.0414 6.21347 12.0073 5.87006C12.0073 5.87006 11.9999 5.7218 11.9999 5.7218C11.9999 5.7218 12 4.46443 12 4.46443C12 3.70322 11.4192 3.07766 10.6766 3.0067C10.6766 3.0067 10.5355 3 10.5355 3L9.49802 3Q9.44888 3 9.40067 2.99041Q9.35247 2.98082 9.30706 2.96202Q9.26166 2.94321 9.22079 2.9159Q9.17993 2.8886 9.14518 2.85385Q9.11042 2.81909 9.08312 2.77823Q9.05581 2.73736 9.03701 2.69196Q9.0182 2.64655 9.00861 2.59835Q8.99902 2.55015 8.99902 2.501L8.99902 2.499C8.99902 2.22341 9.22243 2 9.49802 2C9.94665 2 10.5355 2 10.5355 2Z" id="Shape" fill="#000000" fill-rule="evenodd" stroke="none" artboard="d2ebc0c6-90c9-4f3b-8a9a-3bbbf67f6ec8" />
  </g>
</svg>