<?xml version="1.0" encoding="utf-8"?>
<svg width="15px" height="15px" viewBox="0 0 15 15" version="1.1" xmlns:xlink="http://www.w3.org/1999/xlink" xmlns="http://www.w3.org/2000/svg">
  <defs>
    <rect width="15" height="15" id="artboard_1" />
    <clipPath id="clip_1">
      <use xlink:href="#artboard_1" clip-rule="evenodd" />
    </clipPath>
  </defs>
  <g id="icon--coding" clip-path="url(#clip_1)">
    <path d="M8.62536 2.62839L8.62341 2.62794C8.55893 2.61305 8.49406 2.61107 8.4288 2.62199C8.36353 2.63291 8.30285 2.65591 8.24673 2.69097C8.19061 2.72604 8.14334 2.77051 8.10492 2.82438C8.06649 2.87825 8.03983 2.93742 8.02495 3.0019L5.99994 11.7732C5.98505 11.8377 5.98307 11.9025 5.99399 11.9678C6.00491 12.033 6.02791 12.0937 6.06297 12.1499C6.09804 12.206 6.14251 12.2532 6.19638 12.2917C6.25025 12.3301 6.30942 12.3568 6.3739 12.3716L6.37585 12.3721C6.51011 12.4031 6.63567 12.3821 6.75253 12.3091C6.86939 12.236 6.94331 12.1324 6.97431 11.9981L8.99932 3.22685C9.03031 3.09259 9.0093 2.96703 8.93628 2.85017C8.86326 2.73331 8.75962 2.65938 8.62536 2.62839L8.62536 2.62839ZM4.83534 4.65356C5.0306 4.45829 5.0306 4.14171 4.83534 3.94645C4.64008 3.75119 4.32349 3.75119 4.12823 3.94645L0.946252 7.12843C0.750989 7.32369 0.750989 7.64028 0.946252 7.83554L4.12823 11.0175C4.32349 11.2128 4.64008 11.2128 4.83534 11.0175C5.0306 10.8223 5.0306 10.5057 4.83534 10.3104L2.00691 7.48198L4.83534 4.65356L4.83534 4.65356ZM10.1462 4.65356L12.9746 7.48198L10.1462 10.3104C9.95094 10.5057 9.95094 10.8223 10.1462 11.0175C10.3415 11.2128 10.658 11.2128 10.8533 11.0175L14.0353 7.83554C14.2306 7.64028 14.2306 7.32369 14.0353 7.12843L10.8533 3.94645C10.658 3.75119 10.3415 3.75119 10.1462 3.94645C9.95094 4.14171 9.95094 4.45829 10.1462 4.65356L10.1462 4.65356Z" id="Vector" fill="#000000" fill-rule="evenodd" stroke="none" artboard="3dbd326d-589d-427e-a03e-1f39c7d3fff0" />
  </g>
</svg>