<?xml version="1.0" encoding="utf-8"?>
<svg width="15px" height="15px" viewBox="0 0 15 15" version="1.1" xmlns:xlink="http://www.w3.org/1999/xlink" xmlns="http://www.w3.org/2000/svg">
  <defs>
    <rect width="15" height="15" id="artboard_1" />
    <clipPath id="clip_1">
      <use xlink:href="#artboard_1" clip-rule="evenodd" />
    </clipPath>
  </defs>
  <g id="icon--compact-disc" clip-path="url(#clip_1)">
    <path d="M7.5 0.5C11.366 0.5 14.5 3.63401 14.5 7.5C14.5 11.366 11.366 14.5 7.5 14.5C3.63401 14.5 0.5 11.366 0.5 7.5C0.5 3.63401 3.63401 0.5 7.5 0.5ZM7.50008 1.66667C4.27842 1.66667 1.66675 4.27834 1.66675 7.5C1.66675 10.7217 4.27842 13.3333 7.50008 13.3333C10.7217 13.3333 13.3334 10.7217 13.3334 7.5C13.3334 4.27834 10.7217 1.66667 7.50008 1.66667ZM4.68035 8.52628C4.8255 8.92582 5.05829 9.30069 5.37871 9.62111C5.69968 9.94208 6.07529 10.1751 6.4756 10.3202L5.79162 12.2001C5.12482 11.9583 4.49918 11.57 3.9645 11.0353C3.43026 10.5011 3.0422 9.87604 2.80029 9.20987L4.68035 8.52628ZM7.5 5.5C8.60457 5.5 9.5 6.39543 9.5 7.5C9.5 8.60457 8.60457 9.5 7.5 9.5C6.39543 9.5 5.5 8.60457 5.5 7.5C5.5 6.39543 6.39543 5.5 7.5 5.5ZM7.4999 6.9C7.16853 6.9 6.8999 7.16863 6.8999 7.5C6.8999 7.83137 7.16853 8.1 7.4999 8.1C7.83127 8.1 8.0999 7.83137 8.0999 7.5C8.0999 7.16863 7.83127 6.9 7.4999 6.9ZM9.2102 2.80005C9.87637 3.04195 10.5014 3.43002 11.0357 3.96425C11.5703 4.49893 11.9586 5.12458 12.2005 5.79138L10.3205 6.47535C10.1754 6.07505 9.94241 5.69944 9.62144 5.37847C9.30102 5.05805 8.92615 4.82526 8.52661 4.68011L9.2102 2.80005Z" id="Shape" fill="#000000" fill-rule="evenodd" stroke="none" artboard="4f0a4139-2556-4829-a091-adccdeac0d06" />
  </g>
</svg>