<?xml version="1.0" encoding="utf-8"?>
<svg width="15px" height="15px" viewBox="0 0 15 15" version="1.1" xmlns:xlink="http://www.w3.org/1999/xlink" xmlns="http://www.w3.org/2000/svg">
  <defs>
    <rect width="15" height="15" id="artboard_1" />
    <clipPath id="clip_1">
      <use xlink:href="#artboard_1" clip-rule="evenodd" />
    </clipPath>
  </defs>
  <g id="icon--copier" clip-path="url(#clip_1)">
    <path d="M11.87 0.326812L6.93657 1.64871Q6.90998 1.57767 6.87296 1.51147Q6.83594 1.44526 6.78935 1.3854Q6.74276 1.32554 6.68766 1.2734Q6.63257 1.22126 6.57024 1.17804Q6.5079 1.13482 6.43976 1.10151Q6.37161 1.06819 6.29922 1.04555Q6.22682 1.02291 6.15184 1.01145Q6.07685 1 6.001 1L3 1L3 10.2049L1.25863 9.1995Q1.2246 9.17985 1.18738 9.16722Q1.15017 9.15459 1.11121 9.14946Q1.07225 9.14433 1.03303 9.1469Q0.99382 9.14947 0.955861 9.15964Q0.917902 9.16981 0.882657 9.18719Q0.847412 9.20457 0.816234 9.22849Q0.785057 9.25242 0.759146 9.28196Q0.733235 9.31151 0.713586 9.34554L0.712586 9.34728Q0.692937 9.38131 0.680305 9.41852Q0.667673 9.45573 0.662544 9.49469Q0.657414 9.53366 0.659985 9.57287Q0.662555 9.61208 0.672726 9.65004Q0.682897 9.688 0.700278 9.72325Q0.717659 9.75849 0.741582 9.78967Q0.765505 9.82085 0.795051 9.84676Q0.824597 9.87267 0.85863 9.89232L3 11.1286L3 12.5659L1.25863 11.5605Q1.2246 11.5408 1.18738 11.5282Q1.15017 11.5156 1.11121 11.5104Q1.07225 11.5053 1.03303 11.5079Q0.99382 11.5104 0.955861 11.5206Q0.917902 11.5308 0.882657 11.5482Q0.847412 11.5655 0.816234 11.5895Q0.785057 11.6134 0.759146 11.6429Q0.733235 11.6725 0.713586 11.7065L0.712586 11.7083Q0.692937 11.7423 0.680305 11.7795Q0.667673 11.8167 0.662544 11.8557Q0.657414 11.8946 0.659985 11.9338Q0.662555 11.9731 0.672726 12.011Q0.682897 12.049 0.700278 12.0842Q0.717659 12.1195 0.741582 12.1506Q0.765505 12.1818 0.795051 12.2077Q0.824597 12.2336 0.85863 12.2533L3 13.4896L3 14L13 14L13 2L8.71651 2L12.077 1.09955Q12.115 1.08938 12.1502 1.072Q12.1855 1.05462 12.2166 1.0307Q12.2478 1.00677 12.2737 0.977227Q12.2996 0.947681 12.3193 0.913648Q12.3389 0.879615 12.3516 0.842402Q12.3642 0.80519 12.3693 0.766228Q12.3745 0.727266 12.3719 0.688052Q12.3693 0.648838 12.3592 0.610879L12.3586 0.608947Q12.3381 0.532286 12.2898 0.46932Q12.2415 0.406355 12.1727 0.366672Q12.104 0.326989 12.0253 0.31663Q11.9466 0.30627 11.87 0.326812ZM12 4L12 3L6.999 3Q6.90061 3 6.8041 2.9808Q6.7076 2.96161 6.6167 2.92396Q6.52579 2.8863 6.44398 2.83164Q6.36217 2.77697 6.2926 2.7074Q6.22303 2.63783 6.16836 2.55601Q6.1137 2.4742 6.07604 2.3833Q6.03839 2.2924 6.01919 2.19589Q6 2.09939 6 2.001L6 2L4 2L4 4L12 4ZM4 4.6L5 4.6L5 6L8 6L8 4.6L12 4.6L12 7L4 7L4 4.6ZM10 5L9 5L9 6L10 6L10 5ZM4 13L4 7.6L12 7.6L12 13L10.9999 13L10.9999 11.6L11 11.6L11 11L10.9999 11L10.9999 9.6L11 9.6L11 9L5 9L5 13L4 13ZM5.6 9.6L7 9.6L7 10L9 10L9 9.6L10.3999 9.6L10.3999 11L5.6 11L5.6 9.6ZM7 11.6L5.6 11.6L5.6 13L10.3999 13L10.3999 11.6L9 11.6L9 12L7 12L7 11.6Z" id="Combined-Shape" fill="#000000" fill-rule="evenodd" stroke="none" artboard="1825ef97-3744-4e59-9011-12c156f0b14e" />
  </g>
</svg>