<?xml version="1.0" encoding="utf-8"?>
<svg width="15px" height="15px" viewBox="0 0 15 15" version="1.1" xmlns:xlink="http://www.w3.org/1999/xlink" xmlns="http://www.w3.org/2000/svg">
  <defs>
    <rect width="15" height="15" id="artboard_1" />
    <clipPath id="clip_1">
      <use xlink:href="#artboard_1" clip-rule="evenodd" />
    </clipPath>
  </defs>
  <g id="icon--database" clip-path="url(#clip_1)">
    <use xlink:href="#artboard_1" stroke="none" fill="#FFFFFF" />
    <path d="M12.191 1.84903C10.8922 1.14968 9.32854 0.799999 7.5 0.8C5.67146 0.8 4.10779 1.14968 2.80899 1.84903C1.46966 2.57021 0.800001 3.45386 0.8 4.5L0.8 10.5C0.8 11.5461 1.46966 12.4298 2.80899 13.151C4.10779 13.8503 5.67146 14.2 7.5 14.2C9.32854 14.2 10.8922 13.8503 12.191 13.151C13.5303 12.4298 14.2 11.5461 14.2 10.5L14.2 4.5C14.2 3.45386 13.5303 2.57021 12.191 1.84903L12.191 1.84903ZM11.7169 2.7295C12.7056 3.26189 13.2 3.85206 13.2 4.5C13.2 5.14794 12.7056 5.73811 11.7169 6.2705C10.5661 6.89017 9.16047 7.2 7.5 7.2C5.83954 7.2 4.4339 6.89017 3.28309 6.2705C2.29436 5.73811 1.8 5.14794 1.8 4.5C1.8 3.85206 2.29436 3.26189 3.28309 2.7295C4.4339 2.10983 5.83954 1.8 7.5 1.8C9.16046 1.8 10.5661 2.10983 11.7169 2.7295L11.7169 2.7295ZM1.8 6.5L1.8 6.18357C2.90527 7.26625 5.0435 8 7.5 8C9.9565 8 12.0947 7.26625 13.2 6.18357L13.2 6.5C13.2 7.14794 12.7056 7.7381 11.7169 8.2705C10.5661 8.89017 9.16046 9.2 7.5 9.2C5.83954 9.2 4.4339 8.89017 3.28309 8.2705C2.29436 7.73811 1.8 7.14794 1.8 6.5L1.8 6.5ZM1.8 8.18357L1.8 8.5C1.8 9.14794 2.29436 9.7381 3.28309 10.2705C4.4339 10.8902 5.83954 11.2 7.5 11.2C9.16046 11.2 10.5661 10.8902 11.7169 10.2705C12.7056 9.7381 13.2 9.14794 13.2 8.5L13.2 8.18357C12.0947 9.26624 9.9565 10 7.5 10C5.0435 10 2.90527 9.26624 1.8 8.18357L1.8 8.18357ZM1.8 10.5L1.8 10.1836C2.90527 11.2662 5.0435 12 7.5 12C9.9565 12 12.0947 11.2662 13.2 10.1836L13.2 10.5C13.2 11.1479 12.7056 11.7381 11.7169 12.2705C10.5661 12.8902 9.16046 13.2 7.5 13.2C5.83954 13.2 4.4339 12.8902 3.28309 12.2705C2.29436 11.7381 1.8 11.1479 1.8 10.5L1.8 10.5Z" id="Vector" fill="#000000" fill-rule="evenodd" stroke="none" artboard="7883731f-e145-42de-b476-07e32061ffc7" />
  </g>
</svg>