<?xml version="1.0" encoding="utf-8"?>
<svg width="15px" height="15px" viewBox="0 0 15 15" version="1.1" xmlns:xlink="http://www.w3.org/1999/xlink" xmlns="http://www.w3.org/2000/svg">
  <defs>
    <rect width="15" height="15" id="artboard_1" />
    <clipPath id="clip_1">
      <use xlink:href="#artboard_1" clip-rule="evenodd" />
    </clipPath>
  </defs>
  <g id="icon--display" clip-path="url(#clip_1)">
    <path d="M4 12.501L4 12.499Q4 12.4499 4.00959 12.4016Q4.01918 12.3534 4.03798 12.308Q4.05679 12.2626 4.0841 12.2218Q4.1114 12.1809 4.14615 12.1462Q4.18091 12.1114 4.22177 12.0841Q4.26263 12.0568 4.30804 12.038Q4.35345 12.0192 4.40165 12.0096Q4.44985 12 4.499 12L6 12L6 10L2.499 10Q2.44985 10 2.40165 9.99041Q2.35345 9.98082 2.30804 9.96202Q2.26263 9.94321 2.22177 9.9159Q2.18091 9.8886 2.14615 9.85385Q2.1114 9.81909 2.0841 9.77823Q2.05679 9.73736 2.03798 9.69196Q2.01918 9.64655 2.00959 9.59835Q2 9.55015 2 9.501L2 2.499Q2 2.44985 2.00959 2.40165Q2.01918 2.35345 2.03798 2.30804Q2.05679 2.26263 2.0841 2.22177Q2.1114 2.18091 2.14615 2.14615Q2.18091 2.1114 2.22177 2.0841Q2.26263 2.05679 2.30804 2.03798Q2.35345 2.01918 2.40165 2.00959Q2.44985 2 2.499 2L12.501 2Q12.5501 2 12.5983 2.00959Q12.6466 2.01918 12.692 2.03798Q12.7374 2.05679 12.7782 2.0841Q12.8191 2.1114 12.8538 2.14615Q12.8886 2.18091 12.9159 2.22177Q12.9432 2.26263 12.962 2.30804Q12.9808 2.35345 12.9904 2.40165Q13 2.44985 13 2.499L13 9.501Q13 9.55015 12.9904 9.59835Q12.9808 9.64655 12.962 9.69196Q12.9432 9.73736 12.9159 9.77823Q12.8886 9.81909 12.8538 9.85385Q12.8191 9.8886 12.7782 9.9159Q12.7374 9.94321 12.692 9.96202Q12.6466 9.98082 12.5983 9.99041Q12.5501 10 12.501 10L9 10L9 12L10.501 12Q10.5501 12 10.5983 12.0096Q10.6466 12.0192 10.692 12.038Q10.7374 12.0568 10.7782 12.0841Q10.8191 12.1114 10.8538 12.1462Q10.8886 12.1809 10.9159 12.2218Q10.9432 12.2626 10.962 12.308Q10.9808 12.3534 10.9904 12.4016Q11 12.4499 11 12.499L11 12.501Q11 12.5501 10.9904 12.5983Q10.9808 12.6466 10.962 12.692Q10.9432 12.7374 10.9159 12.7782Q10.8886 12.8191 10.8538 12.8538Q10.8191 12.8886 10.7782 12.9159Q10.7374 12.9432 10.692 12.962Q10.6466 12.9808 10.5983 12.9904Q10.5501 13 10.501 13L4.499 13Q4.44985 13 4.40165 12.9904Q4.35345 12.9808 4.30804 12.962Q4.26263 12.9432 4.22177 12.9159Q4.18091 12.8886 4.14615 12.8538Q4.1114 12.8191 4.0841 12.7782Q4.05679 12.7374 4.03798 12.692Q4.01918 12.6466 4.00959 12.5983Q4 12.5501 4 12.501ZM8 10L7 10L7 12L8 12L8 10ZM12 3L3 3L3 9L12 9L12 3Z" id="Shape" fill="#000000" fill-rule="evenodd" stroke="none" artboard="9454cb84-184c-4617-a2ab-c632d521b7eb" />
  </g>
</svg>