<?xml version="1.0" encoding="utf-8"?>
<svg width="15px" height="15px" viewBox="0 0 15 15" version="1.1" xmlns:xlink="http://www.w3.org/1999/xlink" xmlns="http://www.w3.org/2000/svg">
  <defs>
    <rect width="15" height="15" id="artboard_1" />
    <clipPath id="clip_1">
      <use xlink:href="#artboard_1" clip-rule="evenodd" />
    </clipPath>
  </defs>
  <g id="icon--ethernet" clip-path="url(#clip_1)">
    <path d="M13.5 2C13.7761 2 14 2.22386 14 2.5L14 8.5C14 8.77614 13.7761 9 13.5 9L12 9L12 10.5C12 10.7761 11.7761 11 11.5 11L10 11L10 12.5C10 12.7761 9.77614 13 9.5 13L5.5 13C5.22386 13 5 12.7761 5 12.5L5 11L3.5 11C3.22386 11 3 10.7761 3 10.5L3 9L1.5 9C1.22386 9 1 8.77614 1 8.5L1 2.5C1 2.22386 1.22386 2 1.5 2L13.5 2ZM13 3L2 3L2 8L4 8L4 10L6 10L6 12L9 12L9 10L11 10L11 8L13 8L13 3ZM3.5 4C3.77614 4 4 4.22386 4 4.5L4 5.5C4 5.77614 3.77614 6 3.5 6C3.22386 6 3 5.77614 3 5.5L3 4.5C3 4.22386 3.22386 4 3.5 4ZM5.5 4C5.77614 4 6 4.22386 6 4.5L6 5.5C6 5.77614 5.77614 6 5.5 6C5.22386 6 5 5.77614 5 5.5L5 4.5C5 4.22386 5.22386 4 5.5 4ZM7.5 4C7.77614 4 8 4.22386 8 4.5L8 5.5C8 5.77614 7.77614 6 7.5 6C7.22386 6 7 5.77614 7 5.5L7 4.5C7 4.22386 7.22386 4 7.5 4ZM9.5 4C9.77614 4 10 4.22386 10 4.5L10 5.5C10 5.77614 9.77614 6 9.5 6C9.22386 6 9 5.77614 9 5.5L9 4.5C9 4.22386 9.22386 4 9.5 4ZM11.5 4C11.7761 4 12 4.22386 12 4.5L12 5.5C12 5.77614 11.7761 6 11.5 6C11.2239 6 11 5.77614 11 5.5L11 4.5C11 4.22386 11.2239 4 11.5 4Z" id="Shape" fill="#000000" fill-rule="evenodd" stroke="none" artboard="9d938035-1bb7-4e69-8c7e-ea06a6562bad" />
  </g>
</svg>