<?xml version="1.0" encoding="utf-8"?>
<svg width="15px" height="15px" viewBox="0 0 15 15" version="1.1" xmlns:xlink="http://www.w3.org/1999/xlink" xmlns="http://www.w3.org/2000/svg">
  <defs>
    <rect width="15" height="15" id="artboard_1" />
    <clipPath id="clip_1">
      <use xlink:href="#artboard_1" clip-rule="evenodd" />
    </clipPath>
  </defs>
  <g id="icon--headphone-sign" clip-path="url(#clip_1)">
    <path d="M11 6.5C11 4.567 9.433 3 7.5 3C5.63144 3 4.10487 4.46428 4.00518 6.30796C4.00518 6.30796 4 6.5 4 6.5L4 10.501C4 10.7766 3.77659 11 3.501 11C3.06458 11 2.5 11 2.5 11C2.22386 11 2 10.7761 2 10.5C2 10.5 2 7.5 2 7.5C2 7.22386 2.22386 7 2.5 7C2.5 7 3 7 3 7C3 7 3 6.5 3 6.5C3 4.01472 5.01472 2 7.5 2C9.98528 2 12 4.01472 12 6.5C12 6.5 12 7 12 7C12 7 12.5 7 12.5 7C12.7761 7 13 7.22386 13 7.5C13 7.5 13 10.5 13 10.5C13 10.7761 12.7761 11 12.5 11L11.499 11C11.2234 11 11 10.7766 11 10.501C11 9.32923 11 6.5 11 6.5Z" id="Path" fill="#000000" fill-rule="evenodd" stroke="none" artboard="b271ba73-6c52-41ac-9a01-25cb5c5ea0d1" />
  </g>
</svg>