<?xml version="1.0" encoding="utf-8"?>
<svg width="15px" height="15px" viewBox="0 0 15 15" version="1.1" xmlns:xlink="http://www.w3.org/1999/xlink" xmlns="http://www.w3.org/2000/svg">
  <defs>
    <rect width="15" height="15" id="artboard_1" />
    <clipPath id="clip_1">
      <use xlink:href="#artboard_1" clip-rule="evenodd" />
    </clipPath>
  </defs>
  <g id="icon--micro-chip" clip-path="url(#clip_1)">
    <path d="M5.99975 2.499L5.999 4L6.999 4L6.99975 2.499Q6.99978 2.44984 7.00939 2.40164Q7.019 2.35343 7.03783 2.30802Q7.05665 2.26261 7.08398 2.22175Q7.1113 2.18089 7.14607 2.14614Q7.18083 2.11139 7.22171 2.08409Q7.26259 2.05678 7.308 2.03798Q7.35342 2.01917 7.40163 2.00959Q7.44984 2 7.499 2L7.501 2Q7.55014 2 7.59833 2.00959Q7.64653 2.01918 7.69192 2.03799Q7.73732 2.0568 7.77817 2.08411Q7.81902 2.11141 7.85376 2.14617Q7.8885 2.18092 7.91578 2.22179Q7.94307 2.26265 7.96186 2.30806Q7.98064 2.35346 7.99021 2.40166Q7.99978 2.44986 7.99975 2.499L7.999 4L8.999 4L8.99975 2.499Q8.99977 2.44984 9.00939 2.40164Q9.019 2.35343 9.03782 2.30802Q9.05665 2.26261 9.08398 2.22175Q9.1113 2.18089 9.14607 2.14614Q9.18083 2.11139 9.22171 2.08409Q9.26259 2.05678 9.308 2.03798Q9.35342 2.01917 9.40163 2.00959Q9.44984 2 9.499 2L9.501 2Q9.55014 2 9.59833 2.00959Q9.64653 2.01918 9.69192 2.03799Q9.73732 2.0568 9.77817 2.08411Q9.81902 2.11141 9.85376 2.14617Q9.8885 2.18092 9.91578 2.22179Q9.94307 2.26265 9.96186 2.30806Q9.98065 2.35346 9.99021 2.40166Q9.99977 2.44986 9.99975 2.499L9.999 4L11 4L10.999 4.999L12.501 4.99975Q12.5502 4.99977 12.5984 5.00939Q12.6466 5.019 12.692 5.03783Q12.7374 5.05665 12.7782 5.08398Q12.8191 5.1113 12.8539 5.14607Q12.8886 5.18083 12.9159 5.22171Q12.9432 5.26259 12.962 5.308Q12.9808 5.35342 12.9904 5.40163Q13 5.44984 13 5.499L13 5.501Q13 5.55014 12.9904 5.59833Q12.9808 5.64653 12.962 5.69192Q12.9432 5.73732 12.9159 5.77817Q12.8886 5.81902 12.8538 5.85376Q12.8191 5.8885 12.7782 5.91578Q12.7373 5.94307 12.6919 5.96186Q12.6465 5.98064 12.5983 5.99021Q12.5501 5.99977 12.501 5.99975L10.999 5.999L10.999 6.999L12.501 6.99975Q12.5502 6.99978 12.5984 7.00939Q12.6466 7.019 12.692 7.03783Q12.7374 7.05665 12.7782 7.08398Q12.8191 7.1113 12.8539 7.14607Q12.8886 7.18083 12.9159 7.22171Q12.9432 7.26259 12.962 7.308Q12.9808 7.35342 12.9904 7.40163Q13 7.44984 13 7.499L13 7.501Q13 7.55014 12.9904 7.59833Q12.9808 7.64653 12.962 7.69192Q12.9432 7.73732 12.9159 7.77817Q12.8886 7.81902 12.8538 7.85376Q12.8191 7.8885 12.7782 7.91578Q12.7373 7.94307 12.6919 7.96186Q12.6465 7.98064 12.5983 7.99021Q12.5501 7.99978 12.501 7.99975L10.999 7.999L10.999 8.999L12.501 8.99975Q12.5502 8.99977 12.5984 9.00939Q12.6466 9.019 12.692 9.03782Q12.7374 9.05665 12.7782 9.08397Q12.8191 9.1113 12.8539 9.14606Q12.8886 9.18083 12.9159 9.22171Q12.9432 9.26258 12.962 9.308Q12.9808 9.35342 12.9904 9.40163Q13 9.44984 13 9.499L13 9.501Q13 9.55014 12.9904 9.59833Q12.9808 9.64653 12.962 9.69192Q12.9432 9.73732 12.9159 9.77817Q12.8886 9.81902 12.8538 9.85376Q12.8191 9.8885 12.7782 9.91578Q12.7373 9.94307 12.6919 9.96186Q12.6465 9.98065 12.5983 9.99021Q12.5501 9.99977 12.501 9.99975L10.999 9.999L11 11L9.999 11L9.99975 12.501Q9.99977 12.5501 9.99021 12.5983Q9.98065 12.6465 9.96186 12.6919Q9.94307 12.7373 9.91578 12.7782Q9.88849 12.8191 9.85376 12.8538Q9.81902 12.8886 9.77817 12.9159Q9.73732 12.9432 9.69192 12.962Q9.64653 12.9808 9.59833 12.9904Q9.55014 13 9.501 13L9.499 13Q9.44984 13 9.40163 12.9904Q9.35342 12.9808 9.308 12.962Q9.26258 12.9432 9.22171 12.9159Q9.18083 12.8886 9.14606 12.8539Q9.1113 12.8191 9.08397 12.7782Q9.05665 12.7374 9.03782 12.692Q9.019 12.6466 9.00939 12.5984Q8.99977 12.5502 8.99975 12.501L8.999 11L7.999 11L7.99975 12.501Q7.99978 12.5501 7.99021 12.5983Q7.98065 12.6465 7.96186 12.6919Q7.94307 12.7373 7.91578 12.7782Q7.8885 12.8191 7.85376 12.8538Q7.81902 12.8886 7.77817 12.9159Q7.73732 12.9432 7.69192 12.962Q7.64653 12.9808 7.59833 12.9904Q7.55014 13 7.501 13L7.499 13Q7.44984 13 7.40163 12.9904Q7.35342 12.9808 7.308 12.962Q7.26259 12.9432 7.22171 12.9159Q7.18083 12.8886 7.14607 12.8539Q7.1113 12.8191 7.08398 12.7782Q7.05665 12.7374 7.03783 12.692Q7.019 12.6466 7.00939 12.5984Q6.99978 12.5502 6.99975 12.501L6.999 11L5.999 11L5.99975 12.501Q5.99977 12.5501 5.99021 12.5983Q5.98064 12.6465 5.96186 12.6919Q5.94307 12.7373 5.91578 12.7782Q5.8885 12.8191 5.85376 12.8538Q5.81902 12.8886 5.77817 12.9159Q5.73732 12.9432 5.69192 12.962Q5.64653 12.9808 5.59833 12.9904Q5.55014 13 5.501 13L5.499 13Q5.44984 13 5.40163 12.9904Q5.35342 12.9808 5.308 12.962Q5.26259 12.9432 5.22171 12.9159Q5.18083 12.8886 5.14607 12.8539Q5.1113 12.8191 5.08398 12.7782Q5.05665 12.7374 5.03783 12.692Q5.019 12.6466 5.00939 12.5984Q4.99977 12.5502 4.99975 12.501L4.999 11L4 11L3.999 9.999L2.499 9.99975Q2.44986 9.99977 2.40166 9.99021Q2.35346 9.98065 2.30806 9.96186Q2.26265 9.94307 2.22179 9.91578Q2.18092 9.8885 2.14617 9.85376Q2.11141 9.81902 2.08411 9.77817Q2.0568 9.73732 2.03799 9.69192Q2.01918 9.64653 2.00959 9.59833Q2 9.55014 2 9.501L2 9.499Q2 9.44984 2.00959 9.40163Q2.01917 9.35342 2.03798 9.308Q2.05678 9.26259 2.08409 9.22171Q2.11139 9.18083 2.14614 9.14607Q2.18089 9.1113 2.22175 9.08397Q2.26261 9.05665 2.30802 9.03782Q2.35343 9.019 2.40164 9.00939Q2.44984 8.99977 2.499 8.99975L3.999 8.999L3.999 7.999L2.499 7.99975Q2.44986 7.99977 2.40166 7.99021Q2.35346 7.98064 2.30806 7.96186Q2.26265 7.94307 2.22179 7.91578Q2.18092 7.8885 2.14617 7.85376Q2.11141 7.81902 2.08411 7.77817Q2.0568 7.73732 2.03799 7.69192Q2.01918 7.64653 2.00959 7.59833Q2 7.55014 2 7.501L2 7.499Q2 7.44984 2.00959 7.40163Q2.01917 7.35342 2.03798 7.308Q2.05678 7.26259 2.08409 7.22171Q2.11139 7.18083 2.14614 7.14607Q2.18089 7.1113 2.22175 7.08398Q2.26261 7.05665 2.30802 7.03783Q2.35343 7.019 2.40164 7.00939Q2.44984 6.99978 2.499 6.99975L3.999 6.999L3.999 5.999L2.499 5.99975Q2.44986 5.99977 2.40166 5.99021Q2.35346 5.98064 2.30806 5.96186Q2.26265 5.94307 2.22179 5.91578Q2.18092 5.8885 2.14617 5.85376Q2.11141 5.81902 2.08411 5.77817Q2.0568 5.73732 2.03799 5.69192Q2.01918 5.64653 2.00959 5.59833Q2 5.55014 2 5.501L2 5.499Q2 5.44984 2.00959 5.40163Q2.01917 5.35342 2.03798 5.308Q2.05678 5.26259 2.08409 5.22171Q2.11139 5.18083 2.14614 5.14607Q2.18089 5.1113 2.22175 5.08398Q2.26262 5.05665 2.30802 5.03783Q2.35343 5.019 2.40164 5.00939Q2.44984 4.99977 2.499 4.99975L3.999 4.999L4 4L4.999 4L4.99975 2.499Q4.99977 2.44984 5.00939 2.40164Q5.019 2.35343 5.03783 2.30802Q5.05665 2.26261 5.08398 2.22175Q5.1113 2.18089 5.14607 2.14614Q5.18083 2.11139 5.22171 2.08409Q5.26259 2.05678 5.308 2.03798Q5.35342 2.01917 5.40163 2.00959Q5.44984 2 5.499 2L5.501 2Q5.55014 2 5.59833 2.00959Q5.64653 2.01918 5.69192 2.03799Q5.73732 2.0568 5.77817 2.08411Q5.81902 2.11141 5.85376 2.14617Q5.8885 2.18092 5.91578 2.22179Q5.94307 2.26265 5.96186 2.30806Q5.98064 2.35346 5.99021 2.40166Q5.99977 2.44986 5.99975 2.499ZM10 5L5 5L5 10L10 10L10 5Z" id="Shape" fill="#000000" fill-rule="evenodd" stroke="none" artboard="877eee2e-5207-4975-900f-7e972d7ac0e9" />
  </g>
</svg>