<?xml version="1.0" encoding="utf-8"?>
<svg width="15px" height="15px" viewBox="0 0 15 15" version="1.1" xmlns:xlink="http://www.w3.org/1999/xlink" xmlns="http://www.w3.org/2000/svg">
  <defs>
    <rect width="15" height="15" id="artboard_1" />
    <clipPath id="clip_1">
      <use xlink:href="#artboard_1" clip-rule="evenodd" />
    </clipPath>
  </defs>
  <g id="icon--microfone-one" clip-path="url(#clip_1)">
    <path d="M8 11L8 13L9.5 13C9.77614 13 10 13.2239 10 13.5C10 13.7761 9.77614 14 9.5 14L5.5 14C5.22386 14 5 13.7761 5 13.5C5 13.2239 5.22386 13 5.5 13L7 13L7 11L8 11ZM11.5 5C11.7761 5 12 5.22386 12 5.5L12 6.5C12 8.98528 9.98528 11 7.5 11C5.01472 11 3 8.98528 3 6.5L3 5.5C3 5.22386 3.22386 5 3.5 5C3.77614 5 4 5.22386 4 5.5L4 6.5C4 8.433 5.567 10 7.5 10C9.36856 10 10.8951 8.53572 10.9948 6.69204L11 6.5L11 5.5C11 5.22386 11.2239 5 11.5 5ZM7.5 1C8.88071 1 10 2.11929 10 3.5L10 6.5C10 7.88071 8.88071 9 7.5 9C6.11929 9 5 7.88071 5 6.5L5 3.5C5 2.11929 6.11929 1 7.5 1ZM7.5 2C6.7203 2 6.07955 2.59489 6.00687 3.35554L6 3.5L6 6.5C6 7.32843 6.67157 8 7.5 8C8.2797 8 8.92045 7.40511 8.99313 6.64446L9 6.5L9 3.5C9 2.67157 8.32843 2 7.5 2Z" id="Shape" fill="#000000" fill-rule="evenodd" stroke="none" artboard="e8bd09ca-8e04-493a-a01b-90b85f3fb0bc" />
  </g>
</svg>