<?xml version="1.0" encoding="utf-8"?>
<svg width="15px" height="15px" viewBox="0 0 15 15" version="1.1" xmlns:xlink="http://www.w3.org/1999/xlink" xmlns="http://www.w3.org/2000/svg">
  <defs>
    <rect width="15" height="15" id="artboard_1" />
    <clipPath id="clip_1">
      <use xlink:href="#artboard_1" clip-rule="evenodd" />
    </clipPath>
  </defs>
  <g id="icon--mobilephone" clip-path="url(#clip_1)">
    <path d="M10.5 1C10.7761 1 11 1.22386 11 1.5L11 13.5C11 13.7761 10.7761 14 10.5 14L4.5 14C4.22386 14 4 13.7761 4 13.5L4 1.5C4 1.22386 4.22386 1 4.5 1L10.5 1ZM7.4999 12.4C7.16853 12.4 6.8999 12.6686 6.8999 13C6.8999 13.3314 7.16853 13.6 7.4999 13.6C7.83127 13.6 8.0999 13.3314 8.0999 13C8.0999 12.6686 7.83127 12.4 7.4999 12.4ZM10 2L5 2L5 12L10 12L10 2Z" id="Shape" fill="#000000" fill-rule="evenodd" stroke="none" artboard="43274992-425a-47ad-a566-66dfeed79236" />
  </g>
</svg>