<?xml version="1.0" encoding="utf-8"?>
<svg width="15px" height="15px" viewBox="0 0 15 15" version="1.1" xmlns:xlink="http://www.w3.org/1999/xlink" xmlns="http://www.w3.org/2000/svg">
  <defs>
    <rect width="15" height="15" id="artboard_1" />
    <clipPath id="clip_1">
      <use xlink:href="#artboard_1" clip-rule="evenodd" />
    </clipPath>
  </defs>
  <g id="icon--plug-off" clip-path="url(#clip_1)">
    <path d="M2.95365 3.24645L11.7318 12.0246C11.9271 12.2199 11.9271 12.5365 11.7318 12.7317C11.5366 12.927 11.22 12.927 11.0247 12.7317L9.19063 10.8976C9.05025 10.9444 8.90359 10.9759 8.75288 10.9906L8.59478 11.6213C8.53913 11.8439 8.33914 12 8.10971 12L7.99937 12L8.0001 14L7.0001 14L6.99937 12L6.89049 12C6.66105 12 6.46106 11.8439 6.40541 11.6213L6.24731 10.9906C5.4675 10.9148 4.7958 10.3871 4.54425 9.63246L4.0001 7.5L4.0001 5.707L2.24654 3.95355C2.05128 3.75829 2.05128 3.44171 2.24654 3.24645C2.44181 3.05118 2.75839 3.05118 2.95365 3.24645ZM5 6.707L5 7.378L5.49284 9.31623C5.61658 9.68745 5.94364 9.94882 6.32547 9.99328L6.44152 10L8.293 10L5 6.707ZM9.50015 2C9.7763 2 10.0002 2.22386 10.0002 2.5L10.0002 5L10.5002 5C10.7763 5 11.0002 5.22386 11.0002 5.5L11.0002 7.5L10.5132 9.406L9.69115 8.584L10.0002 7.373L10.0002 6L7.10815 6L6.10815 5L9.00015 5L9.00015 2.5C9.00015 2.22386 9.22401 2 9.50015 2ZM5.5 2C5.77614 2 6 2.22386 6 2.5L6 4.892L5 3.892L5 2.5C5 2.22386 5.22386 2 5.5 2Z" id="Shape" fill="#000000" fill-rule="evenodd" stroke="none" artboard="974f578d-23b3-48c9-af97-b40823475a4f" />
  </g>
</svg>