<?xml version="1.0" encoding="utf-8"?>
<svg width="15px" height="15px" viewBox="0 0 15 15" version="1.1" xmlns:xlink="http://www.w3.org/1999/xlink" xmlns="http://www.w3.org/2000/svg">
  <defs>
    <rect width="15" height="15" id="artboard_1" />
    <clipPath id="clip_1">
      <use xlink:href="#artboard_1" clip-rule="evenodd" />
    </clipPath>
  </defs>
  <g id="icon--plug" clip-path="url(#clip_1)">
    <path d="M9.5 2C9.77614 2 10 2.22386 10 2.5L10 5L10.5 5C10.7761 5 11 5.22386 11 5.5L11 7.5L10.4558 9.63246C10.2043 10.3871 9.5326 10.9148 8.75278 10.9906L8.59468 11.6213C8.53904 11.8439 8.33905 12 8.10961 12L7.99927 12L8 14L7 14L6.99927 12L6.89039 12C6.66095 12 6.46096 11.8439 6.40532 11.6213L6.24722 10.9906C5.4674 10.9148 4.7957 10.3871 4.54415 9.63246L4 7.5L4 5.5C4 5.22386 4.22386 5 4.5 5L5 5L5 2.5C5 2.22386 5.22386 2 5.5 2C5.77614 2 6 2.22386 6 2.5L6 5L9 5L9 2.5C9 2.22386 9.22386 2 9.5 2ZM10 6L5 6L5 7.378L5.49284 9.31623C5.61658 9.68745 5.94364 9.94882 6.32547 9.99328L6.44152 10L8.55848 10C8.94587 10 9.29414 9.7769 9.44437 9.48488L9.4869 9.3852L10 7.373L10 6Z" id="Shape" fill="#000000" fill-rule="evenodd" stroke="none" artboard="471decdc-6114-4f9e-ac71-73c4131e4276" />
  </g>
</svg>