<?xml version="1.0" encoding="utf-8"?>
<svg width="15px" height="15px" viewBox="0 0 15 15" version="1.1" xmlns:xlink="http://www.w3.org/1999/xlink" xmlns="http://www.w3.org/2000/svg">
  <defs>
    <rect width="15" height="15" id="artboard_1" />
    <clipPath id="clip_1">
      <use xlink:href="#artboard_1" clip-rule="evenodd" />
    </clipPath>
  </defs>
  <g id="icon--scripting-" clip-path="url(#clip_1)">
    <path d="M11.499 13L11.501 13C11.9149 13 12.2682 12.8537 12.5609 12.561C12.8536 12.2683 13 11.9149 13 11.501L13 9L10.9997 9L10.9997 3.49899C10.9997 3.08506 10.8534 2.73174 10.5607 2.43904C10.268 2.14634 9.91465 1.99999 9.50071 1.99999L3.5 1.99999L3.49904 1.99999C3.0851 1.99999 2.73178 2.14634 2.43908 2.43904C2.14638 2.73174 2.00003 3.08506 2.00002 3.49899L2 5.99999L3.99992 5.99999L3.99992 11.501C3.99992 11.9149 4.14627 12.2683 4.43897 12.5609C4.73003 12.852 5.08104 12.9984 5.492 13L5.49892 13L5.50118 13L5.50434 13C5.50434 13 11.4426 13 11.499 13ZM4.99999 11.501C4.99998 11.6388 5.0487 11.7564 5.14613 11.8539C5.24349 11.9512 5.361 11.9999 5.49866 12L5.50336 12C5.83444 11.9992 5.99998 11.8329 5.99999 11.501L5.99976 9L10 9L10 3.499C10 3.36121 9.95128 3.24359 9.85385 3.14616C9.75641 3.04872 9.6388 3 9.501 3L4.97729 3C4.99221 3.16044 4.99966 3.32677 4.99966 3.499L4.99999 11.501ZM3.49907 3L3.50326 3C3.77774 3.00065 4 3.22334 4 3.49795L4 5L3 5L3.00001 3.49901C3.00002 3.16634 3.16637 3 3.49907 3L3.49907 3ZM11.378 12L10.7885 12L6.91919 12C6.98617 11.8448 7.01966 11.6785 7.01967 11.501L7.01969 10L11.9992 10L11.9992 11.501C11.9992 11.8337 11.7921 12 11.378 12L11.378 12Z" id="Vector" fill="#000000" fill-rule="evenodd" stroke="none" artboard="9e43912f-925b-41b8-b99c-3d928ffb20ee" />
  </g>
</svg>