<?xml version="1.0" encoding="utf-8"?>
<svg width="15px" height="15px" viewBox="0 0 15 15" version="1.1" xmlns:xlink="http://www.w3.org/1999/xlink" xmlns="http://www.w3.org/2000/svg">
  <defs>
    <rect width="15" height="15" id="artboard_1" />
    <clipPath id="clip_1">
      <use xlink:href="#artboard_1" clip-rule="evenodd" />
    </clipPath>
  </defs>
  <g id="icon--server" clip-path="url(#clip_1)">
    <path d="M12.5 1C12.7761 1 13 1.22386 13 1.5L13 13.5C13 13.7761 12.7761 14 12.5 14L2.5 14C2.22386 14 2 13.7761 2 13.5L2 1.5C2 1.22386 2.22386 1 2.5 1L12.5 1ZM12 10L3 10L3 13L12 13L12 10ZM6.4999 10.9C6.83127 10.9 7.0999 11.1686 7.0999 11.5C7.0999 11.8314 6.83127 12.1 6.4999 12.1C6.16853 12.1 5.8999 11.8314 5.8999 11.5C5.8999 11.1686 6.16853 10.9 6.4999 10.9ZM8.4999 10.9C8.83127 10.9 9.0999 11.1686 9.0999 11.5C9.0999 11.8314 8.83127 12.1 8.4999 12.1C8.16853 12.1 7.8999 11.8314 7.8999 11.5C7.8999 11.1686 8.16853 10.9 8.4999 10.9ZM10.4999 10.9C10.8313 10.9 11.0999 11.1686 11.0999 11.5C11.0999 11.8314 10.8313 12.1 10.4999 12.1C10.1685 12.1 9.8999 11.8314 9.8999 11.5C9.8999 11.1686 10.1685 10.9 10.4999 10.9ZM12 6L3 6L3 9L12 9L12 6ZM6.4999 6.9C6.83127 6.9 7.0999 7.16863 7.0999 7.5C7.0999 7.83137 6.83127 8.1 6.4999 8.1C6.16853 8.1 5.8999 7.83137 5.8999 7.5C5.8999 7.16863 6.16853 6.9 6.4999 6.9ZM8.4999 6.9C8.83127 6.9 9.0999 7.16863 9.0999 7.5C9.0999 7.83137 8.83127 8.1 8.4999 8.1C8.16853 8.1 7.8999 7.83137 7.8999 7.5C7.8999 7.16863 8.16853 6.9 8.4999 6.9ZM10.4999 6.9C10.8313 6.9 11.0999 7.16863 11.0999 7.5C11.0999 7.83137 10.8313 8.1 10.4999 8.1C10.1685 8.1 9.8999 7.83137 9.8999 7.5C9.8999 7.16863 10.1685 6.9 10.4999 6.9ZM12 2L3 2L3 5L12 5L12 2ZM6.4999 2.9C6.83127 2.9 7.0999 3.16863 7.0999 3.5C7.0999 3.83137 6.83127 4.1 6.4999 4.1C6.16853 4.1 5.8999 3.83137 5.8999 3.5C5.8999 3.16863 6.16853 2.9 6.4999 2.9ZM8.4999 2.9C8.83127 2.9 9.0999 3.16863 9.0999 3.5C9.0999 3.83137 8.83127 4.1 8.4999 4.1C8.16853 4.1 7.8999 3.83137 7.8999 3.5C7.8999 3.16863 8.16853 2.9 8.4999 2.9ZM10.4999 2.9C10.8313 2.9 11.0999 3.16863 11.0999 3.5C11.0999 3.83137 10.8313 4.1 10.4999 4.1C10.1685 4.1 9.8999 3.83137 9.8999 3.5C9.8999 3.16863 10.1685 2.9 10.4999 2.9Z" id="Shape" fill="#000000" fill-rule="evenodd" stroke="none" artboard="3f5e60eb-7fb9-4e23-aaac-31288985288a" />
  </g>
</svg>