<?xml version="1.0" encoding="utf-8"?>
<svg width="15px" height="15px" viewBox="0 0 15 15" version="1.1" xmlns:xlink="http://www.w3.org/1999/xlink" xmlns="http://www.w3.org/2000/svg">
  <defs>
    <rect width="15" height="15" id="artboard_1" />
    <clipPath id="clip_1">
      <use xlink:href="#artboard_1" clip-rule="evenodd" />
    </clipPath>
  </defs>
  <g id="icon--smartwatch" clip-path="url(#clip_1)">
    <path d="M9.41805 12L5.58105 12L5.83303 13L9.16706 13L9.41805 12ZM10.5 4L4.5 4C4.25454 4 4.05039 4.17688 4.00806 4.41012L4 4.5L4 10.5C4 10.7455 4.17688 10.9496 4.41012 10.9919L4.5 11L10.5 11C10.7455 11 10.9496 10.8231 10.9919 10.5899L11 10.5L11 4.5C11 4.25454 10.8231 4.05039 10.5899 4.00806L10.5 4ZM12 10.5C12 11.3284 11.3284 12 10.5 12L10.448 12L10.1369 13.2434C10.0346 13.6511 9.69018 13.9471 9.2803 13.9936L9.16702 14L5.83298 14C5.41266 14 5.04171 13.738 4.89683 13.3517L4.86306 13.2434L4.551 12L4.5 12C3.67157 12 3 11.3284 3 10.5L3 4.5C3 3.67157 3.67157 3 4.5 3L4.551 3L4.86306 1.75657C4.97468 1.31184 5.37445 1 5.83298 1L9.16702 1C9.62555 1 10.0253 1.31184 10.1369 1.75657L10.448 3L10.5 3C11.3284 3 12 3.67157 12 4.5L12 5L12.5 5L12.5 7L12 7L12 8L12.5 8L12.5 10L12 10L12 10.5ZM9.16706 2L5.83303 2L5.58105 3L9.41805 3L9.16706 2Z" id="Shape" fill="#000000" fill-rule="evenodd" stroke="none" artboard="0c7be826-d7c8-439a-8182-e9dd1cb1c4ac" />
  </g>
</svg>