<?xml version="1.0" encoding="utf-8"?>
<svg width="15px" height="15px" viewBox="0 0 15 15" version="1.1" xmlns:xlink="http://www.w3.org/1999/xlink" xmlns="http://www.w3.org/2000/svg">
  <defs>
    <rect width="15" height="15" id="artboard_1" />
    <clipPath id="clip_1">
      <use xlink:href="#artboard_1" clip-rule="evenodd" />
    </clipPath>
  </defs>
  <g id="icon--tablet" clip-path="url(#clip_1)">
    <path d="M11.5 1C11.7761 1 12 1.22386 12 1.5L12 13.5C12 13.7761 11.7761 14 11.5 14L3.5 14C3.22386 14 3 13.7761 3 13.5L3 1.5C3 1.22386 3.22386 1 3.5 1L11.5 1ZM7.4999 12.4C7.16853 12.4 6.8999 12.6686 6.8999 13C6.8999 13.3314 7.16853 13.6 7.4999 13.6C7.83127 13.6 8.0999 13.3314 8.0999 13C8.0999 12.6686 7.83127 12.4 7.4999 12.4ZM11 2L4 2L4 12L11 12L11 2Z" id="Shape-Copy" fill="#000000" fill-rule="evenodd" stroke="none" artboard="3676b64f-f903-42cc-b2e2-134d7cc06bf1" />
  </g>
</svg>