<?xml version="1.0" encoding="utf-8"?>
<svg width="15px" height="15px" viewBox="0 0 15 15" version="1.1" xmlns:xlink="http://www.w3.org/1999/xlink" xmlns="http://www.w3.org/2000/svg">
  <defs>
    <rect width="15" height="15" id="artboard_1" />
    <clipPath id="clip_1">
      <use xlink:href="#artboard_1" clip-rule="evenodd" />
    </clipPath>
  </defs>
  <g id="icon--terminal" clip-path="url(#clip_1)">
    <path d="M2.14645 4.85355L4.97487 7.68198L2.14645 10.5104C1.95118 10.7057 1.95118 11.0223 2.14645 11.2175C2.34171 11.4128 2.65829 11.4128 2.85355 11.2175L6.03553 8.03553C6.2308 7.84027 6.2308 7.52369 6.03553 7.32843L2.85355 4.14645C2.65829 3.95118 2.34171 3.95118 2.14645 4.14645C1.95118 4.34171 1.95118 4.65829 2.14645 4.85355L2.14645 4.85355ZM6.92771 11L12.0723 11C12.1904 11 12.2912 11.0487 12.3747 11.1462C12.4582 11.2436 12.5 11.3612 12.5 11.499L12.5 11.501C12.5 11.6388 12.4582 11.7564 12.3747 11.8538C12.2912 11.9513 12.1904 12 12.0723 12L6.92771 12C6.8096 12 6.70879 11.9513 6.62527 11.8538C6.54176 11.7564 6.5 11.6388 6.5 11.501L6.5 11.499C6.5 11.3612 6.54176 11.2436 6.62527 11.1462C6.70879 11.0487 6.8096 11 6.92771 11L6.92771 11Z" id="Vector" fill="#000000" fill-rule="evenodd" stroke="none" artboard="22a0eec3-7da1-4734-97a3-3c8cabaefbd3" />
  </g>
</svg>