<?xml version="1.0" encoding="utf-8"?>
<svg width="15px" height="15px" viewBox="0 0 15 15" version="1.1" xmlns:xlink="http://www.w3.org/1999/xlink" xmlns="http://www.w3.org/2000/svg">
  <defs>
    <rect width="15" height="15" id="artboard_1" />
    <clipPath id="clip_1">
      <use xlink:href="#artboard_1" clip-rule="evenodd" />
    </clipPath>
  </defs>
  <g id="icon--tv" clip-path="url(#clip_1)">
    <path d="M11.5 12C11.7761 12 12 12.2239 12 12.5C12 12.7761 11.7761 13 11.5 13L3.5 13C3.22386 13 3 12.7761 3 12.5C3 12.2239 3.22386 12 3.5 12L11.5 12ZM14.5 2C14.7761 2 15 2.22386 15 2.5L15 10.5C15 10.7761 14.7761 11 14.5 11L0.5 11C0.223858 11 -7.72046e-17 10.7761 0 10.5L0 2.5C-3.38177e-17 2.22386 0.223858 2 0.5 2L14.5 2ZM14 3L1 3L1 10L14 10L14 3ZM5.35244 4.16054L5.41875 4.18049L10.1608 6.2245C10.2312 6.25482 10.2873 6.3109 10.3176 6.38125C10.3738 6.51167 10.3303 6.65998 10.2209 6.74099L10.1608 6.7755L5.41875 8.8195C5.38125 8.83567 5.34084 8.84401 5.3 8.84401C5.15798 8.84401 5.03902 8.74533 5.00792 8.61279L5 8.54401L5 4.45599C5 4.41515 5.00834 4.37474 5.0245 4.33724C5.08072 4.20683 5.21843 4.13663 5.35244 4.16054Z" id="Shape" fill="#000000" fill-rule="evenodd" stroke="none" artboard="8db16fb7-32b1-450e-998a-564e535cba7f" />
  </g>
</svg>