<?xml version="1.0" encoding="utf-8"?>
<svg width="15px" height="15px" viewBox="0 0 15 15" version="1.1" xmlns:xlink="http://www.w3.org/1999/xlink" xmlns="http://www.w3.org/2000/svg">
  <defs>
    <rect width="15" height="15" id="artboard_1" />
    <clipPath id="clip_1">
      <use xlink:href="#artboard_1" clip-rule="evenodd" />
    </clipPath>
  </defs>
  <g id="icon--usb-drive" clip-path="url(#clip_1)">
    <path d="M10 1L10 5L11 5L11 12C11 13.1046 10.1046 14 9 14L6 14C4.89543 14 4 13.1046 4 12L4 5L5 5L5 1L10 1ZM6 5L9 5L9 2L6 2L6 5ZM5 12L5 6L10 6L10 12L9.99327 12.1166C9.93551 12.614 9.51284 13 9 13L6 13L5.88338 12.9933C5.38604 12.9355 5 12.5128 5 12ZM8.501 11L6.499 11Q6.44985 11 6.40165 11.0096Q6.35345 11.0192 6.30804 11.038Q6.26263 11.0568 6.22177 11.0841Q6.18091 11.1114 6.14615 11.1462Q6.1114 11.1809 6.0841 11.2218Q6.05679 11.2626 6.03798 11.308Q6.01918 11.3534 6.00959 11.4016Q6 11.4499 6 11.499L6 11.501Q6 11.5501 6.00959 11.5983Q6.01918 11.6466 6.03798 11.692Q6.05679 11.7374 6.0841 11.7782Q6.1114 11.8191 6.14615 11.8538Q6.18091 11.8886 6.22177 11.9159Q6.26263 11.9432 6.30804 11.962Q6.35345 11.9808 6.40165 11.9904Q6.44985 12 6.499 12L8.501 12Q8.55015 12 8.59835 11.9904Q8.64655 11.9808 8.69196 11.962Q8.73736 11.9432 8.77823 11.9159Q8.81909 11.8886 8.85385 11.8538Q8.8886 11.8191 8.9159 11.7782Q8.94321 11.7374 8.96202 11.692Q8.98082 11.6466 8.99041 11.5983Q9 11.5501 9 11.501L9 11.499Q9 11.4499 8.99041 11.4016Q8.98082 11.3534 8.96202 11.308Q8.94321 11.2626 8.9159 11.2218Q8.8886 11.1809 8.85385 11.1462Q8.81909 11.1114 8.77823 11.0841Q8.73736 11.0568 8.69196 11.038Q8.64655 11.0192 8.59835 11.0096Q8.55015 11 8.501 11Z" id="Combined-Shape" fill="#000000" fill-rule="evenodd" stroke="none" artboard="6f8006e1-d405-4f23-86f5-051ec161d5c1" />
  </g>
</svg>