<?xml version="1.0" encoding="utf-8"?>
<svg width="15px" height="15px" viewBox="0 0 15 15" version="1.1" xmlns:xlink="http://www.w3.org/1999/xlink" xmlns="http://www.w3.org/2000/svg">
  <defs>
    <rect width="15" height="15" id="artboard_1" />
    <clipPath id="clip_1">
      <use xlink:href="#artboard_1" clip-rule="evenodd" />
    </clipPath>
  </defs>
  <g id="icon--usb" clip-path="url(#clip_1)">
    <path d="M7.4999 0.5L8.9999 3L7.9989 3L7.9989 8.46713L10.0035 7.193L10.0029 6.51792L9.4999 6.51792L9.4999 4.51792L11.4999 4.51792L11.4999 6.51792L11.0029 6.51792L11.0033 7.33995Q11.0034 7.40158 10.9884 7.46137Q10.9734 7.52116 10.9444 7.57551Q10.9153 7.62985 10.8739 7.6755Q10.8325 7.72114 10.7812 7.75534L8.41404 9.33412C8.18477 9.48704 7.99899 9.83441 7.9991 10.11C7.99938 10.8049 7.99984 11.9797 7.99984 11.9797C8.63866 12.1896 9.0999 12.7909 9.0999 13.5C9.0999 14.3837 8.38356 15.1 7.4999 15.1C6.61625 15.1 5.8999 14.3837 5.8999 13.5C5.8999 12.7913 6.36066 12.1902 6.99896 11.98L6.99894 11.605C6.99892 11.3294 6.813 10.9821 6.58368 10.8292L4.41512 9.38386C4.1858 9.23101 3.99975 8.8837 3.99957 8.60811C3.99927 8.17152 3.99889 7.60659 3.99889 7.60659C3.64327 7.42434 3.3999 7.05412 3.3999 6.62705C3.3999 6.01954 3.89239 5.52705 4.4999 5.52705C5.10742 5.52705 5.5999 6.01954 5.5999 6.62705C5.5999 7.05452 5.35607 7.42503 4.99991 7.60711C4.99991 7.60711 4.9999 8.693 4.9999 8.693L6.9989 9.96313L6.9989 3L5.9999 3L7.4999 0.5Z" id="Path" fill="#000000" fill-rule="evenodd" stroke="none" artboard="875d8f14-0376-44ce-b731-b67e9ae55c0a" />
  </g>
</svg>