<?xml version="1.0" encoding="utf-8"?>
<svg width="15px" height="15px" viewBox="0 0 15 15" version="1.1" xmlns:xlink="http://www.w3.org/1999/xlink" xmlns="http://www.w3.org/2000/svg">
  <defs>
    <rect width="15" height="15" id="artboard_1" />
    <clipPath id="clip_1">
      <use xlink:href="#artboard_1" clip-rule="evenodd" />
    </clipPath>
  </defs>
  <g id="icon--webcam" clip-path="url(#clip_1)">
    <path d="M11 12L11 12.501Q11 12.5501 10.9904 12.5983Q10.9808 12.6466 10.962 12.692Q10.9432 12.7374 10.9159 12.7782Q10.8886 12.8191 10.8538 12.8538Q10.8191 12.8886 10.7782 12.9159Q10.7374 12.9432 10.692 12.962Q10.6466 12.9808 10.5983 12.9904Q10.5501 13 10.501 13L4.499 13Q4.44985 13 4.40165 12.9904Q4.35345 12.9808 4.30804 12.962Q4.26263 12.9432 4.22177 12.9159Q4.18091 12.8886 4.14615 12.8538Q4.1114 12.8191 4.0841 12.7782Q4.05679 12.7374 4.03798 12.692Q4.01918 12.6466 4.00959 12.5983Q4 12.5501 4 12.501L4 12L11 12ZM7.4999 3.5C8.12995 3.5 8.72597 3.64567 9.25613 3.90516L9.4749 4.021L9.43337 3.99749L13.2345 3.99939C13.787 5.04439 14.0999 6.23566 14.0999 7.5C14.0999 8.76434 13.787 9.95561 13.2345 11.0006L9.43537 11.0014L9.4812 10.9756C8.8971 11.3093 8.22077 11.5 7.4999 11.5C6.87236 11.5 6.27856 11.3555 5.74999 11.0979L5.56343 11.0009L1.76497 11C1.21264 9.95518 0.899902 8.76411 0.899902 7.5C0.899902 6.23543 1.21287 5.04396 1.76558 3.99882L5.56643 3.99749L5.52357 4.02155C6.10653 3.68961 6.78108 3.5 7.4999 3.5ZM7.5 4.5C5.84315 4.5 4.5 5.84315 4.5 7.5C4.5 9.15685 5.84315 10.5 7.5 10.5C9.15685 10.5 10.5 9.15685 10.5 7.5C10.5 5.84315 9.15685 4.5 7.5 4.5ZM4.37912 4.99762L2.3989 4.998L2.38344 5.0346C2.06607 5.80801 1.8999 6.64133 1.8999 7.5C1.8999 8.35836 2.06595 9.19139 2.3831 9.96458L2.3989 10L4.37749 10.0003L4.41825 10.0504C3.84467 9.35805 3.4999 8.46929 3.4999 7.5C3.4999 6.61532 3.7871 5.79772 4.27336 5.13535L4.37912 4.99762ZM10.6215 4.99864L10.5857 4.95463C11.1568 5.64621 11.4999 6.53304 11.4999 7.5C11.4999 8.38851 11.2102 9.20937 10.7201 9.87325L10.6223 10.0003L12.5999 10L12.6166 9.96499C12.8942 9.28835 13.056 8.56587 13.0922 7.82069L13.0999 7.5C13.0999 6.64149 12.9338 5.80831 12.6166 5.03501L12.5999 4.999L10.6215 4.99864ZM7.5 6C7.78578 6 8.05289 6.07992 8.28021 6.21862C7.3283 6.57266 6.57266 7.3283 6.21872 8.2794C6.07992 8.05289 6 7.78578 6 7.5C6 6.67157 6.67157 6 7.5 6Z" id="Shape" fill="#000000" fill-rule="evenodd" stroke="none" artboard="22d7e4e3-1f49-482b-a374-20e5d690c175" />
  </g>
</svg>