<?xml version="1.0" encoding="utf-8"?>
<svg width="15px" height="15px" viewBox="0 0 15 15" version="1.1" xmlns:xlink="http://www.w3.org/1999/xlink" xmlns="http://www.w3.org/2000/svg">
  <defs>
    <rect width="15" height="15" id="artboard_1" />
    <clipPath id="clip_1">
      <use xlink:href="#artboard_1" clip-rule="evenodd" />
    </clipPath>
  </defs>
  <g id="icon--wifi" clip-path="url(#clip_1)">
    <path d="M7.5001 11.6C7.99712 11.6 8.4001 12.003 8.4001 12.5C8.4001 12.997 7.99712 13.4 7.5001 13.4C7.00296 13.4 6.6001 12.997 6.6001 12.5C6.6001 12.003 7.00296 11.6 7.5001 11.6ZM7.49796 8C8.84786 8 10.059 8.5944 10.8838 9.5357C11.0316 9.7115 11.0221 9.9707 10.8618 10.1352C10.8649 10.1383 10.8648 10.1383 10.8648 10.1384C10.7643 10.2414 10.6252 10.2976 10.4813 10.2932C10.3375 10.2888 10.2021 10.2242 10.1081 10.1152C9.46727 9.3994 8.53456 8.9545 7.49796 8.9545C6.46136 8.9545 5.52866 9.3994 4.88047 10.1086C4.78826 10.2154 4.65546 10.2787 4.51446 10.2829C4.37347 10.2871 4.23716 10.2319 4.13876 10.1307C4.13146 10.1377 4.13146 10.1377 4.13136 10.1376C3.96956 9.9713 3.96006 9.7094 4.10946 9.5319C4.93776 8.594 6.14847 8 7.49796 8ZM7.49783 5C9.64723 5 11.5855 5.9042 12.9529 7.353C13.1209 7.5362 13.1168 7.8187 12.9434 7.9968C12.9452 7.9986 12.9452 7.9986 12.9452 7.9986C12.8515 8.0949 12.7222 8.1483 12.5878 8.1464C12.4534 8.1444 12.3257 8.0873 12.2348 7.9883C11.0453 6.7344 9.36263 5.9545 7.49783 5.9545C5.63443 5.9545 3.95283 6.7332 2.76083 7.9829C2.66983 8.0818 2.54213 8.1388 2.40783 8.1406C2.27343 8.1424 2.14423 8.0888 2.05063 7.9923C2.04773 7.9949 2.04763 7.9948 2.04753 7.9947C1.87513 7.8172 1.87113 7.5361 2.03833 7.3537C3.40783 5.9053 5.34713 5 7.49783 5ZM7.49791 2C10.4439 2 13.1065 3.2133 15.0134 5.1674C15.2016 5.3648 15.2 5.6758 15.0097 5.8713C15.0111 5.8728 15.011 5.8728 15.011 5.8729C14.9252 5.9608 14.8073 6.01 14.6845 6.009C14.5617 6.008 14.4446 5.957 14.3603 5.8676C12.626 4.0709 10.1923 2.9545 7.49791 2.9545C4.80341 2.9545 2.36981 4.0709 0.634108 5.8664C0.550208 5.9554 0.433608 6.0062 0.311308 6.0072C0.188908 6.0081 0.0715079 5.9591 -0.0137922 5.8715C-0.0151922 5.8728 -0.0152922 5.8728 -0.0153922 5.8727C-0.206592 5.6765 -0.208292 5.3641 -0.0191921 5.1658C1.88931 3.2133 4.55191 2 7.49791 2Z" id="Fill-1" fill="#000000" fill-rule="evenodd" stroke="none" artboard="7afd9918-43a7-4b20-a405-6d2503150d39" />
  </g>
</svg>