<?xml version="1.0" encoding="utf-8"?>
<svg width="15px" height="15px" viewBox="0 0 15 15" version="1.1" xmlns:xlink="http://www.w3.org/1999/xlink" xmlns="http://www.w3.org/2000/svg">
  <defs>
    <rect width="15" height="15" id="artboard_1" />
    <clipPath id="clip_1">
      <use xlink:href="#artboard_1" clip-rule="evenodd" />
    </clipPath>
  </defs>
  <g id="icon--barbecue-fish" clip-path="url(#clip_1)">
    <path d="M3.47849 10.7633C2.91639 10.9269 2.34156 11.0762 1.76027 11.2126C1.37574 11.3028 0.988381 11.3873 0.600021 11.4666L3.57985 14.4464C3.6591 14.058 3.74362 13.6707 3.83382 13.2861C3.97017 12.7049 4.11949 12.13 4.28312 11.5679C4.29809 11.5165 4.31318 11.4652 4.32839 11.414C4.37738 11.3986 4.42624 11.3832 4.475 11.3677C4.5174 11.3542 4.55972 11.3406 4.60196 11.3269C7.65091 10.3355 11.2951 9.11679 12.8044 7.53123C15.3508 4.85613 13.5102 1.81867 13.4079 1.6499C13.4055 1.64594 13.4041 1.64356 13.4037 1.6428C13.4029 1.64239 13.4005 1.64096 13.3966 1.63857C13.2282 1.53648 10.1905 -0.304499 7.51524 2.24205C5.92964 3.75128 4.7109 7.3955 3.71959 10.4445C3.70589 10.4867 3.69228 10.529 3.67877 10.5713C3.66321 10.6201 3.64777 10.669 3.63245 10.718C3.58124 10.7332 3.52992 10.7483 3.47849 10.7633L3.47849 10.7633ZM12.6722 2.37426C13.4459 3.77301 13.4053 5.07333 12.5503 6.27521C11.5808 6.07604 10.7012 5.58153 9.91132 4.79169C9.26028 4.14065 8.8099 3.42857 8.56017 2.65545C9.82056 1.64871 11.1912 1.55498 12.6722 2.37426L12.6722 2.37426ZM10.1935 2.95389L10.1949 2.95247C10.2511 2.89631 10.3158 2.85302 10.3892 2.82263C10.4626 2.79223 10.539 2.77703 10.6185 2.77703C10.6979 2.77703 10.7743 2.79223 10.8477 2.82263C10.9211 2.85302 10.9859 2.89631 11.042 2.95247L11.0434 2.95389C11.1604 3.07085 11.2189 3.21204 11.2189 3.37744C11.2189 3.54285 11.1604 3.68404 11.0434 3.801L11.042 3.80242C10.9859 3.85858 10.9211 3.90187 10.8477 3.93226C10.7743 3.96266 10.6979 3.97786 10.6185 3.97786C10.539 3.97786 10.4626 3.96266 10.3892 3.93226C10.3158 3.90187 10.2511 3.85858 10.1949 3.80242L10.1935 3.801C10.0765 3.68404 10.018 3.54285 10.018 3.37744C10.018 3.21204 10.0765 3.07085 10.1935 2.95389L10.1935 2.95389ZM4.85552 10.1909C6.0082 6.72227 7.01205 4.4402 7.86707 3.34469C8.17591 4.08572 8.64721 4.80038 9.27492 5.42809C10.0506 6.20378 10.9591 6.74063 11.886 7.0272C10.8759 7.91416 8.5324 8.96872 4.85552 10.1909L4.85552 10.1909ZM7.57704 5.71176L7.57845 5.71034C7.65636 5.63243 7.75041 5.59348 7.86059 5.59348C7.97077 5.59348 8.06482 5.63243 8.14272 5.71034L9.27551 6.84313C9.35342 6.92104 9.39237 7.01508 9.39237 7.12526C9.39237 7.23544 9.35342 7.32949 9.27551 7.4074L9.27409 7.40881C9.19618 7.48672 9.10214 7.52568 8.99196 7.52568C8.88178 7.52568 8.78773 7.48672 8.70982 7.40881L7.57704 6.27603C7.53963 6.23861 7.5108 6.19547 7.49055 6.14658C7.4703 6.0977 7.46017 6.0468 7.46017 5.99389C7.46017 5.94098 7.4703 5.89008 7.49055 5.8412C7.5108 5.79232 7.53963 5.74917 7.57704 5.71176L7.57704 5.71176ZM6.44577 6.84302L6.44719 6.84161C6.4846 6.80419 6.52775 6.77536 6.57663 6.75512C6.62551 6.73487 6.67641 6.72474 6.72932 6.72474C6.78223 6.72474 6.83313 6.73487 6.88201 6.75512C6.93089 6.77536 6.97404 6.80419 7.01146 6.84161L8.14424 7.97439C8.22215 8.0523 8.2611 8.14635 8.2611 8.25653C8.2611 8.36671 8.22215 8.46075 8.14424 8.53866L8.14283 8.54008C8.06492 8.61799 7.97087 8.65694 7.86069 8.65694C7.75051 8.65694 7.65646 8.61799 7.57856 8.54008L6.44577 7.40729C6.36786 7.32938 6.32891 7.23534 6.32891 7.12516C6.32891 7.01498 6.36786 6.92093 6.44577 6.84302L6.44577 6.84302ZM3.475 11.5131C3.05669 11.6562 2.63243 11.7976 2.20221 11.9374L3.05074 12.7859C3.19051 12.3557 3.33193 11.9314 3.475 11.5131L3.475 11.5131Z" id="Vector" fill="#000000" fill-rule="evenodd" stroke="none" artboard="a8ed195a-6c94-4bc9-a7f1-10ec3706b805" />
  </g>
</svg>