<?xml version="1.0" encoding="utf-8"?>
<svg width="15px" height="15px" viewBox="0 0 15 15" version="1.1" xmlns:xlink="http://www.w3.org/1999/xlink" xmlns="http://www.w3.org/2000/svg">
  <defs>
    <rect width="15" height="15" id="artboard_1" />
    <clipPath id="clip_1">
      <use xlink:href="#artboard_1" clip-rule="evenodd" />
    </clipPath>
  </defs>
  <g id="icon--beer" clip-path="url(#clip_1)">
    <path d="M4.56824 2.08203L4.40222 2.04053C4.33191 2.02637 4.2616 2.01587 4.18933 2.00903L3.99988 2C2.89441 2 1.99988 2.89551 1.99988 4L1.99988 12.5C1.99988 12.6443 2.06042 12.7742 2.15808 12.8655C2.24793 12.949 2.36902 13 2.49988 13L2.99988 13L2.99988 13.5C2.99988 13.6404 3.05652 13.7673 3.15027 13.8582C3.24207 13.9458 3.36511 14 3.49988 14L9.49988 14C9.77527 14 9.99988 13.7761 9.99988 13.5L9.99988 13L10.4999 13C10.6405 13 10.7675 12.9421 10.8573 12.8491C10.9452 12.759 10.9999 12.6357 10.9999 12.5L10.9999 12C12.1054 12 12.9999 11.1045 12.9999 10L12.9999 7C12.9999 5.89551 12.1054 5 10.9999 5L10.9999 3.5C10.9999 2.67163 10.328 2 9.49988 2C9.38855 2 9.27918 2.01221 9.17371 2.03564C8.89246 1.68921 8.52918 1.41138 8.11511 1.23096C7.77332 1.08228 7.39636 1 6.99988 1C6.07215 1 5.25183 1.44946 4.74207 2.14233L4.56824 2.08203L4.56824 2.08203ZM10.9999 6L10.9999 11C11.5526 11 11.9999 10.5522 11.9999 10L11.9999 7C11.9999 6.44775 11.5526 6 10.9999 6L10.9999 6ZM9.99988 5L8.99988 5L8.99988 7.5C8.99988 8.00391 8.75183 8.44971 8.37097 8.72168C8.12488 8.89697 7.8241 9 7.49988 9C6.67176 9 5.99988 8.32837 5.99988 7.5L5.99988 5L4.99988 5L4.99988 6C4.99988 6.60107 4.64636 7.11963 4.13465 7.35889C3.94129 7.44946 3.72644 7.5 3.49988 7.5C3.3241 7.5 3.15613 7.46997 2.99988 7.41455L2.99988 12L3.49988 12C3.65808 12 3.79871 12.074 3.8905 12.1892C3.95886 12.2747 3.99988 12.3826 3.99988 12.5L3.99988 13L8.99988 13L8.99988 12.5C8.99988 12.2239 9.22449 12 9.49988 12L9.99988 12L9.99988 5L9.99988 5ZM2.99988 4C2.99988 3.33325 3.33386 3 3.99988 3C4.06824 3 4.1366 3.00684 4.203 3.02051C4.25965 3.03198 4.31629 3.04883 4.37097 3.07104L5.08972 3.35791L5.54676 2.73486C5.90808 2.24487 6.39246 2 6.99988 2C7.28894 2 7.55066 2.05688 7.78504 2.17041C8.0155 2.28149 8.22058 2.44678 8.39832 2.6665L8.78699 3.14575L9.3905 3.01172C9.42566 3.00391 9.46277 3 9.49988 3C9.83386 3 9.99988 3.16675 9.99988 3.5L9.99988 4L7.99988 4L7.99988 7.5C7.99988 7.77612 7.77527 8 7.49988 8C7.22449 8 6.99988 7.77612 6.99988 7.5L6.99988 4L3.99988 4L3.99988 6C3.99988 6.27612 3.77527 6.5 3.49988 6.5C3.22449 6.5 2.99988 6.27612 2.99988 6L2.99988 4L2.99988 4Z" id="Shape" fill="#000000" fill-rule="evenodd" stroke="none" artboard="599f14f2-9dae-4a28-af91-b8728b534cd3" />
  </g>
</svg>