<?xml version="1.0" encoding="utf-8"?>
<svg width="15px" height="15px" viewBox="0 0 15 15" version="1.1" xmlns:xlink="http://www.w3.org/1999/xlink" xmlns="http://www.w3.org/2000/svg">
  <defs>
    <rect width="15" height="15" id="artboard_1" />
    <clipPath id="clip_1">
      <use xlink:href="#artboard_1" clip-rule="evenodd" />
    </clipPath>
  </defs>
  <g id="icon--bottle" clip-path="url(#clip_1)">
    <path d="M8.40105 1L6.59905 1C6.51648 1 6.44601 1.02919 6.38762 1.08758C6.32924 1.14596 6.30005 1.21643 6.30005 1.299L6.30005 1.701C6.30005 1.77892 6.32647 1.84652 6.37932 1.90378C6.43217 1.96105 6.49743 1.9928 6.57511 1.99904L6.11867 4.40681C6.05958 4.62705 5.97644 4.8378 5.86928 5.03908C5.76211 5.24035 5.63365 5.42697 5.48391 5.59894L5.10115 6.03855C4.84173 6.33649 4.67318 6.67913 4.5955 7.06648C4.51783 7.45382 4.54124 7.83496 4.66573 8.20989L4.91432 8.95859C5.02639 9.29609 5.06931 9.64217 5.04308 9.99681C5.01686 10.3515 4.92351 10.6875 4.76303 11.0048L4.71512 11.0995C4.57234 11.3819 4.50064 11.6813 4.5 11.9977C4.49937 12.3141 4.56989 12.6137 4.71154 12.8966L5.12601 13.7244C5.1683 13.8089 5.22962 13.8759 5.30999 13.9255C5.39035 13.9752 5.47775 14 5.57221 14L9.45229 14C9.54674 14 9.63415 13.9752 9.71451 13.9255C9.79487 13.8759 9.8562 13.8089 9.89848 13.7244L10.313 12.8966C10.4546 12.6137 10.5251 12.3141 10.5245 11.9977C10.5239 11.6813 10.4522 11.3819 10.3094 11.0995L10.2615 11.0048C10.101 10.6875 10.0076 10.3515 9.98141 9.99681C9.95519 9.64217 9.99811 9.29609 10.1102 8.95859L10.3588 8.20989C10.4833 7.83496 10.5067 7.45382 10.429 7.06648C10.3513 6.67913 10.1828 6.33649 9.92335 6.03855L9.54058 5.59894C9.39084 5.42697 9.26239 5.24035 9.15522 5.03908C9.04805 4.8378 8.96492 4.62705 8.90582 4.40681L8.44884 1.99616C8.52124 1.98443 8.58121 1.95064 8.62875 1.89479C8.67628 1.83894 8.70005 1.77434 8.70005 1.701L8.70005 1.299C8.70005 1.21643 8.67086 1.14596 8.61247 1.08757C8.55409 1.02919 8.48361 1 8.40105 1L8.40105 1ZM7.43779 2L7.58671 2L8.03657 4.64006C8.06953 4.76289 8.10784 4.88287 8.1515 5L6.87299 5C6.91665 4.88287 6.95496 4.76289 6.98792 4.64006L7.43779 2L7.43779 2ZM6.46221 5.8L8.56228 5.8C8.65302 5.93483 8.75287 6.06482 8.86182 6.18995L9.24459 6.62955C9.57789 7.01234 9.66457 7.44458 9.50462 7.92628L9.48015 8L7.299 8C7.21643 8 7.14596 8.02919 7.08757 8.08757C7.02919 8.14596 7 8.21643 7 8.299L7 8.501L7 8.50258L7 11.499L7 11.701C7 11.7836 7.02919 11.854 7.08757 11.9124C7.14596 11.9708 7.21643 12 7.299 12L9.6315 12C9.63173 12.1645 9.59063 12.329 9.5082 12.4937L9.20461 13.1L5.81988 13.1L5.5163 12.4937C5.35124 12.164 5.3519 11.8347 5.51827 11.5057L5.56618 11.411C6.01317 10.527 6.0806 9.61504 5.76847 8.67498L5.51987 7.92628C5.35993 7.44458 5.44661 7.01234 5.77991 6.62955L6.16267 6.18995C6.27163 6.06481 6.37147 5.93483 6.46221 5.8L6.46221 5.8ZM7.8 8.8L9.2167 8.8C8.97272 9.62155 9.02018 10.4215 9.35908 11.2L7.8 11.2L7.8 8.8L7.8 8.8Z" id="Vector" fill="#000000" fill-rule="evenodd" stroke="none" artboard="4665b3f8-560c-44b2-8260-7d48ad99ee23" />
  </g>
</svg>