<?xml version="1.0" encoding="utf-8"?>
<svg width="15px" height="15px" viewBox="0 0 15 15" version="1.1" xmlns:xlink="http://www.w3.org/1999/xlink" xmlns="http://www.w3.org/2000/svg">
  <defs>
    <rect width="15" height="15" id="artboard_1" />
    <clipPath id="clip_1">
      <use xlink:href="#artboard_1" clip-rule="evenodd" />
    </clipPath>
  </defs>
  <g id="icon--burger" clip-path="url(#clip_1)">
    <path d="M7.5 0.8C10.4482 0.8 12.8547 2.85442 12.9937 4.17887L13 4.3L13 5L13.5 5C13.7761 5 14 5.22386 14 5.5L14 7.5C14 7.77614 13.7761 8 13.5 8L13 8L13 9L13.5 9C13.7761 9 14 9.22386 14 9.5L14 11.5C14 11.7761 13.7761 12 13.5 12L13 12C13 13.1046 12.1046 14 11 14L4 14C2.89543 14 2 13.1046 2 12L1.5 12C1.22386 12 1 11.7761 1 11.5L1 9.5C1 9.22386 1.22386 9 1.5 9L2 9L2 8L1.5 8C1.22386 8 1 7.77614 1 7.5L1 5.5C1 5.22386 1.22386 5 1.5 5L1.999 5L1.9999 4.3C1.9999 2.9599 4.31972 0.866067 7.23352 0.802883L7.5 0.8ZM5 12L3 12C3 12.5128 3.38604 12.9355 3.88338 12.9933L4 13L11 13C11.5128 13 11.9355 12.614 11.9933 12.1166L12 12L8 12L8 12.2C8 12.4761 7.77614 12.7 7.5 12.7C7.22386 12.7 7 12.4761 7 12.2L7 12L6 12L6 12.2C6 12.4761 5.77614 12.7 5.5 12.7C5.22386 12.7 5 12.4761 5 12.2L5 12ZM13 10L2 10L2 11L13 11L13 10ZM12 8L3 8L3 9L12 9L12 8ZM5 6L2 6L2 7L13 7L13 6L12 6L12 6.2C12 6.47614 11.7761 6.7 11.5 6.7C11.2239 6.7 11 6.47614 11 6.2L11 6L10 6L10 6.2C10 6.47614 9.77614 6.7 9.5 6.7C9.22386 6.7 9 6.47614 9 6.2L9 6L6 6L6 6.2C6 6.47614 5.77614 6.7 5.5 6.7C5.22386 6.7 5 6.47614 5 6.2L5 6ZM7.50297 1.799L7.25517 1.80265C6.39961 1.8212 5.55737 2.05168 4.82265 2.43635C4.95967 2.44592 5.09243 2.48369 5.21337 2.54673L5.25038 2.56832C5.24965 2.91318 5.07037 3.24831 4.75022 3.43316C4.42971 3.6182 4.04935 3.60566 3.75018 3.43333C3.75036 3.33258 3.76566 3.23278 3.79516 3.13734C3.33351 3.54823 3.05458 3.96626 3.00719 4.22616L2.99997 4.30008L2.99597 4.999L12 5L12.0013 4.35229L11.9991 4.28325C11.9807 4.10771 11.8367 3.84976 11.5914 3.56829C11.5104 3.70132 11.3946 3.81538 11.2501 3.89881C10.9296 4.08386 10.5492 4.07131 10.25 3.89898C10.2506 3.55277 10.4299 3.21763 10.7501 3.03279C10.8065 3.00023 10.8647 2.97379 10.924 2.95326L10.7336 2.81671L10.7336 2.81671C10.5529 2.69242 10.3635 2.57783 10.167 2.47391C9.88245 2.60631 9.54132 2.60151 9.24972 2.43316C9.05722 2.32201 8.91565 2.15653 8.8332 1.96727C8.49318 1.8807 8.1428 1.82702 7.78976 1.80788L7.50297 1.799ZM7.71331 3.01239L7.75032 3.03398C7.74959 3.37883 7.57031 3.71397 7.25016 3.89881C6.92965 4.08386 6.54929 4.07131 6.25012 3.89898C6.25073 3.55277 6.43001 3.21763 6.75016 3.03279C7.05763 2.85527 7.42019 2.85959 7.71331 3.01239Z" id="Shape" fill="#000000" fill-rule="evenodd" stroke="none" artboard="060936a4-d6f8-4038-bd58-f772d76381f8" />
  </g>
</svg>