<?xml version="1.0" encoding="utf-8"?>
<svg width="15px" height="15px" viewBox="0 0 15 15" version="1.1" xmlns:xlink="http://www.w3.org/1999/xlink" xmlns="http://www.w3.org/2000/svg">
  <defs>
    <rect width="15" height="15" id="artboard_1" />
    <clipPath id="clip_1">
      <use xlink:href="#artboard_1" clip-rule="evenodd" />
    </clipPath>
  </defs>
  <g id="icon--coffee" clip-path="url(#clip_1)">
    <path d="M4.74573 3.22016C4.52249 3.48858 4.43926 3.7548 4.4542 4.00066L3.47239 4.00077L3.44483 4.00306C3.17037 4.03355 2.97261 4.28076 3.0031 4.55522L3.89199 12.5552C3.92013 12.8084 4.13416 13 4.38893 13L9.49389 13C9.74866 13 9.9627 12.8084 9.99083 12.5552L10.163 10.999L11.1644 11C11.9477 11 12.5991 10.3973 12.6599 9.61641L12.8156 7.61641L12.8201 7.5C12.8201 6.67157 12.1485 6 11.3201 6L10.718 5.999L10.8797 4.55522L10.8828 4.5C10.8828 4.22386 10.6589 4 10.3828 4L7.82182 4.00028C7.94775 3.69029 8.01881 3.52992 8.68608 3.34931C9.44326 3.17877 10.0609 2.88704 10.1157 2.58341C10.3153 1.47806 8.92912 1.55422 8.92912 1.55422C8.96122 1.5845 9.00987 1.62007 9.06512 1.66045C9.30797 1.83798 9.67836 2.10875 9.33196 2.43461C9.18855 2.56951 8.89638 2.6699 8.58816 2.7758C7.90402 3.01086 7.1408 3.27309 7.74965 4.00029L5.19495 4.00057C5.19969 3.9812 5.20594 3.96139 5.21385 3.94112C5.39115 3.48699 5.7893 3.2949 6.66682 3.02419C7.60863 2.77723 8.2158 2.51681 8.42559 2.00139C8.95678 0.69629 6.89293 0.763025 6.89293 0.763025C6.93849 0.803101 7.01027 0.846863 7.09122 0.896208C7.40874 1.08978 7.86719 1.36927 7.43651 1.84914C6.89605 2.45134 5.62825 2.15906 4.74573 3.22016L4.74573 3.22016ZM4.05737 4.997L4.83637 12L9.04537 12L9.82337 4.999L4.05737 4.997L4.05737 4.997ZM10.607 6.999L10.274 9.999L11.1645 10C11.3966 10 11.5939 9.84127 11.6491 9.62318L11.663 9.5388L11.8198 7.51942L11.8202 7.5C11.8202 7.25454 11.6433 7.05039 11.41 7.00806L11.3202 7L10.607 6.999L10.607 6.999Z" id="Vector" fill="#000000" fill-rule="evenodd" stroke="none" artboard="2d96927b-432a-41e2-84a8-98fd8d7b24ed" />
  </g>
</svg>