<?xml version="1.0" encoding="utf-8"?>
<svg width="15px" height="15px" viewBox="0 0 15 15" version="1.1" xmlns:xlink="http://www.w3.org/1999/xlink" xmlns="http://www.w3.org/2000/svg">
  <defs>
    <rect width="15" height="15" id="artboard_1" />
    <clipPath id="clip_1">
      <use xlink:href="#artboard_1" clip-rule="evenodd" />
    </clipPath>
  </defs>
  <g id="icon--cup" clip-path="url(#clip_1)">
    <path d="M4.44753 12C4.19275 12 3.97872 11.8084 3.95058 11.5552L3.0617 3.55522C3.0312 3.28076 3.22897 3.03355 3.50342 3.00306L3.53099 3.00077L10.4414 3C10.7175 3 10.9414 3.22386 10.9414 3.5L10.9383 3.55522L10.7766 4.999L11.3787 5C12.2071 5 12.8787 5.67157 12.8787 6.5L12.8742 6.61641L12.7185 8.61641C12.6577 9.39732 12.0063 10 11.223 10L10.2216 9.999L10.0494 11.5552C10.0213 11.8084 9.80726 12 9.55248 12L4.44753 12ZM4.11597 3.997L4.89497 11L9.10397 11L9.88197 3.999L4.11597 3.997ZM10.6656 5.999L10.3326 8.999L11.2231 9C11.4552 9 11.6525 8.84127 11.7077 8.62318L11.7216 8.5388L11.8784 6.51942L11.8788 6.5C11.8788 6.25454 11.7019 6.05039 11.4686 6.00806L11.3788 6L10.6656 5.999Z" id="cup" fill="#000000" fill-rule="evenodd" stroke="none" artboard="f78a11eb-6559-4073-b52d-f9bb66a50ab9" />
  </g>
</svg>