<?xml version="1.0" encoding="utf-8"?>
<svg width="15px" height="15px" viewBox="0 0 15 15" version="1.1" xmlns:xlink="http://www.w3.org/1999/xlink" xmlns="http://www.w3.org/2000/svg">
  <defs>
    <rect width="15" height="15" id="artboard_1" />
    <clipPath id="clip_1">
      <use xlink:href="#artboard_1" clip-rule="evenodd" />
    </clipPath>
  </defs>
  <g id="icon--donat" clip-path="url(#clip_1)">
    <path d="M7.4999 0.900002C3.8549 0.900002 0.899902 3.855 0.899902 7.5C0.899902 11.145 3.8549 14.1 7.4999 14.1C11.1449 14.1 14.0999 11.145 14.0999 7.5C14.0999 3.855 11.1449 0.900002 7.4999 0.900002L7.4999 0.900002ZM5.57111 2.83771L5.57311 2.83774C5.68327 2.83966 5.77798 2.80236 5.85724 2.72582C5.9365 2.64928 5.97709 2.55593 5.97901 2.44576L5.98492 2.1073C6.36362 2.00115 6.75855 1.93381 7.16515 1.90984C7.16801 1.95469 7.17815 1.99782 7.19558 2.03924C7.21301 2.08065 7.23676 2.11806 7.26683 2.15145L8.47261 3.4906C8.54633 3.57248 8.63821 3.6163 8.74824 3.62207C8.85827 3.62784 8.95423 3.59386 9.03611 3.52013L9.03759 3.51879C9.07691 3.48339 9.10796 3.44181 9.13074 3.39405C9.15352 3.34629 9.16629 3.296 9.16906 3.24316C9.17183 3.19032 9.16438 3.13896 9.14672 3.08909C9.12906 3.03921 9.10253 2.99461 9.06712 2.95529L8.1506 1.93739C9.34961 2.07611 10.4332 2.59348 11.2786 3.36685L10.0332 3.92133C9.9849 3.94285 9.94252 3.9728 9.9061 4.01118C9.86967 4.04956 9.84198 4.09345 9.82302 4.14285C9.80406 4.19225 9.79527 4.24339 9.79666 4.29628C9.79804 4.34918 9.80949 4.39979 9.83102 4.44813L9.83183 4.44995C9.85335 4.49829 9.8833 4.54067 9.92168 4.57709C9.96006 4.61351 10.0039 4.6412 10.0533 4.66016C10.1027 4.67912 10.1539 4.68791 10.2068 4.68653C10.2597 4.68514 10.3103 4.67369 10.3586 4.65217L11.859 3.98414C12.3462 4.58736 12.7106 5.29376 12.9145 6.06544L11.6265 5.64692C11.5217 5.61287 11.4202 5.62086 11.322 5.67088C11.2238 5.7209 11.1577 5.79831 11.1237 5.9031L11.1231 5.905C11.089 6.00978 11.097 6.11126 11.147 6.20944C11.197 6.30761 11.2744 6.37372 11.3792 6.40777L13.0741 6.95845C13.0912 7.13666 13.0999 7.31731 13.0999 7.5C13.0999 10.1413 11.2717 12.3552 8.81165 12.9455L7.87268 11.786C7.83938 11.7449 7.79948 11.7117 7.75299 11.6865C7.70649 11.6612 7.65693 11.6458 7.60431 11.6403C7.55169 11.6348 7.50001 11.6395 7.44928 11.6545C7.39855 11.6696 7.35263 11.6937 7.31151 11.727L7.30995 11.7283C7.22433 11.7976 7.17576 11.8871 7.16424 11.9967C7.15272 12.1062 7.18163 12.2038 7.25097 12.2895L7.89616 13.0862C7.76526 13.0954 7.63312 13.1 7.4999 13.1C6.59102 13.1 5.73274 12.8835 4.97381 12.4993L5.79436 11.1337C5.82162 11.0883 5.83915 11.0395 5.84697 10.9872C5.85479 10.9348 5.8523 10.883 5.8395 10.8317C5.8267 10.7803 5.80456 10.7334 5.77309 10.6908C5.74161 10.6483 5.7032 10.6134 5.65784 10.5862L5.65613 10.5851C5.56167 10.5284 5.46099 10.5133 5.35407 10.54C5.24716 10.5667 5.16533 10.6272 5.10857 10.7217L4.28769 12.0878C3.91315 11.8251 3.57226 11.5177 3.27276 11.1733L3.67874 10.8078C3.76062 10.7341 3.80444 10.6422 3.8102 10.5322C3.81597 10.4221 3.78199 10.3262 3.70826 10.2443L3.70693 10.2428C3.67152 10.2035 3.62994 10.1724 3.58218 10.1497C3.53443 10.1269 3.48413 10.1141 3.43129 10.1113C3.37845 10.1086 3.3271 10.116 3.27722 10.1337C3.22735 10.1513 3.18275 10.1779 3.14343 10.2133L2.79031 10.5312C2.22686 9.65756 1.8999 8.61699 1.8999 7.5C1.8999 7.19622 1.92409 6.89809 1.97063 6.60744L2.22186 6.77689C2.26572 6.80648 2.31358 6.82655 2.36543 6.8371C2.41728 6.84765 2.46917 6.84787 2.52111 6.83778C2.57305 6.82768 2.62108 6.80803 2.6652 6.77883C2.70932 6.74963 2.74618 6.71309 2.77576 6.66923L2.77688 6.66757C2.83849 6.57623 2.85879 6.47648 2.83776 6.36832C2.81674 6.26016 2.76056 6.17528 2.66921 6.11367L2.16996 5.77691C2.28936 5.40724 2.44615 5.05439 2.63587 4.7228C2.66735 4.73908 2.70041 4.75096 2.73505 4.75844C2.76969 4.76592 2.80471 4.76873 2.8401 4.76687L4.63963 4.67257C4.69247 4.6698 4.74276 4.65702 4.79052 4.63425C4.83828 4.61147 4.87986 4.58042 4.91526 4.5411C4.95067 4.50178 4.9772 4.45718 4.99486 4.4073C5.01252 4.35743 5.01997 4.30607 5.0172 4.25323L5.0171 4.25124C5.01133 4.14121 4.96751 4.04933 4.88563 3.9756C4.80375 3.90188 4.70779 3.8679 4.59776 3.87366L3.1698 3.9485C3.70964 3.29106 4.39629 2.75877 5.17966 2.40172L5.17913 2.4318C5.17721 2.54197 5.21451 2.63668 5.29105 2.71594C5.36759 2.79519 5.46094 2.83578 5.57111 2.83771L5.57111 2.83771ZM5.86545 3.82608L6.11736 5.4166C5.44376 5.86442 4.99991 6.63025 4.99991 7.5C4.99991 7.96096 5.12458 8.39272 5.34206 8.76343L4.18128 9.11831C4.07592 9.15052 3.99737 9.21527 3.94564 9.31255C3.89391 9.40984 3.88416 9.51116 3.91637 9.61653L3.91695 9.61844C3.93242 9.66904 3.95698 9.71475 3.99064 9.75558C4.02429 9.79641 4.06448 9.82924 4.1112 9.85408C4.15791 9.87892 4.20761 9.89388 4.26027 9.89895C4.31294 9.90402 4.36457 9.89882 4.41517 9.88335L5.90715 9.42722C6.23838 9.70126 6.64148 9.89152 7.08401 9.96558L6.86453 10.3309C6.80778 10.4253 6.79274 10.526 6.81939 10.6329C6.84605 10.7398 6.90659 10.8216 7.00104 10.8784L7.00275 10.8794C7.0972 10.9361 7.19787 10.9512 7.30478 10.9245C7.41169 10.8979 7.49352 10.8373 7.55026 10.7429L7.96333 10.0554C7.97334 10.0388 7.98209 10.0215 7.98957 10.0035C7.99705 9.9856 8.00319 9.96721 8.00799 9.94837C8.42256 9.86283 8.79959 9.67467 9.11134 9.41163C9.14615 9.45622 9.18852 9.4918 9.23846 9.51836C9.2884 9.54493 9.34158 9.56018 9.39801 9.56413L10.1981 9.62007C10.308 9.62776 10.4045 9.59546 10.4877 9.52317C10.5708 9.45089 10.6162 9.35979 10.6239 9.24988L10.6241 9.24788C10.6317 9.13797 10.5994 9.04144 10.5272 8.95828C10.4549 8.87513 10.3638 8.82971 10.2539 8.82202L9.64817 8.77967C9.87157 8.40536 9.99991 7.9677 9.99991 7.5C9.99991 6.82663 9.73387 6.21555 9.30113 5.76611L9.66893 5.60235C9.76958 5.55754 9.83965 5.4837 9.87914 5.38084C9.91862 5.27797 9.91596 5.17622 9.87115 5.07556L9.87033 5.07373C9.82552 4.97308 9.75168 4.90301 9.64882 4.86352C9.54595 4.82404 9.44419 4.8267 9.34354 4.87152L8.61088 5.19772C8.60042 5.20238 8.59018 5.20747 8.58017 5.21301C8.57015 5.21854 8.56039 5.2245 8.55089 5.23088C8.2314 5.0827 7.87534 5 7.49991 5C7.28371 5 7.07393 5.02743 6.87386 5.07899L6.6556 3.70093C6.64732 3.64867 6.62936 3.59999 6.60171 3.55487C6.57407 3.50976 6.53884 3.47165 6.49603 3.44055C6.45323 3.40945 6.4061 3.38773 6.35465 3.37537C6.3032 3.36302 6.25135 3.36099 6.19909 3.36926L6.19712 3.36958C6.14486 3.37785 6.09617 3.39581 6.05105 3.42346C6.00594 3.45111 5.96784 3.48633 5.93674 3.52914C5.90563 3.57194 5.88391 3.61907 5.87156 3.67052C5.85921 3.72197 5.85717 3.77382 5.86545 3.82608L5.86545 3.82608ZM7.49988 6C6.67188 6 5.99988 6.672 5.99988 7.5C5.99988 8.328 6.67188 9 7.49988 9C8.32788 9 8.99988 8.328 8.99988 7.5C8.99988 6.672 8.32788 6 7.49988 6L7.49988 6ZM4.06858 6.58514L4.0703 6.58617C4.11565 6.61342 4.15407 6.64831 4.18554 6.69084C4.21702 6.73338 4.23916 6.78031 4.25196 6.83166C4.26476 6.883 4.26725 6.93483 4.25943 6.98716C4.25161 7.0395 4.23407 7.08834 4.20682 7.1337L3.27874 8.67827C3.22199 8.77272 3.14015 8.83327 3.03324 8.85993C2.92632 8.88659 2.82564 8.87155 2.73119 8.8148L2.72947 8.81377C2.68412 8.78652 2.6457 8.75163 2.61422 8.70909C2.58275 8.66656 2.56061 8.61962 2.54781 8.56828C2.53501 8.51694 2.53252 8.46511 2.54034 8.41277C2.54816 8.36044 2.56569 8.3116 2.59295 8.26624L3.52103 6.72167C3.57778 6.62722 3.65962 6.56666 3.76653 6.54C3.87345 6.51334 3.97413 6.52839 4.06858 6.58514L4.06858 6.58514ZM10.7397 7.15593L10.7379 7.15671C10.6891 7.17739 10.6463 7.20659 10.6092 7.24433C10.5721 7.28207 10.5436 7.32547 10.5238 7.37453C10.504 7.42358 10.4943 7.47457 10.4948 7.52748C10.4952 7.58038 10.5058 7.63119 10.5265 7.6799L11.2306 9.33865C11.2736 9.44007 11.3462 9.51142 11.4484 9.55269C11.5505 9.59397 11.6523 9.59308 11.7538 9.55003L11.7556 9.54924C11.857 9.50619 11.9284 9.43359 11.9696 9.33143C12.0109 9.22927 12.01 9.12748 11.967 9.02606L11.2629 7.36731C11.2422 7.31861 11.213 7.27571 11.1753 7.23863C11.1375 7.20154 11.0941 7.17309 11.0451 7.15327C10.996 7.13345 10.945 7.12377 10.8921 7.12423C10.8392 7.12469 10.7884 7.13526 10.7397 7.15593L10.7397 7.15593ZM8.69991 11.3861L8.69925 11.3842C8.68203 11.3342 8.67503 11.2828 8.67825 11.23C8.68148 11.1772 8.69469 11.127 8.71789 11.0794C8.74108 11.0319 8.77249 10.9906 8.81212 10.9555C8.85174 10.9204 8.89657 10.8943 8.9466 10.8771L10.6504 10.2904C10.7546 10.2545 10.8562 10.2607 10.9553 10.309C11.0543 10.3573 11.1218 10.4336 11.1576 10.5377L11.1583 10.5396C11.1755 10.5897 11.1825 10.6411 11.1793 10.6939C11.1761 10.7467 11.1628 10.7969 11.1396 10.8444C11.1165 10.892 11.085 10.9333 11.0454 10.9684C11.0058 11.0034 10.961 11.0296 10.9109 11.0468L9.2071 11.6335C9.10292 11.6693 9.00131 11.6631 8.90228 11.6148C8.80324 11.5665 8.73579 11.4903 8.69991 11.3861L8.69991 11.3861Z" id="Vector" fill="#000000" fill-rule="evenodd" stroke="none" artboard="d7102106-4139-441d-a2a7-d05e6687a757" />
  </g>
</svg>