<?xml version="1.0" encoding="utf-8"?>
<svg width="15px" height="15px" viewBox="0 0 15 15" version="1.1" xmlns:xlink="http://www.w3.org/1999/xlink" xmlns="http://www.w3.org/2000/svg">
  <defs>
    <rect width="15" height="15" id="artboard_1" />
    <clipPath id="clip_1">
      <use xlink:href="#artboard_1" clip-rule="evenodd" />
    </clipPath>
  </defs>
  <g id="icon--eat" clip-path="url(#clip_1)">
    <path d="M11.9357 13.501L11.9357 1.499C11.9357 1.3612 11.887 1.24359 11.7895 1.14615C11.6921 1.04872 11.5745 1 11.4367 1L10.6847 1Q10.1582 1 9.77438 1.36054Q9.3906 1.72108 9.35776 2.24663L9.002 7.93868Q8.9891 8.14511 9.05923 8.33969C9.10597 8.46941 9.17655 8.58452 9.27096 8.68501C9.35785 8.7775 9.45869 8.85077 9.5735 8.90483C9.68831 8.95888 10.3081 8.98994 10.4347 8.99799L10.4347 13.501C10.4347 13.6388 10.4834 13.7564 10.5808 13.8538Q10.727 14 10.9337 14L11.4367 14C11.5745 14 11.6921 13.9513 11.7895 13.8538C11.887 13.7564 11.9357 13.6388 11.9357 13.501ZM3.501 1.00201L3.499 1.00201C3.3612 1.00201 3.24359 1.05072 3.14615 1.14816C3.04872 1.2456 3 1.36321 3 1.50101L2.99988 4.00101C2.99988 4.55301 3.19504 5.02419 3.58537 5.41452C3.96281 5.79196 4.41584 5.9869 4.94447 5.99936L4.52915 13.4733C4.52534 13.5418 4.53523 13.6082 4.55881 13.6726C4.58239 13.737 4.61775 13.7941 4.66487 13.8439Q4.73556 13.9186 4.83004 13.9593C4.89302 13.9864 4.9588 14 5.02738 14L5.97239 14Q6.07525 14 6.16973 13.9593C6.23271 13.9322 6.28777 13.8937 6.33489 13.8439C6.38202 13.7941 6.41737 13.737 6.44095 13.6726C6.46454 13.6082 6.47443 13.5418 6.47063 13.4733L6.05551 5.99936C6.58403 5.98685 7.03699 5.79191 7.41438 5.41452C7.80471 5.02419 7.99988 4.55301 7.99988 4.00101L7.99988 1.50101C7.99988 1.36321 7.95116 1.2456 7.85372 1.14816C7.75629 1.05072 7.63867 1.00201 7.50088 1.00201L7.49888 1.00201C7.36108 1.00201 7.24347 1.05072 7.14603 1.14816C7.0486 1.2456 6.99988 1.36321 6.99988 1.50101L6.99988 4.14712C6.99988 4.28492 6.95116 4.40253 6.85372 4.49997C6.75629 4.5974 6.63863 4.64613 6.50083 4.64613L6.49888 4.64613C6.36108 4.64613 6.24347 4.5974 6.14603 4.49997C6.0486 4.40253 5.99988 4.28492 5.99988 4.14712L5.99988 1.50101C5.99988 1.36321 5.95116 1.2456 5.85372 1.14816C5.75629 1.05072 5.63867 1.00201 5.50088 1.00201L5.49888 1.00201C5.36108 1.00201 5.24347 1.05072 5.14603 1.14816C5.0486 1.2456 4.99988 1.36321 4.99988 1.50101L4.99988 4.14712C4.99988 4.28492 4.95116 4.40253 4.85372 4.49997C4.75629 4.5974 4.63862 4.64613 4.50083 4.64613L4.49888 4.64613C4.36108 4.64613 4.24347 4.5974 4.14603 4.49997C4.04859 4.40253 3.99988 4.28492 3.99988 4.14712L4 1.50101C4 1.36321 3.95128 1.2456 3.85384 1.14816C3.75641 1.05072 3.63879 1.00201 3.501 1.00201Z" id="Vector-Union" fill="#000000" fill-rule="evenodd" stroke="none" artboard="c0dc2c90-5898-4a10-a92f-1a23b397e4c3" />
  </g>
</svg>