<?xml version="1.0" encoding="utf-8"?>
<svg width="15px" height="15px" viewBox="0 0 15 15" version="1.1" xmlns:xlink="http://www.w3.org/1999/xlink" xmlns="http://www.w3.org/2000/svg">
  <defs>
    <rect width="15" height="15" id="artboard_1" />
    <clipPath id="clip_1">
      <use xlink:href="#artboard_1" clip-rule="evenodd" />
    </clipPath>
  </defs>
  <g id="icon--fries" clip-path="url(#clip_1)">
    <path d="M5 6L5 4L4 4L4 6L5 6ZM5.07206 7L4.13306 7L4.88306 13L10.1161 13L10.8661 7L9.92006 7L9.79201 8.54229Q9.78816 8.58867 9.7758 8.63354Q9.76344 8.6784 9.74299 8.72021Q9.72255 8.76202 9.69472 8.79933Q9.6669 8.83664 9.63265 8.86815Q9.59841 8.89967 9.55893 8.92431Q9.51945 8.94896 9.47609 8.96587Q9.43274 8.98279 9.387 8.99139Q9.34126 9 9.29472 9L5.69888 9Q5.65237 9 5.60666 8.9914Q5.56095 8.98281 5.51762 8.96592Q5.47429 8.94902 5.43482 8.92441Q5.39536 8.8998 5.36112 8.86831Q5.32689 8.83683 5.29906 8.79957Q5.27123 8.7623 5.25077 8.72054Q5.23031 8.67877 5.21791 8.63394Q5.20552 8.58911 5.20163 8.54276L5.07206 7ZM6 6.096L6.1598 8L7 8L7 3L6 3L6 6.096ZM8.83367 8L9 6L11 6L11 5L10 5L10 6L9 6L9 4L8 4L8 8L8.83367 8ZM10.5595 14L4.44051 14Q4.39527 14 4.35078 13.9919Q4.30628 13.9837 4.26397 13.9677Q4.22166 13.9517 4.18292 13.9284Q4.14418 13.905 4.11027 13.8751Q4.07636 13.8452 4.04838 13.8096Q4.02041 13.7741 3.99928 13.7341Q3.97815 13.6941 3.96456 13.6509Q3.95097 13.6078 3.94536 13.5629L3 6L3 3.499Q3 3.44985 3.00959 3.40165Q3.01918 3.35345 3.03798 3.30804Q3.05679 3.26263 3.0841 3.22177Q3.1114 3.18091 3.14615 3.14615Q3.18091 3.1114 3.22177 3.0841Q3.26263 3.05679 3.30804 3.03798Q3.35345 3.01918 3.40165 3.00959Q3.44985 3 3.499 3L5 3L5 2.499Q5 2.44985 5.00959 2.40165Q5.01918 2.35345 5.03798 2.30804Q5.05679 2.26263 5.0841 2.22177Q5.1114 2.18091 5.14615 2.14615Q5.18091 2.1114 5.22177 2.0841Q5.26263 2.05679 5.30804 2.03798Q5.35345 2.01918 5.40165 2.00959Q5.44985 2 5.499 2L7.501 2Q7.55015 2 7.59835 2.00959Q7.64655 2.01918 7.69196 2.03798Q7.73736 2.05679 7.77823 2.0841Q7.81909 2.1114 7.85385 2.14615Q7.8886 2.18091 7.9159 2.22177Q7.94321 2.26263 7.96201 2.30804Q7.98082 2.35345 7.99041 2.40165Q8 2.44985 8 2.499L8 3L9.501 3Q9.55015 3 9.59835 3.00959Q9.64655 3.01918 9.69196 3.03798Q9.73736 3.05679 9.77823 3.0841Q9.81909 3.1114 9.85385 3.14615Q9.8886 3.18091 9.9159 3.22177Q9.94321 3.26263 9.96202 3.30804Q9.98082 3.35345 9.99041 3.40165Q10 3.44985 10 3.499L10 4L11.501 4Q11.5501 4 11.5983 4.00959Q11.6466 4.01918 11.692 4.03798Q11.7374 4.05679 11.7782 4.0841Q11.8191 4.1114 11.8538 4.14615Q11.8886 4.18091 11.9159 4.22177Q11.9432 4.26263 11.962 4.30804Q11.9808 4.35345 11.9904 4.40165Q12 4.44985 12 4.499L12 6L11.0546 13.5629Q11.049 13.6078 11.0354 13.6509Q11.0218 13.6941 11.0007 13.7341Q10.9796 13.7741 10.9516 13.8096Q10.9236 13.8452 10.8897 13.8751Q10.8558 13.905 10.8171 13.9284Q10.7783 13.9517 10.736 13.9677Q10.6937 13.9837 10.6492 13.9919Q10.6047 14 10.5595 14Z" id="Shape" fill="#000000" fill-rule="evenodd" stroke="none" artboard="43527336-d220-4e64-bd48-5ec08a7af2d2" />
  </g>
</svg>