<?xml version="1.0" encoding="utf-8"?>
<svg width="15px" height="15px" viewBox="0 0 15 15" version="1.1" xmlns:xlink="http://www.w3.org/1999/xlink" xmlns="http://www.w3.org/2000/svg">
  <defs>
    <rect width="15" height="15" id="artboard_1" />
    <clipPath id="clip_1">
      <use xlink:href="#artboard_1" clip-rule="evenodd" />
    </clipPath>
  </defs>
  <g id="icon--grill" clip-path="url(#clip_1)">
    <path d="M12 3.249C12 3.37433 12 3.5 12 3.5C12 3.66925 11.9907 3.83631 11.9725 4.00071C11.9725 4.00071 12.5 4 12.5 4C12.7762 4 13 4.22386 13 4.5C13 4.77614 12.7762 5 12.5 5C12.5 5 11.7436 5.00109 11.7436 5.00109C11.4001 5.97214 10.7327 6.79013 9.87131 7.32525C9.87131 7.32525 11.7221 12.4089 11.7221 12.4089C11.8166 12.6684 11.6828 12.9553 11.4233 13.0497C11.1926 13.1337 10.9403 13.0373 10.8207 12.8326C10.8207 12.8326 10.7824 12.7509 10.7824 12.7509L9.96302 10.5C9.96302 10.5 5.18202 10.5 5.18202 10.5C5.18202 10.5 4.87783 11.337 4.87783 11.337C5.0173 11.5213 5.10002 11.751 5.10002 12C5.10002 12.6075 4.60754 13.1 4.00002 13.1C3.39251 13.1 2.90002 12.6075 2.90002 12C2.90002 11.4023 3.37677 10.9159 3.97075 10.9004C3.97075 10.9004 5.24798 7.39679 5.24798 7.39679C3.90405 6.61843 3.00002 5.16479 3.00002 3.5L3.00002 3.249C3.00002 3.11148 3.11151 3 3.24902 3L11.751 3C11.8885 3 12 3.11148 12 3.249ZM4 11.7C3.83431 11.7 3.7 11.8343 3.7 12C3.7 12.1657 3.83431 12.3 4 12.3C4.16569 12.3 4.3 12.1657 4.3 12C4.3 11.8343 4.16569 11.7 4 11.7ZM8.96465 7.75628C8.50552 7.91424 8.01279 8 7.50004 8C7.03519 8 6.58681 7.92952 6.16499 7.79866L5.36304 10L9.78104 10L8.96465 7.75628ZM10.963 4L4.03601 4L4.04582 4.06772C4.30702 5.66913 5.65501 6.90544 7.30798 6.99482L7.50001 7C9.23971 7 10.683 5.73073 10.9542 4.06772L10.963 4Z" id="Shape" fill="#000000" fill-rule="evenodd" stroke="none" artboard="032dbb76-470a-45df-9775-96704381915a" />
  </g>
</svg>