<?xml version="1.0" encoding="utf-8"?>
<svg width="15px" height="15px" viewBox="0 0 15 15" version="1.1" xmlns:xlink="http://www.w3.org/1999/xlink" xmlns="http://www.w3.org/2000/svg">
  <defs>
    <rect width="15" height="15" id="artboard_1" />
    <clipPath id="clip_1">
      <use xlink:href="#artboard_1" clip-rule="evenodd" />
    </clipPath>
  </defs>
  <g id="icon--hotdog" clip-path="url(#clip_1)">
    <path d="M7.85351 2.19674C8.72691 1.32335 10.0858 1.23128 11.0615 1.92055C11.6185 1.63249 12.3298 1.72328 12.8033 2.19674C13.2424 2.63591 13.3523 3.27963 13.133 3.8212L13.0795 3.93857C13.7687 4.91423 13.6767 6.27309 12.8033 7.14649L7.1464 12.8033C6.27301 13.6767 4.91415 13.7688 3.9384 13.0795C3.38137 13.3676 2.67013 13.2768 2.19666 12.8033C1.75505 12.3617 1.64636 11.7133 1.87057 11.1699L1.92077 11.0609C1.23119 10.0859 1.32326 8.727 2.19666 7.8536L7.85351 2.19674L7.85351 2.19674ZM8.56055 2.90385L2.9037 8.5607C2.4418 9.0226 2.34411 9.71078 2.61063 10.2684L10.2682 2.61078C9.75223 2.36415 9.1244 2.42941 8.66755 2.80656L8.56055 2.90385L8.56055 2.90385ZM11.2476 2.76243L2.76228 11.2477C2.48891 11.5211 2.48891 11.9643 2.76228 12.2377C3.01286 12.4882 3.40617 12.5091 3.68054 12.3003L3.75223 12.2377L12.2375 3.75238C12.5109 3.47901 12.5109 3.0358 12.2375 2.76243C11.9869 2.51184 11.5936 2.49096 11.3192 2.69978L11.2476 2.76243L11.2476 2.76243ZM9.50315 4.75532C9.52483 4.67163 9.58117 4.60244 9.65628 4.56379L9.71589 4.54077L10.8584 4.23452C11.0185 4.19163 11.183 4.28659 11.2259 4.44662C11.2627 4.5838 11.1981 4.72426 11.0782 4.7886L11.0138 4.81406L10.039 5.07536L9.79163 6.03442C9.76984 6.11854 9.71304 6.18798 9.6374 6.22651L9.5774 6.24936L8.61279 6.503L8.36812 7.45756C8.34616 7.54296 8.28814 7.61322 8.21104 7.65152L8.14991 7.67398L7.20919 7.90802L6.95598 8.87094C6.93365 8.95574 6.87573 9.0254 6.79899 9.0634L6.73816 9.0857L5.79639 9.31941L5.53977 10.2877C5.5174 10.3718 5.46004 10.4409 5.38404 10.4789L5.3238 10.5013L4.20237 10.7864C4.04179 10.8272 3.87852 10.7302 3.83769 10.5696C3.8027 10.432 3.86902 10.2923 3.9898 10.2295L4.05452 10.2049L5.00514 9.96358L5.26346 8.99356C5.28596 8.90904 5.34382 8.83967 5.42039 8.80182L5.48107 8.77959L6.42006 8.54583L6.67471 7.58289C6.69704 7.49809 6.75494 7.42844 6.83167 7.39044L6.89249 7.36814L7.83144 7.13445L8.07661 6.18222C8.09829 6.09793 8.15513 6.02831 8.23087 5.98969L8.29097 5.96679L9.25414 5.71317L9.50315 4.75532L9.50315 4.75532ZM4.73254 12.3898C5.24838 12.6359 5.87572 12.5705 6.33228 12.1935L6.43928 12.0962L12.0961 6.43938C12.5578 5.97775 12.6556 5.29009 12.3897 4.73264L4.73254 12.3898L4.73254 12.3898Z" id="Vector" fill="#000000" fill-rule="evenodd" stroke="none" artboard="67f506ed-af03-4f5f-a1bf-7786383de052" />
  </g>
</svg>