<?xml version="1.0" encoding="utf-8"?>
<svg width="15px" height="15px" viewBox="0 0 15 15" version="1.1" xmlns:xlink="http://www.w3.org/1999/xlink" xmlns="http://www.w3.org/2000/svg">
  <defs>
    <rect width="15" height="15" id="artboard_1" />
    <clipPath id="clip_1">
      <use xlink:href="#artboard_1" clip-rule="evenodd" />
    </clipPath>
  </defs>
  <g id="icon--nofood" clip-path="url(#clip_1)">
    <path d="M11.9357 9.73795L9.04041 7.32399L9.35774 2.24663C9.37964 1.89626 9.51851 1.6009 9.77437 1.36054C10.0302 1.12018 10.3337 1 10.6847 1L11.4367 1C11.5744 1 11.6921 1.04872 11.7895 1.14615C11.8869 1.24359 11.9357 1.3612 11.9357 1.499L11.9357 9.73795L11.9357 9.73795ZM3.99996 3.12138L4.00004 1.50101C4.00004 1.36321 3.95132 1.2456 3.85388 1.14816C3.75645 1.05072 3.63883 1.00201 3.50104 1.00201L3.49904 1.00201C3.36124 1.00201 3.24363 1.05072 3.14619 1.14816C3.04876 1.2456 3.00004 1.36321 3.00004 1.50101L3 2.28765L3.99996 3.12138L3.99996 3.12138ZM7.07926 5.68883L4.99988 3.95511L4.99988 1.50101C4.99988 1.36321 5.0486 1.2456 5.14603 1.14816C5.24347 1.05072 5.36108 1.00201 5.49888 1.00201L5.50088 1.00201C5.63867 1.00201 5.75629 1.05072 5.85373 1.14816C5.95116 1.2456 5.99988 1.36321 5.99988 1.50101L5.99988 4.14712C5.99988 4.28492 6.0486 4.40253 6.14603 4.49997C6.24347 4.5974 6.36109 4.64613 6.49888 4.64613L6.50083 4.64613C6.63863 4.64613 6.75629 4.5974 6.85373 4.49997C6.95116 4.40253 6.99988 4.28492 6.99988 4.14712L6.99988 1.50101C6.99988 1.36321 7.0486 1.2456 7.14603 1.14816C7.24347 1.05072 7.36109 1.00201 7.49888 1.00201L7.50088 1.00201C7.63867 1.00201 7.75629 1.05072 7.85372 1.14816C7.95116 1.2456 7.99988 1.36321 7.99988 1.50101L7.99988 4.00101C7.99988 4.55301 7.80471 5.02419 7.41439 5.41452C7.30861 5.52029 7.19691 5.61173 7.07926 5.68883L7.07926 5.68883ZM2.07535 2.79289L13.5 12.2929C13.6952 12.4882 13.6952 12.8047 13.5 13C13.3047 13.1953 12.9881 13.1953 12.7929 13L11.9357 12.2872L11.9357 13.501C11.9357 13.6388 11.887 13.7564 11.7895 13.8538C11.6921 13.9513 11.5745 14 11.4367 14L10.9337 14C10.7959 14 10.6783 13.9513 10.5808 13.8538C10.4834 13.7564 10.4347 13.6388 10.4347 13.501L10.4347 11.0391L6.13693 7.46534L6.47063 13.4733C6.47443 13.5418 6.46454 13.6082 6.44096 13.6726C6.41737 13.737 6.38202 13.7941 6.33489 13.8439C6.28777 13.8937 6.23271 13.9322 6.16973 13.9593C6.10675 13.9864 6.04097 14 5.97239 14L5.02738 14C4.9588 14 4.89302 13.9864 4.83004 13.9593C4.76705 13.9322 4.712 13.8937 4.66487 13.8439C4.61775 13.7941 4.58239 13.737 4.55881 13.6726C4.53523 13.6082 4.52534 13.5418 4.52915 13.4733L4.91927 6.45281L4.16213 5.82322C3.95347 5.7266 3.76122 5.59036 3.58537 5.41452C3.50551 5.33466 3.43382 5.25141 3.3703 5.16478L1.36825 3.5C1.17299 3.30474 1.17299 2.98816 1.36825 2.79289C1.56351 2.59763 1.88009 2.59763 2.07535 2.79289L2.07535 2.79289Z" id="Vector" fill="#000000" fill-rule="evenodd" stroke="none" artboard="68dd84ea-3b42-4efa-8b13-a44737e1b063" />
  </g>
</svg>