<?xml version="1.0" encoding="utf-8"?>
<svg width="15px" height="15px" viewBox="0 0 15 15" version="1.1" xmlns:xlink="http://www.w3.org/1999/xlink" xmlns="http://www.w3.org/2000/svg">
  <defs>
    <rect width="15" height="15" id="artboard_1" />
    <clipPath id="clip_1">
      <use xlink:href="#artboard_1" clip-rule="evenodd" />
    </clipPath>
  </defs>
  <g id="icon--pan" clip-path="url(#clip_1)">
    <path d="M9.5 2C9.77614 2 10 2.22386 10 2.5L9.99929 4L9.90371 4C9.96732 4 10.0303 4.01214 10.0894 4.03576L12.5894 5.03576C12.8458 5.13832 12.9705 5.4293 12.8679 5.6857C12.792 5.87552 12.6082 6 12.4037 6L11.9993 6L11.9993 8L12.5 8C12.7761 8 13 8.22386 13 8.5C13 8.77614 12.7761 9 12.5 9L11.9993 9L12 12.5C12 12.7761 11.7761 13 11.5 13L3.5 13C3.22386 13 3 12.7761 3 12.5L2.99929 9L2.5 9C2.22386 9 2 8.77614 2 8.5C2 8.22386 2.22386 8 2.5 8L2.99929 8L2.99929 6L2.59629 6C2.32015 6 2.09629 5.77614 2.09629 5.5C2.09629 5.29555 2.22077 5.11169 2.4106 5.03576L4.9106 4.03576C4.96966 4.01214 5.03268 4 5.09629 4L4.99929 4L5 2.5C5 2.22386 5.22386 2 5.5 2L9.5 2ZM11 6L4 6L4 12L11 12L11 6ZM9 3L6 3L6 4L9 4L9 3Z" id="Shape" fill="#000000" fill-rule="evenodd" stroke="none" artboard="d25c3142-e753-4c5c-9896-b7c8714be21d" />
  </g>
</svg>