<?xml version="1.0" encoding="utf-8"?>
<svg width="15px" height="15px" viewBox="0 0 15 15" version="1.1" xmlns:xlink="http://www.w3.org/1999/xlink" xmlns="http://www.w3.org/2000/svg">
  <defs>
    <rect width="15" height="15" id="artboard_1" />
    <clipPath id="clip_1">
      <use xlink:href="#artboard_1" clip-rule="evenodd" />
    </clipPath>
  </defs>
  <g id="icon--pizza" clip-path="url(#clip_1)">
    <path d="M6.25409 4.15251C7.28843 4.61289 8.25736 5.26727 9.10575 6.11566C9.95414 6.96405 10.6085 7.93298 11.0689 8.96731C11.2051 9.27336 11.3244 9.58514 11.4266 9.90121L12.3583 9.53288L14.2214 8.7963C13.6243 7.04171 12.6262 5.39345 11.2271 3.99434C9.82795 2.59523 8.17969 1.59712 6.4251 1L5.32019 3.7948C5.63627 3.89705 5.94804 4.01629 6.25409 4.15251L6.25409 4.15251ZM6.62256 3.22031C7.81042 3.74018 8.87383 4.46959 9.81278 5.40854C10.7517 6.3475 11.4812 7.41091 12.001 8.59877L12.9319 8.23074C12.3609 6.91483 11.5568 5.73839 10.5199 4.70144C9.48293 3.66448 8.3065 2.86047 6.99059 2.28941L6.62256 3.22031L6.62256 3.22031ZM0.997423 13.9309L5.18132 4.21535C5.49771 4.31648 5.80961 4.43554 6.11543 4.57254L4.63911 7.92768C5.30423 8.08136 5.80006 8.67738 5.80006 9.38921C5.80006 10.2176 5.12848 10.8892 4.30006 10.8892C3.98516 10.8892 3.69293 10.7922 3.45163 10.6264L2.57846 12.6108L4.80011 11.6749L4.80006 13.0892C4.80006 13.227 4.84877 13.3446 4.94621 13.4421C5.04365 13.5395 5.16126 13.5882 5.29906 13.5882L5.30106 13.5882C5.43885 13.5882 5.55647 13.5395 5.6539 13.4421C5.75134 13.3446 5.80006 13.227 5.80006 13.0892L5.80011 11.2464L8.80006 9.9892L8.80011 12.5902C8.80011 12.9229 8.96644 13.0892 9.29911 13.0892L9.30111 13.0892C9.63377 13.0892 9.80011 12.9229 9.80011 12.5902L9.80011 9.53207L10.6487 9.10585C10.7857 9.41167 10.9048 9.72357 11.0059 10.04L10.6001 10.2129L10.6001 12.5902C10.6001 12.9489 10.4732 13.2551 10.2196 13.5087C9.96594 13.7624 9.65977 13.8892 9.30106 13.8892L9.29906 13.8892C8.94035 13.8892 8.63417 13.7624 8.38053 13.5087C8.12688 13.2551 8.00006 12.9489 8.00006 12.5902L8.00006 11.3209L6.60006 11.9175L6.60001 13.0892C6.60001 13.4479 6.47318 13.7541 6.21954 14.0077C5.96589 14.2614 5.65972 14.3882 5.30101 14.3882L5.29901 14.3882C4.9403 14.3882 4.63412 14.2614 4.38048 14.0077C4.12683 13.7541 4.00001 13.4479 4.00001 13.0892L4.00006 13.0255L1.25911 14.1935C1.00558 14.3016 0.88842 14.184 0.997423 13.9309L0.997423 13.9309ZM6.30005 7.88921C6.30005 7.06078 6.97162 6.38921 7.80005 6.38921C8.62848 6.38921 9.30005 7.06078 9.30005 7.88921C9.30005 8.71763 8.62848 9.38921 7.80005 9.38921C6.97162 9.38921 6.30005 8.71763 6.30005 7.88921L6.30005 7.88921ZM7.1001 7.88921C7.1001 8.35588 7.33343 8.58921 7.8001 8.58921C8.26676 8.58921 8.5001 8.35588 8.5001 7.88921C8.5001 7.42254 8.26676 7.18921 7.8001 7.18921C7.33343 7.18921 7.1001 7.42254 7.1001 7.88921L7.1001 7.88921ZM3.76807 9.90709L4.30396 8.68922C4.53533 8.68987 4.70903 8.7482 4.82504 8.86421C4.94171 8.98088 5.00004 9.15588 5.00004 9.38921C5.00004 9.85588 4.76671 10.0892 4.30004 10.0892C4.06671 10.0892 3.89171 10.0309 3.77504 9.91421C3.77269 9.91186 3.77037 9.90949 3.76807 9.90709L3.76807 9.90709Z" id="Vector" fill="#000000" fill-rule="evenodd" stroke="none" artboard="26d9e0e3-37cb-4090-8c11-b4008dd4b686" />
  </g>
</svg>