<?xml version="1.0" encoding="utf-8"?>
<svg width="15px" height="15px" viewBox="0 0 15 15" version="1.1" xmlns:xlink="http://www.w3.org/1999/xlink" xmlns="http://www.w3.org/2000/svg">
  <defs>
    <rect width="15" height="15" id="artboard_1" />
    <clipPath id="clip_1">
      <use xlink:href="#artboard_1" clip-rule="evenodd" />
    </clipPath>
  </defs>
  <g id="icon--salt-and-pepper" clip-path="url(#clip_1)">
    <path d="M6.82976 3.93348C6.79474 3.40818 6.35844 3 5.83198 3L3.10308 3C2.57662 3 2.14032 3.40818 2.1053 3.93348L2.00225 5.48336L2.01003 5.58988C2.05237 5.82312 2.25651 6 2.50197 6L2.616 6L2 12.4844L2.00781 12.5899C2.05015 12.8231 2.2543 13 2.49976 13L6.4665 12.999C6.7421 12.9818 6.95156 12.7444 6.93433 12.4688L6.318 6L6.43309 6L6.55549 5.98488C6.78541 5.92712 6.94831 5.71166 6.93198 5.46674L6.82976 3.93348L6.82976 3.93348ZM12.8298 3.93348C12.7947 3.40818 12.3584 3 11.832 3L9.10309 3C8.57662 3 8.14032 3.40818 8.1053 3.93348L8.00225 5.48336L8.01003 5.58988C8.05237 5.82312 8.25651 6 8.50198 6L8.616 6L8 12.4844L8.00781 12.5899C8.05015 12.8231 8.2543 13 8.49976 13L12.4665 12.999C12.7421 12.9818 12.9516 12.7444 12.9343 12.4688L12.318 6L12.4331 6L12.5555 5.98488C12.7854 5.92712 12.9483 5.71166 12.932 5.46674L12.8298 3.93348L12.8298 3.93348ZM3.10309 3.8L3.367 3.799L3.37566 3.88062C3.41296 4.06289 3.57423 4.2 3.76753 4.2C3.98845 4.2 4.16753 4.02092 4.16753 3.8L4.767 3.799L4.77566 3.88062C4.81296 4.06289 4.97423 4.2 5.16753 4.2C5.38845 4.2 5.56753 4.02092 5.56753 3.8L5.83198 3.8L5.89249 3.80933C5.96897 3.8336 6.02593 3.90265 6.03154 3.9867L6.11253 5.2L2.82153 5.2L2.90353 3.9867L2.91686 3.92694C2.94616 3.85225 3.01885 3.8 3.10309 3.8L3.10309 3.8ZM9.10309 3.8L9.367 3.799L9.37566 3.88062C9.41296 4.06289 9.57423 4.2 9.76753 4.2C9.98845 4.2 10.1675 4.02092 10.1675 3.8L10.767 3.799L10.7757 3.88062C10.813 4.06289 10.9742 4.2 11.1675 4.2C11.3884 4.2 11.5675 4.02092 11.5675 3.8L11.832 3.8L11.8925 3.80933C11.969 3.8336 12.0259 3.90265 12.0315 3.9867L12.1125 5.2L8.82153 5.2L8.90353 3.9867L8.91687 3.92694C8.94616 3.85225 9.01885 3.8 9.10309 3.8L9.10309 3.8ZM3.40649 6L5.52749 6L5.65249 8L3.28149 8L3.40649 6L3.40649 6ZM9.40649 6L11.5275 6L11.6525 8L9.28149 8L9.40649 6L9.40649 6ZM3.21899 9L5.71499 9L5.90249 12L3.03149 12L3.21899 9L3.21899 9Z" id="Vector" fill="#000000" stroke="none" artboard="a1d2adf1-2f60-4ca4-b87d-378fdfcffea3" />
  </g>
</svg>