<?xml version="1.0" encoding="utf-8"?>
<svg width="15px" height="15px" viewBox="0 0 15 15" version="1.1" xmlns:xlink="http://www.w3.org/1999/xlink" xmlns="http://www.w3.org/2000/svg">
  <defs>
    <rect width="15" height="15" id="artboard_1" />
    <clipPath id="clip_1">
      <use xlink:href="#artboard_1" clip-rule="evenodd" />
    </clipPath>
  </defs>
  <g id="icon--sausage" clip-path="url(#clip_1)">
    <path d="M11.7082 0.306946L12.046 1.14267C11.6214 1.12777 11.2261 1.24735 10.8599 1.50141C10.4062 1.81627 10.1302 2.24543 10.032 2.78892C9.7639 4.27242 9.27537 5.53547 8.5664 6.57807C8.02983 7.36716 7.36698 8.02997 6.57786 8.5665C5.53522 9.2754 4.27214 9.76385 2.78862 10.0318C2.52763 10.079 2.28559 10.1743 2.06251 10.3177C1.83942 10.4612 1.65228 10.6418 1.50107 10.8597C1.34986 11.0776 1.24609 11.3161 1.18978 11.5753C1.13346 11.8345 1.12887 12.0945 1.17602 12.3555C1.18073 12.3816 1.18584 12.4074 1.19136 12.4329L0.131348 12.3587L1.07029 14.1245L1.57547 13.2494C1.69424 13.3961 1.83704 13.5273 2.00388 13.6431C2.45761 13.958 2.95622 14.0663 3.49971 13.9681C6.15889 13.4878 8.4483 12.2878 10.368 10.3682C12.2876 8.44871 13.4877 6.15938 13.9682 3.50024C14.0154 3.23925 14.0108 2.97917 13.9545 2.72C13.8982 2.46083 13.7945 2.22229 13.6433 2.0044C13.4921 1.7865 13.3049 1.60583 13.0819 1.46238C13.0538 1.44433 13.0254 1.42705 12.9968 1.41052L13.6779 0.654246L11.7082 0.306946L11.7082 0.306946ZM12.9774 2.93228C13.0055 3.06187 13.0078 3.19191 12.9842 3.3224C12.5408 5.77621 11.433 7.88911 9.66093 9.66112C7.88882 11.4331 5.77585 12.5408 3.322 12.9841C3.05026 13.0331 2.80095 12.979 2.57409 12.8215C2.34722 12.6641 2.20925 12.4495 2.16016 12.1778C2.13658 12.0473 2.13887 11.9172 2.16703 11.7876C2.19519 11.6581 2.24708 11.5388 2.32268 11.4298C2.39829 11.3209 2.49186 11.2306 2.6034 11.1589C2.71494 11.0871 2.83596 11.0395 2.96645 11.0159C4.00728 10.8279 4.95284 10.538 5.80316 10.1462L6.18078 10.7505C6.2538 10.8674 6.35745 10.9413 6.49171 10.9723C6.62597 11.0033 6.75153 10.9823 6.86839 10.9093L6.87009 10.9082C6.9262 10.8732 6.97347 10.8287 7.0119 10.7748C7.05033 10.7209 7.07698 10.6618 7.09187 10.5973C7.10675 10.5328 7.10873 10.468 7.09781 10.4027C7.08689 10.3374 7.0639 10.2767 7.02883 10.2206L6.69082 9.67969C6.84429 9.58821 6.99408 9.4928 7.14019 9.39345C7.46682 9.17137 7.77436 8.93019 8.06281 8.66992L8.5007 9.10782C8.54749 9.15461 8.60145 9.19066 8.66259 9.21599C8.72372 9.24131 8.78737 9.25397 8.85354 9.25397C8.91972 9.25397 8.98337 9.24131 9.0445 9.21599C9.10564 9.19066 9.1596 9.15461 9.20639 9.10782L9.2078 9.1064C9.30524 9.00897 9.35396 8.89135 9.35396 8.75355C9.35396 8.61576 9.30524 8.49815 9.2078 8.40071L8.76395 7.95685C8.9885 7.69943 9.19831 7.42727 9.3934 7.14038C9.51235 6.96544 9.62567 6.78524 9.73336 6.59976L10.26 6.92883C10.3768 7.00185 10.5024 7.02286 10.6367 6.99187C10.7709 6.96087 10.8746 6.88694 10.9476 6.77009L10.9486 6.76839C11.0217 6.65153 11.0427 6.52597 11.0117 6.39171C10.9807 6.25745 10.9068 6.15381 10.7899 6.08078L10.1904 5.70618C10.5599 4.8812 10.8352 3.96805 11.0161 2.96674C11.0652 2.695 11.2032 2.48042 11.4301 2.32299C11.657 2.16557 11.9063 2.1114 12.178 2.16051C12.3085 2.18409 12.4295 2.23175 12.541 2.30347C12.6526 2.3752 12.7462 2.46553 12.8217 2.57448C12.8973 2.68343 12.9492 2.8027 12.9774 2.93228L12.9774 2.93228Z" id="Vector" fill="#000000" fill-rule="evenodd" stroke="none" artboard="6df47622-9efd-4195-bb0a-392b886267cf" />
  </g>
</svg>