<?xml version="1.0" encoding="utf-8"?>
<svg width="15px" height="15px" viewBox="0 0 15 15" version="1.1" xmlns:xlink="http://www.w3.org/1999/xlink" xmlns="http://www.w3.org/2000/svg">
  <defs>
    <rect width="15" height="15" id="artboard_1" />
    <clipPath id="clip_1">
      <use xlink:href="#artboard_1" clip-rule="evenodd" />
    </clipPath>
  </defs>
  <g id="icon--smoker" clip-path="url(#clip_1)">
    <path d="M1 1L1 6L2 6L2 5.5C2 5.22386 2.22386 5 2.5 5L10.5 5C10.7761 5 11 5.22386 11 5.5L11 7L14.5 7C14.7761 7 15 7.22386 15 7.5L15 11.5C15 11.7761 14.7761 12 14.5 12L10.5 12C10.2239 12 10 11.7761 10 11.5L10 10L9 10L9 15L8 15L8 14L5.02002 14.0009C4.80978 14.6392 4.2087 15.1 3.5 15.1C2.61634 15.1 1.9 14.3837 1.9 13.5C1.9 12.7909 2.36124 12.1896 3.00006 11.9797L3 10L2.5 10C2.22386 10 2 9.77614 2 9.5L2 7L0.5 7C0.223858 7 3.38177e-17 6.77614 0 6.5L0 1L1 1ZM3.50005 12.8C3.11345 12.8 2.80005 13.1134 2.80005 13.5C2.80005 13.8866 3.11345 14.2 3.50005 14.2C3.88665 14.2 4.20005 13.8866 4.20005 13.5C4.20005 13.1134 3.88665 12.8 3.50005 12.8ZM8 10L4 10L4.00094 11.98C4.48199 12.1384 4.8622 12.5189 5.02034 13.0001L8 13L8 10ZM14 8L13.0019 8L13.0019 8.50551C13.0019 8.77943 12.7798 9.0015 12.5059 9.0015C12.2319 9.0015 12.0099 8.77943 12.0099 8.50551L12.0099 8L11 8L11 11L14 11L14 8ZM3 9L10 9L10 6L9 6L9 7.5C9 7.77614 8.77614 8 8.5 8L4.5 8C4.22386 8 4 7.77614 4 7.5L4 6L3 6L3 9ZM8 6L5 6L5 7L8 7L8 6Z" id="Shape" fill="#000000" fill-rule="evenodd" stroke="none" artboard="120079dd-9dde-4e87-88aa-7cf274db28d7" />
  </g>
</svg>