<?xml version="1.0" encoding="utf-8"?>
<svg width="15px" height="15px" viewBox="0 0 15 15" version="1.1" xmlns:xlink="http://www.w3.org/1999/xlink" xmlns="http://www.w3.org/2000/svg">
  <defs>
    <rect width="15" height="15" id="artboard_1" />
    <clipPath id="clip_1">
      <use xlink:href="#artboard_1" clip-rule="evenodd" />
    </clipPath>
  </defs>
  <g id="icon--steak" clip-path="url(#clip_1)">
    <path d="M11.25 2.72492C12.9363 2.5817 14 3.95613 14 5.47492L14 7.85556C14 9.78856 12.4203 10.8708 10.5 11.0447L3.5 11.3556C2.11929 11.3556 1 10.2363 1 8.85556L1.00053 6.9162L1.00501 6.80516C1.00733 6.78005 1.01051 6.76641 1.01469 6.76291C1.13044 5.77075 1.97521 5 3 5L4.75 5C5.47636 5 6.1636 4.68432 6.63637 4.14062L6.75 4C7.22214 3.37049 7.76862 3.093 8.65876 2.97129C9.54891 2.84957 9.56366 2.86813 11.25 2.72492ZM11.3826 3.57604L8.75005 3.8C8.26847 3.8 7.81219 4.00406 7.4917 4.35694L7.39005 4.48C6.80838 5.25556 5.91758 5.73327 4.95689 5.79352L4.75005 5.8L3.00005 5.8C2.37873 5.8 1.8677 6.2722 1.80624 6.87731L1.80005 7L1.80005 7.5C1.80005 8.38947 2.48316 9.11939 3.35337 9.19376L3.50005 9.2L10.7584 9.02004C12.1923 9.02004 13.1066 8.08237 13.1947 6.67075L13.2 6.5L13.2 5.5203C13.2 4.4923 12.5372 3.65583 11.5282 3.58139L11.3826 3.57604ZM5.58517 6.60474L5.9221 6.62221C6.79628 6.68592 7.1057 6.87987 7.26467 7.36013L7.35466 7.67045C7.44212 7.95602 7.54282 8.19926 7.66021 8.40201L3.49998 8.4L3.38708 8.39299C2.98029 8.34208 2.6579 8.01968 2.60699 7.61289L2.59998 7.5L2.59998 7L2.6081 6.91939C2.64007 6.76315 2.76313 6.6401 2.91936 6.60813L2.99998 6.6L4.74998 6.6L5.58517 6.60474ZM11.2817 4.39549L11.407 4.40224C11.9421 4.46021 12.3353 4.8515 12.3933 5.38653L12.4 5.75L12.4 6.5L12.3943 6.64848C12.3225 7.57685 11.5836 8.3182 10.6562 8.39367L10.5 8.4L9.02002 8.4L8.92879 8.39166C8.54381 8.36037 8.32129 8.11673 8.11648 7.42779L8.0309 7.1277C7.83916 6.51681 7.51278 6.17028 6.90833 5.98484C7.33801 5.7198 7.71947 5.37407 8.03002 4.96C8.17571 4.76575 8.3925 4.64001 8.62986 4.60805L8.75002 4.6L11.2817 4.39549ZM10.1822 5.13959L10.1303 5.2134L10.0303 5.3866C9.9076 5.59918 9.9587 5.86441 10.1395 6.0177L10.2133 6.06962L10.3865 6.16962C10.5991 6.29235 10.8644 6.24124 11.0176 6.06041L11.0696 5.9866L11.1696 5.8134C11.2923 5.60082 11.2412 5.33559 11.0604 5.1823L10.9865 5.13038L10.8133 5.03039C10.6008 4.90765 10.3355 4.95876 10.1822 5.13959Z" id="Shape" fill="#000000" fill-rule="evenodd" stroke="none" artboard="f5760511-46fa-4007-b17b-8dae90c3a5ab" />
  </g>
</svg>