<?xml version="1.0" encoding="utf-8"?>
<svg width="15px" height="15px" viewBox="0 0 15 15" version="1.1" xmlns:xlink="http://www.w3.org/1999/xlink" xmlns="http://www.w3.org/2000/svg">
  <defs>
    <rect width="15" height="15" id="artboard_1" />
    <clipPath id="clip_1">
      <use xlink:href="#artboard_1" clip-rule="evenodd" />
    </clipPath>
  </defs>
  <g id="icon--tea" clip-path="url(#clip_1)">
    <path d="M3.89199 11.5552C3.92013 11.8084 4.13416 12 4.38893 12L9.49389 12C9.74866 12 9.9627 11.8084 9.99083 11.5552L10.163 9.999L11.1644 10C11.9477 10 12.5991 9.39732 12.6599 8.61641L12.8156 6.61641L12.8201 6.5C12.8201 5.67157 12.1485 5 11.3201 5L10.718 4.999L10.8797 3.55522L10.8828 3.5C10.8828 3.22386 10.6589 3 10.3828 3L7.5 3.00032L7.5 3L6.5 3L6.5 3.00043L3.47239 3.00077L3.44483 3.00306C3.17037 3.03355 2.97261 3.28076 3.0031 3.55522L3.89199 11.5552ZM6.5 3.99785L4.05737 3.997L4.83637 11L9.04537 11L9.82337 3.999L7.5 3.9982L7.5 5L8 5L9 6.53003L9 9L5 9L5 6.5L6 5L6.5 5L6.5 3.99785ZM10.274 8.999L10.607 5.999L11.3202 6L11.41 6.00806C11.6433 6.05039 11.8202 6.25454 11.8202 6.5L11.8198 6.51942L11.663 8.5388L11.6491 8.62318C11.5939 8.84127 11.3966 9 11.1645 9L10.274 8.999ZM6.53518 6L7.45894 6L8 6.82784L8 8L6 8L6 6.80278L6.53518 6Z" id="Vector-Union-Union" fill="#000000" fill-rule="evenodd" stroke="none" artboard="bae276a1-d31e-42ae-83d7-94128eb1b340" />
  </g>
</svg>