<?xml version="1.0" encoding="utf-8"?>
<svg width="15px" height="15px" viewBox="0 0 15 15" version="1.1" xmlns:xlink="http://www.w3.org/1999/xlink" xmlns="http://www.w3.org/2000/svg">
  <defs>
    <rect width="15" height="15" id="artboard_1" />
    <clipPath id="clip_1">
      <use xlink:href="#artboard_1" clip-rule="evenodd" />
    </clipPath>
  </defs>
  <g id="icon--trowel" clip-path="url(#clip_1)">
    <path d="M14.5232 3.91247C14.7185 4.10773 14.7185 4.42431 14.5232 4.61958L14.4745 4.66232L10.4781 7.73691C10.279 7.89006 9.99721 7.87177 9.81962 7.69417L8.91518 6.78974L5.08691 10.618L5.44055 10.972C5.63582 11.1672 5.63582 11.4838 5.44055 11.6791L2.61213 14.5075C2.41687 14.7028 2.10028 14.7028 1.90502 14.5075L0.490807 13.0933C0.295545 12.898 0.295545 12.5814 0.490807 12.3862L3.31923 9.55775C3.5145 9.36249 3.83108 9.36249 4.02634 9.55775L4.3798 9.9109L8.20808 6.08263L7.36164 5.2362C7.18598 5.06053 7.16593 4.78253 7.31457 4.58347L10.3375 0.535361C10.5028 0.314103 10.8161 0.26868 11.0373 0.433906L11.0654 0.456461L14.5232 3.91247ZM4.37994 11.3255L3.67283 10.6184L1.55151 12.7397L2.25862 13.4468L4.37994 11.3255ZM13.716 4.23662L10.7709 1.29152L8.11072 4.85392L10.1988 6.94201L13.716 4.23662ZM11.2641 2.77473C11.3632 2.87382 11.3673 3.03315 11.2736 3.13728L9.59775 4.99797C9.52467 5.07911 9.4083 5.09808 9.3152 5.0514L9.25366 5.00695C9.15458 4.90786 9.15041 4.74854 9.24419 4.64441L10.92 2.78372C10.9931 2.70258 11.1095 2.68361 11.2026 2.73029L11.2641 2.77473ZM12.2321 3.74315C12.3052 3.82429 12.3119 3.942 12.2558 4.02973L12.2146 4.07824L10.3539 5.75405C10.2671 5.8322 10.142 5.84234 10.0454 5.7862L9.98284 5.7356C9.90976 5.65445 9.90303 5.53674 9.95916 5.44901L10.0004 5.4005L11.861 3.72469C11.9503 3.64431 12.0801 3.63588 12.1778 3.69752L12.2321 3.74315Z" id="Shape" fill="#000000" fill-rule="evenodd" stroke="none" artboard="56f8da56-3eb6-410b-9b0a-08116bdef345" />
  </g>
</svg>