<?xml version="1.0" encoding="utf-8"?>
<svg width="15px" height="15px" viewBox="0 0 15 15" version="1.1" xmlns:xlink="http://www.w3.org/1999/xlink" xmlns="http://www.w3.org/2000/svg">
  <defs>
    <rect width="15" height="15" id="artboard_1" />
    <clipPath id="clip_1">
      <use xlink:href="#artboard_1" clip-rule="evenodd" />
    </clipPath>
  </defs>
  <g id="icon--water-ice" clip-path="url(#clip_1)">
    <path d="M6.64741 1.097C6.03872 1.24252 5.49786 1.5518 5.02483 2.02483C4.34161 2.70806 4 3.53278 4 4.499L4 10L11 10L11 4.52869C10.8624 4.5615 10.716 4.56731 10.5678 4.54119C10.5473 4.53758 10.5271 4.53341 10.5071 4.52869C10.2651 4.47159 10.0603 4.33483 9.91571 4.15153C9.8051 4.01127 9.72981 3.84376 9.70023 3.66384C9.53955 3.73483 9.35986 3.76687 9.17514 3.75017C9.14513 3.74745 9.11498 3.74345 9.08477 3.73813C8.50461 3.63583 8.11723 3.08259 8.21953 2.50244C8.22906 2.44837 8.24251 2.39597 8.25954 2.34549C8.27377 2.30329 8.2905 2.26242 8.30953 2.22303C8.26838 2.20623 8.22865 2.18699 8.19051 2.16552C7.89645 2.00006 7.69592 1.70209 7.65475 1.36565C7.64221 1.26327 7.64444 1.15732 7.66329 1.05045C7.66603 1.0349 7.6691 1.01948 7.67248 1.0042C7.64392 1.0028 7.61535 1.00175 7.58677 1.00105C7.55818 1.00035 7.52959 1 7.501 1L7.499 1C7.20174 1 6.91788 1.03233 6.64741 1.097L6.64741 1.097ZM6.76827 2.10205C6.38315 2.21622 6.0377 2.42618 5.73194 2.73195C5.24398 3.21991 5 3.80893 5 4.49901L5 9.00001L10 9.00001C10 9.00001 10 5.42682 10 5.42682C9.55316 5.40925 9.20892 4.99943 9.3 4.6C8.01307 4.7683 7.10293 3.83871 7.3 2.6C6.94795 2.57891 6.8113 2.31899 6.76827 2.10205C6.76827 2.10205 6.76827 2.10205 6.76827 2.10205ZM6.19995 12.701L6.19995 10.5L7 10.5L7 12.701C7 12.8388 7.04872 12.9564 7.14615 13.0538C7.24359 13.1513 7.3612 13.2 7.499 13.2L7.501 13.2C7.63879 13.2 7.75641 13.1513 7.85385 13.0538C7.95128 12.9564 8 12.8388 8 12.701L8 10.5L8.79995 10.5L8.79995 12.701C8.79995 13.0597 8.67313 13.3659 8.41948 13.6195C8.16584 13.8732 7.85966 14 7.50095 14L7.49895 14C7.14024 14 6.83406 13.8732 6.58042 13.6195C6.32677 13.3659 6.19995 13.0597 6.19995 12.701L6.19995 12.701Z" id="Vector-Copy" fill="#000000" fill-rule="evenodd" stroke="none" artboard="15344880-5976-49ac-95ae-4425d4913bfb" />
  </g>
</svg>