<?xml version="1.0" encoding="utf-8"?>
<svg width="15px" height="15px" viewBox="0 0 15 15" version="1.1" xmlns:xlink="http://www.w3.org/1999/xlink" xmlns="http://www.w3.org/2000/svg">
  <defs>
    <rect width="15" height="15" id="artboard_1" />
    <clipPath id="clip_1">
      <use xlink:href="#artboard_1" clip-rule="evenodd" />
    </clipPath>
  </defs>
  <g id="icon--wine" clip-path="url(#clip_1)">
    <path d="M10.7143 1L4.28572 1L3.71143 4.29851C3.6183 4.83342 3.63347 5.36522 3.75696 5.89394C3.88044 6.42266 4.10239 6.90618 4.42281 7.34449C4.74324 7.7828 5.13661 8.14101 5.60294 8.41909C6.03752 8.67826 6.50321 8.8486 7 8.93013L7 13L5.499 13C5.36121 13 5.24359 13.0487 5.14615 13.1462C5.04872 13.2436 5 13.3612 5 13.499L5 13.501C5 13.6388 5.04872 13.7564 5.14615 13.8538C5.24359 13.9513 5.36121 14 5.499 14L9.501 14C9.63879 14 9.75641 13.9513 9.85385 13.8538C9.95128 13.7564 10 13.6388 10 13.501L10 13.499C10 13.3612 9.95128 13.2436 9.85385 13.1462C9.75641 13.0487 9.63879 13 9.501 13L8 13L8 8.93014C8.4968 8.84861 8.96249 8.67826 9.39708 8.41909C9.86341 8.14101 10.2568 7.7828 10.5772 7.34449C10.8976 6.90618 11.1196 6.42266 11.2431 5.89394C11.3665 5.36522 11.3817 4.83342 11.2886 4.29851L10.7143 1L10.7143 1ZM9.87332 2L5.12662 2L4.95251 3L10.0474 3L9.87332 2L9.87332 2ZM4.69656 4.47004L4.81322 3.8L10.1867 3.8L10.3034 4.47004C10.4491 5.30704 10.2713 6.06847 9.76987 6.75433C9.26848 7.4402 8.5969 7.84068 7.75515 7.9558L7.49996 7.99069L7.24478 7.9558C6.40302 7.84068 5.73145 7.4402 5.23006 6.75433C4.72867 6.06847 4.55084 5.30704 4.69656 4.47004L4.69656 4.47004Z" id="Vector" fill="#000000" fill-rule="evenodd" stroke="none" artboard="af308a4d-2cfb-4904-a24d-2a07813dfcea" />
  </g>
</svg>