<?xml version="1.0" encoding="utf-8"?>
<svg width="21px" height="15px" viewBox="0 0 21 15" version="1.1" xmlns:xlink="http://www.w3.org/1999/xlink" xmlns="http://www.w3.org/2000/svg">
  <defs>
    <rect width="21" height="15" id="artboard_1" />
    <clipPath id="clip_1">
      <use xlink:href="#artboard_1" clip-rule="evenodd" />
    </clipPath>
  </defs>
  <g id="icon--gesture_pinchen" clip-path="url(#clip_1)">
    <use xlink:href="#artboard_1" stroke="none" fill="#FFFFFF" />
    <path d="M4.94774 -0.061712C4.88581 -0.310112 4.59004 -0.487832 4.34164 -0.425899C4.09324 -0.363966 3.90584 -0.107003 3.96777 0.141398L4.62376 2.77243C4.68569 3.02083 4.98147 3.19855 5.22987 3.13661L7.86089 2.48063C8.10929 2.41869 8.2482 2.1326 8.18627 1.88419C8.12434 1.63579 7.82856 1.45807 7.58016 1.52001L6.09908 1.9775L7.45002 -0.270852C7.59225 -0.507552 7.51565 -0.814724 7.27895 -0.956948C7.04225 -1.09917 6.73508 -1.02259 6.59286 -0.78589L5.23951 1.46452L4.94774 -0.061712L4.94774 -0.061712ZM9.54 8.96818L9.532 2.62856C9.53225 2.21454 9.67775 1.85982 9.97084 1.5681C10.2636 1.27502 10.6171 1.12932 11.0312 1.12957L11.0325 1.12923C11.447 1.12863 11.7999 1.27533 12.093 1.56808C12.3852 1.86031 12.5323 2.21354 12.532 2.62751L12.5325 5.16058C12.627 5.13917 12.7273 5.12948 12.8314 5.12903L13.2329 5.12877C13.5913 5.12831 13.8986 5.25576 14.1512 5.50905C14.3415 5.6992 14.4608 5.91794 14.508 6.1656C14.6104 6.14079 14.7181 6.1285 14.8312 6.12876L15.2335 6.12902C15.5919 6.12856 15.8983 6.25548 16.1509 6.50877C16.3412 6.69891 16.4606 6.91767 16.5086 7.16583C16.6101 7.14051 16.7187 7.12877 16.8317 7.12901L17.2332 7.12874C17.5917 7.12829 17.8989 7.25572 18.1515 7.50902C18.4055 7.76196 18.5329 8.06836 18.5329 8.42763L18.5326 11.6299C18.5325 12.3193 18.2894 12.9082 17.8012 13.3965C17.313 13.8848 16.7244 14.1285 16.0336 14.1287L10.8384 14.129L10.8382 14.1313L5.96456 11.183C5.61158 10.9686 5.37871 10.663 5.26627 10.2677C5.153 9.87176 5.19082 9.4885 5.37781 9.11905L5.38056 9.11251C5.56788 8.75027 5.84775 8.49027 6.22551 8.33342C6.60599 8.17588 6.99066 8.16086 7.38109 8.2858L9.54 8.96818L9.54 8.96818ZM10.5336 10.3492L10.5378 10.354L10.5318 2.62849C10.5323 2.48993 10.58 2.37162 10.6777 2.27513C10.775 2.17727 10.8926 2.12898 11.0312 2.1294L11.0326 2.12905C11.1712 2.12951 11.2881 2.17759 11.386 2.27491C11.483 2.37168 11.5321 2.48987 11.5322 2.62758L11.5331 6.42781L12.5329 6.42777C12.5326 6.34475 12.5618 6.27482 12.6193 6.21601C12.6785 6.15826 12.7485 6.12915 12.8315 6.12887L13.2338 6.12913C13.3154 6.12917 13.3868 6.15802 13.4442 6.21586C13.5033 6.27472 13.5324 6.34471 13.5327 6.4277L13.5328 7.42754L14.5326 7.4275C14.5323 7.34448 14.5615 7.27455 14.619 7.21574C14.6782 7.15799 14.7482 7.12888 14.8312 7.12858L15.2335 7.12884C15.3152 7.1289 15.3865 7.15777 15.4448 7.2161C15.5039 7.27495 15.5322 7.34444 15.5324 7.42743L15.5325 8.42729L16.5323 8.42723C16.5329 8.34475 16.5612 8.27426 16.6196 8.21601C16.6788 8.15824 16.7488 8.12913 16.8318 8.12883L17.2333 8.12857C17.3158 8.12915 17.3862 8.15749 17.4445 8.21583C17.5036 8.27468 17.5327 8.34468 17.533 8.4277L17.5327 11.6299C17.5333 12.6289 17.0334 13.1288 16.0335 13.1289L11.2304 13.1291L11.1201 13.1282L6.4827 10.3266C6.35378 10.248 6.26945 10.1378 6.22736 9.99233C6.18614 9.84738 6.19858 9.71019 6.26381 9.58024L6.26845 9.57252C6.34401 9.42542 6.45709 9.32073 6.6101 9.25633C6.76209 9.19364 6.91644 9.18723 7.07402 9.23759L10.5336 10.3492L10.5336 10.3492ZM4.3942 6.79672C4.45613 7.04512 4.75191 7.22284 5.00031 7.1609C5.24871 7.09897 5.43611 6.84201 5.37417 6.59361L4.71818 3.96258C4.65625 3.71418 4.36047 3.53646 4.11207 3.59839L1.48104 4.25439C1.23264 4.31632 1.09374 4.60242 1.15567 4.85082C1.2176 5.09922 1.51338 5.27694 1.76178 5.215L3.24286 4.75751L1.89192 7.00586C1.7497 7.24256 1.82629 7.54974 2.06299 7.69196C2.29969 7.83418 2.60687 7.7576 2.74909 7.5209L4.10243 5.27049L4.3942 6.79672L4.3942 6.79672Z" id="Vector" fill="#000000" fill-rule="evenodd" stroke="none" artboard="bc56bad5-26d5-45c6-9fcd-ce108ad8878a" />
  </g>
</svg>