<?xml version="1.0" encoding="utf-8"?>
<svg width="15px" height="15px" viewBox="0 0 15 15" version="1.1" xmlns:xlink="http://www.w3.org/1999/xlink" xmlns="http://www.w3.org/2000/svg">
  <defs>
    <rect width="15" height="15" id="artboard_1" />
    <clipPath id="clip_1">
      <use xlink:href="#artboard_1" clip-rule="evenodd" />
    </clipPath>
  </defs>
  <g id="icon--gesture_scroll_horizontal" clip-path="url(#clip_1)">
    <use xlink:href="#artboard_1" stroke="none" fill="#FFFFFF" />
    <path d="M2.23196 1.30076C2.41298 1.48178 2.41298 1.82684 2.23196 2.00787L1.074 3.04403L3.7 3.04502C3.97614 3.04502 4.19999 3.26888 4.19999 3.54502C4.19999 3.82116 3.97614 4.04502 3.7 4.04502L1.077 4.04503L2.23196 5.07893C2.41298 5.25996 2.41298 5.60502 2.23196 5.78604C2.05094 5.96706 1.73416 5.99535 1.55314 5.81432L-0.364234 3.89695C-0.545258 3.71593 -0.545258 3.37087 -0.364234 3.18985L1.55314 1.27248C1.73416 1.09145 2.05094 1.11974 2.23196 1.30076L2.23196 1.30076ZM10.768 5.09217C10.587 5.2732 10.587 5.61826 10.768 5.79928C10.9491 5.9803 11.2658 6.00859 11.4469 5.82756L13.3642 3.91019C13.5453 3.72916 13.5453 3.3841 13.3642 3.20308L11.4469 1.28571C11.2658 1.10469 10.9491 1.13298 10.768 1.314C10.587 1.49502 10.587 1.84008 10.768 2.02111L11.923 3.05501L9.3 3.05502C9.02386 3.05502 8.80001 3.27888 8.80001 3.55502C8.80001 3.83117 9.02386 4.05502 9.3 4.05502L11.926 4.05601L10.768 5.09217L10.768 5.09217ZM6.50101 2.05003C6.9149 2.05009 7.26822 2.19639 7.56097 2.48899C7.85366 2.78165 8 3.13505 8 3.54905L8 6.08207C8.09527 6.06071 8.19493 6.05002 8.299 6.05002L8.70101 6.05002C9.05971 6.05002 9.36586 6.1768 9.61947 6.4304C9.80922 6.62003 9.92801 6.83915 9.97583 7.08774C10.0784 7.0626 10.1861 7.05002 10.299 7.05002L10.701 7.05002C11.0597 7.05002 11.3659 7.17686 11.6196 7.43046C11.8093 7.62022 11.928 7.83927 11.9758 8.08774C12.0784 8.0626 12.1861 8.05002 12.299 8.05002L12.701 8.05002C13.0597 8.05009 13.3659 8.17686 13.6195 8.43046C13.8732 8.68406 14 8.99027 14 9.34904L14 12.5512C14 13.2412 13.756 13.8302 13.2681 14.3183C12.7801 14.8062 12.1911 15.0501 11.501 15.0502L6.30211 15.0502L2.14858 11.1528C1.84771 10.8705 1.68322 10.5235 1.65508 10.1119C1.62706 9.70212 1.74321 9.33555 2.00351 9.01212L2.00711 9.00755C2.26493 8.69114 2.59477 8.49552 2.99663 8.42063C3.40035 8.34537 3.78021 8.41007 4.13622 8.61472L5 9.11124L5 3.54905C5.00003 3.13505 5.1464 2.78165 5.43911 2.48899C5.73182 2.19633 6.08512 2.05003 6.49901 2.05003L6.50101 2.05003L6.50101 2.05003ZM10 8.34904L9 8.34904L9 7.34904C9 7.26646 8.97084 7.19596 8.91251 7.13767C8.85406 7.07926 8.78356 7.05002 8.701 7.05002L8.29899 7.05002C8.21644 7.05002 8.14597 7.0792 8.08757 7.13761C8.02919 7.19596 8 7.26646 8 7.34904L7 7.34904L7 3.54905C7 3.41123 6.95128 3.29362 6.85384 3.19614C6.75644 3.09867 6.63883 3.04996 6.501 3.05003L6.499 3.05003C6.36118 3.05002 6.24355 3.09873 6.14611 3.19614C6.04871 3.29362 6 3.41123 6 3.54905L6 10.8395L3.63787 9.48167C3.49472 9.39945 3.34204 9.37345 3.17982 9.40366C3.01755 9.43388 2.88447 9.51316 2.78058 9.64146L2.77465 9.6486C2.6831 9.76169 2.64246 9.89341 2.65274 10.0436C2.66301 10.1938 2.72305 10.3205 2.83287 10.4236L6.69782 14.0502L11.501 14.0502C12.5003 14.0502 13 13.5505 13 12.5512L13 9.34904C13 9.26646 12.9708 9.19596 12.9124 9.13761C12.854 9.0792 12.7836 9.05003 12.701 9.05003L12.299 9.05003C12.2164 9.04996 12.146 9.0792 12.0876 9.13761C12.0292 9.19596 12 9.26646 12 9.34904L11 9.34904L11 8.34904C11 8.26646 10.9708 8.1959 10.9124 8.13749C10.854 8.0792 10.7836 8.05002 10.701 8.05002L10.299 8.05002C10.2164 8.05002 10.1459 8.0792 10.0875 8.13761C10.0292 8.19596 10 8.26646 10 8.34904L10 8.34904Z" id="Vector" fill="#000000" fill-rule="evenodd" stroke="none" artboard="81aaa9f5-146c-4724-aa93-c9498cc5bb25" />
  </g>
</svg>