<?xml version="1.0" encoding="utf-8"?>
<svg width="15px" height="15px" viewBox="0 0 15 15" version="1.1" xmlns:xlink="http://www.w3.org/1999/xlink" xmlns="http://www.w3.org/2000/svg">
  <defs>
    <rect width="15" height="15" id="artboard_1" />
    <clipPath id="clip_1">
      <use xlink:href="#artboard_1" clip-rule="evenodd" />
    </clipPath>
  </defs>
  <g id="icon--gesture_move-two-finger" clip-path="url(#clip_1)">
    <use xlink:href="#artboard_1" stroke="none" fill="#FFFFFF" />
    <path d="M7.04598 2.09799C7.11199 1.85199 7.24099 1.63199 7.43499 1.439C7.72799 1.146 8.08098 1 8.49499 1L8.497 1C8.91097 1 9.264 1.146 9.557 1.439C9.84899 1.73199 9.99599 2.08499 9.99599 2.49899L9.99599 7.03799C10.079 7.022 10.209 7 10.299 7L10.701 7C11.06 7 11.366 7.12698 11.62 7.38C11.809 7.57001 11.928 7.789 11.976 8.03799C12.078 8.013 12.186 8 12.299 8L12.701 8C13.06 8 13.366 8.12698 13.62 8.38C13.873 8.634 14 8.94 14 9.29898L14 12.501C14 13.191 13.756 13.78 13.268 14.268C12.78 14.756 12.191 15 11.501 15L6.30199 15L2.14898 11.103C1.84798 10.82 1.68297 10.473 1.65499 10.062C1.62697 9.65201 1.74297 9.28598 2.00399 8.96201L2.00698 8.95801C2.26497 8.64099 2.59499 8.44598 2.997 8.371C3.39998 8.29498 3.77999 8.35999 4.13598 8.565L4.99999 9.061L4.99999 3.49899C4.99999 3.08499 5.14599 2.73199 5.43899 2.439C5.73199 2.146 6.08498 2 6.49898 2L6.501 2C6.69597 2 6.87798 2.03198 7.04598 2.09799ZM6.99999 7.315L7.99599 7.315L7.99599 5.319L7.99999 5.319L7.99999 3.49899C7.99999 3.45898 7.99798 3.41901 7.99599 3.379L7.99599 2.49899C7.99599 2.36099 8.044 2.24399 8.14199 2.146C8.23897 2.04898 8.35699 2 8.49499 2L8.497 2C8.63497 2 8.75197 2.04898 8.85 2.146C8.94698 2.24399 8.99599 2.36099 8.99599 2.49899L8.99599 8.29599L9.99599 8.315L9.99599 8.29898L9.99999 8.29898C9.99999 8.216 10.029 8.146 10.088 8.08798C10.146 8.02899 10.216 8 10.299 8L10.701 8C10.784 8 10.854 8.02899 10.912 8.08798C10.971 8.146 11 8.216 11 8.29898L11 9.29898L12 9.29898C12 9.216 12.029 9.146 12.088 9.08798C12.146 9.02899 12.217 9 12.299 9L12.701 9C12.784 9 12.854 9.02899 12.912 9.08798C12.971 9.146 13 9.216 13 9.29898L13 12.501C13 13.501 12.5 14 11.501 14L6.69799 14L2.833 10.374C2.72298 10.27 2.66298 10.144 2.65298 9.99399C2.643 9.84299 2.68297 9.71201 2.77498 9.599L2.781 9.591C2.88497 9.46298 3.018 9.384 3.17998 9.354C3.34197 9.323 3.49499 9.349 3.63799 9.43201L5.99999 10.789L5.99999 3.49899C5.99999 3.36099 6.04897 3.24399 6.14599 3.146C6.24398 3.04898 6.36098 3 6.49898 3L6.501 3C6.639 3 6.75597 3.04898 6.85399 3.146C6.936 3.229 6.984 3.32599 6.99599 3.43698L6.99999 7.315ZM2.23196 2.95784C2.41299 2.77682 2.41299 2.43176 2.23197 2.25074C2.05094 2.06971 1.73417 2.04143 1.55314 2.22245L-0.364232 4.13982C-0.545256 4.32084 -0.545256 4.6659 -0.364233 4.84693L1.55314 6.7643C1.73416 6.94532 2.05094 6.91704 2.23196 6.73602C2.41298 6.555 2.41298 6.20994 2.23196 6.02891L1.077 4.995L3.7 4.995C3.97614 4.995 4.19999 4.77114 4.19999 4.495C4.19999 4.21886 3.97614 3.995 3.7 3.995L1.074 3.994L2.23196 2.95784ZM12.668 6.02891C12.487 6.20993 12.487 6.555 12.668 6.73602C12.8491 6.91704 13.1658 6.94532 13.3469 6.7643L15.2642 4.84693C15.4452 4.6659 15.4452 4.32084 15.2642 4.13982L13.3469 2.22245C13.1658 2.04143 12.8491 2.06971 12.668 2.25074C12.487 2.43176 12.487 2.77682 12.668 2.95784L13.823 3.99175L11.2 3.99176C10.9239 3.99176 10.7 4.21562 10.7 4.49176C10.7 4.7679 10.9239 4.99176 11.2 4.99176L13.826 4.99275L12.668 6.02891Z" id="Vector-Union-Copy-Union" fill="#000000" fill-rule="evenodd" stroke="none" artboard="ae3040dd-6006-46b1-919a-b6eefbdb7386" />
  </g>
</svg>