<?xml version="1.0" encoding="utf-8"?>
<svg width="15px" height="15px" viewBox="0 0 15 15" version="1.1" xmlns:xlink="http://www.w3.org/1999/xlink" xmlns="http://www.w3.org/2000/svg">
  <defs>
    <rect width="15" height="15" id="artboard_1" />
    <clipPath id="clip_1">
      <use xlink:href="#artboard_1" clip-rule="evenodd" />
    </clipPath>
  </defs>
  <g id="icon--gesture_touch-three-finger" clip-path="url(#clip_1)">
    <use xlink:href="#artboard_1" stroke="none" fill="#FFFFFF" />
    <path d="M11.99 8.03101C12.0879 8.009 12.191 7.99701 12.2989 7.99701L12.701 7.99701C13.06 7.99701 13.366 8.12399 13.62 8.37701C13.873 8.63101 14 8.93701 14 9.29602L14 12.498C14 13.188 13.7559 13.777 13.268 14.265C12.78 14.753 12.191 14.997 11.501 14.997L6.30197 14.997L2.14895 11.1C1.84796 10.817 1.68295 10.47 1.65497 10.059C1.62695 9.64902 1.74295 9.28302 2.00396 8.95902L2.00696 8.95502C2.26495 8.638 2.59497 8.44299 2.99698 8.36801C3.39996 8.29202 3.77997 8.35699 4.13595 8.56201L4.99997 9.05801L4.99997 3.496C4.99997 3.082 5.14596 2.729 5.43896 2.436C5.73196 2.14301 6.08496 1.99701 6.49896 1.99701L6.50097 1.99701C6.69595 1.99701 6.87796 2.02902 7.04596 2.09399C7.11197 1.849 7.24096 1.629 7.43496 1.436C7.72796 1.14301 8.08096 0.997009 8.49496 0.997009L8.49698 0.997009C8.91095 0.997009 9.26397 1.14301 9.55697 1.436C9.75097 1.63101 9.88095 1.85202 9.94595 2.10001C10.1139 2.03601 10.2949 2.00302 10.4889 2.00302L10.491 2.00302C10.905 2.00302 11.258 2.14902 11.551 2.44202C11.843 2.73502 11.99 3.08801 11.99 3.50201L11.99 8.03101L11.99 8.03101ZM8.99597 8.293L9.98996 8.31201L9.98996 3.50201C9.98996 3.36401 10.038 3.24701 10.136 3.14902C10.233 3.05301 10.3509 3.00302 10.4889 3.00302L10.491 3.00302C10.629 3.00302 10.746 3.05301 10.844 3.14902C10.941 3.24701 10.99 3.36401 10.99 3.50201L10.99 9.29602L12 9.29602L12 9.28799C12.002 9.20801 12.031 9.14102 12.0879 9.08502C12.146 9.026 12.2169 8.99701 12.2989 8.99701L12.701 8.99701C12.784 8.99701 12.854 9.026 12.912 9.08502C12.971 9.14301 13 9.21301 13 9.29602L13 12.498C13 13.498 12.5 13.997 11.501 13.997L6.69796 13.997L2.83297 10.371C2.72296 10.267 2.66296 10.141 2.65295 9.991C2.64297 9.84 2.68295 9.70901 2.77496 9.59601L2.78097 9.58801C2.88495 9.46002 3.01797 9.38101 3.17996 9.35101C3.34195 9.32001 3.49496 9.34601 3.63797 9.42902L5.99997 10.786L5.99997 3.496C5.99997 3.358 6.04895 3.241 6.14596 3.14301C6.24395 3.04602 6.36096 2.99701 6.49896 2.99701L6.50097 2.99701C6.63897 2.99701 6.75595 3.04602 6.85397 3.14301C6.93597 3.22601 6.98398 3.323 6.99597 3.43402L6.99997 7.31201L7.99597 7.31201L7.99597 5.31601L7.99997 5.31601L7.99997 3.496C7.99997 3.45502 7.99795 3.41501 7.99597 3.37601L7.99597 2.496C7.99597 2.358 8.04397 2.241 8.14196 2.14301C8.23895 2.04602 8.35696 1.99701 8.49496 1.99701L8.49698 1.99701C8.63495 1.99701 8.75195 2.04602 8.84997 2.14301C8.94696 2.241 8.99597 2.358 8.99597 2.496L8.99597 8.293L8.99597 8.293ZM11.876 1.61902C11.497 1.34302 11.037 1.17102 10.54 1.14502C10.464 1.043 10.379 0.945007 10.2859 0.851013C9.79797 0.363006 9.20895 0.119018 8.51895 0.119018C7.92395 0.119018 7.40396 0.300995 6.95895 0.664001C6.88897 0.721008 6.82196 0.782013 6.75595 0.848022C6.70395 0.899994 6.65497 0.95401 6.60797 1.009L6.26495 1.02499C5.70495 1.08801 5.21896 1.32602 4.80496 1.74002C4.39496 2.14999 4.15597 2.642 4.08996 3.21701C4.02395 3.78302 4.13696 4.30801 4.42798 4.793L3.57095 5.30801C3.16296 4.62802 3.00497 3.89301 3.09695 3.10101C3.18997 2.297 3.52395 1.60699 4.09796 1.034C4.68295 0.447998 5.37198 0.114014 6.16397 0.0299988C6.82397 -0.576996 7.60898 -0.880005 8.51895 -0.880005C9.48495 -0.880005 10.31 -0.539001 10.9929 0.144012L11.048 0.200012C11.742 0.321014 12.352 0.644012 12.879 1.17102C13.458 1.75 13.793 2.44702 13.882 3.26001C13.97 4.061 13.804 4.802 13.382 5.483L12.5319 4.957C12.833 4.47101 12.952 3.94202 12.889 3.36902C12.8249 2.789 12.586 2.29202 12.172 1.87802L11.876 1.61902L11.876 1.61902Z" id="Vector-Union" fill="#000000" fill-rule="evenodd" stroke="none" artboard="74c2262d-6c52-419c-b9e1-b77bc185cc03" />
  </g>
</svg>