<?xml version="1.0" encoding="utf-8"?>
<svg width="15px" height="15px" viewBox="0 0 15 15" version="1.1" xmlns:xlink="http://www.w3.org/1999/xlink" xmlns="http://www.w3.org/2000/svg">
  <defs>
    <rect width="15" height="15" id="artboard_1" />
    <clipPath id="clip_1">
      <use xlink:href="#artboard_1" clip-rule="evenodd" />
    </clipPath>
  </defs>
  <g id="icon--gesture-touchpoint-2" clip-path="url(#clip_1)">
    <path d="M2.59718 5.29865C2.18882 4.6192 2.03062 3.88379 2.12259 3.09241C2.21611 2.28778 2.54981 1.59851 3.1237 1.0246C3.80677 0.341553 4.63129 0 5.59729 0C6.56329 0 7.38782 0.341553 8.07089 1.0246C8.65047 1.60419 8.98498 2.3006 9.07442 3.11389C9.16246 3.91449 8.99569 4.65546 8.57409 5.33685L8.14904 5.07391L7.72399 4.81091C8.02478 4.32477 8.1437 3.79553 8.08077 3.22321C8.01693 2.6427 7.77802 2.14545 7.36403 1.73145C6.87616 1.24359 6.28724 0.999634 5.59729 0.999634C4.90734 0.999634 4.31842 1.24359 3.83055 1.73145C3.42063 2.14136 3.1823 2.63348 3.11555 3.20776C3.0498 3.77362 3.16261 4.29889 3.45398 4.78369L2.59718 5.29865L2.59718 5.29865ZM5.50102 1.92877C5.91491 1.92883 6.26823 2.07513 6.56098 2.36774C6.85366 2.6604 7.00001 3.01379 7.00001 3.4278L7.00001 5.96082C7.09528 5.93945 7.19494 5.92877 7.29901 5.92877L7.70102 5.92877C8.05972 5.92877 8.36587 6.05554 8.61948 6.30914C8.80923 6.49878 8.92802 6.7179 8.97584 6.96649C9.07839 6.94135 9.18612 6.92877 9.29902 6.92877L9.70102 6.92877C10.0597 6.92877 10.3659 7.0556 10.6196 7.3092C10.8093 7.49896 10.928 7.71802 10.9758 7.96649C11.0784 7.94135 11.1861 7.92877 11.299 7.92877L11.701 7.92877C12.0597 7.92883 12.3659 8.0556 12.6195 8.3092C12.8732 8.56281 13 8.86902 13 9.22778L13 12.4299C13 13.1199 12.756 13.709 12.2681 14.197C11.7802 14.6849 11.1911 14.9289 10.501 14.929L5.30212 14.929L1.14859 11.0316C0.847721 10.7492 0.683224 10.4022 0.655087 9.9906C0.627064 9.58087 0.743214 9.21429 1.00352 8.89087L1.00711 8.88629C1.26493 8.56989 1.59478 8.37427 1.99664 8.29938C2.40036 8.22412 2.78022 8.28882 3.13623 8.49347L4.00001 8.98999L4.00001 3.4278C4.00003 3.01379 4.1464 2.6604 4.43911 2.36774C4.73183 2.07507 5.08513 1.92877 5.49902 1.92877L5.50102 1.92877L5.50102 1.92877ZM9.00001 8.22778L8.00001 8.22778L8.00001 7.22778C8.00001 7.1452 7.97084 7.07471 7.91252 7.01642C7.85407 6.95801 7.78357 6.92877 7.70101 6.92877L7.299 6.92877C7.21645 6.92877 7.14598 6.95795 7.08757 7.01636C7.02919 7.07471 7 7.1452 7 7.22778L6 7.22778L6 3.4278C6 3.28998 5.95128 3.17236 5.85385 3.07489C5.75645 2.97742 5.63884 2.92871 5.50101 2.92877L5.49901 2.92877C5.36119 2.92877 5.24356 2.97748 5.14612 3.07489C5.04872 3.17236 5.00001 3.28998 5 3.4278L5 10.7182L2.63788 9.36041C2.49473 9.2782 2.34205 9.2522 2.17983 9.28241C2.01756 9.31262 1.88448 9.39191 1.78059 9.5202L1.77465 9.52734C1.68311 9.64044 1.64247 9.77216 1.65274 9.92236C1.66301 10.0726 1.72306 10.1992 1.83287 10.3023L5.69783 13.929L10.501 13.929C11.5003 13.929 12 13.4293 12 12.4299L12 9.22778C12 9.1452 11.9708 9.07471 11.9124 9.01636C11.8541 8.95795 11.7836 8.92877 11.701 8.92877L11.299 8.92877C11.2165 8.92871 11.146 8.95795 11.0876 9.01636C11.0292 9.07471 11 9.1452 11 9.22778L10 9.22778L10 8.22778C10 8.1452 9.9708 8.07465 9.91238 8.01624C9.85405 7.95795 9.7836 7.92877 9.70101 7.92877L9.29901 7.92877C9.21644 7.92877 9.14594 7.95795 9.08753 8.01636C9.02918 8.07471 9.00001 8.1452 9.00001 8.22778L9.00001 8.22778Z" id="Vector" fill="#000000" fill-rule="evenodd" stroke="none" artboard="c688c3f6-de66-400c-8b89-064994454bad" />
  </g>
</svg>