<?xml version="1.0" encoding="utf-8"?>
<svg width="21px" height="15px" viewBox="0 0 21 15" version="1.1" xmlns:xlink="http://www.w3.org/1999/xlink" xmlns="http://www.w3.org/2000/svg">
  <defs>
    <rect width="21" height="15" id="artboard_1" />
    <clipPath id="clip_1">
      <use xlink:href="#artboard_1" clip-rule="evenodd" />
    </clipPath>
  </defs>
  <g id="icon--gesture_zoomen" clip-path="url(#clip_1)">
    <use xlink:href="#artboard_1" stroke="none" fill="#FFFFFF" />
    <path d="M7.27816 2.09439C7.3401 2.34279 7.63587 2.52051 7.88427 2.45858C8.13268 2.39664 8.32007 2.13968 8.25814 1.89128L7.60214 -0.73975C7.54021 -0.98815 7.24444 -1.16587 6.99603 -1.10394L4.36501 -0.447941C4.11661 -0.386007 3.9777 -0.0999093 4.03963 0.148492C4.10157 0.396892 4.39734 0.574611 4.64574 0.512677L6.12683 0.0551815L4.77589 2.30354C4.63366 2.54024 4.71026 2.84741 4.94696 2.98963C5.18366 3.13186 5.49083 3.05527 5.63306 2.81857L6.9864 0.568161L7.27816 2.09439L7.27816 2.09439ZM9.53695 9.0643L9.52895 2.72468C9.52921 2.31067 9.6747 1.95594 9.96779 1.66423C10.2606 1.37114 10.6141 1.22544 11.0281 1.2257L11.0295 1.22535C11.444 1.22476 11.7969 1.37145 12.0899 1.66421C12.3821 1.95643 12.5292 2.30967 12.529 2.72364L12.5294 5.2567C12.6239 5.2353 12.7243 5.2256 12.8284 5.22516L13.2298 5.22489C13.5883 5.22444 13.8955 5.35188 14.1482 5.60517C14.3384 5.79532 14.4578 6.01406 14.505 6.26173C14.6074 6.23691 14.7151 6.22462 14.8281 6.22489L15.2304 6.22514C15.5889 6.22469 15.8953 6.35161 16.1479 6.6049C16.3381 6.79503 16.4575 7.01379 16.5056 7.26196C16.6071 7.23664 16.7157 7.22489 16.8287 7.22513L17.2302 7.22487C17.5886 7.22441 17.8958 7.35184 18.1485 7.60514C18.4025 7.85809 18.5299 8.16448 18.5298 8.52376L18.5295 11.726C18.5294 12.4154 18.2864 13.0044 17.7982 13.4926C17.3099 13.9809 16.7214 14.2246 16.0306 14.2249L10.8354 14.2252L10.8352 14.2274L5.96152 11.2792C5.60854 11.0648 5.37567 10.7592 5.26323 10.3638C5.14995 9.96789 5.18777 9.58463 5.37476 9.21517L5.37751 9.20864C5.56484 8.8464 5.84471 8.5864 6.22246 8.42954C6.60294 8.27201 6.98761 8.25698 7.37805 8.38192L9.53695 9.0643L9.53695 9.0643ZM10.5306 10.4453L10.5347 10.4501L10.5288 2.72461C10.5292 2.58606 10.577 2.46774 10.6746 2.37125C10.7719 2.27339 10.8896 2.22511 11.0282 2.22552L11.0295 2.22518C11.1681 2.22563 11.2851 2.27371 11.3829 2.37103C11.4799 2.46781 11.5291 2.58599 11.5291 2.7237L11.53 6.52394L12.5298 6.52389C12.5295 6.44088 12.5587 6.37095 12.6162 6.31214C12.6754 6.25439 12.7454 6.22528 12.8284 6.225L13.2308 6.22525C13.3124 6.2253 13.3837 6.25414 13.4411 6.31198C13.5003 6.37085 13.5294 6.44083 13.5297 6.52383L13.5297 7.52366L14.5296 7.52362C14.5293 7.4406 14.5585 7.37067 14.616 7.31186C14.6752 7.25411 14.7452 7.22501 14.8282 7.22471L15.2305 7.22496C15.3121 7.22502 15.3835 7.2539 15.4417 7.31223C15.5009 7.37108 15.5291 7.44056 15.5294 7.52355L15.5295 8.52342L16.5293 8.52335C16.5299 8.44088 16.5582 8.37039 16.6165 8.31213C16.6758 8.25436 16.7458 8.22525 16.8288 8.22495L17.2302 8.22469C17.3127 8.22527 17.3832 8.25361 17.4415 8.31195C17.5006 8.3708 17.5297 8.44081 17.53 8.52382L17.5297 11.726C17.5303 12.725 17.0304 13.225 16.0305 13.225L11.2273 13.2252L11.1171 13.2243L6.47965 10.4227C6.35074 10.3441 6.2664 10.2339 6.22431 10.0885C6.1831 9.9435 6.19553 9.80632 6.26076 9.67636L6.2654 9.66865C6.34097 9.52155 6.45404 9.41685 6.60705 9.35246C6.75904 9.28977 6.91339 9.28335 7.07097 9.33371L10.5306 10.4453L10.5306 10.4453ZM2.15499 4.658C2.09305 4.4096 1.79728 4.23188 1.54888 4.29381C1.30048 4.35574 1.11308 4.61271 1.17501 4.86111L1.831 7.49214C1.89293 7.74054 2.18871 7.91826 2.43711 7.85632L5.06814 7.20034C5.31654 7.1384 5.45544 6.8523 5.39351 6.6039C5.33158 6.3555 5.0358 6.17778 4.7874 6.23972L3.30632 6.69721L4.65726 4.44886C4.79949 4.21216 4.7229 3.90498 4.4862 3.76276C4.2495 3.62054 3.94232 3.69712 3.8001 3.93382L2.44675 6.18423L2.15499 4.658L2.15499 4.658Z" id="Vector" fill="#000000" fill-rule="evenodd" stroke="none" artboard="dc585412-e2fb-4223-8222-3134b8b810da" />
  </g>
</svg>