<?xml version="1.0" encoding="utf-8"?>
<svg width="15px" height="15px" viewBox="0 0 15 15" version="1.1" xmlns:xlink="http://www.w3.org/1999/xlink" xmlns="http://www.w3.org/2000/svg">
  <defs>
    <rect width="15" height="15" id="artboard_1" />
    <clipPath id="clip_1">
      <use xlink:href="#artboard_1" clip-rule="evenodd" />
    </clipPath>
  </defs>
  <g id="icon--gesture_scroll_vertical_down" clip-path="url(#clip_1)">
    <use xlink:href="#artboard_1" stroke="none" fill="#FFFFFF" />
    <path d="M1.43895 6.53901C1.14635 6.83175 1.00004 7.18508 0.999982 7.59897L0.999982 7.60096C0.999982 8.01485 1.14628 8.36815 1.43895 8.66087C1.73161 8.95358 2.085 9.09995 2.499 9.09997L8.0612 9.09998L7.56468 9.96377C7.36002 10.3198 7.29533 10.6996 7.37058 11.1034C7.44547 11.5052 7.64109 11.8351 7.9575 12.0929L7.96207 12.0965C8.2855 12.3568 8.65208 12.4729 9.0618 12.4449C9.47343 12.4168 9.82041 12.2523 10.1028 11.9514L14.0002 7.79788L14.0002 2.59898C14.0001 1.90887 13.7562 1.31985 13.2682 0.831923C12.7802 0.34396 12.1912 0.0999794 11.5012 0.0999784L8.299 0.0999756C7.94024 0.0999689 7.63402 0.226793 7.38042 0.480444C7.12682 0.734093 7.00005 1.04027 6.99999 1.39897L6.99999 1.80097C6.99999 1.91389 7.01256 2.02162 7.03771 2.12416C6.78923 2.17197 6.57018 2.29071 6.38042 2.48037C6.12682 2.73413 5.99999 3.04033 5.99999 3.39897L5.99999 3.80097C5.99999 3.91387 6.01256 4.0216 6.03771 4.12415C5.78911 4.17197 5.56999 4.29076 5.38036 4.48051C5.12676 4.73412 4.99999 5.04027 4.99998 5.39897L4.99998 5.80098C4.99998 5.90505 5.01067 6.00471 5.03203 6.09998L2.49901 6.09997C2.08501 6.09997 1.73161 6.24632 1.43895 6.53901L1.43895 6.53901ZM7.299 5.09998L7.299 4.09998C7.21642 4.09998 7.14592 4.07081 7.08757 4.01246C7.02916 3.95405 6.99999 3.88355 6.99999 3.80098L6.99999 3.39898C6.99999 3.3164 7.02916 3.24594 7.08745 3.18761C7.14586 3.12919 7.21642 3.09998 7.299 3.09998L8.299 3.09998L8.299 2.09998C8.21642 2.09998 8.14592 2.07079 8.08758 2.01241C8.02916 1.95401 7.99993 1.88354 7.99999 1.80098L7.99999 1.39898C7.99999 1.31642 8.02916 1.24594 8.08758 1.18754C8.14593 1.12917 8.21642 1.09998 8.299 1.09998L11.5012 1.09999C12.5005 1.09999 13.0002 1.59966 13.0002 2.59899L13.0002 7.40217L9.37351 11.2671C9.27042 11.3769 9.14378 11.437 8.99357 11.4473C8.84336 11.4575 8.71165 11.4169 8.59855 11.3253L8.59141 11.3194C8.46311 11.2155 8.38383 11.0824 8.35362 10.9202C8.3234 10.7579 8.3494 10.6053 8.43162 10.4621L9.78941 8.09999L2.49901 8.09998C2.36119 8.09997 2.24357 8.05127 2.1461 7.95386C2.04869 7.85643 1.99998 7.7388 1.99998 7.60097L1.99998 7.59898C1.99992 7.46115 2.04863 7.34354 2.1461 7.24614C2.24357 7.1487 2.36119 7.09998 2.49901 7.09998L6.29899 7.09999L6.299 6.09999C6.21642 6.09999 6.14592 6.0708 6.08757 6.01242C6.02916 5.95401 5.99998 5.88354 5.99998 5.80099L5.99998 5.39898C5.99998 5.31643 6.02922 5.24592 6.08763 5.18747C6.14592 5.12915 6.21642 5.09998 6.299 5.09998L7.299 5.09998L7.299 5.09998ZM0.957818 11.868C0.776796 11.687 0.431734 11.687 0.250711 11.868C0.0696883 12.049 0.0414036 12.3658 0.222426 12.5468L2.1398 14.4642C2.32082 14.6452 2.66588 14.6452 2.8469 14.4642L4.76428 12.5468C4.9453 12.3658 4.91702 12.049 4.73599 11.868C4.55497 11.687 4.20991 11.687 4.02889 11.868L2.99498 13.023L2.99498 10.4C2.99498 10.1238 2.77112 9.89999 2.49498 9.89999C2.21883 9.89999 1.99498 10.1238 1.99498 10.4L1.99398 13.026L0.957818 11.868L0.957818 11.868Z" id="Vector" fill="#000000" fill-rule="evenodd" stroke="none" artboard="39e2220e-653d-4b43-8623-1c42a8b84fc9" />
  </g>
</svg>