<?xml version="1.0" encoding="utf-8"?>
<svg width="15px" height="15px" viewBox="0 0 15 15" version="1.1" xmlns:xlink="http://www.w3.org/1999/xlink" xmlns="http://www.w3.org/2000/svg">
  <defs>
    <rect width="15" height="15" id="artboard_1" />
    <clipPath id="clip_1">
      <use xlink:href="#artboard_1" clip-rule="evenodd" />
    </clipPath>
  </defs>
  <g id="icon--gesture_scroll_vertical_up" clip-path="url(#clip_1)">
    <use xlink:href="#artboard_1" stroke="none" fill="#FFFFFF" />
    <path d="M1.43901 6.53901C1.1464 6.83175 1.0001 7.18508 1.00004 7.59897L1.00004 7.60096C1.00004 8.01485 1.14634 8.36815 1.439 8.66087C1.73167 8.95358 2.08506 9.09995 2.49906 9.09997L8.06126 9.09998L7.56473 9.96377C7.36008 10.3198 7.29538 10.6996 7.37064 11.1034C7.44553 11.5052 7.64115 11.8351 7.95755 12.0929L7.96213 12.0965C8.28556 12.3568 8.65213 12.4729 9.06186 12.4449C9.47348 12.4168 9.82047 12.2523 10.1028 11.9514L14.0002 7.79788L14.0002 2.59898C14.0002 1.90887 13.7562 1.31985 13.2683 0.831923C12.7803 0.34396 12.1912 0.0999794 11.5012 0.0999784L8.29906 0.0999756C7.9403 0.0999689 7.63408 0.226793 7.38048 0.480444C7.12688 0.734093 7.00011 1.04027 7.00005 1.39897L7.00005 1.80097C7.00005 1.91389 7.01262 2.02162 7.03777 2.12416C6.78929 2.17197 6.57024 2.29071 6.38048 2.48037C6.12688 2.73413 6.00005 3.04033 6.00004 3.39897L6.00004 3.80097C6.00004 3.91387 6.01262 4.0216 6.03776 4.12415C5.78917 4.17197 5.57005 4.29076 5.38041 4.48051C5.12681 4.73412 5.00004 5.04027 5.00004 5.39897L5.00004 5.80098C5.00004 5.90505 5.01072 6.00471 5.03208 6.09998L2.49906 6.09997C2.08506 6.09997 1.73167 6.24632 1.43901 6.53901L1.43901 6.53901ZM4.7493 3.33194C4.56828 3.51296 4.22322 3.51296 4.04219 3.33194L3.00603 2.17398L3.00504 4.79998C3.00504 5.07612 2.78118 5.29997 2.50504 5.29997C2.2289 5.29997 2.00504 5.07612 2.00504 4.79998L2.00503 2.17698L0.971127 3.33194C0.790104 3.51297 0.445043 3.51297 0.26402 3.33194C0.0829968 3.15092 0.0547123 2.83414 0.235735 2.65312L2.1531 0.735746C2.33413 0.554723 2.67919 0.554723 2.86021 0.735745L4.77758 2.65312C4.95861 2.83414 4.93032 3.15091 4.7493 3.33194L4.7493 3.33194ZM7.29905 5.09998L7.29906 4.09998C7.21647 4.09998 7.14598 4.07081 7.08763 4.01246C7.02922 3.95405 7.00004 3.88355 7.00004 3.80098L7.00004 3.39898C7.00004 3.3164 7.02922 3.24594 7.08751 3.18761C7.14592 3.12919 7.21648 3.09998 7.29906 3.09998L8.29906 3.09998L8.29906 2.09998C8.21648 2.09998 8.14598 2.07079 8.08763 2.01241C8.02922 1.95401 7.99999 1.88354 8.00005 1.80098L8.00005 1.39898C8.00005 1.31642 8.02922 1.24594 8.08763 1.18754C8.14598 1.12917 8.21648 1.09998 8.29906 1.09998L11.5012 1.09999C12.5005 1.09999 13.0002 1.59966 13.0002 2.59899L13.0002 7.40217L9.37357 11.2671C9.27048 11.3769 9.14383 11.437 8.99363 11.4473C8.84342 11.4575 8.7117 11.4169 8.59861 11.3253L8.59146 11.3194C8.46317 11.2155 8.38389 11.0824 8.35367 10.9202C8.32346 10.7579 8.34946 10.6053 8.43168 10.4621L9.78947 8.09999L2.49906 8.09998C2.36124 8.09997 2.24363 8.05127 2.14616 7.95386C2.04875 7.85643 2.00004 7.7388 2.00004 7.60097L2.00004 7.59898C1.99998 7.46115 2.04868 7.34354 2.14616 7.24614C2.24363 7.1487 2.36125 7.09998 2.49906 7.09998L6.29905 7.09999L6.29905 6.09999C6.21647 6.09999 6.14598 6.0708 6.08763 6.01242C6.02922 5.95401 6.00004 5.88354 6.00004 5.80099L6.00004 5.39898C6.00004 5.31643 6.02928 5.24592 6.08769 5.18747C6.14598 5.12915 6.21647 5.09998 6.29905 5.09998L7.29905 5.09998L7.29905 5.09998Z" id="Vector" fill="#000000" fill-rule="evenodd" stroke="none" artboard="b29f720c-a7b7-4d93-8e01-3b4373363c92" />
  </g>
</svg>