<?xml version="1.0" encoding="utf-8"?>
<svg width="15px" height="15px" viewBox="0 0 15 15" version="1.1" xmlns:xlink="http://www.w3.org/1999/xlink" xmlns="http://www.w3.org/2000/svg">
  <defs>
    <rect width="15" height="15" id="artboard_1" />
    <clipPath id="clip_1">
      <use xlink:href="#artboard_1" clip-rule="evenodd" />
    </clipPath>
  </defs>
  <g id="icon--gesture_touch-double" clip-path="url(#clip_1)">
    <use xlink:href="#artboard_1" stroke="none" fill="#FFFFFF" />
    <path d="M6.50097 2.117C6.91498 2.117 7.26797 2.263 7.56097 2.556C7.85296 2.84799 7.99997 3.202 7.99997 3.616L7.99997 6.14899C8.09497 6.12698 8.19497 6.117 8.29895 6.117L8.70096 6.117C9.05896 6.117 9.36596 6.24399 9.61896 6.49701C9.80896 6.68701 9.92798 6.90601 9.97595 7.15399C10.078 7.129 10.186 7.117 10.2989 7.117L10.701 7.117C11.059 7.117 11.366 7.24399 11.619 7.49701C11.809 7.68701 11.928 7.90601 11.976 8.15399C12.078 8.129 12.186 8.117 12.2989 8.117L12.701 8.117C13.059 8.117 13.366 8.24399 13.619 8.49701C13.873 8.75101 14 9.05701 14 9.41599L14 12.618C14 13.308 13.7559 13.897 13.268 14.385C12.78 14.873 12.191 15.117 11.501 15.117L6.30197 15.117L2.14795 11.22C1.84695 10.937 1.68295 10.59 1.65497 10.179C1.62695 9.76901 1.74295 9.40201 2.00296 9.07901L2.00696 9.07401C2.26495 8.758 2.59396 8.56201 2.99597 8.487C3.39996 8.41199 3.77997 8.47699 4.13595 8.681L4.99997 9.17801L4.99997 3.616C4.99997 3.202 5.14596 2.84799 5.43896 2.556C5.73196 2.263 6.08496 2.117 6.49896 2.117L6.50097 2.117L6.50097 2.117ZM9.99997 8.41599L8.99997 8.41599L8.99997 7.41599C8.99997 7.33301 8.97098 7.263 8.91195 7.20401C8.85397 7.146 8.78296 7.117 8.70096 7.117L8.29895 7.117C8.21597 7.117 8.14596 7.146 8.08697 7.20401C8.02896 7.263 7.99997 7.33301 7.99997 7.41599L6.99997 7.41599L6.99997 3.616C6.99997 3.478 6.95096 3.35999 6.85397 3.263C6.75595 3.16501 6.63898 3.117 6.50097 3.117L6.49896 3.117C6.36096 3.117 6.24295 3.16501 6.14596 3.263C6.04797 3.35999 5.99997 3.478 5.99997 3.616L5.99997 10.906L3.63797 9.548C3.49396 9.466 3.34195 9.44 3.17996 9.47C3.01697 9.50101 2.88397 9.57999 2.77997 9.70801L2.77395 9.715C2.68295 9.828 2.64197 9.95999 2.65198 10.11C2.66296 10.261 2.72296 10.387 2.83298 10.49L6.69797 14.117L11.501 14.117C12.5 14.117 13 13.617 13 12.618L13 9.41599C13 9.33301 12.971 9.263 12.912 9.20401C12.854 9.146 12.783 9.117 12.701 9.117L12.2989 9.117C12.216 9.117 12.146 9.146 12.087 9.20401C12.029 9.263 12 9.33301 12 9.41599L11 9.41599L11 8.41599C11 8.33301 10.971 8.263 10.912 8.20401C10.854 8.146 10.783 8.117 10.701 8.117L10.2989 8.117C10.216 8.117 10.146 8.146 10.087 8.20401C10.029 8.263 9.99997 8.33301 9.99997 8.41599L9.99997 8.41599ZM2.53195 6.09399C2.10397 5.38501 1.85696 4.55301 1.85696 3.664C1.85696 1.06201 3.96997 -1.04999 6.57196 -1.04999C9.17297 -1.04999 11.2859 1.06201 11.2859 3.664C11.2859 4.55399 11.039 5.38699 10.609 6.09799L10.182 5.83801C10.565 5.203 10.7859 4.45898 10.7859 3.664C10.7859 1.33801 8.89697 -0.549988 6.57196 -0.549988C4.24597 -0.549988 2.35696 1.33801 2.35696 3.664C2.35696 4.45499 2.57596 5.19598 2.95596 5.828L2.53195 6.09399L2.53195 6.09399ZM3.57095 5.44199C3.18197 4.77499 3.03195 4.05499 3.12198 3.28C3.21597 2.47601 3.54996 1.78601 4.12295 1.21301C4.80597 0.529999 5.63095 0.187988 6.59695 0.187988C7.56296 0.187988 8.38797 0.529999 9.07095 1.21301C9.64996 1.79199 9.98495 2.48898 10.074 3.302C10.16 4.086 10.002 4.81299 9.59897 5.483L8.74496 4.96399C9.02997 4.487 9.14197 3.97 9.07995 3.41101C9.01697 2.83099 8.77795 2.33301 8.36395 1.91901C7.87597 1.43201 7.28695 1.18799 6.59695 1.18799C5.90695 1.18799 5.31796 1.43201 4.82995 1.91901C4.41995 2.32901 4.18197 2.82098 4.11496 3.396C4.05197 3.93799 4.15295 4.44299 4.41797 4.91L3.57095 5.44199L3.57095 5.44199Z" id="Vector" fill="#000000" fill-rule="evenodd" stroke="none" artboard="d71fa379-1060-4ab5-b048-cd94c498677f" />
  </g>
</svg>