<?xml version="1.0" encoding="utf-8"?>
<svg width="15px" height="15px" viewBox="0 0 15 15" version="1.1" xmlns:xlink="http://www.w3.org/1999/xlink" xmlns="http://www.w3.org/2000/svg">
  <g id="icon--ufmn-voice-trigger">
    <path d="M0 0L15 0L15 15L0 15L0 0Z" id="icon--ufmn-voice-trigger" fill="none" fill-rule="evenodd" stroke="none" />
    <path d="M13.3411 1.1C14.1395 2.58087 14.5926 4.27539 14.5926 6.07573C14.5926 7.87607 14.1395 9.57058 13.3411 11.0515L12.4137 10.6629C13.165 9.30302 13.5926 7.73931 13.5926 6.07573C13.5926 4.41215 13.165 2.84843 12.4137 1.48851L13.3411 1.1L13.3411 1.1ZM5.5 8.5C6.32908 8.5 7.06389 8.09642 7.51872 7.47501L6.56855 7.05271C6.2965 7.32883 5.91824 7.5 5.5 7.5C4.67157 7.5 4 6.82843 4 6L4 4.5L4.00687 4.35554C4.07955 3.59489 4.7203 3 5.5 3C6.32843 3 7 3.67157 7 4.5L7 4.75553L7.99319 4.31411C7.89809 3.02021 6.81819 2 5.5 2C4.11929 2 3 3.11929 3 4.5L3 6C3 7.38071 4.11929 8.5 5.5 8.5L5.5 8.5ZM11.7223 2.32455C12.2796 3.45594 12.5927 4.72928 12.5927 6.07573C12.5927 7.42218 12.2796 8.69551 11.7223 9.8269L10.774 9.48642C11.2974 8.46321 11.5927 7.30395 11.5927 6.07573C11.5927 4.84751 11.2974 3.68825 10.774 2.66504L11.7223 2.32455L11.7223 2.32455ZM10.5927 6.07573C10.5927 5.07736 10.3676 4.13157 9.96538 3.28632L9.00002 3.58963C9.37903 4.33629 9.59265 5.18106 9.59265 6.07573C9.59265 6.9704 9.37903 7.81517 9.00002 8.56183L9.96538 8.86513C10.3676 8.01989 10.5927 7.07409 10.5927 6.07573L10.5927 6.07573ZM9.68349 10.0213L6.86697 8.99708C5.98394 8.67598 5.01606 8.67598 4.13303 8.99708L1.31651 10.0213C0.526136 10.3087 0 11.0598 0 11.9009L0 13L1 12.9993L1 11.9009L1.00776 11.7762C1.05393 11.4076 1.30259 11.0904 1.65826 10.9611L4.47477 9.93688L4.69771 9.86552C5.29757 9.69902 5.93654 9.72281 6.52523 9.93688L9.34174 10.9611L9.45621 11.0109C9.78691 11.1803 10 11.5224 10 11.9009L10 12.9993L11 13L11 11.9009C11 11.0598 10.4739 10.3087 9.68349 10.0213L9.68349 10.0213Z" id="Vector" fill="#000000" fill-rule="evenodd" stroke="none" />
  </g>
</svg>