<?xml version="1.0" encoding="utf-8"?>
<svg width="23px" height="15px" viewBox="0 0 23 15" version="1.1" xmlns:xlink="http://www.w3.org/1999/xlink" xmlns="http://www.w3.org/2000/svg">
  <g id="icon--ufmn-via">
    <path d="M0 0L23 0L23 15L0 15L0 0Z" id="icon--ufmn-via" fill="#FFFFFF" fill-rule="evenodd" stroke="none" />
    <path d="M13.0534 3Q12.9635 2.56334 12.7001 2.30002Q12.3001 1.90002 11.5001 1.90002Q10.8374 1.90002 10.3688 2.36865C10.1816 2.55587 10.0504 2.76632 9.97542 3L8.94818 3C9.18131 1.8033 10.2352 0.900024 11.5001 0.900024C12.7651 0.900024 13.819 1.8033 14.0521 3L13.0534 3ZM10.0466 9.95259C10.0466 10.2086 10.2906 10.4526 10.5466 10.4526C10.8026 10.4526 11.0466 10.2486 11.0466 9.99259L11.0466 4.45259C11.0466 4.19659 10.8026 3.95259 10.5466 3.95259L5.00659 3.95258C4.75059 3.95258 4.54659 4.19657 4.54659 4.45257C4.54659 4.70858 4.79059 4.95258 5.04659 4.95258L9.42278 4.86699L4.54659 9.7455C4.35133 9.94076 4.35133 10.2573 4.54659 10.4526C4.74185 10.6479 5.05844 10.6479 5.2537 10.4526L10.1327 5.57269L10.0466 9.95259ZM18.1466 5.14648C17.8905 5.14648 17.6466 5.39048 17.6466 5.64648L17.7327 9.02639L12.8537 4.14647C12.6584 3.9512 12.3418 3.95121 12.1466 4.14647C11.9513 4.34173 11.9513 4.65832 12.1466 4.85358L17.0228 9.73208L13.6466 9.6465C13.3906 9.6465 13.1466 9.8905 13.1466 10.1465C13.1466 10.4025 13.3506 10.6465 13.6066 10.6465L18.1466 10.6465C18.4026 10.6465 18.6466 10.4025 18.6466 10.1465L18.6466 5.60648C18.6466 5.35047 18.4026 5.14648 18.1466 5.14648ZM1.00012 13.501L1.00012 8.499Q1.00012 8.29231 1.14628 8.14615Q1.29243 8 1.49912 8L4.00012 8L3.00012 9L2.00012 9L2.00012 13L6.00012 13L6.00012 12L7.00012 11L7.00012 13.501Q7.00012 13.7077 6.85397 13.8538C6.75653 13.9513 6.63892 14 6.50112 14L1.49912 14Q1.29243 14 1.14628 13.8538C1.04884 13.7564 1.00012 13.6388 1.00012 13.501ZM16 13.501L16 12L17 12L17 13L21 13L21 9L20 9L20 8L21.501 8C21.6388 8 21.7564 8.04872 21.8538 8.14615Q22 8.29231 22 8.499L22 13.501C22 13.6388 21.9513 13.7564 21.8538 13.8538C21.7564 13.9513 21.6388 14 21.501 14L16.499 14C16.3612 14 16.2436 13.9513 16.1462 13.8538Q16 13.7077 16 13.501Z" id="Path-3-Union" fill="#000000" fill-rule="evenodd" stroke="none" />
  </g>
</svg>