<?xml version="1.0" encoding="utf-8"?>
<svg width="15px" height="15px" viewBox="0 0 15 15" version="1.1" xmlns:xlink="http://www.w3.org/1999/xlink" xmlns="http://www.w3.org/2000/svg">
  <defs>
    <path d="M0 0L15 0L15 15L0 15L0 0Z" id="path_1" />
    <clipPath id="clip_1">
      <use xlink:href="#path_1" />
    </clipPath>
  </defs>
  <g id="icon / ufmn-from" clip-path="url(#clip_1)">
    <path d="M0 0L15 0L15 15L0 15L0 0Z" id="icon--ufmn-from" fill="#FFFFFF" fill-rule="evenodd" stroke="none" />
    <path d="M6.15209 3.10002C5.91898 1.90331 4.86504 1.00002 3.60012 1.00002C2.16418 1.00002 1.00012 2.16408 1.00012 3.60002C1.00012 4.86495 1.90342 5.91889 3.10015 6.152L3.10015 5.15333C2.3668 5.00223 2.00012 4.48447 2.00012 3.60002C2.00012 3.06669 2.13346 2.66669 2.40012 2.40002C2.66679 2.13336 3.06679 2.00002 3.60012 2.00002C4.04195 2.00002 4.41908 2.15623 4.73149 2.46865C4.91871 2.65587 5.04984 2.86633 5.12486 3.10002L6.15209 3.10002L6.15209 3.10002ZM9.70013 4.69903C9.70013 4.44303 9.94412 4.19903 10.2001 4.19903C10.4561 4.19903 10.7001 4.40303 10.7001 4.65903L10.7001 10.199C10.7001 10.455 10.4562 10.699 10.2001 10.699L4.66015 10.6991C4.40414 10.6991 4.20015 10.4551 4.20015 10.1991C4.20015 9.94305 4.44414 9.69905 4.70014 9.69905L9.07634 9.78463L4.20015 4.90613C4.00488 4.71087 4.00489 4.39428 4.20015 4.19902C4.39541 4.00376 4.71199 4.00376 4.90725 4.19902L9.78627 9.07894L9.70013 4.69903L9.70013 4.69903ZM13.6011 8.1L12.1003 8.1L12.1003 9.1L13.1001 9.1L13.1001 13.1L9.10015 13.1L9.10015 12.1L8.10015 12.1L8.10015 13.601C8.10015 13.7388 8.14887 13.8564 8.2463 13.9538C8.34374 14.0513 8.46135 14.1 8.59915 14.1L13.6011 14.1C13.7389 14.1 13.8566 14.0513 13.954 13.9538C14.0514 13.8564 14.1001 13.7388 14.1001 13.601L14.1001 8.599C14.1001 8.4612 14.0514 8.34359 13.954 8.24615C13.8566 8.14872 13.7389 8.1 13.6011 8.1L13.6011 8.1Z" id="Vector" fill="#000000" fill-rule="evenodd" stroke="none" />
  </g>
</svg>