<?xml version="1.0" encoding="utf-8"?>
<svg width="15px" height="15px" viewBox="0 0 15 15" version="1.1" xmlns:xlink="http://www.w3.org/1999/xlink" xmlns="http://www.w3.org/2000/svg">
  <defs>
    <path d="M0 0L15 0L15 15L0 15L0 0Z" id="path_1" />
    <clipPath id="clip_1">
      <use xlink:href="#path_1" />
    </clipPath>
  </defs>
  <g id="icon / ufmn-to" clip-path="url(#clip_1)">
    <path d="M0 0L15 0L15 15L0 15L0 0Z" id="icon--ufmn-to" fill="#FFFFFF" fill-rule="evenodd" stroke="none" />
    <path d="M8.94805 3.2C9.18115 2.00328 10.2351 1.1 11.5 1.1C12.936 1.1 14.1 2.26406 14.1 3.69999C14.1 4.96492 13.1967 6.01888 12 6.25198L12 5.25329C12.7334 5.10221 13.1 4.58444 13.1 3.69999C13.1 3.16667 12.9667 2.76667 12.7 2.5C12.4334 2.23333 12.0334 2.1 11.5 2.1C11.0582 2.1 10.6811 2.25621 10.3686 2.56863C10.1814 2.75585 10.0503 2.96631 9.97526 3.2L8.94805 3.2L8.94805 3.2ZM10.5464 10.6526C10.2904 10.6526 10.0465 10.4085 10.0465 10.1526L10.1326 5.77264L5.25359 10.6526C5.0583 10.8478 4.74172 10.8478 4.54646 10.6526C4.35121 10.4573 4.35121 10.1407 4.54646 9.94544L9.42266 5.06696L5.04646 5.15254C4.79045 5.15254 4.54646 4.90854 4.54646 4.65254C4.54646 4.39654 4.75047 4.15254 5.00647 4.15254L10.5464 4.15257C10.8024 4.15257 11.0465 4.39657 11.0465 4.65257L11.0465 10.1925C11.0465 10.4486 10.8024 10.6526 10.5464 10.6526L10.5464 10.6526ZM1 13.701L1 8.69899C1 8.56115 1.04872 8.44357 1.14615 8.3461C1.24359 8.24867 1.36121 8.19998 1.499 8.19998L3.99999 8.19998L3 9.19997L2 9.19997L2 13.2L6.00001 13.2L6.00001 12.2L7 11.2L7 13.701C7 13.8388 6.95126 13.9564 6.85384 14.0538C6.75641 14.1513 6.63878 14.2 6.50099 14.2L1.499 14.2C1.36121 14.2 1.24359 14.1513 1.14615 14.0538C1.04872 13.9564 1 13.8388 1 13.701L1 13.701Z" id="Shape" fill="#000000" fill-rule="evenodd" stroke="none" />
  </g>
</svg>