<?xml version="1.0" encoding="utf-8"?>
<svg width="15px" height="15px" viewBox="0 0 15 15" version="1.1" xmlns:xlink="http://www.w3.org/1999/xlink" xmlns="http://www.w3.org/2000/svg">
  <defs>
    <path d="M0 0L15 0L15 15L0 15L0 0Z" id="path_1" />
    <clipPath id="clip_1">
      <use xlink:href="#path_1" />
    </clipPath>
  </defs>
  <g id="icon / ufmn-logo" clip-path="url(#clip_1)">
    <path d="M0 0L15 0L15 15L0 15L0 0Z" id="icon--ufmn-logo" fill="#FFFFFF" fill-rule="evenodd" stroke="none" />
    <path d="M11.3822 8.20103L11.8958 8.20103L12.2785 7.81835L12.2785 5.34515C12.2785 5.31224 12.2989 5.29181 12.3318 5.29181L12.5163 5.29181C12.5449 5.29181 12.5613 5.30408 12.5778 5.32857L13.9553 7.55889C13.9635 7.57547 13.9798 7.57116 13.9798 7.55072L13.9798 5.45349L13.7951 5.63824C13.7389 5.69445 13.6476 5.69445 13.5911 5.63824C13.5349 5.58201 13.5349 5.49072 13.5911 5.43428L14.1257 4.9L14.6599 5.43428C14.7161 5.49072 14.7161 5.58201 14.6599 5.63824C14.6037 5.69445 14.5124 5.69445 14.456 5.63824L14.271 5.45326L14.271 8.1083C14.271 8.14121 14.2506 8.16164 14.2177 8.16164L14.0332 8.16164C14.0046 8.16164 13.988 8.14937 13.9717 8.12465L12.5901 5.88614C12.5819 5.86981 12.5654 5.8739 12.5654 5.89431L12.569 7.81521L13.0127 8.25867C13.0355 8.28176 13.0485 8.31273 13.0485 8.34517C13.0485 8.37759 13.0355 8.40858 13.0127 8.43165L12.5694 8.87464L12.5694 9.3181L14.2482 9.3181L14.062 9.13169C14.0055 9.07546 14.0055 8.98417 14.062 8.92797C14.1182 8.87175 14.2095 8.87175 14.2657 8.92797L14.8 9.46224L14.2657 9.99652C14.2095 10.053 14.1182 10.053 14.062 9.99652C14.0055 9.94029 14.0055 9.849 14.062 9.79279L14.2482 9.60638L12.4253 9.60638C12.3458 9.60638 12.2812 9.54201 12.2812 9.46224L12.2812 8.87464L11.8958 8.48931L11.3822 8.48931L11.3822 9.50212C11.3822 9.55761 11.3452 9.59437 11.29 9.59437L10.8842 9.59437C10.829 9.59437 10.7922 9.55761 10.7922 9.50212L10.7922 6.37981C10.7922 6.34908 10.7675 6.34281 10.7552 6.36733L9.91946 7.73186C9.89471 7.77509 9.85796 7.79337 9.80871 7.79337L9.61196 7.79337C9.56271 7.79337 9.52596 7.77509 9.50146 7.73186L8.6717 6.36733C8.65921 6.34281 8.6347 6.34908 8.6347 6.37981L8.6347 9.50212C8.6347 9.55761 8.59771 9.59437 8.54246 9.59437L8.13695 9.59437C8.08146 9.59437 8.0447 9.55761 8.0447 9.50212L8.0447 5.38408C8.0447 5.32857 8.08146 5.29181 8.13695 5.29181L8.5487 5.29181C8.59771 5.29181 8.6347 5.31008 8.65921 5.35332L9.69196 7.00061C9.70421 7.0251 9.71646 7.0251 9.72871 7.00061L10.7675 5.35332C10.7922 5.31008 10.829 5.29181 10.8782 5.29181L11.29 5.29181C11.3452 5.29181 11.3822 5.32857 11.3822 5.38408L11.3822 8.20103L11.3822 8.20103ZM12.3761 8.30746L12.168 8.30746C12.1577 8.30746 12.1493 8.31562 12.1493 8.32596L12.1493 8.39154C12.1493 8.40188 12.1577 8.41028 12.168 8.41028L12.3761 8.41028L12.3761 8.61832C12.3761 8.62865 12.3845 8.63704 12.3948 8.63704L12.4604 8.63704C12.4707 8.63704 12.4791 8.62865 12.4791 8.61832L12.4791 8.41028L12.6872 8.41028C12.6975 8.41028 12.7059 8.40188 12.7059 8.39154L12.7059 8.32596C12.7059 8.31562 12.6975 8.30746 12.6872 8.30746L12.4791 8.30746L12.4791 8.09918C12.4791 8.08885 12.4707 8.08069 12.4604 8.08069L12.3948 8.08069C12.3845 8.08069 12.3761 8.08885 12.3761 8.09918L12.3761 8.30746L12.3761 8.30746ZM2.19193 9.64361C1.2392 9.64361 0.599976 9.05361 0.599976 8.16835L0.599976 5.39632C0.599976 5.32857 0.63685 5.2918 0.704452 5.2918L1.36215 5.2918C1.42975 5.2918 1.46663 5.32857 1.46663 5.39632L1.46663 8.17459C1.46663 8.60485 1.75553 8.89986 2.19193 8.89986C2.62834 8.89986 2.91724 8.60485 2.91724 8.17459L2.91724 5.39632C2.91724 5.32857 2.95411 5.2918 3.02171 5.2918L3.67941 5.2918C3.74702 5.2918 3.78389 5.32857 3.78389 5.39632L3.78389 8.16835C3.78389 9.05361 3.14466 9.64361 2.19193 9.64361L2.19193 9.64361ZM7.47796 5.80806C7.47796 5.86958 7.44097 5.90631 7.37971 5.90631L5.32053 5.90631C5.29593 5.90631 5.28365 5.91882 5.28365 5.94331L5.28365 7.08035C5.28365 7.09886 5.29593 7.11734 5.32053 7.11734L6.69736 7.11734C6.75883 7.11734 6.79571 7.1541 6.79571 7.21559L6.79571 7.6336C6.79571 7.69509 6.75883 7.73185 6.69736 7.73185L5.32053 7.73185C5.30208 7.73185 5.28365 7.74436 5.28365 7.76885L5.28365 9.49611C5.28365 9.5576 5.24678 9.59437 5.1853 9.59437L4.669 9.59437C4.60752 9.59437 4.57065 9.5576 4.57065 9.49611L4.57065 5.39008C4.57065 5.32857 4.60752 5.2918 4.669 5.2918L7.37971 5.2918C7.44097 5.2918 7.47796 5.32857 7.47796 5.39008L7.47796 5.80806L7.47796 5.80806Z" id="Group-3-Copy" fill="#000000" fill-rule="evenodd" stroke="none" />
  </g>
</svg>