<?xml version="1.0" encoding="utf-8"?>
<svg width="15px" height="15px" viewBox="0 0 15 15" version="1.1" xmlns:xlink="http://www.w3.org/1999/xlink" xmlns="http://www.w3.org/2000/svg">
  <defs>
    <rect width="15" height="15" id="artboard_1" />
    <clipPath id="clip_1">
      <use xlink:href="#artboard_1" clip-rule="evenodd" />
    </clipPath>
  </defs>
  <g id="icon--bug" clip-path="url(#clip_1)">
    <path d="M10.9147 1.1413C10.9147 1.1413 11.4347 2.00587 11.4347 2.00587C10.5636 2.36503 9.84708 3.07057 9.4956 3.99602C9.77292 4.36145 9.95112 4.80623 9.99134 5.29027C9.99134 5.29027 10 5.5 10 5.5L9.99952 5.9993L11 6L11 7.0213L12.1709 6.597L13.16 4.63141Q13.1821 4.58751 13.2123 4.54876Q13.2426 4.51001 13.2798 4.47791Q13.317 4.4458 13.3597 4.42157Q13.4025 4.39734 13.4492 4.38192Q13.4958 4.36649 13.5446 4.36047Q13.5934 4.35445 13.6424 4.35806Q13.6914 4.36167 13.7388 4.37477Q13.7862 4.38787 13.8301 4.40996L13.8318 4.41086Q13.8757 4.43295 13.9145 4.46318Q13.9532 4.49341 13.9853 4.53062Q14.0175 4.56783 14.0417 4.61059Q14.0659 4.65335 14.0813 4.70002Q14.0968 4.74668 14.1028 4.79546Q14.1088 4.84424 14.1052 4.89325Q14.1016 4.94226 14.0885 4.98963Q14.0754 5.037 14.0533 5.0809L12.8852 7.40228L11 8.0843L11 9.5703L12.8852 10.2534L14.0533 12.5748Q14.0754 12.6187 14.0885 12.6661Q14.1016 12.7134 14.1052 12.7625Q14.1088 12.8115 14.1028 12.8603Q14.0968 12.909 14.0813 12.9557Q14.0659 13.0024 14.0417 13.0451Q14.0175 13.0879 13.9853 13.1251Q13.9532 13.1623 13.9145 13.1925Q13.8757 13.2228 13.8318 13.2449L13.8301 13.2457Q13.7862 13.2678 13.7388 13.2809Q13.6914 13.294 13.6424 13.2977Q13.5934 13.3013 13.5446 13.2952Q13.4958 13.2892 13.4492 13.2738Q13.4025 13.2584 13.3597 13.2341Q13.317 13.2099 13.2798 13.1778Q13.2426 13.1457 13.2123 13.107Q13.1821 13.0682 13.16 13.0243L12.1709 11.0587C12.1709 11.0587 10.996 10.6323 10.996 10.6323C10.996 10.6323 10.9948 10.692 10.9948 10.692C10.8951 12.5357 9.36858 14 7.50001 14C5.60896 14 4.0682 12.5003 4.00221 10.6253C4.00221 10.6253 2.80672 11.0587 2.80672 11.0587L1.8176 13.0243Q1.79551 13.0682 1.76528 13.107Q1.73505 13.1457 1.69784 13.1778Q1.66062 13.2099 1.61786 13.2341Q1.5751 13.2584 1.52844 13.2738Q1.48177 13.2892 1.433 13.2952Q1.38422 13.3013 1.33521 13.2977Q1.28619 13.294 1.23882 13.2809Q1.19145 13.2678 1.14755 13.2457L1.14576 13.2449Q1.10186 13.2228 1.06311 13.1925Q1.02436 13.1623 0.992255 13.1251Q0.960148 13.0879 0.935917 13.0451Q0.911687 13.0024 0.896264 12.9557Q0.880841 12.909 0.874818 12.8603Q0.868795 12.8115 0.872404 12.7625Q0.876012 12.7134 0.889114 12.6661Q0.902216 12.6187 0.924307 12.5748L2.09239 10.2534L4.00001 9.5613L4.00001 8.0933L2.09239 7.40228L0.924307 5.0809Q0.902215 5.037 0.889114 4.98963Q0.876012 4.94226 0.872403 4.89325Q0.868795 4.84424 0.874818 4.79546Q0.880841 4.74668 0.896264 4.70002Q0.911687 4.65335 0.935917 4.61059Q0.960148 4.56784 0.992254 4.53063Q1.02436 4.49341 1.06311 4.46318Q1.10186 4.43295 1.14576 4.41086L1.14755 4.40996Q1.19145 4.38787 1.23882 4.37477Q1.28619 4.36167 1.33521 4.35806Q1.38422 4.35445 1.433 4.36047Q1.48177 4.36649 1.52844 4.38192Q1.5751 4.39734 1.61786 4.42157Q1.66062 4.4458 1.69784 4.47791Q1.73505 4.51001 1.76528 4.54876Q1.79551 4.58751 1.8176 4.63141L2.80672 6.597L4.00001 7.0293L4.00001 6C4.00001 6 4.99952 5.9993 4.99952 5.9993C4.99952 5.9993 5.00001 5.5 5.00001 5.5C5.00001 4.92809 5.19205 4.40103 5.51517 3.97979C5.18952 3.13348 4.55654 2.47205 3.77965 2.09433C3.77965 2.09433 3.58252 2.00587 3.58252 2.00587C3.58252 2.00587 4.10253 1.1413 4.10253 1.1413C5.05199 1.57069 5.84576 2.3251 6.31119 3.30078C6.66344 3.10908 7.06899 3 7.50001 3C7.93664 3 8.34712 3.11193 8.70433 3.30867C9.16766 2.3287 9.96296 1.57171 10.9147 1.1413ZM5 10.5C5 11.7093 5.85866 12.7181 6.99957 12.9499L6.99996 8.49904C6.99998 8.22343 7.22343 8 7.49904 8L7.50096 8C7.77657 8 8.00002 8.22343 8.00004 8.49904C8.00015 9.7555 8.00043 12.9499 8.00043 12.9499C9.08923 12.7287 9.92098 11.7998 9.99468 10.6644C9.99468 10.6644 10 10.5 10 10.5L10 7C10 7 5 7 5 7C5 7 5 10.5 5 10.5ZM7.5 4L7.35554 4.00687C6.64243 4.07501 6.07501 4.64243 6.00687 5.35554L6 5.5L6 6L9 6L9 5.5L8.99313 5.35554C8.92045 4.59489 8.2797 4 7.5 4Z" id="Shape" fill="#000000" fill-rule="evenodd" stroke="none" artboard="3e8c0a30-8fc3-47ee-9dfe-bb1a604688a2" />
  </g>
</svg>