<?xml version="1.0" encoding="utf-8"?>
<svg width="15px" height="15px" viewBox="0 0 15 15" version="1.1" xmlns:xlink="http://www.w3.org/1999/xlink" xmlns="http://www.w3.org/2000/svg">
  <defs>
    <rect width="15" height="15" id="artboard_1" />
    <clipPath id="clip_1">
      <use xlink:href="#artboard_1" clip-rule="evenodd" />
    </clipPath>
  </defs>
  <g id="icon--fingerprint" clip-path="url(#clip_1)">
    <path d="M12 11.4984L12 12.9989L11 12.9989L11 11.4999C11 11.2237 11.2237 10.9997 11.5 10.9995C11.7759 10.9992 11.9997 11.2225 12 11.4984ZM4 7L4 12.9989L3 12.9989L3 6.99907C3 6.7232 3.2236 6.4996 3.49947 6.4996C3.77627 6.49987 4 6.72387 4 7ZM10 12.4999L10 12.9989L9.00001 12.9989L9.00001 12.4999C9.00001 12.2237 9.22388 11.9999 9.50001 11.9999C9.77614 11.9999 10 12.2237 10 12.4999ZM6.00001 11.4999L6.00001 12.9989L5.00001 12.9989L5.00001 11.4999C5.00001 11.2237 5.22388 10.9999 5.50001 10.9999C5.77614 10.9999 6.00001 11.2237 6.00001 11.4999ZM8 8.99783L8 12.9989L7 12.9989L7 8.99783C7 8.7217 7.22387 8.49783 7.5 8.49783C7.77613 8.49783 8 8.7217 8 8.99783ZM8.50121 5.28307C8.41921 5.194 8.36908 5.07533 8.36908 4.9452C8.36908 4.6692 8.59415 4.4452 8.87148 4.4452C8.99695 4.4452 9.11175 4.49093 9.19975 4.56667C9.65441 4.9884 9.95201 5.57733 9.99468 6.2356L10 6.39987L10 11.0022C10 11.2785 9.77615 11.5022 9.50001 11.5022C9.22388 11.5022 9.00001 11.2785 9.00001 11.0022L9.00001 6.39987C9.00001 5.95627 8.80748 5.5576 8.50121 5.28307ZM7.468 4.90027C6.7028 4.91627 6.07853 5.5052 6.00693 6.25547L6 6.39987L6 10.0054C6 10.2817 5.77613 10.5054 5.5 10.5054C5.22387 10.5054 5 10.2817 5 10.0054L5 6.39987C5 5.0192 6.11933 3.89987 7.5 3.89987C7.52987 3.9 7.55813 3.90293 7.58573 3.90853C7.82227 3.94907 8.00253 4.1544 8.00253 4.40133C8.00253 4.6772 7.77733 4.90133 7.5 4.90133C7.4892 4.90133 7.47853 4.90093 7.468 4.90027ZM3.06241 5.61933C3.43668 3.5064 5.28081 1.9 7.50001 1.9C9.91428 1.9 11.8845 3.8012 11.9951 6.18813L12 6.39987L12 10.005C12 10.2813 11.7763 10.5053 11.5 10.5056C11.2241 10.5058 11.0003 10.2824 11 10.0065L11 6.39987C11 4.46693 9.43295 2.89987 7.50001 2.89987C5.78094 2.89987 4.35134 4.13933 4.05601 5.7732L4.05454 5.7796C3.99721 6.0496 3.73054 6.222 3.45921 6.1644C3.20414 6.11027 3.02321 5.85693 3.06241 5.61933ZM7.00001 6.49987C7.00001 6.22373 7.22388 6 7.50001 6C7.77614 6 8.00001 6.22373 8.00001 6.49987L8.00001 7.49987C8.00001 7.77613 7.77614 7.99987 7.50001 7.99987C7.22388 7.99987 7.00001 7.77613 7.00001 7.49987L7.00001 6.49987Z" id="Fill-1" fill="#000000" fill-rule="evenodd" stroke="none" artboard="78067596-65e1-404a-9cb8-3290d66cc309" />
  </g>
</svg>