<?xml version="1.0" encoding="utf-8"?>
<svg width="15px" height="15px" viewBox="0 0 15 15" version="1.1" xmlns:xlink="http://www.w3.org/1999/xlink" xmlns="http://www.w3.org/2000/svg">
  <defs>
    <rect width="15" height="15" id="artboard_1" />
    <clipPath id="clip_1">
      <use xlink:href="#artboard_1" clip-rule="evenodd" />
    </clipPath>
  </defs>
  <g id="icon--key-chain" clip-path="url(#clip_1)">
    <path d="M6.36369 4.18712C6.19359 4.5907 6.10001 5.03442 6.10001 5.5L6.10407 5.68451C5.94329 5.93402 5.85001 6.23112 5.85001 6.55C5.85001 7.40507 6.52076 8.10349 7.36481 8.14777C7.75772 8.4635 8.22263 8.69516 8.73121 8.81272C8.49291 8.94829 8.22989 9.04734 7.95093 9.10179L7.95001 13.55C7.95001 13.8261 7.72615 14.05 7.45001 14.05L6.45001 14.05C6.17386 14.05 5.95001 13.8261 5.95001 13.55C5.95001 13.2739 6.17386 13.05 6.45001 13.05L6.95001 13.05L6.95001 12.05L6.45001 12.05C6.17386 12.05 5.95001 11.8261 5.95001 11.55C5.95001 11.2739 6.17386 11.05 6.45001 11.05L6.95001 11.05L6.95009 9.10198C5.75333 8.86891 4.85001 7.81494 4.85001 6.55C4.85001 5.50185 5.47023 4.59856 6.36369 4.18712ZM10.831 3.26571C11.3025 3.54676 11.6898 3.97837 11.9114 4.52671C12.3851 5.69922 11.9427 7.01442 10.921 7.67902L12.5865 11.8037C12.69 12.0597 12.5663 12.3511 12.3102 12.4546L11.383 12.8292C11.127 12.9326 10.8356 12.8089 10.7322 12.5529C10.6287 12.2969 10.7524 12.0054 11.0084 11.902L11.472 11.7147L11.0974 10.7875L10.6338 10.9748C10.3778 11.0783 10.0864 10.9546 9.98294 10.6985C9.8795 10.4425 10.0032 10.1511 10.2592 10.0476L10.7228 9.86032L9.99316 8.05412C8.79623 8.28632 7.56386 7.6475 7.09 6.47467C6.61062 5.28815 7.06933 3.95552 8.11718 3.29883C8.24626 3.50223 8.31999 3.7425 8.31999 4C8.31999 4.20098 8.27508 4.39147 8.19473 4.56198L8.15609 4.63323L8.15399 4.63569L8.08065 4.76339C7.873 5.16378 7.83498 5.64907 8.01719 6.10006C8.34821 6.91937 9.28074 7.31521 10.1001 6.98418C10.9194 6.65316 11.3152 5.72063 10.9842 4.90132C10.9459 4.80666 10.8997 4.71765 10.8465 4.63476C10.8824 4.42866 10.9 4.21639 10.9 4C10.9 3.74899 10.8763 3.50352 10.831 3.26571ZM9.98167 3.1488L10.0414 3.39722L10.0414 3.39722L10.071 3.57431L10.071 3.57431L10.0941 3.80759L10.0941 3.80759L10.1 4C10.1 5.02494 9.60259 5.93371 8.836 6.49807C8.64066 6.36954 8.48176 6.18229 8.38767 5.94941C8.34682 5.8483 8.32073 5.74488 8.30839 5.64156C8.79174 5.25619 9.09999 4.66409 9.09999 4L9.08235 3.72655L9.08235 3.72655L9.05208 3.55259L9.03519 3.48031L9.00199 3.36423C8.9604 3.233 8.90619 3.1073 8.84084 2.98859C8.48312 2.33941 7.79287 1.9 6.99999 1.9C5.8402 1.9 4.89999 2.8402 4.89999 4C4.89999 4.09497 4.9063 4.18846 4.91851 4.28009C4.6248 4.60725 4.39287 4.99333 4.24295 5.41812C4.02382 4.99386 3.89999 4.51139 3.89999 4C3.89999 2.28792 5.28791 0.9 6.99999 0.9C8.26995 0.9 9.36156 1.66365 9.84065 2.7568L9.91104 2.93262L9.91104 2.93262L9.93013 2.98535C9.94877 3.03918 9.96597 3.09367 9.98167 3.1488Z" id="Shape" fill="#000000" fill-rule="evenodd" stroke="none" artboard="63c483df-02ef-4b26-9cc0-eba10fff2b39" />
  </g>
</svg>