<?xml version="1.0" encoding="utf-8"?>
<svg width="15px" height="15px" viewBox="0 0 15 15" version="1.1" xmlns:xlink="http://www.w3.org/1999/xlink" xmlns="http://www.w3.org/2000/svg">
  <defs>
    <rect width="15" height="15" id="artboard_1" />
    <clipPath id="clip_1">
      <use xlink:href="#artboard_1" clip-rule="evenodd" />
    </clipPath>
  </defs>
  <g id="icon--life-save-ring" clip-path="url(#clip_1)">
    <path d="M12.0962 2.90381C12.2915 3.09907 12.2915 3.41565 12.0962 3.61091L11.7272 3.98079C13.4245 6.01476 13.4243 8.98625 11.7265 11.02L12.0962 11.3891C12.2915 11.5843 12.2915 11.9009 12.0962 12.0962C11.9009 12.2915 11.5843 12.2915 11.3891 12.0962L11.0192 11.7272C8.9855 13.4243 6.0145 13.4243 3.98079 11.7272L3.61091 12.0962C3.41565 12.2915 3.09907 12.2915 2.90381 12.0962C2.70854 11.9009 2.70854 11.5843 2.90381 11.3891L3.27347 11.02C1.57573 8.98625 1.57551 6.01476 3.27282 3.98079L2.90381 3.61091C2.70854 3.41565 2.70854 3.09907 2.90381 2.90381C3.09907 2.70854 3.41565 2.70854 3.61091 2.90381L3.98002 3.27347C6.01401 1.57551 8.98599 1.57551 11.02 3.27347L11.3891 2.90381C11.5843 2.70854 11.9009 2.70854 12.0962 2.90381ZM5.05637 5.75887L5.02512 5.73223L3.91222 4.6205C2.56237 6.29815 2.56258 8.70286 3.91285 10.3803L5.02512 9.26777L5.05696 9.24195C4.31453 8.20337 4.31434 6.79764 5.05637 5.75887ZM5.77852 9.95755L5.76102 9.94355L4.62048 11.0878C6.29787 12.4374 8.7021 12.4374 10.3795 11.0878L9.26775 9.97487L9.24112 9.94362C8.20916 10.6808 6.81504 10.6854 5.77852 9.95755ZM8.98492 6.01508C8.16482 5.19498 6.83517 5.19498 6.01507 6.01508C5.19497 6.83518 5.19497 8.16482 6.01507 8.98493C6.83517 9.80503 8.16482 9.80503 8.98492 8.98493C9.80502 8.16482 9.80502 6.83518 8.98492 6.01508ZM4.61972 3.91286L5.73224 5.02513L5.75805 5.05697C6.7969 4.31435 8.20311 4.31435 9.24196 5.05697L9.25349 5.04047L10.3803 3.91286C8.70261 2.56238 6.2974 2.56238 4.61972 3.91286ZM11.0878 4.6205L9.97486 5.73223L9.94361 5.75887C10.6856 6.79764 10.6854 8.20337 9.94302 9.24195L9.97486 9.26777L11.0871 10.3803C12.4374 8.70286 12.4376 6.29815 11.0878 4.6205Z" id="Shape" fill="#000000" fill-rule="evenodd" stroke="none" artboard="5c46385b-4a8b-4882-a1c8-d82d6c96d191" />
  </g>
</svg>