<?xml version="1.0" encoding="utf-8"?>
<svg width="15px" height="15px" viewBox="0 0 15 15" version="1.1" xmlns:xlink="http://www.w3.org/1999/xlink" xmlns="http://www.w3.org/2000/svg">
  <defs>
    <rect width="15" height="15" id="artboard_1" />
    <clipPath id="clip_1">
      <use xlink:href="#artboard_1" clip-rule="evenodd" />
    </clipPath>
  </defs>
  <g id="icon--shield-off" clip-path="url(#clip_1)">
    <path d="M1.95356 2.24645L12.7317 13.0246C12.927 13.2199 12.927 13.5365 12.7317 13.7317C12.5365 13.927 12.2199 13.927 12.0246 13.7317L10.0703 11.7774C9.44935 12.4299 8.69752 12.9678 7.84298 13.3476L7.50001 13.5L7.15704 13.3476C4.62914 12.2241 3.00001 9.71721 3.00001 6.95089L3.00001 4.707L1.24645 2.95355C1.05119 2.75829 1.05119 2.44171 1.24645 2.24645C1.44171 2.05118 1.7583 2.05118 1.95356 2.24645ZM4 5.707L4 6.95089C4 9.24026 5.30176 11.3223 7.34179 12.3299L7.499 12.403L7.65821 12.3299C8.30733 12.0093 8.8817 11.5799 9.36318 11.0697L4 5.707ZM7.5 1.9L12 3.5L12 6.95089C12 8.07914 11.729 9.16424 11.2366 10.1299L10.4868 9.37922C10.7873 8.70044 10.964 7.96142 10.995 7.19534L11 6.95089L11 4.206L7.5 2.961L4.968 3.861L4.185 3.078L7.5 1.9Z" id="Shape" fill="#000000" fill-rule="evenodd" stroke="none" artboard="1850191e-0707-4c22-a22d-08f7d7770be4" />
  </g>
</svg>