<?xml version="1.0" encoding="utf-8"?>
<svg width="15px" height="15px" viewBox="0 0 15 15" version="1.1" xmlns:xlink="http://www.w3.org/1999/xlink" xmlns="http://www.w3.org/2000/svg">
  <defs>
    <rect width="15" height="15" id="artboard_1" />
    <clipPath id="clip_1">
      <use xlink:href="#artboard_1" clip-rule="evenodd" />
    </clipPath>
  </defs>
  <g id="icon--umbrella" clip-path="url(#clip_1)">
    <path d="M7.49896 0.5L7.50096 0.5C7.63876 0.5 7.75637 0.548718 7.85381 0.646154C7.95124 0.74359 7.99996 0.861203 7.99996 0.999L7.99997 1.01637C11.2378 1.22949 13.9143 3.49729 14.7381 6.52813C14.8598 6.97608 14.9411 7.44074 14.9777 7.91785C14.6496 7.62632 14.2802 7.39474 13.8816 7.2371C13.4928 7.08335 13.0762 6.99996 12.6428 6.99996C11.774 6.99996 10.9723 7.33513 10.3274 7.90063C10.2391 7.97813 10.1536 8.05996 10.0714 8.14584C9.98913 8.05996 9.90371 7.97813 9.81533 7.90063C9.29626 7.44542 8.67552 7.13946 7.99997 7.03744L7.99996 12.501C7.99996 12.9149 7.85361 13.2683 7.56091 13.561C7.26822 13.8537 6.9149 14 6.50096 14L6.49896 14C6.08502 14 5.73171 13.8537 5.43901 13.561C5.14631 13.2683 4.99996 12.9149 4.99996 12.501L4.99996 12.5L5.99996 12.5L5.99996 12.501C5.99996 12.8337 6.1663 13 6.49896 13L6.50096 13C6.6673 13 6.79205 12.9584 6.87521 12.8753C6.95838 12.7921 6.99996 12.6673 6.99996 12.501L6.99997 7.03744C6.32439 7.13945 5.70364 7.44542 5.18456 7.90064C5.09619 7.97814 5.01077 8.05996 4.92853 8.14584C4.84628 8.05996 4.76086 7.97814 4.6725 7.90064C4.02765 7.33513 3.22592 6.99996 2.3571 6.99996C1.92375 6.99996 1.50709 7.08335 1.11827 7.2371C0.719665 7.39474 0.350313 7.62632 0.0222168 7.91785C0.0588446 7.44073 0.140115 6.97608 0.261858 6.52813C1.08558 3.49728 3.76217 1.22948 6.99997 1.01637L6.99996 0.999C6.99996 0.861203 7.04868 0.74359 7.14612 0.646154C7.24355 0.548718 7.36117 0.5 7.49896 0.5L7.49896 0.5ZM3.07384 3.7398C4.32059 2.57993 5.79598 2 7.5 2C9.20402 2 10.6794 2.57993 11.9262 3.7398C12.6674 4.42939 13.2102 5.21327 13.5547 6.09145C13.2602 6.03048 12.9563 6 12.6428 6C11.6899 6 10.8327 6.27406 10.0714 6.82219C9.31009 6.27406 8.45295 6 7.49999 6C6.54704 6 5.6899 6.27406 4.92857 6.82219C4.16724 6.27406 3.31009 6 2.35714 6C2.04369 6 1.73975 6.03048 1.44531 6.09144C1.78976 5.21326 2.3326 4.42938 3.07384 3.7398L3.07384 3.7398Z" id="Vector" fill="#000000" fill-rule="evenodd" stroke="none" artboard="29d2bb99-41cd-4bf9-9f52-62352110f1f5" />
  </g>
</svg>