<?xml version="1.0" encoding="utf-8"?>
<svg width="15px" height="15px" viewBox="0 0 15 15" version="1.1" xmlns:xlink="http://www.w3.org/1999/xlink" xmlns="http://www.w3.org/2000/svg">
  <defs>
    <rect width="15" height="15" id="artboard_1" />
    <clipPath id="clip_1">
      <use xlink:href="#artboard_1" clip-rule="evenodd" />
    </clipPath>
  </defs>
  <g id="icon--whistle" clip-path="url(#clip_1)">
    <path d="M6 6L6 6.5C6 6.77614 6.22386 7 6.5 7C6.77614 7 7 6.77614 7 6.5L7 6L10 6C12.2091 6 14 7.79086 14 10C14 12.1422 12.316 13.8911 10.1996 13.9951L10 14C7.84368 14 6.08587 12.2937 6.00305 10.1577L1.38783 9.09523C1.16084 9.04298 1 8.8409 1 8.60798L1 6.5C1 6.22386 1.22386 6 1.5 6L6 6ZM5.086 7L2 7L2 8.209L6.97267 9.35477L7.0023 10.119C7.06455 11.7246 8.38732 13 10 13C11.6569 13 13 11.6569 13 10C13 8.40232 11.7511 7.09634 10.1763 7.00509L10 7L7.913 7L7.89516 7.05202C7.67528 7.60728 7.1335 8 6.5 8C5.8665 8 5.32472 7.60728 5.10484 7.05202L5.086 7ZM10.1065 2.16702C10.3241 2.33703 10.3627 2.65125 10.1927 2.86886L8.96135 4.44488C8.88579 4.54159 8.78174 4.60294 8.67035 4.62633L8.58576 4.63672C8.47202 4.64097 8.35623 4.60661 8.25951 4.53105C8.04191 4.36104 8.00333 4.04682 8.17334 3.82922L9.40466 2.2532C9.48022 2.15648 9.58427 2.09513 9.69566 2.07174L9.78025 2.06136C9.89399 2.0571 10.0098 2.09146 10.1065 2.16702ZM3.43415 2.18733L3.49583 2.2532L4.72716 3.82922C4.89717 4.04682 4.85859 4.36104 4.64098 4.53105C4.56845 4.58772 4.48518 4.62122 4.40009 4.63263L4.31473 4.63672C4.20099 4.63247 4.08931 4.58961 4.00083 4.51074L3.93915 4.44488L2.70782 2.86886C2.53781 2.65125 2.5764 2.33703 2.794 2.16702C2.86653 2.11035 2.9498 2.07686 3.03489 2.06545L3.12025 2.06136C3.23399 2.06561 3.34567 2.10846 3.43415 2.18733ZM6.5 1C6.77614 1 7 1.22386 7 1.5L7 3.5C7 3.74546 6.82312 3.94961 6.58988 3.99194L6.5 4C6.22386 4 6 3.77614 6 3.5L6 1.5C6 1.25454 6.17688 1.05039 6.41012 1.00806L6.5 1Z" id="Shape" fill="#000000" fill-rule="evenodd" stroke="none" artboard="2032def5-4624-456f-b1a5-2e8557213d5b" />
  </g>
</svg>