<?xml version="1.0" encoding="utf-8"?>
<svg width="15px" height="15px" viewBox="0 0 15 15" version="1.1" xmlns:xlink="http://www.w3.org/1999/xlink" xmlns="http://www.w3.org/2000/svg">
  <defs>
    <rect width="15" height="15" id="artboard_1" />
    <clipPath id="clip_1">
      <use xlink:href="#artboard_1" clip-rule="evenodd" />
    </clipPath>
  </defs>
  <g id="icon--basket-off" clip-path="url(#clip_1)">
    <path d="M2.95355 3.24645L12.7317 13.0246C12.927 13.2199 12.927 13.5365 12.7317 13.7317C12.5365 13.927 12.2199 13.927 12.0246 13.7317L11.293 12.9997L3.40421 13C3.16844 13 2.96471 12.8353 2.91531 12.6048L1.714 6.99973L1.5 7C1.22386 7 1 6.77614 1 6.5C1 6.22386 1.22386 6 1.5 6L4.051 5.99925L4.151 5.85773L2.24645 3.95355C2.05118 3.75829 2.05118 3.44171 2.24645 3.24645C2.44171 3.05118 2.75829 3.05118 2.95355 3.24645ZM5.293 6.99974L2.737 7L3.808 12L10.293 11.9997L8 9.70674L8 10.5C8 10.7761 7.77614 11 7.5 11C7.22386 11 7 10.7761 7 10.5L7 8.70674L5.293 6.99974ZM13.5 6C13.7761 6 14 6.22386 14 6.5C14 6.77614 13.7761 7 13.5 7L13.285 6.99974L12.371 11.2637L11.529 10.4217L12.262 7L8.10699 6.99974L7.10699 5.99974L13.5 6ZM5.5 8C5.77614 8 6 8.22386 6 8.5L6 10.5C6 10.7761 5.77614 11 5.5 11C5.22386 11 5 10.7761 5 10.5L5 8.5C5 8.22386 5.22386 8 5.5 8ZM9.5 8C9.77614 8 10 8.22386 10 8.5L10 8.89274L9.20471 8.09647C9.28745 8.03582 9.38955 8 9.5 8ZM7.79179 1.65075C7.83581 1.68238 7.87439 1.72096 7.90603 1.76498L10.949 5.99925L9.536 5.99925L7.50063 3.1L6.141 5.03374L5.328 4.22074L7.09398 1.76498C7.25513 1.54074 7.56755 1.48959 7.79179 1.65075Z" id="Shape" fill="#000000" fill-rule="evenodd" stroke="none" artboard="bada7f96-3fa2-45bc-8bc5-1800b4d16295" />
  </g>
</svg>