<?xml version="1.0" encoding="utf-8"?>
<svg width="15px" height="15px" viewBox="0 0 15 15" version="1.1" xmlns:xlink="http://www.w3.org/1999/xlink" xmlns="http://www.w3.org/2000/svg">
  <defs>
    <rect width="15" height="15" id="artboard_1" />
    <clipPath id="clip_1">
      <use xlink:href="#artboard_1" clip-rule="evenodd" />
    </clipPath>
  </defs>
  <g id="icon--basket-cross" clip-path="url(#clip_1)">
    <path d="M11.0835 10.3964L12.4977 11.91L13.912 10.3964C14.1072 10.2012 14.4238 10.2012 14.6191 10.3964C14.8143 10.5917 14.8143 10.9083 14.6191 11.1036L13.1 12.5178L14.6191 13.932C14.8143 14.1272 14.8143 14.4438 14.6191 14.6391C14.4238 14.8343 14.1072 14.8343 13.912 14.6391L12.4977 13.12L11.0835 14.6391C10.8883 14.8343 10.5717 14.8343 10.3764 14.6391C10.1812 14.4438 10.1812 14.1272 10.3764 13.932L11.89 12.5178L10.3764 11.1036C10.1812 10.9083 10.1812 10.5917 10.3764 10.3964C10.5717 10.2012 10.8883 10.2012 11.0835 10.3964ZM13.5 6C13.7761 6 14 6.22386 14 6.5C14 6.77614 13.7761 7 13.5 7L13.285 6.99974L12.856 8.99974L11.834 8.99974L12.262 7L2.737 7L3.808 12L9 11.9997L9 12.9997L3.40421 13C3.16844 13 2.96471 12.8353 2.91531 12.6048L1.714 6.99974L1.5 7C1.22386 7 1 6.77614 1 6.5C1 6.22386 1.22386 6 1.5 6L13.5 6ZM7.5 8C7.77614 8 8 8.22386 8 8.5L8 10.5C8 10.7761 7.77614 11 7.5 11C7.22386 11 7 10.7761 7 10.5L7 8.5C7 8.22386 7.22386 8 7.5 8ZM5.5 8C5.77614 8 6 8.22386 6 8.5L6 10.5C6 10.7761 5.77614 11 5.5 11C5.22386 11 5 10.7761 5 10.5L5 8.5C5 8.22386 5.22386 8 5.5 8ZM9.5 8C9.77614 8 10 8.22386 10 8.5L10 8.99974L9 9L9 8.5C9 8.22386 9.22386 8 9.5 8ZM7.79182 1.65075C7.83584 1.68238 7.87442 1.72096 7.90605 1.76498L10.949 5.99925L9.53603 5.99925L7.50066 3.1L5.46503 5.99925L4.05103 5.99925L7.094 1.76498C7.25515 1.54074 7.56758 1.48959 7.79182 1.65075Z" id="Shape" fill="#000000" fill-rule="evenodd" stroke="none" artboard="e324ec45-38aa-4e17-bf22-bf0501568e69" />
  </g>
</svg>