<?xml version="1.0" encoding="utf-8"?>
<svg width="15px" height="15px" viewBox="0 0 15 15" version="1.1" xmlns:xlink="http://www.w3.org/1999/xlink" xmlns="http://www.w3.org/2000/svg">
  <defs>
    <rect width="15" height="15" id="artboard_1" />
    <clipPath id="clip_1">
      <use xlink:href="#artboard_1" clip-rule="evenodd" />
    </clipPath>
  </defs>
  <g id="icon--basket" clip-path="url(#clip_1)">
    <path d="M13.5 6C13.7761 6 14 6.22386 14 6.5C14 6.77614 13.7761 7 13.5 7L13.285 6.99974L12.0847 12.6048C12.0353 12.8353 11.8316 13 11.5958 13L3.40421 13C3.16844 13 2.96471 12.8353 2.91531 12.6048L1.714 6.99974L1.5 7C1.22386 7 1 6.77614 1 6.5C1 6.22386 1.22386 6 1.5 6L13.5 6ZM12.262 7L2.737 7L3.808 12L11.191 12L12.262 7ZM7.5 8C7.77614 8 8 8.22386 8 8.5L8 10.5C8 10.7761 7.77614 11 7.5 11C7.22386 11 7 10.7761 7 10.5L7 8.5C7 8.22386 7.22386 8 7.5 8ZM5.5 8C5.77614 8 6 8.22386 6 8.5L6 10.5C6 10.7761 5.77614 11 5.5 11C5.22386 11 5 10.7761 5 10.5L5 8.5C5 8.22386 5.22386 8 5.5 8ZM9.5 8C9.77614 8 10 8.22386 10 8.5L10 10.5C10 10.7761 9.77614 11 9.5 11C9.22386 11 9 10.7761 9 10.5L9 8.5C9 8.22386 9.22386 8 9.5 8ZM7.79182 1.65075C7.83584 1.68238 7.87442 1.72096 7.90605 1.76498L10.949 5.99925L9.53603 5.99925L7.50066 3.1L5.46503 5.99925L4.05103 5.99925L7.094 1.76498C7.25515 1.54074 7.56758 1.48959 7.79182 1.65075Z" id="Shape" fill="#000000" fill-rule="evenodd" stroke="none" artboard="519ef309-c5ff-4840-9528-1679122c4bd6" />
  </g>
</svg>