<?xml version="1.0" encoding="utf-8"?>
<svg width="15px" height="15px" viewBox="0 0 15 15" version="1.1" xmlns:xlink="http://www.w3.org/1999/xlink" xmlns="http://www.w3.org/2000/svg">
  <defs>
    <rect width="15" height="15" id="artboard_1" />
    <clipPath id="clip_1">
      <use xlink:href="#artboard_1" clip-rule="evenodd" />
    </clipPath>
  </defs>
  <g id="icon--basket-arrow-down" clip-path="url(#clip_1)">
    <path d="M9.226 5.999L13.5 6C13.7761 6 14 6.22386 14 6.5C14 6.77614 13.7761 7 13.5 7L13.285 6.99974L12.0847 12.6048C12.0353 12.8353 11.8316 13 11.5958 13L3.40421 13C3.16844 13 2.96471 12.8353 2.91531 12.6048L1.714 6.99974L1.5 7C1.22386 7 1 6.77614 1 6.5C1 6.22386 1.22386 6 1.5 6L5.76 5.999L6.43271 6.67134L6.54445 6.77181C6.66055 6.86558 6.78916 6.93925 6.92492 6.99284L6.945 6.999L2.737 7L3.808 12L11.191 12L12.262 7L8.04 6.999L8.06183 6.99284C8.24284 6.92139 8.41115 6.81423 8.55404 6.67134L9.226 5.999ZM7.5 8C7.77614 8 8 8.22386 8 8.5L8 10.5C8 10.7761 7.77614 11 7.5 11C7.22386 11 7 10.7761 7 10.5L7 8.5C7 8.22386 7.22386 8 7.5 8ZM5.5 8C5.77614 8 6 8.22386 6 8.5L6 10.5C6 10.7761 5.77614 11 5.5 11C5.22386 11 5 10.7761 5 10.5L5 8.5C5 8.22386 5.22386 8 5.5 8ZM9.5 8C9.77614 8 10 8.22386 10 8.5L10 10.5C10 10.7761 9.77614 11 9.5 11C9.22386 11 9 10.7761 9 10.5L9 8.5C9 8.22386 9.22386 8 9.5 8ZM7.49498 1C7.77112 1 7.99498 1.22386 7.99498 1.5L7.99498 4.423L9.02888 3.26804C9.20991 3.08702 9.55497 3.08702 9.73599 3.26804C9.91701 3.44906 9.9453 3.76584 9.76428 3.94686L7.8469 5.86423C7.66588 6.04526 7.32082 6.04526 7.1398 5.86423L5.22243 3.94686C5.0414 3.76584 5.06969 3.44906 5.25071 3.26804C5.43173 3.08702 5.77679 3.08702 5.95782 3.26804L6.99398 4.426L6.99498 1.5C6.99498 1.22386 7.21883 1 7.49498 1Z" id="Shape" fill="#000000" fill-rule="evenodd" stroke="none" artboard="383cd593-b46f-4ee8-a712-6248c2d0420c" />
  </g>
</svg>