<?xml version="1.0" encoding="utf-8"?>
<svg width="15px" height="15px" viewBox="0 0 15 15" version="1.1" xmlns:xlink="http://www.w3.org/1999/xlink" xmlns="http://www.w3.org/2000/svg">
  <defs>
    <rect width="15" height="15" id="artboard_1" />
    <clipPath id="clip_1">
      <use xlink:href="#artboard_1" clip-rule="evenodd" />
    </clipPath>
  </defs>
  <g id="icon--basket-arrow-up" clip-path="url(#clip_1)">
    <path d="M5.97984 6.0005C6.13207 6.46314 6.48961 6.83257 6.94465 7.00099L2.737 7L3.808 12L11.191 12L12.262 7L8.05535 7.00099C8.51039 6.83257 8.86793 6.46314 9.02016 6.0005L13.5 6C13.7761 6 14 6.22386 14 6.5C14 6.77614 13.7761 7 13.5 7L13.285 6.99974L12.0847 12.6048C12.0353 12.8353 11.8316 13 11.5958 13L3.40421 13C3.16844 13 2.96471 12.8353 2.91531 12.6048L1.714 6.99974L1.5 7C1.22386 7 1 6.77614 1 6.5C1 6.22386 1.22386 6 1.5 6L5.97984 6.0005ZM7.5 8C7.77614 8 8 8.22386 8 8.5L8 10.5C8 10.7761 7.77614 11 7.5 11C7.22386 11 7 10.7761 7 10.5L7 8.5C7 8.22386 7.22386 8 7.5 8ZM5.5 8C5.77614 8 6 8.22386 6 8.5L6 10.5C6 10.7761 5.77614 11 5.5 11C5.22386 11 5 10.7761 5 10.5L5 8.5C5 8.22386 5.22386 8 5.5 8ZM9.5 8C9.77614 8 10 8.22386 10 8.5L10 10.5C10 10.7761 9.77614 11 9.5 11C9.22386 11 9 10.7761 9 10.5L9 8.5C9 8.22386 9.22386 8 9.5 8ZM7.1398 1.13577C7.29819 0.977372 7.58218 0.957573 7.77197 1.07637L7.8469 1.13577L9.76428 3.05314C9.9453 3.23416 9.91701 3.55094 9.73599 3.73196C9.5776 3.89036 9.29361 3.91016 9.10382 3.79136L9.02888 3.73196L7.99498 2.577L7.99498 5.5C7.99498 5.77614 7.77112 6 7.49498 6C7.24952 6 7.04537 5.82312 7.00303 5.58988L6.99498 5.5L6.99398 2.574L5.95782 3.73196C5.77679 3.91298 5.43173 3.91298 5.25071 3.73196C5.09232 3.57357 5.05086 3.31123 5.16424 3.12686L5.22243 3.05314L7.1398 1.13577Z" id="Shape" fill="#000000" fill-rule="evenodd" stroke="none" artboard="844d463a-02b2-48cb-aeec-0214d5d8dfac" />
  </g>
</svg>