<?xml version="1.0" encoding="utf-8"?>
<svg width="15px" height="15px" viewBox="0 0 15 15" version="1.1" xmlns:xlink="http://www.w3.org/1999/xlink" xmlns="http://www.w3.org/2000/svg">
  <defs>
    <rect width="15" height="15" id="artboard_1" />
    <clipPath id="clip_1">
      <use xlink:href="#artboard_1" clip-rule="evenodd" />
    </clipPath>
  </defs>
  <g id="icon--cart-off" clip-path="url(#clip_1)">
    <path d="M12.6317 12.6246L1.85355 1.84645C1.65829 1.65119 1.34171 1.65119 1.14645 1.84645C0.951184 2.04171 0.951184 2.35829 1.14645 2.55355L2.98561 4.39272L4.01103 7.2081L3.58415 8.3811C3.53648 8.5121 3.512 8.6504 3.51181 8.7898C3.51091 9.45254 4.04743 9.99053 4.71018 9.99143L8.58915 9.99626L9.57712 10.9842C9.17952 11.15 8.90003 11.5423 8.90003 12C8.90003 12.6075 9.39251 13.1 10 13.1C10.4577 13.1 10.8501 12.8205 11.0158 12.4229L11.9246 13.3317C12.1199 13.527 12.4365 13.527 12.6317 13.3317C12.827 13.1365 12.827 12.8199 12.6317 12.6246ZM7.59194 8.99905L6.59194 7.99904L4.78603 7.9991L4.52039 8.7309C4.4827 8.83473 4.53631 8.94945 4.64014 8.98714C4.66201 8.99508 4.68509 8.99914 4.70835 8.99914L7.59194 8.99905ZM4.65808 6.06519L4.99803 6.9991L5.59196 6.99907L4.65808 6.06519ZM11.892 2.99916L4.40503 2.999L5.40503 3.999L11.179 3.9991L10.1349 6.86751C10.1062 6.94652 10.0311 6.9991 9.94699 6.9991L8.40503 6.999L9.40603 7.999L9.94664 7.9991C10.4512 7.9991 10.9018 7.6835 11.0743 7.20936L12.3619 3.6701C12.3819 3.6153 12.392 3.55744 12.392 3.49912C12.392 3.22298 12.1681 2.99914 11.892 2.99916ZM6.10003 12C6.10003 11.3925 5.60754 10.9 5.00003 10.9C4.39251 10.9 3.90003 11.3925 3.90003 12C3.90003 12.6075 4.39251 13.1 5.00003 13.1C5.60754 13.1 6.10003 12.6075 6.10003 12Z" id="Combined-Shape" fill="#000000" fill-rule="evenodd" stroke="none" artboard="c2d07e86-b84d-4bb3-b050-5fb1bd1ed630" />
  </g>
</svg>