<?xml version="1.0" encoding="utf-8"?>
<svg width="15px" height="15px" viewBox="0 0 15 15" version="1.1" xmlns:xlink="http://www.w3.org/1999/xlink" xmlns="http://www.w3.org/2000/svg">
  <defs>
    <rect width="15" height="15" id="artboard_1" />
    <clipPath id="clip_1">
      <use xlink:href="#artboard_1" clip-rule="evenodd" />
    </clipPath>
  </defs>
  <g id="icon--cart" clip-path="url(#clip_1)">
    <path d="M5.00002 10.9C5.60754 10.9 6.10002 11.3925 6.10002 12C6.10002 12.6075 5.60754 13.1 5.00002 13.1C4.39251 13.1 3.90002 12.6075 3.90002 12C3.90002 11.3925 4.39251 10.9 5.00002 10.9ZM10 10.9C10.6075 10.9 11.1 11.3925 11.1 12C11.1 12.6075 10.6075 13.1 10 13.1C9.39251 13.1 8.90002 12.6075 8.90002 12C8.90002 11.3925 9.39251 10.9 10 10.9ZM3.29674 2.32715C3.44298 2.72782 3.542 2.9991 3.542 2.9991C3.542 2.9991 11.892 2.99916 11.892 2.99916C12.1681 2.99914 12.392 3.22298 12.392 3.49912C12.392 3.55743 12.3818 3.6153 12.3619 3.6701C12.3619 3.6701 11.0743 7.20936 11.0743 7.20936C10.9018 7.6835 10.4512 7.9991 9.94662 7.9991C9.94662 7.9991 4.786 7.9991 4.786 7.9991C4.786 7.9991 4.52036 8.7309 4.52036 8.7309C4.48267 8.83473 4.53628 8.94945 4.64011 8.98714C4.66198 8.99508 4.68506 8.99914 4.70833 8.99914C4.70833 8.99914 10.5 8.99993 10.5 8.99993C10.7761 9.00004 10.9999 9.22388 11 9.5C11 9.74512 10.8234 9.949 10.5904 9.99127C10.5904 9.99127 10.5 9.99932 10.5 9.99932C10.5 9.99932 4.71015 9.99143 4.71015 9.99143C4.04741 9.99053 3.51088 9.45254 3.51178 8.7898C3.51197 8.6504 3.53645 8.5121 3.58412 8.3811C3.58412 8.3811 4.011 7.2081 4.011 7.2081L2.478 2.9991L1.499 2.9997Q1.44986 2.99973 1.40167 2.99017Q1.35347 2.98061 1.30806 2.96182Q1.26266 2.94304 1.22179 2.91576Q1.18093 2.88847 1.14617 2.85374Q1.11142 2.819 1.08411 2.77816Q1.0568 2.73731 1.03799 2.69191Q1.01918 2.64652 1.00959 2.59833Q1 2.55014 1 2.501L1 2.499Q1 2.44985 1.00959 2.40163Q1.01917 2.35342 1.03798 2.30801Q1.05679 2.26259 1.08409 2.22172Q1.11139 2.18085 1.14614 2.14608Q1.18089 2.11132 1.22176 2.084Q1.26262 2.05668 1.30803 2.03785Q1.35343 2.01903 1.40164 2.00942Q1.44985 1.99981 1.499 1.99979L2.82778 1.99925Q2.90455 1.99921 2.97778 2.02226Q3.05102 2.04531 3.11393 2.0893Q3.17685 2.13329 3.22363 2.19416Q3.27042 2.25503 3.29674 2.32715ZM11.179 3.9991L3.90601 3.9991L4.99801 6.9991L9.94697 6.9991C10.031 6.9991 10.1061 6.94652 10.1349 6.86751L11.179 3.9991Z" id="Shape" fill="#000000" fill-rule="evenodd" stroke="none" artboard="c4ff345f-a122-4325-8d95-cf6eba922d78" />
  </g>
</svg>