<?xml version="1.0" encoding="utf-8"?>
<svg width="15px" height="15px" viewBox="0 0 15 15" version="1.1" xmlns:xlink="http://www.w3.org/1999/xlink" xmlns="http://www.w3.org/2000/svg">
  <defs>
    <rect width="15" height="15" id="artboard_1" />
    <clipPath id="clip_1">
      <use xlink:href="#artboard_1" clip-rule="evenodd" />
    </clipPath>
  </defs>
  <g id="icon--credit-card" clip-path="url(#clip_1)">
    <path d="M13.5 3C13.7761 3 14 3.22386 14 3.5L14 11.5C14 11.7761 13.7761 12 13.5 12L1.5 12C1.22386 12 1 11.7761 1 11.5L1 3.5C1 3.22386 1.22386 3 1.5 3L13.5 3ZM13 7L2 7L2 11L13 11L13 7ZM7 9L7 10L3 10L3 9L7 9ZM12 8L12 10L10 10L10 8L12 8ZM13 4L2 4L2 5L13 5L13 4Z" id="Shape" fill="#000000" fill-rule="evenodd" stroke="none" artboard="0f4cdb5f-a51b-49b3-b6cd-3cef4002b2fb" />
  </g>
</svg>