<?xml version="1.0" encoding="utf-8"?>
<svg width="15px" height="15px" viewBox="0 0 15 15" version="1.1" xmlns:xlink="http://www.w3.org/1999/xlink" xmlns="http://www.w3.org/2000/svg">
  <defs>
    <rect width="15" height="15" id="artboard_1" />
    <clipPath id="clip_1">
      <use xlink:href="#artboard_1" clip-rule="evenodd" />
    </clipPath>
  </defs>
  <g id="icon--credit-card-cross" clip-path="url(#clip_1)">
    <path d="M11.0835 10.3964L12.4977 11.91L13.912 10.3964C14.1072 10.2012 14.4238 10.2012 14.6191 10.3964C14.8143 10.5917 14.8143 10.9083 14.6191 11.1036L13.1 12.5178L14.6191 13.932C14.8143 14.1272 14.8143 14.4438 14.6191 14.6391C14.4238 14.8343 14.1072 14.8343 13.912 14.6391L12.4977 13.12L11.0835 14.6391C10.8883 14.8343 10.5717 14.8343 10.3764 14.6391C10.1812 14.4438 10.1812 14.1272 10.3764 13.932L11.89 12.5178L10.3764 11.1036C10.1812 10.9083 10.1812 10.5917 10.3764 10.3964C10.5717 10.2012 10.8883 10.2012 11.0835 10.3964ZM13.5 3C13.7761 3 14 3.22386 14 3.5L14 9L13 9L13 7L2 7L2 11L9 11L9 12L1.5 12C1.22386 12 1 11.7761 1 11.5L1 3.5C1 3.22386 1.22386 3 1.5 3L13.5 3ZM7 9L7 10L3 10L3 9L7 9ZM12 8L12 9L10 9L10 8L12 8ZM13 4L2 4L2 5L13 5L13 4Z" id="Shape" fill="#000000" fill-rule="evenodd" stroke="none" artboard="58680786-4de5-43a3-86f7-cc25950f82a9" />
  </g>
</svg>