<?xml version="1.0" encoding="utf-8"?>
<svg width="15px" height="15px" viewBox="0 0 15 15" version="1.1" xmlns:xlink="http://www.w3.org/1999/xlink" xmlns="http://www.w3.org/2000/svg">
  <defs>
    <rect width="15" height="15" id="artboard_1" />
    <clipPath id="clip_1">
      <use xlink:href="#artboard_1" clip-rule="evenodd" />
    </clipPath>
  </defs>
  <g id="icon--gift" clip-path="url(#clip_1)">
    <path d="M3 12.501L3 6.99942L2.499 6.99971Q2.44986 6.99974 2.40167 6.99017Q2.35347 6.98061 2.30806 6.96183Q2.26266 6.94304 2.22179 6.91576Q2.18093 6.88848 2.14617 6.85374Q2.11142 6.81901 2.08411 6.77816Q2.0568 6.73731 2.03799 6.69191Q2.01918 6.64652 2.00959 6.59833Q2 6.55013 2 6.501L2 4.49891Q2 4.44977 2.00959 4.40157Q2.01917 4.35338 2.03798 4.30797Q2.05678 4.26257 2.08408 4.22171Q2.11138 4.18085 2.14612 4.1461Q2.18087 4.11135 2.22173 4.08404Q2.26258 4.05673 2.30798 4.03792Q2.35338 4.01911 2.40158 4.00952Q2.44977 3.99992 2.49892 3.99991C3.4647 3.99975 5.495 3.99942 5.495 3.99942C5.495 3.99942 4.35335 3.62028 4.35335 3.62028C4.13118 3.5464 3.93417 3.4117 3.78469 3.23149C3.34316 2.69919 3.41675 1.90974 3.94905 1.46821C4.0251 1.40513 4.10588 1.34796 4.19067 1.29722C5.06151 0.776073 6.17707 1.01932 6.75678 1.83089C6.75678 1.83089 6.84375 1.96372 6.84375 1.96372C6.84375 1.96372 7.49424 3.05142 7.49424 3.05142C7.49424 3.05142 8.14526 1.96372 8.14526 1.96372C8.69383 1.04705 9.88165 0.748644 10.7983 1.29722C10.8831 1.34796 10.9639 1.40513 11.04 1.46821C11.5723 1.90974 11.6458 2.69919 11.2043 3.23149C11.0548 3.4117 10.8578 3.5464 10.6357 3.62028C10.6357 3.62028 9.493 3.99942 9.493 3.99942L12.5011 3.99991Q12.5502 3.99992 12.5984 4.00952Q12.6466 4.01911 12.692 4.03792Q12.7374 4.05673 12.7783 4.08404Q12.8191 4.11135 12.8539 4.1461Q12.8886 4.18085 12.9159 4.22171Q12.9432 4.26257 12.962 4.30797Q12.9808 4.35338 12.9904 4.40157Q13 4.44977 13 4.49891L13 6.501Q13 6.55013 12.9904 6.59833Q12.9808 6.64652 12.962 6.69191Q12.9432 6.73731 12.9159 6.77816Q12.8886 6.81901 12.8538 6.85374Q12.8191 6.88848 12.7782 6.91576Q12.7373 6.94304 12.6919 6.96183Q12.6465 6.98061 12.5983 6.99017Q12.5501 6.99974 12.501 6.99971L12 6.99942L12 12.501Q12 12.5501 11.9904 12.5983Q11.9808 12.6465 11.962 12.692Q11.9432 12.7374 11.9159 12.7782Q11.8886 12.8191 11.8538 12.8538Q11.8191 12.8886 11.7782 12.9159Q11.7374 12.9432 11.692 12.962Q11.6466 12.9808 11.5983 12.9904Q11.5501 13 11.501 13L3.499 13Q3.44985 13 3.40165 12.9904Q3.35345 12.9808 3.30804 12.962Q3.26263 12.9432 3.22177 12.9159Q3.18091 12.8886 3.14615 12.8538Q3.1114 12.8191 3.0841 12.7782Q3.05679 12.7374 3.03798 12.692Q3.01918 12.6465 3.00959 12.5983Q3 12.5501 3 12.501ZM4 12L7 11.9994L7 6.99942L4 7L4 12ZM11 7L8 6.99942L8 11.9994L11 12L11 7ZM7 4.99942L3 5L3 6L7 5.99942L7 4.99942ZM12 5L8 4.99942L8 5.99942L12 6L12 5ZM4.60148 1.98369C4.55176 2.01345 4.50439 2.04697 4.45979 2.08396C4.29158 2.22348 4.25021 2.45921 4.34932 2.64474L4.40043 2.72075L4.45984 2.78015L4.52889 2.82736L4.6058 2.86116L6.90583 3.62631L6.15728 2.37454L6.0881 2.2719C5.74342 1.81586 5.1032 1.68344 4.60148 1.98369ZM8.90092 2.2719L8.83174 2.37454L8.08319 3.62631L10.3832 2.86116C10.4367 2.84337 10.4862 2.81582 10.5292 2.78015L10.5886 2.72075C10.748 2.52852 10.7215 2.24342 10.5292 2.08396C10.4846 2.04697 10.4373 2.01345 10.3875 1.98369C9.88583 1.68344 9.2456 1.81586 8.90092 2.2719Z" id="Shape" fill="#000000" fill-rule="evenodd" stroke="none" artboard="e4a01e5d-2434-42d3-8e55-bb50cb950020" />
  </g>
</svg>