<?xml version="1.0" encoding="utf-8"?>
<svg width="15px" height="15px" viewBox="0 0 15 15" version="1.1" xmlns:xlink="http://www.w3.org/1999/xlink" xmlns="http://www.w3.org/2000/svg">
  <defs>
    <rect width="15" height="15" id="artboard_1" />
    <clipPath id="clip_1">
      <use xlink:href="#artboard_1" clip-rule="evenodd" />
    </clipPath>
  </defs>
  <g id="icon--honour" clip-path="url(#clip_1)">
    <path d="M5.96572 1.13729C8.09958 0.565522 10.2929 1.83185 10.8647 3.96572C11.1375 4.9838 10.9919 6.01542 10.5333 6.87801L13.1741 11.4521L10.9115 11.6038L9.70998 13.4521L8.87305 12.0031L8.87381 13.6762L6.90912 12.6762L4.87381 13.6762L4.87356 8.38835C4.04843 7.87039 3.40932 7.05152 3.13729 6.03627C2.56552 3.9024 3.83185 1.70906 5.96572 1.13729ZM5.77341 8.80847L5.77325 12.2312L6.91621 11.6699L7.97325 12.2072L7.97282 10.4439L7.13864 8.99951C6.66875 9.01611 6.20754 8.94889 5.77341 8.80847ZM9.96232 7.69064C9.47577 8.22736 8.83805 8.63813 8.09161 8.84943L9.75535 11.7297L10.4022 10.7359L11.6726 10.6504L9.96232 7.69064ZM6.22453 2.10322C4.62413 2.53204 3.67439 4.17706 4.10321 5.77745C4.53204 7.37785 6.17705 8.3276 7.77745 7.89877C9.37784 7.46995 10.3276 5.82494 9.89877 4.22454C9.46994 2.62414 7.82493 1.67439 6.22453 2.10322ZM7.09572 3.4227L7.87218 6.32048L7.03033 6.54605L6.51372 4.61804L5.91174 4.77934L5.84833 4.54268L6.48595 3.58609L7.09572 3.4227Z" id="Shape" fill="#000000" fill-rule="evenodd" stroke="none" artboard="9528df91-7705-4cdf-9f12-62de0aa3ae31" />
  </g>
</svg>