<?xml version="1.0" encoding="utf-8"?>
<svg width="15px" height="15px" viewBox="0 0 15 15" version="1.1" xmlns:xlink="http://www.w3.org/1999/xlink" xmlns="http://www.w3.org/2000/svg">
  <defs>
    <rect width="15" height="15" id="artboard_1" />
    <clipPath id="clip_1">
      <use xlink:href="#artboard_1" clip-rule="evenodd" />
    </clipPath>
  </defs>
  <g id="icon--label" clip-path="url(#clip_1)">
    <path d="M6.85956 1C6.99217 1 7.11935 1.05268 7.21311 1.14645L14.6464 8.57978C14.8417 8.77504 14.8417 9.09163 14.6464 9.28689L9.28689 14.6464C9.09163 14.8417 8.77504 14.8417 8.57978 14.6464L1.14645 7.21311C1.05268 7.11935 1 6.99217 1 6.85956L1 1.5C1 1.22386 1.22386 1 1.5 1L6.85956 1ZM6.653 2L2 2L2 6.653L8.933 13.586L13.586 8.933L6.653 2ZM4.50002 2.9C5.38368 2.9 6.10002 3.61635 6.10002 4.5C6.10002 5.38366 5.38368 6.1 4.50002 6.1C3.61637 6.1 2.90002 5.38366 2.90002 4.5C2.90002 3.61635 3.61637 2.9 4.50002 2.9ZM4.49999 3.8C4.11339 3.8 3.79999 4.1134 3.79999 4.5C3.79999 4.8866 4.11339 5.2 4.49999 5.2C4.88659 5.2 5.19999 4.8866 5.19999 4.5C5.19999 4.1134 4.88659 3.8 4.49999 3.8Z" id="Shape" fill="#000000" stroke="none" artboard="97899b9f-e6e6-4448-a823-1ac0fe2280cd" />
  </g>
</svg>