<?xml version="1.0" encoding="utf-8"?>
<svg width="15px" height="15px" viewBox="0 0 15 15" version="1.1" xmlns:xlink="http://www.w3.org/1999/xlink" xmlns="http://www.w3.org/2000/svg">
  <defs>
    <rect width="15" height="15" id="artboard_1" />
    <clipPath id="clip_1">
      <use xlink:href="#artboard_1" clip-rule="evenodd" />
    </clipPath>
  </defs>
  <g id="icon--megafone" clip-path="url(#clip_1)">
    <path d="M13 3.6923L13 11.3077Q13 11.3372 12.9965 11.3666Q12.993 11.3959 12.9861 11.4246Q12.9792 11.4533 12.9689 11.4811Q12.9586 11.5088 12.9452 11.5351Q12.9317 11.5614 12.9152 11.5859Q12.8988 11.6104 12.8795 11.6328Q12.8603 11.6552 12.8385 11.6752Q12.8167 11.6952 12.7928 11.7125Q12.7688 11.7298 12.743 11.7441Q12.7171 11.7584 12.6898 11.7696Q12.6624 11.7808 12.6339 11.7886Q12.6055 11.7965 12.5763 11.801Q12.547 11.8054 12.5175 11.8064Q12.488 11.8074 12.4585 11.8049Q12.4291 11.8024 12.4002 11.7964Q12.3712 11.7904 12.3432 11.7811C11.6165 11.5388 9.712 10.904 9.712 10.904C9.712 10.904 9.25325 12.3033 9.25325 12.3033C9.167 12.5656 8.88442 12.7084 8.62209 12.6221C8.62209 12.6221 5.77218 11.6851 5.77218 11.6851C5.50985 11.5989 5.36711 11.3163 5.45336 11.0539C5.45336 11.0539 5.918 9.64 5.918 9.64L4.5 9.167L2.65674 9.78117Q2.62871 9.79051 2.59978 9.79648Q2.57084 9.80245 2.5414 9.80496Q2.51196 9.80747 2.48244 9.80649Q2.45291 9.80551 2.4237 9.80105Q2.3945 9.79659 2.36602 9.78872Q2.33754 9.78084 2.3102 9.76966Q2.28285 9.75848 2.25701 9.74416Q2.23117 9.72983 2.20721 9.71255Q2.18324 9.69528 2.16148 9.67529Q2.13972 9.65531 2.12047 9.6329Q2.10122 9.61049 2.08474 9.58596Q2.06827 9.56143 2.05481 9.53513Q2.04135 9.50883 2.03108 9.48113Q2.02082 9.45343 2.0139 9.4247Q2.00697 9.39598 2.00349 9.36664Q2 9.33731 2 9.30776L2 5.69224Q2 5.66269 2.00349 5.63336Q2.00697 5.60402 2.0139 5.5753Q2.02082 5.54657 2.03108 5.51887Q2.04135 5.49117 2.05481 5.46487Q2.06827 5.43857 2.08475 5.41404Q2.10122 5.38951 2.12047 5.3671Q2.13972 5.34469 2.16148 5.32471Q2.18324 5.30472 2.20721 5.28745Q2.23117 5.27017 2.25701 5.25584Q2.28285 5.24151 2.3102 5.23034Q2.33754 5.21916 2.36602 5.21128Q2.3945 5.20341 2.4237 5.19895Q2.45291 5.19449 2.48244 5.19351Q2.51196 5.19253 2.5414 5.19504Q2.57084 5.19755 2.59978 5.20352Q2.62871 5.20949 2.65674 5.21883L4.5 5.833L12.3432 3.2189Q12.3712 3.20956 12.4002 3.20359Q12.4291 3.19762 12.4586 3.19511Q12.488 3.19259 12.5175 3.19357Q12.5471 3.19455 12.5763 3.19901Q12.6055 3.20346 12.634 3.21134Q12.6624 3.21921 12.6898 3.23039Q12.7171 3.24156 12.743 3.25589Q12.7688 3.27022 12.7928 3.28749Q12.8167 3.30477 12.8385 3.32475Q12.8603 3.34474 12.8795 3.36715Q12.8988 3.38956 12.9152 3.41409Q12.9317 3.43862 12.9452 3.46492Q12.9586 3.49122 12.9689 3.51892Q12.9792 3.54663 12.9861 3.57535Q12.993 3.60407 12.9965 3.63341Q13 3.66275 13 3.6923ZM6.86599 9.95599L6.55927 10.8906L8.45921 11.5152L8.76299 10.588L6.86599 9.95599ZM12 4.38699L5 6.71999L5 8.27899L12 10.612L12 4.38699ZM3 6.38699L3 8.61199L4 8.27899L4 6.71999L3 6.38699Z" id="Shape" fill="#000000" fill-rule="evenodd" stroke="none" artboard="97375173-4ddb-4879-bada-141b020448d2" />
  </g>
</svg>