<?xml version="1.0" encoding="utf-8"?>
<svg width="15px" height="15px" viewBox="0 0 15 15" version="1.1" xmlns:xlink="http://www.w3.org/1999/xlink" xmlns="http://www.w3.org/2000/svg">
  <defs>
    <rect width="15" height="15" id="artboard_1" />
    <clipPath id="clip_1">
      <use xlink:href="#artboard_1" clip-rule="evenodd" />
    </clipPath>
  </defs>
  <g id="icon--printer-outline" clip-path="url(#clip_1)">
    <path d="M11.5 1C11.7761 1 12 1.22386 12 1.5L12 4L13.5 4C13.7761 4 14 4.22386 14 4.5L14 10.5C14 10.7761 13.7761 11 13.5 11L12 11L12 13.5C12 13.7761 11.7761 14 11.5 14L3.5 14C3.22386 14 3 13.7761 3 13.5L3 11L1.5 11C1.22386 11 1 10.7761 1 10.5L1 4.5C1 4.22386 1.22386 4 1.5 4L3 4L3 1.5C3 1.22386 3.22386 1 3.5 1L11.5 1ZM11 10L4 10L4 13L11 13L11 10ZM13 5L2 5L2 10L3 10L3 9.5C3 9.22386 3.22386 9 3.5 9L11.5 9C11.7761 9 12 9.22386 12 9.5L12 10L13 10L13 5ZM3.5 6C3.77614 6 4 6.22386 4 6.5C4 6.77614 3.77614 7 3.5 7C3.22386 7 3 6.77614 3 6.5C3 6.22386 3.22386 6 3.5 6ZM11 2L4 2L4 4L11 4L11 2Z" id="Shape" fill="#000000" fill-rule="evenodd" stroke="none" artboard="df181278-a61c-4ee8-8e98-4fd6ac0d8aab" />
  </g>
</svg>