<?xml version="1.0" encoding="utf-8"?>
<svg width="15px" height="15px" viewBox="0 0 15 15" version="1.1" xmlns:xlink="http://www.w3.org/1999/xlink" xmlns="http://www.w3.org/2000/svg">
  <defs>
    <rect width="15" height="15" id="artboard_1" />
    <clipPath id="clip_1">
      <use xlink:href="#artboard_1" clip-rule="evenodd" />
    </clipPath>
  </defs>
  <g id="icon--shipping-fast" clip-path="url(#clip_1)">
    <path d="M11.453 4C11.7938 4 12.1112 4.1736 12.295 4.46061L14.6444 8.12824C14.7929 8.36013 14.8392 8.643 14.7725 8.91016L14 12L12.9144 12.0007C12.7083 12.5829 12.1528 13 11.5 13C10.8472 13 10.2917 12.5829 10.0856 12.0007L6.9144 12.0007C6.70828 12.5829 6.15285 13 5.5 13C4.84715 13 4.29172 12.5829 4.0856 12.0007L2 12L4 4L11.453 4ZM5.5 11C5.22386 11 5 11.2239 5 11.5C5 11.7761 5.22386 12 5.5 12C5.77614 12 6 11.7761 6 11.5C6 11.2239 5.77614 11 5.5 11ZM11.5 11C11.2239 11 11 11.2239 11 11.5C11 11.7761 11.2239 12 11.5 12C11.7761 12 12 11.7761 12 11.5C12 11.2239 11.7761 11 11.5 11ZM11.453 5L4.78101 5L3.28101 11L4.08561 10.9993C4.29172 10.4171 4.84716 10 5.50001 10C6.15285 10 6.70829 10.4171 6.9144 10.9993L10.0856 10.9993C10.2917 10.4171 10.8472 10 11.5 10C12.1529 10 12.7083 10.4171 12.9144 10.9993L13.218 11L13.719 9L9.75001 9L10.5 6L12.093 6L11.453 5ZM1.3 8C1.57614 8 1.8 8.22386 1.8 8.5C1.8 8.77614 1.57614 9 1.3 9L0.5 9C0.223858 9 3.38177e-17 8.77614 0 8.5C-3.38177e-17 8.22386 0.223858 8 0.5 8L1.3 8ZM12.606 6.8L11.125 6.8L10.775 8.2L13.502 8.199L12.606 6.8ZM1.9 6C2.17614 6 2.4 6.22386 2.4 6.5C2.4 6.77614 2.17614 7 1.9 7L0.5 7C0.223858 7 1.4484e-16 6.77614 0 6.5C-3.38177e-17 6.22386 0.223858 6 0.5 6L1.9 6ZM2.5 4C2.77614 4 3 4.22386 3 4.5C3 4.77614 2.77614 5 2.5 5L0.5 5C0.223858 5 -1.32716e-16 4.77614 0 4.5C-3.38177e-17 4.22386 0.223858 4 0.5 4L2.5 4Z" id="Shape" fill="#000000" fill-rule="evenodd" stroke="none" artboard="54fac992-ec54-4553-9bb9-def0766d5ac2" />
  </g>
</svg>