<?xml version="1.0" encoding="utf-8"?>
<svg width="15px" height="15px" viewBox="0 0 15 15" version="1.1" xmlns:xlink="http://www.w3.org/1999/xlink" xmlns="http://www.w3.org/2000/svg">
  <defs>
    <rect width="15" height="15" id="artboard_1" />
    <clipPath id="clip_1">
      <use xlink:href="#artboard_1" clip-rule="evenodd" />
    </clipPath>
  </defs>
  <g id="icon--shipping" clip-path="url(#clip_1)">
    <path d="M9.5 4C9.77614 4 10 4.22386 10 4.5L10 6L12.1917 6C12.3807 6 12.5536 6.10659 12.6384 6.27548L13.9468 8.8788C13.9818 8.94846 14 9.02535 14 9.10332L14 11.5C14 11.7761 13.7761 12 13.5 12L12.9144 12.0007C12.7083 12.5829 12.1528 13 11.5 13C10.8472 13 10.2917 12.5829 10.0856 12.0007L4.9144 12.0007C4.70828 12.5829 4.15285 13 3.5 13C2.84715 13 2.29172 12.5829 2.0856 12.0007L1.5 12C1.22386 12 1 11.7761 1 11.5L1 4.5C1 4.22386 1.22386 4 1.5 4L9.5 4ZM3.5 11C3.22386 11 3 11.2239 3 11.5C3 11.7761 3.22386 12 3.5 12C3.77614 12 4 11.7761 4 11.5C4 11.2239 3.77614 11 3.5 11ZM11.5 11C11.2239 11 11 11.2239 11 11.5C11 11.7761 11.2239 12 11.5 12C11.7761 12 12 11.7761 12 11.5C12 11.2239 11.7761 11 11.5 11ZM11.883 7L10 7L10 11L10.0852 11.0003C10.2911 10.4175 10.8468 10 11.5 10C12.1532 10 12.7089 10.4175 12.9148 11.0003L13 11L13 9.222L11.883 7ZM9 5L2 5L2 11L2.08525 11.0003C2.29109 10.4175 2.84678 10 3.5 10C4.15322 10 4.70891 10.4175 4.91475 11.0003L9 11L9 5Z" id="Shape" fill="#000000" fill-rule="evenodd" stroke="none" artboard="a9117ffb-0451-49aa-8fa3-7400bcff1aa8" />
  </g>
</svg>