<?xml version="1.0" encoding="utf-8"?>
<svg width="15px" height="15px" viewBox="0 0 15 15" version="1.1" xmlns:xlink="http://www.w3.org/1999/xlink" xmlns="http://www.w3.org/2000/svg">
  <defs>
    <rect width="15" height="15" id="artboard_1" />
    <clipPath id="clip_1">
      <use xlink:href="#artboard_1" clip-rule="evenodd" />
    </clipPath>
  </defs>
  <g id="icon--shopping-bag" clip-path="url(#clip_1)">
    <path d="M7.5 2C8.88071 2 10 3.11929 10 4.5L10 5L12.5 5C12.7761 5 13 5.22386 13 5.5L13 12.5C13 12.7761 12.7761 13 12.5 13L2.5 13C2.22386 13 2 12.7761 2 12.5L2 5.5C2 5.22386 2.22386 5 2.5 5L5 5L5 4.5C5 3.11929 6.11929 2 7.5 2ZM12 6L10 6L10 7C10 7.27614 9.77614 7.5 9.5 7.5C9.22386 7.5 9 7.27614 9 7L9 6L6 6L6 7C6 7.27614 5.77614 7.5 5.5 7.5C5.22386 7.5 5 7.27614 5 7L5 6L3 6L3 12L12 12L12 6ZM7.5 3C6.7203 3 6.07955 3.59489 6.00687 4.35554L6 4.5L6 5L9 5L9 4.5C9 3.67157 8.32843 3 7.5 3Z" id="Shape" fill="#000000" fill-rule="evenodd" stroke="none" artboard="aad82a3c-5aeb-46fe-acc6-5f304a7469f0" />
  </g>
</svg>