<?xml version="1.0" encoding="utf-8"?>
<svg width="15px" height="15px" viewBox="0 0 15 15" version="1.1" xmlns:xlink="http://www.w3.org/1999/xlink" xmlns="http://www.w3.org/2000/svg">
  <defs>
    <rect width="15" height="15" id="artboard_1" />
    <clipPath id="clip_1">
      <use xlink:href="#artboard_1" clip-rule="evenodd" />
    </clipPath>
  </defs>
  <g id="icon--store" clip-path="url(#clip_1)">
    <path d="M13.114 2.34189L13.9743 4.92303C13.9913 4.97401 14 5.0274 14 5.08114L14 6.5C14 6.77614 13.7761 7 13.5 7L13 7L13 13.5C13 13.7761 12.7761 14 12.5 14L6 14L6 9L5 9L5 14L2.5 14C2.22386 14 2 13.7761 2 13.5L2 7L1.5 7C1.22386 7 1 6.77614 1 6.5L1 5.08114C1 5.0274 1.00866 4.97401 1.02566 4.92303L1.88604 2.34189C1.9541 2.13772 2.14516 2 2.36038 2L12.6396 2C12.8548 2 13.0459 2.13772 13.114 2.34189ZM12 7L3 7L3 13L4 13L4 8.5C4 8.22386 4.22386 8 4.5 8L6.5 8C6.77614 8 7 8.22386 7 8.5L7 13L12 13L12 7ZM11 8.5L11 11.5C11 11.7761 10.7761 12 10.5 12L8.5 12C8.22386 12 8 11.7761 8 11.5L8 8.5C8 8.22386 8.22386 8 8.5 8L10.5 8C10.7761 8 11 8.22386 11 8.5ZM10 9L9 9L9 11L10 11L10 9ZM12.279 3L2.72 3L2 5.16L2 6L4 6L4 5.5C4 5.22386 4.22386 5 4.5 5C4.77614 5 5 5.22386 5 5.5L5 6L7 6L7 5.5C7 5.22386 7.22386 5 7.5 5C7.77614 5 8 5.22386 8 5.5L8 6L10 6L10 5.5C10 5.22386 10.2239 5 10.5 5C10.7761 5 11 5.22386 11 5.5L11 6L13 6L13 5.163L12.279 3Z" id="Shape" fill="#000000" fill-rule="evenodd" stroke="none" artboard="0fe630cc-0551-47d0-b65a-261920bcb08a" />
  </g>
</svg>