<?xml version="1.0" encoding="utf-8"?>
<svg width="15px" height="15px" viewBox="0 0 15 15" version="1.1" xmlns:xlink="http://www.w3.org/1999/xlink" xmlns="http://www.w3.org/2000/svg">
  <defs>
    <rect width="15" height="15" id="artboard_1" />
    <clipPath id="clip_1">
      <use xlink:href="#artboard_1" clip-rule="evenodd" />
    </clipPath>
  </defs>
  <g id="icon--suitecase" clip-path="url(#clip_1)">
    <path d="M9.5 1C9.77614 1 10 1.22386 10 1.5L10 4L11.5 4C11.7761 4 12 4.22386 12 4.5L12 12.5C12 12.7761 11.7761 13 11.5 13L11 13L11 13.5C11 13.7761 10.7761 14 10.5 14C10.2239 14 10 13.7761 10 13.5L10 13L5 13L5 13.5C5 13.7761 4.77614 14 4.5 14C4.22386 14 4 13.7761 4 13.5L4 13L3.5 13C3.22386 13 3 12.7761 3 12.5L3 4.5C3 4.22386 3.22386 4 3.5 4L5 4L5 1.5C5 1.22386 5.22386 1 5.5 1L9.5 1ZM11 5L4 5L4 12L11 12L11 5ZM5.5 6C5.77614 6 6 6.22386 6 6.5L6 10.5C6 10.7761 5.77614 11 5.5 11C5.22386 11 5 10.7761 5 10.5L5 6.5C5 6.22386 5.22386 6 5.5 6ZM7.5 6C7.77614 6 8 6.22386 8 6.5L8 10.5C8 10.7761 7.77614 11 7.5 11C7.22386 11 7 10.7761 7 10.5L7 6.5C7 6.22386 7.22386 6 7.5 6ZM9.5 6C9.77614 6 10 6.22386 10 6.5L10 10.5C10 10.7761 9.77614 11 9.5 11C9.22386 11 9 10.7761 9 10.5L9 6.5C9 6.22386 9.22386 6 9.5 6ZM9 2L6 2L6 4L9 4L9 2Z" id="Shape" fill="#000000" fill-rule="evenodd" stroke="none" artboard="f4c531e8-17db-4413-831e-b63530e6dc48" />
  </g>
</svg>