<?xml version="1.0" encoding="utf-8"?>
<svg width="15px" height="15px" viewBox="0 0 15 15" version="1.1" xmlns:xlink="http://www.w3.org/1999/xlink" xmlns="http://www.w3.org/2000/svg">
  <defs>
    <rect width="15" height="15" id="artboard_1" />
    <clipPath id="clip_1">
      <use xlink:href="#artboard_1" clip-rule="evenodd" />
    </clipPath>
  </defs>
  <g id="icon--wallet" clip-path="url(#clip_1)">
    <path d="M9.1289 1.38895L3.48886 3.44175C3.35937 3.48888 3.26551 3.57489 3.20728 3.69977C3.14904 3.82466 3.14349 3.95184 3.19062 4.08133L3.1913 4.08321C3.23843 4.21269 3.32444 4.30655 3.44932 4.36479C3.57421 4.42302 3.70139 4.42858 3.83088 4.38145L9.00013 2.49999L9.6801 4.20406C9.71598 4.30263 9.77687 4.38199 9.8628 4.44215C9.94872 4.50231 10.0441 4.5324 10.149 4.5324L10.3331 4.5324C10.3937 4.5324 10.4509 4.5184 10.5047 4.49041C10.5585 4.46242 10.6027 4.4236 10.6375 4.37395C10.6723 4.32429 10.6936 4.26942 10.7015 4.20932C10.7094 4.14923 10.703 4.0907 10.6823 4.03374L9.76847 1.68719C9.72134 1.5577 9.63534 1.46384 9.51045 1.40561C9.38557 1.34738 9.25838 1.34182 9.1289 1.38895L9.1289 1.38895ZM3.00002 3L2.999 3C2.72313 3 2.48767 3.09753 2.2926 3.2926C2.09753 3.48767 2 3.72313 2 3.999L2 4L2.00002 4L2.00002 4.0096C2.00144 4.3383 2.08469 4.58519 2.24975 4.75025C2.41625 4.91675 2.666 5 2.999 5L12.0001 5L12.0001 3L10.9865 3L10.6229 2L12.5011 2C12.7767 2 13.0001 2.22341 13.0001 2.499L13.0001 3L13.0001 5L13.5011 5C13.6389 5 13.7565 5.04871 13.854 5.14615C13.9515 5.24359 14.0002 5.36121 14.0001 5.499L14.0001 8L14.5011 8C14.6389 8 14.7565 8.04872 14.854 8.14615C14.9514 8.24359 15.0001 8.3612 15.0001 8.499L15.0001 10.501C15.0001 10.6388 14.9514 10.7564 14.854 10.8538C14.7565 10.9513 14.6389 11 14.5011 11L14.0001 11L14.0001 13.5C14.0001 13.6378 13.9513 13.7554 13.8539 13.8529C13.7565 13.9503 13.6389 13.999 13.5011 13.999L2.99903 13.999C2.44696 13.999 1.97577 13.8038 1.58545 13.4135C1.19513 13.0232 0.999939 12.552 1 12L1.00002 4.00945L1 4.001L1 3.999C1 3.44699 1.19516 2.97582 1.58549 2.58549C1.97582 2.19516 2.44699 2 2.999 2L5.75001 2L3.00002 3L3.00002 3ZM2 12L2.00001 5.73285C2.29392 5.90275 2.63511 5.99998 2.999 5.99998L13.0001 5.99998L13.0001 7.99998L12.4991 7.99998C12.0852 7.99998 11.7319 8.14633 11.4392 8.43903C11.1465 8.73173 11.0001 9.08504 11.0001 9.49898L11.0001 9.50098C11.0001 9.91492 11.1465 10.2682 11.4392 10.5609C11.7319 10.8536 12.0852 11 12.4991 11L13.0001 11L13.0001 12.999L2.99903 12.999C2.33301 12.999 2 12.666 2 12L2 12ZM11.8001 9.49899C11.8001 9.03299 12.0331 8.79999 12.4991 8.79999L14.2001 8.79999L14.2001 10.2L12.4991 10.2C12.0331 10.2 11.8001 9.96699 11.8001 9.50099L11.8001 9.49899L11.8001 9.49899Z" id="Vector" fill="#000000" fill-rule="evenodd" stroke="none" artboard="e4543dee-d220-4615-8424-8a394e7a9481" />
  </g>
</svg>