<?xml version="1.0" encoding="utf-8"?>
<svg width="15px" height="15px" viewBox="0 0 15 15" version="1.1" xmlns:xlink="http://www.w3.org/1999/xlink" xmlns="http://www.w3.org/2000/svg">
  <defs>
    <rect width="15" height="15" id="artboard_1" />
    <clipPath id="clip_1">
      <use xlink:href="#artboard_1" clip-rule="evenodd" />
    </clipPath>
  </defs>
  <g id="icon--wearehouse" clip-path="url(#clip_1)">
    <path d="M7.73895 2.13033L12.7399 4.85815Q12.799 4.89035 12.8474 4.93702Q12.8958 4.98369 12.9301 5.0415Q12.9644 5.09932 12.9822 5.16415Q13 5.22899 13 5.29622L13 12.501Q13 12.5501 12.9904 12.5983Q12.9808 12.6466 12.962 12.692Q12.9432 12.7374 12.9159 12.7782Q12.8886 12.8191 12.8538 12.8538Q12.8191 12.8886 12.7782 12.9159Q12.7374 12.9432 12.692 12.962Q12.6466 12.9808 12.5983 12.9904Q12.5501 13 12.501 13L10 13L10 7L5 7L5 13L2.499 13Q2.44985 13 2.40165 12.9904Q2.35345 12.9808 2.30804 12.962Q2.26263 12.9432 2.22177 12.9159Q2.18091 12.8886 2.14615 12.8538Q2.1114 12.8191 2.0841 12.7782Q2.05679 12.7374 2.03798 12.692Q2.01918 12.6466 2.00959 12.5983Q2 12.5501 2 12.501L2 5.29622Q2 5.22899 2.01779 5.16415Q2.03559 5.09932 2.06991 5.0415Q2.10423 4.98369 2.15263 4.93702Q2.20103 4.89035 2.26005 4.85815L7.26105 2.13033Q7.31603 2.10035 7.3767 2.08488Q7.43738 2.0694 7.5 2.0694Q7.56262 2.0694 7.6233 2.08488Q7.68397 2.10035 7.73895 2.13033ZM9 12.499L9 12.501Q9 12.5501 8.99041 12.5983Q8.98082 12.6466 8.96202 12.692Q8.94321 12.7374 8.9159 12.7782Q8.8886 12.8191 8.85385 12.8538Q8.81909 12.8886 8.77823 12.9159Q8.73736 12.9432 8.69196 12.962Q8.64655 12.9808 8.59835 12.9904Q8.55015 13 8.501 13L6.499 13Q6.44985 13 6.40165 12.9904Q6.35345 12.9808 6.30804 12.962Q6.26263 12.9432 6.22177 12.9159Q6.18091 12.8886 6.14615 12.8538Q6.1114 12.8191 6.0841 12.7782Q6.05679 12.7374 6.03798 12.692Q6.01918 12.6466 6.00959 12.5983Q6 12.5501 6 12.501L6 12.499Q6 12.4499 6.00959 12.4016Q6.01918 12.3534 6.03798 12.308Q6.05679 12.2626 6.0841 12.2218Q6.1114 12.1809 6.14615 12.1462Q6.18091 12.1114 6.22177 12.0841Q6.26263 12.0568 6.30804 12.038Q6.35345 12.0192 6.40165 12.0096Q6.44985 12 6.499 12L8.501 12Q8.55015 12 8.59835 12.0096Q8.64655 12.0192 8.69196 12.038Q8.73736 12.0568 8.77823 12.0841Q8.81909 12.1114 8.85385 12.1462Q8.8886 12.1809 8.9159 12.2218Q8.94321 12.2626 8.96202 12.308Q8.98082 12.3534 8.99041 12.4016Q9 12.4499 9 12.499ZM7.5 3.138L3 5.592L3 12L4 12L4 6L11 6L11 12L12 12L12 5.593L7.5 3.138ZM9 10.499L9 10.501Q9 10.5501 8.99041 10.5983Q8.98082 10.6466 8.96202 10.692Q8.94321 10.7374 8.9159 10.7782Q8.8886 10.8191 8.85385 10.8538Q8.81909 10.8886 8.77823 10.9159Q8.73736 10.9432 8.69196 10.962Q8.64655 10.9808 8.59835 10.9904Q8.55015 11 8.501 11L6.499 11Q6.44985 11 6.40165 10.9904Q6.35345 10.9808 6.30804 10.962Q6.26263 10.9432 6.22177 10.9159Q6.18091 10.8886 6.14615 10.8538Q6.1114 10.8191 6.0841 10.7782Q6.05679 10.7374 6.03798 10.692Q6.01918 10.6466 6.00959 10.5983Q6 10.5501 6 10.501L6 10.499Q6 10.4499 6.00959 10.4016Q6.01918 10.3534 6.03798 10.308Q6.05679 10.2626 6.0841 10.2218Q6.1114 10.1809 6.14615 10.1462Q6.18091 10.1114 6.22177 10.0841Q6.26263 10.0568 6.30804 10.038Q6.35345 10.0192 6.40165 10.0096Q6.44985 10 6.499 10L8.501 10Q8.55015 10 8.59835 10.0096Q8.64655 10.0192 8.69196 10.038Q8.73736 10.0568 8.77823 10.0841Q8.81909 10.1114 8.85385 10.1462Q8.8886 10.1809 8.9159 10.2218Q8.94321 10.2626 8.96202 10.308Q8.98082 10.3534 8.99041 10.4016Q9 10.4499 9 10.499ZM9 8.499L9 8.501Q9 8.55015 8.99041 8.59835Q8.98082 8.64655 8.96202 8.69196Q8.94321 8.73736 8.9159 8.77823Q8.8886 8.81909 8.85385 8.85385Q8.81909 8.8886 8.77823 8.9159Q8.73736 8.94321 8.69196 8.96202Q8.64655 8.98082 8.59835 8.99041Q8.55015 9 8.501 9L6.499 9Q6.44985 9 6.40165 8.99041Q6.35345 8.98082 6.30804 8.96202Q6.26263 8.94321 6.22177 8.9159Q6.18091 8.8886 6.14615 8.85385Q6.1114 8.81909 6.0841 8.77823Q6.05679 8.73736 6.03798 8.69196Q6.01918 8.64655 6.00959 8.59835Q6 8.55015 6 8.501L6 8.499Q6 8.44985 6.00959 8.40165Q6.01918 8.35345 6.03798 8.30804Q6.05679 8.26263 6.0841 8.22177Q6.1114 8.18091 6.14615 8.14615Q6.18091 8.1114 6.22177 8.0841Q6.26263 8.05679 6.30804 8.03798Q6.35345 8.01918 6.40165 8.00959Q6.44985 8 6.499 8L8.501 8Q8.55015 8 8.59835 8.00959Q8.64655 8.01918 8.69196 8.03798Q8.73736 8.05679 8.77823 8.0841Q8.81909 8.1114 8.85385 8.14615Q8.8886 8.18091 8.9159 8.22177Q8.94321 8.26263 8.96202 8.30804Q8.98082 8.35345 8.99041 8.40165Q9 8.44985 9 8.499Z" id="Shape" fill="#000000" fill-rule="evenodd" stroke="none" artboard="70b22a33-cd2b-4556-b592-8d8d3afbe3b9" />
  </g>
</svg>