<?xml version="1.0" encoding="utf-8"?>
<svg width="15px" height="15px" viewBox="0 0 15 15" version="1.1" xmlns:xlink="http://www.w3.org/1999/xlink" xmlns="http://www.w3.org/2000/svg">
  <defs>
    <rect width="15" height="15" id="artboard_1" />
    <clipPath id="clip_1">
      <use xlink:href="#artboard_1" clip-rule="evenodd" />
    </clipPath>
  </defs>
  <g id="icon--layer-group" clip-path="url(#clip_1)">
    <path d="M7.71497 1.60236L12.852 4.04857C13.1013 4.16729 13.2072 4.46565 13.0885 4.71497C13.0391 4.81859 12.9556 4.90208 12.852 4.95143L10.6509 5.9988L12.852 7.04857C13.1013 7.16729 13.2072 7.46565 13.0885 7.71497C13.0391 7.81859 12.9556 7.90208 12.852 7.95143L10.6509 8.99879L12.852 10.0486C13.1013 10.1673 13.2072 10.4656 13.0885 10.715C13.0391 10.8186 12.9556 10.9021 12.852 10.9514L7.71497 13.3976C7.57897 13.4624 7.42103 13.4624 7.28503 13.3976L2.148 10.9514C1.89869 10.8327 1.79282 10.5344 1.91154 10.285C1.96089 10.1814 2.04438 10.0979 2.148 10.0486L4.34885 8.99879L2.148 7.95143C1.89869 7.83271 1.79282 7.53435 1.91154 7.28503C1.96089 7.18141 2.04438 7.09791 2.148 7.04857L4.34885 5.9988L2.148 4.95143C1.89869 4.83271 1.79282 4.53435 1.91154 4.28503C1.96089 4.18141 2.04438 4.09791 2.148 4.04857L7.28503 1.60236C7.42103 1.5376 7.57897 1.5376 7.71497 1.60236ZM7.715 10.3976C7.579 10.4624 7.42106 10.4624 7.28506 10.3976L5.39588 9.4978L3.29303 10.5L7.50003 12.503L11.706 10.5L9.60288 9.49879L7.715 10.3976ZM5.39488 6.4968L3.29303 7.499L7.49903 9.503L11.706 7.499L9.60388 6.4978L7.715 7.39763C7.579 7.46239 7.42106 7.46239 7.28506 7.39763L5.39488 6.4968ZM7.50003 2.496L3.29303 4.499L7.49903 6.503L11.706 4.499L7.50003 2.496Z" id="Shape" fill="#000000" fill-rule="evenodd" stroke="none" artboard="0dbf59c5-9af3-43fd-81d9-8ec1097efb9f" />
  </g>
</svg>