<?xml version="1.0" encoding="utf-8"?>
<svg width="15px" height="15px" viewBox="0 0 15 15" version="1.1" xmlns:xlink="http://www.w3.org/1999/xlink" xmlns="http://www.w3.org/2000/svg">
  <defs>
    <rect width="15" height="15" id="artboard_1" />
    <clipPath id="clip_1">
      <use xlink:href="#artboard_1" clip-rule="evenodd" />
    </clipPath>
  </defs>
  <g id="icon--layer-off" clip-path="url(#clip_1)">
    <path d="M1.95353 2.24645L12.7317 13.0246C12.927 13.2199 12.927 13.5365 12.7317 13.7317C12.5364 13.927 12.2199 13.927 12.0246 13.7317L10.407 12.1138L7.71494 13.3976C7.57895 13.4624 7.421 13.4624 7.28501 13.3976L2.14798 10.9514C1.89866 10.8327 1.79279 10.5343 1.91152 10.285C1.96086 10.1814 2.04435 10.0979 2.14798 10.0486L4.34883 8.99879L2.14798 7.95143C1.89866 7.83271 1.79279 7.53435 1.91152 7.28503C1.96086 7.18141 2.04435 7.09791 2.14798 7.04857L4.30898 6.01579L4.23898 5.94579L2.14798 4.95143C1.89866 4.83271 1.79279 4.53435 1.91152 4.28503C1.96086 4.18141 2.04435 4.09791 2.14798 4.04857L2.27898 3.98579L1.24642 2.95355C1.05116 2.75829 1.05116 2.44171 1.24642 2.24645C1.44168 2.05118 1.75827 2.05118 1.95353 2.24645ZM5.39582 9.4978L3.29297 10.5L7.49997 12.503L9.73197 11.4388L8.37497 10.0818L7.71494 10.3976C7.57894 10.4624 7.421 10.4624 7.285 10.3976L5.39582 9.4978ZM7.71495 1.60236L12.852 4.04857C13.1013 4.16729 13.2072 4.46565 13.0884 4.71497C13.0391 4.81859 12.9556 4.90208 12.852 4.95143L10.6508 5.99879L12.852 7.04857C13.1013 7.16729 13.2072 7.46565 13.0884 7.71497C13.0391 7.81859 12.9556 7.90208 12.852 7.95143L10.6508 8.99879L12.852 10.0486C13.1013 10.1673 13.2072 10.4656 13.0884 10.715C13.0391 10.8186 12.9556 10.9021 12.852 10.9514L12.3138 11.2068L11.6388 10.5318L11.706 10.5L11.5168 10.4098L9.60584 8.49879L11.706 7.499L9.60384 6.4978L8.24884 7.1428L7.57384 6.46679L11.706 4.499L7.49998 2.496L4.85884 3.75279L4.18384 3.0778L7.28502 1.60236C7.42101 1.5376 7.57896 1.5376 7.71495 1.60236ZM4.98497 6.6918L3.29297 7.499L7.49897 9.503L7.69997 9.4068L4.98497 6.6918Z" id="Shape" fill="#000000" fill-rule="evenodd" stroke="none" artboard="ffc04fe6-11b3-48f4-8dfd-8cd885157106" />
  </g>
</svg>