<?xml version="1.0" encoding="utf-8"?>
<svg width="15px" height="15px" viewBox="0 0 15 15" version="1.1" xmlns:xlink="http://www.w3.org/1999/xlink" xmlns="http://www.w3.org/2000/svg">
  <defs>
    <rect width="15" height="15" id="artboard_1" />
    <clipPath id="clip_1">
      <use xlink:href="#artboard_1" clip-rule="evenodd" />
    </clipPath>
  </defs>
  <g id="icon--layer-cross" clip-path="url(#clip_1)">
    <path d="M14.6236 10.3964C14.8188 10.5917 14.8188 10.9083 14.6236 11.1036L13.1045 12.5178L14.6236 13.932C14.8188 14.1272 14.8188 14.4438 14.6236 14.6391C14.4283 14.8343 14.1117 14.8343 13.9165 14.6391L12.5023 13.12L11.0881 14.6391C10.8928 14.8343 10.5762 14.8343 10.3809 14.6391C10.1857 14.4438 10.1857 14.1272 10.3809 13.932L11.8945 12.5178L10.3809 11.1036C10.1857 10.9083 10.1857 10.5917 10.3809 10.3964C10.5762 10.2012 10.8928 10.2012 11.0881 10.3964L12.5023 11.91L13.9165 10.3964L13.9556 10.3612L14.0032 10.327C14.1965 10.2049 14.4552 10.228 14.6236 10.3964ZM7.71497 1.60236L12.852 4.04857C13.1013 4.16729 13.2072 4.46565 13.0885 4.71497C13.0391 4.81859 12.9556 4.90208 12.852 4.95143L10.6509 5.9988L12.852 7.04857C13.1013 7.16729 13.2072 7.46565 13.0885 7.71497C13.0391 7.81859 12.9556 7.90208 12.852 7.95143L7.71497 10.3976C7.57897 10.4624 7.42103 10.4624 7.28503 10.3976L5.39585 9.4978L3.293 10.5L7.5 12.503L9.47393 11.5636C9.53053 11.6511 9.59715 11.734 9.67381 11.8107L10.1369 12.2438L7.71497 13.3976C7.57897 13.4624 7.42103 13.4624 7.28503 13.3976L2.148 10.9514C1.89869 10.8327 1.79282 10.5344 1.91154 10.285C1.96089 10.1814 2.04438 10.0979 2.148 10.0486L4.34885 8.99879L2.148 7.95143C1.89869 7.83271 1.79282 7.53435 1.91154 7.28503C1.96089 7.18141 2.04438 7.09791 2.148 7.04857L4.34885 5.9988L2.148 4.95143C1.89869 4.83271 1.79282 4.53435 1.91154 4.28503C1.96089 4.18141 2.04438 4.09791 2.148 4.04857L7.28503 1.60236C7.42103 1.5376 7.57897 1.5376 7.71497 1.60236ZM5.39488 6.4968L3.29303 7.499L7.49903 9.503L11.706 7.499L9.60388 6.4978L7.715 7.39763C7.579 7.46239 7.42106 7.46239 7.28506 7.39763L5.39488 6.4968ZM7.50003 2.496L3.29303 4.499L7.49903 6.503L11.706 4.499L7.50003 2.496Z" id="Shape" fill="#000000" fill-rule="evenodd" stroke="none" artboard="999c33e2-4e1f-4ee9-873d-0ea3c8e66d56" />
  </g>
</svg>