<?xml version="1.0" encoding="utf-8"?>
<svg width="15px" height="15px" viewBox="0 0 15 15" version="1.1" xmlns:xlink="http://www.w3.org/1999/xlink" xmlns="http://www.w3.org/2000/svg">
  <defs>
    <rect width="15" height="15" id="artboard_1" />
    <clipPath id="clip_1">
      <use xlink:href="#artboard_1" clip-rule="evenodd" />
    </clipPath>
  </defs>
  <g id="icon--layer-plus" clip-path="url(#clip_1)">
    <path d="M12.852 4.04857L7.71497 1.60236C7.57897 1.5376 7.42103 1.5376 7.28503 1.60236L2.148 4.04857C2.04438 4.09791 1.96089 4.18141 1.91154 4.28503C1.79282 4.53435 1.89869 4.83271 2.148 4.95143L4.34885 5.9988L2.148 7.04857C2.04438 7.09791 1.96089 7.18141 1.91154 7.28503C1.79282 7.53435 1.89869 7.83271 2.148 7.95143L4.34885 8.99879L2.148 10.0486C2.04438 10.0979 1.96089 10.1814 1.91154 10.285C1.79282 10.5344 1.89869 10.8327 2.148 10.9514L7.28503 13.3976C7.42103 13.4624 7.57897 13.4624 7.71497 13.3976L9.02485 12.7728L9.00687 12.6445L9 12.5C9 12.1919 9.09286 11.9056 9.25211 11.6674L7.5 12.503L3.293 10.5L5.39585 9.4978L7.28503 10.3976C7.42103 10.4624 7.57897 10.4624 7.71497 10.3976L9.60285 9.49879L11.0343 10.1795C11.101 9.87294 11.2615 9.60139 11.4841 9.39634L10.6509 8.99879L12.852 7.95143C12.9556 7.90208 13.0391 7.81859 13.0885 7.71497C13.2072 7.46565 13.1013 7.16729 12.852 7.04857L10.6509 5.9988L12.852 4.95143C12.9556 4.90208 13.0391 4.81859 13.0885 4.71497C13.2072 4.46565 13.1013 4.16729 12.852 4.04857ZM3.293 4.499L7.5 2.496L11.706 4.499L7.499 6.503L3.293 4.499ZM3.293 7.499L5.39485 6.49679L7.28503 7.39763C7.42103 7.46239 7.57897 7.46239 7.71497 7.39763L9.60385 6.49779L11.706 7.499L7.499 9.503L3.293 7.499ZM13 10.5C13 10.2239 12.7761 10 12.5 10C12.2239 10 12 10.2239 12 10.5L11.9999 11.3568L12 11.3567L12 12L10.5 12C10.2239 12 10 12.2239 10 12.5C10 12.7761 10.2239 13 10.5 13L12 13L12 14.5C12 14.7761 12.2239 15 12.5 15C12.7761 15 13 14.7761 13 14.5L13 13L14.5 13C14.7761 13 15 12.7761 15 12.5C15 12.2239 14.7761 12 14.5 12L13 12L13 10.8439L13.0015 10.8423L13 10.5Z" id="Combined-Shape" fill="#000000" fill-rule="evenodd" stroke="none" artboard="76d30f7d-37c9-4cae-a1d2-81ee5114b643" />
  </g>
</svg>