<?xml version="1.0" encoding="utf-8"?>
<svg width="15px" height="15px" viewBox="0 0 15 15" version="1.1" xmlns:xlink="http://www.w3.org/1999/xlink" xmlns="http://www.w3.org/2000/svg">
  <defs>
    <rect width="15" height="15" id="artboard_1" />
    <clipPath id="clip_1">
      <use xlink:href="#artboard_1" clip-rule="evenodd" />
    </clipPath>
  </defs>
  <g id="icon--map-marker-radius" clip-path="url(#clip_1)">
    <path d="M10.2424 10.2558C11.948 10.5986 13.1 11.2513 13.1 12C13.1 13.1046 10.5928 14.2 7.50002 14.2C4.40723 14.2 1.90002 13.1046 1.90002 12C1.90002 11.2534 3.04538 10.6024 4.74277 10.2588L5.00865 10.6334C3.83356 10.928 3.10002 11.3301 3.10002 11.9C3.10002 12.5643 4.48193 13.139 6.49074 13.2628L7.06565 13.2899L7.06565 13.2899L7.38578 13.2972L7.38578 13.2972L7.7268 13.2955L7.7268 13.2955L8.26529 13.2755L8.26529 13.2755C10.4054 13.1848 11.9 12.5908 11.9 11.9C11.9 11.3281 11.1611 10.9244 9.97854 10.6302L10.1625 10.373L10.2424 10.2558ZM7.50005 1.9C9.53505 1.9 11.2 3.52 11.2 5.5C11.2 6.688 10.4508 8.1433 9.62662 9.38476L9.35005 9.79L9.07347 10.1754L8.80245 10.5371L8.54252 10.8711L8.29925 11.1734L8.07817 11.44L7.55936 12.0354L7.50005 12.1L7.19977 11.769L6.92192 11.4484L6.58164 11.0393L6.32935 10.7236L6.06318 10.3782L5.78868 10.0068L5.51141 9.61317C4.63486 8.33575 3.80005 6.7825 3.80005 5.5C3.80005 3.52 5.46505 1.9 7.50005 1.9ZM7.50005 2.9C6.01129 2.9 4.80005 4.07851 4.80005 5.5C4.80005 5.93807 4.94646 6.49306 5.23131 7.13108C5.52376 7.78612 5.94739 8.4985 6.46745 9.23643C6.75681 9.64701 7.06273 10.047 7.37274 10.4272L7.49505 10.574L7.62426 10.4184C7.83129 10.1619 8.03649 9.89691 8.23618 9.62617L8.53111 9.21612C9.02053 8.5177 9.42529 7.84382 9.71592 7.22174C10.0351 6.53848 10.2 5.95007 10.2 5.5C10.2 4.07851 8.9888 2.9 7.50005 2.9ZM7.50002 4.4C8.10754 4.4 8.60002 4.89249 8.60002 5.5C8.60002 6.10751 8.10754 6.6 7.50002 6.6C6.89251 6.6 6.40002 6.10751 6.40002 5.5C6.40002 4.89249 6.89251 4.4 7.50002 4.4Z" id="Shape" fill="#000000" stroke="none" artboard="ce76f75c-2276-4362-8a9f-40f458707c33" />
  </g>
</svg>