<?xml version="1.0" encoding="utf-8"?>
<svg width="15px" height="15px" viewBox="0 0 15 15" version="1.1" xmlns:xlink="http://www.w3.org/1999/xlink" xmlns="http://www.w3.org/2000/svg">
  <defs>
    <rect width="15" height="15" id="artboard_1" />
    <clipPath id="clip_1">
      <use xlink:href="#artboard_1" clip-rule="evenodd" />
    </clipPath>
  </defs>
  <g id="icon--map-minus" clip-path="url(#clip_1)">
    <path d="M14.0031 10L14.0031 1.76763Q14.0031 1.70528 13.9878 1.64485Q13.9725 1.58442 13.9427 1.52962Q13.913 1.47483 13.8707 1.42903Q13.8284 1.38323 13.7761 1.34925Q13.7238 1.31527 13.6648 1.2952Q13.6058 1.27512 13.5436 1.27019Q13.4815 1.26526 13.42 1.27577Q13.3586 1.28627 13.3016 1.31158L9.71523 2.90441Q9.61302 2.9498 9.50121 2.94723Q9.3894 2.94466 9.28939 2.89461L5.71375 1.10539Q5.61373 1.05534 5.50192 1.05277Q5.39011 1.0502 5.2879 1.09559L1.29645 2.86833Q1.23028 2.89773 1.17519 2.94471Q1.12009 2.9917 1.08063 3.05241Q1.04116 3.11312 1.02058 3.18255Q1 3.25197 1 3.32438L1 13.2324Q1 13.2947 1.01534 13.3552Q1.03068 13.4156 1.06042 13.4704Q1.09015 13.5252 1.13246 13.571Q1.17476 13.6168 1.22703 13.6508Q1.2793 13.6847 1.33833 13.7048Q1.39735 13.7249 1.4595 13.7298Q1.52165 13.7348 1.58311 13.7242Q1.64456 13.7137 1.70154 13.6884L5.28588 12.0965Q5.38804 12.0512 5.4998 12.0537Q5.61155 12.0563 5.71154 12.1062L9 13.7501L9 12.631L6 11.132L6 2.368L9 3.868L9 10L10 10L10 3.871L13.003 2.537L13.003 10L14.0031 10ZM2 3.649L5 2.314L5 11.129L2 12.462L2 3.649Z" id="Combined-Shape" fill="#000000" fill-rule="evenodd" stroke="none" artboard="f48ddf0c-242e-4937-9fd9-846a600eb547" />
    <path d="M14.5 12C14.7761 12 15 12.2239 15 12.5C15 12.7761 14.7761 13 14.5 13L10.5 13C10.2239 13 10 12.7761 10 12.5C10 12.2239 10.2239 12 10.5 12L14.5 12Z" id="Path" fill="#000000" fill-rule="evenodd" stroke="none" artboard="e335158f-473b-4917-b591-ba6c9b7efffd" />
  </g>
</svg>