<?xml version="1.0" encoding="utf-8"?>
<svg width="15px" height="15px" viewBox="0 0 15 15" version="1.1" xmlns:xlink="http://www.w3.org/1999/xlink" xmlns="http://www.w3.org/2000/svg">
  <defs>
    <rect width="15" height="15" id="artboard_1" />
    <clipPath id="clip_1">
      <use xlink:href="#artboard_1" clip-rule="evenodd" />
    </clipPath>
  </defs>
  <g id="icon--map-off" clip-path="url(#clip_1)">
    <path d="M13.8594 12.8576L1.85355 0.846447C1.65829 0.651184 1.34171 0.651184 1.14645 0.846447C0.951184 1.04171 0.951184 1.35829 1.14645 1.55355L2.10271 2.51025L1.29645 2.86833Q1.23028 2.89773 1.17519 2.94471Q1.12009 2.9917 1.08063 3.05241Q1.04116 3.11312 1.02058 3.18255Q1 3.25197 1 3.32438L1 13.2324Q1 13.2947 1.01534 13.3552Q1.03068 13.4156 1.06042 13.4704Q1.09015 13.5252 1.13246 13.571Q1.17476 13.6168 1.22703 13.6508Q1.2793 13.6847 1.33833 13.7048Q1.39735 13.7249 1.4595 13.7298Q1.52165 13.7348 1.58311 13.7242Q1.64456 13.7137 1.70154 13.6884L5.28588 12.0965Q5.38804 12.0512 5.4998 12.0537Q5.61155 12.0563 5.71154 12.1062L9.28946 13.8948Q9.38945 13.9447 9.5012 13.9473Q9.61296 13.9498 9.71512 13.9045L12.3307 12.7428L13.1523 13.5647C13.3475 13.76 13.6641 13.76 13.8594 13.5647C14.0546 13.3694 14.0546 13.0529 13.8594 12.8576ZM11.5727 11.9844L10 10.411L10 12.682L11.5727 11.9844ZM9 9.41059L9 12.631L6 11.132L6 6.40926L9 9.41059ZM5 5.40882L5 11.129L2 12.462L2 3.649L2.85892 3.26678L5 5.40882ZM5 2.314L5 2.59289L6 3.59289L6 2.368L9 3.868L9 6.59289L10 7.59289L10 3.871L13.003 2.537L13.003 10.5959L14.0031 11.596L14.0031 1.76763Q14.0031 1.70528 13.9878 1.64485Q13.9725 1.58442 13.9427 1.52962Q13.913 1.47483 13.8707 1.42903Q13.8284 1.38323 13.7761 1.34925Q13.7238 1.31527 13.6648 1.2952Q13.6058 1.27512 13.5436 1.27019Q13.4815 1.26526 13.42 1.27577Q13.3586 1.28627 13.3016 1.31158L9.71523 2.90441Q9.61302 2.9498 9.50121 2.94723Q9.3894 2.94466 9.28939 2.89461L5.71375 1.10539Q5.61373 1.05534 5.50192 1.05277Q5.39011 1.0502 5.2879 1.09559L4.05173 1.64462L4.80699 2.39989L5 2.314Z" id="Combined-Shape" fill="#000000" fill-rule="evenodd" stroke="none" artboard="1711b7e3-120b-4a87-aa5f-654ffbe34b5c" />
  </g>
</svg>