<?xml version="1.0" encoding="utf-8"?>
<svg width="15px" height="15px" viewBox="0 0 15 15" version="1.1" xmlns:xlink="http://www.w3.org/1999/xlink" xmlns="http://www.w3.org/2000/svg">
  <defs>
    <rect width="15" height="15" id="artboard_1" />
    <clipPath id="clip_1">
      <use xlink:href="#artboard_1" clip-rule="evenodd" />
    </clipPath>
  </defs>
  <g id="icon--map-marke-alert" clip-path="url(#clip_1)">
    <path d="M7.50001 0.900002C10.14 0.900002 12.3 3.00162 12.3 5.57027C12.3 7.11146 11.328 8.99942 10.2588 10.61L9.90001 11.1357L9.54121 11.6357L9.18961 12.1049L8.85241 12.5382L8.53681 12.9303L8.25001 13.2762L7.57696 14.0486L7.50001 14.1324L7.11046 13.7031L6.75001 13.2872L6.30856 12.7563L5.98126 12.3469L5.63596 11.8987L5.27986 11.4169L4.92016 10.9063C3.78301 9.24908 2.70001 7.23406 2.70001 5.57027C2.70001 3.00162 4.86001 0.900002 7.50001 0.900002ZM7.50001 1.9C5.40626 1.9 3.70001 3.56013 3.70001 5.57027C3.70001 6.71624 4.37862 8.28678 5.53973 10.037L5.73768 10.3304L6.08408 10.8225L6.42809 11.2884L6.76238 11.7225L7.07743 12.1169L7.49501 12.619L7.75777 12.3033L8.06326 11.924L8.38936 11.5052L8.72874 11.0527L9.07405 10.572L9.42569 10.0569C10.613 8.26844 11.3 6.6889 11.3 5.57027C11.3 3.56013 9.59377 1.9 7.50001 1.9ZM7.50002 7.9C7.8314 7.9 8.10002 8.16863 8.10002 8.5C8.10002 8.83137 7.8314 9.1 7.50002 9.1C7.16865 9.1 6.90002 8.83137 6.90002 8.5C6.90002 8.16863 7.16865 7.9 7.50002 7.9ZM7.88237 3C8.02439 3 8.14336 3.09868 8.17445 3.23121L8.18225 3.30856L8.18225 3.30856L8 6.5C8 6.77614 7.77615 7 7.5 7C7.22386 7 7 6.77614 7 6.5L6.81812 3.31711C6.80867 3.1517 6.93511 3.00994 7.10052 3.00049L7.88237 3Z" id="Shape" fill="#000000" stroke="none" artboard="c94ebf8e-d8b5-49d0-b3ea-b0c224b528a5" />
  </g>
</svg>