<?xml version="1.0" encoding="utf-8"?>
<svg width="15px" height="15px" viewBox="0 0 15 15" version="1.1" xmlns:xlink="http://www.w3.org/1999/xlink" xmlns="http://www.w3.org/2000/svg">
  <defs>
    <rect width="15" height="15" id="artboard_1" />
    <clipPath id="clip_1">
      <use xlink:href="#artboard_1" clip-rule="evenodd" />
    </clipPath>
  </defs>
  <g id="icon--map-direction" clip-path="url(#clip_1)">
    <path d="M7.03012 1.82912C7.05539 1.75963 7.09417 1.69873 7.14646 1.64644C7.19875 1.59415 7.25965 1.55537 7.32914 1.5301C7.4589 1.48291 7.58634 1.48852 7.71146 1.5469C7.83658 1.60529 7.92273 1.69937 7.96991 1.82912L11.9699 12.8291C12.0011 12.9148 12.0082 13.0024 11.9915 13.092C11.9747 13.1816 11.9363 13.2607 11.8763 13.3292C11.7854 13.4332 11.671 13.4897 11.5333 13.4989C11.3955 13.5081 11.2747 13.4672 11.1708 13.3763L7.50002 10.1644L3.82927 13.3763C3.76068 13.4363 3.68159 13.4747 3.592 13.4915C3.50242 13.5082 3.4148 13.501 3.32914 13.4699C3.26683 13.4472 3.21123 13.4135 3.16233 13.3687C3.11343 13.324 3.07496 13.2715 3.04692 13.2114C3.01888 13.1514 3.00341 13.0882 3.0005 13.022C2.99759 12.9557 3.00746 12.8914 3.03012 12.8291L7.03012 1.82912L7.03012 1.82912ZM7.17074 9.12371L4.63464 11.3428L7.49999 3.46309L10.3653 11.3428L7.82924 9.12371C7.73499 9.04124 7.62524 9 7.49999 9C7.37475 9 7.265 9.04124 7.17074 9.12371L7.17074 9.12371Z" id="Vector" fill="#000000" fill-rule="evenodd" stroke="none" artboard="02cd5ed6-97d3-46e1-9b6c-6fc28b05c727" />
  </g>
</svg>