<?xml version="1.0" encoding="utf-8"?>
<svg width="15px" height="15px" viewBox="0 0 15 15" version="1.1" xmlns:xlink="http://www.w3.org/1999/xlink" xmlns="http://www.w3.org/2000/svg">
  <defs>
    <rect width="15" height="15" id="artboard_1" />
    <clipPath id="clip_1">
      <use xlink:href="#artboard_1" clip-rule="evenodd" />
    </clipPath>
  </defs>
  <g id="icon--map-plus" clip-path="url(#clip_1)">
    <path d="M9 13.7497L5.71196 12.1065C5.57838 12.0397 5.42194 12.0361 5.28545 12.0967L1.70295 13.6878C1.45057 13.7999 1.15512 13.6862 1.04304 13.4338C1.01466 13.3699 1 13.3008 1 13.2308L1 3.32503C1 3.12739 1.11642 2.94829 1.29705 2.86807L5.28747 1.09578C5.42402 1.03514 5.58055 1.03874 5.71417 1.1056L9.28897 2.8944C9.42259 2.96126 9.57911 2.96486 9.71566 2.90422L13.3002 1.31221C13.5526 1.20012 13.848 1.31384 13.9601 1.56621C13.9885 1.63011 14.0031 1.69925 14.0031 1.76916L14.003 8.31374L13.002 8.74174L13.003 2.537L10 3.871L10 10.0257L9 10.4538L9 3.868L6 2.368L6 11.132L9 12.631L9 13.7497ZM5 2.314L2 3.649L2 12.462L5 11.129L5 2.314Z" id="Shape" fill="#000000" fill-rule="evenodd" stroke="none" artboard="e396c9e7-cb89-451c-a0ea-16b74e7f7422" />
    <path d="M12.5 10C12.7761 10 13 10.2239 13 10.5L13 12L14.5 12C14.7761 12 15 12.2239 15 12.5C15 12.7761 14.7761 13 14.5 13L13 13L13 14.5C13 14.7761 12.7761 15 12.5 15C12.2239 15 12 14.7761 12 14.5L12 13L10.5 13C10.2239 13 10 12.7761 10 12.5C10 12.2239 10.2239 12 10.5 12L12 12L12 10.5C12 10.2239 12.2239 10 12.5 10Z" id="Path" fill="#000000" fill-rule="evenodd" stroke="none" artboard="4010dc54-a0f9-4e3b-ac95-b3f2279550b4" />
  </g>
</svg>