<?xml version="1.0" encoding="utf-8"?>
<svg width="15px" height="15px" viewBox="0 0 15 15" version="1.1" xmlns:xlink="http://www.w3.org/1999/xlink" xmlns="http://www.w3.org/2000/svg">
  <defs>
    <rect width="15" height="15" id="artboard_1" />
    <clipPath id="clip_1">
      <use xlink:href="#artboard_1" clip-rule="evenodd" />
    </clipPath>
  </defs>
  <g id="icon--map-marker-off" clip-path="url(#clip_1)">
    <path d="M2.95353 2.24645L12.7317 12.0246C12.927 12.2199 12.927 12.5365 12.7317 12.7317C12.5364 12.927 12.2199 12.927 12.0246 12.7317L10.114 10.821L9.89997 11.1357L9.54118 11.6357L9.18958 12.1049L8.85238 12.5382L8.53678 12.9303L8.24998 13.2762L7.57693 14.0486L7.49998 14.1324L7.11043 13.7031L6.74998 13.2872L6.30853 12.7563L5.98123 12.3469L5.63593 11.8987L5.27983 11.4169L4.92013 10.9063C3.78298 9.24908 2.69998 7.23405 2.69998 5.57027C2.69998 4.93607 2.83165 4.33033 3.06971 3.77767L2.24642 2.95355C2.05116 2.75829 2.05116 2.44171 2.24642 2.24645C2.44168 2.05118 2.75827 2.05118 2.95353 2.24645ZM3.69995 5.57027C3.69995 6.71624 4.37856 8.28678 5.53967 10.037L5.73762 10.3304L6.08402 10.8225L6.42803 11.2884L6.76232 11.7225L7.07736 12.1169L7.49495 12.619L7.75771 12.3033L8.0632 11.924L8.3893 11.5052L8.72868 11.0527L9.07398 10.572L9.39395 10.101L3.84884 4.55681C3.75192 4.87933 3.69995 5.21947 3.69995 5.57027ZM7.49999 0.9C10.14 0.9 12.3 3.00162 12.3 5.57027C12.3 6.64177 11.8302 7.88088 11.1845 9.07784L10.4445 8.33733C10.9965 7.26071 11.3 6.3137 11.3 5.57027C11.3 3.56013 9.59375 1.9 7.49999 1.9C6.52381 1.9 5.63187 2.26087 4.95781 2.84983L4.24884 2.14204C5.10554 1.37201 6.24887 0.9 7.49999 0.9ZM7.49996 3.9C8.38361 3.9 9.09996 4.61634 9.09996 5.5C9.09996 5.91461 8.94226 6.29238 8.68357 6.57662L6.42334 4.31639C6.70757 4.0577 7.08535 3.9 7.49996 3.9Z" id="Shape" fill="#000000" stroke="none" artboard="9ca3079f-d99a-4287-a72e-70eee99b72eb" />
  </g>
</svg>