<?xml version="1.0" encoding="utf-8"?>
<svg width="15px" height="15px" viewBox="0 0 15 15" version="1.1" xmlns:xlink="http://www.w3.org/1999/xlink" xmlns="http://www.w3.org/2000/svg">
  <defs>
    <rect width="15" height="15" id="artboard_1" />
    <clipPath id="clip_1">
      <use xlink:href="#artboard_1" clip-rule="evenodd" />
    </clipPath>
  </defs>
  <g id="icon--map-marker-multible" clip-path="url(#clip_1)">
    <path d="M8.50001 0.900002C11.14 0.900002 13.3 3.00162 13.3 5.57027C13.3 7.11146 12.328 8.99942 11.2588 10.61L10.9 11.1357L10.5412 11.6357L10.1896 12.1049L9.85241 12.5382L9.53681 12.9303L9.25001 13.2762L8.57696 14.0486L8.50001 14.1324L8.11046 13.7031L7.75001 13.2872L7.30856 12.7563L6.98126 12.3469L6.63596 11.8987L6.27986 11.4169L5.92016 10.9063C4.78301 9.24908 3.70001 7.23406 3.70001 5.57027C3.70001 3.00162 5.86001 0.900002 8.50001 0.900002ZM5.4177 1.16953C3.86864 1.9537 2.78838 3.47672 2.70518 5.28969L2.70001 5.57027L2.7068 5.76269C2.78178 7.14248 3.47415 8.70886 4.60216 10.4139L4.81872 10.7352L5.14306 11.1958L5.46976 11.6382L5.78584 12.0487L6.08505 12.4233L6.48631 12.906L6.81676 13.2876L7.03201 13.5246L6.50001 14.1324L6.11046 13.7031L5.75001 13.2872L5.30856 12.7563L4.98126 12.3469L4.63596 11.8987L4.27986 11.4169L3.92016 10.9063C2.78301 9.24908 1.70001 7.23406 1.70001 5.57027C1.70001 3.38462 3.2639 1.53711 5.35669 1.03476C5.51845 0.995925 5.59469 1.07993 5.4177 1.16953ZM8.50001 1.9C6.40626 1.9 4.70001 3.56013 4.70001 5.57027C4.70001 6.71624 5.37862 8.28678 6.53973 10.037L6.73768 10.3304L7.08408 10.8225L7.42809 11.2884L7.76238 11.7225L8.07743 12.1169L8.49501 12.619L8.75777 12.3033L9.06326 11.924L9.38936 11.5052L9.72874 11.0527L10.074 10.572L10.4257 10.0569C11.613 8.26844 12.3 6.6889 12.3 5.57027C12.3 3.56013 10.5938 1.9 8.50001 1.9ZM8.50002 3.9C9.38368 3.9 10.1 4.61635 10.1 5.5C10.1 6.38366 9.38368 7.1 8.50002 7.1C7.61637 7.1 6.90002 6.38366 6.90002 5.5C6.90002 4.61635 7.61637 3.9 8.50002 3.9Z" id="Shape" fill="#000000" fill-rule="evenodd" stroke="none" artboard="321ea6bb-6843-490b-8a49-b525c50a2972" />
  </g>
</svg>