<?xml version="1.0" encoding="utf-8"?>
<svg width="15px" height="15px" viewBox="0 0 15 15" version="1.1" xmlns:xlink="http://www.w3.org/1999/xlink" xmlns="http://www.w3.org/2000/svg">
  <defs>
    <rect width="15" height="15" id="artboard_1" />
    <clipPath id="clip_1">
      <use xlink:href="#artboard_1" clip-rule="evenodd" />
    </clipPath>
  </defs>
  <g id="icon--map-marker-minus" clip-path="url(#clip_1)">
    <path d="M7.50001 0.9C10.14 0.9 12.3 3.00162 12.3 5.57027C12.3 7.11146 11.328 8.99942 10.2588 10.61L9.90001 11.1357L9.54121 11.6357L9.18961 12.1049L8.85241 12.5382L8.53681 12.9303L8.25001 13.2762L7.57696 14.0486L7.50001 14.1324L7.11046 13.7031L6.75001 13.2872L6.30856 12.7563L5.98126 12.3469L5.63596 11.8987L5.27986 11.4169L4.92016 10.9063C3.78301 9.24908 2.70001 7.23405 2.70001 5.57027C2.70001 3.00162 4.86001 0.9 7.50001 0.9ZM14.5 12C14.7761 12 15 12.2239 15 12.5C15 12.7761 14.7761 13 14.5 13L10.5 13C10.2239 13 10 12.7761 10 12.5C10 12.2239 10.2239 12 10.5 12L14.5 12ZM7.50001 1.9C5.40626 1.9 3.70001 3.56013 3.70001 5.57027C3.70001 6.71624 4.37862 8.28678 5.53973 10.037L5.73768 10.3304L6.08408 10.8225L6.42809 11.2884L6.76238 11.7225L7.07743 12.1169L7.49501 12.619L7.75777 12.3033L8.06326 11.924L8.38936 11.5052L8.72874 11.0527L9.07405 10.572L9.42569 10.0569C10.613 8.26844 11.3 6.6889 11.3 5.57027C11.3 3.56013 9.59377 1.9 7.50001 1.9ZM7.50002 3.9C8.38368 3.9 9.10002 4.61634 9.10002 5.5C9.10002 6.38366 8.38368 7.1 7.50002 7.1C6.61637 7.1 5.90002 6.38366 5.90002 5.5C5.90002 4.61634 6.61637 3.9 7.50002 3.9Z" id="Shape" fill="#000000" stroke="none" artboard="25715918-31af-4283-8e34-0139f93269da" />
  </g>
</svg>