<?xml version="1.0" encoding="utf-8"?>
<svg width="15px" height="15px" viewBox="0 0 15 15" version="1.1" xmlns:xlink="http://www.w3.org/1999/xlink" xmlns="http://www.w3.org/2000/svg">
  <defs>
    <rect width="15" height="15" id="artboard_1" />
    <clipPath id="clip_1">
      <use xlink:href="#artboard_1" clip-rule="evenodd" />
    </clipPath>
  </defs>
  <g id="icon--map-marker-cross" clip-path="url(#clip_1)">
    <path d="M14.6236 10.3964C14.8188 10.5917 14.8188 10.9083 14.6236 11.1036L13.1045 12.5178L14.6236 13.932C14.8188 14.1272 14.8188 14.4438 14.6236 14.6391C14.4283 14.8343 14.1117 14.8343 13.9165 14.6391L12.5023 13.12L11.0881 14.6391C10.8928 14.8343 10.5762 14.8343 10.3809 14.6391C10.1857 14.4438 10.1857 14.1272 10.3809 13.932L11.8945 12.5178L10.3809 11.1036C10.1857 10.9083 10.1857 10.5917 10.3809 10.3964C10.5762 10.2012 10.8928 10.2012 11.0881 10.3964L12.5023 11.91L13.9165 10.3964L13.9556 10.3612L14.0032 10.327C14.1965 10.2049 14.4552 10.228 14.6236 10.3964ZM7.50001 0.9C10.14 0.9 12.3 3.00162 12.3 5.57027C12.3 6.6188 11.8501 7.82784 11.2258 9.00083L10.083 8.99972C10.8627 7.64852 11.3 6.46271 11.3 5.57027C11.3 3.56013 9.59377 1.9 7.50001 1.9C5.40626 1.9 3.70001 3.56013 3.70001 5.57027C3.70001 6.71624 4.37862 8.28678 5.53973 10.037L5.73768 10.3304L6.08408 10.8225L6.42809 11.2884L6.76238 11.7225L7.07743 12.1169L7.49501 12.619L7.75777 12.3033L8.06326 11.924L8.38936 11.5052L8.72874 11.0527L9.00001 10.674L9.00001 12.347L8.85241 12.5382L8.53681 12.9303L8.25001 13.2762L7.57696 14.0486L7.50001 14.1324L7.11046 13.7031L6.75001 13.2872L6.30856 12.7563L5.98126 12.3469L5.63596 11.8987L5.27986 11.4169L4.92016 10.9063C3.78301 9.24908 2.70001 7.23405 2.70001 5.57027C2.70001 3.00162 4.86001 0.9 7.50001 0.9ZM7.50002 3.9C8.38368 3.9 9.10002 4.61634 9.10002 5.5C9.10002 6.38366 8.38368 7.1 7.50002 7.1C6.61637 7.1 5.90002 6.38366 5.90002 5.5C5.90002 4.61634 6.61637 3.9 7.50002 3.9Z" id="Shape" fill="#000000" stroke="none" artboard="9b58fd6a-0619-41b8-a4ce-80f7b55606f1" />
  </g>
</svg>