<?xml version="1.0" encoding="utf-8"?>
<svg width="15px" height="15px" viewBox="0 0 15 15" version="1.1" xmlns:xlink="http://www.w3.org/1999/xlink" xmlns="http://www.w3.org/2000/svg">
  <defs>
    <rect width="15" height="15" id="artboard_1" />
    <clipPath id="clip_1">
      <use xlink:href="#artboard_1" clip-rule="evenodd" />
    </clipPath>
  </defs>
  <g id="icon--map-marker-multible-2" clip-path="url(#clip_1)">
    <path d="M3.5 0C4.93341 0 6.17277 0.849693 6.71228 2.05697C6.44015 2.09752 6.17676 2.1597 5.92214 2.24354C5.79582 2.00371 5.62644 1.78044 5.41398 1.57372C4.88385 1.05791 4.24585 0.800003 3.5 0.800003C2.75413 0.800003 2.11613 1.05791 1.586 1.57372C1.06199 2.08357 0.799988 2.69413 0.799988 3.40541C0.799988 4.26111 1.29095 5.40448 2.27287 6.83552L2.50179 7.16051C2.51668 7.68967 2.62406 8.26181 2.82393 8.87695L2.63123 8.64525L2.39258 8.34668L2.14079 8.01991L1.88114 7.66856L1.61886 7.29625C0.789693 6.08787 0 4.61858 0 3.40541C0 1.53243 1.57499 0 3.5 0L3.5 0ZM11.216 11.3356L11.0905 11.1908C11.2454 10.9243 11.3876 10.664 11.517 10.41L11.6328 10.2705L11.8548 9.9948L12.0918 9.69052L12.3384 9.36173L12.5945 9.00473L12.8451 8.63771C13.7484 7.27714 14.2 6.19971 14.2 5.40541C14.2 4.69413 13.938 4.08357 13.414 3.57372C12.8839 3.05791 12.2458 2.8 11.5 2.8C11.1327 2.8 10.7916 2.86254 10.4766 2.98762C10.2254 2.79515 9.96291 2.63082 9.68903 2.49461C10.2182 2.181 10.8384 2 11.5 2C13.425 2 15 3.53243 15 5.40541C15 6.52919 14.2912 7.90583 13.5116 9.08018L13.25 9.46351L12.9884 9.82812L12.732 10.1703L12.4861 10.4862L12.256 10.7721L12.0469 11.0243L12.0307 11.0429L11.5561 11.5875L11.5 11.6487L11.216 11.3356L11.216 11.3356ZM3.50004 2.1875C3.99754 2.1875 4.4223 2.49889 4.59007 2.93739C4.37335 3.09789 4.16498 3.27901 3.96495 3.48073C3.65538 3.7929 3.39488 4.12511 3.18343 4.47736C2.69295 4.33938 2.33337 3.88876 2.33337 3.35417C2.33337 2.70983 2.85571 2.1875 3.50004 2.1875L3.50004 2.1875ZM7.5 3C9.69999 3 11.5 4.81513 11.5 7.03362C11.5 8.36471 10.69 9.9953 9.79899 11.3863L9.5 11.8403L9.20101 12.2722L8.908 12.6774L8.62699 13.0516L8.36401 13.3903L8.15206 13.6552L8.125 13.6891L7.56413 14.3562L7.5 14.4286L7.17537 14.0577L7.09546 13.9622L7.02706 13.8804L6.875 13.6985L6.84355 13.6593L6.50712 13.2401L6.23438 12.8864L5.94664 12.4994L5.64988 12.0832L5.35012 11.6422C4.40251 10.2109 3.5 8.47059 3.5 7.03362C3.5 4.81513 5.30001 3 7.5 3L7.5 3ZM8.95695 10.8469L8.67122 11.2806L8.37883 11.703L8.09762 12.0915L7.82739 12.4511L7.57418 12.777L7.49593 12.8747L7.28707 12.6142L7.0262 12.2757L6.74915 11.9027L6.4707 11.512L6.17717 11.0801C5.05906 9.3912 4.5 8.04238 4.5 7.03362C4.5 6.19888 4.79502 5.48401 5.38505 4.88902C5.9728 4.29634 6.67778 4 7.5 4C8.32223 4 9.02722 4.29634 9.61495 4.88902C10.205 5.48401 10.5 6.19888 10.5 7.03362C10.5 7.96983 9.98564 9.24093 8.95695 10.8469L8.95695 10.8469ZM12.6667 5.35417C12.6667 5.62683 12.5731 5.87765 12.4164 6.07628C12.2927 5.39314 12.0318 4.76607 11.6336 4.19507C12.215 4.26135 12.6667 4.75501 12.6667 5.35417L12.6667 5.35417ZM8.72589 5.69939C8.38739 5.36049 7.97878 5.19104 7.50006 5.19104C7.0213 5.19104 6.61269 5.36049 6.27423 5.69939C5.93589 6.03815 5.76672 6.44703 5.76672 6.92604C5.76672 7.40505 5.93589 7.81393 6.27423 8.15269C6.61269 8.49159 7.0213 8.66104 7.50006 8.66104C7.97878 8.66104 8.38739 8.49159 8.72589 8.15269C9.06423 7.81393 9.23338 7.40505 9.23338 6.92604C9.23338 6.44703 9.06423 6.03815 8.72589 5.69939L8.72589 5.69939ZM6.56671 6.92604C6.56671 6.30271 6.87783 5.99104 7.50006 5.99104C8.12225 5.99104 8.43337 6.30271 8.43337 6.92604C8.43337 7.18433 8.34218 7.40477 8.15985 7.58737C7.9776 7.76982 7.75767 7.86104 7.50006 7.86104C6.87783 7.86104 6.56671 7.54938 6.56671 6.92604L6.56671 6.92604Z" id="Vector" fill="#000000" fill-rule="evenodd" stroke="none" artboard="024d8987-1362-483b-9b4e-020dc16d6a8f" />
  </g>
</svg>