<?xml version="1.0" encoding="utf-8"?>
<svg width="15px" height="15px" viewBox="0 0 15 15" version="1.1" xmlns:xlink="http://www.w3.org/1999/xlink" xmlns="http://www.w3.org/2000/svg">
  <defs>
    <rect width="15" height="15" id="artboard_1" />
    <clipPath id="clip_1">
      <use xlink:href="#artboard_1" clip-rule="evenodd" />
    </clipPath>
  </defs>
  <g id="icon--map-cross" clip-path="url(#clip_1)">
    <path d="M14.6236 10.3964C14.8188 10.5917 14.8188 10.9083 14.6236 11.1036L13.1045 12.5178L14.6236 13.932C14.8188 14.1272 14.8188 14.4438 14.6236 14.6391C14.4283 14.8343 14.1117 14.8343 13.9165 14.6391L12.5023 13.12L11.0881 14.6391C10.8928 14.8343 10.5762 14.8343 10.3809 14.6391C10.1857 14.4438 10.1857 14.1272 10.3809 13.932L11.8945 12.5178L10.3809 11.1036C10.1857 10.9083 10.1857 10.5917 10.3809 10.3964C10.5762 10.2012 10.8928 10.2012 11.0881 10.3964L12.5023 11.91L13.9165 10.3964L13.9556 10.3612L14.0032 10.327C14.1965 10.2049 14.4552 10.228 14.6236 10.3964ZM5.71417 1.1056L9.28897 2.8944C9.42259 2.96126 9.57911 2.96486 9.71566 2.90422L13.3002 1.31221C13.5526 1.20012 13.848 1.31384 13.9601 1.56621C13.9885 1.63011 14.0031 1.69925 14.0031 1.76916L14.003 8.99974L13.002 8.99974L13.003 2.537L10 3.871L10 8.99974L9 9.43235L9 3.868L6 2.368L6 11.132L9 12.631L9 13.7497L5.71196 12.1065C5.57838 12.0397 5.42194 12.0361 5.28545 12.0967L1.70295 13.6878C1.45057 13.7999 1.15512 13.6862 1.04304 13.4338C1.01466 13.3699 1 13.3008 1 13.2308L1 3.32503C1 3.12739 1.11642 2.94829 1.29705 2.86807L5.28747 1.09578C5.42402 1.03514 5.58055 1.03874 5.71417 1.1056ZM5 2.314L2 3.649L2 12.462L5 11.129L5 2.314Z" id="Shape" fill="#000000" fill-rule="evenodd" stroke="none" artboard="43ba713a-3677-431d-a8b5-fdc39eaadd9c" />
  </g>
</svg>