<?xml version="1.0" encoding="utf-8"?>
<svg width="15px" height="15px" viewBox="0 0 15 15" version="1.1" xmlns:xlink="http://www.w3.org/1999/xlink" xmlns="http://www.w3.org/2000/svg">
  <defs>
    <rect width="15" height="15" id="artboard_1" />
    <clipPath id="clip_1">
      <use xlink:href="#artboard_1" clip-rule="evenodd" />
    </clipPath>
  </defs>
  <g id="icon--map" clip-path="url(#clip_1)">
    <path d="M14.0031 1.76763L14.0031 11.6756Q14.0031 11.748 13.9826 11.8175Q13.962 11.8869 13.9225 11.9476Q13.883 12.0083 13.8279 12.0553Q13.7729 12.1023 13.7067 12.1317L9.71512 13.9045Q9.61296 13.9498 9.5012 13.9473Q9.38945 13.9447 9.28946 13.8948L5.71154 12.1062Q5.61155 12.0563 5.4998 12.0537Q5.38804 12.0512 5.28588 12.0965L1.70154 13.6884Q1.67316 13.701 1.64344 13.71Q1.61372 13.719 1.58311 13.7242Q1.5525 13.7295 1.52148 13.7309Q1.49046 13.7323 1.4595 13.7298Q1.42855 13.7274 1.39814 13.7211Q1.36773 13.7148 1.33833 13.7048Q1.30893 13.6948 1.281 13.6812Q1.25307 13.6677 1.22703 13.6508Q1.201 13.6338 1.17726 13.6138Q1.15353 13.5938 1.13246 13.571Q1.11139 13.5482 1.09331 13.5229Q1.07523 13.4977 1.06042 13.4704Q1.0456 13.4431 1.03429 13.4142Q1.02298 13.3853 1.01534 13.3552Q1.0077 13.3251 1.00385 13.2942Q1 13.2634 1 13.2324L1 3.32438Q1 3.25197 1.02058 3.18255Q1.04116 3.11312 1.08063 3.05241Q1.12009 2.9917 1.17519 2.94471Q1.23028 2.89773 1.29645 2.86833L5.2879 1.09559Q5.39011 1.0502 5.50192 1.05277Q5.61373 1.05534 5.71375 1.10539L9.28939 2.89461Q9.3894 2.94466 9.50121 2.94723Q9.61302 2.9498 9.71523 2.90441L13.3016 1.31158Q13.33 1.29898 13.3597 1.28999Q13.3894 1.281 13.42 1.27577Q13.4506 1.27053 13.4817 1.26913Q13.5127 1.26773 13.5436 1.27019Q13.5746 1.27265 13.605 1.27892Q13.6354 1.2852 13.6648 1.2952Q13.6942 1.3052 13.7221 1.31876Q13.7501 1.33233 13.7761 1.34925Q13.8021 1.36618 13.8259 1.3862Q13.8496 1.40622 13.8707 1.42903Q13.8917 1.45184 13.9098 1.47708Q13.9279 1.50233 13.9427 1.52962Q13.9575 1.55692 13.9688 1.58583Q13.9802 1.61475 13.9878 1.64485Q13.9954 1.67495 13.9993 1.70576Q14.0031 1.73657 14.0031 1.76763ZM13.003 2.537L10 3.871L10 12.682L13.003 11.35L13.003 2.537ZM6 2.368L6 11.132L9 12.631L9 3.868L6 2.368ZM5 2.314L2 3.649L2 12.462L5 11.129L5 2.314Z" id="Shape" fill="#000000" fill-rule="evenodd" stroke="none" artboard="d1844f0b-246f-45db-8655-a97ce68b4b27" />
  </g>
</svg>