<?xml version="1.0" encoding="utf-8"?>
<svg width="15px" height="15px" viewBox="0 0 15 15" version="1.1" xmlns:xlink="http://www.w3.org/1999/xlink" xmlns="http://www.w3.org/2000/svg">
  <defs>
    <rect width="15" height="15" id="artboard_1" />
    <clipPath id="clip_1">
      <use xlink:href="#artboard_1" clip-rule="evenodd" />
    </clipPath>
  </defs>
  <g id="icon--amazone-pay" clip-path="url(#clip_1)">
    <path d="M3 10L3.824 10L3.824 7.872L4.528 7.888C4.904 7.888 5.44 7.792 5.736 7.464C6.048 7.144 6.136 6.616 6.136 6.224C6.136 5.832 6.04 5.312 5.736 4.976C5.432 4.648 4.928 4.568 4.552 4.568C4.36 4.568 4.032 4.584 3.68 4.608C3.456 4.624 3.28 4.648 3 4.68L3 10L3 10ZM3.82397 5.32C4.04797 5.304 4.34397 5.288 4.55197 5.288C4.67998 5.288 4.95997 5.312 5.11197 5.504C5.27197 5.696 5.30397 6.04 5.30397 6.24C5.30397 6.44 5.27197 6.776 5.11197 6.968C4.97597 7.136 4.75197 7.176 4.55197 7.176C4.33597 7.176 4.04797 7.168 3.82397 7.16L3.82397 5.32L3.82397 5.32ZM8.98804 7.488C8.98804 7.46221 8.98836 7.43475 8.9887 7.40589C8.99212 7.11257 8.99723 6.67534 8.68404 6.384C8.39604 6.128 7.98004 6.072 7.63604 6.072C7.14804 6.072 6.78004 6.24 6.54004 6.36L6.70804 7.064C6.85204 6.904 7.26004 6.792 7.63604 6.792C7.82004 6.792 7.99604 6.816 8.11604 6.92C8.20546 7.00197 8.20465 7.27831 8.20412 7.45804L8.20404 7.496L8.20404 7.552C8.06004 7.52 7.88404 7.496 7.70004 7.496C7.34004 7.496 6.97204 7.6 6.70804 7.84C6.41204 8.104 6.31604 8.472 6.31604 8.784C6.31604 9.088 6.37204 9.496 6.67604 9.76C6.94004 10.016 7.35604 10.072 7.70004 10.072C8.16404 10.072 8.62804 9.92 8.98804 9.76L8.98804 7.488L8.98804 7.488ZM10.872 8.76L11.512 6.16L12.4 6.16L11.128 10.472C11.088 10.64 10.976 10.872 10.856 11.016C10.744 11.128 10.6 11.24 10.384 11.36L9.928 11.568L9.648 11.016L9.992 10.792L9.984 10.792C10.072 10.736 10.16 10.648 10.232 10.56C10.344 10.424 10.432 10.024 10.464 9.912L9.328 6.16L10.208 6.16L10.872 8.76L10.872 8.76ZM8.20402 9.304C8.02802 9.36 7.81202 9.384 7.70001 9.384C7.52401 9.384 7.38801 9.36 7.25201 9.24C7.15601 9.152 7.14001 8.968 7.14001 8.8C7.14001 8.632 7.16401 8.464 7.27601 8.368C7.41201 8.248 7.53201 8.208 7.70001 8.208C7.86001 8.208 8.05202 8.232 8.20402 8.288L8.20402 9.304L8.20402 9.304ZM11.8833 11.3189C11.1969 11.3189 10.7804 11.5913 10.7631 11.6028C10.7133 11.6361 10.6923 11.6992 10.7124 11.7558C10.7326 11.8124 10.7909 11.8441 10.848 11.8422L10.8503 11.842C10.8979 11.8382 11.6407 11.7779 12.1427 11.9348C12.1094 12.5312 11.7698 13.2176 11.7662 13.2249C11.7397 13.2781 11.7523 13.3424 11.7969 13.3819C11.8212 13.4034 11.8521 13.4142 11.8833 13.4142C11.9085 13.4142 11.9339 13.4071 11.9559 13.3922C12.7904 12.8359 12.8 11.6316 12.8 11.5808C12.8 11.546 12.786 11.5129 12.7616 11.4883C12.7218 11.4487 12.5412 11.3189 11.8833 11.3189L11.8833 11.3189ZM1.92244 11.3195C1.89085 11.3216 1.85982 11.335 1.83651 11.3594C1.78963 11.4086 1.78763 11.4848 1.83242 11.5358C1.85101 11.5573 3.74455 13.6761 7.16917 13.6761C10.0642 13.6761 11.6396 12.3911 11.7054 12.3364C11.7565 12.2939 11.7674 12.2195 11.731 12.164C11.6948 12.1082 11.6221 12.0881 11.5627 12.1185C11.5472 12.1261 9.98644 12.8904 7.16917 12.8904C3.98392 12.8904 2.03236 11.363 2.01298 11.3476C1.9864 11.3264 1.95404 11.3173 1.92244 11.3195L1.92244 11.3195Z" id="Vector" fill="#000000" fill-rule="evenodd" stroke="none" artboard="003765e2-b83d-4b76-91b6-a2fef51fa3a4" />
  </g>
</svg>