<?xml version="1.0" encoding="utf-8"?>
<svg width="15px" height="15px" viewBox="0 0 15 15" version="1.1" xmlns:xlink="http://www.w3.org/1999/xlink" xmlns="http://www.w3.org/2000/svg">
  <defs>
    <rect width="15" height="15" id="artboard_1" />
    <clipPath id="clip_1">
      <use xlink:href="#artboard_1" clip-rule="evenodd" />
    </clipPath>
  </defs>
  <g id="icon--amazone" clip-path="url(#clip_1)">
    <path d="M4.16502 4.35813C4.32164 3.10702 5.61378 2.2 7.16921 2.2C9.13007 2.2 10.1811 3.11665 10.1811 4.68806L10.1811 7.56898C10.1811 8.18392 10.1811 8.51311 10.5739 8.89025C10.591 8.90649 10.7809 9.06741 10.8675 9.13629C10.993 9.23582 11.0005 9.42402 10.8834 9.53324L9.87058 10.4939C9.77185 10.5876 9.62432 10.6058 9.5028 10.5445C8.90592 10.2433 8.56806 9.74412 8.42297 9.44372C8.39389 9.48143 8.36741 9.51359 8.34777 9.53324C8.34777 9.53324 7.69302 10.5808 5.99066 10.5808C4.68875 10.5808 3.63354 9.52538 3.63354 8.22373C3.63354 6.92182 4.41925 5.34281 8.08587 5.34281L8.08587 4.68806C8.08587 4.18259 7.69302 3.77141 6.97279 3.77141C6.3403 3.77141 5.98109 4.17496 5.85459 4.62412C5.81871 4.7514 5.69909 4.83505 5.56814 4.81645L4.39009 4.65021C4.24867 4.63004 4.14721 4.49981 4.16502 4.35813ZM8.08593 7.91681L8.08593 6.65232C6.38357 6.65232 5.99072 7.38329 5.99072 7.96183C5.99072 8.57442 6.51625 9.06403 7.14115 9.00432C7.6859 8.95246 8.08593 8.46393 8.08593 7.91681ZM11.8833 10.3189C11.1969 10.3189 10.7804 10.5913 10.7631 10.6028C10.7133 10.6361 10.6923 10.6992 10.7124 10.7558C10.7326 10.8124 10.7909 10.8441 10.848 10.8422L10.8503 10.842C10.8979 10.8382 11.6407 10.7779 12.1427 10.9348C12.1094 11.5312 11.7698 12.2176 11.7662 12.2249C11.7397 12.2781 11.7523 12.3424 11.7969 12.3819C11.8212 12.4034 11.8521 12.4142 11.8833 12.4142C11.9085 12.4142 11.9339 12.4071 11.9559 12.3922C12.7904 11.8359 12.8 10.6316 12.8 10.5808C12.8 10.546 12.786 10.5129 12.7616 10.4883C12.7218 10.4487 12.5412 10.3189 11.8833 10.3189ZM1.83651 10.3594C1.85982 10.335 1.89085 10.3216 1.92244 10.3195C1.95404 10.3173 1.9864 10.3264 2.01298 10.3476C2.03236 10.363 3.98392 11.8904 7.16917 11.8904C9.98644 11.8904 11.5472 11.1261 11.5627 11.1185C11.6221 11.0881 11.6948 11.1082 11.731 11.164C11.7674 11.2195 11.7565 11.2939 11.7054 11.3364C11.6396 11.3911 10.0642 12.6761 7.16917 12.6761C3.74455 12.6761 1.85101 10.5573 1.83242 10.5358C1.78763 10.4848 1.78963 10.4086 1.83651 10.3594Z" id="Shape" fill="#000000" fill-rule="evenodd" stroke="none" artboard="5937cd55-ebc9-4d9d-b4f6-b51846535a8e" />
  </g>
</svg>