<?xml version="1.0" encoding="utf-8"?>
<svg width="15px" height="15px" viewBox="0 0 15 15" version="1.1" xmlns:xlink="http://www.w3.org/1999/xlink" xmlns="http://www.w3.org/2000/svg">
  <defs>
    <rect width="15" height="15" id="artboard_1" />
    <clipPath id="clip_1">
      <use xlink:href="#artboard_1" clip-rule="evenodd" />
    </clipPath>
  </defs>
  <g id="icon--angular" clip-path="url(#clip_1)">
    <g id="icons8-angularjs-(1)" transform="translate(2 2)" artboard="0ab9cfa9-7841-4746-9043-52a7ccab1745">
      <path d="M5.48243 5.46193e-06C5.45496 0.000130463 5.42726 0.00467738 5.40089 0.0136775L0.167922 1.83499C0.0569214 1.87349 -0.012595 1.98435 0.00190517 2.1011L0.829062 8.88193C0.838812 8.96218 0.886231 9.03289 0.957481 9.07139L5.36964 11.4694C5.40664 11.4896 5.44778 11.4996 5.48878 11.4996C5.53003 11.4996 5.57165 11.4894 5.6089 11.4689L10.0435 9.03818C10.114 8.99943 10.1619 8.92897 10.1714 8.84922L10.9981 2.06887C11.0126 1.95162 10.9424 1.83978 10.8301 1.80178L5.56349 0.0127009C5.53724 0.00395083 5.5099 -0.000119539 5.48243 5.46193e-06ZM5.50001 1.24953L8.75004 8.2496L7.64065 8.2496L6.94534 6.75154L4.05468 6.75154L3.35936 8.2496L2.24997 8.2496L5.50001 1.24953ZM5.50001 3.62455L4.52002 5.74958L6.48 5.74958L5.50001 3.62455Z" id="Shape" fill="#000000" stroke="none" />
    </g>
  </g>
</svg>