<?xml version="1.0" encoding="utf-8"?>
<svg width="15px" height="15px" viewBox="0 0 15 15" version="1.1" xmlns:xlink="http://www.w3.org/1999/xlink" xmlns="http://www.w3.org/2000/svg">
  <defs>
    <rect width="15" height="15" id="artboard_1" />
    <clipPath id="clip_1">
      <use xlink:href="#artboard_1" clip-rule="evenodd" />
    </clipPath>
  </defs>
  <g id="icon--app-store" clip-path="url(#clip_1)">
    <path d="M11.5 2C12.3284 2 13 2.67157 13 3.5L13 11.5C13 12.3284 12.3284 13 11.5 13L3.5 13C2.67157 13 2 12.3284 2 11.5L2 3.5C2 2.67157 2.67157 2 3.5 2L11.5 2ZM11.5 3L3.5 3C3.25454 3 3.05039 3.17688 3.00806 3.41012L3 3.5L3 11.5C3 11.7455 3.17688 11.9496 3.41012 11.9919L3.5 12L11.5 12C11.7455 12 11.9496 11.8231 11.9919 11.5899L12 11.5L12 3.5C12 3.25454 11.8231 3.05039 11.5899 3.00806L11.5 3ZM4.73491 9.89767C4.96874 9.90452 5.16963 9.99617 5.3205 10.1369L5.39168 10.2112L5.1047 10.7008C5.00523 10.8701 4.82696 10.9649 4.64376 10.9649C4.5523 10.9649 4.45981 10.9413 4.37501 10.8914C4.14912 10.7591 4.05642 10.4861 4.1433 10.2487L4.18439 10.1617L4.30314 9.95964C4.39469 9.93084 4.48936 9.911 4.58632 9.90224L4.73491 9.89767ZM8.38277 6.14767L9.64215 8.29662L10.9666 8.29662C11.261 8.29662 11.5 8.53556 11.5 8.82996C11.5 9.09492 11.3064 9.31495 11.0531 9.35631L10.9666 9.36329L10.2671 9.36329L10.7328 10.1581C10.8818 10.4122 10.7968 10.739 10.5427 10.8878C10.4579 10.9374 10.3649 10.9607 10.2734 10.9607C10.1207 10.9607 9.97166 10.8954 9.86881 10.7756L9.81298 10.6971L8.13381 7.83152C7.93612 7.46435 7.92036 7.02819 8.0901 6.65187L8.16246 6.51381L8.38277 6.14767ZM7.64062 4.26381C7.78943 4.00968 8.11591 3.92439 8.37031 4.07319C8.59621 4.20545 8.6887 4.47833 8.60196 4.71582L8.56094 4.80287L6.51406 8.29662L7.62813 8.29662C7.75313 8.37982 7.8649 8.48322 7.95651 8.60554L8.04115 8.73412C8.13585 8.89816 8.17115 9.07219 8.16005 9.23941L8.14323 9.36329L4.03333 9.36329C3.73893 9.36329 3.5 9.12436 3.5 8.82996C3.5 8.565 3.69354 8.34496 3.94686 8.30361L4.03333 8.29662L5.2776 8.29662L6.84167 5.62735L6.35885 4.80339C6.20979 4.54926 6.29483 4.22225 6.54896 4.07319C6.64426 4.01739 6.75009 3.99475 6.8526 4.00131C6.99498 4.01042 7.13159 4.07634 7.22708 4.18998L7.27917 4.26381L7.4599 4.57214L7.64062 4.26381Z" id="Shape" fill="#000000" fill-rule="evenodd" stroke="none" artboard="3061573b-e09c-4780-8db1-558be856019a" />
  </g>
</svg>