<?xml version="1.0" encoding="utf-8"?>
<svg width="15px" height="15px" viewBox="0 0 15 15" version="1.1" xmlns:xlink="http://www.w3.org/1999/xlink" xmlns="http://www.w3.org/2000/svg">
  <defs>
    <rect width="15" height="15" id="artboard_1" />
    <clipPath id="clip_1">
      <use xlink:href="#artboard_1" clip-rule="evenodd" />
    </clipPath>
  </defs>
  <g id="icon--apple-pay" clip-path="url(#clip_1)">
    <path d="M5 10L5.824 10L5.824 7.872L6.528 7.888C6.904 7.888 7.44 7.792 7.736 7.464C8.048 7.144 8.136 6.616 8.136 6.224C8.136 5.832 8.04 5.312 7.736 4.976C7.432 4.648 6.928 4.568 6.552 4.568C6.36 4.568 6.032 4.584 5.68 4.608C5.456 4.624 5.28 4.648 5 4.68L5 10L5 10ZM2.99558 5C2.74508 5.012 2.43577 5.1714 2.25907 5.3955C2.09707 5.58869 1.95855 5.90245 1.99365 6.19704C2.27654 6.22164 2.55932 6.04952 2.73601 5.83143C2.91001 5.60733 3.02498 5.30689 2.99558 5L2.99558 5ZM5.82397 5.32C6.04797 5.304 6.34397 5.288 6.55197 5.288C6.67998 5.288 6.95997 5.312 7.11197 5.504C7.27197 5.696 7.30397 6.04 7.30397 6.24C7.30397 6.44 7.27197 6.776 7.11197 6.968C6.97597 7.136 6.75197 7.176 6.55197 7.176C6.33597 7.176 6.04797 7.168 5.82397 7.16L5.82397 5.32L5.82397 5.32ZM10.988 7.488C10.988 7.46221 10.9884 7.43475 10.9887 7.40589C10.9921 7.11257 10.9972 6.67534 10.684 6.384C10.396 6.128 9.98004 6.072 9.63604 6.072C9.14804 6.072 8.78004 6.24 8.54004 6.36L8.70804 7.064C8.85204 6.904 9.26004 6.792 9.63604 6.792C9.82004 6.792 9.99604 6.816 10.116 6.92C10.2055 7.00197 10.2046 7.27831 10.2041 7.45804L10.204 7.496L10.204 7.552C10.06 7.52 9.88404 7.496 9.70004 7.496C9.34004 7.496 8.97204 7.6 8.70804 7.84C8.41204 8.104 8.31604 8.472 8.31604 8.784C8.31604 9.088 8.37204 9.496 8.67604 9.76C8.94004 10.016 9.35604 10.072 9.70004 10.072C10.164 10.072 10.628 9.92 10.988 9.76L10.988 7.488L10.988 7.488ZM12.872 8.76L13.512 6.16L14.4 6.16L13.128 10.472C13.088 10.64 12.976 10.872 12.856 11.016C12.744 11.128 12.6 11.24 12.384 11.36L11.928 11.568L11.648 11.016L11.992 10.792L11.984 10.792C12.072 10.736 12.16 10.648 12.232 10.56C12.344 10.424 12.432 10.024 12.464 9.912L11.328 6.16L12.208 6.16L12.872 8.76L12.872 8.76ZM2.96277 6.34938C2.55028 6.34938 2.25538 6.57438 2.06279 6.57438C1.86719 6.57438 1.5753 6.35231 1.23781 6.35231C0.825316 6.35231 0.421333 6.61123 0.208337 6.98862C-0.229353 7.74311 0.0947149 8.86003 0.517706 9.47412C0.725001 9.77831 0.975313 10.0993 1.3128 10.0993C1.6221 10.0876 1.7268 9.9118 2.10029 9.9118C2.47648 9.9118 2.58778 10.0993 2.92527 10.0993C3.26276 10.0993 3.46709 9.79003 3.67408 9.48583C3.91048 9.14084 4.00705 8.80453 4.01274 8.78683C4.00705 8.78113 3.35958 8.53251 3.35358 7.78372C3.3482 7.19278 3.80811 6.89378 3.87904 6.84767C3.88322 6.84495 3.88605 6.84311 3.88736 6.84214C3.59546 6.40955 3.11277 6.34938 3.00027 6.34938L2.96277 6.34938L2.96277 6.34938ZM10.204 9.304C10.028 9.36 9.81202 9.384 9.70002 9.384C9.52402 9.384 9.38802 9.36 9.25202 9.24C9.15602 9.152 9.14001 8.968 9.14001 8.8C9.14001 8.632 9.16401 8.464 9.27602 8.368C9.41201 8.248 9.53201 8.208 9.70002 8.208C9.86001 8.208 10.052 8.232 10.204 8.288L10.204 9.304L10.204 9.304Z" id="Vector" fill="#000000" fill-rule="evenodd" stroke="none" artboard="24533658-9e6e-46ab-aba1-0b40f9574112" />
  </g>
</svg>