<?xml version="1.0" encoding="utf-8"?>
<svg width="15px" height="15px" viewBox="0 0 15 15" version="1.1" xmlns:xlink="http://www.w3.org/1999/xlink" xmlns="http://www.w3.org/2000/svg">
  <defs>
    <rect width="15" height="15" id="artboard_1" />
    <clipPath id="clip_1">
      <use xlink:href="#artboard_1" clip-rule="evenodd" />
    </clipPath>
  </defs>
  <g id="icon--apple" clip-path="url(#clip_1)">
    <path d="M8.20228 1.23583C8.68739 0.620586 9.53661 0.182945 10.2243 0.15C10.3051 0.992567 9.98941 1.81741 9.51171 2.43266C9.0266 3.03144 8.25024 3.50399 7.47356 3.43645C7.3772 2.62765 7.75752 1.76625 8.20228 1.23583ZM7.66333 4.47242C8.1921 4.47242 9.00172 3.8547 10.1342 3.8547L10.2372 3.8547C10.546 3.8547 11.8713 4.0199 12.6726 5.20757C12.6691 5.21023 12.6613 5.21528 12.6498 5.22274C12.4551 5.34934 11.1924 6.17022 11.2072 7.79265C11.2236 9.84842 13.0012 10.531 13.0169 10.5466C13.0012 10.5952 12.7361 11.5186 12.0871 12.4658C11.5188 13.3009 10.9578 14.15 10.0313 14.15C9.10468 14.15 8.79911 13.6352 7.76629 13.6352C6.74087 13.6352 6.45343 14.1179 5.60427 14.15C4.6777 14.15 3.99047 13.2687 3.42135 12.4336C2.26004 10.7476 1.37032 7.68114 2.57199 5.60973C3.15676 4.57361 4.26588 3.86274 5.39837 3.86274C6.32494 3.86274 7.12633 4.47242 7.66333 4.47242Z" id="Combined-Shape" fill="#000000" fill-rule="evenodd" stroke="none" artboard="135a4bc5-6e9b-4832-a11a-e89e8bf16e82" />
  </g>
</svg>