<?xml version="1.0" encoding="utf-8"?>
<svg width="15px" height="15px" viewBox="0 0 15 15" version="1.1" xmlns:xlink="http://www.w3.org/1999/xlink" xmlns="http://www.w3.org/2000/svg">
  <defs>
    <rect width="15" height="15" id="artboard_1" />
    <clipPath id="clip_1">
      <use xlink:href="#artboard_1" clip-rule="evenodd" />
    </clipPath>
  </defs>
  <g id="icon--bitcoin" clip-path="url(#clip_1)">
    <path d="M14.1 7.5C14.1 3.85492 11.1451 0.900002 7.50002 0.900002C3.85494 0.900002 0.900024 3.85492 0.900024 7.5C0.900024 11.1451 3.85494 14.1 7.50002 14.1C11.1451 14.1 14.1 11.1451 14.1 7.5L14.1 7.5ZM1.90002 7.5C1.90002 4.40721 4.40723 1.9 7.50002 1.9C10.5928 1.9 13.1 4.40721 13.1 7.5C13.1 10.5928 10.5928 13.1 7.50002 13.1C4.40723 13.1 1.90002 10.5928 1.90002 7.5L1.90002 7.5ZM7.84867 3.63684L7.84998 3L6.76998 3L6.76869 3.65825L6.27232 3.69371L5.59998 3.75344L5.59998 11.216L5.86673 11.2431C6.14498 11.2699 6.45472 11.2951 6.7692 11.3144L6.76998 12L7.84998 12L7.84798 11.35L7.98539 11.3474C8.49007 11.3271 9.1102 11.2059 9.49399 10.812C9.94287 10.3632 10.1 9.70107 10.1 9.16242C10.1 8.63499 9.96531 7.93923 9.51643 7.50157C9.40421 7.37813 9.24711 7.28835 9.06756 7.19858C9.10122 7.17613 9.13489 7.15369 9.16855 7.12002C9.57254 6.70481 9.70721 6.07638 9.70721 5.60506C9.70721 5.13374 9.56132 4.51653 9.15733 4.11254C8.82373 3.77894 8.29582 3.66392 7.84867 3.63684L7.84867 3.63684ZM7.08555 4.64292L7.63117 4.63998C7.84439 4.63998 8.13616 4.66242 8.31571 4.87564C8.49526 5.05519 8.5177 5.40307 8.5177 5.71728C8.5177 6.02028 8.43915 6.36816 8.22593 6.57015C8.0015 6.77215 7.72095 6.80581 7.48529 6.80581L6.75586 6.80581L6.75586 4.6512L7.08555 4.64292L7.08555 4.64292ZM6.75586 7.7709L7.55262 7.7709L7.78983 7.77798C8.08476 7.79694 8.42419 7.86192 8.60748 8.06267C8.84314 8.30955 8.92169 8.72476 8.92169 9.06142C8.92169 9.43174 8.88803 9.79085 8.67481 10.049C8.43915 10.3183 8.06883 10.3407 7.82194 10.3407L7.74116 10.3402L6.75586 10.3183L6.75586 7.7709L6.75586 7.7709Z" id="Vector" fill="#000000" fill-rule="evenodd" stroke="none" artboard="b528b52b-dd5c-4063-a934-a4d3c9b4e2c0" />
  </g>
</svg>