<?xml version="1.0" encoding="utf-8"?>
<svg width="15px" height="15px" viewBox="0 0 15 15" version="1.1" xmlns:xlink="http://www.w3.org/1999/xlink" xmlns="http://www.w3.org/2000/svg">
  <defs>
    <rect width="15" height="15" id="artboard_1" />
    <clipPath id="clip_1">
      <use xlink:href="#artboard_1" clip-rule="evenodd" />
    </clipPath>
  </defs>
  <g id="icon--creative-commons-sa" clip-path="url(#clip_1)">
    <path d="M7.50002 0.900002C11.1451 0.900002 14.1 3.85492 14.1 7.5C14.1 11.1451 11.1451 14.1 7.50002 14.1C3.85494 14.1 0.900024 11.1451 0.900024 7.5C0.900024 3.85492 3.85494 0.900002 7.50002 0.900002ZM7.50002 1.9C4.40723 1.9 1.90002 4.40721 1.90002 7.5C1.90002 10.5928 4.40723 13.1 7.50002 13.1C10.5928 13.1 13.1 10.5928 13.1 7.5C13.1 4.40721 10.5928 1.9 7.50002 1.9ZM7.49998 4.3C9.26729 4.3 10.7 5.73269 10.7 7.5C10.7 9.26731 9.26729 10.7 7.49998 10.7C6.64037 10.7 5.83375 10.359 5.23781 9.76331C5.08156 9.60714 5.0815 9.35388 5.23767 9.19763C5.39384 9.04138 5.6471 9.04132 5.80335 9.19749C6.25076 9.64467 6.85465 9.9 7.49998 9.9C8.82546 9.9 9.89998 8.82549 9.89998 7.5C9.89998 6.17452 8.82546 5.1 7.49998 5.1C6.30138 5.1 5.308 5.97864 5.1288 7.12697L5.40426 6.88694C5.53215 6.77441 5.72543 6.7805 5.84597 6.90087C5.95574 7.01048 5.95586 7.18832 5.84625 7.29809L4.87221 8.13762C4.77578 8.23405 4.60288 8.24611 4.48733 8.17378L4.44171 8.13762L3.56859 7.26399C3.45042 7.14575 3.45045 6.9541 3.56866 6.83589C3.66889 6.73565 3.82362 6.72313 3.93748 6.7983L3.98989 6.84249L4.31488 7.18918C4.47117 5.56772 5.83753 4.3 7.49998 4.3Z" id="Shape" fill="#000000" fill-rule="evenodd" stroke="none" artboard="daa2ad64-e225-488f-ba03-38560e84d638" />
  </g>
</svg>