<?xml version="1.0" encoding="utf-8"?>
<svg width="15px" height="15px" viewBox="0 0 15 15" version="1.1" xmlns:xlink="http://www.w3.org/1999/xlink" xmlns="http://www.w3.org/2000/svg">
  <defs>
    <rect width="15" height="15" id="artboard_1" />
    <clipPath id="clip_1">
      <use xlink:href="#artboard_1" clip-rule="evenodd" />
    </clipPath>
  </defs>
  <g id="icon--creative-commons-nc" clip-path="url(#clip_1)">
    <path d="M1.23395 3.94646L13.9689 11.0075C14.2104 11.1414 14.2977 11.4457 14.1638 11.6872C14.0299 11.9287 13.7256 12.016 13.4841 11.8821L12.7636 11.4824C11.5585 13.0727 9.64917 14.1 7.49995 14.1C3.85487 14.1 0.899946 11.1451 0.899946 7.5C0.899946 6.67026 1.05306 5.87628 1.33258 5.14477L0.749142 4.82108C0.507622 4.68721 0.42036 4.38289 0.554237 4.14137C0.688113 3.89985 0.992432 3.81259 1.23395 3.94646ZM1.8999 7.5C1.8999 10.5928 4.40711 13.1 7.4999 13.1C9.27222 13.1 10.8522 12.2767 11.8784 10.9916L9.37036 9.60174C9.23046 10.28 8.78093 10.8521 8.08751 11.0771L7.92647 11.122L7.99579 12L7.04843 12L7.11775 11.1682C6.68202 11.1484 6.34816 11.0776 6.04339 10.9632L5.69868 10.8212L5.1999 10.5905L5.35009 9.55071L5.66577 9.72573C5.92446 9.86618 6.16378 9.98643 6.32057 10.0359C6.63251 10.163 6.85202 10.2324 7.24483 10.2324C8.11133 10.2324 8.31929 9.77022 8.31929 9.11168L8.31741 9.018L2.21783 5.63538C2.01193 6.21866 1.8999 6.84625 1.8999 7.5ZM7.49999 0.900002C11.1451 0.900002 14.1 3.85492 14.1 7.5C14.1 8.28576 13.9627 9.03946 13.7107 9.73839L12.8225 9.24572C13.0026 8.69637 13.1 8.10956 13.1 7.5C13.1 4.40721 10.5928 1.9 7.49999 1.9C5.77208 1.9 4.22695 2.68259 3.19971 3.91265L2.31189 3.4199C3.5204 1.88533 5.39513 0.900002 7.49999 0.900002ZM7.99584 3L7.91497 3.82028C8.19225 3.84628 8.47602 3.89827 8.7663 3.9665L9.05874 4.03979L8.93166 4.97561C8.49263 4.82542 7.97273 4.73299 7.47594 4.73299C6.97915 4.73299 6.64411 5.1027 6.64411 5.65725C6.64411 5.71706 6.64524 5.7726 6.64917 5.8249L5.58618 5.23564C5.74072 4.57833 6.23734 4.03658 6.96956 3.85531L7.1409 3.82028L7.04847 3L7.99584 3Z" id="Shape" fill="#000000" fill-rule="evenodd" stroke="none" artboard="a388c2be-045d-4ea3-98a3-716ed5aa34b6" />
  </g>
</svg>