<?xml version="1.0" encoding="utf-8"?>
<svg width="15px" height="15px" viewBox="0 0 15 15" version="1.1" xmlns:xlink="http://www.w3.org/1999/xlink" xmlns="http://www.w3.org/2000/svg">
  <defs>
    <rect width="15" height="15" id="artboard_1" />
    <clipPath id="clip_1">
      <use xlink:href="#artboard_1" clip-rule="evenodd" />
    </clipPath>
  </defs>
  <g id="icon--creative-commons" clip-path="url(#clip_1)">
    <path d="M7.50002 0.900002C11.1451 0.900002 14.1 3.85492 14.1 7.5C14.1 11.1451 11.1451 14.1 7.50002 14.1C3.85494 14.1 0.900024 11.1451 0.900024 7.5C0.900024 3.85492 3.85494 0.900002 7.50002 0.900002ZM7.50002 1.9C4.40723 1.9 1.90002 4.40721 1.90002 7.5C1.90002 10.5928 4.40723 13.1 7.50002 13.1C10.5928 13.1 13.1 10.5928 13.1 7.5C13.1 4.40721 10.5928 1.9 7.50002 1.9ZM5.79283 4.9C6.15536 4.9 6.64183 4.98217 6.98049 5.27069L7.10002 5.3888L6.72355 6.1584C6.32617 5.8776 6.0229 5.836 5.79283 5.836C5.56277 5.836 5.36408 5.8776 5.19676 6.1792C5.01898 6.4912 4.98761 7.032 4.98761 7.5C4.98761 7.968 5.01898 8.5088 5.19676 8.8208C5.36408 9.1224 5.56277 9.164 5.79283 9.164C5.99414 9.164 6.2515 9.13215 6.57891 8.93608L6.72355 8.8416L7.10002 9.6112C6.76538 10.0064 6.20068 10.1 5.79283 10.1C5.34316 10.1 4.70525 9.9752 4.3497 9.4448C3.98368 8.9352 3.90002 8.1344 3.90002 7.5C3.90002 6.8656 3.98368 6.0648 4.3497 5.5552C4.70525 5.0352 5.34316 4.9 5.79283 4.9ZM9.79284 4.9C10.1554 4.9 10.6418 4.98217 10.9805 5.27069L11.1 5.3888L10.7236 6.1584C10.3262 5.8776 10.0229 5.836 9.79284 5.836C9.56277 5.836 9.36408 5.8776 9.19676 6.1792C9.01898 6.4912 8.98761 7.032 8.98761 7.5C8.98761 7.968 9.01898 8.5088 9.19676 8.8208C9.36408 9.1224 9.56277 9.164 9.79284 9.164C9.99414 9.164 10.2515 9.13215 10.5789 8.93608L10.7236 8.8416L11.1 9.6112C10.7654 10.0064 10.2007 10.1 9.79284 10.1C9.34316 10.1 8.70525 9.9752 8.3497 9.4448C7.98368 8.9352 7.90002 8.1344 7.90002 7.5C7.90002 6.8656 7.98368 6.0648 8.3497 5.5552C8.70525 5.0352 9.34316 4.9 9.79284 4.9Z" id="Shape" fill="#000000" fill-rule="evenodd" stroke="none" artboard="82f88767-26d4-48af-9730-43d9a99e3e52" />
  </g>
</svg>