<?xml version="1.0" encoding="utf-8"?>
<svg width="15px" height="15px" viewBox="0 0 15 15" version="1.1" xmlns:xlink="http://www.w3.org/1999/xlink" xmlns="http://www.w3.org/2000/svg">
  <defs>
    <rect width="15" height="15" id="artboard_1" />
    <clipPath id="clip_1">
      <use xlink:href="#artboard_1" clip-rule="evenodd" />
    </clipPath>
  </defs>
  <g id="icon--creative-commons-pd" clip-path="url(#clip_1)">
    <path d="M7.50002 0.900002C11.1451 0.900002 14.1 3.85492 14.1 7.5C14.1 11.1451 11.1451 14.1 7.50002 14.1C3.85494 14.1 0.900024 11.1451 0.900024 7.5C0.900024 3.85492 3.85494 0.900002 7.50002 0.900002ZM7.50002 1.9C4.40723 1.9 1.90002 4.40721 1.90002 7.5C1.90002 10.5928 4.40723 13.1 7.50002 13.1C10.5928 13.1 13.1 10.5928 13.1 7.5C13.1 4.40721 10.5928 1.9 7.50002 1.9ZM7.51864 3.4C8.12649 3.4 9.04422 3.65029 9.49713 4.46076C9.95004 5.24739 10.0454 6.48692 10.0454 7.5C10.0454 8.51308 9.95004 9.75262 9.49713 10.5392C9.04422 11.3497 8.12649 11.6 7.51864 11.6C6.91079 11.6 5.99306 11.3497 5.52824 10.5392C5.07533 9.75262 4.97998 8.51308 4.97998 7.5C4.97998 6.48692 5.07533 5.24739 5.52824 4.46076C5.99306 3.65029 6.91079 3.4 7.51864 3.4ZM8.93704 6.03401L6.48181 10.1459C6.77978 10.5869 7.20885 10.7061 7.53065 10.7061C7.90013 10.7061 8.38879 10.5512 8.67484 9.9314C8.96088 9.31163 9.02047 8.3343 9.02047 7.5C9.02047 7.14244 9.00707 6.76477 8.97522 6.39716L8.93704 6.03401ZM7.53063 4.2939C7.16115 4.2939 6.64865 4.44884 6.36261 5.06861C6.08848 5.68838 6.01697 6.6657 6.01697 7.5C6.01697 7.91 6.03222 8.36577 6.08714 8.78798L6.13615 9.0971L8.61522 4.94942C8.31726 4.425 7.87627 4.2939 7.53063 4.2939Z" id="Shape" fill="#000000" fill-rule="evenodd" stroke="none" artboard="ce54a8e4-1980-4c08-8994-6479e903d3e7" />
  </g>
</svg>