<?xml version="1.0" encoding="utf-8"?>
<svg width="15px" height="15px" viewBox="0 0 15 15" version="1.1" xmlns:xlink="http://www.w3.org/1999/xlink" xmlns="http://www.w3.org/2000/svg">
  <defs>
    <rect width="15" height="15" id="artboard_1" />
    <clipPath id="clip_1">
      <use xlink:href="#artboard_1" clip-rule="evenodd" />
    </clipPath>
  </defs>
  <g id="icon--creative-commons-by" clip-path="url(#clip_1)">
    <path d="M7.50002 0.900002C11.1451 0.900002 14.1 3.85492 14.1 7.5C14.1 11.1451 11.1451 14.1 7.50002 14.1C3.85494 14.1 0.900024 11.1451 0.900024 7.5C0.900024 3.85492 3.85494 0.900002 7.50002 0.900002ZM7.50002 1.9C4.40723 1.9 1.90002 4.40721 1.90002 7.5C1.90002 10.5928 4.40723 13.1 7.50002 13.1C10.5928 13.1 13.1 10.5928 13.1 7.5C13.1 4.40721 10.5928 1.9 7.50002 1.9ZM9.69437 5.70338L9.69859 5.7407L9.69859 5.7407L9.7 8.68004C9.7 8.85827 9.60513 9.02302 9.45099 9.11248L8.77994 9.50197L8.78099 11.4991C8.78135 11.7446 8.60461 11.9488 8.37138 11.9913L8.28125 11.9991L6.91875 11.9991C6.64271 11.9989 6.4189 11.7752 6.41849 11.4991L6.41744 9.50197L5.74847 9.11258C5.59463 9.02304 5.5 8.85846 5.5 8.68046L5.5 5.7807C5.5 5.50456 5.72386 5.2807 6 5.2807L6.07692 5.28665L6.07692 5.28665L7.57053 5.51919L9.12516 5.28385C9.39819 5.24252 9.65304 5.43035 9.69437 5.70338ZM7.59998 2.5C8.32485 2.5 8.91248 3.08763 8.91248 3.8125C8.91248 4.53737 8.32485 5.125 7.59998 5.125C6.8751 5.125 6.28748 4.53737 6.28748 3.8125C6.28748 3.08763 6.8751 2.5 7.59998 2.5Z" id="Shape" fill="#000000" fill-rule="evenodd" stroke="none" artboard="d8195e85-1452-423d-a0ea-5c554d9f78b1" />
  </g>
</svg>