<?xml version="1.0" encoding="utf-8"?>
<svg width="15px" height="15px" viewBox="0 0 15 15" version="1.1" xmlns:xlink="http://www.w3.org/1999/xlink" xmlns="http://www.w3.org/2000/svg">
  <defs>
    <rect width="15" height="15" id="artboard_1" />
    <clipPath id="clip_1">
      <use xlink:href="#artboard_1" clip-rule="evenodd" />
    </clipPath>
  </defs>
  <g id="icon--creative-commons-nd" clip-path="url(#clip_1)">
    <path d="M7.50002 0.900002C11.1451 0.900002 14.1 3.85492 14.1 7.5C14.1 11.1451 11.1451 14.1 7.50002 14.1C3.85494 14.1 0.900024 11.1451 0.900024 7.5C0.900024 3.85492 3.85494 0.900002 7.50002 0.900002ZM7.50002 1.9C4.40723 1.9 1.90002 4.40721 1.90002 7.5C1.90002 10.5928 4.40723 13.1 7.50002 13.1C10.5928 13.1 13.1 10.5928 13.1 7.5C13.1 4.40721 10.5928 1.9 7.50002 1.9ZM5 6L10 6L10 7L5 7L5 6ZM5 8L10 8L10 9L5 9L5 8Z" id="Shape" fill="#000000" fill-rule="evenodd" stroke="none" artboard="b6a67453-2181-4c8d-b476-02cf87c49fb8" />
  </g>
</svg>