<?xml version="1.0" encoding="utf-8"?>
<svg width="15px" height="15px" viewBox="0 0 15 15" version="1.1" xmlns:xlink="http://www.w3.org/1999/xlink" xmlns="http://www.w3.org/2000/svg">
  <defs>
    <rect width="15" height="15" id="artboard_1" />
    <clipPath id="clip_1">
      <use xlink:href="#artboard_1" clip-rule="evenodd" />
    </clipPath>
  </defs>
  <g id="icon--css" clip-path="url(#clip_1)">
    <g id="css" transform="translate(1 4)" artboard="64689bfa-2201-4a87-87ea-10f5dcde2e41">
      <path d="M3.42773 4.81152C2.94531 5.1543 2.57715 5.20508 2.29785 5.20508C2.01855 5.20508 1.77734 5.1543 1.57422 4.78613C1.3584 4.40527 1.32031 3.74512 1.32031 3.17383C1.32031 2.60254 1.3584 1.94238 1.57422 1.56152C1.77734 1.19336 2.01855 1.14258 2.29785 1.14258C2.57715 1.14258 2.94531 1.19336 3.42773 1.53613L3.88477 0.59668C3.47852 0.126953 2.79297 0 2.29785 0C1.75195 0 0.977539 0.165039 0.545898 0.799805C0.101562 1.42188 0 2.39941 0 3.17383C0 3.94824 0.101562 4.92578 0.545898 5.54785C0.977539 6.19531 1.75195 6.34766 2.29785 6.34766C2.79297 6.34766 3.47852 6.2334 3.88477 5.75098L3.42773 4.81152Z" id="Path" fill="#000000" stroke="none" />
      <path d="M8.22021 0.507812C7.85205 0.203125 7.20459 0 6.646 0C6.1001 0 5.50342 0.114258 5.12256 0.431641C4.71631 0.774414 4.57666 1.28223 4.57666 1.71387C4.57666 2.1582 4.75439 2.64062 5.14795 2.9707C5.56689 3.31348 6.29053 3.54199 6.68408 3.74512C6.76025 3.7832 6.8999 3.87207 6.97607 3.94824C7.10303 4.0752 7.1665 4.24023 7.1665 4.46875C7.1665 4.73535 7.11572 4.92578 6.96338 5.06543C6.81104 5.20508 6.56982 5.25586 6.30322 5.25586C6.02393 5.25586 5.73193 5.16699 5.45264 5.05273C5.30029 4.98926 5.03369 4.82422 4.80518 4.65918L4.28467 5.62402C4.34814 5.6748 4.44971 5.75098 4.56396 5.82715C5.03369 6.14453 5.69385 6.34766 6.30322 6.34766C6.83643 6.34766 7.49658 6.24609 7.90283 5.89062C8.33447 5.50977 8.46143 4.97656 8.46143 4.46875C8.46143 3.98633 8.24561 3.47852 7.85205 3.13574C7.40771 2.72949 6.40479 2.4375 6.02393 2.14551C5.90967 2.05664 5.8208 1.91699 5.8208 1.71387C5.8208 1.51074 5.92236 1.3457 6.03662 1.25684C6.17627 1.12988 6.37939 1.10449 6.646 1.10449C6.86182 1.10449 7.14111 1.14258 7.36963 1.21875C7.47119 1.25684 7.58545 1.32031 7.67432 1.38379L8.22021 0.507812Z" id="Path" fill="#000000" stroke="none" />
      <path d="M12.7588 0.507812C12.3906 0.203125 11.7432 0 11.1846 0C10.6387 0 10.042 0.114258 9.66113 0.431641C9.25488 0.774414 9.11523 1.28223 9.11523 1.71387C9.11523 2.1582 9.29297 2.64062 9.68652 2.9707C10.1055 3.31348 10.8291 3.54199 11.2227 3.74512C11.2988 3.7832 11.4385 3.87207 11.5146 3.94824C11.6416 4.0752 11.7051 4.24023 11.7051 4.46875C11.7051 4.73535 11.6543 4.92578 11.502 5.06543C11.3496 5.20508 11.1084 5.25586 10.8418 5.25586C10.5625 5.25586 10.2705 5.16699 9.99121 5.05273C9.83887 4.98926 9.57227 4.82422 9.34375 4.65918L8.82324 5.62402C8.88672 5.6748 8.98828 5.75098 9.10254 5.82715C9.57227 6.14453 10.2324 6.34766 10.8418 6.34766C11.375 6.34766 12.0352 6.24609 12.4414 5.89062C12.873 5.50977 13 4.97656 13 4.46875C13 3.98633 12.7842 3.47852 12.3906 3.13574C11.9463 2.72949 10.9434 2.4375 10.5625 2.14551C10.4482 2.05664 10.3594 1.91699 10.3594 1.71387C10.3594 1.51074 10.4609 1.3457 10.5752 1.25684C10.7148 1.12988 10.918 1.10449 11.1846 1.10449C11.4004 1.10449 11.6797 1.14258 11.9082 1.21875C12.0098 1.25684 12.124 1.32031 12.2129 1.38379L12.7588 0.507812Z" id="Path" fill="#000000" stroke="none" />
    </g>
  </g>
</svg>