<svg width="15" height="15" viewBox="0 0 15 15" fill="none" xmlns="http://www.w3.org/2000/svg">
<path fill-rule="evenodd" clip-rule="evenodd" d="M13 3.5C13 2.67157 12.3284 2 11.5 2H3.5C2.67157 2 2 2.67157 2 3.5V11.5C2 12.3284 2.67157 13 3.5 13H11.5C12.3284 13 13 12.3284 13 11.5V3.5ZM3.5 3H11.5L11.5899 3.00806C11.8231 3.05039 12 3.25454 12 3.5V11.5L11.9919 11.5899C11.9496 11.8231 11.7455 12 11.5 12H3.5L3.41012 11.9919C3.17688 11.9496 3 11.7455 3 11.5V3.5L3.00806 3.41012C3.05039 3.17688 3.25454 3 3.5 3ZM9.11214 4.62437C9.42923 4.7456 9.84067 4.93748 10.1748 5.20894C10.5226 5.53246 11.2 7.38397 11.2 8.98409C11.2 9.01272 11.193 9.04024 11.1786 9.06479C10.7109 9.89515 9.43478 10.1127 9.14396 10.122C9.14211 10.1224 9.14063 10.1224 9.13878 10.1224C9.08772 10.1224 9.03296 10.1015 9.00891 10.0554L8.7155 9.49652C8.95341 9.43702 9.19909 9.36711 9.46845 9.27563C9.66196 9.20981 9.76593 8.99859 9.70044 8.80411C9.63532 8.60962 9.42553 8.50588 9.23128 8.57095C7.85451 9.03876 7.07825 9.03913 5.77363 8.57281C5.5816 8.50439 5.36959 8.60516 5.30114 8.79853C5.23269 8.9919 5.33296 9.20461 5.52573 9.2734C5.79472 9.36934 6.04151 9.44185 6.28053 9.50284L5.99082 10.0551C5.96677 10.1012 5.91238 10.122 5.86095 10.122C5.8591 10.122 5.85762 10.122 5.85577 10.1216C5.56532 10.1123 4.28919 9.89515 3.82114 9.06479C3.80708 9.04024 3.80005 9.01272 3.80005 8.98446C3.80005 7.38397 4.47752 5.53246 4.81718 5.216C5.1561 4.94083 5.56976 4.74709 5.88796 4.62474C6.00155 4.58086 6.12957 4.59611 6.22984 4.66565C6.33011 4.73481 6.39005 4.84972 6.39005 4.97206C6.39005 5.10035 6.49365 5.20448 6.6213 5.20448H8.37843C8.50645 5.20448 8.61005 5.10036 8.61005 4.97169C8.61005 4.84935 8.66999 4.73481 8.77063 4.66565C8.87053 4.59611 8.99855 4.58086 9.11214 4.62437ZM5.84985 7.43268C5.84985 7.84284 6.09812 8.17492 6.40485 8.17492C6.71158 8.17492 6.95985 7.84284 6.95985 7.43268C6.95319 7.02251 6.71269 6.64954 6.40485 6.69044C6.09812 6.69044 5.84985 7.02289 5.84985 7.43268ZM8.05357 7.44012C8.05357 7.85102 8.30184 8.18384 8.60857 8.18384C8.9153 8.18384 9.16357 7.85102 9.16357 7.44012C9.16357 7.02921 8.9153 6.69639 8.60857 6.69639C8.30184 6.69639 8.05357 7.02921 8.05357 7.44012Z" fill="black"/>
</svg>
