<svg width="15" height="15" viewBox="0 0 15 15" fill="none" xmlns="http://www.w3.org/2000/svg">
<path d="M12.3435 3.50274C11.7385 3.01118 10.9934 2.66372 10.4192 2.4442C10.2135 2.36541 9.98173 2.39302 9.80083 2.51894C9.61859 2.64419 9.51005 2.85159 9.51005 3.07313C9.51005 3.30612 9.32245 3.49466 9.09063 3.49466H5.9088C5.67765 3.49466 5.49005 3.30612 5.49005 3.0738C5.49005 2.85226 5.38151 2.64419 5.19994 2.51894C5.01837 2.39302 4.78655 2.36541 4.58086 2.44487C4.00466 2.66641 3.2556 3.01724 2.64188 3.51554C2.02682 4.08858 0.800049 7.4413 0.800049 10.3395C0.800049 10.3907 0.812779 10.4405 0.838239 10.485C1.68579 11.9886 3.99662 12.3818 4.52257 12.3987C4.52592 12.3994 4.5286 12.3994 4.53195 12.3994C4.62508 12.3994 4.72357 12.3616 4.76712 12.2781L5.29173 11.2782C4.85891 11.1678 4.41202 11.0364 3.92493 10.8627C3.57586 10.7381 3.39429 10.353 3.51824 10.0028C3.64219 9.65266 4.0261 9.47018 4.37383 9.59408C6.73625 10.4385 8.14191 10.4378 10.635 9.59071C10.9867 9.47287 11.3666 9.66074 11.4845 10.0129C11.6031 10.3651 11.4149 10.7476 11.0644 10.8668C10.5767 11.0324 10.1318 11.159 9.701 11.2667L10.2323 12.2788C10.2759 12.3623 10.375 12.4 10.4675 12.4C10.4708 12.4 10.4735 12.4 10.4769 12.3994C11.0035 12.3825 13.3143 11.9886 14.1612 10.485C14.1873 10.4405 14.2 10.3907 14.2 10.3388C14.2 7.4413 12.9733 4.08858 12.3435 3.50274ZM5.51685 8.87357C4.96142 8.87357 4.51185 8.27224 4.51185 7.52951C4.51185 6.78746 4.96142 6.18546 5.51685 6.18546C6.07429 6.11139 6.50979 6.78678 6.52185 7.52951C6.52185 8.27224 6.07228 8.87357 5.51685 8.87357ZM9.50737 8.88973C8.95194 8.88973 8.50237 8.28706 8.50237 7.54298C8.50237 6.7989 8.95194 6.19624 9.50737 6.19624C10.0628 6.19624 10.5124 6.7989 10.5124 7.54298C10.5124 8.28706 10.0628 8.88973 9.50737 8.88973Z" fill="black"/>
</svg>
