<svg width="15" height="15" viewBox="0 0 15 15" fill="none" xmlns="http://www.w3.org/2000/svg">
<path fill-rule="evenodd" clip-rule="evenodd" d="M13 3.5C13 2.67157 12.3284 2 11.5 2H3.5C2.67157 2 2 2.67157 2 3.5V11.5C2 12.3284 2.67157 13 3.5 13H11.5C12.3284 13 13 12.3284 13 11.5V3.5ZM3.5 3H11.5L11.5899 3.00806C11.8231 3.05039 12 3.25454 12 3.5V11.5L11.9919 11.5899C11.9496 11.8231 11.7455 12 11.5 12H3.5L3.41012 11.9919C3.17688 11.9496 3 11.7455 3 11.5V3.5L3.00806 3.41012C3.05039 3.17688 3.25454 3 3.5 3ZM6.91433 6.54195C6.91433 6.51447 6.92491 3.79999 8.01746 3.79999C8.53599 3.79999 9.02862 4.26883 9.02862 6.57499C9.02862 7.39982 8.88802 8.59624 8.40094 9.58124C8.61052 9.85847 8.8238 9.94489 8.96255 9.87856C9.36003 9.68827 9.61163 9.01857 9.85081 8.2902C9.9153 8.09278 10.1368 7.98416 10.3408 8.04547C10.5467 8.10784 10.6608 8.31848 10.5964 8.5159C10.3939 9.13274 9.83099 10.6661 8.98105 10.6661C8.71042 10.6661 8.34914 10.655 8.00398 10.3167C7.61469 10.8456 7.13026 11.2 6.55755 11.2C5.34316 11.2 4.80005 10.2771 4.80005 9.36241C4.80005 8.39248 5.29717 7.24971 6.41933 7.24971C6.61041 7.24971 6.7851 7.28274 6.93548 7.33481C6.91433 7.07372 6.91433 6.86628 6.91433 6.55349V6.54195ZM8.24766 6.57446C8.24766 5.31593 8.17154 4.78102 8.04838 4.60527C7.88743 4.88039 7.69583 5.68408 7.69583 6.54142C7.69583 7.47144 7.80603 8.18475 7.96883 8.71359C8.21568 8.03358 8.24739 7.24257 8.24766 6.57446ZM7.00683 8.2429C7.00683 8.24237 6.75153 8.02856 6.4188 8.02856C5.5885 8.02856 5.59262 9.29548 5.5929 9.38015C5.5929 9.38135 5.59291 9.38231 5.59291 9.38302C5.59291 9.70994 5.66955 10.4071 6.55094 10.4071C6.88685 10.4071 7.23174 10.1376 7.52298 9.66132C7.34538 9.3307 7.1773 8.81428 7.06815 8.29284C7.04648 8.27831 7.02586 8.26192 7.00683 8.2429Z" fill="black"/>
</svg>
