<svg width="15" height="15" viewBox="0 0 15 15" fill="none" xmlns="http://www.w3.org/2000/svg">
<path d="M7.4999 0.900024C3.86055 0.900024 0.899902 3.86067 0.899902 7.50002C0.899902 11.1394 3.86055 14.1 7.4999 14.1C11.1393 14.1 14.0999 11.1394 14.0999 7.50002C14.0999 3.86067 11.1393 0.900024 7.4999 0.900024ZM7.4999 2.00002C8.89415 2.00002 10.1575 2.52417 11.1266 3.37502C11.0232 3.51912 10.8835 3.69292 10.6624 3.90797C10.1922 4.36337 9.43975 4.91117 8.2908 5.33467C7.51255 3.89697 6.75025 2.81622 6.24535 2.13752C6.64685 2.04512 7.06815 2.00002 7.4999 2.00002ZM5.1624 2.51592C5.6134 3.10662 6.41695 4.20222 7.2249 5.66082C4.9886 6.25372 2.93655 6.32907 2.12035 6.33127C2.48555 4.63177 3.62845 3.23312 5.1624 2.51592ZM11.8829 4.18297C12.5533 5.07012 12.9697 6.16792 12.9999 7.36252C12.5099 7.25307 11.7883 7.14527 10.8516 7.13922C10.3638 7.13702 9.81155 7.17112 9.21865 7.24207C9.08115 6.92857 8.93265 6.62552 8.7891 6.33127C10.0222 5.85882 10.8621 5.23567 11.4187 4.69832C11.6079 4.51352 11.7558 4.34412 11.8829 4.18297ZM7.7232 6.65797C7.85025 6.91372 7.97895 7.17552 8.1016 7.44832C5.7509 8.09952 4.0624 10.0933 3.3408 11.0921C2.5092 10.1296 1.9999 8.87502 1.9999 7.50002V7.43127C2.7435 7.44007 5.1063 7.38837 7.7232 6.65797ZM10.8516 8.22217C11.8334 8.22217 12.5121 8.35967 12.9141 8.46252C12.6584 9.92772 11.8312 11.1845 10.6624 12.0034C10.4435 10.6884 10.0822 9.43767 9.6482 8.29092C10.0822 8.24747 10.4925 8.22217 10.8516 8.22217ZM8.53115 8.47957C9.02505 9.73467 9.43975 11.1113 9.6482 12.5705C8.99095 12.8477 8.26055 13 7.4999 13C6.23875 13 5.0744 12.5765 4.1482 11.8659C4.7136 11.0921 6.37405 9.03397 8.53115 8.47957Z" fill="black"/>
</svg>
