<?xml version="1.0" encoding="utf-8"?>
<svg width="15px" height="15px" viewBox="0 0 15 15" version="1.1" xmlns:xlink="http://www.w3.org/1999/xlink" xmlns="http://www.w3.org/2000/svg">
  <defs>
    <path d="M0 0L13 0L13 14.1192L0 14.1192L0 0Z" id="path_1" />
    <rect width="15" height="15" id="artboard_1" />
    <clipPath id="clip_1">
      <use xlink:href="#artboard_1" clip-rule="evenodd" />
    </clipPath>
    <clipPath id="mask_1">
      <use xlink:href="#path_1" />
    </clipPath>
  </defs>
  <g id="icon--erni" clip-path="url(#clip_1)">
    <use xlink:href="#artboard_1" stroke="none" fill="#FFFFFF" />
    <g id="Clipboard" transform="translate(1 0.44000244)" artboard="4fe0bcbd-19e0-493f-9da1-d64b12a250b1">
      <path d="M0 0L13 0L13 14.1192L0 14.1192L0 0Z" id="Background" fill="none" fill-rule="evenodd" stroke="none" />
      <g clip-path="url(#mask_1)">
        <g id="Group">
          <path d="M10.5077 11.1958C8.78298 13.1148 6.49481 14.0342 6.49481 14.0342L6.49481 13.9722L6.48421 14.0342C6.48421 14.0342 2.99496 12.6318 1.38529 9.67709C0.719878 8.45543 0.279425 7.01768 0.155541 5.65053C-0.0367071 3.53006 0.00349646 0.991017 0.00349646 0.991017C2.0903 0.337225 4.27576 0 6.48705 0C6.48705 0 6.48878 0.00826562 6.49196 0.0242819L6.49196 0C8.70325 0 10.8887 0.337225 12.9755 0.991017C12.9755 0.991017 13.0157 3.53006 12.8235 5.65053C12.7329 6.65006 12.4731 7.68747 12.0783 8.65C11.3553 9.42138 10.1494 10.2005 8.83041 10.148C7.73988 10.1041 6.77357 9.64351 6.62618 8.20748C7.04571 8.08351 7.48099 7.94575 7.9069 7.79165C9.35498 7.26563 10.1695 6.87821 11.105 5.98285C11.5919 5.51622 12.1104 4.60191 12.1104 3.58602C12.1104 2.96013 11.9503 2.31916 11.5015 1.85685C11.1993 1.54545 10.6515 1.20633 9.87919 1.20633C9.0595 1.20633 8.42836 1.41958 7.6723 1.77377C5.98548 2.5641 4.73851 4.12152 4.01542 5.79C3.6701 6.58722 3.53278 7.47053 3.54888 8.45456C3.56911 9.68827 4.00104 10.5854 4.55203 11.1114C5.22192 11.7511 5.9977 11.9121 7.20885 11.9121C8.50352 11.9121 9.6303 11.5815 10.5077 11.1958L10.5077 11.1958ZM2.44513 8.31337C2.77839 8.31337 3.04906 8.5837 3.04906 8.91688C3.04906 9.25092 2.77839 9.52125 2.44513 9.52125C2.11178 9.52125 1.84119 9.25092 1.84119 8.91688C1.84119 8.5837 2.11178 8.31337 2.44513 8.31337L2.44513 8.31337ZM9.21512 2.93086C8.42703 2.95668 7.78848 3.63595 7.37359 4.20847C7.06849 4.62947 6.87228 5.07198 6.7508 5.728C6.64276 6.31171 6.60531 6.95397 6.60686 7.51271C7.53967 7.23291 8.30469 6.89111 8.86662 6.51232C9.4839 6.09562 9.77696 5.76761 10.0149 5.35522C10.2529 4.94198 10.3367 4.48483 10.3367 4.1198C10.3367 3.74099 10.2513 3.48271 10.0798 3.27264C9.90825 3.06344 9.56207 2.91966 9.21512 2.93086L9.21512 2.93086Z" id="Shape" fill="#000000" fill-rule="evenodd" stroke="none" />
        </g>
      </g>
    </g>
  </g>
</svg>