<?xml version="1.0" encoding="utf-8"?>
<svg width="15px" height="15px" viewBox="0 0 15 15" version="1.1" xmlns:xlink="http://www.w3.org/1999/xlink" xmlns="http://www.w3.org/2000/svg">
  <defs>
    <rect width="15" height="15" id="artboard_1" />
    <clipPath id="clip_1">
      <use xlink:href="#artboard_1" clip-rule="evenodd" />
    </clipPath>
  </defs>
  <g id="icon--facebook" clip-path="url(#clip_1)">
    <path d="M3.5 13C2.67157 13 2 12.3284 2 11.5L2 3.5C2 2.67157 2.67157 2 3.5 2L11.5 2C12.3284 2 13 2.67157 13 3.5L13 11.5C13 12.3284 12.3284 13 11.5 13L3.5 13ZM11.5 3L3.5 3C3.25454 3 3.05039 3.17688 3.00806 3.41012L3 3.5L3 11.5C3 11.7455 3.17688 11.9496 3.41012 11.9919L3.5 12L6 12L6 9.2L5.5 9.2C5.22386 9.2 5 8.97614 5 8.7L5 8.30569C5 8.02955 5.22386 7.80569 5.5 7.80569L6 7.80569L6 6.49211C5.99999 5.16662 7.03153 4.08206 8.33562 3.99742L8.54799 3.99256L8.78949 4L8.78949 4C9.04724 4.01289 9.40805 4.08122 9.87192 4.20499C10.1177 4.27053 10.2751 4.51018 10.2376 4.76178L10.1111 5.61074C10.0729 5.86734 9.84473 6.05207 9.58579 6.03611L9 6L8.5 6C8.22386 6 8 6.22386 8 6.5L8 7.80569L8.5 7.80569C8.77614 7.80569 9 8.02955 9 8.30569L9 8.7C9 8.97614 8.77614 9.2 8.5 9.2L8 9.2L8 12L11.5 12C11.7455 12 11.9496 11.8231 11.9919 11.5899L12 11.5L12 3.5C12 3.25454 11.8231 3.05039 11.5899 3.00806L11.5 3Z" id="Shape" fill="#000000" fill-rule="evenodd" stroke="none" artboard="327e57d7-3f40-4dfe-9ae6-89a1ab1288dc" />
  </g>
</svg>