<?xml version="1.0" encoding="utf-8"?>
<svg width="15px" height="15px" viewBox="0 0 15 15" version="1.1" xmlns:xlink="http://www.w3.org/1999/xlink" xmlns="http://www.w3.org/2000/svg">
  <defs>
    <rect width="15" height="15" id="artboard_1" />
    <clipPath id="clip_1">
      <use xlink:href="#artboard_1" clip-rule="evenodd" />
    </clipPath>
  </defs>
  <g id="icon--github" clip-path="url(#clip_1)">
    <g id="icons8-github" transform="translate(0.9000244 0.8999996)" artboard="7d920fb7-42c4-4e34-9bd5-8edd4c3b3c06">
      <path d="M5.85913 0.0457748C2.81696 0.376445 0.370007 2.8234 0.0393376 5.79943C-0.291332 8.90773 1.49429 11.6854 4.20578 12.7435C4.40418 12.8096 4.60258 12.6774 4.60258 12.4128L4.60258 11.3547C4.60258 11.3547 4.33805 11.4208 4.00738 11.4208C3.0815 11.4208 2.6847 10.6272 2.61856 10.1643C2.55243 9.89974 2.42016 9.70134 2.22176 9.50293C2.02336 9.4368 1.95722 9.4368 1.95722 9.37067C1.95722 9.2384 2.15562 9.2384 2.22176 9.2384C2.61856 9.2384 2.94923 9.70134 3.0815 9.89974C3.41217 10.4288 3.80897 10.5611 4.00738 10.5611C4.27191 10.5611 4.47031 10.4949 4.60258 10.4288C4.66872 9.96587 4.86712 9.50293 5.26392 9.2384C3.74284 8.90773 2.61856 8.04799 2.61856 6.59304C2.61856 5.86557 2.94923 5.13809 3.41217 4.60902C3.34604 4.47675 3.2799 4.14608 3.2799 3.68314C3.2799 3.41861 3.2799 3.0218 3.4783 2.625C3.4783 2.625 4.40418 2.625 5.33006 3.48474C5.66073 3.35247 6.12366 3.28634 6.5866 3.28634C7.04954 3.28634 7.51248 3.35247 7.90928 3.48474C8.76902 2.625 9.76103 2.625 9.76103 2.625C9.8933 3.0218 9.8933 3.41861 9.8933 3.68314C9.8933 4.21222 9.82717 4.47675 9.76103 4.60902C10.224 5.13809 10.5546 5.79943 10.5546 6.59304C10.5546 8.04799 9.43036 8.90773 7.90928 9.2384C8.30609 9.56907 8.57062 10.1643 8.57062 10.7595L8.57062 12.479C8.57062 12.6774 8.76902 12.8758 9.03356 12.8096C11.4805 11.8176 13.2 9.4368 13.2 6.65917C13.2 2.69113 9.82717 -0.417163 5.85913 0.0457748Z" id="Path" fill="#000000" stroke="none" />
    </g>
  </g>
</svg>