<?xml version="1.0" encoding="utf-8"?>
<svg width="15px" height="15px" viewBox="0 0 15 15" version="1.1" xmlns:xlink="http://www.w3.org/1999/xlink" xmlns="http://www.w3.org/2000/svg">
  <defs>
    <rect width="15" height="15" id="artboard_1" />
    <clipPath id="clip_1">
      <use xlink:href="#artboard_1" clip-rule="evenodd" />
    </clipPath>
  </defs>
  <g id="icon--google-play" clip-path="url(#clip_1)">
    <path d="M11.5 2C12.3284 2 13 2.67157 13 3.5L13 11.5C13 12.3284 12.3284 13 11.5 13L3.5 13C2.67157 13 2 12.3284 2 11.5L2 3.5C2 2.67157 2.67157 2 3.5 2L11.5 2ZM11.5 3L3.5 3C3.25454 3 3.05039 3.17688 3.00806 3.41012L3 3.5L3 11.5C3 11.7455 3.17688 11.9496 3.41012 11.9919L3.5 12L11.5 12C11.7455 12 11.9496 11.8231 11.9919 11.5899L12 11.5L12 3.5C12 3.25454 11.8231 3.05039 11.5899 3.00806L11.5 3ZM8.23052 7.95057L9.15233 8.93887L5.74992 10.9022C5.64645 10.9619 5.53053 10.9804 5.42111 10.9629L8.23052 7.95057ZM5.03257 4.52214L7.88849 7.58404L5.03253 10.6465C5.0111 10.59 5 10.5299 5 10.4691L5 4.70004C5 4.63738 5.01153 4.57741 5.03257 4.52214ZM9.59586 6.48568L10.7498 7.15143C10.989 7.28944 11.071 7.59523 10.933 7.83444C10.8891 7.91057 10.8259 7.97377 10.7498 8.01769L9.59636 8.68235L8.57205 7.58404L9.59586 6.48568ZM5.50004 4.2C5.58776 4.2 5.67394 4.22308 5.74992 4.26691L9.15133 6.22916L8.23002 7.21752L5.42204 4.20605C5.44745 4.20207 5.47351 4.2 5.50004 4.2Z" id="Shape" fill="#000000" fill-rule="evenodd" stroke="none" artboard="929cb528-e3da-473e-8634-27f3e2efc3a5" />
  </g>
</svg>