<?xml version="1.0" encoding="utf-8"?>
<svg width="15px" height="15px" viewBox="0 0 15 15" version="1.1" xmlns:xlink="http://www.w3.org/1999/xlink" xmlns="http://www.w3.org/2000/svg">
  <defs>
    <rect width="15" height="15" id="artboard_1" />
    <clipPath id="clip_1">
      <use xlink:href="#artboard_1" clip-rule="evenodd" />
    </clipPath>
  </defs>
  <g id="icon--google" clip-path="url(#clip_1)">
    <path d="M7.63453 2C9.04007 2 10.2398 2.37572 11.1531 3.05453C11.5374 3.34011 11.6174 3.88311 11.3318 4.26735C11.0462 4.6516 10.5032 4.73158 10.1189 4.446C9.51285 3.99553 8.6768 3.7337 7.63453 3.7337C5.48016 3.7337 3.7337 5.48016 3.7337 7.63453C3.7337 9.7889 5.48016 11.5354 7.63453 11.5354C9.32919 11.5354 10.7007 10.3253 11.1304 8.61904L11.1427 8.56206L8.6222 8.56266C8.17765 8.56266 7.81126 8.22802 7.76118 7.79691L7.75535 7.69581C7.75535 7.25126 8.08999 6.88487 8.52111 6.83479L8.6222 6.82896L12.1331 6.82896C12.6253 6.82896 13.0188 7.23827 12.9993 7.73007C12.8775 10.8102 10.6122 13.2691 7.63453 13.2691C4.52267 13.2691 2 10.7464 2 7.63453C2 4.52267 4.52267 2 7.63453 2Z" id="Path" fill="#000000" stroke="none" artboard="8f92e5d7-efe1-4444-bc07-5a0822a5989e" />
  </g>
</svg>