<?xml version="1.0" encoding="utf-8"?>
<svg width="15px" height="15px" viewBox="0 0 15 15" version="1.1" xmlns:xlink="http://www.w3.org/1999/xlink" xmlns="http://www.w3.org/2000/svg">
  <defs>
    <rect width="15" height="15" id="artboard_1" />
    <clipPath id="clip_1">
      <use xlink:href="#artboard_1" clip-rule="evenodd" />
    </clipPath>
  </defs>
  <g id="icon--instagramm" clip-path="url(#clip_1)">
    <path d="M11.5 2C12.3284 2 13 2.67157 13 3.5L13 11.5C13 12.3284 12.3284 13 11.5 13L3.5 13C2.67157 13 2 12.3284 2 11.5L2 3.5C2 2.67157 2.67157 2 3.5 2L11.5 2ZM11.5 3L3.5 3C3.25454 3 3.05039 3.17688 3.00806 3.41012L3 3.5L3 11.5C3 11.7455 3.17688 11.9496 3.41012 11.9919L3.5 12L11.5 12C11.7455 12 11.9496 11.8231 11.9919 11.5899L12 11.5L12 3.5C12 3.25454 11.8231 3.05039 11.5899 3.00806L11.5 3ZM7.50002 10.1C6.06408 10.1 4.90002 8.93594 4.90002 7.5C4.90002 6.06406 6.06408 4.9 7.50002 4.9C8.93596 4.9 10.1 6.06406 10.1 7.5C10.1 8.88071 9.02379 10.0101 7.66445 10.0949L7.50002 10.1ZM7.50002 5.9C6.61637 5.9 5.90002 6.61634 5.90002 7.5C5.90002 8.38366 6.61637 9.1 7.50002 9.1C8.38368 9.1 9.10002 8.38366 9.10002 7.5C9.10002 6.66544 8.46106 5.98011 7.64566 5.90654L7.50002 5.9ZM10.5 3.9C10.8314 3.9 11.1 4.16863 11.1 4.5C11.1 4.83137 10.8314 5.1 10.5 5.1C10.1687 5.1 9.90002 4.83137 9.90002 4.5C9.90002 4.16863 10.1687 3.9 10.5 3.9Z" id="Shape" fill="#000000" fill-rule="evenodd" stroke="none" artboard="c5f23aa8-d2f3-4640-a587-8de56c26b469" />
  </g>
</svg>