<?xml version="1.0" encoding="utf-8"?>
<svg width="15px" height="15px" viewBox="0 0 15 15" version="1.1" xmlns:xlink="http://www.w3.org/1999/xlink" xmlns="http://www.w3.org/2000/svg">
  <defs>
    <rect width="15" height="15" id="artboard_1" />
    <clipPath id="clip_1">
      <use xlink:href="#artboard_1" clip-rule="evenodd" />
    </clipPath>
  </defs>
  <g id="icon--linkedin" clip-path="url(#clip_1)">
    <path d="M13 3.5C13 2.67157 12.3284 2 11.5 2L3.5 2C2.67157 2 2 2.67157 2 3.5L2 11.5C2 12.3284 2.67157 13 3.5 13L11.5 13C12.3284 13 13 12.3284 13 11.5L13 3.5ZM3.5 3L11.5 3L11.5899 3.00806C11.8231 3.05039 12 3.25454 12 3.5L12 11.5L11.9919 11.5899C11.9496 11.8231 11.7455 12 11.5 12L3.5 12L3.41012 11.9919C3.17688 11.9496 3 11.7455 3 11.5L3 3.5L3.00806 3.41012C3.05039 3.17688 3.25454 3 3.5 3ZM5.53019 3.88C5.19436 3.88 4.89001 4.17385 4.89001 4.4887C4.89001 4.76156 5.08942 5.11838 5.53019 5.11838C5.97097 5.11838 6.17037 4.76156 6.17037 4.4887C6.17037 4.17385 5.86603 3.88 5.53019 3.88ZM10.5729 10.48L10.5729 7.73157C10.5729 7.00744 10.4995 6.54567 10.2161 6.18885C9.96423 5.89499 9.47097 5.73757 8.98822 5.73757C8.12765 5.73757 7.09916 6.14687 6.92075 6.18885L6.92075 10.48L7.99121 10.48L7.99121 6.86051C8.19061 6.79754 8.6104 6.69259 8.98822 6.69259C9.15613 6.69259 9.29256 6.72408 9.36603 6.82903C9.46048 6.96546 9.50246 7.25931 9.50246 7.73157L9.50246 10.48L10.5729 10.48ZM6.07592 10.48L6.07592 5.84252L5.00546 5.84252L5.00546 10.48L6.07592 10.48Z" id="Combined-Shape" fill="#000000" fill-rule="evenodd" stroke="none" artboard="75a9b336-ab91-4c00-8cb2-856ec4adde9b" />
  </g>
</svg>