<?xml version="1.0" encoding="utf-8"?>
<svg width="15px" height="15px" viewBox="0 0 15 15" version="1.1" xmlns:xlink="http://www.w3.org/1999/xlink" xmlns="http://www.w3.org/2000/svg">
  <defs>
    <rect width="15" height="15" id="artboard_1" />
    <clipPath id="clip_1">
      <use xlink:href="#artboard_1" clip-rule="evenodd" />
    </clipPath>
  </defs>
  <g id="icon--mastercard" clip-path="url(#clip_1)">
    <path d="M9.61539 4C11.4847 4 13 5.51534 13 7.38462C13 9.25389 11.4847 10.7692 9.61539 10.7692C8.81489 10.7692 8.0793 10.4913 7.49982 10.0267C6.92143 10.4911 6.18551 10.7692 5.38462 10.7692C3.51534 10.7692 2 9.25389 2 7.38462C2 5.51534 3.51534 4 5.38462 4C6.18551 4 6.92143 4.27817 7.50103 4.74317C8.0793 4.2779 8.81489 4 9.61539 4ZM5.38465 4.84615C3.9827 4.84615 2.84619 5.98266 2.84619 7.38461C2.84619 8.78657 3.9827 9.92308 5.38465 9.92308C5.95644 9.92308 6.48408 9.73403 6.90846 9.41502C6.48238 8.84914 6.23081 8.14625 6.23081 7.38461C6.23081 6.62297 6.48238 5.92009 6.90697 5.35453C6.48408 5.0352 5.95644 4.84615 5.38465 4.84615Z" id="Shape" fill="#000000" fill-rule="evenodd" stroke="none" artboard="a785ce61-a4e2-4c1d-99f4-c888e0ddf08f" />
  </g>
</svg>