<?xml version="1.0" encoding="utf-8"?>
<svg width="15px" height="15px" viewBox="0 0 15 15" version="1.1" xmlns:xlink="http://www.w3.org/1999/xlink" xmlns="http://www.w3.org/2000/svg">
  <defs>
    <rect width="15" height="15" id="artboard_1" />
    <clipPath id="clip_1">
      <use xlink:href="#artboard_1" clip-rule="evenodd" />
    </clipPath>
  </defs>
  <g id="icon--npm" clip-path="url(#clip_1)">
    <g id="icons8-npm" transform="translate(0 5)" artboard="098ba7fd-285e-4375-aa82-ea85a7d7c8f2">
      <path d="M0 0L0 5.43956L4.21875 5.43956L4.21875 6.42857L7.5 6.42857L7.5 5.43956L15 5.43956L15 0L0 0ZM0.83313 0.878906L4.16656 0.878906L4.16748 0.878906L4.16748 4.67076L3.33344 4.67076L3.33344 1.75878L2.50031 1.75878L2.50031 4.67076L0.83313 4.67076L0.83313 0.878906ZM5.00061 0.878906L8.33313 0.878906L8.33405 0.878906L8.33405 4.66979L6.66687 4.66979L6.66687 5.54966L5.00061 5.54966L5.00061 0.878906ZM9.16718 0.878906L14.1669 0.878906L14.1678 0.878906L14.1678 4.67076L13.3337 4.67076L13.3337 1.75878L12.5006 1.75878L12.5006 4.67076L11.6675 4.67076L11.6675 1.75878L10.8334 1.75878L10.8334 4.67076L9.16718 4.67076L9.16718 0.878906ZM6.66687 1.75878L6.66687 3.79185L7.5 3.79185L7.5 1.75878L6.66687 1.75878Z" id="Shape" fill="#000000" stroke="none" />
    </g>
  </g>
</svg>