<?xml version="1.0" encoding="utf-8"?>
<svg width="15px" height="15px" viewBox="0 0 15 15" version="1.1" xmlns:xlink="http://www.w3.org/1999/xlink" xmlns="http://www.w3.org/2000/svg">
  <defs>
    <rect width="15" height="15" id="artboard_1" />
    <clipPath id="clip_1">
      <use xlink:href="#artboard_1" clip-rule="evenodd" />
    </clipPath>
  </defs>
  <g id="icon--open-source" clip-path="url(#clip_1)">
    <use xlink:href="#artboard_1" stroke="none" fill="#FFFFFF" />
    <path d="M14.1 7.5C14.1 3.85492 11.1451 0.900002 7.50002 0.900002C3.85494 0.900002 0.900024 3.85492 0.900024 7.5C0.900024 9.94921 2.23411 12.0868 4.21525 13.2258C4.36954 13.3145 4.52775 13.3972 4.68956 13.4734C4.82985 13.5396 4.97285 13.6009 5.11834 13.6572L6.34123 10.8038L6.73659 9.8813C6.58566 9.83295 6.44098 9.77065 6.30406 9.69593C5.52709 9.27188 5 8.44749 5 7.5C5 6.11929 6.11929 5 7.5 5C8.88071 5 10 6.11929 10 7.5C10 8.44749 9.47291 9.27188 8.69595 9.69592C8.55902 9.77065 8.41434 9.83295 8.26341 9.8813L8.65877 10.8038L9.88166 13.6572C10.0272 13.6009 10.1702 13.5395 10.3105 13.4734C10.4723 13.3972 10.6305 13.3145 10.7848 13.2258C12.7659 12.0869 14.1 9.94923 14.1 7.5L14.1 7.5ZM10.3965 12.3199C12.1988 11.331 13.1 9.72441 13.1 7.5C13.1 5.9536 12.5533 4.63367 11.4598 3.5402C10.3664 2.44674 9.04642 1.9 7.50002 1.9C5.95363 1.9 4.63369 2.44674 3.54023 3.5402C2.44676 4.63367 1.90002 5.9536 1.90002 7.5C1.90002 9.72438 2.80119 11.331 4.60353 12.3198L5.43587 10.3777C4.47862 9.76804 4 8.8088 4 7.5C4 6.5335 4.34171 5.70854 5.02513 5.02513C5.70854 4.34171 6.5335 4 7.5 4C8.4665 4 9.29146 4.34171 9.97487 5.02513C10.6583 5.70854 11 6.5335 11 7.5C11 8.8088 10.5214 9.76804 9.56413 10.3777L10.3965 12.3199L10.3965 12.3199Z" id="Vector" fill="#000000" fill-rule="evenodd" stroke="none" artboard="c2a3d48e-3698-49ec-9377-a2566a6f7322" />
  </g>
</svg>