<?xml version="1.0" encoding="utf-8"?>
<svg width="15px" height="15px" viewBox="0 0 15 15" version="1.1" xmlns:xlink="http://www.w3.org/1999/xlink" xmlns="http://www.w3.org/2000/svg">
  <defs>
    <path d="M0 0L15 0L15 13.2314L0 13.2314L0 0Z" id="path_1" />
    <rect width="15" height="15" id="artboard_1" />
    <clipPath id="clip_1">
      <use xlink:href="#artboard_1" clip-rule="evenodd" />
    </clipPath>
    <clipPath id="mask_1">
      <use xlink:href="#path_1" />
    </clipPath>
  </defs>
  <g id="icon--ordli-solid" clip-path="url(#clip_1)">
    <use xlink:href="#artboard_1" stroke="none" fill="#FFFFFF" />
    <g id="Clipboard" transform="translate(0 0.87999725)" artboard="dbac9787-560e-4405-be8a-676d249b9378">
      <path d="M0 0L15 0L15 13.2314L0 13.2314L0 0Z" id="Background" fill="none" fill-rule="evenodd" stroke="none" />
      <g clip-path="url(#mask_1)">
        <g id="Group">
          <path d="M14.878 6.16438C15.0392 6.44361 15.0392 6.78765 14.878 7.06689C14.1806 8.27485 12.277 11.572 11.5795 12.78C11.4183 13.0593 11.1204 13.2313 10.7979 13.2313L4.20099 13.2313C3.87855 13.2313 3.58061 13.0593 3.41939 12.78C2.72196 11.572 0.818329 8.27485 0.120914 7.06689C-0.0403046 6.78765 -0.0403046 6.44361 0.120914 6.16438C0.818333 4.95641 2.72196 1.65922 3.41939 0.451261C3.58061 0.172018 3.87855 5.36526e-08 4.20099 5.36526e-08L10.7979 5.36526e-08C11.1204 5.36526e-08 11.4183 0.172018 11.5795 0.451261C12.277 1.65922 14.1806 4.95641 14.878 6.16438L14.878 6.16438ZM10.406 6.92239C10.4483 6.84009 10.4538 6.74378 10.4212 6.65722C10.3886 6.57067 10.3209 6.50192 10.2349 6.46796C10.2349 6.46796 10.2349 6.46796 10.2348 6.46796C10.0404 6.39118 9.81884 6.46587 9.71054 6.64473C9.20138 7.48556 7.9178 9.83262 7.15078 11.0993C7.04781 11.2693 7.04449 11.4816 7.14208 11.6548C7.23967 11.828 7.42302 11.9352 7.62181 11.9352C8.5162 11.9352 9.61494 11.9352 10.2027 11.9352C10.401 11.9352 10.584 11.8285 10.6818 11.6559C11.2038 10.7345 12.8674 7.79762 13.3829 6.88775C13.4782 6.7194 13.4782 6.51335 13.3829 6.34498C12.9075 5.50555 11.4471 2.92666 10.6818 1.57541C10.5841 1.40282 10.4011 1.29613 10.2028 1.2961C10.0044 1.29608 9.82139 1.40272 9.7236 1.57529C8.46423 3.79774 5.13651 9.67033 4.82195 10.2254C4.81706 10.2341 4.8079 10.2394 4.79799 10.2394C4.78807 10.2394 4.77893 10.2341 4.77404 10.2254C4.55233 9.83434 2.86371 6.85553 2.73556 6.62944C2.73078 6.62102 2.73078 6.61072 2.73556 6.60228C2.87849 6.35011 4.96618 2.66697 5.11105 2.4114C5.11594 2.40277 5.12508 2.39744 5.135 2.39744C5.27972 2.39744 6.18823 2.39742 6.42322 2.39742C6.4328 2.39742 6.44169 2.40242 6.44671 2.41059C6.4517 2.41877 6.45209 2.42896 6.44772 2.43751C6.26608 2.79257 5.06532 5.40896 4.59576 6.32689C4.50504 6.50421 4.57019 6.72151 4.74351 6.81968C4.74351 6.81968 4.74351 6.81968 4.74351 6.81968C4.9158 6.91729 5.13449 6.86005 5.23688 6.69057C5.75012 5.84101 7.07371 3.42221 7.85347 2.1315C7.9562 1.96144 7.95936 1.74921 7.86174 1.57617C7.76411 1.40312 7.58083 1.29609 7.38215 1.29609C6.48712 1.29609 5.38637 1.29608 4.79808 1.29608C4.59976 1.29608 4.41676 1.40271 4.319 1.57524C3.79678 2.4967 2.13188 5.43447 1.61602 6.34472C1.52056 6.51316 1.52057 6.71935 1.61605 6.88777C2.09192 7.72726 3.55342 10.3054 4.31905 11.656C4.41685 11.8286 4.59985 11.9352 4.79815 11.9352C4.99646 11.9351 5.17942 11.8285 5.27719 11.656C6.53628 9.43401 9.86395 3.56151 10.1786 3.00625C10.1835 2.99762 10.1926 2.99229 10.2026 2.99229C10.2125 2.99229 10.2216 2.99762 10.2265 3.00625C10.4481 3.39748 12.1348 6.37599 12.2628 6.60198C12.2676 6.6104 12.2676 6.6207 12.2628 6.6291C12.1201 6.88129 10.0335 10.5672 9.88755 10.8251C9.88259 10.8339 9.87323 10.8392 9.86318 10.8391C9.71803 10.837 8.82032 10.8215 8.58818 10.8181C8.57865 10.818 8.56988 10.8129 8.56497 10.8048C8.56007 10.7966 8.55973 10.7865 8.56409 10.778C8.74402 10.4276 9.93484 7.84011 10.4061 6.92237L10.406 6.92239L10.406 6.92239Z" id="Shape" fill="#000000" fill-rule="evenodd" stroke="none" />
        </g>
      </g>
    </g>
  </g>
</svg>