<?xml version="1.0" encoding="utf-8"?>
<svg width="15px" height="15px" viewBox="0 0 15 15" version="1.1" xmlns:xlink="http://www.w3.org/1999/xlink" xmlns="http://www.w3.org/2000/svg">
  <defs>
    <path d="M0 0L13 0L13 11.6127L0 11.6127L0 0Z" id="path_1" />
    <rect width="15" height="15" id="artboard_1" />
    <clipPath id="clip_1">
      <use xlink:href="#artboard_1" clip-rule="evenodd" />
    </clipPath>
    <clipPath id="mask_1">
      <use xlink:href="#path_1" />
    </clipPath>
  </defs>
  <g id="icon--ordli" clip-path="url(#clip_1)">
    <use xlink:href="#artboard_1" stroke="none" fill="#FFFFFF" />
    <g id="Clipboard" transform="translate(1 1.699997)" artboard="9653dcf6-d268-4b00-9685-961da05bb178">
      <path d="M0 0L13 0L13 11.6127L0 11.6127L0 0Z" id="Background" fill="none" fill-rule="evenodd" stroke="none" />
      <g clip-path="url(#mask_1)">
        <g id="Group">
          <path d="M9.67176 6.14069C9.71787 6.05087 9.72387 5.94576 9.68828 5.85129C9.65268 5.75681 9.57883 5.68178 9.48492 5.64471C9.48492 5.64471 9.48492 5.64471 9.48492 5.64471C9.27264 5.56092 9.03089 5.64243 8.91267 5.83765C8.35696 6.75533 6.95603 9.31699 6.11891 10.6994C6.00652 10.885 6.0029 11.1168 6.10941 11.3058C6.21592 11.4948 6.41604 11.6117 6.633 11.6117L9.44981 11.6117C9.66629 11.6117 9.86604 11.4953 9.97274 11.307C10.5424 10.3013 12.3582 7.09593 12.9208 6.10289C13.0249 5.91914 13.0249 5.69426 12.9208 5.51049C12.4019 4.59431 10.808 1.77965 9.9728 0.30487C9.86613 0.116501 9.66638 5.56454e-05 9.4499 2.68634e-05C9.23342 -1.91911e-06 9.03367 0.116392 8.92695 0.304733C7.55244 2.73037 3.92048 9.13986 3.57716 9.74573C3.57183 9.75513 3.56183 9.76096 3.55101 9.76096C3.54019 9.76096 3.53021 9.75515 3.52488 9.74573C3.28289 9.31887 1.4399 6.06772 1.30002 5.82096C1.29481 5.81177 1.29481 5.80052 1.30002 5.79133C1.45602 5.51609 3.73458 1.49622 3.8927 1.21728C3.89803 1.20786 3.90801 1.20204 3.91883 1.20204C4.07679 1.20204 5.06836 1.20204 5.32482 1.20204C5.33528 1.20204 5.34499 1.20748 5.35046 1.21641C5.35591 1.22533 5.35633 1.23646 5.35157 1.24577C5.15332 1.6333 3.84279 4.48889 3.33029 5.49075C3.23128 5.68428 3.30239 5.92144 3.49153 6.02859C3.49155 6.02859 3.49155 6.02859 3.49155 6.02859C3.67959 6.13512 3.91825 6.07265 4.03001 5.88767C4.59017 4.96044 6.03477 2.32051 6.88582 0.91179C6.99796 0.726181 7.00141 0.49456 6.89486 0.305695C6.78831 0.116829 6.58827 1.15126e-05 6.37141 1.15126e-05C5.39457 7.6752e-06 4.19316 1.9187e-06 3.55109 2.37353e-11C3.33466 -1.91911e-06 3.13493 0.116376 3.02823 0.304678C2.45826 1.31039 0.641151 4.51674 0.0781312 5.5102C-0.0260549 5.69405 -0.0260434 5.91908 0.0781638 6.10291C0.597552 7.01914 2.19266 9.833 3.02829 11.3071C3.13503 11.4954 3.33474 11.6118 3.55118 11.6117C3.76761 11.6117 3.96732 11.4953 4.07402 11.307C5.44821 8.88193 9.08013 2.47254 9.42354 1.86652C9.42887 1.8571 9.43885 1.85128 9.44969 1.85128C9.46051 1.85128 9.47049 1.85711 9.47583 1.86653C9.71764 2.29351 11.5586 5.54434 11.6983 5.79098C11.7035 5.80018 11.7035 5.81142 11.6983 5.82059C11.5425 6.09583 9.26518 10.1188 9.10586 10.4002C9.10045 10.4098 9.09026 10.4156 9.07928 10.4155C8.92087 10.4132 7.94106 10.3962 7.68772 10.3926C7.67732 10.3924 7.66774 10.3869 7.66239 10.378C7.65703 10.3691 7.65667 10.358 7.66141 10.3488C7.85778 9.96633 9.15749 7.14233 9.67178 6.14067L9.67176 6.14069L9.67176 6.14069Z" id="Shape" fill="#000000" fill-rule="evenodd" stroke="none" />
        </g>
      </g>
    </g>
  </g>
</svg>