<?xml version="1.0" encoding="utf-8"?>
<svg width="15px" height="15px" viewBox="0 0 15 15" version="1.1" xmlns:xlink="http://www.w3.org/1999/xlink" xmlns="http://www.w3.org/2000/svg">
  <defs>
    <rect width="15" height="15" id="artboard_1" />
    <clipPath id="clip_1">
      <use xlink:href="#artboard_1" clip-rule="evenodd" />
    </clipPath>
  </defs>
  <g id="icon--paypal" clip-path="url(#clip_1)">
    <g id="icons8-paypal" transform="translate(2 2)" artboard="072e4dda-f6a5-4fce-8c7d-961221354052">
      <path d="M1.93568 0L0 8.86408L2.56311 8.86408L3.19053 5.92718L5.01942 5.92718C6.7682 5.92718 8.21996 4.84921 8.61044 3.01699C9.05431 0.942809 7.56584 0 6.28762 0L1.93568 0ZM4.0983 1.80218L5.35316 1.80218C5.97891 1.80218 6.40443 2.34451 6.22087 3.01699C6.06402 3.69114 5.40488 4.2318 4.75243 4.2318L3.55097 4.2318L4.0983 1.80218ZM9.5449 2.32282C9.54323 2.58981 9.5182 2.87682 9.45146 3.19053C9.27791 4.00652 8.92749 4.72072 8.43689 5.28641C8.22998 5.89548 7.6159 6.36772 7.0085 6.36772L6.9818 6.36772C6.39275 6.63638 5.73528 6.78155 5.01942 6.78155L3.88471 6.78155L3.40413 9.03762L3.25728 9.71845L2.54976 9.71845L2.26942 11L4.81917 11L5.4466 8.06311L7.27549 8.06311C9.02427 8.06311 10.4877 6.98513 10.8799 5.15291C11.2086 3.61271 10.4677 2.69326 9.5449 2.32282Z" id="Shape" fill="#000000" stroke="none" />
    </g>
  </g>
</svg>