<svg width="15" height="15" viewBox="0 0 15 15" fill="none" xmlns="http://www.w3.org/2000/svg">
<path d="M4.80675 14.1004C4.55928 14.5176 4.5251 14.5176 4.46502 13.9832C4.37038 13.1375 4.38503 11.7529 4.54163 11.0826C4.68809 10.4528 5.48835 7.06882 5.48835 7.06882C5.48835 7.06882 5.24688 6.58513 5.24688 5.87048C5.24688 4.74763 5.89769 3.90981 6.70772 3.90981C7.39683 3.90981 7.72918 4.42729 7.72918 5.04693C7.72918 5.74017 7.2883 6.77552 7.05997 7.73502C6.86995 8.53904 7.4633 9.19473 8.25568 9.19473C9.69061 9.19473 10.7939 7.68132 10.7939 5.4972C10.7939 3.56431 9.4052 2.21238 7.42162 2.21238C5.12446 2.21238 3.77628 3.93572 3.77628 5.71651C3.77628 6.4105 4.04329 7.15444 4.37714 7.55927C4.44286 7.63963 4.45262 7.70948 4.4331 7.7906C4.37188 8.04559 4.23594 8.59425 4.2089 8.70653C4.1736 8.85449 4.09173 8.88529 3.93889 8.81431C2.9302 8.34452 2.30005 6.87053 2.30005 5.68609C2.30005 3.13958 4.14994 0.799988 7.63492 0.799988C10.436 0.799988 12.6127 2.79559 12.6127 5.4634C12.6127 8.24612 10.8578 10.4854 8.4228 10.4854C7.6045 10.4854 6.83578 10.0603 6.57253 9.55825C6.57253 9.55825 6.1677 11.0998 6.06931 11.4776C5.89919 12.1314 5.17215 13.4852 4.80675 14.1004Z" fill="black"/>
</svg>
