<svg width="15" height="15" viewBox="0 0 15 15" fill="none" xmlns="http://www.w3.org/2000/svg">
<path fill-rule="evenodd" clip-rule="evenodd" d="M13 3.5C13 2.67157 12.3284 2 11.5 2H3.5C2.67157 2 2 2.67157 2 3.5V11.5C2 12.3284 2.67157 13 3.5 13H11.5C12.3284 13 13 12.3284 13 11.5V3.5ZM3.5 3H11.5L11.5899 3.00806C11.8231 3.05039 12 3.25454 12 3.5V11.5L11.9919 11.5899C11.9496 11.8231 11.7455 12 11.5 12H3.5L3.41012 11.9919C3.17688 11.9496 3 11.7455 3 11.5V3.5L3.00806 3.41012C3.05039 3.17688 3.25454 3 3.5 3ZM5.80993 11.3671C5.84351 11.6657 5.86261 11.6657 6.0009 11.4326C6.2051 11.0888 6.61138 10.3323 6.70645 9.96691C6.76143 9.75579 6.98766 8.89432 6.98766 8.89432C7.13477 9.1749 7.56435 9.41246 8.02163 9.41246C9.38236 9.41246 10.363 8.16108 10.363 6.60602C10.363 5.11519 9.14668 4 7.58135 4C5.63386 4 4.6001 5.30742 4.6001 6.73047C4.6001 7.39236 4.95224 8.21606 5.51592 8.47859C5.60133 8.51826 5.64708 8.50105 5.66681 8.41836C5.6726 8.39432 5.68732 8.33449 5.7052 8.26181C5.734 8.14477 5.77099 7.99442 5.79209 7.90652C5.80301 7.86119 5.79755 7.82215 5.76083 7.77725C5.57426 7.55102 5.42505 7.13529 5.42505 6.74747C5.42505 5.75232 6.17844 4.78928 7.46215 4.78928C8.57062 4.78928 9.34668 5.54477 9.34668 6.62491C9.34668 7.84545 8.73011 8.69118 7.92825 8.69118C7.48544 8.69118 7.15387 8.32477 7.26006 7.87546C7.30608 7.68204 7.36756 7.48312 7.42736 7.28963C7.53334 6.94674 7.63402 6.62095 7.63402 6.37329C7.63402 6.02702 7.4483 5.73784 7.06321 5.73784C6.61054 5.73784 6.24686 6.20603 6.24686 6.83351C6.24686 7.23287 6.3818 7.50317 6.3818 7.50317C6.3818 7.50317 5.93459 9.39421 5.85274 9.74614C5.76523 10.1207 5.75705 10.8945 5.80993 11.3671Z" fill="black"/>
</svg>
