<?xml version="1.0" encoding="utf-8"?>
<svg width="15px" height="15px" viewBox="0 0 15 15" version="1.1" xmlns:xlink="http://www.w3.org/1999/xlink" xmlns="http://www.w3.org/2000/svg">
  <defs>
    <rect width="15" height="15" id="artboard_1" />
    <clipPath id="clip_1">
      <use xlink:href="#artboard_1" clip-rule="evenodd" />
    </clipPath>
  </defs>
  <g id="icon--react" clip-path="url(#clip_1)">
    <g id="icons8-react-native-(1)" transform="translate(1 1.5599995)" artboard="cf02b828-07b9-4341-b10f-22554b8c7d95">
      <path d="M9.19909 0.000903009C8.97884 -0.00650294 8.7483 0.031897 8.51715 0.106836C8.05485 0.256715 7.57041 0.548793 7.07325 0.953199C6.87842 1.11169 6.68182 1.29285 6.48455 1.48507C6.29164 1.29773 6.09907 1.12088 5.90854 0.965889C5.41179 0.561807 4.92866 0.270169 4.46741 0.12063C4.00616 -0.0289098 3.54721 -0.0335435 3.17027 0.184079C2.79334 0.401702 2.56793 0.801188 2.46681 1.27541C2.36569 1.74964 2.37628 2.31438 2.47785 2.94662C2.51312 3.16623 2.56399 3.39662 2.6213 3.63133C2.40592 3.6966 2.19676 3.76523 2.0028 3.84098C1.41746 4.06961 0.93312 4.34312 0.580426 4.66859C0.227732 4.99406 0 5.38907 0 5.82282C0 6.25657 0.227732 6.65103 0.580426 6.9765C0.93312 7.30197 1.41746 7.57603 2.0028 7.80465C2.2102 7.88566 2.43474 7.9586 2.66654 8.02756C2.58316 8.3391 2.51561 8.64141 2.46957 8.92799C2.36792 9.56074 2.35719 10.1256 2.45853 10.6009C2.55988 11.0762 2.78541 11.4779 3.1642 11.6966C3.543 11.9153 4.004 11.9099 4.4663 11.76C4.9286 11.6102 5.41249 11.3186 5.90964 10.9142C6.10268 10.7572 6.29795 10.5781 6.49338 10.3879C6.68974 10.5791 6.88597 10.7593 7.07987 10.917C7.57663 11.3211 8.06031 11.6127 8.52156 11.7623C8.98281 11.9118 9.44121 11.9164 9.81814 11.6988C10.1951 11.4812 10.4205 11.0817 10.5216 10.6075C10.6227 10.1332 10.6116 9.56851 10.51 8.93626C10.4639 8.64891 10.3963 8.34614 10.3125 8.03363C10.552 7.96299 10.7836 7.88809 10.9972 7.80465C11.5825 7.57603 12.0669 7.30197 12.4196 6.9765C12.7723 6.65103 13 6.25657 13 5.82282C13 5.38907 12.7723 4.99406 12.4196 4.66859C12.0669 4.34312 11.5825 4.06961 10.9972 3.84098C10.8005 3.76414 10.5881 3.69462 10.3693 3.62857C10.4271 3.39242 10.4784 3.16038 10.5139 2.93945C10.6155 2.3067 10.6263 1.74133 10.5249 1.26603C10.4236 0.790733 10.1975 0.389537 9.81869 0.170838C9.62929 0.0614884 9.41934 0.00830896 9.19909 0.000903009ZM9.17316 0.575812C9.31137 0.579591 9.42928 0.612481 9.53013 0.67071C9.73185 0.787169 9.88094 1.01383 9.96049 1.38686C10.04 1.7599 10.0373 2.26391 9.94338 2.84841C9.91123 3.04853 9.86455 3.26063 9.81152 3.47794C9.23384 3.33892 8.60086 3.2357 7.92624 3.17504C7.58733 2.70548 7.23898 2.27833 6.88787 1.89887C7.0735 1.71767 7.25794 1.54819 7.43795 1.40176C7.8972 1.02819 8.33197 0.773996 8.69481 0.656365C8.87622 0.59755 9.03495 0.572032 9.17316 0.575812ZM3.81249 0.577467C3.9515 0.573586 4.11057 0.599035 4.2925 0.65802C4.65638 0.775991 5.09192 1.03007 5.55157 1.40397C5.72793 1.54743 5.90831 1.71321 6.09006 1.89005C5.73642 2.27251 5.38563 2.70413 5.04452 3.1778C4.3723 3.23957 3.74157 3.34378 3.16641 3.48346C3.11372 3.26719 3.06766 3.05594 3.03565 2.85669C2.94167 2.27168 2.93933 1.76704 3.0191 1.39293C3.09887 1.01882 3.24919 0.791004 3.45276 0.673469C3.55455 0.614702 3.67348 0.581348 3.81249 0.577467ZM6.49338 2.3055C6.72347 2.5559 6.95369 2.83001 7.18194 3.12483C6.95764 3.11548 6.73059 3.10993 6.5 3.10993C6.26482 3.10993 6.03344 3.11566 5.80481 3.12538C6.03315 2.83029 6.2632 2.55612 6.49338 2.3055ZM6.5 3.68043C6.88415 3.68043 7.25858 3.69622 7.62278 3.72291C7.87338 4.08285 8.11828 4.4647 8.35163 4.86887C8.55666 5.224 8.74221 5.57858 8.91109 5.92875C8.74042 6.28357 8.55177 6.64295 8.3439 7.00298C8.16092 7.31991 7.96984 7.62092 7.77561 7.91114C7.36422 7.94552 6.93794 7.96466 6.5 7.96466C6.05151 7.96466 5.61566 7.94439 5.19514 7.90838C5.00415 7.62233 4.81629 7.32533 4.63624 7.01347C4.42885 6.65425 4.2411 6.29608 4.07071 5.94199C4.24182 5.58591 4.4304 5.22519 4.639 4.8639C4.87112 4.46185 5.1153 4.08221 5.36453 3.72402C5.73265 3.69672 6.11142 3.68043 6.5 3.68043ZM8.35052 3.79354C8.81599 3.85163 9.25304 3.93235 9.65979 4.02913C9.53905 4.42493 9.39033 4.83836 9.21013 5.26501C9.09312 5.03947 8.97195 4.81316 8.84101 4.58638C8.68243 4.3117 8.51754 4.04942 8.35052 3.79354ZM4.61968 3.79795C4.4561 4.04917 4.29513 4.30609 4.13967 4.57535C4.00706 4.80503 3.88337 5.03439 3.76505 5.26281C3.5864 4.83872 3.43857 4.42764 3.31869 4.03409C3.72257 3.9371 4.15725 3.85672 4.61968 3.79795ZM10.2187 4.1792C10.419 4.23979 10.6123 4.30302 10.7897 4.37231C11.3293 4.58306 11.7562 4.83262 12.0328 5.08791C12.3094 5.34319 12.4295 5.58664 12.4295 5.82282C12.4295 6.059 12.3094 6.30245 12.0328 6.55773C11.7562 6.81301 11.3293 7.06258 10.7897 7.27333C10.5926 7.35033 10.376 7.42015 10.1508 7.4863C9.9902 6.98947 9.78518 6.47114 9.54117 5.94199C9.82172 5.33449 10.0484 4.74217 10.2187 4.1792ZM2.77192 4.18196C2.9403 4.73929 3.16405 5.32577 3.44062 5.9271C3.19501 6.45932 2.98897 6.9806 2.82765 7.48023C2.6104 7.41582 2.40115 7.34789 2.21025 7.27333C1.67066 7.06258 1.24383 6.81302 0.967193 6.55773C0.690555 6.30245 0.570495 6.059 0.570495 5.82282C0.570495 5.58664 0.690555 5.34319 0.967193 5.08791C1.24383 4.83262 1.67066 4.58306 2.21025 4.37231C2.38492 4.30408 2.57508 4.24175 2.77192 4.18196ZM6.5 4.52514C5.72328 4.52514 5.08756 5.16086 5.08756 5.93758C5.08756 6.71431 5.72328 7.35002 6.5 7.35002C7.27673 7.35002 7.91244 6.71431 7.91244 5.93758C7.91244 5.16086 7.27673 4.52514 6.5 4.52514ZM6.5 5.09011C6.97139 5.09011 7.34747 5.46619 7.34747 5.93758C7.34747 6.40897 6.97139 6.78505 6.5 6.78505C6.02861 6.78505 5.65253 6.40897 5.65253 5.93758C5.65253 5.46619 6.02861 5.09011 6.5 5.09011ZM9.2173 6.60518C9.36545 6.95581 9.49423 7.29891 9.60241 7.62975C9.26269 7.70853 8.90095 7.7749 8.52046 7.82728C8.62998 7.65251 8.73815 7.47448 8.84377 7.29154C8.97617 7.06222 9.09914 6.83321 9.2173 6.60518ZM3.77167 6.60573C3.89046 6.83517 4.01418 7.06521 4.1474 7.29595C4.25169 7.47659 4.35819 7.65295 4.4663 7.82562C4.08693 7.77302 3.72631 7.70641 3.38766 7.62755C3.49535 7.29771 3.62419 6.95533 3.77167 6.60573ZM3.2249 8.17597C3.73615 8.29709 4.29029 8.39012 4.8779 8.45074C5.27023 9.01819 5.67871 9.52781 6.09006 9.97353C5.90616 10.1528 5.72388 10.3211 5.5455 10.4662C5.08625 10.8398 4.65092 11.0934 4.28809 11.2111C3.92526 11.3287 3.65448 11.3132 3.45276 11.1967C3.25105 11.0803 3.1025 10.8536 3.02296 10.4806C2.94342 10.1075 2.94562 9.60408 3.03951 9.01958C3.08211 8.75441 3.14577 8.47048 3.2249 8.17597ZM9.76572 8.17818C9.84545 8.47433 9.90938 8.75959 9.95221 9.0262C10.0462 9.61121 10.0485 10.1153 9.96876 10.4894C9.88899 10.8635 9.73923 11.0919 9.53565 11.2094C9.33208 11.327 9.05923 11.3428 8.69536 11.2249C8.33148 11.1069 7.89594 10.8523 7.4363 10.4784C7.25663 10.3322 7.07309 10.1631 6.88787 9.98236C7.30189 9.53496 7.71342 9.02257 8.10831 8.45184C8.6974 8.39163 9.25308 8.29915 9.76572 8.17818ZM5.61502 8.50867C5.90507 8.52448 6.19894 8.53515 6.5 8.53515C6.79111 8.53515 7.07545 8.52512 7.35629 8.51033C7.0692 8.89767 6.77657 9.2498 6.4851 9.5669C6.19382 9.24913 5.90173 8.89636 5.61502 8.50867Z" id="Shape" fill="#000000" stroke="none" />
    </g>
  </g>
</svg>