<?xml version="1.0" encoding="utf-8"?>
<svg width="15px" height="15px" viewBox="0 0 15 15" version="1.1" xmlns:xlink="http://www.w3.org/1999/xlink" xmlns="http://www.w3.org/2000/svg">
  <defs>
    <rect width="15" height="15" id="artboard_1" />
    <clipPath id="clip_1">
      <use xlink:href="#artboard_1" clip-rule="evenodd" />
    </clipPath>
  </defs>
  <g id="icon--rss" clip-path="url(#clip_1)">
    <use xlink:href="#artboard_1" stroke="none" fill="#FFFFFF" />
    <path d="M12.4462 11.8428C12.5148 9.47158 11.6441 7.07827 9.83435 5.26853C8.02352 3.4577 5.62844 2.5871 3.25584 2.65353C2.96148 2.66633 2.72817 2.90638 2.72388 3.20099L2.72851 3.20158C2.72607 3.36164 2.78972 3.51555 2.9044 3.62719C3.01899 3.73876 3.1745 3.79828 3.33439 3.79163C5.39024 3.74305 7.46175 4.50327 9.03069 6.0722C10.6008 7.64231 11.3609 9.71576 11.3067 11.773C11.2999 11.9329 11.3593 12.0885 11.4708 12.2034C11.5824 12.3181 11.7362 12.382 11.8962 12.3798L11.8962 12.3768C12.1921 12.3729 12.4334 12.1385 12.4462 11.8428L12.4462 11.8428ZM8.86694 11.9378C8.96503 10.4507 8.44578 8.93056 7.3092 7.79398C6.17296 6.65773 4.65344 6.13849 3.16635 6.23077C2.89111 6.25443 2.67859 6.48294 2.6748 6.7592C2.6748 6.75936 2.6748 6.75936 2.68685 6.75962C2.68449 6.92767 2.75277 7.08891 2.87503 7.20409C2.99728 7.31928 3.16239 7.37779 3.32995 7.3655C4.47284 7.31414 5.63275 7.72485 6.50554 8.59764C7.37833 9.47043 7.78904 10.6303 7.7259 11.7726C7.71327 11.9435 7.77288 12.1119 7.89025 12.2367C8.00771 12.3615 8.17214 12.4313 8.34348 12.4292L8.34365 12.424C8.61713 12.4205 8.84336 12.2102 8.86694 11.9378L8.86694 11.9378ZM4.2794 12.3426C4.69788 11.9241 4.69788 11.2455 4.2794 10.8271C3.86082 10.4085 3.18233 10.4086 2.76385 10.8271C2.34537 11.2455 2.34527 11.924 2.76385 12.3426C3.18233 12.7611 3.86092 12.7611 4.2794 12.3426L4.2794 12.3426Z" id="Vector" fill="#000000" fill-rule="evenodd" stroke="none" artboard="507c50fe-ef5a-4af7-a78d-6a7e58a7b88e" />
  </g>
</svg>