<svg width="15" height="15" viewBox="0 0 15 15" fill="none" xmlns="http://www.w3.org/2000/svg">
<path d="M5.73693 4.32637H2.21068C1.43138 4.32637 0.800182 4.95756 0.800182 5.73687C0.800182 6.51617 1.43138 7.14736 2.21068 7.14736H5.73693C6.51623 7.14736 7.14742 6.51617 7.14742 5.73687C7.14742 4.95756 6.51623 4.32637 5.73693 4.32637ZM7.14742 2.28608V3.26849C7.14742 3.46314 6.99156 3.62112 6.79692 3.62112H5.73693C4.95763 3.62112 4.32643 2.98992 4.32643 2.21062C4.32643 1.35374 5.09021 0.675997 5.97389 0.819163C6.66715 0.932002 7.14742 1.58365 7.14742 2.28608ZM4.32643 9.26311V12.7894C4.32643 13.5687 4.95763 14.1999 5.73693 14.1999C6.51623 14.1999 7.14742 13.5687 7.14742 12.7894V9.26311C7.14742 8.48381 6.51623 7.85261 5.73693 7.85261C4.95763 7.85261 4.32643 8.48381 4.32643 9.26311ZM2.28614 7.85261H3.26855C3.4632 7.85261 3.62118 8.00847 3.62118 8.20312V9.26311C3.62118 10.0424 2.98998 10.6736 2.21068 10.6736C1.3538 10.6736 0.676058 9.90982 0.819224 9.02615C0.932063 8.33218 1.58301 7.85261 2.28614 7.85261ZM9.26317 10.6736H12.7894C13.5687 10.6736 14.1999 10.0424 14.1999 9.26311C14.1999 8.48381 13.5687 7.85261 12.7894 7.85261H9.26317C8.48387 7.85261 7.85267 8.48381 7.85267 9.26311C7.85267 10.0417 8.48387 10.6736 9.26317 10.6736ZM7.85267 12.7139V11.7315C7.85267 11.5368 8.00853 11.3789 8.20318 11.3789H9.26317C10.0425 11.3789 10.6737 12.0101 10.6737 12.7894C10.6737 13.6462 9.90988 14.324 9.02621 14.1808C8.33224 14.0673 7.85267 13.4163 7.85267 12.7139ZM10.6737 5.73687V2.21062C10.6737 1.43132 10.0425 0.800121 9.26317 0.800121C8.48387 0.800121 7.85267 1.43132 7.85267 2.21062V5.73687C7.85267 6.51617 8.48387 7.14736 9.26317 7.14736C10.0418 7.14736 10.6737 6.51546 10.6737 5.73687ZM12.714 7.14736H11.7315C11.5369 7.14736 11.3789 6.9915 11.3789 6.79685V5.73687C11.3789 4.95756 12.0101 4.32637 12.7894 4.32637C13.6463 4.32637 14.324 5.09015 14.1809 5.97383C14.0673 6.66709 13.4164 7.14736 12.714 7.14736Z" fill="black"/>
</svg>
