<svg width="15" height="15" viewBox="0 0 15 15" fill="none" xmlns="http://www.w3.org/2000/svg">
<path fill-rule="evenodd" clip-rule="evenodd" d="M13 3.5C13 2.67157 12.3284 2 11.5 2H3.5C2.67157 2 2 2.67157 2 3.5V11.5C2 12.3284 2.67157 13 3.5 13H11.5C12.3284 13 13 12.3284 13 11.5V3.5ZM3.5 3H11.5L11.5899 3.00806C11.8231 3.05039 12 3.25454 12 3.5V11.5L11.9919 11.5899C11.9496 11.8231 11.7455 12 11.5 12H3.5L3.41012 11.9919C3.17688 11.9496 3 11.7455 3 11.5V3.5L3.00806 3.41012C3.05039 3.17688 3.25454 3 3.5 3ZM4.57905 5.74739H6.52638C6.95674 5.74739 7.30532 6.09596 7.30532 6.52632C7.30532 6.95668 6.95674 7.30525 6.52638 7.30525H4.57905C4.14869 7.30525 3.80012 6.95668 3.80012 6.52632C3.80012 6.09596 4.14869 5.74739 4.57905 5.74739ZM7.30532 5.16319V4.62067C7.30532 4.23276 7.04009 3.87289 6.65724 3.81058C6.16924 3.73152 5.74745 4.10579 5.74745 4.57899C5.74745 5.00935 6.09602 5.35793 6.52638 5.35793H7.11175C7.21924 5.35793 7.30532 5.27068 7.30532 5.16319ZM5.74745 10.421V8.47365C5.74745 8.04329 6.09602 7.69472 6.52638 7.69472C6.95674 7.69472 7.30532 8.04329 7.30532 8.47365V10.421C7.30532 10.8513 6.95674 11.1999 6.52638 11.1999C6.09602 11.1999 5.74745 10.8513 5.74745 10.421ZM5.16325 7.69472H4.62073C4.23243 7.69472 3.87295 7.95956 3.81064 8.34279C3.73158 8.83079 4.10585 9.25258 4.57905 9.25258C5.00941 9.25258 5.35799 8.90401 5.35799 8.47365V7.88829C5.35799 7.78079 5.27075 7.69472 5.16325 7.69472ZM10.421 9.25258H8.47371C8.04335 9.25258 7.69478 8.90362 7.69478 8.47365C7.69478 8.04329 8.04335 7.69472 8.47371 7.69472H10.421C10.8514 7.69472 11.2 8.04329 11.2 8.47365C11.2 8.90401 10.8514 9.25258 10.421 9.25258ZM7.69478 9.83678V10.3793C7.69478 10.7672 7.95962 11.1267 8.34285 11.1894C8.83085 11.2685 9.25265 10.8942 9.25265 10.421C9.25265 9.99062 8.90407 9.64205 8.47371 9.64205H7.88835C7.78085 9.64205 7.69478 9.72929 7.69478 9.83678ZM9.25265 4.57899V6.52632C9.25265 6.95629 8.90368 7.30525 8.47371 7.30525C8.04335 7.30525 7.69478 6.95668 7.69478 6.52632V4.57899C7.69478 4.14863 8.04335 3.80006 8.47371 3.80006C8.90407 3.80006 9.25265 4.14863 9.25265 4.57899ZM9.83684 7.30525H10.3794C10.7673 7.30525 11.1268 7.04003 11.1895 6.65718C11.2685 6.16918 10.8942 5.74739 10.421 5.74739C9.99068 5.74739 9.64211 6.09596 9.64211 6.52632V7.11169C9.64211 7.21918 9.72935 7.30525 9.83684 7.30525Z" fill="black"/>
</svg>
