<?xml version="1.0" encoding="utf-8"?>
<svg width="15px" height="15px" viewBox="0 0 15 15" version="1.1" xmlns:xlink="http://www.w3.org/1999/xlink" xmlns="http://www.w3.org/2000/svg">
  <defs>
    <rect width="15" height="15" id="artboard_1" />
    <clipPath id="clip_1">
      <use xlink:href="#artboard_1" clip-rule="evenodd" />
    </clipPath>
  </defs>
  <g id="icon--twitter" clip-path="url(#clip_1)">
    <path d="M13.4 4.05813C12.9992 4.2362 12.598 4.38938 12.1463 4.44507L12.1294 4.40259C12.5956 4.12345 12.9277 3.69236 13.0961 3.16501C12.6602 3.42353 12.1769 3.61123 11.6626 3.71298C11.2508 3.27433 10.6643 3 10.0153 3C8.76874 3 7.75805 4.01069 7.75805 5.2572C7.75805 5.4339 7.77799 5.60648 7.81649 5.77149C6.93765 5.72703 6.13455 5.52217 5.38381 5.15945C4.53233 4.74806 3.7565 4.13819 3.16457 3.41253C2.97069 3.74598 2.8593 4.13376 2.8593 4.54766C2.8593 5.33077 3.25739 6.02106 3.86312 6.42603C3.49322 6.41365 3.14532 6.31258 2.84143 6.14345C2.84143 6.15307 2.84143 6.16201 2.84143 6.17164C2.84143 7.26552 3.61904 8.1772 4.65173 8.38484C4.46276 8.46362 4.32909 8.48728 4.08771 8.48728C3.84633 8.48728 3.68014 8.45982 3.45724 8.40164C3.74463 9.2982 4.75348 9.97237 5.74148 9.99094C4.96937 10.5967 3.99581 10.9569 2.93837 10.9569C2.75617 10.9569 2.57672 10.9466 2.40002 10.9253C3.39834 11.5661 4.58435 11.9401 5.85905 11.9401C10.0104 11.9401 12.28 8.50103 12.28 5.51847C12.28 5.42084 12.2841 5.35415 12.28 5.2572C12.7207 4.93887 13.0975 4.51053 13.4 4.05813Z" id="Path" fill="#000000" fill-rule="evenodd" stroke="none" artboard="a0ae15f0-9052-4fa6-8928-7e7472fc332b" />
  </g>
</svg>