<svg width="15" height="15" viewBox="0 0 15 15" fill="none" xmlns="http://www.w3.org/2000/svg">
<path fill-rule="evenodd" clip-rule="evenodd" d="M13 3.5C13 2.67157 12.3284 2 11.5 2H3.5C2.67157 2 2 2.67157 2 3.5V11.5C2 12.3284 2.67157 13 3.5 13H11.5C12.3284 13 13 12.3284 13 11.5V3.5ZM3.5 3H11.5L11.5899 3.00806C11.8231 3.05039 12 3.25454 12 3.5V11.5L11.9919 11.5899C11.9496 11.8231 11.7455 12 11.5 12H3.5L3.41012 11.9919C3.17688 11.9496 3 11.7455 3 11.5V3.5L3.00806 3.41012C3.05039 3.17688 3.25454 3 3.5 3ZM4 4.20001L6.55026 7.91787L4.0014 10.871H5.11722L7.04444 8.63817L8.57596 10.871H11L8.39497 7.07329L10.8748 4.20001H9.75919L7.90079 6.35317L6.42404 4.20001H4ZM5.33333 4.90222H6.05415L9.66668 10.1688H8.94585L5.33333 4.90222Z" fill="black"/>
</svg>
