<?xml version="1.0" encoding="utf-8"?>
<svg width="15px" height="15px" viewBox="0 0 15 15" version="1.1" xmlns:xlink="http://www.w3.org/1999/xlink" xmlns="http://www.w3.org/2000/svg">
  <defs>
    <rect width="15" height="15" id="artboard_1" />
    <clipPath id="clip_1">
      <use xlink:href="#artboard_1" clip-rule="evenodd" />
    </clipPath>
  </defs>
  <g id="icon--vimeo" clip-path="url(#clip_1)">
    <g id="icons8-vimeo" transform="translate(1.1999512 2.5)" artboard="af0b3f89-c98b-4c7e-9e43-b4de970e8e4f">
      <path d="M11.9943 2.37962C11.9407 3.5382 11.127 5.12204 9.54655 7.13113C7.91583 9.23398 6.53625 10.2854 5.40446 10.2854C4.70463 10.2854 4.11529 9.64585 3.62976 8.36672C3.30831 7.1914 2.9835 6.01943 2.66205 4.84411C2.30376 3.56499 1.91868 2.92543 1.50682 2.92543C1.41641 2.92543 1.10165 3.11294 0.562546 3.48462L0 2.7647C0.592683 2.24903 1.17532 1.73336 1.75126 1.2177C2.5415 0.541302 3.13419 0.186361 3.52931 0.149528C4.46354 0.0624673 5.03948 0.695332 5.25378 2.04812C5.48818 3.51141 5.6489 4.41885 5.73931 4.77379C6.00719 5.98595 6.30521 6.59202 6.62666 6.59202C6.8778 6.59202 7.25618 6.1969 7.75845 5.41001C8.26073 4.62646 8.53195 4.02708 8.56879 3.61521C8.6391 2.93547 8.37123 2.59727 7.75845 2.59727C7.47383 2.59727 7.17581 2.6609 6.8711 2.79149C7.46044 0.876151 8.58888 -0.0513817 10.2531 0.00219409C11.4853 0.0390277 12.0646 0.829271 11.9943 2.37962Z" id="Path" fill="#000000" stroke="none" />
    </g>
  </g>
</svg>