<?xml version="1.0" encoding="utf-8"?>
<svg width="15px" height="15px" viewBox="0 0 15 15" version="1.1" xmlns:xlink="http://www.w3.org/1999/xlink" xmlns="http://www.w3.org/2000/svg">
  <defs>
    <rect width="15" height="15" id="artboard_1" />
    <clipPath id="clip_1">
      <use xlink:href="#artboard_1" clip-rule="evenodd" />
    </clipPath>
  </defs>
  <g id="icon--visa" clip-path="url(#clip_1)">
    <path d="M7.18875 7.13528C7.18256 7.63022 7.62976 7.90615 7.96675 8.07044C8.31277 8.23885 8.42917 8.34685 8.4279 8.49766C8.42521 8.72824 8.15165 8.83004 7.8957 8.83401C7.44898 8.84083 7.18938 8.71349 6.98307 8.61707L6.82227 9.36986C7.02953 9.46516 7.41282 9.54858 7.8107 9.55222C8.74411 9.55222 9.35497 9.09139 9.3583 8.37698C9.36179 7.47021 8.10408 7.41994 8.11264 7.01476C8.11566 6.89186 8.23285 6.76072 8.48975 6.72725C8.61709 6.71044 8.96819 6.6976 9.36591 6.88092L9.52227 6.15271C9.30819 6.07453 9.03289 6 8.69051 6C7.81197 5.99968 7.19382 6.46686 7.18875 7.13528M11.0235 6.06248C10.853 6.06248 10.7093 6.16191 10.6451 6.31447L9.31189 9.49846L10.2447 9.49846L10.4302 8.98545L11.5702 8.98545L11.6779 9.49846L12.5 9.49846L11.7824 6.06264L11.0235 6.06264M11.154 6.99082L11.4231 8.28119L10.6857 8.28119L11.154 6.99082M6.0581 6.06248L5.32275 9.49831L6.21176 9.49831L6.94679 6.06248L6.0581 6.06248M4.74283 6.06248L3.81751 8.40108L3.44342 6.41279C3.39965 6.19077 3.22616 6.06264 3.03348 6.06264L1.52077 6.06264L1.5 6.16239C1.8105 6.22994 2.16335 6.33857 2.37711 6.45481C2.50794 6.52586 2.54521 6.58802 2.58819 6.75675L3.2972 9.49878L4.2368 9.49878L5.67688 6.06296L4.74283 6.06248" id="Shape" fill="#000000" stroke="none" artboard="359d203a-0921-40ca-a8a7-ab4213a3439c" />
  </g>
</svg>