<?xml version="1.0" encoding="utf-8"?>
<svg width="15px" height="15px" viewBox="0 0 15 15" version="1.1" xmlns:xlink="http://www.w3.org/1999/xlink" xmlns="http://www.w3.org/2000/svg">
  <defs>
    <rect width="15" height="15" id="artboard_1" />
    <clipPath id="clip_1">
      <use xlink:href="#artboard_1" clip-rule="evenodd" />
    </clipPath>
  </defs>
  <g id="icon--whatsup" clip-path="url(#clip_1)">
    <path d="M7.49999 1.9C10.5928 1.9 13.1 4.40721 13.1 7.5C13.1 10.5928 10.5928 13.1 7.49999 13.1C6.53902 13.1 5.63458 12.8579 4.84431 12.4315L1.72131 13.3504L2.6285 10.264C2.16482 9.44846 1.89999 8.50516 1.89999 7.5C1.89999 4.40721 4.4072 1.9 7.49999 1.9ZM7.50002 2.9C4.95951 2.9 2.90002 4.95949 2.90002 7.5C2.90002 8.21838 3.06423 8.91103 3.37462 9.5378L3.49783 9.76967L3.70765 10.1387L3.19702 11.874L4.95698 11.3559L5.31926 11.5514C5.98339 11.9098 6.72685 12.1 7.50002 12.1C10.0405 12.1 12.1 10.0405 12.1 7.5C12.1 4.95949 10.0405 2.9 7.50002 2.9ZM6.21148 5.05227L6.79968 5.64047C7.00271 5.8435 7.00271 6.17268 6.79968 6.37572L6.28501 6.89039L8.0496 8.65498L8.56427 8.14031C8.76731 7.93728 9.09649 7.93728 9.29952 8.14031L9.88772 8.72851C10.0907 8.93154 10.0907 9.26072 9.88772 9.46375L9.3076 10.0439C9.16553 10.1861 8.9542 10.2336 8.76493 10.1659C7.75947 9.80643 6.92558 9.29556 6.26328 8.63326C5.60213 7.9721 5.10375 7.15184 4.76815 6.17247C4.70369 5.98469 4.75189 5.77662 4.89227 5.63624L5.47624 5.05227C5.67927 4.84924 6.00845 4.84924 6.21148 5.05227Z" id="Shape" fill="#000000" fill-rule="evenodd" stroke="none" artboard="90b76834-26cc-47b2-828e-5341a7e48542" />
  </g>
</svg>