<?xml version="1.0" encoding="utf-8"?>
<svg width="15px" height="15px" viewBox="0 0 15 15" version="1.1" xmlns:xlink="http://www.w3.org/1999/xlink" xmlns="http://www.w3.org/2000/svg">
  <defs>
    <rect width="15" height="15" id="artboard_1" />
    <clipPath id="clip_1">
      <use xlink:href="#artboard_1" clip-rule="evenodd" />
    </clipPath>
  </defs>
  <g id="icon--windows" clip-path="url(#clip_1)">
    <path d="M14 8L14 12.4617Q14 12.5133 13.9895 12.5637Q13.9789 12.6141 13.9583 12.6614Q13.9377 12.7086 13.9079 12.7506Q13.878 12.7926 13.8402 12.8277Q13.8025 12.8627 13.7583 12.8893Q13.7141 12.9158 13.6655 12.9328Q13.6168 12.9498 13.5657 12.9565Q13.5147 12.9632 13.4633 12.9593L8 12.545L8 8L14 8ZM1 8L7 8L7 12.455L1.46127 12.035Q1.41464 12.0314 1.36947 12.0193Q1.32431 12.0072 1.28219 11.9868Q1.24007 11.9665 1.20246 11.9387Q1.16485 11.9109 1.13306 11.8767Q1.10126 11.8424 1.0764 11.8028Q1.05153 11.7631 1.03445 11.7196Q1.01738 11.6761 1.00869 11.6301Q1 11.5842 1 11.5374L1 8ZM14 7L8 7L8 2.455L13.4633 2.0407Q13.5147 2.03681 13.5657 2.04349Q13.6168 2.05018 13.6655 2.06717Q13.7141 2.08415 13.7583 2.11072Q13.8025 2.1373 13.8402 2.17233Q13.878 2.20736 13.9079 2.24938Q13.9377 2.2914 13.9583 2.33863Q13.9789 2.38585 13.9895 2.4363Q14 2.48674 14 2.53827L14 7ZM7 2.545L7 7L1 7L1 3.46259Q1 3.41583 1.00869 3.36988Q1.01738 3.32393 1.03445 3.28039Q1.05153 3.23685 1.0764 3.19725Q1.10126 3.15764 1.13306 3.12335Q1.16485 3.08905 1.20246 3.06126Q1.24007 3.03347 1.28219 3.01315Q1.32431 2.99283 1.36947 2.9807Q1.41464 2.96856 1.46127 2.96502L7 2.545Z" id="Shape" fill="#000000" fill-rule="evenodd" stroke="none" artboard="70dc20a8-e4ff-49cd-bf35-eae359eb3ba4" />
  </g>
</svg>