<?xml version="1.0" encoding="utf-8"?>
<svg width="15px" height="15px" viewBox="0 0 15 15" version="1.1" xmlns:xlink="http://www.w3.org/1999/xlink" xmlns="http://www.w3.org/2000/svg">
  <defs>
    <rect width="15" height="15" id="artboard_1" />
    <clipPath id="clip_1">
      <use xlink:href="#artboard_1" clip-rule="evenodd" />
    </clipPath>
  </defs>
  <g id="icon--xing" clip-path="url(#clip_1)">
    <path d="M11.5 2C12.3284 2 13 2.67157 13 3.5L13 11.5C13 12.3284 12.3284 13 11.5 13L3.5 13C2.67157 13 2 12.3284 2 11.5L2 3.5C2 2.67157 2.67157 2 3.5 2L11.5 2ZM11.5 3L3.5 3C3.25454 3 3.05039 3.17688 3.00806 3.41012L3 3.5L3 11.5C3 11.7455 3.17688 11.9496 3.41012 11.9919L3.5 12L11.5 12C11.7455 12 11.9496 11.8231 11.9919 11.5899L12 11.5L12 3.5C12 3.25454 11.8231 3.05039 11.5899 3.00806L11.5 3ZM10.3933 3.7C10.5804 3.7 10.7071 3.87775 10.6626 4.04722L10.6376 4.11002L8.38976 8.26L9.87689 10.9149C9.96268 11.0681 9.87374 11.2532 9.71413 11.2925L9.65117 11.3L8.80149 11.3C8.6919 11.3 8.58899 11.2527 8.51778 11.1727L8.4707 11.1068L6.96932 8.44677C6.91779 8.35572 6.90676 8.2485 6.93631 8.1504L6.96609 8.07893L9.23184 3.89893C9.28504 3.80089 9.37776 3.7324 9.48403 3.70892L9.56586 3.7L10.3933 3.7ZM5.89896 5.03C6.00384 5.03 6.10276 5.07317 6.17354 5.14734L6.22101 5.2086L6.93788 6.35544C6.99761 6.4512 7.01114 6.56715 6.97778 6.67205L6.94396 6.74817L5.84101 8.64133C5.78659 8.73481 5.69569 8.79947 5.59225 8.8216L5.51269 8.83L4.6575 8.83C4.48101 8.83 4.36367 8.65976 4.41009 8.50143L4.43539 8.44297L5.53967 6.55L4.81539 5.39119C4.7279 5.25152 4.8075 5.07477 4.95651 5.03721L5.01546 5.03L5.89896 5.03Z" id="Shape" fill="#000000" stroke="none" artboard="46df8f7e-a21e-4128-a01b-74da081b8dba" />
  </g>
</svg>