<?xml version="1.0" encoding="utf-8"?>
<svg width="15px" height="15px" viewBox="0 0 15 15" version="1.1" xmlns:xlink="http://www.w3.org/1999/xlink" xmlns="http://www.w3.org/2000/svg">
  <defs>
    <rect width="15" height="15" id="artboard_1" />
    <clipPath id="clip_1">
      <use xlink:href="#artboard_1" clip-rule="evenodd" />
    </clipPath>
  </defs>
  <g id="icon--youtube" clip-path="url(#clip_1)">
    <path d="M7.50854 2C8.81155 2 10.2835 2.1689 11.9243 2.50671C13.1328 2.75552 14 3.81945 14 5.0533L14 9.95122C14 11.1841 13.1341 12.2475 11.9268 12.4973C10.3069 12.8324 8.843 13 7.53491 13C6.21889 13 4.73326 12.8304 3.07804 12.4912C1.86843 12.2433 1 11.1789 1 9.94413L1 5.05502C1.00002 3.82072 1.86784 2.75654 3.0769 2.5082C4.72641 2.1694 6.20362 2 7.50854 2L7.50854 2ZM7.50854 3C6.27601 3 4.86501 3.16181 3.27809 3.48775C2.58056 3.63102 2.06759 4.21556 2.00618 4.91392L2 5.05502L2 9.94413C2 10.704 2.53442 11.359 3.27879 11.5116C4.87151 11.8379 6.29101 12 7.53491 12C8.77051 12 10.1676 11.8401 11.7242 11.5181C12.4207 11.3739 12.9326 10.7898 12.9938 10.0922L13 9.95122L13 5.0533C13 4.29401 12.4663 3.63928 11.7226 3.48617C10.1446 3.16128 8.73907 3 7.50854 3L7.50854 3ZM6.0245 5.18133C6.08072 5.05091 6.21843 4.98072 6.35244 5.00463L6.41875 5.02458L10.1608 7.06859C10.2312 7.09891 10.2873 7.15499 10.3176 7.22534C10.3738 7.35575 10.3303 7.50406 10.2209 7.58508L10.1608 7.61958L6.41875 9.66359C6.38125 9.67975 6.34084 9.68809 6.3 9.68809C6.15798 9.68809 6.03902 9.58941 6.00792 9.45688L6 9.38809L6 5.30008C6 5.25924 6.00834 5.21883 6.0245 5.18133L6.0245 5.18133Z" id="Vector" fill="#000000" fill-rule="evenodd" stroke="none" artboard="c95d90a9-b081-4474-9dbd-14a947f456f1" />
  </g>
</svg>