<?xml version="1.0" encoding="utf-8"?>
<svg width="15px" height="15px" viewBox="0 0 15 15" version="1.1" xmlns:xlink="http://www.w3.org/1999/xlink" xmlns="http://www.w3.org/2000/svg">
  <defs>
    <rect width="15" height="15" id="artboard_1" />
    <clipPath id="clip_1">
      <use xlink:href="#artboard_1" clip-rule="evenodd" />
    </clipPath>
  </defs>
  <g id="icon--backward" clip-path="url(#clip_1)">
    <path d="M10.887 4.6385C10.9601 4.72783 11 4.8397 11 4.95512L11 10.0449C11 10.321 10.7762 10.5449 10.5 10.5449C10.3846 10.5449 10.2727 10.5049 10.1834 10.4319L7.07298 7.88698C7.04556 7.86454 7.02113 7.83979 6.99976 7.81325L7.00001 10.0449C7.00001 10.321 6.77615 10.5449 6.50001 10.5449C6.38459 10.5449 6.27272 10.5049 6.18339 10.4319L3.07298 7.88698C2.85926 7.71212 2.82776 7.3971 3.00262 7.18338C3.02368 7.15765 3.04725 7.13408 3.07298 7.11302L6.18339 4.56814C6.39711 4.39328 6.71212 4.42478 6.88699 4.6385C6.96008 4.72783 7.00001 4.8397 7.00001 4.95512L6.9995 7.18724C7.02368 7.15765 7.04725 7.13408 7.07298 7.11302L10.1834 4.56814C10.3971 4.39328 10.7121 4.42478 10.887 4.6385Z" id="Path-Copy" fill="#000000" fill-rule="evenodd" stroke="none" artboard="3b074a17-ae43-4587-b464-de9ba83990b5" />
  </g>
</svg>