<?xml version="1.0" encoding="utf-8"?>
<svg width="15px" height="15px" viewBox="0 0 15 15" version="1.1" xmlns:xlink="http://www.w3.org/1999/xlink" xmlns="http://www.w3.org/2000/svg">
  <defs>
    <rect width="15" height="15" id="artboard_1" />
    <clipPath id="clip_1">
      <use xlink:href="#artboard_1" clip-rule="evenodd" />
    </clipPath>
  </defs>
  <g id="icon--backward-fast" clip-path="url(#clip_1)">
    <path d="M3.5 4C3.77614 4 4 4.22386 4 4.5L4.00261 7.18338L4.00261 7.18338C4.02367 7.15765 4.04724 7.13408 4.07297 7.11302L7.18338 4.56814C7.3971 4.39328 7.71211 4.42478 7.88698 4.6385C7.96007 4.72783 8 4.8397 8 4.95512L7.99949 7.18724C8.02367 7.15765 8.04724 7.13408 8.07297 7.11302L11.1834 4.56814C11.3971 4.39328 11.7121 4.42478 11.887 4.6385C11.9601 4.72783 12 4.8397 12 4.95512L12 10.0449C12 10.321 11.7761 10.5449 11.5 10.5449C11.3846 10.5449 11.2727 10.5049 11.1834 10.4319L8.07297 7.88698C8.04555 7.86454 8.02112 7.83979 7.99975 7.81325L8 10.0449C8 10.321 7.77614 10.5449 7.5 10.5449C7.38458 10.5449 7.27271 10.5049 7.18338 10.4319L4.07297 7.88698C4.04555 7.86454 4.02112 7.83979 3.99975 7.81325L4 10.5C4 10.7761 3.77614 11 3.5 11C3.22386 11 3 10.7761 3 10.5L3 4.5C3 4.22386 3.22386 4 3.5 4Z" id="Path" fill="#000000" fill-rule="evenodd" stroke="none" artboard="7726ef30-7110-4e7a-8346-978aab3ac51f" />
  </g>
</svg>