<?xml version="1.0" encoding="utf-8"?>
<svg width="15px" height="15px" viewBox="0 0 15 15" version="1.1" xmlns:xlink="http://www.w3.org/1999/xlink" xmlns="http://www.w3.org/2000/svg">
  <defs>
    <rect width="15" height="15" id="artboard_1" />
    <clipPath id="clip_1">
      <use xlink:href="#artboard_1" clip-rule="evenodd" />
    </clipPath>
  </defs>
  <g id="icon--backward-step" clip-path="url(#clip_1)">
    <path d="M5.501 4L5.499 4Q5.44985 4 5.40165 4.00959Q5.35345 4.01918 5.30804 4.03798Q5.26263 4.05679 5.22177 4.0841Q5.18091 4.1114 5.14615 4.14615Q5.1114 4.18091 5.0841 4.22177Q5.05679 4.26263 5.03798 4.30804Q5.01918 4.35345 5.00959 4.40165Q5 4.44985 5 4.499L5 10.501Q5 10.5501 5.00959 10.5983Q5.01918 10.6466 5.03798 10.692Q5.05679 10.7374 5.0841 10.7782Q5.1114 10.8191 5.14615 10.8538Q5.18091 10.8886 5.22177 10.9159Q5.26263 10.9432 5.30804 10.962Q5.35345 10.9808 5.40165 10.9904Q5.44985 11 5.499 11L5.501 11Q5.55015 11 5.59835 10.9904Q5.64655 10.9808 5.69196 10.962Q5.73736 10.9432 5.77823 10.9159Q5.81909 10.8886 5.85385 10.8538Q5.8886 10.8191 5.9159 10.7782Q5.94321 10.7374 5.96202 10.692Q5.98082 10.6466 5.99041 10.5983Q6 10.5501 6 10.501L6 7.81355C6.02132 7.83998 6.04566 7.86462 6.07298 7.88698L9.18339 10.4319C9.27272 10.5049 9.38459 10.5449 9.50001 10.5449C9.77615 10.5449 10 10.321 10 10.0449L10 4.95512C10 4.8397 9.96008 4.72783 9.88699 4.6385C9.71212 4.42478 9.39711 4.39328 9.18339 4.56814L6.07298 7.11302C6.04725 7.13408 6.02368 7.15765 6.00262 7.18338C6.00174 7.18446 6.00087 7.18553 6 7.18661L6 4.499Q6 4.44985 5.99041 4.40165Q5.98082 4.35345 5.96202 4.30804Q5.94321 4.26263 5.9159 4.22177Q5.8886 4.18091 5.85385 4.14615Q5.81909 4.1114 5.77823 4.0841Q5.73736 4.05679 5.69196 4.03798Q5.64655 4.01918 5.59835 4.00959Q5.55015 4 5.501 4Z" id="Combined-Shape" fill="#000000" fill-rule="evenodd" stroke="none" artboard="40e219cb-b125-4cad-b177-37298b1fde55" />
  </g>
</svg>