<?xml version="1.0" encoding="utf-8"?>
<svg width="15px" height="15px" viewBox="0 0 15 15" version="1.1" xmlns:xlink="http://www.w3.org/1999/xlink" xmlns="http://www.w3.org/2000/svg">
  <defs>
    <rect width="15" height="15" id="artboard_1" />
    <clipPath id="clip_1">
      <use xlink:href="#artboard_1" clip-rule="evenodd" />
    </clipPath>
  </defs>
  <g id="icon--cassette" clip-path="url(#clip_1)">
    <path d="M13.5 3C13.7761 3 14 3.22386 14 3.5L14 11.5C14 11.7761 13.7761 12 13.5 12L1.5 12C1.22386 12 1 11.7761 1 11.5L1 3.5C1 3.22386 1.22386 3 1.5 3L13.5 3ZM13 4L2 4L2 11L4.333 11L4.88623 9.34113Q4.91108 9.26663 4.95761 9.20335Q5.00414 9.14008 5.06786 9.09417Q5.13158 9.04825 5.20632 9.02412Q5.28106 9 5.3596 9L9.6404 9Q9.71894 9 9.79368 9.02413Q9.86842 9.04825 9.93214 9.09417Q9.99586 9.14009 10.0424 9.20335Q10.0889 9.26663 10.1138 9.34113L10.667 11L13 11L13 4ZM9.27902 10L5.72002 10L5.38702 11L9.61202 11L9.27902 10ZM4.5 5C5.32843 5 6 5.67157 6 6.5C6 7.32843 5.32843 8 4.5 8C3.67157 8 3 7.32843 3 6.5C3 5.67157 3.67157 5 4.5 5ZM10.5 5C11.3284 5 12 5.67157 12 6.5C12 7.32843 11.3284 8 10.5 8C9.67157 8 9 7.32843 9 6.5C9 5.67157 9.67157 5 10.5 5ZM4.49999 5.8C4.11339 5.8 3.79999 6.1134 3.79999 6.5C3.79999 6.8866 4.11339 7.2 4.49999 7.2C4.88659 7.2 5.19999 6.8866 5.19999 6.5C5.19999 6.1134 4.88659 5.8 4.49999 5.8ZM10.5 5.8C10.1134 5.8 9.79999 6.1134 9.79999 6.5C9.79999 6.8866 10.1134 7.2 10.5 7.2C10.8866 7.2 11.2 6.8866 11.2 6.5C11.2 6.1134 10.8866 5.8 10.5 5.8ZM8.5 6L8.5 7L6.5 7L6.5 6L8.5 6Z" id="Shape" fill="#000000" fill-rule="evenodd" stroke="none" artboard="cd373a84-8e1a-4219-a991-02b720f26aba" />
  </g>
</svg>