<?xml version="1.0" encoding="utf-8"?>
<svg width="15px" height="15px" viewBox="0 0 15 15" version="1.1" xmlns:xlink="http://www.w3.org/1999/xlink" xmlns="http://www.w3.org/2000/svg">
  <defs>
    <rect width="15" height="15" id="artboard_1" />
    <clipPath id="clip_1">
      <use xlink:href="#artboard_1" clip-rule="evenodd" />
    </clipPath>
  </defs>
  <g id="icon--forward" clip-path="url(#clip_1)">
    <path d="M4.11301 4.6385C4.03992 4.72783 3.99999 4.8397 3.99999 4.95512L3.99999 10.0449C3.99999 10.321 4.22385 10.5449 4.49999 10.5449C4.61541 10.5449 4.72728 10.5049 4.81661 10.4319L7.92702 7.88698C7.95444 7.86454 7.97887 7.83979 8.00024 7.81325L7.99999 10.0449C7.99999 10.321 8.22385 10.5449 8.49999 10.5449C8.61541 10.5449 8.72728 10.5049 8.81661 10.4319L11.927 7.88698C12.1407 7.71212 12.1722 7.3971 11.9974 7.18338C11.9763 7.15765 11.9528 7.13408 11.927 7.11302L8.81661 4.56814C8.60289 4.39328 8.28788 4.42478 8.11301 4.6385C8.03992 4.72783 7.99999 4.8397 7.99999 4.95512L8.0005 7.18724C7.97632 7.15765 7.95275 7.13408 7.92702 7.11302L4.81661 4.56814C4.60289 4.39328 4.28788 4.42478 4.11301 4.6385Z" id="Path-Copy" fill="#000000" fill-rule="evenodd" stroke="none" artboard="1543fbb5-031a-4fa7-9221-c4d979dc564c" />
  </g>
</svg>