<?xml version="1.0" encoding="utf-8"?>
<svg width="15px" height="15px" viewBox="0 0 15 15" version="1.1" xmlns:xlink="http://www.w3.org/1999/xlink" xmlns="http://www.w3.org/2000/svg">
  <defs>
    <rect width="15" height="15" id="artboard_1" />
    <clipPath id="clip_1">
      <use xlink:href="#artboard_1" clip-rule="evenodd" />
    </clipPath>
  </defs>
  <g id="icon--forward-fast" clip-path="url(#clip_1)">
    <path d="M11.5 4C11.2239 4 11 4.22386 11 4.5L10.9974 7.18338L10.9974 7.18338C10.9763 7.15765 10.9528 7.13408 10.927 7.11302L7.81662 4.56814C7.6029 4.39328 7.28789 4.42478 7.11302 4.6385C7.03993 4.72783 7 4.8397 7 4.95512L7.00051 7.18724C6.97633 7.15765 6.95276 7.13408 6.92703 7.11302L3.81662 4.56814C3.6029 4.39328 3.28789 4.42478 3.11302 4.6385C3.03993 4.72783 3 4.8397 3 4.95512L3 10.0449C3 10.321 3.22386 10.5449 3.5 10.5449C3.61542 10.5449 3.72729 10.5049 3.81662 10.4319L6.92703 7.88698C6.95445 7.86454 6.97888 7.83979 7.00025 7.81325L7 10.0449C7 10.321 7.22386 10.5449 7.5 10.5449C7.61542 10.5449 7.72729 10.5049 7.81662 10.4319L10.927 7.88698C10.9545 7.86454 10.9789 7.83979 11.0003 7.81325L11 10.5C11 10.7761 11.2239 11 11.5 11C11.7761 11 12 10.7761 12 10.5L12 4.5C12 4.22386 11.7761 4 11.5 4Z" id="Path-Copy" fill="#000000" fill-rule="evenodd" stroke="none" artboard="493f44f1-a9f4-4968-af64-319e465682c6" />
  </g>
</svg>