<?xml version="1.0" encoding="utf-8"?>
<svg width="15px" height="15px" viewBox="0 0 15 15" version="1.1" xmlns:xlink="http://www.w3.org/1999/xlink" xmlns="http://www.w3.org/2000/svg">
  <defs>
    <rect width="15" height="15" id="artboard_1" />
    <clipPath id="clip_1">
      <use xlink:href="#artboard_1" clip-rule="evenodd" />
    </clipPath>
  </defs>
  <g id="icon--forward-step" clip-path="url(#clip_1)">
    <path d="M9.499 4L9.501 4Q9.55015 4 9.59835 4.00959Q9.64655 4.01918 9.69196 4.03798Q9.73736 4.05679 9.77823 4.0841Q9.81909 4.1114 9.85385 4.14615Q9.8886 4.18091 9.9159 4.22177Q9.94321 4.26263 9.96202 4.30804Q9.98082 4.35345 9.99041 4.40165Q10 4.44985 10 4.499L10 10.501Q10 10.5501 9.99041 10.5983Q9.98082 10.6466 9.96202 10.692Q9.94321 10.7374 9.9159 10.7782Q9.8886 10.8191 9.85385 10.8538Q9.81909 10.8886 9.77823 10.9159Q9.73736 10.9432 9.69196 10.962Q9.64655 10.9808 9.59835 10.9904Q9.55015 11 9.501 11L9.499 11Q9.44985 11 9.40165 10.9904Q9.35345 10.9808 9.30804 10.962Q9.26263 10.9432 9.22177 10.9159Q9.18091 10.8886 9.14615 10.8538Q9.1114 10.8191 9.0841 10.7782Q9.05679 10.7374 9.03798 10.692Q9.01918 10.6466 9.00959 10.5983Q9 10.5501 9 10.501L9 7.81355C8.97868 7.83998 8.95434 7.86463 8.92702 7.88698L5.81661 10.4319C5.72728 10.5049 5.61541 10.5449 5.49999 10.5449C5.22385 10.5449 4.99999 10.321 4.99999 10.0449L4.99999 4.95512C4.99999 4.8397 5.03992 4.72784 5.11301 4.6385C5.28788 4.42478 5.60289 4.39328 5.81661 4.56814L8.92702 7.11302C8.95275 7.13408 8.97632 7.15765 8.99738 7.18338C8.99826 7.18446 8.99913 7.18554 9 7.18662L9 4.499Q9 4.44985 9.00959 4.40165Q9.01918 4.35345 9.03798 4.30804Q9.05679 4.26263 9.0841 4.22177Q9.1114 4.18091 9.14615 4.14615Q9.18091 4.1114 9.22177 4.0841Q9.26263 4.05679 9.30804 4.03798Q9.35345 4.01918 9.40165 4.00959Q9.44985 4 9.499 4Z" id="Combined-Shape" fill="#000000" fill-rule="evenodd" stroke="none" artboard="9dcfc8ae-555d-49fa-a527-8d8ba24b1c15" />
  </g>
</svg>