<?xml version="1.0" encoding="utf-8"?>
<svg width="15px" height="15px" viewBox="0 0 15 15" version="1.1" xmlns:xlink="http://www.w3.org/1999/xlink" xmlns="http://www.w3.org/2000/svg">
  <defs>
    <rect width="15" height="15" id="artboard_1" />
    <clipPath id="clip_1">
      <use xlink:href="#artboard_1" clip-rule="evenodd" />
    </clipPath>
  </defs>
  <g id="icon--ghettoblaster" clip-path="url(#clip_1)">
    <path d="M9.5 3C10.3284 3 11 3.67157 11 4.5L11 5L13.5 5C13.7761 5 14 5.22386 14 5.5L14 11.5C14 11.7761 13.7761 12 13.5 12L1.5 12C1.22386 12 1 11.7761 1 11.5L1 5.5C1 5.22386 1.22386 5 1.5 5L4 5L4 4.5C4 3.67157 4.67157 3 5.5 3L9.5 3ZM13 6L2 6L2 11L13 11L13 6ZM4.49999 6.8C5.43887 6.8 6.19999 7.56112 6.19999 8.5C6.19999 9.43888 5.43887 10.2 4.49999 10.2C3.5611 10.2 2.79999 9.43888 2.79999 8.5C2.79999 7.56112 3.5611 6.8 4.49999 6.8ZM10.5 6.8C11.4389 6.8 12.2 7.56112 12.2 8.5C12.2 9.43888 11.4389 10.2 10.5 10.2C9.5611 10.2 8.79999 9.43888 8.79999 8.5C8.79999 7.56112 9.5611 6.8 10.5 6.8ZM4.49998 7.6C4.00292 7.6 3.59998 8.00294 3.59998 8.5C3.59998 8.99706 4.00292 9.4 4.49998 9.4C4.99703 9.4 5.39998 8.99706 5.39998 8.5C5.39998 8.00294 4.99703 7.6 4.49998 7.6ZM10.5 7.6C10.0029 7.6 9.59998 8.00294 9.59998 8.5C9.59998 8.99706 10.0029 9.4 10.5 9.4C10.997 9.4 11.4 8.99706 11.4 8.5C11.4 8.00294 10.997 7.6 10.5 7.6ZM7.5 7C7.77614 7 8 7.22386 8 7.5C8 7.77614 7.77614 8 7.5 8C7.22386 8 7 7.77614 7 7.5C7 7.22386 7.22386 7 7.5 7ZM9.5 4L5.5 4C5.25454 4 5.05039 4.17688 5.00806 4.41012L5 4.5L5 5L10 5L10 4.5C10 4.25454 9.82312 4.05039 9.58988 4.00806L9.5 4Z" id="Shape" fill="#000000" fill-rule="evenodd" stroke="none" artboard="06bf4bb1-7f67-435c-bae8-1d5f159547c6" />
  </g>
</svg>