<?xml version="1.0" encoding="utf-8"?>
<svg width="15px" height="15px" viewBox="0 0 15 15" version="1.1" xmlns:xlink="http://www.w3.org/1999/xlink" xmlns="http://www.w3.org/2000/svg">
  <defs>
    <rect width="15" height="15" id="artboard_1" />
    <clipPath id="clip_1">
      <use xlink:href="#artboard_1" clip-rule="evenodd" />
    </clipPath>
  </defs>
  <g id="icon--microphone-dynamic" clip-path="url(#clip_1)">
    <path d="M7.99999 0.799999C9.7673 0.799999 11.2 2.23269 11.2 4C11.2 4.87725 10.847 5.67206 10.2753 6.25012L9.54501 13.5498C9.51945 13.8054 9.30437 14 9.04749 14L6.95248 14C6.69561 14 6.48052 13.8054 6.45496 13.5498L5.7247 6.25012C5.15299 5.67206 4.79999 4.87725 4.79999 4C4.79999 2.23269 6.23268 0.799999 7.99999 0.799999ZM6.69507 6.92271L7.314 13.1L8.685 13.1L9.30295 6.9236C8.90495 7.10124 8.46401 7.2 8 7.2C7.53522 7.2 7.09359 7.10091 6.69507 6.92271ZM8.5 8L8.5 9L7.5 9L7.5 8L8.5 8ZM7.99999 1.8C6.78496 1.8 5.79999 2.78497 5.79999 4C5.79999 5.21503 6.78496 6.2 7.99999 6.2C9.21501 6.2 10.2 5.21503 10.2 4C10.2 2.78497 9.21501 1.8 7.99999 1.8Z" id="Shape" fill="#000000" fill-rule="evenodd" stroke="none" artboard="9420a4b4-db39-403d-9942-a357fd5fb7ce" />
  </g>
</svg>