<?xml version="1.0" encoding="utf-8"?>
<svg width="15px" height="15px" viewBox="0 0 15 15" version="1.1" xmlns:xlink="http://www.w3.org/1999/xlink" xmlns="http://www.w3.org/2000/svg">
  <defs>
    <rect width="15" height="15" id="artboard_1" />
    <clipPath id="clip_1">
      <use xlink:href="#artboard_1" clip-rule="evenodd" />
    </clipPath>
  </defs>
  <g id="icon--music" clip-path="url(#clip_1)">
    <path d="M6.47261 3.52461L12.5262 1.49839C12.7876 1.41091 12.9994 1.56341 12.9994 1.839C12.9996 3.61168 13 9.5 13 9.5C13 10.8807 11.8807 12 10.5 12C9.11929 12 8 10.8807 8 9.5C8 8.11929 9.11929 7 10.5 7C11.0632 7 11.583 7.18626 12.001 7.50055C12.001 7.50055 11.9994 2.73 11.9994 2.73C11.9994 2.73 6.99941 4.403 6.99941 4.403C6.99941 4.403 7 11.5 7 11.5C7 12.8807 5.88071 14 4.5 14C3.11929 14 2 12.8807 2 11.5C2 10.1193 3.11929 9 4.5 9C5.06324 9 5.58297 9.18626 6.00097 9.50055L5.99954 4.182C5.99947 3.90641 6.21127 3.61209 6.47261 3.52461ZM4.5 10C3.67157 10 3 10.6716 3 11.5C3 12.3284 3.67157 13 4.5 13C5.32843 13 6 12.3284 6 11.5C6 10.6716 5.32843 10 4.5 10ZM10.5 8C9.67157 8 9 8.67157 9 9.5C9 10.3284 9.67157 11 10.5 11C11.3284 11 12 10.3284 12 9.5C12 8.67157 11.3284 8 10.5 8Z" id="Shape" fill="#000000" fill-rule="evenodd" stroke="none" artboard="aa4f3685-e1c6-488d-b644-73a771b6441e" />
  </g>
</svg>