<?xml version="1.0" encoding="utf-8"?>
<svg width="15px" height="15px" viewBox="0 0 15 15" version="1.1" xmlns:xlink="http://www.w3.org/1999/xlink" xmlns="http://www.w3.org/2000/svg">
  <defs>
    <rect width="15" height="15" id="artboard_1" />
    <clipPath id="clip_1">
      <use xlink:href="#artboard_1" clip-rule="evenodd" />
    </clipPath>
  </defs>
  <g id="icon--radio" clip-path="url(#clip_1)">
    <path d="M11 2.499C11 3.09137 11 4 11 4C11 4 12.5 4 12.5 4C12.7761 4 13 4.22386 13 4.5C13 4.5 13 11.5 13 11.5C13 11.7761 12.7761 12 12.5 12C12.5 12 2.5 12 2.5 12C2.22386 12 2 11.7761 2 11.5C2 11.5 2 4.5 2 4.5C2 4.22386 2.22386 4 2.5 4C2.5 4 10 4 10 4L10 2.499Q10 2.44985 10.0096 2.40165Q10.0192 2.35345 10.038 2.30804Q10.0568 2.26263 10.0841 2.22177Q10.1114 2.18091 10.1462 2.14615Q10.1809 2.1114 10.2218 2.0841Q10.2626 2.05679 10.308 2.03798Q10.3534 2.01918 10.4016 2.00959Q10.4499 2 10.499 2L10.501 2Q10.5501 2 10.5983 2.00959Q10.6466 2.01918 10.692 2.03798Q10.7374 2.05679 10.7782 2.0841Q10.8191 2.1114 10.8538 2.14615Q10.8886 2.18091 10.9159 2.22177Q10.9432 2.26263 10.962 2.30804Q10.9808 2.35345 10.9904 2.40165Q11 2.44985 11 2.499ZM6 6L5 6L5 7L3 7L3 11L12 11L12 7L6 7L6 6ZM10 8C10.5523 8 11 8.44772 11 9C11 9.55228 10.5523 10 10 10C9.44772 10 9 9.55228 9 9C9 8.44772 9.44772 8 10 8ZM4.5 9C4.77614 9 5 9.22386 5 9.5C5 9.77614 4.77614 10 4.5 10C4.22386 10 4 9.77614 4 9.5C4 9.22386 4.22386 9 4.5 9ZM6.5 9C6.77614 9 7 9.22386 7 9.5C7 9.77614 6.77614 10 6.5 10C6.22386 10 6 9.77614 6 9.5C6 9.22386 6.22386 9 6.5 9Z" id="Shape" fill="#000000" fill-rule="evenodd" stroke="none" artboard="0f8eb5d9-f065-4b10-a4fc-4a063c5cfead" />
  </g>
</svg>