<?xml version="1.0" encoding="utf-8"?>
<svg width="15px" height="15px" viewBox="0 0 15 15" version="1.1" xmlns:xlink="http://www.w3.org/1999/xlink" xmlns="http://www.w3.org/2000/svg">
  <defs>
    <rect width="15" height="15" id="artboard_1" />
    <clipPath id="clip_1">
      <use xlink:href="#artboard_1" clip-rule="evenodd" />
    </clipPath>
  </defs>
  <g id="icon--volume-up" clip-path="url(#clip_1)">
    <path d="M8 12.0668L8 2.93319Q8 2.86545 7.98194 2.80017Q7.96389 2.73488 7.92908 2.67677Q7.89427 2.61866 7.84523 2.57193Q7.79619 2.52521 7.73647 2.49324Q7.67675 2.46128 7.61067 2.44639Q7.54459 2.4315 7.47693 2.43477Q7.40928 2.43804 7.34494 2.45922Q7.2806 2.48041 7.22424 2.51797L3.5 5.00039L1.499 5.00039Q1.44985 5.00039 1.40165 5.00997Q1.35345 5.01956 1.30804 5.03837Q1.26263 5.05718 1.22177 5.08448Q1.18091 5.11179 1.14615 5.14654Q1.1114 5.18129 1.0841 5.22216Q1.05679 5.26302 1.03798 5.30843Q1.01918 5.35383 1.00959 5.40204Q1 5.45024 1 5.49939L1 9.50056Q1 9.5497 1.00959 9.5979Q1.01918 9.64611 1.03798 9.69151Q1.05679 9.73692 1.0841 9.77778Q1.1114 9.81865 1.14615 9.8534Q1.18091 9.88815 1.22177 9.91546Q1.26263 9.94276 1.30804 9.96157Q1.35345 9.98038 1.40165 9.98997Q1.44985 9.99956 1.499 9.99956L3.5 9.99956L7.22424 12.482Q7.2806 12.5195 7.34494 12.5407Q7.40928 12.5619 7.47693 12.5652Q7.54459 12.5684 7.61067 12.5536Q7.67675 12.5387 7.73647 12.5067Q7.79619 12.4747 7.84523 12.428Q7.89427 12.3813 7.92908 12.3232Q7.96389 12.2651 7.98194 12.1998Q8 12.1345 8 12.0668ZM14.9926 7.52532C14.9926 5.72498 14.5395 4.03046 13.7411 2.54959L12.8137 2.9381C13.565 4.29802 13.9926 5.86174 13.9926 7.52532C13.9926 9.1889 13.565 10.7526 12.8137 12.1125L13.7411 12.501C14.5395 11.0202 14.9926 9.32566 14.9926 7.52532ZM12.9927 7.52532C12.9927 6.17887 12.6796 4.90553 12.1223 3.77414L11.1741 4.11462C11.6974 5.13784 11.9927 6.2971 11.9927 7.52532C11.9927 8.75354 11.6974 9.9128 11.1741 10.936L12.1223 11.2765C12.6796 10.1451 12.9927 8.87177 12.9927 7.52532ZM4 5.86624L7 3.80058L7 11.1994L4 9.1337L4 5.86624ZM10.3654 4.73591C10.7676 5.58116 10.9927 6.52695 10.9927 7.52532C10.9927 8.52368 10.7676 9.46948 10.3654 10.3147L9.40005 10.0114C9.77906 9.26476 9.99268 8.41999 9.99268 7.52532C9.99268 6.63065 9.77906 5.78588 9.40005 5.03922L10.3654 4.73591ZM3 6.00021L3 8.99971L2 8.99971L2 6.00021L3 6.00021Z" id="Shape-Union" fill="#000000" fill-rule="evenodd" stroke="none" artboard="bdf61f4d-05e3-4c03-ac34-33420c4197dc" />
  </g>
</svg>