<?xml version="1.0" encoding="utf-8"?>
<svg width="15px" height="15px" viewBox="0 0 15 15" version="1.1" xmlns:xlink="http://www.w3.org/1999/xlink" xmlns="http://www.w3.org/2000/svg">
  <defs>
    <rect width="15" height="15" id="artboard_1" />
    <clipPath id="clip_1">
      <use xlink:href="#artboard_1" clip-rule="evenodd" />
    </clipPath>
  </defs>
  <g id="icon--volume-cross" clip-path="url(#clip_1)">
    <path d="M10.088 9.37645L11.5022 10.89L12.9164 9.37645C13.1117 9.18118 13.4283 9.18118 13.6235 9.37645C13.8188 9.57171 13.8188 9.88829 13.6235 10.0836L12.1044 11.4978L13.6235 12.912C13.8188 13.1072 13.8188 13.4238 13.6235 13.6191C13.4283 13.8143 13.1117 13.8143 12.9164 13.6191L11.5022 12.1L10.088 13.6191C9.89273 13.8143 9.57615 13.8143 9.38088 13.6191C9.18562 13.4238 9.18562 13.1072 9.38088 12.912L10.8944 11.4978L9.38088 10.0836C9.18562 9.88829 9.18562 9.57171 9.38088 9.37645C9.57615 9.18118 9.89273 9.18118 10.088 9.37645ZM9.91603 2.65691C9.97078 2.73904 10 2.83555 10 2.93426L10 7.9992L9 7.9992L9 3.8L6 5.866L6 9.134L8.5 10.8552L8.5 12.0002L5.5 10L3.5 10C3.22386 10 3 9.77614 3 9.5L3 5.5C3 5.22386 3.22386 5 3.5 5L5.5 5L9.22265 2.51823C9.45241 2.36506 9.76285 2.42714 9.91603 2.65691ZM5 6L4 6L4 9L5 9L5 6Z" id="Shape" fill="#000000" fill-rule="evenodd" stroke="none" artboard="52fa9d3c-5908-4ec2-a1ca-9206b8befe54" />
  </g>
</svg>