<?xml version="1.0" encoding="utf-8"?>
<svg width="15px" height="15px" viewBox="0 0 15 15" version="1.1" xmlns:xlink="http://www.w3.org/1999/xlink" xmlns="http://www.w3.org/2000/svg">
  <defs>
    <rect width="15" height="15" id="artboard_1" />
    <clipPath id="clip_1">
      <use xlink:href="#artboard_1" clip-rule="evenodd" />
    </clipPath>
  </defs>
  <g id="icon--volume-down" clip-path="url(#clip_1)">
    <path d="M8 12.0676L8 2.93239Q8 2.86465 7.98194 2.79936Q7.96388 2.73407 7.92907 2.67596Q7.89426 2.61785 7.84522 2.57112Q7.79618 2.5244 7.73646 2.49243Q7.67673 2.46047 7.61065 2.44558Q7.54457 2.4307 7.47691 2.43397Q7.40925 2.43724 7.34491 2.45843Q7.28057 2.47962 7.2242 2.5172L3.5 5L1.499 5Q1.44985 5 1.40165 5.00959Q1.35345 5.01918 1.30804 5.03798Q1.26263 5.05679 1.22177 5.0841Q1.18091 5.1114 1.14615 5.14615Q1.1114 5.1809 1.0841 5.22177Q1.05679 5.26263 1.03798 5.30804Q1.01918 5.35345 1.00959 5.40165Q1 5.44985 1 5.499L1 9.501Q1 9.55014 1.00959 9.59835Q1.01918 9.64655 1.03798 9.69196Q1.05679 9.73736 1.0841 9.77823Q1.1114 9.81909 1.14615 9.85384Q1.18091 9.8886 1.22177 9.9159Q1.26263 9.9432 1.30804 9.96201Q1.35345 9.98082 1.40165 9.99041Q1.44985 10 1.499 10L3.5 10L7.2242 12.4828Q7.28057 12.5204 7.34491 12.5416Q7.40925 12.5628 7.47691 12.566Q7.54457 12.5693 7.61065 12.5544Q7.67673 12.5395 7.73646 12.5076Q7.79618 12.4756 7.84522 12.4289Q7.89426 12.3821 7.92907 12.324Q7.96388 12.2659 7.98194 12.2006Q8 12.1353 8 12.0676ZM4 5.866L7 3.8L7 11.2L4 9.134L4 5.866ZM10.9927 7.52531C10.9927 6.52695 10.7676 5.58115 10.3654 4.73591L9.40005 5.03921C9.77906 5.78587 9.99268 6.63064 9.99268 7.52531C9.99268 8.41998 9.77906 9.26475 9.40005 10.0114L10.3654 10.3147C10.7676 9.46947 10.9927 8.52368 10.9927 7.52531ZM3 6L3 9L2 9L2 6L3 6Z" id="Shape-Union" fill="#000000" fill-rule="evenodd" stroke="none" artboard="a37478e7-705d-4d66-83ec-3d79529d9370" />
  </g>
</svg>