<?xml version="1.0" encoding="utf-8"?>
<svg width="15px" height="15px" viewBox="0 0 15 15" version="1.1" xmlns:xlink="http://www.w3.org/1999/xlink" xmlns="http://www.w3.org/2000/svg">
  <defs>
    <rect width="15" height="15" id="artboard_1" />
    <clipPath id="clip_1">
      <use xlink:href="#artboard_1" clip-rule="evenodd" />
    </clipPath>
  </defs>
  <g id="icon--volume-off" clip-path="url(#clip_1)">
    <path d="M3.85355 2.84645L12.6317 11.6246C12.827 11.8199 12.827 12.1365 12.6317 12.3317C12.4365 12.527 12.1199 12.527 11.9246 12.3317L10 10.4072L10 12.0657C10 12.3419 9.77614 12.5657 9.5 12.5657C9.40129 12.5657 9.30478 12.5365 9.22265 12.4818L5.5 10L3.5 10C3.22386 10 3 9.77614 3 9.5L3 5.5C3 5.22386 3.22386 5 3.5 5L4.592 4.99921L3.14645 3.55355C2.95118 3.35829 2.95118 3.04171 3.14645 2.84645C3.34171 2.65118 3.65829 2.65118 3.85355 2.84645ZM6 6.40721L6 9.134L9 11.2L9 9.40721L6 6.40721ZM5 6L4 6L4 9L5 9L5 6ZM9.91603 2.65691C9.97079 2.73904 10 2.83555 10 2.93426L10 7.59321L9.00001 6.59321L9.00001 3.8L7.34501 4.93921L6.64301 4.23721L9.22266 2.51823C9.45242 2.36506 9.76285 2.42714 9.91603 2.65691Z" id="Shape" fill="#000000" fill-rule="evenodd" stroke="none" artboard="6f9a7aae-459e-4ca3-92d1-2a3776f51251" />
  </g>
</svg>