<?xml version="1.0" encoding="utf-8"?>
<svg width="15px" height="15px" viewBox="0 0 15 15" version="1.1" xmlns:xlink="http://www.w3.org/1999/xlink" xmlns="http://www.w3.org/2000/svg">
  <defs>
    <rect width="15" height="15" id="artboard_1" />
    <clipPath id="clip_1">
      <use xlink:href="#artboard_1" clip-rule="evenodd" />
    </clipPath>
  </defs>
  <g id="icon--volume" clip-path="url(#clip_1)">
    <path d="M11 2.93239L11 12.0676Q11 12.1013 10.9955 12.1347Q10.9909 12.1681 10.9819 12.2006Q10.973 12.2331 10.9597 12.2641Q10.9464 12.2951 10.9291 12.324Q10.9117 12.353 10.8907 12.3793Q10.8696 12.4056 10.8452 12.4289Q10.8208 12.4521 10.7935 12.4719Q10.7662 12.4917 10.7365 12.5076Q10.7067 12.5235 10.6751 12.5352Q10.6435 12.547 10.6107 12.5544Q10.5778 12.5618 10.5442 12.5647Q10.5106 12.5677 10.4769 12.566Q10.4432 12.5644 10.4101 12.5583Q10.3769 12.5521 10.3449 12.5416Q10.3129 12.531 10.2826 12.5163Q10.2523 12.5015 10.2242 12.4828L6.5 10L4.499 10Q4.44985 10 4.40165 9.99041Q4.35345 9.98082 4.30804 9.96202Q4.26263 9.94321 4.22177 9.9159Q4.18091 9.8886 4.14615 9.85385Q4.1114 9.81909 4.0841 9.77823Q4.05679 9.73736 4.03798 9.69196Q4.01918 9.64655 4.00959 9.59835Q4 9.55015 4 9.501L4 5.499Q4 5.44985 4.00959 5.40165Q4.01918 5.35345 4.03798 5.30804Q4.05679 5.26263 4.0841 5.22177Q4.1114 5.18091 4.14615 5.14615Q4.18091 5.1114 4.22177 5.0841Q4.26263 5.05679 4.30804 5.03798Q4.35345 5.01918 4.40165 5.00959Q4.44985 5 4.499 5L6.5 5L10.2242 2.5172Q10.2523 2.49849 10.2826 2.48374Q10.3129 2.46898 10.3449 2.45843Q10.3769 2.44789 10.4101 2.44174Q10.4432 2.4356 10.4769 2.43397Q10.5106 2.43234 10.5442 2.43526Q10.5778 2.43818 10.6107 2.44559Q10.6435 2.45299 10.6751 2.46476Q10.7067 2.47653 10.7365 2.49243Q10.7662 2.50834 10.7935 2.52811Q10.8208 2.54787 10.8452 2.57113Q10.8696 2.59438 10.8907 2.62071Q10.9117 2.64704 10.9291 2.67597Q10.9464 2.70489 10.9597 2.73588Q10.973 2.76687 10.9819 2.79936Q10.9909 2.83186 10.9955 2.86527Q11 2.89868 11 2.93239ZM10 3.8L7 5.866L7 9.134L10 11.2L10 3.8ZM6 9L6 6L5 6L5 9L6 9Z" id="Shape" fill="#000000" fill-rule="evenodd" stroke="none" artboard="c99d5495-13bc-4179-8c79-67e4e5fbb7f0" />
  </g>
</svg>