<?xml version="1.0" encoding="utf-8"?>
<svg width="15px" height="15px" viewBox="0 0 15 15" version="1.1" xmlns:xlink="http://www.w3.org/1999/xlink" xmlns="http://www.w3.org/2000/svg">
  <defs>
    <rect width="15" height="15" id="artboard_1" />
    <clipPath id="clip_1">
      <use xlink:href="#artboard_1" clip-rule="evenodd" />
    </clipPath>
  </defs>
  <g id="icon--brush" clip-path="url(#clip_1)">
    <path d="M9.64637 2.47373L9.28547 5L9.14261 6L11.0008 6C11.5528 6 12.0239 6.19516 12.4143 6.58549C12.8046 6.97582 12.9998 7.44699 12.9998 7.999L12.9998 14.501C12.9998 14.7766 12.7763 15 12.5008 15L2.49876 15C2.22317 15 1.99976 14.7766 1.99976 14.501L1.99976 7.999C1.99976 7.44699 2.19492 6.97582 2.58525 6.58549C2.97558 6.19517 3.44675 6 3.99876 6L5.8569 6L5.71404 5L5.35315 2.47373C5.30872 2.16276 5.33086 1.8566 5.41957 1.55525C5.50827 1.2539 5.65553 0.984572 5.86135 0.74726C6.06717 0.509948 6.31297 0.326077 6.59875 0.195646C6.88452 0.0652153 7.18447 1.13493e-15 7.4986 1.13493e-15L7.50091 1.13493e-15C7.81504 -9.93411e-09 8.11499 0.0652153 8.40077 0.195646C8.68654 0.326077 8.93234 0.509948 9.13816 0.74726C9.34398 0.984572 9.49124 1.2539 9.57995 1.55525C9.66865 1.8566 9.69079 2.16276 9.64637 2.47373L9.64637 2.47373ZM3 9L3 7.999C3 7.666 3.08325 7.41625 3.24975 7.24975C3.41625 7.08325 3.666 7 3.999 7L7.01015 7L6.34334 2.33231C6.29311 1.98072 6.38435 1.67077 6.61705 1.40246C6.84975 1.13415 7.14369 1 7.49885 1L7.50115 1C7.85631 1 8.15025 1.13415 8.38295 1.40246C8.61565 1.67077 8.70689 1.98072 8.65666 2.33231L7.98985 7L11.001 7C11.667 7 12 7.333 12 7.999L12 9L3 9L3 9ZM7.499 1.5L7.501 1.5C7.63879 1.5 7.75641 1.54872 7.85385 1.64615C7.95128 1.74359 8 1.8612 8 1.999L8 2.001C8 2.1388 7.95128 2.25641 7.85385 2.35385C7.75641 2.45128 7.63879 2.5 7.501 2.5L7.499 2.5C7.3612 2.5 7.24359 2.45128 7.14615 2.35385C7.04872 2.25641 7 2.13879 7 2.001L7 1.999C7 1.8612 7.04872 1.74359 7.14615 1.64615C7.24359 1.54872 7.3612 1.5 7.499 1.5L7.499 1.5ZM9 14L9 12.499C9 12.3612 8.95128 12.2436 8.85385 12.1462C8.75641 12.0487 8.63879 12 8.501 12L8.499 12C8.36121 12 8.24359 12.0487 8.14615 12.1462C8.04872 12.2436 8 12.3612 8 12.499L8 14L7 14L7 13.499C7 13.3612 6.95128 13.2436 6.85385 13.1462C6.75641 13.0487 6.63879 13 6.501 13L6.499 13C6.3612 13 6.24359 13.0487 6.14615 13.1462C6.04872 13.2436 6 13.3612 6 13.499L6 14L5 14L5 11.499C5 11.3612 4.95128 11.2436 4.85385 11.1462C4.75641 11.0487 4.63879 11 4.501 11L4.499 11C4.3612 11 4.24359 11.0487 4.14615 11.1462C4.04872 11.2436 4 11.3612 4 11.499L4 14L3 14L3 10L12 10L12 14L11 14L11 13.499C11 13.3612 10.9513 13.2436 10.8538 13.1462C10.7564 13.0487 10.6388 13 10.501 13L10.499 13C10.3612 13 10.2436 13.0487 10.1462 13.1462C10.0487 13.2436 10 13.3612 10 13.499L10 14L9 14L9 14Z" id="Vector" fill="#000000" fill-rule="evenodd" stroke="none" artboard="3f41f178-dd9c-428b-b625-8b0bf8222d56" />
  </g>
</svg>