<?xml version="1.0" encoding="utf-8"?>
<svg width="15px" height="15px" viewBox="0 0 15 15" version="1.1" xmlns:xlink="http://www.w3.org/1999/xlink" xmlns="http://www.w3.org/2000/svg">
  <defs>
    <rect width="15" height="15" id="artboard_1" />
    <clipPath id="clip_1">
      <use xlink:href="#artboard_1" clip-rule="evenodd" />
    </clipPath>
  </defs>
  <g id="icon--building" clip-path="url(#clip_1)">
    <path d="M3.499 2L11.501 2C11.6388 2 11.7564 2.04872 11.8538 2.14615C11.9513 2.24359 12 2.3612 12 2.499L12 3L11.9998 3L11.9998 13L13.501 13C13.6388 13 13.7564 13.0487 13.8538 13.1462C13.9513 13.2436 14 13.3612 14 13.499L14 13.501C14 13.6388 13.9513 13.7564 13.8538 13.8538C13.7564 13.9513 13.6388 14 13.501 14L11.499 14C11.3612 14 11.2436 13.9513 11.1462 13.8538C11.0487 13.7564 11 13.6388 11 13.501L11 13L10.9998 13L10.9998 3L4 3L4 13L5 13L5 10.499C5 10.3612 5.04872 10.2436 5.14615 10.1462C5.24359 10.0487 5.36121 10 5.499 10L9.501 10C9.63879 10 9.75641 10.0487 9.85385 10.1462C9.95128 10.2436 10 10.3612 10 10.499L10 13.501C10 13.6388 9.95128 13.7564 9.85385 13.8538C9.75641 13.9513 9.63879 14 9.501 14L1.499 14C1.3612 14 1.24359 13.9513 1.14615 13.8538C1.04872 13.7564 1 13.6388 1 13.501L1 13.499C1 13.3612 1.04872 13.2436 1.14615 13.1462C1.24359 13.0487 1.3612 13 1.499 13L3 13L3 2.499C3 2.3612 3.04872 2.24359 3.14615 2.14615C3.24359 2.04872 3.3612 2 3.499 2L3.499 2ZM6.501 4L5.499 4C5.36121 4 5.24359 4.04872 5.14615 4.14615C5.04872 4.24359 5 4.3612 5 4.499L5 4.501C5 4.63879 5.04872 4.75641 5.14615 4.85385C5.24359 4.95128 5.36121 5 5.499 5L6.501 5C6.63879 5 6.75641 4.95128 6.85385 4.85385C6.95128 4.75641 7 4.63879 7 4.501L7 4.499C7 4.3612 6.95128 4.24359 6.85385 4.14615C6.75641 4.04872 6.63879 4 6.501 4L6.501 4ZM8.499 4L9.501 4C9.63879 4 9.75641 4.04872 9.85385 4.14615C9.95128 4.24359 10 4.3612 10 4.499L10 4.501C10 4.63879 9.95128 4.75641 9.85385 4.85385C9.75641 4.95128 9.63879 5 9.501 5L8.499 5C8.36121 5 8.24359 4.95128 8.14615 4.85385C8.04872 4.75641 8 4.63879 8 4.501L8 4.499C8 4.3612 8.04872 4.24359 8.14615 4.14615C8.24359 4.04872 8.36121 4 8.499 4L8.499 4ZM6.501 6L5.499 6C5.36121 6 5.24359 6.04872 5.14615 6.14615C5.04872 6.24359 5 6.3612 5 6.499L5 6.501C5 6.63879 5.04872 6.75641 5.14615 6.85385C5.24359 6.95128 5.36121 7 5.499 7L6.501 7C6.63879 7 6.75641 6.95128 6.85385 6.85385C6.95128 6.75641 7 6.63879 7 6.501L7 6.499C7 6.3612 6.95128 6.24359 6.85385 6.14615C6.75641 6.04872 6.63879 6 6.501 6L6.501 6ZM8.499 6L9.501 6C9.63879 6 9.75641 6.04872 9.85385 6.14615C9.95128 6.24359 10 6.3612 10 6.499L10 6.501C10 6.63879 9.95128 6.75641 9.85385 6.85385C9.75641 6.95128 9.63879 7 9.501 7L8.499 7C8.36121 7 8.24359 6.95128 8.14615 6.85385C8.04872 6.75641 8 6.63879 8 6.501L8 6.499C8 6.3612 8.04872 6.24359 8.14615 6.14615C8.24359 6.04872 8.36121 6 8.499 6L8.499 6ZM6.501 8L5.499 8C5.36121 8 5.24359 8.04872 5.14615 8.14615C5.04872 8.24359 5 8.36121 5 8.499L5 8.501C5 8.63879 5.04872 8.75641 5.14615 8.85385C5.24359 8.95128 5.36121 9 5.499 9L6.501 9C6.63879 9 6.75641 8.95128 6.85385 8.85385C6.95128 8.75641 7 8.63879 7 8.501L7 8.499C7 8.36121 6.95128 8.24359 6.85385 8.14615C6.75641 8.04872 6.63879 8 6.501 8L6.501 8ZM8.499 8L9.501 8C9.63879 8 9.75641 8.04872 9.85385 8.14615C9.95128 8.24359 10 8.36121 10 8.499L10 8.501C10 8.63879 9.95128 8.75641 9.85385 8.85385C9.75641 8.95128 9.63879 9 9.501 9L8.499 9C8.36121 9 8.24359 8.95128 8.14615 8.85385C8.04872 8.75641 8 8.63879 8 8.501L8 8.499C8 8.36121 8.04872 8.24359 8.14615 8.14615C8.24359 8.04872 8.36121 8 8.499 8L8.499 8ZM6 13L7 13L7 11L6 11L6 13L6 13ZM8 13L9 13L9 11L8 11L8 13L8 13Z" id="Vector" fill="#000000" fill-rule="evenodd" stroke="none" artboard="4dd95c56-db38-4765-b580-36645b113205" />
  </g>
</svg>