<?xml version="1.0" encoding="utf-8"?>
<svg width="15px" height="15px" viewBox="0 0 15 15" version="1.1" xmlns:xlink="http://www.w3.org/1999/xlink" xmlns="http://www.w3.org/2000/svg">
  <defs>
    <rect width="15" height="15" id="artboard_1" />
    <clipPath id="clip_1">
      <use xlink:href="#artboard_1" clip-rule="evenodd" />
    </clipPath>
  </defs>
  <g id="icon--crane" clip-path="url(#clip_1)">
    <path d="M10.5001 0C10.7762 -5.07265e-17 11.0001 0.223858 11.0001 0.5L11.0001 3.5L10.999 3.506L11.8548 4.79306C11.9457 4.93008 11.9635 5.10307 11.9023 5.25573L10.1259 9.68615C10.0499 9.87574 9.86621 10 9.66194 10.0001L8.00853 10.0004L8.0108 10.3047C8.0108 10.4154 8.08165 10.5338 8.28919 10.7372L8.55148 10.9802C9.15334 11.5293 9.41815 11.9161 9.41815 12.545C9.41815 13.7844 8.54608 14.5047 7.43412 14.5047C6.39429 14.5047 5.45008 13.6461 5.45008 12.545C5.45008 12.2689 5.67394 12.045 5.95008 12.045C6.19554 12.045 6.39969 12.2219 6.44203 12.4552L6.45008 12.545C6.45008 13.0715 6.92648 13.5047 7.43412 13.5047C8.0315 13.5047 8.41815 13.1853 8.41815 12.545C8.41815 12.3139 8.3132 12.1349 8.00343 11.8367L7.70782 11.5641C7.23317 11.1252 7.0108 10.7969 7.0108 10.3047L7.00708 10L5.33865 10C5.13417 10 4.9503 9.87549 4.87439 9.68563L3.09775 5.24207C3.03661 5.08916 3.05469 4.91594 3.14608 4.77895L4.00001 3.498L4.00008 0.5C4.00008 0.223858 4.22394 5.07265e-17 4.50008 0C4.77622 -5.07265e-17 5.00008 0.223858 5.00008 0.5L5.00042 2.07734C5.07922 2.02755 5.17157 2 5.26756 2L9.7319 2C9.82851 2 9.92141 2.0279 10.0005 2.07828L10.0001 0.5C10.0001 0.223858 10.2239 5.07265e-17 10.5001 0ZM9.46305 3L5.53305 3L4.12305 5.114L5.67705 9L9.32205 9L10.875 5.127L9.46305 3ZM7.5 4C8.32843 4 9 4.67157 9 5.5C9 6.32843 8.32843 7 7.5 7C6.67157 7 6 6.32843 6 5.5C6 4.67157 6.67157 4 7.5 4ZM7.50005 4.8C7.11345 4.8 6.80005 5.1134 6.80005 5.5C6.80005 5.8866 7.11345 6.2 7.50005 6.2C7.88665 6.2 8.20005 5.8866 8.20005 5.5C8.20005 5.1134 7.88665 4.8 7.50005 4.8Z" id="Shape" fill="#000000" fill-rule="evenodd" stroke="none" artboard="23e73850-0f39-49cd-a440-1f1dccbeed53" />
  </g>
</svg>