<?xml version="1.0" encoding="utf-8"?>
<svg width="15px" height="15px" viewBox="0 0 15 15" version="1.1" xmlns:xlink="http://www.w3.org/1999/xlink" xmlns="http://www.w3.org/2000/svg">
  <defs>
    <rect width="15" height="15" id="artboard_1" />
    <clipPath id="clip_1">
      <use xlink:href="#artboard_1" clip-rule="evenodd" />
    </clipPath>
  </defs>
  <g id="icon--drillingmachine" clip-path="url(#clip_1)">
    <path d="M1.499 1L8.501 1C8.6388 1 8.75641 1.04872 8.85385 1.14615C8.95128 1.24359 9 1.3612 9 1.499L9 2L10.501 2C10.6388 2 10.7564 2.04872 10.8538 2.14615C10.9513 2.24359 11 2.3612 11 2.499L11 3L14.501 3C14.6388 3 14.7564 3.04872 14.8538 3.14615C14.9513 3.24359 15 3.3612 15 3.499L15 3.501C15 3.63879 14.9513 3.75641 14.8538 3.85385C14.7564 3.95128 14.6388 4 14.501 4L11 4L11 4.501C11 4.63879 10.9513 4.75641 10.8538 4.85385C10.7564 4.95128 10.6388 5 10.501 5L9 5L9 5.501C9 5.63879 8.95128 5.75641 8.85385 5.85385C8.75641 5.95128 8.6388 6 8.501 6L7 6L7 7.501C7 7.6388 6.95128 7.75641 6.85385 7.85385C6.75641 7.95128 6.6388 8 6.501 8L5 8L4.33333 10L7.501 10C7.63879 10 7.75641 10.0487 7.85385 10.1462C7.95128 10.2436 8 10.3612 8 10.499L8 13.501C8 13.6388 7.95128 13.7564 7.85385 13.8538C7.75641 13.9513 7.63879 14 7.501 14L1.499 14C1.3612 14 1.24359 13.9513 1.14615 13.8538C1.04872 13.7564 1 13.6388 1 13.501L1 11L2.66667 6L1.499 6C1.3612 6 1.24359 5.95128 1.14615 5.85385C1.04872 5.75641 1 5.63879 1 5.501L1 1.499C1 1.3612 1.04872 1.24359 1.14615 1.14615C1.24359 1.04872 1.3612 1 1.499 1L1.499 1ZM2 5L8 5L8 2L2 2L2 5L2 5ZM3.49876 3L5.50076 3C5.63855 3 5.75617 3.04872 5.8536 3.14615C5.95104 3.24359 5.99976 3.3612 5.99976 3.499L5.99976 3.501C5.99976 3.63879 5.95104 3.75641 5.8536 3.85385C5.75617 3.95128 5.63855 4 5.50076 4L3.49876 4C3.36096 4 3.24335 3.95128 3.14591 3.85385C3.04847 3.75641 2.99976 3.63879 2.99976 3.501L2.99976 3.499C2.99976 3.3612 3.04847 3.24359 3.14591 3.14615C3.24335 3.04872 3.36096 3 3.49876 3L3.49876 3ZM9 4L9 3L10 3L10 4L9 4L9 4ZM3.72078 6L2.38745 10L3.27927 10L4.6126 6L3.72078 6L3.72078 6ZM5.69515 6L6.2666 6L6.2666 7.2L5.2666 7.2L5.69515 6L5.69515 6ZM2 11L7 11L7 13L2 13L2 11L2 11Z" id="Vector" fill="#000000" fill-rule="evenodd" stroke="none" artboard="1e63b483-f389-41cd-acec-2438e6fc9a06" />
  </g>
</svg>