<?xml version="1.0" encoding="utf-8"?>
<svg width="15px" height="15px" viewBox="0 0 15 15" version="1.1" xmlns:xlink="http://www.w3.org/1999/xlink" xmlns="http://www.w3.org/2000/svg">
  <defs>
    <rect width="15" height="15" id="artboard_1" />
    <clipPath id="clip_1">
      <use xlink:href="#artboard_1" clip-rule="evenodd" />
    </clipPath>
  </defs>
  <g id="icon--magnet" clip-path="url(#clip_1)">
    <path d="M3.22191 9.7L3.7876 10.2657L2.83759 11.2154L4.96028 11.9331L3.08562 13.8077L2.51993 13.2421L3.48318 12.2782L1.36035 11.5616L3.22191 9.7ZM11.6819 3.31802C13.4393 5.07538 13.4393 7.92462 11.6819 9.68198L8.49995 12.864L6.37863 10.7426L9.56061 7.56066C10.1464 6.97487 10.1464 6.02513 9.56061 5.43934C9.01143 4.89017 8.14237 4.85584 7.55321 5.33637L7.43929 5.43934L4.25731 8.62132L2.13599 6.5L5.31797 3.31802C7.07533 1.56066 9.92457 1.56066 11.6819 3.31802ZM8.66303 9.87L7.79199 10.742L8.49899 11.449L9.37003 10.577L8.66303 9.87ZM6.17464 3.88391L6.02502 4.02513L5.12793 4.921L5.83593 5.629L6.76868 4.69747L6.92111 4.56144C7.91111 3.75398 9.35849 3.82306 10.2677 4.73223C11.2015 5.6661 11.2421 7.15496 10.3895 8.13708L10.2677 8.26777L9.36993 9.163L10.0769 9.87L10.9748 8.97487C12.2928 7.65685 12.3399 5.54917 11.116 4.17475L10.9748 4.02513C9.65674 2.70711 7.54906 2.66003 6.17464 3.88391ZM4.42084 5.628L3.5498 6.5L4.2568 7.207L5.12784 6.335L4.42084 5.628Z" id="Shape" fill="#000000" fill-rule="evenodd" stroke="none" artboard="c5317c0e-a5fb-443b-8ffd-2f2c61549952" />
  </g>
</svg>