<?xml version="1.0" encoding="utf-8"?>
<svg width="15px" height="15px" viewBox="0 0 15 15" version="1.1" xmlns:xlink="http://www.w3.org/1999/xlink" xmlns="http://www.w3.org/2000/svg">
  <defs>
    <rect width="15" height="15" id="artboard_1" />
    <clipPath id="clip_1">
      <use xlink:href="#artboard_1" clip-rule="evenodd" />
    </clipPath>
  </defs>
  <g id="icon--measuring-tape" clip-path="url(#clip_1)">
    <path d="M7 2C9.76142 2 12 4.23858 12 7L12.351 7C12.5785 7 12.7773 7.15353 12.8348 7.3736L12.9668 7.87891C12.9886 7.96227 12.9884 8.04984 12.9664 8.13314L12.8356 8.62784C12.7775 8.8472 12.5791 9 12.3522 9L12 9L12 10L13.5 10C13.7761 10 14 10.2239 14 10.5L14 12.5C14 12.7761 13.7761 13 13.5 13C13.2239 13 13 12.7761 13 12.5L13 11L12 11L12 11.5C12 11.7761 11.7761 12 11.5 12L7.5 12C7.45993 12 7.42097 11.9953 7.38362 11.9864L7.21689 11.9954L7 12L5 12C3.34315 12 2 10.6569 2 9L2 7L2.00462 6.78311C2.11818 4.12231 4.31125 2 7 2ZM7 3C4.92262 3 3.20523 4.58742 3.01772 6.60759L3.00439 6.8044L3 7L3 9C3 10.0544 3.81588 10.9182 4.85074 10.9945L5 11L6.97871 11.0002L7.16302 10.9968L7.4745 10.98L7.559 11L11 11L11 7C11 4.79086 9.20914 3 7 3ZM7 4C8.65685 4 10 5.34315 10 7C10 8.65685 8.65685 10 7 10C5.34315 10 4 8.65685 4 7C4 5.34315 5.34315 4 7 4ZM7 5C5.89543 5 5 5.89543 5 7C5 8.10457 5.89543 9 7 9C8.10457 9 9 8.10457 9 7C9 5.89543 8.10457 5 7 5Z" id="Shape" fill="#000000" fill-rule="evenodd" stroke="none" artboard="62be27d1-eb60-497a-a999-7fdd1b3e3927" />
  </g>
</svg>