<?xml version="1.0" encoding="utf-8"?>
<svg width="15px" height="15px" viewBox="0 0 15 15" version="1.1" xmlns:xlink="http://www.w3.org/1999/xlink" xmlns="http://www.w3.org/2000/svg">
  <defs>
    <rect width="15" height="15" id="artboard_1" />
    <clipPath id="clip_1">
      <use xlink:href="#artboard_1" clip-rule="evenodd" />
    </clipPath>
  </defs>
  <g id="icon--spray-can" clip-path="url(#clip_1)">
    <path d="M8 3.499L8 4L8.2505 4Q8.3683 4 8.47366 4.05268Q8.57902 4.10536 8.6497 4.1996L9.9002 5.86693Q10 6 10 6.16633L10 13.501Q10 13.5501 9.99041 13.5983Q9.98082 13.6466 9.96202 13.692Q9.94321 13.7374 9.9159 13.7782Q9.8886 13.8191 9.85385 13.8538Q9.81909 13.8886 9.77823 13.9159Q9.73736 13.9432 9.69196 13.962Q9.64655 13.9808 9.59835 13.9904Q9.55015 14 9.501 14L5.499 14Q5.44985 14 5.40165 13.9904Q5.35345 13.9808 5.30804 13.962Q5.26263 13.9432 5.22177 13.9159Q5.18091 13.8886 5.14615 13.8538Q5.1114 13.8191 5.0841 13.7782Q5.05679 13.7374 5.03798 13.692Q5.01918 13.6466 5.00959 13.5983Q5 13.5501 5 13.501L5 6.16633Q5 6 5.0998 5.86693L6.3503 4.1996Q6.42098 4.10536 6.52634 4.05268Q6.6317 4 6.7495 4L7 4L7 3.499Q7 3.44985 7.00959 3.40165Q7.01918 3.35345 7.03798 3.30804Q7.05679 3.26263 7.0841 3.22177Q7.1114 3.18091 7.14615 3.14615Q7.18091 3.1114 7.22177 3.0841Q7.26263 3.05679 7.30804 3.03798Q7.35345 3.01918 7.40165 3.00959Q7.44985 3 7.499 3L7.501 3Q7.55015 3 7.59835 3.00959Q7.64655 3.01918 7.69196 3.03798Q7.73736 3.05679 7.77823 3.0841Q7.81909 3.1114 7.85385 3.14615Q7.8886 3.18091 7.9159 3.22177Q7.94321 3.26263 7.96201 3.30804Q7.98082 3.35345 7.99041 3.40165Q8 3.44985 8 3.499ZM9 6.8L6 6.8L6 13L9 13L9 6.8ZM8.0499 4.9L6.9499 4.9L6.1499 6L8.8499 6L8.0499 4.9ZM3.4999 3.9C3.83127 3.9 4.0999 4.16863 4.0999 4.5C4.0999 4.83137 3.83127 5.1 3.4999 5.1C3.16853 5.1 2.8999 4.83137 2.8999 4.5C2.8999 4.16863 3.16853 3.9 3.4999 3.9ZM5.4999 2.9C5.83127 2.9 6.0999 3.16863 6.0999 3.5C6.0999 3.83137 5.83127 4.1 5.4999 4.1C5.16853 4.1 4.8999 3.83137 4.8999 3.5C4.8999 3.16863 5.16853 2.9 5.4999 2.9ZM3.4999 1.9C3.83127 1.9 4.0999 2.16863 4.0999 2.5C4.0999 2.83137 3.83127 3.1 3.4999 3.1C3.16853 3.1 2.8999 2.83137 2.8999 2.5C2.8999 2.16863 3.16853 1.9 3.4999 1.9ZM1.4999 2.9C1.83127 2.9 2.0999 3.16863 2.0999 3.5C2.0999 3.83137 1.83127 4.1 1.4999 4.1C1.16853 4.1 0.899902 3.83137 0.899902 3.5C0.899902 3.16863 1.16853 2.9 1.4999 2.9ZM1.4999 4.9C1.83127 4.9 2.0999 5.16863 2.0999 5.5C2.0999 5.83137 1.83127 6.1 1.4999 6.1C1.16853 6.1 0.899902 5.83137 0.899902 5.5C0.899902 5.16863 1.16853 4.9 1.4999 4.9ZM1.4999 0.9C1.83127 0.9 2.0999 1.16863 2.0999 1.5C2.0999 1.83137 1.83127 2.1 1.4999 2.1C1.16853 2.1 0.899902 1.83137 0.899902 1.5C0.899902 1.16863 1.16853 0.9 1.4999 0.9Z" id="Shape" fill="#000000" fill-rule="evenodd" stroke="none" artboard="05ef0e3f-f2aa-46ac-83e1-93597c795561" />
  </g>
</svg>