<?xml version="1.0" encoding="utf-8"?>
<svg width="15px" height="15px" viewBox="0 0 15 15" version="1.1" xmlns:xlink="http://www.w3.org/1999/xlink" xmlns="http://www.w3.org/2000/svg">
  <defs>
    <rect width="15" height="15" id="artboard_1" />
    <clipPath id="clip_1">
      <use xlink:href="#artboard_1" clip-rule="evenodd" />
    </clipPath>
  </defs>
  <g id="icon--swissknife" clip-path="url(#clip_1)">
    <path d="M13.2676 1.73385C13.7559 2.22215 14 2.81157 14 3.50212C14 4.19267 13.7559 4.78209 13.2676 5.27039L8.96822 9.56974L9.31356 9.93535L9.85559 9.53232L11.0935 9.64486L11.5528 10.1312L12.0856 9.73505L13.3437 9.84942L13.7945 10.3268L14.3175 9.93795L14.5462 9.95874C14.6747 9.97042 14.7825 10.0239 14.8695 10.1192C14.9565 10.2145 15 10.3266 15 10.4557L15 12.501C15 12.6388 14.9513 12.7564 14.8538 12.8538C14.7564 12.9513 14.6388 13 14.501 13L5.53796 13L5.27039 13.2676C5.0359 13.5021 4.76547 13.6828 4.4591 13.8097C4.15273 13.9366 3.83374 14 3.50212 14C3.17051 14 2.85152 13.9366 2.54514 13.8097C2.23877 13.6828 1.96834 13.5021 1.73386 13.2676L1.73244 13.2662C1.49795 13.0317 1.31726 12.7612 1.19036 12.4549C1.06345 12.1485 1 11.8295 1 11.4979C1 11.1663 1.06345 10.8473 1.19035 10.5409C1.31726 10.2345 1.49795 9.96411 1.73244 9.72962L5.454 6.00806C4.40014 6.00721 3.50516 6.00483 3 6.00001C1.01367 5.98102 0 3.99121 0 3.99121C0 3.99121 0.985108 2 3 2L9.46205 2L9.72961 1.73244C10.2179 1.24415 10.8073 1 11.4979 1C12.1884 1 12.7779 1.24415 13.2661 1.73244L13.2676 1.73385L13.2676 1.73385ZM10.4372 2.44004L2.44001 10.4372C1.73289 11.1443 1.73289 11.8515 2.44001 12.5586L2.44142 12.56C3.14854 13.2671 3.85566 13.2671 4.56278 12.56L12.5599 4.56281C13.2671 3.85569 13.2671 3.14857 12.5599 2.44145L12.5585 2.44004C11.8514 1.73292 11.1443 1.73292 10.4372 2.44004L10.4372 2.44004ZM7.77121 3L2.99989 3C2.22937 3 1.61564 3.32877 1.15869 3.98631C1.62712 4.65483 2.24141 4.99273 3.00156 5.00001L6.45629 5.00577L8.46205 3L7.77121 3L7.77121 3ZM10.5 4C10.5 4.27614 10.7239 4.5 11 4.5C11.2761 4.5 11.5 4.27614 11.5 4C11.5 3.72386 11.2761 3.5 11 3.5C10.7239 3.5 10.5 3.72386 10.5 4L10.5 4ZM13.9999 12L13.9999 10.9132L8.1559 10.3819L6.53784 12L13.9999 12L13.9999 12ZM3.5 11C3.5 11.2761 3.72386 11.5 4 11.5C4.27614 11.5 4.5 11.2761 4.5 11C4.5 10.7239 4.27614 10.5 4 10.5C3.72386 10.5 3.5 10.7239 3.5 11L3.5 11Z" id="Vector" fill="#000000" fill-rule="evenodd" stroke="none" artboard="9fde8f0b-1e5c-4d8e-a9da-182225d7ee65" />
  </g>
</svg>