<?xml version="1.0" encoding="utf-8"?>
<svg width="15px" height="15px" viewBox="0 0 15 15" version="1.1" xmlns:xlink="http://www.w3.org/1999/xlink" xmlns="http://www.w3.org/2000/svg">
  <defs>
    <rect width="15" height="15" id="artboard_1" />
    <clipPath id="clip_1">
      <use xlink:href="#artboard_1" clip-rule="evenodd" />
    </clipPath>
  </defs>
  <g id="icon--traffic-cone" clip-path="url(#clip_1)">
    <path d="M8.34538 1C8.57085 1 8.76843 1.15091 8.82776 1.36844L11.727 12L12.5 12C12.7761 12 13 12.2239 13 12.5L13 13.5C13 13.7761 12.7761 14 12.5 14L2.5 14C2.22386 14 2 13.7761 2 13.5L2 12.5C2 12.2239 2.22386 12 2.5 12L3.272 12L6.17224 1.36844C6.23157 1.15091 6.42915 1 6.65462 1L8.34538 1ZM10.1451 10L4.85408 10L4.30908 12L10.6901 12L10.1451 10ZM9.0539 6L5.9449 6L5.3999 8L9.5989 8L9.0539 6ZM7.96297 2L7.03597 2L6.49097 4L8.50797 4L7.96297 2Z" id="Shape" fill="#000000" fill-rule="evenodd" stroke="none" artboard="54455a8b-a688-4409-b07f-9cdf89078ae2" />
  </g>
</svg>