<?xml version="1.0" encoding="utf-8"?>
<svg width="15px" height="15px" viewBox="0 0 15 15" version="1.1" xmlns:xlink="http://www.w3.org/1999/xlink" xmlns="http://www.w3.org/2000/svg">
  <defs>
    <rect width="15" height="15" id="artboard_1" />
    <clipPath id="clip_1">
      <use xlink:href="#artboard_1" clip-rule="evenodd" />
    </clipPath>
  </defs>
  <g id="icon--triangle" clip-path="url(#clip_1)">
    <path d="M2.20471 14L13.501 14C13.6388 14 13.7564 13.9513 13.8539 13.8538C13.9513 13.7564 14 13.6388 14 13.501L14 2.20469C14 2.10378 13.972 2.01137 13.9159 1.92746C13.8598 1.84355 13.7852 1.78229 13.692 1.74367C13.5987 1.70506 13.5026 1.69559 13.4037 1.71528C13.3047 1.73497 13.2195 1.78049 13.1482 1.85184L1.85186 13.1482C1.7805 13.2195 1.73498 13.3047 1.71529 13.4036C1.69561 13.5026 1.70507 13.5987 1.74369 13.692C1.78231 13.7852 1.84357 13.8598 1.92748 13.9159C2.01138 13.972 2.10379 14 2.20471 14L2.20471 14ZM13.0001 3.41422L3.41431 13L13.0001 13L13.0001 3.41422L13.0001 3.41422ZM7.20471 12L11.501 12C11.6388 12 11.7564 11.9513 11.8539 11.8538C11.9513 11.7564 12 11.6388 12 11.501L12 7.20469C12 7.10378 11.972 7.01137 11.9159 6.92746C11.8599 6.84355 11.7852 6.78229 11.692 6.74367C11.5987 6.70506 11.5026 6.69559 11.4037 6.71528C11.3047 6.73497 11.2195 6.78049 11.1482 6.85184L6.85186 11.1482C6.7805 11.2195 6.73498 11.3047 6.71529 11.4036C6.69561 11.5026 6.70507 11.5987 6.74369 11.692C6.78231 11.7852 6.84357 11.8598 6.92748 11.9159C7.01138 11.972 7.10379 12 7.20471 12L7.20471 12ZM11.0001 8.41422L8.41431 11L11.0001 11L11.0001 8.41422L11.0001 8.41422Z" id="Vector" fill="#000000" fill-rule="evenodd" stroke="none" artboard="a518aaa6-6502-4161-8f71-746db1cc8d1b" />
  </g>
</svg>