<?xml version="1.0" encoding="utf-8"?>
<svg width="15px" height="15px" viewBox="0 0 15 15" version="1.1" xmlns:xlink="http://www.w3.org/1999/xlink" xmlns="http://www.w3.org/2000/svg">
  <defs>
    <rect width="15" height="15" id="artboard_1" />
    <clipPath id="clip_1">
      <use xlink:href="#artboard_1" clip-rule="evenodd" />
    </clipPath>
  </defs>
  <g id="icon--card-cross" clip-path="url(#clip_1)">
    <path d="M3.999 1L11.001 1Q11.4148 1 11.7074 1.2926C11.9025 1.48767 12 1.72313 12 1.999L12 13.001C12 13.2769 11.9025 13.5123 11.7074 13.7074C11.5123 13.9025 11.2769 14 11.001 14L3.999 14C3.72313 14 3.48767 13.9025 3.2926 13.7074Q3 13.4148 3 13.001L3 1.999Q3 1.5852 3.2926 1.2926Q3.5852 1 3.999 1ZM4 13L4 2L11 2L11 13L4 13ZM7.23229 7.84066L6.29853 8.4009Q6.06928 8.53845 5.80196 8.54182C5.62374 8.54407 5.45708 8.50129 5.30198 8.41347C5.14689 8.32566 5.02446 8.20476 4.93469 8.05078C4.84493 7.89681 4.80005 7.7307 4.80005 7.55247L4.80005 7.44751C4.80005 7.26928 4.84493 7.10317 4.9347 6.9492C5.02446 6.79522 5.14689 6.67432 5.30199 6.58651C5.45709 6.4987 5.62375 6.45591 5.80196 6.45816C5.98018 6.46041 6.14571 6.50739 6.29854 6.59909L7.21058 7.14632L6.57664 6.09848Q6.43829 5.86979 6.43418 5.60255C6.43144 5.42438 6.47383 5.25769 6.56134 5.10247C6.64885 4.94725 6.76953 4.8247 6.92338 4.73482C7.07724 4.64494 7.24326 4.6 7.42144 4.6L7.54868 4.6Q7.81596 4.6 8.04674 4.73482C8.2006 4.82471 8.32128 4.94726 8.40879 5.10248C8.49629 5.25769 8.53868 5.42439 8.53594 5.60255C8.5332 5.78072 8.48571 5.94603 8.39348 6.09848L7.74249 7.17449L8.70148 6.5991C8.85431 6.5074 9.01983 6.46042 9.19805 6.45817C9.37627 6.45593 9.54293 6.49871 9.69802 6.58652C9.85312 6.67434 9.97555 6.79524 10.0653 6.94921C10.1551 7.10319 10.2 7.26929 10.2 7.44753L10.2 7.55249Q10.2 7.81984 10.0653 8.0508C9.97555 8.20478 9.85312 8.32567 9.69802 8.41349C9.54292 8.5013 9.37627 8.54408 9.19805 8.54184C9.01983 8.53959 8.85431 8.49261 8.70147 8.40091L7.76807 7.84087L7.90024 9.4L8.50024 10L6.50024 10L7.10024 9.4L7.23229 7.84066Z" id="Vector-Union" fill="#000000" fill-rule="evenodd" stroke="none" artboard="f06aec79-0c51-45ec-98d7-83683d44f510" />
  </g>
</svg>