<?xml version="1.0" encoding="utf-8"?>
<svg width="15px" height="15px" viewBox="0 0 15 15" version="1.1" xmlns:xlink="http://www.w3.org/1999/xlink" xmlns="http://www.w3.org/2000/svg">
  <defs>
    <rect width="15" height="15" id="artboard_1" />
    <clipPath id="clip_1">
      <use xlink:href="#artboard_1" clip-rule="evenodd" />
    </clipPath>
  </defs>
  <g id="icon--card-shield" clip-path="url(#clip_1)">
    <path d="M3.999 1L11.001 1Q11.4148 1 11.7074 1.2926C11.9025 1.48767 12 1.72313 12 1.999L12 13.001C12 13.2769 11.9025 13.5123 11.7074 13.7074C11.5123 13.9025 11.2769 14 11.001 14L3.999 14C3.72313 14 3.48767 13.9025 3.2926 13.7074Q3 13.4148 3 13.001L3 1.999Q3 1.5852 3.2926 1.2926Q3.5852 1 3.999 1ZM4 13L4 2L11 2L11 13L4 13ZM9.20005 7.5L7.50005 4.3L5.80005 7.5L7.50005 10.7L9.20005 7.5Z" id="Vector-Union" fill="#000000" fill-rule="evenodd" stroke="none" artboard="7d7e80b7-d081-4004-bd58-a75d552460ae" />
  </g>
</svg>