<?xml version="1.0" encoding="utf-8"?>
<svg width="15px" height="15px" viewBox="0 0 15 15" version="1.1" xmlns:xlink="http://www.w3.org/1999/xlink" xmlns="http://www.w3.org/2000/svg">
  <defs>
    <rect width="15" height="15" id="artboard_1" />
    <clipPath id="clip_1">
      <use xlink:href="#artboard_1" clip-rule="evenodd" />
    </clipPath>
  </defs>
  <g id="icon--chess-bishop" clip-path="url(#clip_1)">
    <path d="M6.499 1C6.3612 1 6.24359 1.04872 6.14615 1.14615C6.04872 1.24359 6 1.3612 6 1.499L6 1.501C6 1.6388 6.04872 1.75641 6.14615 1.85385C6.24359 1.95128 6.3612 2 6.499 2L8.501 2C8.63879 2 8.75641 1.95128 8.85385 1.85385C8.95128 1.75641 9 1.6388 9 1.501L9 1.499C9 1.3612 8.95128 1.24359 8.85385 1.14615C8.75641 1.04872 8.63879 1 8.501 1L6.499 1L6.499 1ZM12 9.125C12 7.16837 10.029 4.44783 8.85411 3L6.14588 3C4.97102 4.44783 3 7.16837 3 9.125C3 10.4934 3.85888 11.2869 5 11.4626L5 13L6 13L6 10.6048L5.15223 10.4743C4.38408 10.356 4 9.9062 4 9.125C4 7.92829 4.87546 6.21996 6.62639 4L8.37361 4C8.96695 4.75228 9.45976 5.44581 9.85203 6.08059C9.8456 6.08519 9.83928 6.08994 9.83307 6.09484C9.82686 6.09974 9.82077 6.10478 9.81481 6.10997L7.92652 7.75143C7.87658 7.79484 7.83685 7.84616 7.80732 7.90537C7.7778 7.96459 7.76073 8.02721 7.75611 8.09322C7.7515 8.15923 7.75969 8.22361 7.78068 8.28636C7.80168 8.34912 7.83389 8.40546 7.8773 8.4554L7.87861 8.45691C7.96901 8.56091 8.08294 8.61771 8.2204 8.62732C8.35786 8.63693 8.47859 8.59654 8.58258 8.50614L10.3538 6.96648C10.7846 7.81187 11 8.53138 11 9.125C11 9.9062 10.6159 10.356 9.84777 10.4743L9 10.6048L9 13L10 13L10 11.4626C11.1411 11.2869 12 10.4934 12 9.125L12 9.125ZM11.5917 14L3.40827 14C3.29553 14 3.1993 14.0487 3.11958 14.1462C3.03986 14.2436 3 14.3612 3 14.499L3 14.501C3 14.6388 3.03986 14.7564 3.11958 14.8538C3.1993 14.9513 3.29553 15 3.40827 15L11.5917 15C11.7045 15 11.8007 14.9513 11.8804 14.8538C11.9601 14.7564 12 14.6388 12 14.501L12 14.499C12 14.3612 11.9601 14.2436 11.8804 14.1462C11.8007 14.0487 11.7045 14 11.5917 14L11.5917 14Z" id="Vector" fill="#000000" fill-rule="evenodd" stroke="none" artboard="064b96d8-24e6-4b2a-ab11-94527023d903" />
  </g>
</svg>