<?xml version="1.0" encoding="utf-8"?>
<svg width="15px" height="15px" viewBox="0 0 15 15" version="1.1" xmlns:xlink="http://www.w3.org/1999/xlink" xmlns="http://www.w3.org/2000/svg">
  <defs>
    <rect width="15" height="15" id="artboard_1" />
    <clipPath id="clip_1">
      <use xlink:href="#artboard_1" clip-rule="evenodd" />
    </clipPath>
  </defs>
  <g id="icon--chess-pawn" clip-path="url(#clip_1)">
    <path d="M7.499 2L7.501 2Q8.74323 2 9.62161 2.87839Q10.5 3.75677 10.5 4.999L10.5 5.001Q10.5 6.15843 9.73744 7L10.001 7Q10.0501 7 10.0983 7.00959Q10.1466 7.01918 10.192 7.03798Q10.2374 7.05679 10.2782 7.0841Q10.3191 7.1114 10.3538 7.14615Q10.3886 7.18091 10.4159 7.22177Q10.4432 7.26263 10.462 7.30804Q10.4808 7.35345 10.4904 7.40165Q10.5 7.44985 10.5 7.499L10.5 7.501Q10.5 7.55015 10.4904 7.59835Q10.4808 7.64655 10.462 7.69196Q10.4432 7.73736 10.4159 7.77823Q10.3886 7.81909 10.3538 7.85385Q10.3191 7.8886 10.2782 7.9159Q10.2374 7.94321 10.192 7.96201Q10.1466 7.98082 10.0983 7.99041Q10.0501 8 10.001 8L9.04915 8Q9.15896 9.10116 9.51278 10.1627C9.85481 11.1889 10.3503 12.1346 10.9992 13L9.7792 13Q9.01203 11.8231 8.56402 10.4789Q8.15877 9.26307 8.04452 8L6.95482 8C6.87866 8.84205 6.70549 9.66836 6.43533 10.4789Q5.98732 11.8231 5.22015 13L4.00024 13C4.6492 12.1346 5.14468 11.1889 5.48671 10.1627C5.72259 9.45501 5.87713 8.73411 5.95034 8L4.999 8Q4.94985 8 4.90165 7.99041Q4.85345 7.98082 4.80804 7.96201Q4.76263 7.94321 4.72177 7.9159Q4.68091 7.8886 4.64615 7.85385Q4.6114 7.81909 4.5841 7.77823Q4.55679 7.73736 4.53798 7.69196Q4.51918 7.64655 4.50959 7.59835Q4.5 7.55015 4.5 7.501L4.5 7.499Q4.5 7.44985 4.50959 7.40165Q4.51918 7.35345 4.53798 7.30804Q4.55679 7.26263 4.5841 7.22177Q4.6114 7.18091 4.64615 7.14615Q4.68091 7.1114 4.72177 7.0841Q4.76263 7.05679 4.80804 7.03798Q4.85345 7.01918 4.90165 7.00959Q4.94985 7 4.999 7L5.26256 7Q4.5 6.15843 4.5 5.001L4.5 4.999Q4.5 3.75677 5.37839 2.87839Q6.25677 2 7.499 2ZM7.499 7L7.501 7Q8.32901 7 8.91451 6.41451Q9.5 5.82901 9.5 5.001L9.5 4.999Q9.5 4.17099 8.91451 3.58549Q8.32901 3 7.501 3L7.499 3Q6.67099 3 6.08549 3.58549Q5.5 4.17099 5.5 4.999L5.5 5.001Q5.5 7 7.499 7ZM3.499 14L11.501 14Q11.5501 14 11.5983 14.0096Q11.6466 14.0192 11.692 14.038Q11.7374 14.0568 11.7782 14.0841Q11.8191 14.1114 11.8538 14.1462Q11.8886 14.1809 11.9159 14.2218Q11.9432 14.2626 11.962 14.308Q11.9808 14.3534 11.9904 14.4016Q12 14.4499 12 14.499L12 14.501Q12 14.5501 11.9904 14.5983Q11.9808 14.6466 11.962 14.692Q11.9432 14.7374 11.9159 14.7782Q11.8886 14.8191 11.8538 14.8538Q11.8191 14.8886 11.7782 14.9159Q11.7374 14.9432 11.692 14.962Q11.6466 14.9808 11.5983 14.9904Q11.5501 15 11.501 15L3.499 15Q3.44985 15 3.40165 14.9904Q3.35345 14.9808 3.30804 14.962Q3.26263 14.9432 3.22177 14.9159Q3.18091 14.8886 3.14615 14.8538Q3.1114 14.8191 3.0841 14.7782Q3.05679 14.7374 3.03798 14.692Q3.01918 14.6466 3.00959 14.5983Q3 14.5501 3 14.501L3 14.499Q3 14.4499 3.00959 14.4016Q3.01918 14.3534 3.03798 14.308Q3.05679 14.2626 3.0841 14.2218Q3.1114 14.1809 3.14615 14.1462Q3.18091 14.1114 3.22177 14.0841Q3.26263 14.0568 3.30804 14.038Q3.35345 14.0192 3.40165 14.0096Q3.44985 14 3.499 14Z" id="Vector-Union" fill="#000000" fill-rule="evenodd" stroke="none" artboard="99ee4d3d-666d-4e86-a778-d9319c9be18a" />
  </g>
</svg>