<?xml version="1.0" encoding="utf-8"?>
<svg width="15px" height="15px" viewBox="0 0 15 15" version="1.1" xmlns:xlink="http://www.w3.org/1999/xlink" xmlns="http://www.w3.org/2000/svg">
  <defs>
    <rect width="15" height="15" id="artboard_1" />
    <clipPath id="clip_1">
      <use xlink:href="#artboard_1" clip-rule="evenodd" />
    </clipPath>
  </defs>
  <g id="icon--chess-king" clip-path="url(#clip_1)">
    <path d="M7.0001 2L7.0001 1L8.0001 1L8.0001 2L10.0001 2L10.0001 3L8.0001 3L8.0001 5L12.4022 5C12.4762 5 12.5467 5.01568 12.6137 5.04703C12.6807 5.07839 12.7379 5.12247 12.7853 5.17927C12.8327 5.23607 12.8658 5.30024 12.8847 5.37177C12.9036 5.44331 12.9064 5.51547 12.8931 5.58826L11.5456 13L10.5292 13L11.8019 6L3.19835 6L4.47107 13L3.45465 13L2.10706 5.58826C2.09383 5.51547 2.09664 5.44331 2.1155 5.37177C2.13437 5.30024 2.1675 5.23607 2.21491 5.17927C2.26231 5.12247 2.31952 5.07839 2.38653 5.04703C2.45353 5.01568 2.52403 5 2.59801 5L7.0001 5L7.0001 3L5.0001 3L5.0001 2L7.0001 2L7.0001 2ZM12.501 14L2.499 14C2.3612 14 2.24359 14.0487 2.14615 14.1462C2.04872 14.2436 2 14.3612 2 14.499L2 14.501C2 14.6388 2.04872 14.7564 2.14615 14.8538C2.24359 14.9513 2.3612 15 2.499 15L12.501 15C12.6388 15 12.7564 14.9513 12.8538 14.8538C12.9513 14.7564 13 14.6388 13 14.501L13 14.499C13 14.3612 12.9513 14.2436 12.8538 14.1462C12.7564 14.0487 12.6388 14 12.501 14L12.501 14Z" id="Vector" fill="#000000" fill-rule="evenodd" stroke="none" artboard="88e7554f-a66b-4d68-8980-63ba78f1fce0" />
  </g>
</svg>