<?xml version="1.0" encoding="utf-8"?>
<svg width="15px" height="15px" viewBox="0 0 15 15" version="1.1" xmlns:xlink="http://www.w3.org/1999/xlink" xmlns="http://www.w3.org/2000/svg">
  <defs>
    <rect width="15" height="15" id="artboard_1" />
    <clipPath id="clip_1">
      <use xlink:href="#artboard_1" clip-rule="evenodd" />
    </clipPath>
  </defs>
  <g id="icon--chess-knight" clip-path="url(#clip_1)">
    <path d="M11.9999 6.99894L11.9999 7.15955L12 7.15955L12 13L10.9999 13L10.9999 12.9999L11 12.9999L11 6.99895Q11 4.92832 9.53579 3.46416Q8.07164 2 6.001 2L4 2L4 2.08579L4.56136 2.64715Q4.70751 2.7933 4.70751 2.99999Q4.70751 3.20668 4.56136 3.35284L4 3.91419L4 6.99895C4 7.16114 4.07209 7.27938 4.21628 7.35365L4.82714 7.66833C4.94982 7.73153 5.07231 7.73117 5.19462 7.66727L6.05889 7.19538C6.15536 7.14271 6.26999 7.01871 6.31493 6.91841L6.99997 5.3897L7.49997 5.8897L7.15765 7.24316C7.10881 7.43626 7.02265 7.61097 6.89919 7.76727C6.77572 7.92358 6.62572 8.04785 6.44917 8.14009L6.23355 8.25274L6.05239 8.34738L6.05001 8.35001C4.94476 8.90259 4 10.4238 4 11.6595L4.00004 13L3.00002 13L3 11.6595C3 10.9021 3.19909 10.2013 3.59727 9.55707C3.78149 9.25901 3.99559 8.99365 4.23957 8.76099C4.284 8.71862 4.35777 8.6618 4.45059 8.5961C4.42323 8.58409 4.3961 8.57116 4.36919 8.55729L3.75832 8.24261C3.52548 8.12267 3.34089 7.95088 3.20453 7.72726C3.06818 7.50363 3 7.26086 3 6.99894L3 3.85311C3 3.74006 3.02163 3.6313 3.0649 3.52686C3.10816 3.42241 3.16976 3.33021 3.2497 3.25027L3.5 2.99998L3.2497 2.74969C3.16976 2.66975 3.10816 2.57755 3.0649 2.4731C3.02163 2.36865 3 2.2599 3 2.14685L3 1.74899Q3 1.43875 3.21938 1.21937Q3.43875 1 3.749 1L6.00099 1Q8.48584 1 10.2429 2.75705Q11.9999 4.5141 11.9999 6.99894ZM5.4993 3.9L5.5005 3.9C5.66602 3.9 5.8073 3.95852 5.92434 4.07556C6.04138 4.1926 6.0999 4.33388 6.0999 4.4994L6.0999 4.5006C6.0999 4.66612 6.04138 4.8074 5.92434 4.92444C5.8073 5.04148 5.66602 5.1 5.5005 5.1L5.4993 5.1C5.33378 5.1 5.1925 5.04148 5.07546 4.92444Q4.8999 4.74888 4.8999 4.5006L4.8999 4.4994C4.8999 4.33388 4.95842 4.1926 5.07546 4.07556C5.1925 3.95852 5.33378 3.9 5.4993 3.9ZM12.501 14L2.499 14Q2.44985 14 2.40165 14.0096Q2.35345 14.0192 2.30804 14.038Q2.26263 14.0568 2.22177 14.0841Q2.18091 14.1114 2.14615 14.1462Q2.1114 14.1809 2.0841 14.2218Q2.05679 14.2626 2.03798 14.308Q2.01918 14.3534 2.00959 14.4016Q2 14.4499 2 14.499L2 14.501Q2 14.5501 2.00959 14.5983Q2.01918 14.6466 2.03798 14.692Q2.05679 14.7374 2.0841 14.7782Q2.1114 14.8191 2.14615 14.8538Q2.18091 14.8886 2.22177 14.9159Q2.26263 14.9432 2.30804 14.962Q2.35345 14.9808 2.40165 14.9904Q2.44985 15 2.499 15L12.501 15Q12.5501 15 12.5983 14.9904Q12.6466 14.9808 12.692 14.962Q12.7374 14.9432 12.7782 14.9159Q12.8191 14.8886 12.8538 14.8538Q12.8886 14.8191 12.9159 14.7782Q12.9432 14.7374 12.962 14.692Q12.9808 14.6466 12.9904 14.5983Q13 14.5501 13 14.501L13 14.499Q13 14.4499 12.9904 14.4016Q12.9808 14.3534 12.962 14.308Q12.9432 14.2626 12.9159 14.2218Q12.8886 14.1809 12.8538 14.1462Q12.8191 14.1114 12.7782 14.0841Q12.7374 14.0568 12.692 14.038Q12.6466 14.0192 12.5983 14.0096Q12.5501 14 12.501 14Z" id="Rectangle-Union" fill="#000000" fill-rule="evenodd" stroke="none" artboard="fd694b62-e040-4722-a3cb-3b3f4e10ac99" />
  </g>
</svg>