<?xml version="1.0" encoding="utf-8"?>
<svg width="15px" height="15px" viewBox="0 0 15 15" version="1.1" xmlns:xlink="http://www.w3.org/1999/xlink" xmlns="http://www.w3.org/2000/svg">
  <defs>
    <rect width="15" height="15" id="artboard_1" />
    <clipPath id="clip_1">
      <use xlink:href="#artboard_1" clip-rule="evenodd" />
    </clipPath>
  </defs>
  <g id="icon--chess-queen" clip-path="url(#clip_1)">
    <path d="M7.49172 1.5L7.48972 1.5C7.21386 1.5 6.97839 1.59753 6.78332 1.7926C6.58826 1.98767 6.49072 2.22313 6.49072 2.499L6.49072 2.501C6.49072 2.77687 6.58826 3.01233 6.78332 3.2074C6.97839 3.40247 7.21386 3.5 7.48972 3.5L7.49172 3.5C7.76759 3.5 8.00306 3.40247 8.19812 3.2074C8.39319 3.01233 8.49072 2.77687 8.49072 2.501L8.49072 2.499C8.49072 2.22313 8.39319 1.98767 8.19812 1.7926C8.00306 1.59753 7.76759 1.5 7.49172 1.5L7.49172 1.5ZM2.09082 4.49109L2.1396 4.7545L2.29023 5.56791L3.48126 13L4.49843 13L3.42236 6.18867C3.72718 6.26883 4.04091 6.28624 4.36355 6.2409C4.96091 6.15694 5.47038 5.87301 5.89194 5.3891C6.37112 5.79636 6.90715 5.99999 7.50001 5.99999C8.10642 5.99999 8.65336 5.78695 9.14084 5.36088C9.56712 5.862 10.0846 6.15534 10.6934 6.2409C10.995 6.28328 11.2889 6.27079 11.575 6.20341L10.5015 13L11.5183 13L12.6991 5.62402L12.7268 5.47437L12.8652 4.72704L12.9089 4.49109C12.8004 4.47023 12.6911 4.44997 12.5809 4.43034C12.555 4.42573 12.5291 4.42115 12.5031 4.41661C12.2775 4.67981 12.038 4.88859 11.7916 5.03295C11.4784 5.21641 11.154 5.29582 10.8324 5.25063C10.2782 5.17274 9.81764 4.73652 9.49154 4.06312C9.32109 4.05221 9.14949 4.04267 8.97682 4.03454C8.8564 4.21116 8.72779 4.36675 8.59233 4.49858L8.59165 4.49924C8.26176 4.82004 7.89131 5 7.49984 4.99999C7.12367 4.99999 6.76692 4.83383 6.44691 4.53621C6.41218 4.50391 6.37789 4.47007 6.34405 4.43472C6.2317 4.31736 6.12438 4.18343 6.02287 4.03454C5.87002 4.04174 5.71801 4.05004 5.56689 4.05942C5.48164 4.23596 5.38717 4.39625 5.28421 4.53813C5.26208 4.56862 5.23956 4.59825 5.21666 4.62702C4.93834 4.97659 4.60318 5.19737 4.2242 5.25063C3.88068 5.29891 3.53383 5.20496 3.20092 4.99383C2.9744 4.85017 2.75434 4.65227 2.54616 4.408C2.50362 4.41536 2.4612 4.4228 2.4189 4.43034C2.30869 4.44997 2.19932 4.47023 2.09082 4.49109L2.09082 4.49109ZM12.501 14L2.499 14C2.3612 14 2.24359 14.0487 2.14615 14.1462C2.04872 14.2436 2 14.3612 2 14.499L2 14.501C2 14.6388 2.04872 14.7564 2.14615 14.8538C2.24359 14.9513 2.3612 15 2.499 15L12.501 15C12.6388 15 12.7564 14.9513 12.8538 14.8538C12.9513 14.7564 13 14.6388 13 14.501L13 14.499C13 14.3612 12.9513 14.2436 12.8538 14.1462C12.7564 14.0487 12.6388 14 12.501 14L12.501 14Z" id="Vector" fill="#000000" fill-rule="evenodd" stroke="none" artboard="bdffe0aa-4f0a-4169-918c-8d77d21c40cf" />
  </g>
</svg>