<?xml version="1.0" encoding="utf-8"?>
<svg width="15px" height="15px" viewBox="0 0 15 15" version="1.1" xmlns:xlink="http://www.w3.org/1999/xlink" xmlns="http://www.w3.org/2000/svg">
  <defs>
    <rect width="15" height="15" id="artboard_1" />
    <clipPath id="clip_1">
      <use xlink:href="#artboard_1" clip-rule="evenodd" />
    </clipPath>
  </defs>
  <g id="icon--chess-rook" clip-path="url(#clip_1)">
    <path d="M13 3.499Q13 3.44985 12.9904 3.40165Q12.9808 3.35345 12.962 3.30804Q12.9432 3.26263 12.9159 3.22177Q12.8886 3.18091 12.8538 3.14615Q12.8191 3.1114 12.7782 3.0841Q12.7374 3.05679 12.692 3.03798Q12.6466 3.01918 12.5983 3.00959Q12.5501 3 12.501 3L2.499 3Q2.44985 3 2.40165 3.00959Q2.35345 3.01918 2.30804 3.03798Q2.26263 3.05679 2.22177 3.0841Q2.18091 3.1114 2.14615 3.14615Q2.1114 3.18091 2.0841 3.22177Q2.05679 3.26263 2.03798 3.30804Q2.01918 3.35345 2.00959 3.40165Q2 3.44985 2 3.499L2 8L4 9L4 13L5 13L5 8.38197L3 7.38197L3 4L5 4L5 5.001Q5 5.05015 5.00959 5.09835Q5.01918 5.14655 5.03798 5.19196Q5.05679 5.23736 5.0841 5.27823Q5.1114 5.31909 5.14615 5.35385Q5.18091 5.3886 5.22177 5.4159Q5.26263 5.44321 5.30804 5.46202Q5.35345 5.48082 5.40165 5.49041Q5.44985 5.5 5.499 5.5L5.501 5.5Q5.55015 5.5 5.59835 5.49041Q5.64655 5.48082 5.69196 5.46202Q5.73736 5.44321 5.77823 5.4159Q5.81909 5.3886 5.85385 5.35385Q5.8886 5.31909 5.9159 5.27823Q5.94321 5.23736 5.96202 5.19196Q5.98082 5.14655 5.99041 5.09835Q6 5.05015 6 5.001L6 4L9 4L9 5.001Q9 5.05015 9.00959 5.09835Q9.01918 5.14655 9.03798 5.19196Q9.05679 5.23736 9.0841 5.27823Q9.1114 5.31909 9.14615 5.35385Q9.18091 5.3886 9.22177 5.4159Q9.26263 5.44321 9.30804 5.46202Q9.35345 5.48082 9.40165 5.49041Q9.44985 5.5 9.499 5.5L9.501 5.5Q9.55015 5.5 9.59835 5.49041Q9.64655 5.48082 9.69196 5.46202Q9.73736 5.44321 9.77823 5.4159Q9.81909 5.3886 9.85385 5.35385Q9.8886 5.31909 9.9159 5.27823Q9.94321 5.23736 9.96202 5.19196Q9.98082 5.14655 9.99041 5.09835Q10 5.05015 10 5.001L10 4L12 4L12 7.38197L10 8.38197L10 13L11 13L11 9L13 8L13 3.499ZM11.501 14L3.499 14Q3.44985 14 3.40165 14.0096Q3.35345 14.0192 3.30804 14.038Q3.26263 14.0568 3.22177 14.0841Q3.18091 14.1114 3.14615 14.1462Q3.1114 14.1809 3.0841 14.2218Q3.05679 14.2626 3.03798 14.308Q3.01918 14.3534 3.00959 14.4016Q3 14.4499 3 14.499L3 14.501Q3 14.5501 3.00959 14.5983Q3.01918 14.6466 3.03798 14.692Q3.05679 14.7374 3.0841 14.7782Q3.1114 14.8191 3.14615 14.8538Q3.18091 14.8886 3.22177 14.9159Q3.26263 14.9432 3.30804 14.962Q3.35345 14.9808 3.40165 14.9904Q3.44985 15 3.499 15L11.501 15Q11.5501 15 11.5983 14.9904Q11.6466 14.9808 11.692 14.962Q11.7374 14.9432 11.7782 14.9159Q11.8191 14.8886 11.8538 14.8538Q11.8886 14.8191 11.9159 14.7782Q11.9432 14.7374 11.962 14.692Q11.9808 14.6466 11.9904 14.5983Q12 14.5501 12 14.501L12 14.499Q12 14.4499 11.9904 14.4016Q11.9808 14.3534 11.962 14.308Q11.9432 14.2626 11.9159 14.2218Q11.8886 14.1809 11.8538 14.1462Q11.8191 14.1114 11.7782 14.0841Q11.7374 14.0568 11.692 14.038Q11.6466 14.0192 11.5983 14.0096Q11.5501 14 11.501 14Z" id="Vector-shape-Union-Union" fill="#000000" fill-rule="evenodd" stroke="none" artboard="c526ca22-7e96-41a9-9858-8113bef23963" />
  </g>
</svg>