<?xml version="1.0" encoding="utf-8"?>
<svg width="15px" height="15px" viewBox="0 0 15 15" version="1.1" xmlns:xlink="http://www.w3.org/1999/xlink" xmlns="http://www.w3.org/2000/svg">
  <defs>
    <rect width="15" height="15" id="artboard_1" />
    <clipPath id="clip_1">
      <use xlink:href="#artboard_1" clip-rule="evenodd" />
    </clipPath>
  </defs>
  <g id="icon--dice-three" clip-path="url(#clip_1)">
    <path d="M3.499 3L11.501 3C11.6388 3 11.7564 3.04872 11.8538 3.14615C11.9513 3.24359 12 3.3612 12 3.499L12 11.501C12 11.6388 11.9513 11.7564 11.8538 11.8538C11.7564 11.9513 11.6388 12 11.501 12L3.499 12C3.3612 12 3.24359 11.9513 3.14615 11.8538C3.04872 11.7564 3 11.6388 3 11.501L3 3.499C3 3.3612 3.04872 3.24359 3.14615 3.14615C3.24359 3.04872 3.3612 3 3.499 3ZM4 11L4 4L11 4L11 11L4 11ZM4.80005 5.5C4.80005 5.8866 5.11345 6.2 5.50005 6.2C5.88665 6.2 6.20005 5.8866 6.20005 5.5C6.20005 5.1134 5.88665 4.8 5.50005 4.8C5.11345 4.8 4.80005 5.1134 4.80005 5.5ZM6.80005 7.5C6.80005 7.8866 7.11345 8.2 7.50005 8.2C7.88665 8.2 8.20005 7.8866 8.20005 7.5C8.20005 7.1134 7.88665 6.8 7.50005 6.8C7.11345 6.8 6.80005 7.1134 6.80005 7.5ZM8.80005 9.5C8.80005 9.8866 9.11345 10.2 9.50005 10.2C9.88665 10.2 10.2 9.8866 10.2 9.5C10.2 9.1134 9.88665 8.8 9.50005 8.8C9.11345 8.8 8.80005 9.1134 8.80005 9.5Z" id="Vector-Union" fill="#000000" fill-rule="evenodd" stroke="none" artboard="72de4813-05f5-4d79-8392-62f48f86469d" />
  </g>
</svg>