<?xml version="1.0" encoding="utf-8"?>
<svg width="15px" height="15px" viewBox="0 0 15 15" version="1.1" xmlns:xlink="http://www.w3.org/1999/xlink" xmlns="http://www.w3.org/2000/svg">
  <defs>
    <rect width="15" height="15" id="artboard_1" />
    <clipPath id="clip_1">
      <use xlink:href="#artboard_1" clip-rule="evenodd" />
    </clipPath>
  </defs>
  <g id="icon--dice" clip-path="url(#clip_1)">
    <path d="M10.8032 5.17613L6.04675 0.41966C5.96485 0.337753 5.86598 0.296799 5.75014 0.296799C5.63431 0.296799 5.53544 0.337753 5.45353 0.41966L0.697066 5.17613C0.615159 5.25803 0.574206 5.3569 0.574206 5.47274Q0.574206 5.64649 0.697066 5.76935L5.45353 10.5258C5.53544 10.6077 5.63431 10.6487 5.75014 10.6487C5.86598 10.6487 5.96485 10.6077 6.04675 10.5258L6.43872 10.1338L6.43872 13.6075Q6.43872 13.7813 6.56159 13.9041C6.6435 13.986 6.74237 14.027 6.85821 14.027L13.5852 14.027C13.701 14.027 13.7999 13.986 13.8818 13.9041Q14.0046 13.7813 14.0046 13.6075L14.0046 6.88056C14.0046 6.76472 13.9637 6.66585 13.8818 6.58394Q13.7589 6.46107 13.5852 6.46107L10.1115 6.46107L10.8032 5.76935C10.8851 5.68744 10.9261 5.58857 10.9261 5.47274C10.9261 5.3569 10.8851 5.25803 10.8032 5.17613ZM9.27083 7.30173L7.27954 9.29303L7.27954 13.1863L13.1641 13.1863L13.1641 7.30173L9.27083 7.30173ZM5.75049 1.3118L1.58962 5.47267L5.75049 9.63354L9.91136 5.47267L5.75049 1.3118ZM5.33406 3.51127C5.10426 3.28148 5.10426 2.9089 5.33406 2.6791C5.56385 2.4493 5.93643 2.4493 6.16623 2.6791C6.39603 2.9089 6.39603 3.28148 6.16623 3.51127C5.93643 3.74107 5.56385 3.74107 5.33406 3.51127ZM5.33406 5.88878C5.10426 5.65899 5.10426 5.28641 5.33406 5.05661C5.56385 4.82681 5.93643 4.82681 6.16623 5.05661C6.39603 5.28641 6.39603 5.65899 6.16623 5.88878C5.93643 6.11858 5.56385 6.11858 5.33406 5.88878ZM7.71191 5.88878C7.48211 5.65898 7.48211 5.28641 7.71191 5.05661C7.94171 4.82681 8.31429 4.82681 8.54408 5.05661C8.77388 5.28641 8.77388 5.65899 8.54408 5.88878C8.31429 6.11858 7.94171 6.11858 7.71191 5.88878ZM2.95672 5.88896C2.72692 5.65916 2.72692 5.28658 2.95672 5.05678C3.18652 4.82698 3.5591 4.82698 3.78889 5.05678C4.01869 5.28658 4.01869 5.65916 3.78889 5.88896C3.5591 6.11875 3.18652 6.11875 2.95672 5.88896ZM5.33406 8.26664C5.10426 8.03684 5.10426 7.66426 5.33406 7.43446C5.56385 7.20467 5.93643 7.20466 6.16623 7.43446C6.39603 7.66426 6.39603 8.03684 6.16623 8.26664C5.93643 8.49644 5.56385 8.49644 5.33406 8.26664ZM10.2218 9.65558C9.89676 9.65558 9.6333 9.91904 9.6333 10.244C9.6333 10.569 9.89676 10.8325 10.2218 10.8325C10.5468 10.8325 10.8102 10.569 10.8102 10.244C10.8102 9.91904 10.5468 9.65558 10.2218 9.65558Z" id="dice-Union" fill="#000000" fill-rule="evenodd" stroke="none" artboard="9039016f-1c28-455f-8759-4eecd0e7d6c0" />
  </g>
</svg>