<?xml version="1.0" encoding="utf-8"?>
<svg width="15px" height="15px" viewBox="0 0 15 15" version="1.1" xmlns:xlink="http://www.w3.org/1999/xlink" xmlns="http://www.w3.org/2000/svg">
  <defs>
    <rect width="15" height="15" id="artboard_1" />
    <clipPath id="clip_1">
      <use xlink:href="#artboard_1" clip-rule="evenodd" />
    </clipPath>
  </defs>
  <g id="icon--gameboy" clip-path="url(#clip_1)">
    <path d="M3 1L3 14L10.001 14C10.553 14 11.0242 13.8048 11.4145 13.4145C11.8048 13.0242 12 12.553 12 12.001L12 1L3 1L3 1ZM4 2L4 13L10.001 13C10.667 13 11 12.667 11 12.001L11 2L4 2L4 2ZM5 3L10 3L10 7L5 7L5 3L5 3ZM9 4L6 4L6 6L9 6L9 4L9 4ZM6.499 9L6.501 9C6.63879 9 6.75641 9.04872 6.85385 9.14615C6.95128 9.24359 7 9.3612 7 9.499L7 10L7.501 10C7.63879 10 7.75641 10.0487 7.85385 10.1462C7.95128 10.2436 8 10.3612 8 10.499L8 10.501C8 10.6388 7.95128 10.7564 7.85385 10.8538C7.75641 10.9513 7.63879 11 7.501 11L7 11L7 11.501C7 11.6388 6.95128 11.7564 6.85385 11.8538C6.75641 11.9513 6.63879 12 6.501 12L6.499 12C6.3612 12 6.24359 11.9513 6.14615 11.8538C6.04872 11.7564 6 11.6388 6 11.501L6 11L5.499 11C5.36121 11 5.24359 10.9513 5.14615 10.8538C5.04872 10.7564 5 10.6388 5 10.501L5 10.499C5 10.3612 5.04872 10.2436 5.14615 10.1462C5.24359 10.0487 5.36121 10 5.499 10L6 10L6 9.499C6 9.3612 6.04872 9.24359 6.14615 9.14615C6.24359 9.04872 6.3612 9 6.499 9L6.499 9ZM9.50124 9L9.49924 9C9.36145 9 9.24383 9.04872 9.1464 9.14615C9.04896 9.24359 9.00024 9.3612 9.00024 9.499L9.00024 9.501C9.00024 9.63879 9.04896 9.75641 9.1464 9.85385C9.24383 9.95128 9.36145 10 9.49924 10L9.50124 10C9.63904 10 9.75665 9.95128 9.85409 9.85385C9.95152 9.75641 10.0002 9.63879 10.0002 9.501L10.0002 9.499C10.0002 9.3612 9.95152 9.24359 9.85409 9.14615C9.75665 9.04872 9.63904 9 9.50124 9L9.50124 9ZM9.499 11L9.501 11C9.63879 11 9.75641 11.0487 9.85385 11.1462C9.95128 11.2436 10 11.3612 10 11.499L10 11.501C10 11.6388 9.95128 11.7564 9.85385 11.8538C9.75641 11.9513 9.63879 12 9.501 12L9.499 12C9.36121 12 9.24359 11.9513 9.14615 11.8538C9.04872 11.7564 9 11.6388 9 11.501L9 11.499C9 11.3612 9.04872 11.2436 9.14615 11.1462C9.24359 11.0487 9.36121 11 9.499 11L9.499 11Z" id="Vector" fill="#000000" fill-rule="evenodd" stroke="none" artboard="8ed3d511-9cee-4d16-8333-53e5053b84a5" />
  </g>
</svg>