<?xml version="1.0" encoding="utf-8"?>
<svg width="15px" height="15px" viewBox="0 0 15 15" version="1.1" xmlns:xlink="http://www.w3.org/1999/xlink" xmlns="http://www.w3.org/2000/svg">
  <defs>
    <rect width="15" height="15" id="artboard_1" />
    <clipPath id="clip_1">
      <use xlink:href="#artboard_1" clip-rule="evenodd" />
    </clipPath>
  </defs>
  <g id="icon--gamepad" clip-path="url(#clip_1)">
    <path d="M10.1763 10.7404C9.75241 10.5673 9.37694 10.3205 9.04992 10L5.95008 10C5.62306 10.3205 5.24759 10.5673 4.82369 10.7404C4.39978 10.9135 3.95888 11 3.501 11L3.499 11C2.53278 11 1.70806 10.6584 1.02483 9.97517C0.341611 9.29194 0 8.46722 0 7.501L0 7.499C0 6.53278 0.341611 5.70806 1.02483 5.02483C1.70806 4.34161 2.53278 4 3.499 4L11.501 4C12.4672 4 13.2919 4.34161 13.9752 5.02483C14.6584 5.70806 15 6.53278 15 7.499L15 7.501C15 8.46722 14.6584 9.29194 13.9752 9.97517C13.2919 10.6584 12.4672 11 11.501 11L11.499 11C11.0411 11 10.6002 10.9135 10.1763 10.7404L10.1763 10.7404ZM11.501 5L3.499 5C2.80892 5 2.2199 5.24398 1.73194 5.73194C1.24398 6.2199 1 6.80892 1 7.499L1 7.501C1 8.19108 1.24398 8.7801 1.73194 9.26806C2.2199 9.75602 2.80892 10 3.499 10L3.501 10C3.82802 10 4.14291 9.93819 4.44567 9.81457C4.74842 9.69095 5.01658 9.51469 5.25014 9.2858L5.54177 9L9.45824 9L9.74986 9.2858C9.98342 9.51469 10.2516 9.69095 10.5543 9.81457C10.8571 9.93819 11.172 10 11.499 10L11.501 10C12.1911 10 12.7801 9.75602 13.2681 9.26806C13.756 8.7801 14 8.19108 14 7.501L14 7.499C14 6.80892 13.756 6.2199 13.2681 5.73194C12.7801 5.24398 12.1911 5 11.501 5L11.501 5ZM12.4999 5.9C12.1685 5.9 11.8999 6.16863 11.8999 6.5C11.8999 6.83137 12.1685 7.1 12.4999 7.1C12.8313 7.1 13.0999 6.83137 13.0999 6.5C13.0999 6.16863 12.8313 5.9 12.4999 5.9L12.4999 5.9ZM3.501 6L3.499 6C3.3612 6 3.24359 6.04872 3.14615 6.14615C3.04872 6.24359 3 6.3612 3 6.499L3 7L2.499 7C2.3612 7 2.24359 7.04872 2.14615 7.14615C2.04872 7.24359 2 7.3612 2 7.499L2 7.501C2 7.63879 2.04872 7.75641 2.14615 7.85385C2.24359 7.95128 2.3612 8 2.499 8L3 8L3 8.501C3 8.63879 3.04872 8.75641 3.14615 8.85385C3.24359 8.95128 3.3612 9 3.499 9L3.501 9C3.63879 9 3.75641 8.95128 3.85385 8.85385C3.95128 8.75641 4 8.63879 4 8.501L4 8L4.501 8C4.63879 8 4.75641 7.95128 4.85385 7.85385C4.95128 7.75641 5 7.63879 5 7.501L5 7.499C5 7.3612 4.95128 7.24359 4.85385 7.14615C4.75641 7.04872 4.63879 7 4.501 7L4 7L4 6.499C4 6.3612 3.95128 6.24359 3.85385 6.14615C3.75641 6.04872 3.63879 6 3.501 6L3.501 6ZM10.4999 7.9C10.1685 7.9 9.8999 8.16863 9.8999 8.5C9.8999 8.83137 10.1685 9.1 10.4999 9.1C10.8313 9.1 11.0999 8.83137 11.0999 8.5C11.0999 8.16863 10.8313 7.9 10.4999 7.9L10.4999 7.9Z" id="Vector" fill="#000000" fill-rule="evenodd" stroke="none" artboard="84155bbe-46fb-4e91-ba61-42d550ce084f" />
  </g>
</svg>