<?xml version="1.0" encoding="utf-8"?>
<svg width="15px" height="15px" viewBox="0 0 15 15" version="1.1" xmlns:xlink="http://www.w3.org/1999/xlink" xmlns="http://www.w3.org/2000/svg">
  <defs>
    <rect width="15" height="15" id="artboard_1" />
    <clipPath id="clip_1">
      <use xlink:href="#artboard_1" clip-rule="evenodd" />
    </clipPath>
  </defs>
  <g id="icon--ghost" clip-path="url(#clip_1)">
    <path d="M7.499 1L7.501 1C8.74336 1 9.80379 1.43924 10.6823 2.31773C11.5608 3.19621 12 4.25664 12 5.499L12 13.531C11.7896 13.0571 11.4298 12.7013 11 12.563C10.8722 12.5219 10.7381 12.5 10.6 12.5C10.2118 12.5 9.85581 12.6729 9.57872 12.9604C9.336 13.2122 9.15379 13.552 9.0634 13.9407C8.84982 13.6065 8.56909 13.3424 8.24677 13.1801C8.01604 13.0639 7.76399 13 7.5 13C7.23602 13 6.98399 13.0639 6.75327 13.1801C6.43095 13.3423 6.15022 13.6065 5.93664 13.9407C5.84624 13.552 5.66403 13.2122 5.4213 12.9603C5.14422 12.6728 4.78828 12.5 4.40005 12.5C4.26191 12.5 4.12786 12.5219 4 12.563C3.57023 12.7013 3.21035 13.0572 3 13.5311L3 5.499C3 4.25664 3.43924 3.19621 4.31773 2.31773C5.19621 1.43924 6.25663 1 7.499 1L7.499 1ZM11 5.499L11 11.5276C10.8716 11.5092 10.7383 11.5 10.6 11.5C9.80568 11.5 9.18729 11.7631 8.74485 12.2892C8.37209 12.0964 7.95714 12 7.5 12C7.04287 12 6.62793 12.0964 6.25518 12.2892C5.81273 11.7631 5.19436 11.5 4.40005 11.5C4.26177 11.5 4.12842 11.5092 4 11.5276L4 5.499C4 4.53278 4.34161 3.70806 5.02483 3.02483C5.70806 2.34161 6.53278 2 7.499 2L7.501 2C8.46722 2 9.29194 2.34161 9.97516 3.02483C10.6584 3.70806 11 4.53278 11 5.499L11 5.499ZM6.00075 5.2L5.99915 5.2C5.77846 5.2 5.59009 5.27802 5.43403 5.43408C5.27798 5.59013 5.19995 5.7785 5.19995 5.9992L5.19995 6.0008C5.19995 6.22149 5.27798 6.40986 5.43403 6.56592C5.59009 6.72197 5.77846 6.8 5.99915 6.8L6.00075 6.8C6.22144 6.8 6.40982 6.72197 6.56587 6.56592C6.72192 6.40986 6.79995 6.22149 6.79995 6.0008L6.79995 5.9992C6.79995 5.7785 6.72192 5.59013 6.56587 5.43408C6.40982 5.27802 6.22144 5.2 6.00075 5.2L6.00075 5.2ZM8.99915 5.2L9.00075 5.2C9.22144 5.2 9.40982 5.27802 9.56587 5.43408C9.72192 5.59013 9.79995 5.7785 9.79995 5.9992L9.79995 6.0008C9.79995 6.22149 9.72192 6.40986 9.56587 6.56592C9.40982 6.72197 9.22144 6.8 9.00075 6.8L8.99915 6.8C8.77846 6.8 8.59009 6.72197 8.43403 6.56592C8.27798 6.40986 8.19995 6.22149 8.19995 6.0008L8.19995 5.9992C8.19995 5.7785 8.27798 5.59013 8.43403 5.43408C8.59009 5.27802 8.77846 5.2 8.99915 5.2L8.99915 5.2Z" id="Vector" fill="#000000" fill-rule="evenodd" stroke="none" artboard="bc366597-a925-4a29-8b7d-a038244d5866" />
  </g>
</svg>